<svg width="100" height="80" viewBox="0 0 100 80" fill="none" xmlns="http://www.w3.org/2000/svg">
<mask id="mask0_1608_2024" style="mask-type:luminance" maskUnits="userSpaceOnUse" x="0" y="0" width="100" height="80">
<path d="M60.0012 0H40.0012C21.1462 0 11.7162 -5.96046e-07 5.86125 5.86C1.64125 10.075 0.46125 16.145 0.13125 26.25H99.8712C99.5412 16.145 98.3612 10.075 94.1412 5.86C88.2862 -5.96046e-07 78.8562 0 60.0012 0ZM40.0012 80H60.0012C78.8562 80 88.2862 80 94.1412 74.14C99.9962 68.28 100.001 58.855 100.001 40C100.001 37.7933 99.9979 35.71 99.9912 33.75H0.0112504C0.00125039 35.71 -0.00208341 37.7933 0.00124993 40C0.00124993 58.855 0.00124931 68.285 5.86125 74.14C11.7212 79.995 21.1462 80 40.0012 80Z" fill="white"/>
<path fill-rule="evenodd" clip-rule="evenodd" d="M16.25 60C16.25 59.0054 16.6451 58.0516 17.3483 57.3484C18.0516 56.6451 19.0054 56.25 20 56.25H40C40.9946 56.25 41.9484 56.6451 42.6516 57.3484C43.3549 58.0516 43.75 59.0054 43.75 60C43.75 60.9946 43.3549 61.9484 42.6516 62.6517C41.9484 63.3549 40.9946 63.75 40 63.75H20C19.0054 63.75 18.0516 63.3549 17.3483 62.6517C16.6451 61.9484 16.25 60.9946 16.25 60ZM48.75 60C48.75 59.0054 49.1451 58.0516 49.8483 57.3484C50.5516 56.6451 51.5054 56.25 52.5 56.25H60C60.9946 56.25 61.9484 56.6451 62.6516 57.3484C63.3549 58.0516 63.75 59.0054 63.75 60C63.75 60.9946 63.3549 61.9484 62.6516 62.6517C61.9484 63.3549 60.9946 63.75 60 63.75H52.5C51.5054 63.75 50.5516 63.3549 49.8483 62.6517C49.1451 61.9484 48.75 60.9946 48.75 60Z" fill="black"/>
</mask>
<g mask="url(#mask0_1608_2024)">
<path d="M-10 -20H110V100H-10V-20Z" fill="white"/>
</g>
</svg>
