<svg width="106" height="107" viewBox="0 0 106 107" fill="none" xmlns="http://www.w3.org/2000/svg">
<path d="M64.735 0.299805L80.635 22.5798L91.12 19.0048L100.69 46.9998H105.5V107H0.5V46.9998H3.05V46.9498L6.29 46.9798L64.735 0.299805ZM39.985 46.9998H90.125L84.94 31.8348L77.33 34.2698L39.985 46.9998ZM32.195 39.0848L70.75 25.9498L62.73 14.6998L32.195 39.0848ZM20.5 56.9998H10.5V66.9998C13.1522 66.9998 15.6957 65.9463 17.5711 64.0709C19.4464 62.1955 20.5 59.652 20.5 56.9998ZM70.5 76.9998C70.5 74.7017 70.0473 72.4261 69.1679 70.3029C68.2884 68.1797 66.9994 66.2505 65.3744 64.6255C63.7493 63.0004 61.8202 61.7114 59.697 60.8319C57.5738 59.9525 55.2981 59.4998 53 59.4998C50.7019 59.4998 48.4262 59.9525 46.303 60.8319C44.1798 61.7114 42.2507 63.0004 40.6256 64.6255C39.0006 66.2505 37.7116 68.1797 36.8321 70.3029C35.9526 72.4261 35.5 74.7017 35.5 76.9998C35.5 81.6411 37.3437 86.0923 40.6256 89.3742C43.9075 92.6561 48.3587 94.4998 53 94.4998C57.6413 94.4998 62.0925 92.6561 65.3744 89.3742C68.6563 86.0923 70.5 81.6411 70.5 76.9998ZM95.5 96.9998V86.9998C92.8478 86.9998 90.3043 88.0534 88.4289 89.9288C86.5536 91.8041 85.5 94.3477 85.5 96.9998H95.5ZM85.5 56.9998C85.5 59.652 86.5536 62.1955 88.4289 64.0709C90.3043 65.9463 92.8478 66.9998 95.5 66.9998V56.9998H85.5ZM10.5 96.9998H20.5C20.5 94.3477 19.4464 91.8041 17.5711 89.9288C15.6957 88.0534 13.1522 86.9998 10.5 86.9998V96.9998Z" fill="white"/>
</svg>
