<svg width="96" height="96" viewBox="0 0 96 96" fill="none" xmlns="http://www.w3.org/2000/svg">
<path d="M43 60.499C43 67.399 54.195 72.999 68 72.999C81.805 72.999 93 67.399 93 60.499M3 35.499C3 42.399 14.195 47.999 28 47.999C33.63 47.999 38.825 47.069 43 45.499M3 52.999C3 59.899 14.195 65.499 28 65.499C33.63 65.499 38.82 64.569 43 62.999M68 52.999C54.195 52.999 43 47.399 43 40.499C43 33.599 54.195 27.999 68 27.999C81.805 27.999 93 33.599 93 40.499C93 47.399 81.805 52.999 68 52.999Z" stroke="white" stroke-width="5" stroke-linecap="round" stroke-linejoin="round"/>
<path d="M3 15.499V70.499C3 77.3991 14.195 82.9991 28 82.9991C33.63 82.9991 38.82 82.0691 43 80.4991M43 80.4991V40.499M43 80.4991C43 87.3991 54.195 92.9991 68 92.9991C81.805 92.9991 93 87.3991 93 80.4991V40.499M53 30.499V15.499" stroke="white" stroke-width="5" stroke-linecap="round" stroke-linejoin="round"/>
<path d="M28 27.999C14.195 27.999 3 22.399 3 15.499C3 8.59902 14.195 2.99902 28 2.99902C41.805 2.99902 53 8.59902 53 15.499C53 22.399 41.805 27.999 28 27.999Z" stroke="white" stroke-width="5" stroke-linecap="round" stroke-linejoin="round"/>
</svg>
