<svg width="133" height="133" viewBox="0 0 133 133" fill="none" xmlns="http://www.w3.org/2000/svg">
<path d="M125.742 95.5844C132.518 81.8792 134.342 66.2542 130.904 51.3589C127.466 36.4635 118.979 23.2144 106.88 13.8581C94.7815 4.50185 79.8168 -0.385845 64.5232 0.0237896C49.2296 0.433424 34.5484 6.11518 22.969 16.1057C11.3895 26.0962 3.62432 39.7806 0.990141 54.8386C-1.64404 69.8966 1.01488 85.4015 8.51605 98.7243C16.0172 112.047 27.899 122.368 42.1467 127.937C56.3945 133.506 72.1313 133.98 86.689 129.279L85.6695 126.127C71.8397 130.593 56.8897 130.142 43.3544 124.852C29.819 119.562 18.5313 109.757 11.4052 97.1003C4.27913 84.4436 1.75316 69.714 4.25563 55.4089C6.7581 41.1038 14.135 28.1036 25.1355 18.6126C36.136 9.12165 50.0831 3.72398 64.612 3.33483C79.1409 2.94567 93.3575 7.58899 104.851 16.4775C116.345 25.3659 124.408 37.9526 127.674 52.1032C130.94 66.2538 129.207 81.0975 122.77 94.1174L125.742 95.5844Z" fill="#00AAD3"/>
</svg>
