<svg width="95" height="95" viewBox="0 0 95 95" fill="none" xmlns="http://www.w3.org/2000/svg">
<path d="M90.0813 68.4763C94.9356 58.6579 96.2421 47.4643 93.7792 36.7933C91.3164 26.1223 85.2358 16.6307 76.5685 9.92792C67.9011 3.22511 57.1804 -0.276418 46.2242 0.0170428C35.2679 0.310503 24.7504 4.38089 16.4549 11.538C8.15937 18.6952 2.59645 28.4986 0.709333 39.2861C-1.17778 50.0736 0.727054 61.1813 6.10086 70.7257C11.4747 80.2701 19.9867 87.6639 30.1937 91.6533C40.4008 95.6428 51.6746 95.9825 62.1036 92.6147L61.3733 90.3568C51.4657 93.5562 40.7556 93.2335 31.0589 89.4435C21.3622 85.6535 13.2758 78.6294 8.17066 69.5623C3.06555 60.4951 1.25596 49.9428 3.04871 39.6947C4.84147 29.4466 10.1262 20.1333 18.007 13.334C25.8877 6.53471 35.8794 2.66784 46.2878 2.38905C56.6962 2.11027 66.8809 5.43672 75.1149 11.8044C83.3489 18.1721 89.1254 27.1891 91.4651 37.3265C93.8048 47.4639 92.5637 58.0979 87.9521 67.4253L90.0813 68.4763Z" fill="white"/>
</svg>
