<svg width="307" height="47" viewBox="0 0 307 47" fill="none" xmlns="http://www.w3.org/2000/svg">
<path fill-rule="evenodd" clip-rule="evenodd" d="M124.937 46.2312L140.87 2.41309H148.837L164.409 46.2312H156.804L152.821 35.7293H136.525L132.903 46.2312H124.937ZM144.853 11.1035L137.973 29.2102H151.009L144.853 11.1035Z" fill="white"/>
<path d="M0 10.0179H12.3125V45.869H21.3658V10.0179H34.4026V2.41309H0V10.0179Z" fill="white"/>
<path d="M49.6124 1.20703H41.6455V29.4534C41.6455 42.7799 53.4752 46.1115 59.39 46.1115C71.5577 46.4012 77.1345 35.6096 77.1345 29.4534V1.20703H68.8055V29.4534C68.8055 38.1446 62.5285 39.3517 59.39 38.8688C51.5679 38.8688 49.6124 32.5919 49.6124 29.4534V1.20703Z" fill="white"/>
<path fill-rule="evenodd" clip-rule="evenodd" d="M84.3779 2.41309V46.2312H91.9827V30.6594H99.5875L109.365 46.2312H117.694L107.554 29.573C110.331 28.3659 115.883 24.0686 115.883 16.5363C115.763 11.8285 112.986 2.41309 102.847 2.41309H84.3779ZM91.2578 8.93164V23.417H102.846C105.019 23.1755 109.292 21.0993 109.002 16.1743C108.882 13.3979 106.83 9.25106 98.8626 8.93164H91.2578Z" fill="white"/>
<path d="M171.651 2.41309V45.869H178.894V14.3635L199.536 46.2312H207.503L207.14 2.41309H199.898V33.5565L179.618 2.41309H171.651Z" fill="white"/>
<path d="M243.734 45.9909C221.137 27.7394 233.594 7.7255 243.009 0C225.917 0.869119 222.126 15.0889 222.006 22.0901C221.426 42.3695 236.25 46.4737 243.734 45.9909Z" fill="white"/>
<path d="M247.353 45.9909C269.95 27.7394 257.493 7.7255 248.077 0C265.17 0.869119 268.96 15.0889 269.081 22.0901C269.661 42.3695 254.837 46.4737 247.353 45.9909Z" fill="white"/>
<path d="M300.965 12.9947L305.673 8.64913C301.327 0.247514 290.463 -0.669048 285.393 0.320241C273.515 2.63789 273.331 12.4911 275.254 17.3405C277.177 22.1899 287.808 24.9453 293.722 26.0317C304.586 28.0271 299.879 36.2921 296.62 38.7063C288.218 43.3416 280.324 36.2921 277.426 32.1879L272.719 35.8093C274.747 43.6313 286.48 45.9871 291.912 45.7285C304.079 45.1491 306.518 35.8093 306.397 31.4637C306.977 23.3519 296.016 19.8757 290.463 19.1514C280.034 17.1235 278.437 9.87731 281.41 7.70452C290.825 0.823994 298.43 8.16628 300.965 12.9947Z" fill="white"/>
</svg>
