<svg width="195" height="30" viewBox="0 0 195 30" fill="none" xmlns="http://www.w3.org/2000/svg">
<path fill-rule="evenodd" clip-rule="evenodd" d="M79.5068 29.5042L89.6469 0.944336H94.7169L104.626 29.5042H99.7869L97.2519 22.6593H86.8814L84.5768 29.5042H79.5068ZM92.1814 6.60929L87.8027 18.4109H96.0991L92.1814 6.60929Z" fill="#291A42"/>
<path d="M0 5.90101H7.83547V29.2682H13.5969V5.90101H21.8932V0.944336H0V5.90101Z" fill="#291A42"/>
<path d="M31.572 0.47168H26.502V18.8822C26.502 27.5682 34.0302 29.7397 37.7943 29.7397C45.5375 29.9285 49.0866 22.8947 49.0866 18.8822V0.47168H43.7861V18.8822C43.7861 24.547 39.7915 25.3337 37.7943 25.019C32.8164 25.019 31.572 20.9278 31.572 18.8822V0.47168Z" fill="#291A42"/>
<path fill-rule="evenodd" clip-rule="evenodd" d="M53.6953 0.944336V29.5042H58.5349V19.3548H63.3744L69.5967 29.5042H74.8972L68.4444 18.6467C70.2113 17.86 73.7449 15.0591 73.7449 10.1496C73.6681 7.08117 71.9013 0.944336 65.4485 0.944336H53.6953ZM58.0732 5.19238V14.6337H65.4478C66.8305 14.4763 69.5499 13.1231 69.3655 9.91302C69.2887 8.10345 67.9828 5.40058 62.9128 5.19238H58.0732Z" fill="#291A42"/>
<path d="M109.236 0.944336V29.2682H113.845V8.7334L126.981 29.5042H132.051L131.821 0.944336H127.212V21.2431L114.306 0.944336H109.236Z" fill="#291A42"/>
<path d="M155.107 29.9761C140.727 18.0801 148.655 5.03535 154.646 0C143.769 0.566477 141.357 9.83467 141.28 14.398C140.911 27.6158 150.345 30.2908 155.107 29.9761Z" fill="#00AAD3"/>
<path d="M157.41 29.9761C171.791 18.0801 163.863 5.03535 157.871 0C168.749 0.566477 171.161 9.83467 171.238 14.398C171.606 27.6158 162.173 30.2908 157.41 29.9761Z" fill="#291A42"/>
<path d="M191.529 8.46974L194.525 5.63736C191.76 0.161325 184.846 -0.436074 181.62 0.208728C174.061 1.71933 173.943 8.14147 175.167 11.3022C176.391 14.463 183.156 16.2589 186.92 16.967C193.834 18.2676 190.838 23.6546 188.764 25.2281C183.417 28.2493 178.393 23.6546 176.55 20.9796L173.554 23.3399C174.844 28.4382 182.311 29.9736 185.768 29.8051C193.511 29.4274 195.063 23.3399 194.986 20.5075C195.355 15.2204 188.38 12.9546 184.846 12.4826C178.209 11.1608 177.192 6.43787 179.085 5.02168C185.076 0.537065 189.916 5.32265 191.529 8.46974Z" fill="#291A42"/>
</svg>
