<svg width="127" height="127" viewBox="0 0 127 127" fill="none" xmlns="http://www.w3.org/2000/svg">
<path d="M23.5256 22.0059L36.1621 47.7234C36.2252 47.8528 36.2621 47.9933 36.2707 48.137C36.2793 48.2807 36.2594 48.4246 36.2122 48.5606C36.165 48.6965 36.0914 48.8218 35.9956 48.9292C35.8998 49.0366 35.7837 49.1241 35.6541 49.1865C35.5248 49.2492 35.3845 49.2858 35.2411 49.2942C35.0977 49.3026 34.9541 49.2826 34.8184 49.2354C34.6828 49.1882 34.5577 49.1148 34.4505 49.0192C34.3433 48.9236 34.256 48.8078 34.1936 48.6785L21.5647 22.9711C21.5016 22.8418 21.4647 22.7012 21.4561 22.5576C21.4474 22.4139 21.4673 22.27 21.5145 22.134C21.5617 21.9981 21.6353 21.8728 21.7311 21.7653C21.8269 21.6579 21.943 21.5705 22.0727 21.5081C22.3317 21.3838 22.6293 21.3664 22.9011 21.4595C23.1729 21.5526 23.3972 21.7489 23.5256 22.0059Z" fill="#E0E0E0"/>
<path d="M32.4571 40.7139L35.0605 46.0117L36.385 45.3609L33.7816 40.063L32.4571 40.7139Z" fill="#E0E0E0"/>
<path d="M32.2222 37.8031C32.2823 37.9235 32.3179 38.0546 32.327 38.1889C32.336 38.3232 32.3183 38.4579 32.2748 38.5853C32.2313 38.7127 32.1629 38.8302 32.0737 38.9309C31.9844 39.0316 31.876 39.1136 31.7548 39.1721L29.7965 40.1322C29.6761 40.1924 29.5449 40.228 29.4106 40.237C29.2763 40.2461 29.1416 40.2283 29.0142 40.1849C28.8868 40.1414 28.7694 40.073 28.6686 39.9837C28.5679 39.8945 28.4859 39.7861 28.4274 39.6649C28.3673 39.5445 28.3316 39.4133 28.3226 39.279C28.3136 39.1447 28.3313 39.01 28.3748 38.8826C28.4183 38.7552 28.4866 38.6378 28.5759 38.537C28.6652 38.4363 28.7735 38.3543 28.8948 38.2958L30.8531 37.3332C30.9737 37.2731 31.105 37.2376 31.2394 37.2288C31.3738 37.2199 31.5086 37.2379 31.636 37.2816C31.7634 37.3253 31.8808 37.3939 31.9814 37.4835C32.0821 37.573 32.1639 37.6816 32.2222 37.8031Z" fill="#E0E0E0"/>
<path d="M36.4312 46.4783L39.1642 45.1346L38.453 43.6868L37.0839 44.3574L36.6394 43.4481L38.006 42.7775L36.835 40.3925L35.8749 40.8649L35.4279 39.9556L36.388 39.4831L35.6793 38.043L32.9463 39.3866L36.4312 46.4783Z" fill="#E0E0E0"/>
<path d="M20.2798 22.3864L21.3799 24.625L25.2598 22.7184L24.1597 20.4798L20.2798 22.3864Z" fill="#E0E0E0"/>
<path d="M16.139 14.6601C16.1817 14.7478 16.2301 14.8326 16.2838 14.9141C15.3169 15.507 14.606 16.4395 14.2903 17.5289C13.9746 18.6183 14.0768 19.7863 14.5769 20.8044C15.1129 21.8853 16.0545 22.7106 17.1964 23.1002C18.3383 23.4899 19.5879 23.4124 20.6729 22.8846L24.0943 21.2006C24.6312 20.937 25.1109 20.5701 25.506 20.1211C25.9011 19.672 26.2039 19.1496 26.3971 18.5835C26.5902 18.0174 26.67 17.4188 26.6318 16.8219C26.5936 16.225 26.4383 15.6414 26.1745 15.1046C25.6658 14.0707 24.7841 13.2681 23.7071 12.8585C22.6301 12.4489 21.4378 12.4628 20.3706 12.8973C20.3376 12.8084 20.302 12.7195 20.2614 12.6433C19.9919 12.0967 19.5164 11.6794 18.9393 11.4834C18.3622 11.2874 17.7309 11.3287 17.1842 11.5981C16.6375 11.8676 16.2203 12.3432 16.0243 12.9203C15.8283 13.4974 15.8695 14.1287 16.139 14.6753V14.6601ZM21.0259 14.495C21.4472 14.2878 21.9136 14.1891 22.3827 14.2078C22.8518 14.2265 23.3089 14.3621 23.7123 14.6023C24.1157 14.8424 24.4528 15.1795 24.6929 15.5829C24.9331 15.9863 25.0687 16.4433 25.0874 16.9124C25.1061 17.3816 25.0074 17.8479 24.8002 18.2692C24.593 18.6905 24.2839 19.0534 23.9009 19.325C23.5179 19.5965 23.0732 19.7681 22.607 19.8242C22.1409 19.8803 21.6682 19.8191 21.2317 19.6461C21.0761 20.1942 20.7582 20.6823 20.3198 21.0461C19.8814 21.4099 19.343 21.6324 18.7756 21.6841C18.2083 21.7359 17.6385 21.6146 17.1415 21.3362C16.6444 21.0577 16.2434 20.6353 15.9912 20.1244C15.7391 19.6135 15.6476 19.0382 15.7288 18.4743C15.81 17.9105 16.0602 17.3844 16.4464 16.9655C16.8325 16.5466 17.3365 16.2545 17.8919 16.1277C18.4473 16.0009 19.0282 16.0454 19.5578 16.2552C19.6652 15.8752 19.8514 15.522 20.1044 15.2187C20.3573 14.9154 20.6713 14.6688 21.0259 14.495ZM19.1159 13.032C19.2094 13.2264 19.2433 13.4442 19.2132 13.6578C19.1832 13.8715 19.0905 14.0715 18.9469 14.2325C18.8033 14.3935 18.6152 14.5084 18.4063 14.5627C18.1975 14.6169 17.9773 14.6081 17.7734 14.5374C17.5696 14.4666 17.3913 14.337 17.261 14.165C17.1308 13.993 17.0544 13.7863 17.0415 13.5709C17.0285 13.3555 17.0797 13.1411 17.1885 12.9548C17.2973 12.7685 17.4589 12.6186 17.6528 12.524C17.9143 12.3979 18.2151 12.3806 18.4893 12.4758C18.7635 12.571 18.9888 12.771 19.1159 13.032Z" fill="#E0E0E0"/>
<path d="M104.546 98.6359L111.145 66.2612C111.257 65.7113 110.902 65.1748 110.352 65.0627L109.909 64.9724C109.359 64.8604 108.823 65.2152 108.711 65.7651L102.112 98.1398C102 98.6896 102.355 99.2261 102.905 99.3382L103.348 99.4285C103.898 99.5406 104.434 99.1857 104.546 98.6359Z" fill="#E0E0E0"/>
<path d="M107.125 74.869L108.466 68.291L106.821 67.9557L105.48 74.5337L107.125 74.869Z" fill="#E0E0E0"/>
<path d="M109.97 78.8113L110.055 78.3981C110.16 77.8827 109.827 77.3796 109.312 77.2745L106.467 76.6942C105.952 76.589 105.449 76.9216 105.344 77.4371L105.259 77.8502C105.154 78.3656 105.487 78.8687 106.002 78.9738L108.847 79.5541C109.362 79.6593 109.865 79.3267 109.97 78.8113Z" fill="#E0E0E0"/>
<path d="M107.553 66.9161L104.16 66.2227L103.792 68.021L105.488 68.369L105.26 69.4967L103.563 69.1513L102.959 72.1104L104.15 72.3542L103.919 73.482L102.727 73.2407L102.364 75.0288L105.758 75.7197L107.553 66.9161Z" fill="#E0E0E0"/>
<path d="M105.341 99.8406L105.907 97.0605L101.091 96.079L100.525 98.859L105.341 99.8406Z" fill="#E0E0E0"/>
<path d="M103.688 109.661C103.71 109.552 103.726 109.442 103.733 109.331C105.016 109.469 106.304 109.124 107.346 108.363C108.388 107.602 109.108 106.48 109.367 105.216C109.641 103.87 109.37 102.47 108.612 101.324C107.854 100.178 106.672 99.3799 105.326 99.1051L101.074 98.239C100.407 98.1032 99.7208 98.1001 99.0531 98.2297C98.3855 98.3593 97.7499 98.6191 97.1826 98.9944C96.6154 99.3696 96.1276 99.853 95.7471 100.417C95.3667 100.98 95.101 101.614 94.9652 102.28C94.7027 103.565 94.9373 104.901 95.6219 106.019C96.3064 107.138 97.3898 107.955 98.6533 108.305C98.62 108.408 98.592 108.512 98.5695 108.617C98.501 108.954 98.4993 109.3 98.5645 109.636C98.6298 109.973 98.7608 110.294 98.9499 110.58C99.1391 110.866 99.3828 111.112 99.667 111.304C99.9513 111.496 100.271 111.63 100.607 111.698C101.285 111.837 101.991 111.7 102.569 111.318C103.147 110.936 103.549 110.34 103.688 109.661ZM99.1766 106.41C98.6536 106.304 98.1655 106.068 97.7565 105.725C97.3476 105.382 97.0308 104.943 96.8348 104.446C96.6389 103.95 96.57 103.412 96.6344 102.882C96.6988 102.352 96.8945 101.847 97.2037 101.412C97.5129 100.977 97.9259 100.626 98.4051 100.391C98.8843 100.156 99.4146 100.045 99.9479 100.066C100.481 100.088 101.001 100.243 101.459 100.516C101.917 100.79 102.3 101.174 102.573 101.632C103.095 101.25 103.72 101.035 104.367 101.014C105.014 100.994 105.651 101.17 106.196 101.519C106.741 101.868 107.167 102.374 107.419 102.97C107.671 103.566 107.737 104.225 107.608 104.859C107.478 105.493 107.16 106.073 106.695 106.523C106.23 106.972 105.64 107.271 105.002 107.379C104.364 107.487 103.708 107.399 103.121 107.127C102.533 106.856 102.042 106.413 101.711 105.856C101.351 106.12 100.939 106.306 100.503 106.402C100.066 106.497 99.6143 106.5 99.1766 106.41ZM99.8776 109.057C99.9268 108.816 100.046 108.595 100.221 108.423C100.396 108.25 100.618 108.133 100.859 108.086C101.1 108.04 101.35 108.065 101.576 108.161C101.802 108.256 101.996 108.416 102.131 108.621C102.266 108.826 102.338 109.067 102.337 109.312C102.335 109.558 102.261 109.798 102.123 110.001C101.986 110.205 101.791 110.363 101.563 110.456C101.336 110.549 101.086 110.572 100.845 110.522C100.523 110.456 100.239 110.265 100.058 109.99C99.8765 109.715 99.8116 109.38 99.8776 109.057Z" fill="#E0E0E0"/>
<path d="M101.947 13.6496L99.6406 13.6621L99.7027 25.1377L102.009 25.1252L101.947 13.6496Z" fill="#E0E0E0"/>
<path d="M85.6326 13.6786L79.6611 13.7109L79.6954 20.0456L85.6669 20.0133L85.6326 13.6786Z" fill="#EBEBEB"/>
<path d="M91.5759 13.6474L85.6045 13.6797L85.6388 20.0144L91.6102 19.982L91.5759 13.6474Z" fill="#F5F5F5"/>
<path d="M79.6694 15.4662C83.6386 15.5001 87.6112 15.4823 91.5871 15.4129C91.6039 15.4129 91.6201 15.4062 91.632 15.3943C91.6439 15.3824 91.6506 15.3662 91.6506 15.3494C91.6506 15.3325 91.6439 15.3164 91.632 15.3045C91.6201 15.2926 91.6039 15.2859 91.5871 15.2859C87.6196 15.263 83.6394 15.2859 79.672 15.357C79.6595 15.3597 79.6483 15.3666 79.6403 15.3765C79.6323 15.3865 79.6279 15.3988 79.6279 15.4116C79.6279 15.4244 79.6323 15.4367 79.6403 15.4467C79.6483 15.4566 79.6595 15.4635 79.672 15.4662H79.6694Z" fill="#E0E0E0"/>
<path d="M86.7892 19.91L75.9385 19.9688L75.9664 25.1325L86.8171 25.0738L86.7892 19.91Z" fill="#EBEBEB"/>
<path d="M97.589 19.8514L86.7383 19.9102L86.7662 25.0739L97.6169 25.0152L97.589 19.8514Z" fill="#F5F5F5"/>
<path d="M75.9454 21.4102C83.1539 21.4915 90.3878 21.4102 97.5964 21.301C97.6132 21.301 97.6294 21.2943 97.6413 21.2824C97.6532 21.2704 97.6599 21.2543 97.6599 21.2375C97.6599 21.2206 97.6532 21.2045 97.6413 21.1926C97.6294 21.1806 97.6132 21.174 97.5964 21.174C90.3878 21.1359 83.1539 21.1409 75.9454 21.301C75.9329 21.3037 75.9218 21.3106 75.9137 21.3205C75.9057 21.3304 75.9014 21.3428 75.9014 21.3556C75.9014 21.3683 75.9057 21.3807 75.9137 21.3906C75.9218 21.4006 75.9329 21.4075 75.9454 21.4102Z" fill="#E0E0E0"/>
<path d="M113.926 25.1348H71.8867V26.9839H113.926V25.1348Z" fill="#E0E0E0"/>
<path d="M80.4774 26.0254H78.7705V32.3373H80.4774V26.0254Z" fill="#E0E0E0"/>
<path d="M105.951 26.0254H104.244V32.3373H105.951V26.0254Z" fill="#E0E0E0"/>
<path d="M104.241 8.89295L101.935 8.91602L102.092 24.6996L104.399 24.6765L104.241 8.89295Z" fill="#EBEBEB"/>
<path d="M107.802 12.3087L104.218 12.3281L104.287 25.1194L107.871 25.1L107.802 12.3087Z" fill="#F5F5F5"/>
<path d="M107.777 14.7778C107.182 14.8397 106.583 14.8601 105.984 14.8387C105.386 14.8602 104.788 14.8398 104.193 14.7778C105.387 14.6965 106.584 14.6965 107.777 14.7778Z" fill="#E0E0E0"/>
<path d="M107.777 14.2412C107.182 14.3017 106.583 14.3221 105.984 14.3022C105.386 14.3221 104.788 14.3017 104.193 14.2412C105.387 14.1566 106.584 14.1566 107.777 14.2412Z" fill="#E0E0E0"/>
<path d="M107.777 23.1787C106.584 23.26 105.387 23.26 104.193 23.1787C105.387 23.0941 106.584 23.0941 107.777 23.1787Z" fill="#E0E0E0"/>
<path d="M107.777 22.641C106.584 22.7257 105.387 22.7257 104.193 22.641C105.387 22.5598 106.584 22.5598 107.777 22.641Z" fill="#E0E0E0"/>
<path d="M106.042 21.4709C106.006 21.4709 105.979 20.1806 105.979 18.588C105.979 16.9954 106.006 15.7051 106.042 15.7051C106.078 15.7051 106.103 16.9954 106.103 18.588C106.103 20.1806 106.075 21.4709 106.042 21.4709Z" fill="#E0E0E0"/>
<path d="M111.717 15.4531H107.815V25.1077H111.717V15.4531Z" fill="#EBEBEB"/>
<path d="M103.673 12.0692C103.673 12.2003 103.634 12.3285 103.561 12.4375C103.488 12.5465 103.384 12.6315 103.263 12.6817C103.142 12.7318 103.009 12.745 102.88 12.7194C102.752 12.6938 102.634 12.6307 102.541 12.538C102.448 12.4452 102.385 12.3271 102.359 12.1985C102.334 12.0699 102.347 11.9366 102.397 11.8155C102.447 11.6944 102.532 11.5908 102.641 11.518C102.75 11.4451 102.879 11.4062 103.01 11.4062C103.185 11.4062 103.354 11.4761 103.478 11.6004C103.603 11.7247 103.673 11.8934 103.673 12.0692Z" fill="#E0E0E0"/>
<path d="M103.213 13.8926H102.804V23.2804H103.213V13.8926Z" fill="#E0E0E0"/>
<path d="M28.3331 70.7012L25.4121 82.4715H26.5932L29.626 70.7012H28.3331Z" fill="#EBEBEB"/>
<path d="M36.8022 70.7012L39.7232 82.4715H38.5396L35.5068 70.7012H36.8022Z" fill="#EBEBEB"/>
<path d="M33.114 67.5H31.7373V82.4682H33.114V67.5Z" fill="#EBEBEB"/>
<path d="M42.1105 55.4961H22.6719V67.9497H42.1105V55.4961Z" fill="#E0E0E0"/>
<path d="M37.2766 70.5098H27.5205V71.7112H37.2766V70.5098Z" fill="#EBEBEB"/>
<path d="M23.9643 66.3246C23.9761 66.4002 23.9804 66.4768 23.977 66.5532H23.9516C23.9313 65.9436 23.916 63.9268 23.916 61.5342C23.916 60.0914 23.916 58.7859 23.9313 57.8258C23.9313 57.3609 23.9313 56.9799 23.9465 56.7005C23.9465 56.5769 23.9465 56.4753 23.9465 56.3957C23.9421 56.3603 23.9421 56.3245 23.9465 56.2891C23.9509 56.3245 23.9509 56.3603 23.9465 56.3957C23.9465 56.4753 23.9465 56.5769 23.9465 56.7005C23.9465 56.9799 23.9465 57.3609 23.9617 57.8258C23.9617 58.7859 23.9617 60.0914 23.977 61.5342C23.977 63.9268 23.9617 65.9436 23.9414 66.5532H23.916C23.9243 66.4756 23.9404 66.399 23.9643 66.3246Z" fill="#F5F5F5"/>
<path d="M25.4125 66.3246C25.4167 66.4007 25.4167 66.4771 25.4125 66.5532H25.3998C25.382 65.9436 25.3668 63.9268 25.3668 61.5342C25.3668 60.0914 25.3668 58.7859 25.3668 57.8258C25.3668 57.3609 25.3668 56.9799 25.382 56.7005C25.382 56.5761 25.382 56.4745 25.382 56.3957C25.376 56.3604 25.376 56.3244 25.382 56.2891C25.3854 56.3245 25.3854 56.3603 25.382 56.3957C25.382 56.4745 25.382 56.5761 25.382 56.7005C25.382 56.9799 25.382 57.3609 25.3973 57.8258C25.3973 58.7859 25.3973 60.0914 25.3973 61.5342C25.3973 63.9268 25.3973 65.9436 25.3643 66.5532H25.3998C25.3969 66.4768 25.4012 66.4002 25.4125 66.3246Z" fill="#F5F5F5"/>
<path d="M26.8574 66.3246C26.8693 66.4002 26.8736 66.4768 26.8701 66.5532H26.8447C26.8244 65.9436 26.8092 63.9268 26.8092 61.5342C26.8092 60.0914 26.8092 58.7859 26.8244 57.8258C26.8244 57.3609 26.8244 56.9799 26.8397 56.7005C26.8397 56.5769 26.8397 56.4753 26.8397 56.3957C26.8369 56.3602 26.8369 56.3246 26.8397 56.2891C26.8457 56.3244 26.8457 56.3604 26.8397 56.3957C26.8397 56.4745 26.8397 56.5761 26.8397 56.7005C26.8397 56.9799 26.8397 57.3609 26.8549 57.8258C26.8549 58.7859 26.8549 60.0914 26.8676 61.5342C26.8676 63.9268 26.8524 65.9436 26.832 66.5532H26.8066C26.8175 66.4758 26.8345 66.3993 26.8574 66.3246Z" fill="#F5F5F5"/>
<path d="M28.3057 66.3246C28.3116 66.4007 28.3116 66.4771 28.3057 66.5532H28.2803C28.26 65.9436 28.2447 63.9268 28.2447 61.5342C28.2447 60.0914 28.2447 58.7859 28.2447 57.8258C28.2447 57.3609 28.2447 56.9799 28.26 56.7005C28.26 56.5761 28.26 56.4745 28.26 56.3957C28.2555 56.3603 28.2555 56.3245 28.26 56.2891C28.2627 56.3246 28.2627 56.3602 28.26 56.3957C28.26 56.4753 28.26 56.5769 28.26 56.7005C28.26 56.9799 28.26 57.3609 28.2752 57.8258C28.2752 58.7859 28.2752 60.0914 28.2905 61.5342C28.2905 63.9268 28.2752 65.9436 28.2549 66.5532H28.2295C28.2468 66.4745 28.2723 66.3979 28.3057 66.3246Z" fill="#F5F5F5"/>
<path d="M29.751 66.3246C29.7632 66.4002 29.7683 66.4767 29.7662 66.5532H29.7383C29.718 65.9436 29.7053 63.9268 29.7053 61.5342C29.7053 60.0914 29.7053 58.7859 29.7053 57.8258C29.7053 57.3609 29.7053 56.9799 29.7205 56.7005C29.7205 56.5761 29.7205 56.4745 29.7205 56.3957C29.7172 56.3603 29.7172 56.3245 29.7205 56.2891C29.7266 56.3244 29.7266 56.3604 29.7205 56.3957C29.7205 56.4745 29.7205 56.5761 29.7205 56.7005C29.7205 56.9799 29.7205 57.3609 29.7358 57.8258C29.7358 58.7859 29.7358 60.0914 29.7358 61.5342C29.7358 63.9268 29.7205 65.9436 29.7027 66.5532H29.6748C29.6957 66.4756 29.7212 66.3993 29.751 66.3246Z" fill="#F5F5F5"/>
<path d="M31.1987 66.3246C31.2063 66.4006 31.2063 66.4772 31.1987 66.5532H31.1733C31.1529 65.9436 31.1377 63.9268 31.1377 61.5342C31.1377 60.0914 31.1377 58.7859 31.1529 57.8258C31.1529 57.3609 31.1529 56.9799 31.1682 56.7005C31.1682 56.5769 31.1682 56.4753 31.1682 56.3957C31.1637 56.3603 31.1637 56.3245 31.1682 56.2891C31.1726 56.3245 31.1726 56.3603 31.1682 56.3957C31.1682 56.4753 31.1682 56.5769 31.1682 56.7005C31.1682 56.9799 31.1682 57.3609 31.1834 57.8258C31.1834 58.7859 31.1834 60.0914 31.1987 61.5342C31.1987 63.9268 31.1834 65.9436 31.1631 66.5532H31.1377C31.1501 66.4751 31.1705 66.3985 31.1987 66.3246Z" fill="#F5F5F5"/>
<path d="M32.6461 66.3246C32.6546 66.4005 32.6588 66.4768 32.6588 66.5532H32.6309C32.6106 65.9436 32.5979 63.9268 32.5979 61.5342C32.5979 60.0914 32.5979 58.7859 32.5979 57.8258C32.5979 57.3609 32.6106 56.9799 32.6131 56.7005C32.6131 56.5761 32.6131 56.4745 32.6131 56.3957C32.607 56.3604 32.607 56.3244 32.6131 56.2891C32.6164 56.3245 32.6164 56.3603 32.6131 56.3957C32.6131 56.4745 32.6131 56.5761 32.6131 56.7005C32.6131 56.9799 32.6131 57.3609 32.6283 57.8258C32.6283 58.7859 32.6283 60.0914 32.641 61.5342C32.641 63.9268 32.6283 65.9436 32.608 66.5532H32.5801C32.5947 66.475 32.6168 66.3985 32.6461 66.3246Z" fill="#F5F5F5"/>
<path d="M34.0918 66.3246C34.1037 66.4002 34.1079 66.4768 34.1045 66.5532H34.0791C34.0588 65.9436 34.0436 63.9268 34.0436 61.5342C34.0436 60.0914 34.0436 58.7859 34.0588 57.8258C34.0588 57.3609 34.0588 56.9799 34.074 56.7005C34.074 56.5769 34.074 56.4753 34.074 56.3957C34.0713 56.3602 34.0713 56.3246 34.074 56.2891C34.0785 56.3245 34.0785 56.3603 34.074 56.3957C34.074 56.4745 34.074 56.5761 34.074 56.7005C34.074 56.9799 34.074 57.3609 34.074 57.8258C34.074 58.7859 34.074 60.0914 34.0893 61.5342C34.0893 63.9268 34.074 65.9436 34.0537 66.5532H34.0283C34.0433 66.4754 34.0645 66.399 34.0918 66.3246Z" fill="#F5F5F5"/>
<path d="M35.5391 66.3246C35.5492 66.4004 35.5535 66.4768 35.5518 66.5532H35.5264C35.5061 65.9436 35.4908 63.9268 35.4908 61.5342C35.4908 60.0914 35.4908 58.7859 35.5035 57.8258C35.5035 57.3609 35.5162 56.9799 35.5188 56.7005C35.5188 56.5761 35.5188 56.4745 35.5188 56.3957C35.5127 56.3604 35.5127 56.3244 35.5188 56.2891C35.5215 56.3246 35.5215 56.3602 35.5188 56.3957C35.5188 56.4745 35.5188 56.5761 35.5188 56.7005C35.5188 56.9799 35.5188 57.3609 35.534 57.8258C35.534 58.7859 35.534 60.0914 35.5492 61.5342C35.5492 63.9268 35.534 65.9436 35.5137 66.5532H35.4883C35.4973 66.4755 35.5144 66.3989 35.5391 66.3246Z" fill="#F5F5F5"/>
<path d="M36.9844 66.3246C36.9966 66.4002 37.0017 66.4767 36.9996 66.5532H36.9717C36.9514 65.9436 36.9361 63.9268 36.9361 61.5342C36.9361 60.0914 36.9488 58.7859 36.9514 57.8258C36.9514 57.3609 36.9641 56.9799 36.9666 56.7005C36.9666 56.5761 36.9666 56.4745 36.9666 56.3957C36.9633 56.3603 36.9633 56.3245 36.9666 56.2891C36.9727 56.3244 36.9727 56.3604 36.9666 56.3957C36.9666 56.4745 36.9666 56.5761 36.9666 56.7005C36.9666 56.9799 36.9666 57.3609 36.9819 57.8258C36.9819 58.7859 36.9819 60.0914 36.9946 61.5342C36.9946 63.9268 36.9793 65.9436 36.9615 66.5532H36.9336C36.9462 66.4761 36.9632 66.3998 36.9844 66.3246Z" fill="#F5F5F5"/>
<path d="M38.433 66.3246C38.4432 66.4004 38.4474 66.4768 38.4457 66.5532H38.4203C38.4 65.9436 38.3848 63.9268 38.3848 61.5342C38.3848 60.0914 38.3848 58.7859 38.4 57.8258C38.4 57.3609 38.4 56.9799 38.4152 56.7005C38.4152 56.5769 38.4152 56.4753 38.4152 56.3957C38.4108 56.3603 38.4108 56.3245 38.4152 56.2891C38.418 56.3246 38.418 56.3602 38.4152 56.3957C38.4152 56.4753 38.4152 56.5769 38.4152 56.7005C38.4152 56.9799 38.4152 57.3609 38.4305 57.8258C38.4305 58.7859 38.4305 60.0914 38.4457 61.5342C38.4457 63.9268 38.4305 65.9436 38.4102 66.5532H38.3848C38.393 66.4756 38.4092 66.399 38.433 66.3246Z" fill="#F5F5F5"/>
<path d="M39.8777 66.3246C39.8862 66.4005 39.8904 66.4768 39.8904 66.5532H39.8777C39.8574 65.9436 39.8447 63.9268 39.8447 61.5342C39.8447 60.0914 39.8447 58.7859 39.8574 57.8258C39.8574 57.3609 39.8574 56.9799 39.8727 56.7005C39.8727 56.5761 39.8727 56.4745 39.8727 56.3957C39.8666 56.3604 39.8666 56.3244 39.8727 56.2891C39.876 56.3245 39.876 56.3603 39.8727 56.3957C39.8727 56.4745 39.8727 56.5761 39.8727 56.7005C39.8727 56.9799 39.8727 57.3609 39.8879 57.8258C39.8879 58.7859 39.8879 60.0914 39.9006 61.5342C39.9006 63.9268 39.8879 65.9436 39.8676 66.5532H39.8777C39.8707 66.4772 39.8707 66.4006 39.8777 66.3246Z" fill="#F5F5F5"/>
<path d="M41.3256 66.3246C41.3375 66.4002 41.3417 66.4768 41.3383 66.5532H41.3129C41.2926 65.9436 41.2773 63.9268 41.2773 61.5342C41.2773 60.0914 41.2773 58.7859 41.2926 57.8258C41.2926 57.3609 41.2926 56.9799 41.3078 56.7005C41.3078 56.5769 41.3078 56.4753 41.3078 56.3957C41.3051 56.3602 41.3051 56.3246 41.3078 56.2891C41.3123 56.3245 41.3123 56.3603 41.3078 56.3957C41.3078 56.4753 41.3078 56.5769 41.3078 56.7005C41.3078 56.9799 41.3078 57.3609 41.3231 57.8258C41.3231 58.7859 41.3231 60.0914 41.3383 61.5342C41.3383 63.9268 41.3231 65.9436 41.3027 66.5532H41.2773C41.2874 66.4758 41.3035 66.3994 41.3256 66.3246Z" fill="#F5F5F5"/>
<path d="M65.4152 81.0156H14.7422V104.386H65.4152V81.0156Z" fill="#F5F5F5"/>
<path d="M64.2081 103.284H15.9023V82.248H64.2081V103.284ZM16.2173 102.969H63.8931V82.563H16.2173V102.969Z" fill="#E0E0E0"/>
<path d="M77.795 81.0156H65.415V104.386H77.795V81.0156Z" fill="#E0E0E0"/>
<path d="M16.0606 88.7579H64.0513C64.0682 88.7579 64.0843 88.7512 64.0962 88.7393C64.1081 88.7274 64.1148 88.7112 64.1148 88.6944C64.1148 88.6775 64.1081 88.6614 64.0962 88.6495C64.0843 88.6375 64.0682 88.6309 64.0513 88.6309H16.0606C16.0437 88.6309 16.0276 88.6375 16.0157 88.6495C16.0038 88.6614 15.9971 88.6775 15.9971 88.6944C15.9971 88.7112 16.0038 88.7274 16.0157 88.7393C16.0276 88.7512 16.0437 88.7579 16.0606 88.7579Z" fill="#E0E0E0"/>
<path d="M40.2136 88.6942C40.3458 86.5797 40.3509 84.4592 40.2289 82.3442C40.2259 82.3292 40.2178 82.3157 40.206 82.306C40.1942 82.2963 40.1794 82.291 40.1641 82.291C40.1488 82.291 40.134 82.2963 40.1222 82.306C40.1104 82.3157 40.1023 82.3292 40.0993 82.3442C39.9769 84.4592 39.9828 86.5798 40.1171 88.6942C40.1171 88.707 40.1222 88.7192 40.1312 88.7283C40.1403 88.7373 40.1526 88.7424 40.1654 88.7424C40.1782 88.7424 40.1904 88.7373 40.1995 88.7283C40.2085 88.7192 40.2136 88.707 40.2136 88.6942Z" fill="#E0E0E0"/>
<path d="M53.1288 85.518C53.1288 85.6471 53.0905 85.7733 53.0188 85.8807C52.9471 85.988 52.8451 86.0717 52.7258 86.1211C52.6066 86.1705 52.4753 86.1834 52.3487 86.1583C52.222 86.1331 52.1057 86.0709 52.0144 85.9796C51.9231 85.8883 51.861 85.772 51.8358 85.6454C51.8106 85.5187 51.8235 85.3875 51.8729 85.2682C51.9223 85.1489 52.006 85.047 52.1134 84.9753C52.2207 84.9035 52.3469 84.8652 52.476 84.8652C52.6489 84.8659 52.8146 84.9349 52.9369 85.0572C53.0591 85.1794 53.1281 85.3451 53.1288 85.518Z" fill="#E0E0E0"/>
<path d="M27.9395 85.518C27.94 85.6477 27.902 85.7747 27.8303 85.8828C27.7586 85.9909 27.6565 86.0753 27.5368 86.1253C27.4171 86.1752 27.2852 86.1886 27.1579 86.1636C27.0307 86.1386 26.9136 86.0764 26.8217 85.9848C26.7298 85.8933 26.6672 85.7765 26.6417 85.6493C26.6162 85.5222 26.629 85.3903 26.6785 85.2704C26.7281 85.1505 26.8121 85.048 26.9199 84.9759C27.0277 84.9037 27.1545 84.8652 27.2842 84.8652C27.4576 84.8652 27.6239 84.9339 27.7467 85.0563C27.8695 85.1786 27.9389 85.3447 27.9395 85.518Z" fill="#E0E0E0"/>
<path d="M40.711 92.7661C40.7115 92.8958 40.6735 93.0227 40.6018 93.1308C40.5301 93.2389 40.428 93.3233 40.3083 93.3733C40.1886 93.4233 40.0567 93.4366 39.9294 93.4116C39.8021 93.3866 39.6851 93.3244 39.5932 93.2329C39.5013 93.1413 39.4387 93.0246 39.4132 92.8974C39.3877 92.7702 39.4005 92.6383 39.45 92.5184C39.4996 92.3985 39.5835 92.296 39.6914 92.2239C39.7992 92.1518 39.926 92.1133 40.0557 92.1133C40.2291 92.1133 40.3954 92.182 40.5182 92.3043C40.641 92.4267 40.7104 92.5927 40.711 92.7661Z" fill="#E0E0E0"/>
<path d="M20.8025 104.387L18.3564 118.499H19.8246L24.4702 104.387H20.8025Z" fill="#E0E0E0"/>
<path d="M61.8314 104.387L64.0108 118.499H62.5452L58.1611 104.387H61.8314Z" fill="#E0E0E0"/>
<path d="M71.6258 104.387L74.2216 118.499H72.7535L67.958 104.387H71.6258Z" fill="#E0E0E0"/>
<path d="M40.6651 99.3799C40.6651 99.5097 40.6266 99.6365 40.5545 99.7443C40.4824 99.8521 40.3799 99.9361 40.26 99.9856C40.1401 100.035 40.0082 100.048 39.881 100.022C39.7538 99.997 39.6371 99.9343 39.5455 99.8424C39.454 99.7505 39.3918 99.6335 39.3668 99.5062C39.3418 99.3789 39.3551 99.2471 39.4051 99.1274C39.4551 99.0077 39.5395 98.9055 39.6476 98.8338C39.7557 98.7621 39.8826 98.7241 40.0124 98.7246C40.0983 98.7246 40.1834 98.7416 40.2627 98.7745C40.3421 98.8075 40.4142 98.8558 40.4748 98.9167C40.5355 98.9776 40.5835 99.0499 40.6162 99.1293C40.6488 99.2088 40.6655 99.294 40.6651 99.3799Z" fill="#E0E0E0"/>
<path d="M16.0606 95.9942H64.0513C64.0682 95.9942 64.0843 95.9875 64.0962 95.9756C64.1081 95.9637 64.1148 95.9475 64.1148 95.9307C64.1148 95.9138 64.1081 95.8977 64.0962 95.8858C64.0843 95.8739 64.0682 95.8672 64.0513 95.8672H16.0606C16.0437 95.8672 16.0276 95.8739 16.0157 95.8858C16.0038 95.8977 15.9971 95.9138 15.9971 95.9307C15.9971 95.9475 16.0038 95.9637 16.0157 95.9756C16.0276 95.9875 16.0437 95.9942 16.0606 95.9942Z" fill="#E0E0E0"/>
<path d="M118.588 44.6172H106.23V47.8862H118.588V44.6172Z" fill="#F5F5F5"/>
<path d="M113.363 51.3298C113.361 51.3103 113.361 51.2908 113.363 51.2713V51.1037C113.363 50.9488 113.363 50.7354 113.363 50.4585C113.363 49.8947 113.363 49.0844 113.342 48.0608L113.38 48.0989L101.023 48.1243L101.087 48.0608V48.8914C101.087 49.1682 101.087 49.4451 101.087 49.7169V51.3247L101.026 51.2637L109.832 51.2917L112.43 51.3094H113.134H113.317H113.383C113.383 51.3094 113.365 51.3094 113.327 51.3094H113.149H112.461L109.875 51.3272L101.026 51.3552H100.965V51.2942C100.965 50.7693 100.965 50.2333 100.965 49.6864V48.0303L101.028 47.9668L113.385 47.9922H113.424V48.0303C113.424 49.0641 113.408 49.882 113.403 50.4509C113.403 50.7227 113.403 50.9361 113.403 51.0859C113.403 51.152 113.403 51.2053 113.403 51.2485C113.403 51.2917 113.365 51.3323 113.363 51.3298Z" fill="#E0E0E0"/>
<path d="M94.0327 79.9917C94.0305 79.9722 94.0305 79.9526 94.0327 79.9332V79.7656C94.0327 79.6107 94.0327 79.3973 94.0327 79.1204C94.0327 78.5566 94.02 77.7463 94.0098 76.7227L94.0505 76.7608L81.6934 76.7862C81.7213 76.7582 81.6299 76.8497 81.7543 76.7227V79.9866L81.6908 79.9256L90.497 79.9536L93.098 79.9713H93.8016H93.9844H94.0505H93.9921H93.8168H93.1259L90.5402 79.9891L81.6908 80.0171H81.6299V76.7278C81.7569 76.6008 81.6654 76.6922 81.6959 76.6643L94.053 76.6897H94.0911V76.7278C94.0911 77.7615 94.0733 78.5794 94.0683 79.1484C94.0683 79.4202 94.0683 79.6335 94.0683 79.7834C94.0683 79.8494 94.0683 79.9028 94.0683 79.9459C94.0579 79.9622 94.0459 79.9775 94.0327 79.9917Z" fill="#E0E0E0"/>
<path d="M26.0016 45.9258H13.6445V49.1948H26.0016V45.9258Z" fill="#F5F5F5"/>
<path d="M20.777 52.6392C20.7752 52.6189 20.7752 52.5985 20.777 52.5782C20.777 52.535 20.777 52.4792 20.777 52.4106C20.777 52.2582 20.777 52.0423 20.777 51.768C20.777 51.2041 20.777 50.3913 20.7567 49.3677L20.7948 49.4058L8.43773 49.4312C8.46567 49.4032 8.37422 49.4947 8.49868 49.3677V52.6366L8.43773 52.5731L17.2439 52.6011L19.8423 52.6189H20.5459H20.7288C20.7507 52.6153 20.773 52.6153 20.7948 52.6189H20.7364H20.5611H19.8703L17.2718 52.6722L8.42248 52.7001H8.35645V49.3702C8.48091 49.2457 8.39201 49.3372 8.41995 49.3092L20.777 49.3321H20.8278V49.3702C20.8278 50.404 20.8126 51.2219 20.8075 51.7934C20.8075 52.0651 20.8075 52.276 20.8075 52.4284C20.8075 52.4944 20.8075 52.5477 20.8075 52.5884C20.7986 52.606 20.7884 52.623 20.777 52.6392Z" fill="#E0E0E0"/>
<path d="M67.4116 12.8137C67.4094 12.7943 67.4094 12.7747 67.4116 12.7553V12.5877C67.4116 12.4327 67.4116 12.2194 67.4116 11.945C67.4116 11.3786 67.3989 10.5684 67.3913 9.54475L67.4294 9.58285L55.0723 9.60825C55.1002 9.58031 55.0088 9.67175 55.1332 9.54475V12.8137L55.0723 12.7528L63.8785 12.7807L66.4769 12.7985H67.1805H67.3633H67.4294H67.371H67.1957H66.5048L63.9216 12.8137L55.0723 12.8442H55.0088V9.54983L55.0723 9.48633L67.4294 9.51173H67.4675V9.54983C67.4675 10.5836 67.4522 11.4015 67.4472 11.973C67.4472 12.2422 67.4472 12.4556 67.4472 12.6054V12.768C67.4368 12.7843 67.4248 12.7996 67.4116 12.8137Z" fill="#E0E0E0"/>
<path d="M69.0881 9.54496C69.0845 9.52481 69.0845 9.50416 69.0881 9.484C69.0881 9.43574 69.0881 9.37986 69.0881 9.30874C69.0881 9.14872 69.0881 8.93028 69.0881 8.65342C69.0881 8.08192 69.0754 7.27166 69.0653 6.27598L69.111 6.3217L61.6637 6.34964C61.6053 6.40552 61.7374 6.27344 61.7247 6.28614V7.96762C61.7247 8.51372 61.7247 9.04458 61.7247 9.55258L61.6637 9.49416L66.9749 9.5221L68.5243 9.53734H68.9408H69.0907C69.0459 9.54082 69.0009 9.54082 68.9561 9.53734H68.5497L67.0257 9.55512L61.6739 9.58306H61.6155V9.5221C61.6155 9.0141 61.6155 8.48324 61.6155 7.93714V6.27852C61.6002 6.29122 61.7348 6.15914 61.679 6.21502L69.1034 6.2328H69.1491V6.27852C69.1491 7.29452 69.1313 8.10478 69.1262 8.6839C69.1262 8.95568 69.1262 9.17158 69.1135 9.32906C69.1009 9.48654 69.0881 9.5475 69.0881 9.54496Z" fill="#E0E0E0"/>
<path d="M114.534 118.498C114.534 118.536 91.6742 118.564 63.503 118.564C35.3319 118.564 12.4668 118.536 12.4668 118.498C12.4668 118.46 35.3116 118.432 63.503 118.432C91.6945 118.432 114.534 118.462 114.534 118.498Z" fill="#263238"/>
<path d="M51.0541 28.3714L50.0381 26.3241C50.6694 24.6044 50.6347 22.7108 49.9408 21.0154C49.2468 19.32 47.9438 17.9454 46.2879 17.162C44.6319 16.3785 42.7428 16.2428 40.9919 16.7814C39.2409 17.3201 37.7548 18.4942 36.8256 20.073C35.8964 21.6518 35.5913 23.521 35.9703 25.3133C36.3493 27.1056 37.3851 28.6913 38.8739 29.7588C40.3627 30.8262 42.1969 31.2981 44.016 31.0818C45.8352 30.8655 47.5076 29.9766 48.7046 28.5898L51.0541 28.3714Z" fill="white"/>
<path d="M51.0536 28.3723L50.9063 28.3901L50.4644 28.4383L48.7143 28.6212C48.7078 28.6209 48.7016 28.6185 48.6966 28.6144C48.6916 28.6103 48.688 28.6046 48.6864 28.5984C48.6864 28.5984 48.6864 28.5984 48.6864 28.5831L48.7295 28.6111C47.9357 29.5393 46.9231 30.2552 45.7831 30.6939C45.4324 30.8291 45.0714 30.9362 44.7036 31.0139C44.3033 31.0947 43.8975 31.1448 43.4895 31.1638C42.595 31.206 41.7003 31.0828 40.8505 30.8005C39.8751 30.4755 38.9781 29.951 38.2163 29.2606C37.4546 28.5701 36.8448 27.7287 36.4258 26.7899C35.9567 25.7247 35.7457 24.5637 35.8102 23.4015C35.8746 22.2394 36.2126 21.1089 36.7966 20.1021L37.0303 19.7134L37.2995 19.3477L37.4342 19.1648L37.5815 18.9972L37.8812 18.6619C37.9828 18.5552 38.0971 18.4587 38.2063 18.3571C38.3106 18.2524 38.4217 18.1548 38.5391 18.065C38.7673 17.8801 39.0074 17.7104 39.2579 17.557C40.1951 16.9637 41.2554 16.5919 42.3579 16.47C43.4605 16.3481 44.5763 16.4792 45.6206 16.8534C47.4201 17.4874 48.9035 18.795 49.7582 20.5008C49.9407 20.8668 50.0945 21.2464 50.218 21.6362C50.3249 22.0033 50.4097 22.3765 50.472 22.7538C50.6447 23.9603 50.5119 25.1908 50.0859 26.3327V26.3149C50.4059 26.9829 50.6549 27.4985 50.8225 27.8516C50.9038 28.0192 50.9647 28.1513 51.0079 28.2428C51.0511 28.3342 51.0689 28.3723 51.0689 28.3723C51.0689 28.3723 51.0409 28.324 50.9978 28.2377L50.7971 27.844L50.0351 26.3352C50.0339 26.3324 50.0333 26.3294 50.0333 26.3263C50.0333 26.3233 50.0339 26.3202 50.0351 26.3174C50.4442 25.1793 50.5655 23.9577 50.3882 22.7614C50.3258 22.3892 50.241 22.0211 50.1342 21.6591C50.0105 21.2742 49.8568 20.8997 49.6744 20.5389C49.011 19.23 47.9688 18.1512 46.6835 17.443C45.3981 16.7349 43.9294 16.4303 42.4684 16.5689C41.3497 16.686 40.2725 17.0569 39.3188 17.6535C39.0723 17.8068 38.8364 17.9765 38.6127 18.1615C38.4969 18.2503 38.3866 18.3462 38.2825 18.4485C38.1784 18.5501 38.0666 18.6441 37.965 18.7508L37.6704 19.081L37.5231 19.2461L37.391 19.4239L37.137 19.7846L36.9058 20.1681C36.3126 21.1794 35.9776 22.3214 35.9305 23.493C35.8632 25.071 36.311 26.6281 37.2063 27.9294C38.1016 29.2306 39.3958 30.2054 40.8936 30.7066C41.7321 30.9855 42.6142 31.1103 43.4971 31.0749C43.8996 31.0557 44.3002 31.0082 44.696 30.9326C45.0652 30.8562 45.4279 30.7509 45.7806 30.6177C46.9107 30.1919 47.9184 29.4939 48.7143 28.5857C48.7195 28.5808 48.7263 28.5782 48.7334 28.5782C48.7404 28.5782 48.7472 28.5808 48.7524 28.5857C48.7556 28.5906 48.7573 28.5963 48.7573 28.6022C48.7573 28.608 48.7556 28.6138 48.7524 28.6187L48.727 28.5831L50.4618 28.4333L50.9139 28.3952L51.0536 28.3723Z" fill="#263238"/>
<path d="M39.7891 24.2885L40.7365 23.3386L42.5653 24.9642L46.1568 21.5098L47.0357 22.4597L42.4307 26.793L39.7891 24.2885Z" fill="#00AAD3"/>
<path d="M46.5731 109.049L42.1637 113.235C42.1637 113.235 46.5223 118.211 45.9737 119.24L35.3311 113.108L41.9097 105.717L46.5731 109.049Z" fill="#455A64"/>
<g opacity="0.6">
<path d="M39.2279 110.766C39.1089 110.735 38.983 110.749 38.8732 110.804C38.7635 110.859 38.6774 110.952 38.631 111.066C38.5945 111.184 38.6045 111.311 38.6588 111.422C38.713 111.533 38.8075 111.619 38.9231 111.663C39.0497 111.696 39.1841 111.681 39.3007 111.622C39.4174 111.562 39.5081 111.462 39.5555 111.34C39.5788 111.214 39.5533 111.083 39.484 110.974C39.4147 110.866 39.3068 110.788 39.1821 110.756" fill="white"/>
</g>
<g opacity="0.6">
<path d="M35.3311 113.108L35.9991 112.346L45.9051 118.536C45.981 118.655 46.0258 118.79 46.0356 118.931C46.0454 119.072 46.0197 119.213 45.961 119.341L35.3311 113.108Z" fill="white"/>
</g>
<path d="M42.3592 113.284C42.3262 113.332 42.0569 113.197 41.7064 113.202C41.3559 113.208 41.0866 113.34 41.0536 113.289C41.0206 113.238 41.2771 112.994 41.7039 112.994C42.1306 112.994 42.3998 113.248 42.3592 113.284Z" fill="#263238"/>
<path d="M43.1646 114.425C43.1468 114.481 42.8725 114.425 42.5652 114.534C42.2578 114.643 42.0572 114.836 42.0165 114.803C41.9759 114.77 42.1156 114.463 42.4991 114.336C42.8827 114.209 43.1951 114.374 43.1646 114.425Z" fill="#263238"/>
<path d="M42.9636 116.115C42.9128 116.097 43.0017 115.8 43.304 115.607C43.6063 115.414 43.9161 115.449 43.9111 115.505C43.906 115.561 43.6571 115.619 43.4183 115.782C43.1795 115.945 43.0195 116.14 42.9636 116.115Z" fill="#263238"/>
<path d="M43.0375 112.013C42.9867 112.046 42.7988 111.83 42.499 111.67C42.1993 111.51 41.9199 111.459 41.9199 111.398C41.9199 111.337 42.2501 111.291 42.5981 111.487C42.9461 111.683 43.0858 111.982 43.0375 112.013Z" fill="#263238"/>
<path d="M43.7331 110.939C43.7204 110.959 43.5019 110.865 43.2251 110.609C43.0579 110.459 42.9103 110.288 42.7857 110.101C42.7115 109.991 42.6453 109.875 42.5875 109.755C42.5496 109.686 42.5222 109.612 42.5063 109.534C42.4944 109.477 42.5026 109.418 42.5294 109.366C42.5563 109.314 42.6001 109.273 42.6536 109.25C42.7013 109.231 42.7528 109.223 42.8039 109.228C42.8551 109.232 42.9045 109.248 42.9482 109.275C43.0146 109.315 43.0746 109.365 43.126 109.423C43.38 109.684 43.5643 110.004 43.662 110.355C43.7388 110.551 43.753 110.765 43.7026 110.969C43.6696 110.969 43.6518 110.738 43.5223 110.401C43.445 110.205 43.3444 110.019 43.2225 109.847C43.1493 109.748 43.0686 109.654 42.9813 109.567C42.8898 109.468 42.7958 109.41 42.7273 109.44C42.6587 109.471 42.6993 109.461 42.7018 109.506C42.7134 109.563 42.7331 109.618 42.7603 109.669C42.8139 109.782 42.8732 109.892 42.9381 109.999C43.0491 110.18 43.1766 110.35 43.3191 110.507C43.5655 110.774 43.7509 110.911 43.7331 110.939Z" fill="#263238"/>
<path d="M43.6213 110.97C43.617 110.76 43.6792 110.553 43.7991 110.381C43.9114 110.183 44.0566 110.006 44.2284 109.857C44.3306 109.768 44.4421 109.69 44.5611 109.624C44.6321 109.573 44.715 109.542 44.8018 109.532C44.8885 109.523 44.9762 109.536 45.0564 109.57C45.1021 109.6 45.1383 109.642 45.1608 109.692C45.1833 109.741 45.1912 109.796 45.1834 109.85C45.172 109.928 45.1497 110.004 45.1174 110.076C44.9664 110.418 44.686 110.687 44.3376 110.823C43.9642 110.965 43.7153 110.894 43.7229 110.873C43.911 110.823 44.0959 110.761 44.2766 110.688C44.4602 110.596 44.6214 110.465 44.7491 110.304C44.8224 110.211 44.8823 110.107 44.9269 109.997C44.9802 109.878 44.9954 109.761 44.9472 109.743C44.8976 109.731 44.8459 109.73 44.7959 109.74C44.7459 109.75 44.6986 109.771 44.6576 109.802C44.5497 109.858 44.4476 109.926 44.3528 110.002C44.189 110.132 44.0452 110.285 43.9261 110.457C43.7204 110.757 43.6543 110.98 43.6213 110.97Z" fill="#263238"/>
<path d="M79.8016 109.41L80.8532 115.09C80.8532 115.09 87.1422 117.144 87.1829 118.318L75.2169 118.46L74.333 109.41H79.8016Z" fill="#455A64"/>
<g opacity="0.6">
<path d="M76.2 114.915C76.0823 114.949 75.9809 115.025 75.9146 115.128C75.8483 115.231 75.8216 115.355 75.8393 115.476C75.8673 115.597 75.9405 115.701 76.0436 115.769C76.1466 115.836 76.2718 115.862 76.3931 115.84C76.5187 115.804 76.6269 115.724 76.6968 115.614C76.7667 115.504 76.7933 115.371 76.7715 115.243C76.7276 115.122 76.6395 115.022 76.525 114.964C76.4104 114.905 76.2779 114.892 76.1543 114.928" fill="white"/>
</g>
<g opacity="0.6">
<path d="M75.2163 118.46L75.0283 117.592L86.786 117.742C86.9118 117.806 87.0197 117.9 87.1 118.016C87.1802 118.132 87.2303 118.267 87.2457 118.407L75.2163 118.46Z" fill="white"/>
</g>
<path d="M81.0536 115.032C81.0536 115.093 80.7514 115.11 80.4516 115.286C80.1519 115.461 79.9894 115.717 79.9436 115.695C79.8979 115.672 79.9868 115.324 80.3551 115.108C80.7234 114.892 81.0689 114.978 81.0536 115.032Z" fill="#263238"/>
<path d="M82.3261 115.597C82.3388 115.655 82.0721 115.749 81.8664 115.998C81.6606 116.247 81.592 116.506 81.5311 116.506C81.4701 116.506 81.4422 116.161 81.7089 115.859C81.9756 115.556 82.3261 115.538 82.3261 115.597Z" fill="#263238"/>
<path d="M83.0174 117.155C82.964 117.167 82.8878 116.865 83.0504 116.542C83.213 116.22 83.4949 116.093 83.5203 116.144C83.5457 116.194 83.3654 116.367 83.2358 116.634C83.1063 116.901 83.0783 117.149 83.0174 117.155Z" fill="#263238"/>
<path d="M80.5562 113.708C80.5308 113.761 80.259 113.672 79.9187 113.688C79.5783 113.703 79.3142 113.802 79.2837 113.749C79.2532 113.695 79.5123 113.495 79.9136 113.479C80.3149 113.464 80.5867 113.662 80.5562 113.708Z" fill="#263238"/>
<path d="M52.1818 68.127C51.9837 68.2616 51.5316 75.0764 52.1818 76.5699L50.5283 88.8508C50.5283 88.8508 46.0883 95.8993 45.1943 96.9255C44.3002 97.9516 38.5039 107.949 38.5039 107.949L45.0495 113.593C45.0495 113.593 56.4236 98.7339 58.2575 96.0949C61.1201 91.9674 64.516 76.4531 64.516 76.4531L64.958 68.7518L52.1818 68.127Z" fill="#263238"/>
<path d="M61.1201 77.9513C61.3182 78.3146 70.1752 91.9213 70.1752 91.9213C70.1752 91.9213 71.5189 99.1324 71.8161 102.312C72.1132 105.493 74.2926 113.671 74.2926 113.671L81.4173 113.113C81.4173 113.113 79.4919 92.056 78.2981 87.9539C77.1043 83.8518 73.7922 75.9193 73.7922 75.9193L70.9982 68.5L62.9438 68.6499L61.1201 77.9513Z" fill="#263238"/>
<path d="M66.1614 70.7344C66.1519 70.8091 66.1366 70.883 66.1157 70.9554L65.9633 71.5802C65.8236 72.1339 65.6229 72.9137 65.3791 73.8662C64.8711 75.7991 64.1903 78.4687 63.3877 81.4049C62.5851 84.3412 61.8002 86.9929 61.2033 88.8954C60.9036 89.8479 60.6572 90.6175 60.4794 91.1458L60.2737 91.7554C60.2531 91.8272 60.2259 91.8969 60.1924 91.9637C60.2051 91.8903 60.2238 91.8181 60.2483 91.7478L60.4311 91.1306C60.5962 90.5845 60.8274 89.8149 61.1144 88.8674C61.6884 86.9574 62.4555 84.3081 63.2607 81.3719C64.0659 78.4356 64.7669 75.7839 65.2927 73.8408C65.5467 72.8883 65.7651 72.1111 65.9175 71.5548L66.0928 70.935C66.1112 70.8667 66.1342 70.7997 66.1614 70.7344Z" fill="#455A64"/>
<path d="M88.0459 38.6076C88.0459 38.6076 88.7952 38.0158 89.0365 38.0336C89.2778 38.0514 90.7866 38.2698 90.7866 38.2698C90.7866 38.2698 90.8805 38.9048 90.4487 39.1131C90.1065 39.2504 89.7429 39.3269 89.3743 39.3392L89.0162 39.5932L88.0459 38.6076Z" fill="#FFCAAE"/>
<path d="M68.3867 40.6923L80.1876 49.9556L86.0296 44.4591L86.1896 43.3897C86.2374 43.0857 86.3227 42.7888 86.4436 42.5058L87.9498 38.9219L91.4779 44.642C91.4779 44.642 82.8038 55.9678 81.2798 56.3641C79.2757 56.8873 69.3011 50.1334 69.3011 50.1334L68.3867 40.6923Z" fill="#FFCAAE"/>
<path d="M87.8838 42.0801C88.2468 42.4635 88.5087 42.9313 88.6457 43.4413C88.7827 43.9513 88.7906 44.4873 88.6686 45.0011C88.6795 44.4889 88.6292 43.9773 88.5188 43.4771C88.3635 42.9878 88.1503 42.5188 87.8838 42.0801Z" fill="#FF9A6C"/>
<path d="M60.7515 24.0465L60.5204 36.1369C60.4391 38.2019 60.3299 41.2575 63.5989 41.2372C66.4335 41.0035 67.2565 38.3492 67.3301 36.4112C67.3657 35.4993 67.3962 34.7373 67.4063 34.6332C67.4063 34.6332 70.5077 34.463 70.8506 31.415C71.0157 29.9393 71.1046 26.876 71.163 24.1049C71.1841 22.6725 70.6667 21.2844 69.7133 20.2153C68.7599 19.1461 67.4398 18.4739 66.0144 18.3315L65.7198 18.3035C62.5244 18.1714 60.7947 20.8486 60.7515 24.0465Z" fill="#FFCAAE"/>
<path d="M67.4139 34.6523C66.0039 34.5081 64.6649 33.9624 63.5557 33.0801C63.5557 33.0801 64.3024 35.4067 67.3657 35.4372L67.4139 34.6523Z" fill="#FF935C"/>
<path d="M66.0397 25.6761C65.9711 25.6914 65.6764 25.4501 65.1837 25.3104C64.6909 25.1707 64.2845 25.1986 64.2413 25.1478C64.1982 25.097 64.2998 25.0843 64.4776 25.0691C64.7347 25.0522 64.9927 25.0815 65.2396 25.1554C65.4814 25.2227 65.7082 25.3357 65.9076 25.4882C66.0397 25.5949 66.0701 25.6685 66.0397 25.6761Z" fill="#263238"/>
<path d="M65.4349 26.278C65.4246 26.3854 65.373 26.4846 65.291 26.5547C65.2091 26.6248 65.1031 26.6604 64.9955 26.654C64.9425 26.653 64.8904 26.6414 64.842 26.62C64.7936 26.5985 64.75 26.5676 64.7138 26.529C64.6776 26.4904 64.6494 26.4449 64.6311 26.3953C64.6127 26.3456 64.6045 26.2928 64.6068 26.2399C64.6172 26.1326 64.6687 26.0334 64.7507 25.9633C64.8327 25.8932 64.9386 25.8576 65.0463 25.864C65.0992 25.865 65.1514 25.8765 65.1998 25.898C65.2481 25.9195 65.2917 25.9504 65.328 25.989C65.3642 26.0276 65.3923 26.0731 65.4107 26.1227C65.429 26.1723 65.4373 26.2252 65.4349 26.278Z" fill="#263238"/>
<path d="M67.1729 28.8364C67.4274 28.7831 67.6878 28.7626 67.9476 28.7754C68.0695 28.7754 68.1863 28.7627 68.2143 28.6814C68.2363 28.5585 68.2203 28.4318 68.1685 28.3182C68.0847 28.0185 67.9984 27.7035 67.9145 27.3708C67.5513 26.0221 67.3024 24.9197 67.3557 24.9045C67.4091 24.8892 67.7494 25.9738 68.1177 27.32L68.3717 28.2725C68.4319 28.4251 68.4373 28.5939 68.387 28.75C68.3649 28.7904 68.334 28.8252 68.2966 28.852C68.2593 28.8788 68.2164 28.8969 68.1711 28.905C68.1028 28.9135 68.0336 28.9135 67.9653 28.905C67.6993 28.9166 67.4329 28.8936 67.1729 28.8364Z" fill="#263238"/>
<path d="M65.819 23.3099C65.7657 23.4216 65.3593 23.3251 64.8665 23.3378C64.3738 23.3505 63.9699 23.447 63.914 23.3378C63.8912 23.2845 63.9699 23.1829 64.1401 23.0838C64.363 22.9651 64.6114 22.9024 64.864 22.9009C65.1158 22.8942 65.3654 22.9501 65.5904 23.0635C65.7606 23.1549 65.8419 23.2565 65.819 23.3099Z" fill="#263238"/>
<path d="M70.6579 24.3842C70.5994 24.4731 70.2032 24.3614 69.7206 24.3334C69.238 24.3055 68.8316 24.3563 68.7833 24.2572C68.763 24.2115 68.8443 24.1302 69.0145 24.0616C69.2448 23.9765 69.491 23.9427 69.7358 23.9626C69.982 23.9776 70.2224 24.0433 70.442 24.1556C70.6121 24.2521 70.6807 24.3436 70.6579 24.3842Z" fill="#263238"/>
<path d="M60.7747 26.3744C60.7213 26.3465 58.6157 25.5591 58.5242 27.7587C58.4328 29.9583 60.6604 29.5977 60.668 29.5367C60.6756 29.4757 60.7747 26.3744 60.7747 26.3744Z" fill="#FFCAAE"/>
<path d="M60.03 28.6731C60.03 28.6731 59.9894 28.6985 59.9234 28.7264C59.8312 28.7633 59.7285 28.7633 59.6363 28.7264C59.4077 28.6324 59.2274 28.254 59.2325 27.8577C59.2348 27.6692 59.279 27.4835 59.362 27.3142C59.3854 27.246 59.4252 27.1846 59.4779 27.1354C59.5306 27.0863 59.5946 27.0508 59.6643 27.0322C59.7087 27.0221 59.7552 27.0281 59.7956 27.049C59.8361 27.0699 59.8678 27.1045 59.8853 27.1465C59.9132 27.2075 59.8853 27.2507 59.9081 27.2557C59.931 27.2608 59.9564 27.2202 59.9437 27.1287C59.9336 27.0741 59.9049 27.0247 59.8624 26.989C59.8036 26.94 59.7278 26.9163 59.6516 26.923C59.5606 26.9375 59.4748 26.9749 59.4024 27.0318C59.3299 27.0887 59.2732 27.1632 59.2376 27.2481C59.1364 27.4346 59.0824 27.643 59.0801 27.8552C59.0801 28.2997 59.2858 28.7239 59.5881 28.8305C59.6465 28.8502 59.7087 28.8563 59.7699 28.8484C59.8311 28.8405 59.8896 28.8187 59.9411 28.7848C60.0224 28.7264 60.0377 28.6781 60.03 28.6731Z" fill="#FF935C"/>
<path d="M67.2131 30.2974C67.2131 30.239 66.7914 30.2212 66.418 29.9189C66.2591 29.7861 66.119 29.6323 66.0015 29.4617C65.9024 29.3296 65.8338 29.2484 65.8135 29.2611C65.7932 29.2738 65.8262 29.3703 65.8999 29.5151C65.9973 29.7195 66.1387 29.8999 66.3139 30.0434C66.4933 30.1832 66.7077 30.2711 66.9337 30.2974C67.1038 30.338 67.2105 30.3152 67.2131 30.2974Z" fill="#263238"/>
<path d="M70.5613 25.4319C70.5105 25.4801 70.1346 25.4319 69.6393 25.569C69.144 25.7062 68.8112 25.9348 68.7503 25.917C68.6893 25.8992 68.7681 25.8357 68.9128 25.7316C69.1269 25.5853 69.3651 25.4779 69.6164 25.4141C69.857 25.3441 70.1088 25.3208 70.3581 25.3455C70.5232 25.3658 70.5867 25.3989 70.5613 25.4319Z" fill="#263238"/>
<path d="M69.9007 26.5105C69.8904 26.6178 69.8388 26.717 69.7569 26.7871C69.6749 26.8572 69.5689 26.8928 69.4613 26.8864C69.4084 26.8854 69.3562 26.8739 69.3078 26.8524C69.2594 26.8309 69.2158 26.8 69.1796 26.7614C69.1434 26.7228 69.1152 26.6773 69.0969 26.6277C69.0785 26.5781 69.0703 26.5252 69.0727 26.4724C69.083 26.365 69.1346 26.2658 69.2165 26.1957C69.2985 26.1256 69.4044 26.09 69.5121 26.0964C69.565 26.0974 69.6172 26.109 69.6656 26.1304C69.714 26.1519 69.7576 26.1828 69.7938 26.2214C69.83 26.26 69.8581 26.3055 69.8765 26.3551C69.8949 26.4048 69.9031 26.4576 69.9007 26.5105Z" fill="#263238"/>
<path d="M75.3772 21.493C75.3423 21.3688 75.2615 21.2626 75.1511 21.1958C74.9093 21.0798 74.6414 21.0291 74.3739 21.0485C73.7086 21.0171 73.0591 20.8356 72.4739 20.5176C72.6841 20.4225 72.8778 20.2948 73.048 20.1392C73.228 19.9812 73.3614 19.777 73.434 19.5487C73.5065 19.3204 73.5153 19.0767 73.4595 18.8438C73.4506 18.8001 73.4318 18.759 73.4045 18.7237C73.3772 18.6885 73.3421 18.66 73.302 18.6406C73.1674 18.5949 73.048 18.7244 72.9464 18.8285C72.8228 18.9874 72.6589 19.1103 72.4717 19.1844C72.2846 19.2586 72.081 19.2813 71.8821 19.2502C71.604 19.2253 71.335 19.1385 71.0947 18.9962L71.0693 18.9657L70.7594 18.6355C69.9974 17.8354 69.3345 17.2766 68.6462 16.9769C67.6302 16.54 65.936 16.3266 64.8641 16.5781C63.7922 16.8296 62.8169 17.6652 62.6391 18.7523C62.0549 18.2443 61.1608 18.2113 60.4267 18.4831H60.409C59.5911 18.7371 59.1085 19.5931 58.8494 20.411C58.8342 20.4541 58.8215 20.4999 58.8088 20.5456C58.524 20.9743 58.1408 21.3288 57.6912 21.5794C57.6124 21.6225 57.521 21.6759 57.5083 21.7673C57.4956 21.8588 57.5692 21.9324 57.6404 21.9858C57.832 22.1293 58.0533 22.2282 58.2881 22.2753C58.21 22.47 58.1157 22.6578 58.0061 22.8367C57.9096 22.9891 57.7953 23.1719 57.8715 23.3447C57.9069 23.4045 57.9595 23.4523 58.0225 23.4818C58.0855 23.5112 58.1559 23.521 58.2246 23.5098C58.3612 23.4831 58.4909 23.4286 58.6056 23.3497L58.3185 23.9898C58.6111 24.0466 58.9129 24.0344 59.1999 23.9543C59.3261 24.7252 59.4957 25.4884 59.7079 26.2403C60.0457 26.2403 60.3683 26.1793 60.5715 26.3723C60.8484 26.6263 60.9627 27.1166 61.4377 26.9464C61.6917 26.86 61.9126 26.3647 61.999 26.1209C62.5707 24.5063 62.7873 22.7874 62.634 21.0815C62.9793 20.732 63.389 20.4525 63.8405 20.2586L63.8024 20.289C64.666 20.0173 65.6388 19.7506 66.4389 20.1722C67.0587 20.4999 67.4117 21.1628 67.8664 21.6962C68.2645 22.1823 68.7593 22.5804 69.3194 22.865C69.8796 23.1497 70.4928 23.3148 71.1201 23.3497C71.2167 24.2768 71.0846 25.4427 71.1201 26.3063L71.9533 24.9398C72.0111 24.8419 72.0637 24.741 72.1107 24.6375L72.126 24.607C72.2072 24.4445 72.2834 24.2819 72.38 24.1219C72.4779 24.2051 72.6024 24.2506 72.7309 24.25C72.8595 24.2495 72.9836 24.203 73.0808 24.119C73.178 24.0349 73.242 23.9188 73.2611 23.7917C73.2803 23.6646 73.2533 23.5349 73.1852 23.4259C73.1147 23.3238 73.0291 23.233 72.9312 23.1567C73.034 23.2614 73.1622 23.3377 73.3033 23.3782C73.4444 23.4187 73.5936 23.422 73.7363 23.3878C73.8776 23.3484 74.0021 23.2637 74.0907 23.1467C74.1792 23.0297 74.227 22.8869 74.2266 22.7401C74.2162 22.6447 74.1822 22.5534 74.1277 22.4745C74.0731 22.3955 73.9997 22.3314 73.9141 22.288C74.2919 22.3296 74.6735 22.2561 75.0089 22.0772C75.2248 21.9604 75.4381 21.7648 75.3772 21.493Z" fill="#263238"/>
<path d="M63.5781 19.125C63.4657 19.2066 63.3603 19.2976 63.2631 19.3968C63.014 19.6827 62.8433 20.0284 62.7678 20.4001C62.7079 20.6542 62.6747 20.9138 62.6687 21.1748C62.6687 21.4567 62.6688 21.759 62.6865 22.0765C62.7073 22.4148 62.7073 22.7541 62.6865 23.0925C62.6721 23.2696 62.644 23.4454 62.6027 23.6183C62.5715 23.8044 62.4927 23.9794 62.3741 24.1263C62.3192 24.1846 62.2501 24.2278 62.1735 24.2514C62.0969 24.275 62.0155 24.2782 61.9372 24.2609C61.7882 24.228 61.6542 24.1468 61.5562 24.0297C61.3957 23.7976 61.3009 23.5265 61.2819 23.2449H61.3454C61.2481 23.4725 61.118 23.6848 60.9593 23.8748C60.8047 24.0509 60.5883 24.161 60.3548 24.1821C60.2467 24.1912 60.1384 24.1691 60.0424 24.1186C59.952 24.0703 59.8791 23.9948 59.8341 23.9027C59.7905 23.8191 59.7703 23.7252 59.7757 23.631C59.7821 23.5426 59.8189 23.4591 59.8798 23.3947L59.9129 23.4252C59.7243 23.6279 59.496 23.7896 59.2423 23.9002C59.1751 23.9285 59.1064 23.9531 59.0365 23.9739C59.0128 23.9823 58.988 23.9874 58.9629 23.9891L59.0315 23.9612C59.0797 23.9434 59.1458 23.918 59.2321 23.8773C59.4789 23.7627 59.6994 23.5984 59.8798 23.3947L59.9103 23.4252C59.8587 23.4885 59.8281 23.5662 59.8226 23.6477C59.8171 23.7291 59.8371 23.8103 59.8798 23.8799C59.9212 23.9614 59.9869 24.028 60.0678 24.0704C60.1561 24.1136 60.2542 24.1329 60.3523 24.1263C60.5694 24.1034 60.7695 23.9979 60.9111 23.8316C61.0654 23.645 61.192 23.4371 61.287 23.2144L61.3327 23.1179L61.3505 23.2246C61.3677 23.4923 61.4553 23.7508 61.6045 23.9739C61.6923 24.0792 61.8131 24.1517 61.9474 24.1796C62.0132 24.1948 62.0818 24.1925 62.1465 24.1729C62.2111 24.1533 62.2694 24.1171 62.3157 24.0678C62.4255 23.9299 62.4989 23.7666 62.529 23.5929C62.568 23.4256 62.5951 23.2559 62.6103 23.0849C62.6306 22.7533 62.6306 22.4208 62.6103 22.0892C62.6103 21.7717 62.5875 21.4669 62.6103 21.1824C62.6196 20.9177 62.6562 20.6547 62.7195 20.3975C62.8003 20.0178 62.9819 19.6668 63.2453 19.3815C63.3412 19.2781 63.4537 19.1914 63.5781 19.125Z" fill="#455A64"/>
<path d="M72.9556 22.3513L72.9302 22.3716L72.854 22.425C72.8184 22.4478 72.7753 22.4758 72.7219 22.5037C72.6614 22.5391 72.5986 22.5705 72.534 22.5977C72.1187 22.7722 71.6667 22.8411 71.2183 22.7984C70.5518 22.7351 69.9178 22.4811 69.392 22.0668C68.7582 21.5544 68.2353 20.9184 67.8553 20.1974C67.6419 19.8215 67.4718 19.4354 67.2813 19.0798C67.1081 18.7343 66.8866 18.4153 66.6234 18.1324C66.3846 17.877 66.0861 17.6849 65.7547 17.5736C65.6051 17.5272 65.449 17.5049 65.2924 17.5075C65.1477 17.5124 65.0042 17.5363 64.8657 17.5787C64.4378 17.7096 64.075 17.9971 63.8497 18.3838C63.7783 18.5286 63.7213 18.68 63.6795 18.836C63.6784 18.8258 63.6784 18.8156 63.6795 18.8055L63.6948 18.7115C63.7235 18.5926 63.7661 18.4775 63.8218 18.3686C63.9134 18.1985 64.0327 18.0449 64.1748 17.9139C64.3651 17.7405 64.5903 17.6097 64.8352 17.5304C64.9783 17.4841 65.127 17.4576 65.2772 17.4517C65.4495 17.4473 65.6212 17.4722 65.7852 17.5253C66.1275 17.6359 66.436 17.8317 66.6818 18.0943C66.9471 18.3789 67.1696 18.7006 67.3422 19.0493C67.5352 19.4075 67.7054 19.791 67.9163 20.1644C68.2947 20.8777 68.8131 21.5074 69.4403 22.016C69.9555 22.4272 70.5778 22.6819 71.2335 22.7501C71.6739 22.7961 72.119 22.736 72.5314 22.5748C72.8108 22.4529 72.9505 22.3513 72.9556 22.3513Z" fill="#455A64"/>
<path d="M73.2713 21.0187C73.2342 21.0445 73.1941 21.0658 73.1519 21.0822C73.0461 21.1425 72.9357 21.1943 72.8217 21.2372C72.6571 21.3033 72.4872 21.3551 72.3137 21.3921C71.8789 21.4819 71.4303 21.4819 70.9955 21.3921C70.8179 21.3571 70.6437 21.307 70.4748 21.2423C70.3604 21.1994 70.2492 21.1485 70.142 21.0899C70.1025 21.0699 70.0651 21.046 70.0303 21.0187C70.0303 21.0187 70.203 21.0975 70.49 21.194C70.6557 21.2509 70.8256 21.295 70.998 21.3261C71.2118 21.3637 71.4286 21.3824 71.6457 21.382C71.8629 21.3797 72.0796 21.3593 72.2934 21.321C72.4656 21.2864 72.6353 21.2406 72.8014 21.1838C73.0986 21.1 73.2637 21.006 73.2713 21.0187Z" fill="#455A64"/>
<path d="M64.8711 36.4766L68.0131 37.7466C68.7751 37.9675 70.2534 39.2198 71.1347 40.0656L74.7923 44.9424L69.2043 51.7521L64.8711 36.4766Z" fill="#455A64"/>
<path d="M60.4877 34.1758L59.9797 34.9733C59.9797 34.9733 52.5933 36.8987 51.9787 38.3795C51.1201 40.4572 52.2479 46.9113 52.2479 46.9113L53.8075 60.8153L51.6739 68.509L71.2319 68.8442C71.2319 68.8442 70.0457 48.6716 69.7688 46.538C69.492 44.4044 67.6301 37.1628 67.6301 37.1628L60.4877 34.1758Z" fill="#455A64"/>
<path d="M69.4453 42.5996C69.4453 42.5996 69.4453 42.6225 69.4453 42.6656C69.4453 42.7088 69.4606 42.7774 69.4707 42.8561C69.4877 43.0339 69.5131 43.2778 69.5469 43.5877C69.613 44.2227 69.6968 45.1447 69.8009 46.2826C69.994 48.5686 70.2149 51.708 70.4334 55.1878C70.6518 58.6676 70.855 61.8173 71.0252 64.0956C71.1116 65.2285 71.1801 66.1454 71.2284 66.7931C71.2513 67.1055 71.269 67.3494 71.2817 67.5272C71.2817 67.6059 71.2817 67.6694 71.2817 67.7202C71.2835 67.7413 71.2835 67.7626 71.2817 67.7837C71.2737 67.7635 71.2694 67.742 71.269 67.7202C71.269 67.6694 71.2538 67.6084 71.2436 67.5297C71.2267 67.3604 71.2013 67.1165 71.1674 66.7982C71.1014 66.1632 71.0176 65.2412 70.9134 64.1033C70.7204 61.8173 70.4994 58.6778 70.2835 55.1955C70.0676 51.7131 69.8593 48.5686 69.6892 46.2902C69.6028 45.1574 69.5342 44.2405 69.486 43.5928C69.4631 43.2803 69.4453 43.0365 69.4326 42.8587C69.4326 42.78 69.4326 42.7164 69.4326 42.6656C69.4342 42.6432 69.4385 42.621 69.4453 42.5996Z" fill="#263238"/>
<path opacity="0.3" d="M52.6182 65.0941L54.5892 65.8408L55.6839 62.3966C55.6839 62.3966 57.5635 63.8368 58.8793 63.6488C60.195 63.4609 62.072 62.3966 62.072 62.3966L66.3316 63.1891L70.9951 64.769L70.6522 59.0057L58.3154 58.3809L54.5892 58.8177L52.6182 65.0941Z" fill="black"/>
<path d="M40.7566 69.9832L43.9367 68.4592C44.2314 67.4762 44.5285 66.4907 44.8537 65.4112L48.6637 67.1054L49.9464 63.1226L53.7564 64.7762L54.9959 60.7706C56.0957 61.2786 57.0279 61.7663 58.0032 62.0965C58.5353 62.2769 59.112 62.2769 59.6441 62.0965C61.0182 61.5427 62.3339 60.8392 63.7081 60.1737C63.9062 60.5521 64.0307 60.7731 64.1399 61.0017C64.7927 62.3708 64.8384 62.3911 66.2354 61.7485C67.7238 61.0652 69.2148 60.387 70.6855 59.6733C71.3103 59.3685 71.7878 59.4193 72.4228 59.78C77.2742 62.5054 82.1536 62.6553 86.8424 59.4803C91.2823 56.4704 93.2254 52.132 92.5701 46.8438C91.9148 41.5555 88.9176 37.9182 83.962 36.0691C76.149 33.1557 67.6654 38.2103 66.3649 46.4577C66.2557 47.1384 66.0068 47.5016 65.3845 47.7607C64.1145 48.2916 62.8673 48.891 61.6151 49.4676C59.512 50.4328 59.5145 50.4328 60.1826 52.6654C59.7609 52.8915 59.4206 53.1049 59.0446 53.2725C54.1755 55.5001 41.2037 61.2887 36.9466 63.1785L35.4658 68.2255L40.7566 69.9832ZM89.324 47.3772C88.9342 48.3881 88.2532 49.2607 87.3672 49.8843C86.4812 50.5079 85.4301 50.8546 84.3469 50.8804C83.2638 50.9061 82.1973 50.6099 81.2826 50.0291C80.368 49.4483 79.6462 48.6092 79.2088 47.6179C78.7714 46.6267 78.6381 45.5279 78.8256 44.4608C79.0131 43.3936 79.5131 42.4062 80.2623 41.6234C81.0115 40.8407 81.9761 40.2979 83.034 40.0638C84.0918 39.8297 85.1954 39.9148 86.2049 40.3083C86.8766 40.5651 87.4907 40.9526 88.0118 41.4482C88.5329 41.9438 88.9505 42.5379 89.2406 43.1959C89.5306 43.854 89.6873 44.563 89.7017 45.282C89.716 46.001 89.5876 46.7157 89.324 47.3848V47.3772Z" fill="#00AAD3"/>
<path opacity="0.3" d="M60.7486 56.3117L38.7852 65.8342C38.6084 65.9106 38.4084 65.9137 38.2293 65.8427C38.0502 65.7718 37.9066 65.6326 37.8302 65.4557C37.7537 65.2789 37.7506 65.0789 37.8216 64.8998C37.8926 64.7207 38.0318 64.5772 38.2086 64.5007L60.1695 54.9808C60.2568 54.9425 60.3509 54.9219 60.4462 54.9201C60.5416 54.9182 60.6364 54.9353 60.7251 54.9702C60.8139 55.0052 60.8948 55.0573 60.9634 55.1236C61.0319 55.1899 61.0867 55.2691 61.1245 55.3567C61.1628 55.4441 61.1834 55.5381 61.1852 55.6335C61.187 55.7288 61.17 55.8236 61.135 55.9124C61.1001 56.0011 61.048 56.0821 60.9817 56.1506C60.9153 56.2191 60.8361 56.2739 60.7486 56.3117Z" fill="black"/>
<path d="M61.9528 56.3867C61.9528 56.3867 61.9325 56.402 61.8893 56.4248L61.6937 56.5188L60.9317 56.8719L58.1377 58.1419C55.7832 59.2163 52.532 60.6819 48.9277 62.3049C45.3234 63.928 42.0468 65.3529 39.6618 66.3435C38.4705 66.8515 37.5002 67.2452 36.8297 67.5145L36.0677 67.8193L35.8645 67.898L35.7959 67.9183C35.7959 67.9183 35.8162 67.9056 35.8594 67.8853L36.0575 67.7964L36.8195 67.4662L39.6364 66.2597C42.0113 65.2437 45.2803 63.7934 48.8845 62.1957L58.1098 58.0657L60.9038 56.8261L61.6658 56.4985L61.8665 56.4147L61.9528 56.3867Z" fill="#263238"/>
<path d="M64.3685 61.213C64.3355 61.2282 63.3348 59.2114 62.1308 56.707C60.9268 54.2026 59.982 52.1604 60.0124 52.135C60.0429 52.1096 61.0488 54.134 62.2502 56.641C63.4516 59.1479 64.4016 61.213 64.3685 61.213Z" fill="#263238"/>
<path d="M91.948 48.5585C91.948 48.5585 91.948 48.4899 91.9328 48.3578C91.9175 48.2258 91.9125 48.0251 91.8947 47.7711C91.8947 47.6407 91.8871 47.4959 91.8718 47.3368C91.854 47.1793 91.821 47.0066 91.7931 46.8288C91.7652 46.651 91.7321 46.4401 91.6991 46.2268C91.6571 45.9988 91.6028 45.7733 91.5365 45.5511C91.2496 44.3932 90.788 43.2858 90.1675 42.2669C89.3583 40.9097 88.2939 39.722 87.0331 38.7693L86.5023 38.3731C86.3143 38.2486 86.1162 38.1369 85.9231 38.0175C85.7301 37.8981 85.5345 37.7635 85.3212 37.6695L84.6811 37.3622L84.356 37.2072L84.0156 37.0828L83.312 36.8288C83.0758 36.75 82.8294 36.6992 82.5856 36.6332C82.3413 36.5618 82.0927 36.5058 81.8414 36.4656C81.3272 36.3691 80.8069 36.3089 80.2843 36.2852C80.0176 36.2852 79.751 36.2497 79.4817 36.2522L78.6664 36.2954C78.5292 36.2954 78.392 36.2954 78.2549 36.3208L77.8434 36.3843C77.5691 36.43 77.2922 36.463 77.0154 36.5189C76.4584 36.6435 75.9103 36.8047 75.3745 37.0015L74.9656 37.1514C74.897 37.1768 74.8284 37.1996 74.7624 37.2276L74.5643 37.3215L73.7692 37.7076C73.5152 37.8473 73.2612 38.0124 73.0072 38.1648C72.8802 38.2436 72.7532 38.3147 72.6262 38.4036L72.2656 38.6754C71.7738 39.039 71.3071 39.4353 70.8686 39.8615L70.2437 40.5524L70.0862 40.7251L69.944 40.9106L69.6621 41.289L69.3725 41.6548L69.1185 42.0586L68.8645 42.4676L68.7401 42.6708C68.702 42.7419 68.6689 42.8156 68.6334 42.8867L68.2168 43.7554C68.1051 44.0576 67.9933 44.3599 67.8815 44.6672C67.0353 47.1863 67.0353 49.9129 67.8815 52.432C67.9933 52.7368 68.105 53.0416 68.2143 53.3439C68.3235 53.6461 68.4937 53.923 68.6334 54.2125L68.7375 54.4284L68.862 54.6316L69.116 55.0406L69.37 55.4444L69.6545 55.8229L69.9364 56.2014L70.0761 56.3868L70.2336 56.562C70.4444 56.7906 70.6527 57.0218 70.861 57.2504C71.2986 57.6766 71.7645 58.0729 72.2554 58.4366L72.6186 58.7083C72.738 58.7998 72.8726 58.8684 72.9996 58.9623C73.2536 59.1147 73.5076 59.2773 73.7616 59.4195L74.5566 59.8031L74.7548 59.8971L74.958 59.9758L75.3669 60.1257C75.9027 60.3216 76.4508 60.482 77.0077 60.6057C77.2846 60.6641 77.564 60.6946 77.8358 60.7403L78.2473 60.8038C78.3844 60.8216 78.5216 60.8216 78.6587 60.8292L79.4741 60.8724C79.7433 60.8724 80.01 60.8496 80.2767 60.8419C80.7992 60.8172 81.3194 60.7569 81.8337 60.6616C82.0849 60.6193 82.3334 60.5625 82.578 60.4914C82.832 60.4254 83.0682 60.3746 83.3044 60.2984L83.9978 60.0444L84.3407 59.9199L84.6658 59.765L85.3034 59.4576C85.5167 59.3611 85.7072 59.224 85.9054 59.1122C86.1035 59.0004 86.2965 58.8785 86.4845 58.7566L87.0179 58.3578C88.2841 57.4069 89.3544 56.2201 90.17 54.8628C90.7869 53.8375 91.2434 52.724 91.5238 51.5608C91.5898 51.3394 91.6441 51.1147 91.6864 50.8877C91.7194 50.6718 91.7499 50.4711 91.7804 50.2832C91.8109 50.0952 91.8413 49.925 91.8591 49.7752C91.8769 49.6253 91.8744 49.4729 91.882 49.3434C91.8998 49.0894 91.9099 48.8912 91.9201 48.7566C91.9303 48.622 91.9353 48.556 91.9353 48.556C91.9353 48.556 91.9353 48.622 91.9353 48.7566C91.9353 48.8912 91.9226 49.0894 91.9125 49.3434C91.9125 49.4754 91.8998 49.6202 91.8947 49.7777C91.8896 49.9352 91.8464 50.1104 91.821 50.2857C91.7956 50.461 91.7651 50.6743 91.7321 50.8902C91.6928 51.1189 91.6411 51.3453 91.5772 51.5684C91.2959 52.7313 90.8394 53.8447 90.2234 54.8704C89.4144 56.2453 88.3465 57.4503 87.0788 58.4188L86.5429 58.8201C86.3549 58.9446 86.1568 59.0589 85.9612 59.1808C85.7657 59.3027 85.5701 59.4348 85.3567 59.5313L84.7116 59.8437L84.3839 59.9987L84.041 60.1257L83.3425 60.3797C83.1037 60.4609 82.8574 60.5117 82.611 60.5778C82.3609 60.6513 82.1064 60.709 81.849 60.7505C81.3297 60.8475 80.8044 60.9095 80.2767 60.9359C80.0227 60.9359 79.7408 60.974 79.469 60.9689L78.646 60.9283C78.5063 60.9283 78.3692 60.9283 78.2295 60.9029L77.8155 60.8394C77.5386 60.7937 77.2567 60.7632 76.9798 60.7048C76.4169 60.5806 75.8628 60.4194 75.3212 60.2222L74.9072 60.0698C74.8386 60.0444 74.7675 60.0215 74.7014 59.9936L74.5008 59.8971L73.6981 59.511C73.4441 59.3687 73.1901 59.2036 72.9234 59.0487C72.7939 58.9674 72.6694 58.8988 72.5373 58.8074L72.1716 58.5331C71.6742 58.166 71.2023 57.7654 70.7593 57.3342L70.1269 56.6408L69.9669 56.4655L69.8246 56.275L69.5401 55.894L69.2531 55.513L68.9991 55.1041L68.7451 54.6901L68.6181 54.4843L68.5115 54.2659L68.0898 53.3896C67.9781 53.0848 67.8637 52.7774 67.752 52.4676C66.8952 49.9215 66.8952 47.165 67.752 44.619C67.8663 44.3116 67.9781 44.0043 68.0898 43.6995C68.2016 43.3947 68.3717 43.1127 68.514 42.8206C68.5495 42.7495 68.5826 42.6759 68.6207 42.6047L68.7451 42.3965L68.9991 41.985L69.2531 41.576L69.5401 41.195L69.8246 40.814L69.9694 40.6235L70.1269 40.4483C70.3402 40.2171 70.5511 39.9835 70.7593 39.7549C71.2035 39.325 71.6753 38.9245 72.1716 38.556L72.5373 38.2817C72.6593 38.1902 72.7914 38.1216 72.9234 38.0277C73.1774 37.8727 73.4314 37.7076 73.6981 37.5654L74.5008 37.1793L74.7014 37.0828C74.7675 37.0548 74.8386 37.032 74.9072 37.0066L75.3212 36.8567C75.8619 36.6587 76.4152 36.4967 76.9773 36.3716C77.2567 36.3157 77.5386 36.2827 77.8155 36.237L78.2295 36.176C78.3666 36.1582 78.5063 36.1582 78.646 36.1481L79.4665 36.1074C79.7382 36.1074 80.01 36.1303 80.2767 36.1404C80.8044 36.167 81.3296 36.229 81.849 36.3259C82.1061 36.3686 82.3605 36.4263 82.611 36.4986C82.865 36.5672 83.1037 36.618 83.3425 36.6967L84.041 36.9507L84.3839 37.0777L84.7116 37.2326L85.3567 37.5451C85.5701 37.6441 85.7606 37.7813 85.9612 37.8981C86.1619 38.015 86.3549 38.1318 86.5429 38.2563L87.0788 38.6601C88.3441 39.6236 89.4103 40.8235 90.2183 42.1933C90.836 43.2184 91.2934 44.3319 91.5746 45.4953C91.638 45.7185 91.6897 45.9448 91.7296 46.1734C91.7626 46.3893 91.7905 46.5925 91.8185 46.7805C91.8464 46.9685 91.8769 47.1386 91.8921 47.2885C91.9074 47.4384 91.9048 47.5933 91.9099 47.7228C91.9099 47.9768 91.9277 48.175 91.9328 48.3121C91.9379 48.4493 91.948 48.5585 91.948 48.5585Z" fill="#263238"/>
<path d="M90.2438 45.4147C90.2357 45.3823 90.2314 45.3491 90.2311 45.3156L90.2108 45.0235C90.2108 44.9609 90.2057 44.8898 90.1955 44.8102C90.1955 44.7314 90.1701 44.6476 90.1549 44.5562C90.1278 44.3432 90.0845 44.1326 90.0253 43.9263C89.8817 43.354 89.6522 42.8067 89.3446 42.3032C88.5338 40.9691 87.2447 39.9944 85.7402 39.5777C84.2356 39.1609 82.6288 39.3336 81.2471 40.0604C80.9875 40.2018 80.7388 40.3623 80.5029 40.5404C80.2607 40.7196 80.0307 40.9148 79.8145 41.1246C79.6003 41.3451 79.4017 41.5802 79.2202 41.8282C78.8417 42.3353 78.5483 42.9007 78.3515 43.5021C77.935 44.7449 77.935 46.0896 78.3515 47.3324C78.5484 47.9325 78.8409 48.4968 79.2176 49.0037C79.4007 49.2521 79.6001 49.488 79.8145 49.7098C80.0307 49.9197 80.2607 50.1149 80.5029 50.294C80.7394 50.4714 80.9881 50.6318 81.2471 50.7741C81.5024 50.9093 81.7673 51.0256 82.0396 51.1221C83.0602 51.4936 84.1616 51.5857 85.2298 51.3888C86.0785 51.2299 86.884 50.8932 87.5932 50.4006C88.3024 49.9081 88.8993 49.271 89.3446 48.5313C89.6522 48.0278 89.8817 47.4805 90.0253 46.9082C90.0845 46.7019 90.1278 46.4913 90.1549 46.2783C90.1701 46.1843 90.1879 46.1005 90.1955 46.0243L90.2108 45.8109L90.2311 45.5188C90.2314 45.4854 90.2357 45.4522 90.2438 45.4198C90.2472 45.4527 90.2472 45.4859 90.2438 45.5188C90.2438 45.5925 90.2438 45.689 90.2438 45.8109C90.2438 45.877 90.2438 45.9481 90.2438 46.0268C90.2438 46.1056 90.2235 46.1919 90.2108 46.2808C90.1874 46.4961 90.1475 46.7092 90.0914 46.9184C89.9553 47.4991 89.7299 48.0552 89.4234 48.5668C88.9771 49.3215 88.3757 49.9728 87.6589 50.4777C86.9421 50.9826 86.1263 51.3295 85.2654 51.4955C84.1775 51.702 83.0543 51.6143 82.0116 51.2415C81.7347 51.1424 81.4648 51.0244 81.2039 50.8884C80.9385 50.7445 80.6838 50.5815 80.4419 50.4007C80.1946 50.2173 79.9596 50.0179 79.7383 49.8038C79.5191 49.5792 79.3155 49.3399 79.1287 49.0875C78.7394 48.5672 78.4367 47.9874 78.2321 47.3705C77.8054 46.1007 77.8054 44.7262 78.2321 43.4564C78.4349 42.8438 78.7341 42.2676 79.1186 41.7495C79.3059 41.4969 79.5096 41.2568 79.7282 41.0307C79.9495 40.8174 80.1845 40.6188 80.4318 40.4363C80.6736 40.2555 80.9283 40.0925 81.1938 39.9486C81.4546 39.8126 81.7245 39.6947 82.0015 39.5956C83.0441 39.2227 84.1674 39.135 85.2552 39.3416C86.115 39.5061 86.9299 39.8517 87.6459 40.3553C88.3619 40.8589 88.9626 41.509 89.4081 42.2626C89.7147 42.7742 89.94 43.3303 90.0761 43.911C90.1322 44.1202 90.1721 44.3333 90.1955 44.5486C90.1955 44.6425 90.2235 44.7289 90.2285 44.8026C90.2336 44.8762 90.2285 44.9524 90.2285 45.0185C90.2285 45.1404 90.2285 45.2369 90.2285 45.3106C90.2374 45.3446 90.2425 45.3795 90.2438 45.4147Z" fill="#263238"/>
<path opacity="0.3" d="M73.792 36.5353V60.4825C74.8815 61.0022 76.0317 61.3836 77.2159 61.6178L76.9619 35.4863C75.8626 35.6906 74.7962 36.0435 73.792 36.5353Z" fill="white"/>
<path d="M72.0543 59.6026C72.0162 59.6026 71.9883 54.6852 71.9883 48.6197C71.9883 42.5542 72.0162 37.6367 72.0543 37.6367C72.0924 37.6367 72.1204 42.5542 72.1204 48.6197C72.1204 54.6852 72.0899 59.6026 72.0543 59.6026Z" fill="white"/>
<path d="M69.4357 40.2148C69.3818 40.3213 69.3181 40.4225 69.2452 40.5171C69.1131 40.7051 68.9303 40.9845 68.7194 41.3375C68.4704 41.7486 68.2432 42.1725 68.0387 42.6075C67.7893 43.1399 67.5705 43.686 67.3834 44.2433C67.2038 44.8036 67.0554 45.3734 66.9389 45.9502C66.8399 46.4836 66.7713 46.9662 66.7357 47.3751C66.7001 47.784 66.6773 48.1168 66.6722 48.3479C66.6759 48.467 66.6674 48.5862 66.6468 48.7035C66.6278 48.5851 66.6193 48.4653 66.6214 48.3454C66.6214 48.1168 66.6214 47.7815 66.6417 47.3675C66.6748 46.8845 66.7341 46.4038 66.8195 45.9273C67.0343 44.758 67.4069 43.6233 67.927 42.5542C68.141 42.1184 68.3785 41.6944 68.6382 41.2842C68.8642 40.9362 69.0573 40.6644 69.2021 40.4841C69.2716 40.3874 69.3498 40.2973 69.4357 40.2148Z" fill="white"/>
<path d="M65.7042 48.5508C64.9728 48.973 64.2199 49.3571 63.4487 49.7014C62.696 50.0862 61.9236 50.4312 61.1348 50.7352C61.8658 50.3113 62.6187 49.9264 63.3903 49.582C64.1433 49.1987 64.9157 48.8544 65.7042 48.5508Z" fill="white"/>
<path d="M59.1333 53.9258C59.1333 53.9258 59.1181 53.9385 59.0825 53.9588L58.9301 54.0375L58.3307 54.3347C57.81 54.5887 57.0607 54.9545 56.1133 55.3964C54.2387 56.2829 51.6327 57.4818 48.7473 58.7619C45.8618 60.0421 43.2101 61.1572 41.2898 61.9471C40.3297 62.3433 39.5525 62.6583 39.0038 62.8717L38.3815 63.113L38.219 63.1739L38.1631 63.1892C38.1631 63.1892 38.1783 63.1765 38.2139 63.1612L38.3714 63.0876L38.986 62.8336L41.2466 61.8709C43.1567 61.0606 45.7907 59.9303 48.6863 58.6527C51.5819 57.3751 54.1905 56.1864 56.0777 55.3228L58.3104 54.3068L58.92 54.0325L59.08 53.9639L59.1333 53.9258Z" fill="white"/>
<path d="M84.3 38.727C84.3 38.7524 83.8606 38.6635 83.1545 38.6889C82.234 38.7192 81.3329 38.9619 80.5217 39.3982C79.7105 39.8344 79.0112 40.4522 78.4784 41.2035C78.0669 41.7775 77.9018 42.1915 77.8789 42.1788C77.9028 42.078 77.9395 41.9807 77.9881 41.8893C78.1044 41.6313 78.2429 41.384 78.4022 41.1501C78.9261 40.3707 79.6329 39.7314 80.4609 39.2882C81.2889 38.845 82.2128 38.6113 83.1519 38.6076C83.4351 38.6053 83.7179 38.6257 83.9978 38.6686C84.1006 38.6755 84.2021 38.6951 84.3 38.727Z" fill="white"/>
<path d="M86.2475 37.4118C86.138 37.375 86.0325 37.3273 85.9325 37.2696C85.7369 37.168 85.4474 37.0333 85.0841 36.8759C84.7209 36.7184 84.2815 36.5584 83.7862 36.4009C83.2448 36.2393 82.6943 36.1095 82.1377 36.0123C81.5804 35.9206 81.018 35.8629 80.4537 35.8396C79.993 35.8239 79.5318 35.8323 79.072 35.8649C78.6783 35.8929 78.3582 35.9259 78.1398 35.9564C78.0271 35.9801 77.912 35.9911 77.7969 35.9894C77.9056 35.9504 78.0179 35.9223 78.1321 35.9056C78.3506 35.8599 78.6681 35.8116 79.0618 35.771C79.526 35.7252 79.9925 35.7074 80.4588 35.7176C81.0289 35.7362 81.5973 35.7905 82.1606 35.8802C82.7224 35.9793 83.2772 36.1142 83.8218 36.2841C84.2652 36.4268 84.6995 36.5964 85.1222 36.7921C85.4829 36.9597 85.7674 37.1096 85.9579 37.2239C86.0602 37.2771 86.1572 37.34 86.2475 37.4118Z" fill="white"/>
<path opacity="0.3" d="M55.6304 55.9323L56.4965 51.5482L57.5176 51.5076L58.0282 45.8027L56.9309 50.3443L55.8158 50.0953L54.7617 55.7545L55.6304 55.9323Z" fill="black"/>
<path d="M64.5742 57.6864C64.5742 57.6864 66.0982 56.5789 66.6062 56.3935C67.1142 56.2081 68.8922 55.8855 69.5145 55.4512C69.5869 55.4842 69.6494 55.5355 69.6961 55.6C69.7427 55.6645 69.7718 55.74 69.7805 55.8191C69.7892 55.8982 69.7772 55.9782 69.7457 56.0513C69.7142 56.1244 69.6643 56.188 69.6008 56.236C69.0905 56.7246 68.4854 57.1032 67.8228 57.3486C67.3758 57.4806 67.518 57.8032 67.8381 57.915C68.1581 58.0267 70.4416 58.423 70.4416 58.423C70.4416 58.423 73.0959 58.4814 73.3143 58.7506C73.3568 58.8064 73.3861 58.871 73.4001 58.9397C73.414 59.0084 73.4123 59.0794 73.3949 59.1473C73.3776 59.2152 73.3451 59.2783 73.2999 59.3319C73.2547 59.3855 73.198 59.4282 73.134 59.4568C72.9765 59.5126 70.6981 59.665 70.6981 59.665L69.5272 59.5253C69.5272 59.5253 73.167 60.1984 73.3753 60.5032C73.4154 60.5519 73.4434 60.6094 73.4571 60.6709C73.4709 60.7325 73.4699 60.7964 73.4543 60.8575C73.4387 60.9186 73.409 60.9752 73.3674 61.0226C73.3259 61.0701 73.2738 61.1071 73.2153 61.1306C73.0298 61.2424 71.4246 60.93 71.4246 60.93L69.2376 60.6582L73.2178 61.7986C73.2178 61.7986 73.5785 61.9536 73.5023 62.2533C73.4261 62.553 72.9333 62.6165 72.9333 62.6165L68.7245 61.7986C68.7245 61.7986 70.7896 63.2464 70.8658 63.4242C70.9623 63.6782 70.5381 63.9068 70.3755 63.8027C70.213 63.6986 67.5815 62.5657 67.5815 62.5657L64.5615 61.1916L62.5625 61.2144L63.4312 57.5111L64.5742 57.6864Z" fill="#FFCAAE"/>
<path d="M55.5267 61.3172L64.1094 61.1902L63.9443 57.6164L54.7622 55.7546L56.0855 49.0058L49.8244 47.5605C49.0909 50.7559 48.606 54.0033 48.3741 57.2735C48.3741 57.2735 47.9448 59.9786 51.0081 60.7304C52.4957 61.0493 54.007 61.2455 55.5267 61.3172Z" fill="#FFCAAE"/>
<path d="M48.2949 48.4146L56.9309 50.345C56.9309 50.345 58.4397 44.7215 58.4905 43.1619C58.5413 41.6023 56.4051 36.6671 53.3927 37.6653C53.3927 37.6653 52.4834 37.4825 51.6528 38.6991C51.3201 39.1893 48.2949 48.4146 48.2949 48.4146Z" fill="#455A64"/>
<path d="M58.1148 42.3514C58.1388 41.9308 58.1072 41.5089 58.0208 41.0966C57.917 40.6559 57.7601 40.2294 57.5534 39.8266C57.3326 39.3148 56.9825 38.8693 56.5374 38.5337C56.0829 38.2178 55.5612 38.0118 55.0134 37.9318C54.5619 37.8663 54.1051 37.845 53.6494 37.8683C53.3418 37.8784 53.0357 37.9166 52.735 37.9825C52.5217 38.0308 52.4099 38.0765 52.4048 38.0664C52.3998 38.0562 52.4302 38.0461 52.4836 38.0232C52.5607 37.9866 52.6405 37.956 52.7223 37.9318C53.0223 37.8462 53.3305 37.7934 53.6418 37.7743C54.105 37.7377 54.5707 37.7504 55.0312 37.8124C55.6018 37.8879 56.1461 38.0986 56.6187 38.427C57.0766 38.7774 57.4347 39.2415 57.6576 39.7733C57.8631 40.1897 58.0134 40.6311 58.1046 41.0864C58.167 41.3938 58.1875 41.7083 58.1656 42.0212C58.1595 42.1064 58.1484 42.1912 58.1325 42.2752C58.1275 42.3209 58.1198 42.3514 58.1148 42.3514Z" fill="#263238"/>
<path d="M58.1146 45.1484C58.1146 45.1484 58.1146 45.184 58.1019 45.2526C58.0892 45.3212 58.0688 45.4278 58.046 45.5447C57.9901 45.8165 57.9139 46.1822 57.8174 46.6343C57.6091 47.5792 57.3221 48.8721 56.9919 50.3605V50.4215H56.9284L55.1986 50.0379L50.3117 48.9254L48.8334 48.5749L48.4346 48.4733C48.3864 48.4637 48.3395 48.4484 48.2949 48.4276C48.3437 48.4277 48.3923 48.4336 48.4397 48.4454L48.8461 48.5241L50.332 48.834L55.2291 49.9109L56.9436 50.2945L56.8674 50.3427L57.7386 46.6293C57.8479 46.1822 57.9393 45.8165 58.0053 45.5472L58.0815 45.2602C58.0875 45.2216 58.0986 45.184 58.1146 45.1484Z" fill="#263238"/>
<path d="M92.0492 44.4496C92.1424 44.4752 92.2407 44.475 92.3338 44.449C92.4268 44.4231 92.5111 44.3724 92.5775 44.3023C92.8569 44.0483 93.3218 43.4133 93.1211 43.172C92.9184 42.996 92.6717 42.8784 92.4074 42.8316C92.4074 42.8316 92.7782 42.3642 92.6182 42.0213C92.5923 41.9569 92.5538 41.8983 92.5051 41.8488C92.4564 41.7994 92.3984 41.76 92.3344 41.7331C92.2704 41.7062 92.2017 41.6922 92.1322 41.692C92.0628 41.6918 91.994 41.7053 91.9298 41.7318C91.9959 41.5906 92.0312 41.4369 92.0334 41.281C92.0356 41.1251 92.0046 40.9706 91.9425 40.8275C91.915 40.7521 91.8724 40.6831 91.8174 40.6246C91.7624 40.5661 91.6961 40.5193 91.6225 40.4872L91.1805 40.2941C91.1805 40.2941 91.5742 39.7049 91.1247 39.2146C91.0267 39.1088 90.9095 39.0225 90.7792 38.9606C90.5034 38.8124 90.1871 38.757 89.8774 38.8027C89.5676 38.8485 89.2808 38.9929 89.0596 39.2146C89.4152 39.5677 89.8216 39.9614 89.7277 40.2535C89.7277 40.2535 87.8608 41.4905 88.3434 42.1458C88.6532 42.57 88.9784 42.3795 88.9784 42.3795C88.9784 42.3795 88.5161 42.8011 88.7599 43.0805C88.8377 43.1632 88.9402 43.2184 89.052 43.238C89.1692 43.2736 89.2927 43.283 89.4139 43.2654C89.5351 43.2479 89.6509 43.2038 89.7531 43.1364L90.0604 42.9637C90.0241 43.0676 90.0167 43.1795 90.039 43.2874C90.0614 43.3952 90.1127 43.4949 90.1874 43.5758C90.209 43.5936 90.232 43.6097 90.256 43.6241C90.369 43.6926 90.4994 43.727 90.6315 43.7229C90.7636 43.7189 90.8917 43.6766 91.0002 43.6012L91.6936 43.1796L91.7546 43.5199C91.7546 43.5199 91.3456 43.9797 92.0492 44.4496Z" fill="#FFCAAE"/>
<path d="M92.049 44.4503C91.9616 44.4025 91.8819 44.3417 91.8128 44.27C91.7261 44.1842 91.663 44.0775 91.6299 43.9601C91.6091 43.8772 91.6075 43.7907 91.6251 43.7071C91.6427 43.6235 91.6791 43.545 91.7315 43.4775V43.5029C91.7111 43.3962 91.6908 43.2819 91.668 43.1625L91.7213 43.1854L91.3073 43.4648L91.0812 43.6172C90.9999 43.6778 90.9089 43.7242 90.812 43.7544C90.7051 43.7875 90.5919 43.7945 90.4818 43.7746C90.3717 43.7547 90.268 43.7085 90.1795 43.6401C90.0828 43.5625 90.0178 43.4523 89.9967 43.3302C89.9756 43.2075 89.9825 43.0815 90.017 42.9619L90.0932 43.0228C89.9433 43.1041 89.8062 43.1956 89.6334 43.2768C89.454 43.3517 89.2549 43.3651 89.067 43.3149C88.9649 43.2964 88.8685 43.2547 88.7851 43.193C88.7392 43.1589 88.7019 43.1144 88.6764 43.0632C88.6508 43.0121 88.6376 42.9556 88.6378 42.8984C88.6456 42.7891 88.6825 42.6839 88.7444 42.5936C88.8013 42.5015 88.8686 42.4162 88.9451 42.3396L89.0162 42.4361C88.9507 42.4688 88.8786 42.4857 88.8054 42.4857C88.7322 42.4857 88.66 42.4688 88.5946 42.4361C88.4656 42.374 88.3571 42.2762 88.2822 42.1542C88.2431 42.09 88.2187 42.0181 88.2108 41.9434C88.2029 41.8687 88.2117 41.7932 88.2364 41.7224C88.2799 41.5861 88.346 41.4581 88.432 41.3439C88.7907 40.896 89.2196 40.5092 89.702 40.1984L89.6766 40.2339C89.6929 40.114 89.6609 39.9925 89.5877 39.8961C89.5134 39.78 89.4284 39.6712 89.3337 39.571C89.2346 39.4643 89.133 39.3627 89.0314 39.2611L88.9857 39.2179L89.0289 39.1697C89.245 38.9339 89.5373 38.7819 89.8544 38.7404C90.1582 38.7017 90.4668 38.7446 90.7485 38.8649C90.8918 38.914 91.0226 38.994 91.1314 39.0994C91.2403 39.2048 91.3246 39.3328 91.3784 39.4745C91.4185 39.6153 91.4276 39.7631 91.4053 39.9077C91.3829 40.0524 91.3296 40.1905 91.2489 40.3127L91.2235 40.2238L91.6781 40.4244C91.758 40.4622 91.8296 40.5155 91.8885 40.5814C91.9474 40.6473 91.9924 40.7243 92.021 40.808C92.0796 40.9581 92.1073 41.1184 92.1025 41.2794C92.0977 41.4405 92.0605 41.5989 91.9931 41.7452L91.9271 41.6665C92.0058 41.6355 92.0901 41.6215 92.1746 41.6254C92.2591 41.6294 92.3418 41.6512 92.4173 41.6893C92.5557 41.7724 92.6588 41.9035 92.7068 42.0576C92.7388 42.2044 92.7228 42.3576 92.6611 42.4945C92.6105 42.62 92.543 42.7379 92.4604 42.845L92.4351 42.7739C92.6368 42.8143 92.8301 42.8891 93.0066 42.9949C93.0959 43.0429 93.1672 43.1187 93.2098 43.2108C93.2312 43.3028 93.225 43.3991 93.192 43.4877C93.0841 43.7563 92.9224 44 92.717 44.2039C92.5999 44.3445 92.4337 44.4353 92.2522 44.4579C92.2059 44.4657 92.1587 44.4657 92.1125 44.4579C92.082 44.4579 92.0668 44.4427 92.0668 44.4402C92.1274 44.4494 92.189 44.4494 92.2496 44.4402C92.4228 44.4073 92.5775 44.3114 92.684 44.1709C92.8751 43.9679 93.0252 43.7299 93.1259 43.4699C93.1486 43.3945 93.1486 43.3141 93.1259 43.2387C93.0886 43.1634 93.028 43.1019 92.9532 43.0635C92.7839 42.9666 92.5992 42.8996 92.4071 42.8654L92.3411 42.8501L92.3817 42.7942C92.4645 42.6977 92.5266 42.5853 92.5641 42.4638C92.6017 42.3424 92.614 42.2145 92.6002 42.0881C92.5559 41.9593 92.4654 41.8516 92.3462 41.7859C92.2841 41.7551 92.2163 41.7379 92.1471 41.7353C92.078 41.7326 92.009 41.7447 91.9448 41.7706L91.8128 41.8189L91.8788 41.6919C91.9343 41.5582 91.9628 41.4149 91.9628 41.2702C91.9628 41.1255 91.9343 40.9823 91.8788 40.8486C91.8558 40.7799 91.819 40.7167 91.7704 40.663C91.7219 40.6092 91.6628 40.566 91.5968 40.5362L91.1422 40.3381L91.0787 40.3101L91.1168 40.2466C91.1859 40.1399 91.2316 40.0198 91.2508 39.8941C91.2701 39.7685 91.2625 39.6401 91.2286 39.5176C91.1798 39.3937 91.1045 39.282 91.008 39.1903C90.9115 39.0986 90.796 39.0291 90.6698 38.9868C90.4086 38.8766 90.123 38.8372 89.8417 38.8725C89.5549 38.9103 89.2905 39.0479 89.0949 39.2611V39.1697C89.1991 39.2713 89.3007 39.3754 89.4023 39.4821C89.5041 39.5895 89.5959 39.706 89.6766 39.8301C89.7236 39.893 89.7568 39.965 89.7743 40.0416C89.7918 40.1181 89.7932 40.1975 89.7782 40.2746V40.2974L89.7579 40.3127C89.2909 40.6148 88.8743 40.9885 88.5234 41.4201C88.371 41.6284 88.2466 41.8976 88.3761 42.0907C88.4372 42.1915 88.5252 42.2732 88.6301 42.3269C88.6785 42.3501 88.7314 42.3621 88.7851 42.3621C88.8387 42.3621 88.8917 42.3501 88.94 42.3269L89.2956 42.1465L89.0111 42.4234C88.8698 42.5411 88.7745 42.7047 88.7419 42.8857C88.7292 43.0482 88.9095 43.1575 89.0746 43.1879C89.2419 43.2379 89.4212 43.2289 89.5826 43.1625C89.7325 43.094 89.8849 42.9974 90.0322 42.9085L90.1414 42.8501L90.1059 42.9695C90.0658 43.0657 90.0562 43.1718 90.0785 43.2736C90.1007 43.3754 90.1537 43.4678 90.2303 43.5385C90.3062 43.5995 90.3959 43.6411 90.4915 43.6597C90.5871 43.6782 90.6857 43.6733 90.779 43.6451C90.948 43.5747 91.1076 43.4834 91.2539 43.3734L91.6731 43.1041L91.7162 43.0736V43.1244C91.734 43.2464 91.7543 43.3607 91.7721 43.4673C91.7239 43.5277 91.6896 43.5978 91.6716 43.6729C91.6536 43.748 91.6524 43.8261 91.668 43.9017C91.698 44.0135 91.7546 44.1163 91.8331 44.2014C91.9651 44.3995 92.054 44.4503 92.049 44.4503Z" fill="#FF9A6C"/>
<path d="M91.2743 40.1155C91.2713 40.277 91.2276 40.4351 91.1473 40.5752C90.9769 40.9266 90.7367 41.2395 90.4411 41.4947C90.1497 41.7472 89.8321 41.9678 89.4937 42.1526C89.3611 42.2405 89.2165 42.3089 89.0645 42.3558C89.178 42.2441 89.3062 42.1484 89.4455 42.0713C89.7631 41.8675 90.0661 41.6417 90.3522 41.3956C90.6348 41.1495 90.8751 40.8586 91.0634 40.5346C91.2031 40.2831 91.2539 40.1079 91.2743 40.1155Z" fill="#FF9A6C"/>
<path d="M91.9478 41.6172C91.9656 41.6172 91.93 41.7772 91.7471 41.9245C91.5643 42.0718 91.3179 42.2344 91.0385 42.4325C90.7108 42.6783 90.3573 42.8879 89.9844 43.0574C90.2835 42.7777 90.6123 42.5316 90.9648 42.3233C91.2442 42.1353 91.5084 41.9728 91.6913 41.8559C91.7845 41.7851 91.8704 41.7051 91.9478 41.6172Z" fill="#FF9A6C"/>
<path d="M92.4554 42.8108C92.4757 42.8387 92.3183 42.986 92.082 43.0902C91.8458 43.1943 91.6299 43.2121 91.6223 43.1765C91.6147 43.141 91.8026 43.0673 92.0287 42.9683C92.2548 42.8692 92.4402 42.7803 92.4554 42.8108Z" fill="#FF9A6C"/>
<path d="M92.346 43.1803C92.346 43.2184 92.1707 43.254 91.998 43.3784C91.8253 43.5029 91.7313 43.6527 91.6957 43.6324C91.6602 43.6121 91.7135 43.4115 91.9218 43.2641C92.1301 43.1168 92.3511 43.1549 92.346 43.1803Z" fill="#FF9A6C"/>
</svg>
