<svg width="135" height="135" viewBox="0 0 135 135" fill="none" xmlns="http://www.w3.org/2000/svg">
<path d="M12.0451 60.1191L20.7742 63.2106L18.5737 64.4877L12.4717 67.9734L10.5088 69.0993L12.0451 60.1191Z" fill="#EBEBEB"/>
<path d="M50.0552 108.041L55.493 105.576L43.6562 85.4065L38.3237 90.1504L28.9385 73.6966L23.7761 77.1931L15.3764 62.0488L12.293 63.3529L22.5476 83.7703L28.3715 78.7294L37.2113 97.0921L42.4952 91.3627L50.0552 108.041Z" fill="#EBEBEB"/>
<path d="M128.436 84.9471C128.218 86.4277 127.566 87.8103 126.562 88.9199C125.558 90.0295 124.247 90.8161 122.795 91.1801C121.344 91.5441 119.817 91.4691 118.408 90.9646C116.999 90.4602 115.772 89.5489 114.881 88.3463C113.99 87.1437 113.477 85.7038 113.405 84.209C113.334 82.7143 113.707 81.2319 114.479 79.9496C115.25 78.6673 116.385 77.6429 117.739 77.006C119.093 76.3691 120.606 76.1484 122.086 76.3719C124.063 76.6706 125.842 77.7407 127.032 79.3479C128.222 80.9551 128.727 82.9685 128.436 84.9471Z" fill="#F5F5F5"/>
<path d="M126.657 84.6801C126.49 85.807 125.993 86.8591 125.228 87.7033C124.464 88.5475 123.466 89.1458 122.361 89.4225C121.256 89.6991 120.093 89.6417 119.021 89.2575C117.948 88.8733 117.014 88.1795 116.336 87.2641C115.658 86.3486 115.267 85.2526 115.213 84.1148C115.158 82.977 115.442 81.8485 116.029 80.8722C116.616 79.896 117.48 79.1158 118.51 78.6305C119.541 78.1452 120.692 77.9766 121.819 78.1461C122.565 78.2573 123.283 78.5146 123.93 78.9032C124.578 79.2917 125.142 79.804 125.591 80.4108C126.041 81.0176 126.366 81.7069 126.549 82.4394C126.732 83.172 126.768 83.9333 126.657 84.6801Z" fill="#EBEBEB"/>
<path d="M126.684 84.5095C126.643 84.276 126.627 84.039 126.635 83.8021C126.599 83.1709 126.466 82.549 126.241 81.958C126.084 81.5546 125.883 81.1697 125.642 80.8105C125.365 80.4008 125.037 80.0287 124.664 79.7035C124.464 79.5257 124.25 79.364 124.024 79.2202C123.792 79.0671 123.549 78.9325 123.295 78.8179C123.033 78.6981 122.763 78.5988 122.485 78.5209C122.2 78.4424 121.91 78.3846 121.616 78.3481C121.321 78.3137 121.024 78.302 120.728 78.313C120.439 78.3254 120.152 78.3588 119.869 78.4129C119.593 78.4646 119.323 78.5386 119.059 78.6343C118.807 78.7218 118.561 78.8283 118.325 78.9529C117.887 79.1835 117.48 79.4694 117.115 79.8034C116.797 80.0968 116.512 80.4236 116.265 80.7781C115.91 81.3006 115.636 81.8742 115.455 82.4791C115.408 82.7118 115.338 82.9389 115.244 83.1568C115.208 82.917 115.222 82.6723 115.287 82.4386C115.412 81.7891 115.657 81.1685 116.008 80.608C116.251 80.2156 116.539 79.8532 116.867 79.528C117.244 79.1572 117.671 78.8401 118.136 78.5857C118.386 78.4461 118.647 78.326 118.916 78.2266C119.197 78.122 119.486 78.039 119.78 77.9782C120.084 77.9156 120.393 77.8776 120.703 77.8648C121.341 77.8375 121.979 77.9131 122.593 78.0889C122.891 78.1755 123.182 78.2847 123.463 78.4156C123.735 78.5428 123.997 78.6908 124.246 78.8584C124.484 79.0212 124.71 79.2017 124.921 79.3984C125.656 80.065 126.207 80.9092 126.522 81.85C126.73 82.4778 126.822 83.1386 126.792 83.7994C126.806 84.0411 126.769 84.283 126.684 84.5095Z" fill="#E0E0E0"/>
<path d="M121.098 87.3163L120.966 88.3099L120.078 88.1884L120.21 87.2218C119.424 87.0899 118.692 86.74 118.096 86.212L118.73 85.1968C119.191 85.6212 119.755 85.918 120.366 86.0581L120.566 84.5785C119.613 84.2059 118.56 83.728 118.73 82.459C118.857 81.5194 119.651 80.8039 121.074 80.839L121.206 79.8535L122.094 79.975L121.965 80.9416C122.594 81.0626 123.186 81.332 123.69 81.7273L123.099 82.7587C122.715 82.4597 122.275 82.2403 121.806 82.1134L121.6 83.62C122.553 83.9845 123.593 84.4597 123.423 85.7098C123.299 86.6278 122.516 87.3352 121.098 87.3163ZM120.744 83.2663L120.914 82.0054C120.428 82.0486 120.207 82.2754 120.169 82.5724C120.132 82.8694 120.369 83.0962 120.744 83.2744V83.2663ZM121.981 85.6099C122.021 85.2994 121.787 85.0969 121.425 84.9106L121.257 86.1364C121.714 86.1067 121.94 85.9015 121.981 85.618V85.6099Z" fill="#E0E0E0"/>
<path d="M122.955 25.6121C122.764 26.9 122.196 28.1024 121.321 29.0671C120.447 30.0317 119.306 30.7153 118.043 31.0314C116.78 31.3474 115.452 31.2816 114.226 30.8424C113.001 30.4032 111.933 29.6103 111.158 28.564C110.383 27.5177 109.936 26.2651 109.874 24.9647C109.811 23.6643 110.136 22.3745 110.806 21.2586C111.477 20.1427 112.464 19.2509 113.642 18.696C114.819 18.1411 116.135 17.948 117.423 18.1412C118.277 18.2683 119.097 18.5624 119.837 19.0067C120.578 19.451 121.223 20.0367 121.737 20.7305C122.25 21.4243 122.622 22.2125 122.832 23.0501C123.041 23.8877 123.083 24.7583 122.955 25.6121Z" fill="#F5F5F5"/>
<path d="M121.409 25.3786C121.264 26.3605 120.832 27.2775 120.167 28.0137C119.501 28.7499 118.632 29.2721 117.67 29.5143C116.707 29.7565 115.694 29.7078 114.76 29.3744C113.825 29.0409 113.01 28.4377 112.418 27.641C111.826 26.8443 111.484 25.89 111.435 24.8988C111.386 23.9076 111.631 22.924 112.141 22.0725C112.651 21.221 113.402 20.5398 114.299 20.1152C115.196 19.6906 116.199 19.5415 117.18 19.687C117.832 19.7824 118.458 20.0055 119.024 20.3433C119.589 20.6811 120.082 21.1272 120.475 21.6558C120.868 22.1845 121.152 22.7854 121.313 23.4242C121.473 24.063 121.505 24.7271 121.409 25.3786Z" fill="#EBEBEB"/>
<path d="M121.43 25.2234C121.395 25.0202 121.38 24.814 121.387 24.6078C121.358 24.0532 121.243 23.5065 121.044 22.9878C120.908 22.6365 120.733 22.3015 120.523 21.9888C120.28 21.632 119.994 21.3073 119.67 21.0222C119.496 20.8683 119.31 20.7283 119.114 20.6037C118.912 20.4698 118.7 20.3524 118.479 20.2527C118.251 20.145 118.016 20.0547 117.774 19.9827C117.525 19.9142 117.272 19.8637 117.016 19.8315C116.758 19.8043 116.499 19.7943 116.241 19.8018C115.99 19.812 115.741 19.8418 115.496 19.8909C115.256 19.9347 115.022 19.9988 114.794 20.0826C114.575 20.1561 114.361 20.2464 114.156 20.3526C113.775 20.5523 113.421 20.801 113.103 21.0924C112.826 21.3479 112.578 21.6331 112.364 21.9429C112.051 22.3967 111.811 22.8969 111.653 23.4252C111.612 23.6271 111.551 23.8244 111.47 24.0138C111.438 23.8047 111.451 23.5913 111.508 23.3874C111.617 22.8226 111.83 22.2827 112.134 21.7944C112.346 21.4557 112.597 21.143 112.882 20.8629C113.212 20.5433 113.584 20.2708 113.989 20.0529C114.207 19.9302 114.434 19.8254 114.669 19.7397C114.913 19.6475 115.164 19.5753 115.42 19.5237C115.687 19.4694 115.958 19.436 116.23 19.4238C116.508 19.4136 116.787 19.4235 117.064 19.4535C117.338 19.4886 117.609 19.5446 117.874 19.6209C118.135 19.6908 118.389 19.781 118.636 19.8909C118.872 20.0008 119.098 20.1299 119.313 20.277C119.522 20.4153 119.72 20.5696 119.905 20.7387C120.245 21.0494 120.542 21.4045 120.788 21.7944C121 22.133 121.171 22.4955 121.298 22.8744C121.48 23.4203 121.561 23.995 121.535 24.57C121.549 24.7929 121.513 25.0161 121.43 25.2234Z" fill="#E0E0E0"/>
<path d="M116.565 27.6736L116.449 28.5403L115.677 28.435L115.79 27.5926C115.105 27.4838 114.464 27.1844 113.94 26.7286L114.494 25.843C114.896 26.2124 115.387 26.471 115.92 26.5936L116.092 25.303C115.263 24.979 114.345 24.5632 114.494 23.4589C114.605 22.6489 115.304 22.0171 116.535 22.0441L116.651 21.1855L117.423 21.2908L117.31 22.1332C117.859 22.2374 118.374 22.4716 118.814 22.8163L118.301 23.7154C117.969 23.4507 117.588 23.2543 117.18 23.1376L117.002 24.4525C117.834 24.7684 118.736 25.1842 118.59 26.2723C118.479 27.0769 117.799 27.6925 116.565 27.6736ZM116.254 24.1636L116.403 23.0647C115.982 23.1025 115.79 23.305 115.755 23.5588C115.72 23.8126 115.93 24.0016 116.254 24.1555V24.1636ZM117.334 26.2048C117.372 25.9348 117.167 25.7566 116.851 25.5973L116.705 26.6773C117.102 26.6233 117.299 26.4586 117.332 26.1886L117.334 26.2048Z" fill="#E0E0E0"/>
<path d="M45.7328 17.2792C46.308 19.3752 46.2484 21.5947 45.5616 23.6568C44.8748 25.7189 43.5916 27.5309 41.8744 28.8634C40.1573 30.1958 38.0834 30.9889 35.9153 31.1421C33.7473 31.2954 31.5825 30.802 29.6949 29.7243C27.8074 28.6467 26.2821 27.0332 25.312 25.0882C24.3419 23.1433 23.9706 20.9542 24.2453 18.7981C24.5199 16.6421 25.428 14.6159 26.8547 12.9762C28.2814 11.3365 30.1625 10.157 32.2598 9.58687C33.6496 9.20728 35.1005 9.10514 36.5297 9.28629C37.9589 9.46743 39.3384 9.92831 40.5895 10.6426C41.8406 11.3569 42.9387 12.3106 43.8212 13.4493C44.7037 14.588 45.3533 15.8894 45.7328 17.2792Z" fill="#F5F5F5"/>
<path d="M43.1998 17.9577C43.6387 19.5552 43.5935 21.247 43.0702 22.8188C42.5468 24.3907 41.5688 25.7718 40.26 26.7874C38.9511 27.803 37.3703 28.4074 35.7177 28.524C34.0652 28.6405 32.4152 28.2641 30.9767 27.4423C29.5383 26.6204 28.376 25.3902 27.6372 23.9074C26.8984 22.4246 26.6162 20.7559 26.8264 19.1127C27.0367 17.4694 27.7298 15.9254 28.8181 14.6764C29.9064 13.4273 31.3408 12.5293 32.9398 12.096C35.0776 11.5168 37.3578 11.8085 39.2809 12.9072C41.204 14.0059 42.6132 15.822 43.1998 17.9577Z" fill="#EBEBEB"/>
<path d="M43.141 17.7036C43.0924 17.7198 42.9628 17.3742 42.6631 16.791C42.2457 15.9756 41.7047 15.2297 41.0593 14.5797C40.1052 13.6186 38.9309 12.905 37.6384 12.5007C37.2688 12.3819 36.8906 12.2916 36.5071 12.2307C36.1083 12.1631 35.7047 12.127 35.3002 12.1227C34.8812 12.1168 34.4624 12.143 34.0474 12.201C33.621 12.2598 33.1996 12.35 32.7865 12.471C32.3766 12.6049 31.9768 12.7682 31.5904 12.9597C31.2148 13.1435 30.8538 13.3556 30.5104 13.5942C30.1782 13.8246 29.8641 14.08 29.5708 14.3583C29.2877 14.6242 29.0242 14.9102 28.7824 15.2142C28.3339 15.7776 27.9601 16.3965 27.67 17.0556C27.4176 17.6315 27.2302 18.2337 27.1111 18.8511C26.9406 19.7546 26.9114 20.6791 27.0247 21.5916C27.103 22.2423 27.1894 22.6014 27.1408 22.6149C27.0922 22.6284 26.9383 22.2909 26.779 21.6348C26.5626 20.6981 26.5232 19.7293 26.6629 18.7782C26.7577 18.1174 26.9309 17.4703 27.1786 16.8504C27.4664 16.1359 27.8497 15.4638 28.318 14.8524C28.5691 14.5195 28.8463 14.2071 29.1469 13.9182C29.4575 13.6132 29.7925 13.3342 30.1486 13.0839C30.517 12.8214 30.9062 12.5893 31.3123 12.39C32.1476 11.9764 33.0452 11.7028 33.9691 11.58C34.4164 11.5189 34.8678 11.4936 35.3191 11.5044C35.7549 11.5126 36.1893 11.5568 36.6178 11.6367C37.0282 11.7086 37.4325 11.8115 37.8274 11.9445C38.5551 12.1884 39.2463 12.5299 39.8821 12.9597C40.4347 13.3345 40.9405 13.7741 41.3887 14.2692C42.0358 14.9794 42.5457 15.8033 42.8926 16.6992C43.1275 17.3229 43.1761 17.6928 43.141 17.7036Z" fill="#E0E0E0"/>
<path d="M37.3573 24.7229L37.7596 26.1242L36.5095 26.4833L36.118 25.1333C34.8571 25.4033 33.5584 25.3682 32.7133 25.028L32.9644 23.3027C33.8253 23.5947 34.7471 23.6589 35.6401 23.489L35.0407 21.3992C33.5557 21.4613 31.8709 21.4424 31.3552 19.655C30.9745 18.3266 31.6117 16.9118 33.5152 16.118L33.1156 14.7302L34.3657 14.3711L34.7572 15.7211C35.6666 15.5132 36.6124 15.5243 37.5166 15.7535L37.3357 17.4734C36.6483 17.3002 35.9334 17.2654 35.2324 17.3708L35.8453 19.4984C37.3276 19.4255 38.9854 19.4498 39.493 21.2129C39.8818 22.5197 39.2527 23.921 37.3573 24.7229ZM34.5169 19.5524L34.0201 17.7758C33.3991 18.116 33.2425 18.5534 33.3613 18.9665C33.4801 19.3796 33.9175 19.5335 34.5169 19.5524ZM37.5301 21.9473C37.4059 21.5099 36.9739 21.3776 36.3826 21.3425L36.8767 23.0705C37.4707 22.7519 37.6516 22.3496 37.5301 21.9473Z" fill="#E0E0E0"/>
<path d="M21.2949 35.7899C21.0447 37.1257 20.4037 38.3573 19.4532 39.3288C18.5027 40.3003 17.2854 40.9679 15.9553 41.2472C14.6252 41.5265 13.2421 41.405 11.9811 40.898C10.7201 40.391 9.63791 39.5212 8.87141 38.3989C8.1049 37.2765 7.68858 35.952 7.67514 34.593C7.6617 33.234 8.05173 31.9015 8.79589 30.7642C9.54004 29.6269 10.6049 28.7359 11.8556 28.2041C13.1063 27.6722 14.4867 27.5233 15.822 27.7763C16.7077 27.943 17.5517 28.2825 18.3061 28.7754C19.0605 29.2684 19.7103 29.9052 20.2186 30.6493C20.7268 31.3935 21.0834 32.2305 21.2681 33.1125C21.4528 33.9946 21.4619 34.9043 21.2949 35.7899Z" fill="#F5F5F5"/>
<path d="M19.6907 35.486C19.5001 36.5042 19.0116 37.443 18.2872 38.1835C17.5628 38.924 16.635 39.4329 15.6212 39.6459C14.6074 39.8589 13.5532 39.7663 12.5921 39.3799C11.6309 38.9935 10.806 38.3306 10.2217 37.4752C9.63748 36.6198 9.32012 35.6103 9.30983 34.5744C9.29954 33.5385 9.59679 32.5229 10.164 31.6561C10.7311 30.7892 11.5427 30.1101 12.496 29.7047C13.4493 29.2993 14.5014 29.1858 15.5192 29.3786C16.8823 29.6353 18.0875 30.423 18.8698 31.5684C19.6521 32.7137 19.9474 34.1229 19.6907 35.486Z" fill="#EBEBEB"/>
<path d="M19.7102 35.3241C19.6808 35.1112 19.6744 34.8958 19.6913 34.6815C19.6808 34.1061 19.5806 33.5359 19.3943 32.9913C19.1233 32.1903 18.6597 31.468 18.0443 30.888C17.8689 30.7192 17.6802 30.5648 17.48 30.4263C17.2744 30.2801 17.0578 30.1501 16.832 30.0375C16.598 29.919 16.3552 29.8188 16.1057 29.7378C15.8485 29.6565 15.586 29.5933 15.32 29.5488C15.0517 29.5094 14.7811 29.4886 14.51 29.4867C14.2487 29.4882 13.9879 29.509 13.7297 29.5488C13.479 29.5876 13.2317 29.6454 12.9899 29.7216C12.7585 29.7949 12.5329 29.8852 12.3149 29.9916C11.5503 30.3559 10.8859 30.9008 10.379 31.5792C10.0356 32.0402 9.76683 32.5522 9.58246 33.0966C9.53056 33.3057 9.45821 33.5092 9.36646 33.7041C9.34468 33.4819 9.37329 33.2577 9.45016 33.048C9.58555 32.4631 9.82814 31.9084 10.1657 31.4118C10.3974 31.066 10.6693 30.7488 10.9757 30.4668C11.3326 30.1449 11.7313 29.8724 12.161 29.6568C12.3938 29.5378 12.6358 29.4376 12.8846 29.3571C13.1426 29.2712 13.4072 29.2062 13.6757 29.1627C13.9549 29.1152 14.2375 29.0908 14.5208 29.0898C14.8119 29.0919 15.1025 29.1154 15.3902 29.16C15.6775 29.2071 15.9609 29.2756 16.238 29.3652C16.5037 29.4566 16.7619 29.5685 17.0102 29.7C17.2522 29.8249 17.4842 29.9685 17.7041 30.1293C17.9148 30.2831 18.1142 30.4519 18.3008 30.6342C18.9465 31.2658 19.4181 32.0536 19.6697 32.9211C19.8394 33.498 19.8998 34.1014 19.8479 34.7004C19.8448 34.9155 19.7979 35.1277 19.7102 35.3241Z" fill="#E0E0E0"/>
<path d="M14.5472 37.6889L14.3906 38.588L13.5806 38.4476L13.7318 37.5728C13.0208 37.4279 12.3654 37.0843 11.8418 36.5819L12.4547 35.6828C12.8593 36.0835 13.3606 36.3728 13.91 36.5225L14.1449 35.1725C13.2917 34.7999 12.3494 34.3301 12.5492 33.1826C12.6977 32.3321 13.4429 31.7111 14.7362 31.7867L14.8901 30.8984L15.7001 31.0361L15.5489 31.9109C16.1169 32.0434 16.6454 32.309 17.0906 32.6858L16.5182 33.6011C16.1782 33.3167 15.7855 33.102 15.3626 32.9693L15.125 34.3193C15.9782 34.6838 16.907 35.1509 16.7072 36.2822C16.5695 37.1408 15.8324 37.7564 14.5472 37.6889ZM14.3636 34.0034L14.5634 32.864C14.1206 32.8883 13.9127 33.0908 13.8641 33.3554C13.8155 33.62 14.0396 33.8306 14.3636 34.0034ZM15.4058 36.1796C15.4544 35.9096 15.2492 35.7071 14.9252 35.5262L14.7308 36.6332C15.1493 36.6116 15.3599 36.4334 15.4058 36.1796Z" fill="#E0E0E0"/>
<path d="M128.577 96.3274L122.019 96.0898L123.139 97.5046L126.249 101.39L127.248 102.645L128.577 96.3274Z" fill="#F5F5F5"/>
<path d="M91.0389 117.996L88.0986 114.956L101.156 104.75L103.435 109.265L113.905 100.87L116.397 104.518L125.88 96.7285L127.573 98.3917L115.493 109.176L112.968 104.334L102.355 114.13L100.367 108.978L91.0389 117.996Z" fill="#F5F5F5"/>
<path d="M116.111 37.9395L107.35 42.6051L109.888 43.6095L116.908 46.3311L119.168 47.2113L116.111 37.9395Z" fill="#E0E0E0"/>
<path d="M83.449 94.7748L77.293 93.0306L86.6296 69.7701L93.0367 73.947L100.364 55.0173L106.391 57.9009L112.884 40.5156L116.362 41.4039L108.74 64.6779L101.766 60.2607L95.3182 81.129L88.8058 75.8964L83.449 94.7748Z" fill="#E0E0E0"/>
<path d="M128.904 127.84C128.904 127.88 101.15 127.913 66.9197 127.913C32.6891 127.913 4.92773 127.88 4.92773 127.84C4.92773 127.799 32.6756 127.77 66.9197 127.77C101.164 127.77 128.904 127.802 128.904 127.84Z" fill="#263238"/>
<path d="M77.0578 127.777H83.7188V116.877H77.0578V127.777Z" fill="#00AAD3"/>
<path d="M103.914 127.777H110.575V109.285H103.914V127.777Z" fill="#00AAD3"/>
<path d="M117.344 127.775H124.005V121.058H117.344V127.775Z" fill="#00AAD3"/>
<path d="M90.4846 127.775H97.1455V111.697H90.4846V127.775Z" fill="#00AAD3"/>
<path d="M63.6282 127.777H70.2891V107.743H63.6282V127.777Z" fill="#00AAD3"/>
<path d="M50.2004 127.775H56.8613V102.004H50.2004V127.775Z" fill="#00AAD3"/>
<path d="M36.7737 127.777H43.4346L43.4346 95.6176H36.7737V127.777Z" fill="#00AAD3"/>
<path d="M23.3411 127.775H30.002L30.002 86.9514H23.3411L23.3411 127.775Z" fill="#00AAD3"/>
<path d="M9.9143 127.775H16.5752L16.5752 74.1102H9.9143L9.9143 127.775Z" fill="#00AAD3"/>
<path d="M112.36 120.552C111.271 118.487 109.656 116.745 107.679 115.503C105.702 114.261 103.432 113.562 101.099 113.478C103.92 110.354 104.476 105.521 102.848 101.638C101.22 97.7557 97.6373 94.8586 93.6143 93.6112C89.5913 92.3638 85.193 92.6554 81.1943 93.946C81.6614 90.9112 78.6239 87.8791 75.5891 88.3516C76.1931 87.9382 76.6199 87.313 76.785 86.5998C76.9501 85.8867 76.8415 85.1376 76.4806 84.5007C76.1198 83.8639 75.533 83.3857 74.8364 83.1608C74.1398 82.9359 73.3841 82.9808 72.719 83.2864L72.8999 61.0195H59.6699L59.8481 83.2756C59.1785 82.9398 58.4056 82.874 57.6889 83.0918C56.9722 83.3097 56.3666 83.7944 55.9971 84.446C55.6276 85.0976 55.5226 85.8662 55.7036 86.5931C55.8846 87.3199 56.338 87.9495 56.9699 88.3516C53.9351 87.8791 50.8976 90.9112 51.362 93.946C47.3552 92.6554 42.9542 92.3611 38.942 93.6112C34.9298 94.8613 31.3199 97.753 29.6999 101.638C28.0799 105.524 28.6199 110.354 31.4522 113.478C29.1184 113.563 26.8483 114.261 24.8706 115.503C22.8929 116.745 21.2777 118.486 20.1878 120.552C18.9566 122.96 18.8378 126.516 21.2354 127.774H111.313C113.708 126.516 113.594 122.96 112.36 120.552Z" fill="#EBEBEB"/>
<path d="M21.2272 127.774L20.9059 127.583C20.5961 127.375 20.3224 127.118 20.0959 126.821C19.7427 126.326 19.5038 125.759 19.3966 125.161C19.2491 124.339 19.2592 123.497 19.4263 122.679C19.6233 121.646 20.0135 120.658 20.5765 119.769C21.231 118.692 22.0418 117.719 22.9822 116.88C24.0647 115.901 25.2995 115.105 26.638 114.523L27.178 114.293L27.7396 114.096C27.9291 114.028 28.1219 113.969 28.3174 113.921C28.5145 113.867 28.7089 113.805 28.9114 113.761C29.7393 113.575 30.5825 113.466 31.4305 113.435L31.3981 113.505C30.5461 112.542 29.8805 111.43 29.4352 110.224C28.8186 108.519 28.6003 106.695 28.7968 104.891C28.9934 103.088 29.5996 101.354 30.5692 99.8213C30.9814 99.1476 31.457 98.5147 31.9894 97.9313C34.2677 95.4412 37.2881 93.7521 40.6024 93.1145C42.3555 92.7682 44.1478 92.6628 45.9295 92.8013C47.7759 92.9504 49.5988 93.3128 51.3619 93.8813L51.2809 93.9515C51.1761 93.2181 51.2559 92.4701 51.5131 91.7753C51.7828 91.0549 52.1985 90.398 52.7343 89.846C53.27 89.294 53.9142 88.8588 54.6262 88.5677C55.3687 88.2679 56.1777 88.1719 56.9698 88.2896L56.9212 88.4084C56.3057 87.9845 55.8714 87.3453 55.7038 86.617C55.5362 85.8887 55.6476 85.124 56.0159 84.4738C56.3843 83.8235 56.9829 83.3348 57.6937 83.104C58.4045 82.8733 59.176 82.9172 59.8561 83.2271L59.7616 83.2892C59.7022 76.2017 59.6428 68.7281 59.5807 61.0331V60.9629H72.9511V61.0196C72.889 68.6957 72.8269 76.1396 72.7702 83.2757L72.6757 83.2136C73.3557 82.9037 74.1272 82.8598 74.8381 83.0905C75.5489 83.3213 76.1475 83.81 76.5158 84.4603C76.8842 85.1105 76.9955 85.8752 76.828 86.6035C76.6604 87.3318 76.2261 87.971 75.6106 88.3949L75.562 88.2761C76.3409 88.1613 77.1364 88.2544 77.8678 88.5461C78.5823 88.833 79.2296 89.265 79.7687 89.8147C80.3078 90.3645 80.727 91.0201 80.9998 91.7402C81.268 92.4464 81.3516 93.2094 81.2428 93.9569L81.1618 93.8867C82.9248 93.3182 84.7478 92.9558 86.5942 92.8067C88.3731 92.6686 90.1624 92.7731 91.9132 93.1172C95.2239 93.754 98.2424 95.4379 100.523 97.9205C101.055 98.5051 101.532 99.1378 101.946 99.8105C102.357 100.458 102.704 101.143 102.983 101.857C103.256 102.551 103.461 103.27 103.596 104.004C103.726 104.716 103.794 105.439 103.799 106.164C103.802 107.544 103.564 108.915 103.097 110.214C102.651 111.425 101.982 112.542 101.126 113.508L101.096 113.437C101.945 113.469 102.789 113.578 103.618 113.764C103.817 113.81 104.015 113.872 104.212 113.923C104.407 113.973 104.6 114.032 104.789 114.102L105.354 114.299L105.894 114.528C107.234 115.11 108.471 115.907 109.555 116.888C110.493 117.729 111.303 118.703 111.958 119.78C112.519 120.67 112.908 121.657 113.105 122.69C113.27 123.508 113.278 124.349 113.13 125.169C113.021 125.766 112.783 126.332 112.43 126.827C112.205 127.123 111.931 127.38 111.62 127.585C111.41 127.715 111.299 127.777 111.299 127.777L111.615 127.575C111.916 127.365 112.181 127.108 112.401 126.813C112.747 126.319 112.98 125.755 113.084 125.161C113.227 124.345 113.215 123.51 113.049 122.698C112.85 121.671 112.459 120.69 111.899 119.807C111.244 118.738 110.435 117.772 109.498 116.939C108.418 115.966 107.187 115.176 105.853 114.598L105.313 114.372L104.752 114.177C104.563 114.108 104.371 114.049 104.177 113.999C103.979 113.948 103.785 113.888 103.585 113.842C102.762 113.66 101.923 113.552 101.08 113.521H100.991L101.05 113.454C101.896 112.495 102.556 111.387 102.997 110.187C103.46 108.895 103.694 107.533 103.688 106.161C103.68 105.444 103.613 104.728 103.485 104.022C103.35 103.295 103.145 102.583 102.872 101.895C102.595 101.187 102.25 100.507 101.844 99.8645C101.433 99.2051 100.963 98.5843 100.44 98.0096C98.1736 95.5471 95.1758 93.8783 91.8889 93.2495C90.1477 92.9086 88.3684 92.8059 86.5996 92.9444C84.7639 93.0949 82.9519 93.4573 81.1996 94.0244L81.1024 94.0541L81.1159 93.9542C81.222 93.2257 81.1402 92.4822 80.8783 91.7942C80.6098 91.0949 80.1997 90.4586 79.6738 89.9252C79.1478 89.3918 78.5173 88.9729 77.8219 88.6946C77.1118 88.4085 76.3386 88.3153 75.5809 88.4246L75.2974 88.4705L75.535 88.3058C76.1194 87.8991 76.5309 87.2887 76.6887 86.5944C76.8466 85.9001 76.7395 85.1719 76.3884 84.5524C76.0373 83.933 75.4675 83.467 74.7907 83.2458C74.1139 83.0246 73.3788 83.0642 72.7297 83.3567L72.6352 83.3999V83.2946C72.6919 76.1639 72.7486 68.7146 72.8107 61.0385L72.8809 61.1087H59.6698L59.74 61.0385C59.7994 68.7335 59.8588 76.2044 59.9155 83.2946V83.3999L59.8183 83.3567C59.1725 83.0752 58.4454 83.0422 57.7768 83.2641C57.1082 83.4861 56.5452 83.9472 56.1959 84.559C55.8467 85.1709 55.7358 85.8901 55.8846 86.5787C56.0334 87.2673 56.4314 87.8766 57.0022 88.2896L57.2398 88.4543L56.9536 88.4084C56.1879 88.2952 55.4059 88.3885 54.6883 88.6784C53.9832 88.9642 53.3465 89.3957 52.8199 89.9447C51.775 91.0247 51.1999 92.5205 51.4186 93.9218L51.4348 94.0217L51.3376 93.992C49.5855 93.4239 47.7733 93.0615 45.9376 92.912C44.1679 92.7749 42.3878 92.8776 40.6456 93.2171C37.3506 93.8524 34.3482 95.533 32.0839 98.0096C31.5569 98.5878 31.0842 99.2132 30.6718 99.878C30.2638 100.519 29.9202 101.199 29.6458 101.908C28.6099 104.566 28.5697 107.508 29.5324 110.192C29.974 111.388 30.6331 112.492 31.4764 113.448L31.5358 113.516H31.444C30.6026 113.547 29.7657 113.654 28.9438 113.837C28.744 113.88 28.5496 113.942 28.3525 113.994C28.1554 114.045 27.9664 114.099 27.7774 114.169L27.2185 114.363L26.6785 114.59C25.3446 115.166 24.1135 115.954 23.0335 116.926C22.0975 117.76 21.288 118.726 20.6305 119.793C20.0701 120.677 19.6791 121.658 19.4776 122.685C19.3109 123.497 19.298 124.333 19.4398 125.15C19.5426 125.745 19.7759 126.311 20.1229 126.805C20.3416 127.102 20.608 127.36 20.9113 127.569L21.2272 127.774Z" fill="#263238"/>
<path d="M49.1074 30.5211L65.7691 11.127L81.7801 30.5211H75.5323V62.1543H56.1355V30.5562L49.1074 30.5211Z" fill="#00AAD3"/>
<path d="M128.245 62.0391L116.448 65.6652L119.313 67.4715L127.248 72.4098L129.8 74.0055L128.245 62.0391Z" fill="#00AAD3"/>
<path d="M75.0114 123.428L67.9023 119.875L84.7638 93.8144L91.611 100.378L105.003 79.1021L111.688 84.008L123.701 64.4141L127.74 66.3014L112.968 92.7776L105.486 85.7927L92.7099 109.626L85.9869 101.76L75.0114 123.428Z" fill="#00AAD3"/>
<g opacity="0.3">
<path d="M81.9694 116.711C80.3494 115.631 78.2596 115.523 76.3561 115.901C75.727 116.025 75.0304 116.187 74.4796 115.86C73.9288 115.534 73.7452 114.848 73.5292 114.24C72.4168 111.184 69.3658 109.089 66.1555 108.554C62.9452 108.019 60.3694 108.284 57.4615 109.734C55.4142 110.702 53.6675 112.207 52.4071 114.089C51.9724 114.74 51.1813 116.065 51.1813 116.065C50.6008 116.492 49.8313 116.522 49.1185 116.638C47.6457 116.903 46.2816 117.59 45.1921 118.616C44.1026 119.641 43.3345 120.962 42.9814 122.416L83.7676 121.771C84.5344 119.978 83.5867 117.783 81.9694 116.711Z" fill="black"/>
</g>
<path d="M40.748 125.086C42.0224 120.569 47.0471 117.469 51.656 118.36C52.6253 113.446 57.326 109.545 62.3453 109.504C67.3646 109.464 72.1274 113.284 73.175 118.19C75.9425 117.553 78.9179 117.08 81.5612 118.12C84.2045 119.159 86.2268 122.259 85.1334 124.87" fill="#EBEBEB"/>
<path d="M85.1336 124.881C85.1336 124.881 85.1336 124.854 85.1552 124.803C85.1768 124.752 85.1957 124.676 85.2254 124.579C85.2706 124.457 85.3023 124.33 85.3199 124.201C85.361 124.03 85.3854 123.856 85.3928 123.68C85.4522 122.518 85.1046 121.373 84.41 120.44C83.9368 119.772 83.3435 119.198 82.6604 118.747C81.8519 118.228 80.9461 117.879 79.9982 117.721C78.923 117.542 77.8287 117.51 76.7447 117.624C75.5465 117.756 74.3585 117.969 73.1888 118.261H73.1267V118.199C72.6435 116.116 71.5592 114.22 70.0082 112.748C68.3173 111.112 66.161 110.04 63.836 109.68C62.3664 109.468 60.8678 109.589 59.4512 110.034C56.8112 110.868 54.5542 112.615 53.0846 114.962C52.4381 116.008 51.9812 117.161 51.7346 118.366V118.423H51.6752C50.69 118.242 49.6812 118.229 48.6917 118.385C48.2351 118.455 47.7839 118.557 47.3417 118.69L46.7126 118.909C46.502 118.976 46.313 119.082 46.1159 119.163C45.7461 119.333 45.3856 119.524 45.0359 119.732L44.5526 120.056L44.315 120.216L44.099 120.389L43.6778 120.726C43.5428 120.837 43.424 120.964 43.2998 121.077C43.1756 121.19 43.0568 121.304 42.9488 121.423L42.641 121.774C42.0257 122.488 41.5214 123.291 41.1452 124.155C41.0156 124.455 40.9481 124.695 40.8752 124.852C40.8023 125.008 40.7861 125.092 40.7861 125.092C40.7861 125.092 40.8725 124.754 41.102 124.142C41.4673 123.267 41.9645 122.454 42.5762 121.73L42.8867 121.371C42.9947 121.253 43.1189 121.142 43.2377 121.023C43.3565 120.904 43.478 120.78 43.6157 120.667L44.0369 120.324C44.1098 120.264 44.18 120.205 44.2556 120.148L44.4905 119.986L44.9792 119.657C45.3337 119.443 45.6997 119.25 46.0754 119.076C46.2725 118.993 46.4642 118.885 46.6748 118.806L47.312 118.582C47.7602 118.445 48.2177 118.34 48.6809 118.269C49.6831 118.106 50.7058 118.115 51.7049 118.296L51.6347 118.345C51.8823 117.123 52.3448 115.954 53.0009 114.894C53.7111 113.75 54.6147 112.738 55.6712 111.902C56.7833 111.017 58.0466 110.34 59.3999 109.904C60.8365 109.453 62.3566 109.331 63.8468 109.548C66.2002 109.91 68.3826 110.995 70.0919 112.653C71.6602 114.147 72.7549 116.069 73.2401 118.18L73.1618 118.131C74.3393 117.847 75.5345 117.642 76.7393 117.518C77.8337 117.406 78.9383 117.443 80.0225 117.629C80.9853 117.791 81.9043 118.15 82.7225 118.682C83.4115 119.143 84.0085 119.728 84.4829 120.407C85.1796 121.354 85.52 122.515 85.4441 123.688C85.4322 123.866 85.4042 124.042 85.3604 124.214C85.3376 124.341 85.3024 124.465 85.2551 124.584C85.22 124.679 85.193 124.752 85.1741 124.808C85.1637 124.834 85.1501 124.859 85.1336 124.881Z" fill="#263238"/>
<path d="M59.7402 55.5826C59.913 66.4285 51.2703 75.3925 40.4757 75.5626C29.6811 75.7327 20.7657 67.0549 20.5848 56.209C20.4039 45.3631 29.052 36.3991 39.8466 36.229C50.6412 36.0589 59.5674 44.7394 59.7402 55.5826ZM30.8016 56.0497C30.8403 57.8987 31.4258 59.6949 32.4842 61.2115C33.5427 62.7281 35.0266 63.8972 36.7489 64.5712C38.4711 65.2452 40.3544 65.394 42.1611 64.9987C43.9678 64.6035 45.617 63.6819 46.9004 62.3503C48.1838 61.0187 49.0441 59.3367 49.3725 57.5167C49.701 55.6967 49.483 53.8201 48.746 52.1239C48.009 50.4276 46.7861 48.9877 45.2316 47.9858C43.677 46.9839 41.8605 46.465 40.0113 46.4944C37.5235 46.542 35.1562 47.575 33.4294 49.3665C31.7027 51.1581 30.7575 53.5618 30.8016 56.0497Z" fill="#E0E0E0"/>
<path d="M59.7393 55.5833C59.9121 66.4292 51.2694 75.3932 40.4748 75.5633L40.3101 65.3033C42.8042 65.2636 45.1804 64.2347 46.9159 62.443C48.6514 60.6512 49.6041 58.2435 49.5644 55.7494C49.5246 53.2552 48.4957 50.8791 46.704 49.1436C44.9123 47.408 42.5045 46.4554 40.0104 46.4951L39.8457 36.2351C50.6403 36.0569 59.5638 44.7401 59.7393 55.5833Z" fill="#455A64"/>
<path d="M40.3425 75.7029L40.1751 65.1729H40.3101C42.1399 65.1353 43.9176 64.5572 45.4196 63.5114C46.9215 62.4655 48.0804 60.9987 48.7504 59.2956C49.4203 57.5924 49.5715 55.7292 49.1847 53.9403C48.7979 52.1515 47.8905 50.5171 46.5768 49.2429C45.7104 48.3942 44.684 47.7262 43.5572 47.2775C42.4304 46.8288 41.2257 46.6085 40.0131 46.6293H39.8781L39.708 36.0993H39.843C45.0813 36.0322 50.1323 38.0459 53.8877 41.6985C57.6431 45.3511 59.7961 50.3443 59.8743 55.5825C60.0471 66.504 51.3477 75.5301 40.4775 75.7056L40.3425 75.7029ZM40.4478 65.4429L40.6071 75.4329C51.2667 75.1872 59.7771 66.3123 59.6043 55.5879C59.5275 50.4447 57.423 45.5398 53.7486 41.9403C50.0742 38.3407 45.1271 36.3375 39.9834 36.3666L40.1427 46.3566C42.633 46.3774 45.0165 47.371 46.7842 49.1253C48.5519 50.8795 49.5637 53.2554 49.6035 55.7455C49.6433 58.2355 48.708 60.6425 46.9973 62.4524C45.2867 64.2623 42.9362 65.3316 40.4478 65.4321V65.4429Z" fill="#455A64"/>
<path d="M42.233 77.1455C29.6051 77.3507 19.5287 67.5497 19.3262 54.8597L31.2791 54.668C31.3763 60.7349 35.9933 64.5527 42.0305 64.4555L42.233 77.1455Z" fill="#00AAD3"/>
<path d="M26.1895 55.0799C26.2651 55.1312 25.1365 56.9051 23.6677 59.0354C22.1989 61.1657 20.9434 62.8559 20.8678 62.8154C20.7922 62.7749 21.9235 60.9902 23.3923 58.8572C24.8611 56.7242 26.1166 55.0151 26.1895 55.0799Z" fill="#263238"/>
<path d="M31.3899 56.0652C31.4655 56.1192 29.7942 58.6761 27.6585 61.7784C25.5228 64.8807 23.7246 67.3512 23.649 67.2999C23.5734 67.2486 25.2447 64.6917 27.3831 61.5894C29.5215 58.4871 31.3197 56.0139 31.3899 56.0652Z" fill="#263238"/>
<path d="M33.9166 61.3818C33.9949 61.4331 32.4883 63.7497 30.5578 66.5523C28.6273 69.3549 26.9992 71.5851 26.9236 71.5338C26.848 71.4825 28.3519 69.1659 30.2824 66.3633C32.2129 63.5607 33.841 61.3278 33.9166 61.3818Z" fill="#263238"/>
<path d="M38.3179 64.3216C38.3935 64.3729 36.8896 66.6868 34.9591 69.4921C33.0286 72.2974 31.4005 74.5195 31.3195 74.4736C31.2385 74.4277 32.7478 72.1057 34.681 69.3004C36.6142 66.4951 38.2423 64.2595 38.3179 64.3216Z" fill="#263238"/>
<path d="M42.0871 68.0397C42.1654 68.0937 40.9342 70.008 39.3439 72.3192C37.7536 74.6304 36.3982 76.4718 36.3226 76.4097C36.247 76.3476 37.4755 74.4414 39.0685 72.1302C40.6615 69.819 42.0115 67.9992 42.0871 68.0397Z" fill="#263238"/>
<path d="M104.425 18.1333C104.425 18.1333 105.605 15.4171 105.662 14.9905C105.719 14.5639 105.603 13.6216 105.297 13.3705C105.171 13.2478 105.008 13.1689 104.833 13.1451C104.658 13.1213 104.48 13.1539 104.325 13.2382C104.306 13.0671 104.233 12.9066 104.117 12.7798C104 12.6531 103.846 12.5668 103.677 12.5335C103.61 12.5098 103.538 12.5029 103.468 12.5132C103.397 12.5236 103.33 12.5509 103.272 12.5929C103.215 12.6349 103.168 12.6902 103.137 12.7542C103.105 12.8181 103.09 12.8888 103.092 12.9601C103.095 12.8385 103.057 12.7194 102.981 12.6236C102.906 12.5279 102.8 12.4616 102.681 12.4363C102.525 12.4115 102.365 12.4351 102.222 12.5038C102.222 12.5038 101.647 11.9908 101.261 12.3094C100.875 12.628 101.32 17.5771 101.32 17.5771L104.425 18.1333Z" fill="#FFBF9D"/>
<path d="M101.25 17.0092C101.25 17.0092 100.197 15.1975 100.202 14.7034C100.208 14.2093 100.799 13.0834 101.128 12.9484C101.458 12.8134 102.748 12.5137 102.748 12.5137C102.748 12.5137 103.288 13.0132 102.492 13.5073L101.59 14.0392C101.59 14.0392 103.037 14.5225 102.991 16.0021" fill="#FFBF9D"/>
<path d="M102.991 15.9897C102.968 15.7573 102.923 15.5276 102.856 15.3039C102.761 15.0563 102.617 14.8304 102.432 14.6397C102.189 14.3941 101.895 14.2044 101.571 14.0835L101.45 14.0376L101.56 13.9755L102.478 13.4355C102.635 13.3474 102.759 13.211 102.832 13.0467C102.858 12.9621 102.859 12.8719 102.836 12.7865C102.813 12.701 102.767 12.6237 102.702 12.5634L102.764 12.5796L102.071 12.7443L101.531 12.8874C101.441 12.9144 101.352 12.9387 101.261 12.9684C101.219 12.9811 101.179 12.9965 101.139 13.0143C101.105 13.0338 101.074 13.0564 101.045 13.0818C100.819 13.3314 100.636 13.617 100.505 13.9269C100.434 14.0687 100.376 14.2159 100.329 14.367C100.279 14.5025 100.26 14.6471 100.272 14.7909C100.336 15.0522 100.427 15.3065 100.542 15.5496C100.748 16.0059 100.937 16.3596 101.063 16.6161C101.134 16.7432 101.196 16.8749 101.25 17.0103C101.159 16.8965 101.08 16.7745 101.012 16.6458C100.872 16.4028 100.669 16.0491 100.451 15.5928C100.324 15.3443 100.225 15.0826 100.156 14.8125C100.137 14.6513 100.154 14.4879 100.208 14.3346C100.257 14.1772 100.315 14.023 100.383 13.8729C100.523 13.5447 100.718 13.2432 100.961 12.9819C100.999 12.947 101.042 12.9171 101.088 12.8928C101.132 12.8722 101.177 12.8542 101.223 12.8388C101.312 12.8091 101.404 12.7821 101.493 12.7578C101.673 12.7074 101.853 12.6588 102.033 12.612L102.732 12.4473H102.77L102.794 12.4716C102.879 12.5505 102.939 12.6517 102.968 12.7636C102.997 12.8754 102.994 12.9933 102.959 13.1034C102.874 13.2961 102.729 13.4562 102.546 13.5597L101.614 14.0781V13.9701C101.952 14.1017 102.257 14.3074 102.505 14.5722C102.696 14.7755 102.839 15.0178 102.926 15.2823C102.957 15.3791 102.979 15.4785 102.991 15.5793C103.005 15.6531 103.01 15.7283 103.007 15.8034C103.01 15.8659 103.005 15.9285 102.991 15.9897Z" fill="#FF9A6C"/>
<path d="M102.983 12.9961C102.838 13.523 102.786 14.0713 102.829 14.6161C102.829 14.7994 102.891 14.9774 103.005 15.121C103.068 15.1823 103.146 15.2271 103.23 15.2516C103.315 15.2761 103.405 15.2795 103.491 15.2614C103.665 15.2196 103.823 15.1253 103.942 14.9914" fill="#FFBF9D"/>
<path d="M103.95 15.0125C103.95 15.0125 103.864 15.1988 103.564 15.3068C103.474 15.336 103.378 15.3438 103.285 15.3298C103.191 15.3157 103.102 15.2802 103.024 15.2258C102.941 15.1471 102.875 15.0515 102.831 14.9453C102.787 14.8392 102.767 14.725 102.77 14.6102C102.705 14.0597 102.783 13.5017 102.997 12.9902C102.922 13.5213 102.893 14.0579 102.911 14.594C102.907 14.6899 102.922 14.7856 102.955 14.8756C102.988 14.9656 103.039 15.0479 103.105 15.1178C103.168 15.163 103.239 15.1943 103.314 15.2097C103.39 15.2251 103.468 15.2241 103.543 15.2069C103.686 15.1581 103.822 15.0929 103.95 15.0125Z" fill="#FF9A6C"/>
<path d="M101.825 13.9727C101.757 14.162 101.742 14.3666 101.782 14.564C101.782 14.691 101.822 14.8148 101.896 14.9179C101.97 15.0211 102.075 15.0984 102.195 15.1391C102.4 15.1877 102.665 14.915 102.786 14.6288" fill="#FFBF9D"/>
<path d="M102.786 14.6283C102.8 14.6283 102.786 14.7633 102.66 14.9334C102.591 15.037 102.498 15.1223 102.39 15.1818C102.311 15.2129 102.223 15.2129 102.144 15.1818C102.063 15.1548 101.99 15.1085 101.931 15.0468C101.823 14.9327 101.754 14.7869 101.736 14.631C101.73 14.5122 101.73 14.3933 101.736 14.2746C101.736 14.0613 101.836 13.9533 101.847 13.9614C101.858 13.9695 101.823 14.0883 101.847 14.2746L101.885 14.6121C101.907 14.7383 101.965 14.8555 102.052 14.9496C102.096 14.9943 102.15 15.0293 102.209 15.0522C102.258 15.0724 102.313 15.0724 102.363 15.0522C102.459 15.0083 102.545 14.9438 102.614 14.8632C102.711 14.7309 102.765 14.6202 102.786 14.6283Z" fill="#FF9A6C"/>
<path d="M104.422 13.2617C104.125 13.5842 103.91 13.973 103.793 14.3957C103.749 14.5009 103.733 14.6162 103.749 14.7293C103.765 14.8425 103.811 14.9493 103.882 15.0383C103.982 15.1049 104.1 15.1384 104.22 15.134C104.34 15.1297 104.455 15.0877 104.549 15.014C104.704 14.9171 104.837 14.7894 104.94 14.6389C105.043 14.4884 105.114 14.3183 105.149 14.1392" fill="#FFBF9D"/>
<path d="M105.149 14.1399C105.156 14.3344 105.095 14.5253 104.976 14.6799C104.862 14.8594 104.705 15.0078 104.52 15.1119C104.405 15.1747 104.278 15.2089 104.147 15.2118C104.072 15.2132 103.997 15.1957 103.93 15.1608C103.863 15.1259 103.806 15.0747 103.764 15.012C103.69 14.8875 103.663 14.7415 103.685 14.5989C103.701 14.476 103.731 14.3555 103.775 14.2398C103.843 14.0496 103.933 13.8683 104.045 13.6998C104.135 13.5329 104.264 13.3896 104.42 13.2812C104.436 13.2975 104.293 13.4568 104.128 13.7511C104.033 13.9226 103.955 14.1036 103.896 14.2911C103.857 14.3982 103.832 14.5098 103.82 14.6232C103.804 14.7344 103.824 14.848 103.877 14.9472C103.999 15.1389 104.277 15.1011 104.458 15.0066C104.628 14.9168 104.776 14.7894 104.89 14.634C104.99 14.4771 105.077 14.3118 105.149 14.1399Z" fill="#FF9A6C"/>
<path d="M89.7666 35.5292C89.7666 35.5292 91.23 33.9497 91.8078 33.596C92.3856 33.2423 96.1926 28.7036 96.5949 27.5102C96.9972 26.3168 100.731 16.7291 100.645 16.8587C100.559 16.9883 105.386 17.8712 105.386 17.8712C105.386 17.8712 101.809 28.9412 101.371 30.194C100.583 32.4863 96.6759 37.1276 94.4511 39.914C93.5007 41.0993 92.1885 44.8955 92.1885 44.8955L89.7666 35.5292Z" fill="#263238"/>
<path d="M93.2547 41.4826C93.1822 41.1986 93.1361 40.9085 93.117 40.6159C93.0549 40.0759 92.9982 39.3307 92.9847 38.5045C92.9712 37.6783 93.0009 36.9277 93.0441 36.3877C93.0551 36.0945 93.0913 35.8027 93.1521 35.5156C93.1729 35.8078 93.1729 36.101 93.1521 36.3931C93.1332 36.9331 93.1197 37.6783 93.1332 38.5018C93.1467 39.3253 93.1872 40.0678 93.225 40.6078C93.2562 40.8983 93.2661 41.1907 93.2547 41.4826Z" fill="#455A64"/>
<path d="M69.1199 97.8371L67.0625 102.03L66.7925 103.056C66.7925 103.056 68.1668 109.285 67.3082 109.901L61.1846 100.016L62.7614 99.0224L64.7243 94.832L69.1199 97.8371Z" fill="#455A64"/>
<path d="M61.2012 100.016L61.9761 99.5703L67.557 109.215C67.557 109.215 67.6488 109.768 67.3248 109.901L61.2012 100.016Z" fill="#263238"/>
<path d="M66.9596 103.187C66.911 103.214 66.7409 102.987 66.4466 102.838C66.1523 102.69 65.8823 102.687 65.8742 102.63C65.8661 102.574 66.1739 102.482 66.5249 102.666C66.8759 102.849 67.0028 103.17 66.9596 103.187Z" fill="#263238"/>
<path d="M67.1917 104.491C67.1539 104.529 66.946 104.369 66.6517 104.323C66.3574 104.277 66.1117 104.361 66.0955 104.323C66.0793 104.286 66.3088 104.08 66.6733 104.142C67.0378 104.205 67.2295 104.448 67.1917 104.491Z" fill="#263238"/>
<path d="M66.3817 105.797C66.3439 105.76 66.5329 105.549 66.8596 105.527C67.1863 105.506 67.4239 105.66 67.3996 105.703C67.3753 105.746 67.1539 105.703 66.8866 105.722C66.6193 105.741 66.4195 105.841 66.3817 105.797Z" fill="#263238"/>
<path d="M90.1045 66.989C89.9047 67.4642 79.5745 83.2781 77.455 85.0358C75.3355 86.7935 68.1022 101.217 68.1022 101.217C68.1022 101.217 62.1919 98.3522 62.0596 98.6627C61.9273 98.9732 66.2041 88.481 68.7556 84.1718C71.3071 79.8626 72.4978 78.1967 72.4978 78.1967L77.5738 64.6616C77.5738 64.6616 77.6791 60.2039 78.3298 58.4705C78.9805 56.7371 80.8921 55.2305 80.8921 55.2305L90.1045 66.989Z" fill="#263238"/>
<path d="M80.8001 86.101L75.3056 86.4952C75.3056 86.4952 73.8962 92.5135 72.8756 92.6917L71.666 81.4867L80.198 80.5039L80.8001 86.101Z" fill="#455A64"/>
<path d="M75.3951 82.9794C75.3576 82.8732 75.2803 82.7857 75.1796 82.7353C75.0789 82.685 74.9626 82.6757 74.8551 82.7094C74.7545 82.753 74.6735 82.8323 74.6277 82.9319C74.5818 83.0315 74.5744 83.1446 74.6067 83.2494C74.6492 83.3568 74.7306 83.4442 74.8347 83.4943C74.9388 83.5443 75.0579 83.5533 75.1683 83.5194C75.2701 83.4622 75.3469 83.3689 75.3834 83.258C75.4198 83.147 75.4134 83.0264 75.3654 82.92" fill="#E0E0E0"/>
<path d="M71.6797 81.4859L72.5437 81.4238L73.378 92.1887C73.378 92.1887 73.2268 92.7098 72.8893 92.6909L71.6797 81.4859Z" fill="#263238"/>
<path d="M75.3813 86.6697C75.3273 86.6697 75.276 86.3997 75.0789 86.1513C74.8818 85.9029 74.6496 85.7814 74.6658 85.7274C74.682 85.6734 74.9898 85.7274 75.222 86.0325C75.4542 86.3376 75.4299 86.6697 75.3813 86.6697Z" fill="#263238"/>
<path d="M75.0597 87.8957C75.0111 87.9119 74.8977 87.6851 74.6574 87.5231C74.4171 87.3611 74.1795 87.3341 74.1768 87.2801C74.1741 87.2261 74.463 87.1586 74.7573 87.3638C75.0516 87.569 75.0948 87.8876 75.0597 87.8957Z" fill="#263238"/>
<path d="M73.7859 88.7092C73.7697 88.6606 74.0208 88.5553 74.3259 88.666C74.631 88.7767 74.7633 89.017 74.7228 89.0467C74.6823 89.0764 74.5149 88.9333 74.2665 88.8469C74.0181 88.7605 73.7967 88.7632 73.7859 88.7092Z" fill="#263238"/>
<path d="M76.6203 86.4323C76.5717 86.4161 76.6203 86.1623 76.5636 85.8491C76.5069 85.5359 76.3908 85.3091 76.4313 85.2767C76.4718 85.2443 76.6851 85.4549 76.7418 85.8167C76.7985 86.1785 76.6797 86.4539 76.6203 86.4323Z" fill="#263238"/>
<path d="M75.9887 62.8435C75.9887 62.8435 75.9752 68.1139 78.3674 69.8932C80.7596 71.6725 89.054 78.3685 89.054 78.3685L75.8105 80.6311L76.8015 86.7709C76.8015 86.7709 94.6782 84.9673 96.8652 84.2356C99.0522 83.5039 100.626 79.8022 98.9144 77.2156C98.0532 75.925 89.154 63.2728 89.154 63.2728L88.884 59.8789L77.6654 60.5863L75.9887 62.8435Z" fill="#263238"/>
<path d="M76.801 86.7703C76.7895 86.7361 76.7814 86.7008 76.7767 86.665C76.7605 86.584 76.7416 86.4787 76.7173 86.3464C76.666 86.0575 76.5958 85.6498 76.5067 85.126C76.3285 84.046 76.072 82.5232 75.7588 80.6386V80.5873H75.8101L87.9007 78.5029L89.0482 78.3058L89.0158 78.43C87.1501 76.8883 85.3762 75.4357 83.7589 74.1316L81.4585 72.2956C80.7376 71.7259 80.0437 71.2156 79.4713 70.6756C78.5613 69.8433 77.7684 68.8914 77.1142 67.846C76.9375 67.5624 76.7779 67.2685 76.6363 66.9658C76.585 66.8632 76.5526 66.7822 76.531 66.7282C76.5179 66.7018 76.5088 66.6736 76.504 66.6445C76.52 66.6693 76.5335 66.6955 76.5445 66.7228C76.5688 66.7768 76.6066 66.8551 76.6606 66.955C76.8111 67.2506 76.977 67.538 77.1574 67.8163C77.8262 68.8451 78.6257 69.7827 79.5361 70.6054C80.1085 71.1319 80.8024 71.6341 81.526 72.2038C82.2496 72.7735 83.0272 73.381 83.8372 74.029C85.4572 75.3304 87.2392 76.7776 89.1049 78.3193L89.2237 78.4165L89.0725 78.4408L87.925 78.6379L75.829 80.6872L75.8722 80.6278C76.1665 82.5178 76.4122 84.0514 76.5715 85.1206C76.6498 85.6471 76.7119 86.0575 76.7551 86.3464C76.774 86.4814 76.7875 86.5867 76.7983 86.6677C76.803 86.7017 76.8039 86.7361 76.801 86.7703Z" fill="#455A64"/>
<path d="M92.6258 78.7487C92.6258 78.7892 91.8401 78.5597 90.8573 78.4571C89.8745 78.3545 89.0672 78.4112 89.0645 78.368C89.235 78.3154 89.4125 78.289 89.591 78.2897C90.0176 78.2634 90.4458 78.2734 90.8708 78.3194C91.2964 78.3623 91.7175 78.4427 92.129 78.5597C92.3038 78.5949 92.4717 78.6588 92.6258 78.7487Z" fill="#455A64"/>
<path d="M84.4506 18.6296C84.531 18.3891 84.6835 18.1792 84.8874 18.0285C85.0912 17.8778 85.3366 17.7935 85.59 17.7872C85.8448 17.5107 86.1849 17.3278 86.556 17.2676C86.927 17.2074 87.3075 17.2734 87.6366 17.4551C87.833 17.2886 88.0689 17.1756 88.3216 17.1268C88.5743 17.078 88.8353 17.0951 89.0795 17.1765C89.3237 17.2579 89.5428 17.4008 89.7157 17.5915C89.8886 17.7821 90.0094 18.0141 90.0666 18.2651C90.3154 18.1831 90.5833 18.1793 90.8343 18.2541C91.0853 18.3289 91.3073 18.4788 91.4706 18.6836C91.6271 18.8948 91.7158 19.1486 91.725 19.4113C91.7341 19.6741 91.6633 19.9334 91.5219 20.1551C91.8191 20.1948 92.0908 20.3435 92.2845 20.5723C92.4783 20.8011 92.5801 21.0937 92.5704 21.3933C92.5606 21.6929 92.4399 21.9782 92.2318 22.194C92.0236 22.4097 91.7427 22.5404 91.4436 22.5608L84.9231 19.9796C84.7148 19.8307 84.5576 19.6211 84.473 19.3794C84.3885 19.1377 84.3806 18.8758 84.4506 18.6296Z" fill="#263238"/>
<path d="M91.6654 22.6967C91.3353 21.4551 90.5512 20.3824 89.4683 19.691C88.3854 18.9996 87.0825 18.7396 85.8172 18.9626L85.5472 19.0085C82.7743 19.6835 82.3612 22.4402 83.1172 25.2185L85.2691 35.6405L90.4261 38.705L91.0471 36.4289V32.7191C91.0471 32.7191 93.6661 31.8092 93.2071 29.093C92.9776 27.7673 92.3026 25.1105 91.6654 22.6967Z" fill="#FFBF9D"/>
<path d="M91.0597 32.6977C89.808 32.9252 88.5173 32.7874 87.3418 32.3008C87.3418 32.3008 88.3975 34.2502 91.0408 33.5158L91.0597 32.6977Z" fill="#FF9A6C"/>
<path d="M91.3298 25.2503C91.3498 25.3505 91.3295 25.4545 91.2735 25.5399C91.2174 25.6253 91.1299 25.6852 91.0301 25.7066C90.9822 25.7196 90.9322 25.7228 90.883 25.7162C90.8339 25.7096 90.7865 25.6933 90.7438 25.6681C90.701 25.643 90.6637 25.6095 90.6341 25.5698C90.6044 25.53 90.583 25.4848 90.5711 25.4366C90.551 25.3361 90.5711 25.2317 90.6272 25.1459C90.6832 25.0601 90.7707 24.9997 90.8708 24.9776C90.9188 24.9647 90.969 24.9615 91.0183 24.9683C91.0676 24.9751 91.115 24.9917 91.1578 25.0171C91.2006 25.0425 91.2378 25.0763 91.2674 25.1163C91.2969 25.1564 91.3181 25.2019 91.3298 25.2503Z" fill="#263238"/>
<path d="M91.3816 24.26C91.3411 24.3194 91.0117 24.1547 90.5986 24.233C90.1855 24.3113 89.9101 24.5705 89.8642 24.53C89.8183 24.4895 89.8642 24.4112 89.9857 24.2897C90.1408 24.1314 90.3422 24.0265 90.5608 23.99C90.776 23.9498 90.9986 23.9801 91.1953 24.0764C91.3411 24.1493 91.4005 24.233 91.3816 24.26Z" fill="#263238"/>
<path d="M87.7145 26.0656C87.7345 26.1661 87.7144 26.2705 87.6584 26.3563C87.6023 26.4421 87.5149 26.5025 87.4148 26.5246C87.3669 26.5372 87.317 26.5401 87.268 26.5334C87.219 26.5266 87.1718 26.5102 87.1291 26.4851C87.0864 26.46 87.0492 26.4267 87.0194 26.3871C86.9897 26.3476 86.968 26.3025 86.9558 26.2546C86.9358 26.1544 86.956 26.0504 87.0121 25.965C87.0682 25.8796 87.1556 25.8197 87.2555 25.7983C87.3032 25.7853 87.353 25.7819 87.402 25.7883C87.451 25.7948 87.4983 25.8109 87.541 25.8358C87.5837 25.8607 87.621 25.8938 87.6508 25.9332C87.6806 25.9727 87.7022 26.0177 87.7145 26.0656Z" fill="#263238"/>
<path d="M87.4095 24.922C87.369 24.9814 87.0396 24.8193 86.6265 24.8949C86.2134 24.9705 85.9461 25.2352 85.8921 25.192C85.8381 25.1488 85.8921 25.0732 86.0109 24.9517C86.1681 24.7947 86.3698 24.6901 86.5887 24.652C86.804 24.6119 87.0264 24.6422 87.2232 24.7384C87.369 24.814 87.4284 24.895 87.4095 24.922Z" fill="#263238"/>
<path d="M89.3317 27.7619C89.5371 27.6523 89.7558 27.5697 89.9824 27.5162C90.0877 27.4865 90.1822 27.4487 90.1876 27.3731C90.1776 27.2616 90.1333 27.156 90.0607 27.0707L89.599 26.3174C88.9564 25.2374 88.4704 24.3518 88.519 24.3248C88.5676 24.2978 89.1184 25.151 89.761 26.2148C89.9176 26.4848 90.0688 26.7332 90.2092 26.9762C90.2994 27.0926 90.3462 27.2368 90.3415 27.3839C90.3329 27.424 90.3153 27.4616 90.2901 27.4939C90.2648 27.5262 90.2325 27.5523 90.1957 27.5702C90.14 27.5977 90.081 27.6176 90.0202 27.6296C89.7968 27.7013 89.5657 27.7458 89.3317 27.7619Z" fill="#263238"/>
<path d="M88.1659 28.2719C88.2334 28.2557 88.317 28.7066 88.7598 28.9577C89.2026 29.2088 89.6725 29.0711 89.686 29.1332C89.6995 29.1953 89.5968 29.2412 89.3943 29.2844C89.1315 29.3351 88.8593 29.2921 88.6248 29.1629C88.3999 29.0358 88.2327 28.8269 88.1578 28.5797C88.1065 28.3934 88.1362 28.2746 88.1659 28.2719Z" fill="#263238"/>
<path d="M87.21 23.7295C87.1803 23.8483 86.805 23.8159 86.373 23.9023C85.941 23.9887 85.5954 24.1426 85.5333 24.0427C85.5036 23.9968 85.5576 23.8834 85.6926 23.7727C85.8659 23.6284 86.0731 23.5309 86.2947 23.4892C86.5164 23.4446 86.7461 23.4614 86.9589 23.5378C87.1236 23.5891 87.21 23.6755 87.21 23.7295Z" fill="#263238"/>
<path d="M91.0785 23.1369C91.0326 23.2476 90.7275 23.226 90.3873 23.3124C90.0471 23.3988 89.7825 23.5419 89.6907 23.4609C89.6502 23.4231 89.6691 23.3178 89.7717 23.1909C89.9096 23.0391 90.0898 22.9322 90.2891 22.8841C90.4884 22.8359 90.6976 22.8488 90.8895 22.9209C91.0326 22.9965 91.0974 23.0829 91.0785 23.1369Z" fill="#263238"/>
<path d="M91.1792 21.5009C91.1792 21.5009 90.1613 19.9322 89.2757 19.6865C88.1957 19.3841 87.977 20.5505 86.9888 20.456C86.0006 20.3615 84.98 20.0726 84.1511 20.9771C83.2466 21.968 83.8406 22.4378 83.9945 23.6528C84.6155 28.5749 83.9945 30.1166 83.3141 27.8648C83.2412 27.6191 82.5041 27.5435 82.2125 26.4986C81.8291 25.1486 81.4727 23.4827 81.6023 22.4486C81.7103 21.5765 82.0721 20.9231 82.7984 20.1428C83.9405 18.9089 85.7549 18.5579 87.0104 18.458C88.2659 18.3581 90.9065 19.3571 91.1792 21.5009Z" fill="#263238"/>
<path d="M83.8132 27.6962C83.7921 27.5977 83.7512 27.5046 83.693 27.4223C83.6349 27.3401 83.5607 27.2705 83.4749 27.2178C83.3891 27.165 83.2935 27.1302 83.1938 27.1155C83.0942 27.1007 82.9926 27.1063 82.8952 27.1319C82.4011 27.2696 81.8935 27.6719 82.1149 28.6979C82.5118 30.5393 84.2749 29.7644 84.2614 29.7104C84.2479 29.6564 83.986 28.4657 83.8132 27.6962Z" fill="#FFBF9D"/>
<path d="M83.7134 29.1035C83.7134 29.1035 83.6864 29.1332 83.6378 29.171C83.5685 29.219 83.4834 29.2383 83.4002 29.225C83.267 29.1739 83.1497 29.0886 83.0601 28.9777C82.9705 28.8668 82.9118 28.7341 82.8899 28.5932C82.8538 28.435 82.8538 28.2708 82.8899 28.1126C82.8944 28.0517 82.9137 27.9928 82.9462 27.941C82.9787 27.8893 83.0233 27.8462 83.0762 27.8156C83.111 27.7982 83.1509 27.7936 83.1889 27.8025C83.2268 27.8113 83.2605 27.8332 83.2841 27.8642C83.3192 27.9101 83.3165 27.9479 83.3246 27.9506C83.3327 27.9533 83.357 27.9101 83.3246 27.8372C83.3043 27.794 83.27 27.7588 83.2274 27.7373C83.1978 27.7251 83.1662 27.7188 83.1342 27.7188C83.1022 27.7188 83.0706 27.7251 83.0411 27.7373C82.9697 27.7692 82.9075 27.8186 82.8603 27.8809C82.8131 27.9432 82.7824 28.0164 82.7711 28.0937C82.7274 28.2711 82.7274 28.4564 82.7711 28.6337C82.7973 28.7995 82.8716 28.954 82.9849 29.0778C83.0982 29.2017 83.2454 29.2895 83.4083 29.3303C83.4588 29.3323 83.5092 29.3232 83.5559 29.3036C83.6025 29.284 83.6443 29.2544 83.6783 29.2169C83.7188 29.1602 83.7215 29.1062 83.7134 29.1035Z" fill="#FF9A6C"/>
<path d="M82.855 24.1621C83.1145 24.306 83.4061 24.3821 83.7028 24.3835C83.8492 24.3788 83.9891 24.3217 84.0971 24.2226C84.2051 24.1235 84.274 23.989 84.2914 23.8435C84.2914 23.7112 84.232 23.5735 84.2914 23.452C84.3508 23.3305 84.5614 23.3197 84.7207 23.3089C84.9959 23.2801 85.2527 23.1567 85.4472 22.9598C85.6416 22.7628 85.7618 22.5046 85.7872 22.2289C85.8858 22.3058 86.0098 22.3427 86.1344 22.3322C86.259 22.3217 86.3751 22.2646 86.4595 22.1722C86.6228 21.9812 86.759 21.7686 86.8645 21.5404C86.9173 21.4266 86.9975 21.3276 87.0978 21.2522C87.1981 21.1769 87.3155 21.1275 87.4396 21.1084C87.5771 21.1299 87.7166 21.1354 87.8554 21.1246C88.093 21.0598 88.1605 20.752 88.1524 20.5036C88.1443 20.2552 88.1227 19.9636 88.3036 19.8016C88.4987 19.6785 88.7315 19.6296 88.9597 19.6639C89.1865 19.6639 89.4646 19.5505 89.4835 19.321C89.4822 19.2607 89.4689 19.2011 89.4443 19.146C89.4197 19.0908 89.3844 19.0411 89.3404 18.9997C89.1507 18.8025 88.8996 18.6755 88.6283 18.6397C88.357 18.6039 88.0816 18.6614 87.8473 18.8026C87.7033 18.5099 87.475 18.2669 87.1919 18.1048C86.9087 17.9428 86.5836 17.8691 86.2583 17.8931C85.9329 17.9172 85.6222 18.038 85.366 18.24C85.1098 18.442 84.9199 18.716 84.8206 19.0267C84.5928 18.8832 84.3335 18.7972 84.0651 18.7761C83.7967 18.7551 83.5272 18.7996 83.2798 18.9059C83.0324 19.0122 82.8146 19.177 82.6451 19.3862C82.4756 19.5954 82.3595 19.8427 82.3069 20.1067C82.0704 20.0915 81.8347 20.1448 81.6278 20.2602C81.4209 20.3756 81.2517 20.5483 81.1405 20.7574C81.0351 20.9702 80.9923 21.2086 81.0172 21.4447C81.042 21.6809 81.1335 21.9051 81.2809 22.0912C81.1245 22.2081 81.0006 22.3629 80.9207 22.541C80.8409 22.7191 80.8078 22.9147 80.8246 23.1091C80.8867 23.4925 81.3268 23.8084 81.6778 23.6491C81.6395 23.8115 81.6603 23.9823 81.7365 24.1307C81.8127 24.2791 81.9393 24.3956 82.0936 24.4591C82.2549 24.511 82.4297 24.502 82.5849 24.4339C82.7401 24.3657 82.865 24.2431 82.936 24.0892" fill="#263238"/>
<path d="M81.54 23.6567C81.5446 23.7225 81.5631 23.7866 81.5943 23.8448C81.6255 23.903 81.6687 23.9539 81.7209 23.9942C81.8329 24.0946 81.9783 24.1495 82.1286 24.1481C82.225 24.1459 82.3198 24.1225 82.4061 24.0796C82.4924 24.0367 82.5682 23.9752 82.6281 23.8997H82.5471C82.6763 24.057 82.8304 24.192 83.0034 24.2993C83.1181 24.3719 83.2454 24.4223 83.3787 24.4478C83.5045 24.4703 83.634 24.4591 83.754 24.4154C83.8599 24.3878 83.9583 24.3372 84.0423 24.2672C84.1263 24.1972 84.1939 24.1095 84.24 24.0104C84.2924 23.879 84.319 23.7387 84.3183 23.5973C84.3183 23.4974 84.3183 23.4434 84.3048 23.4434C84.2883 23.4913 84.2784 23.5413 84.2751 23.5919C84.2613 23.7246 84.2258 23.8541 84.1698 23.9753C84.1162 24.0667 84.0441 24.146 83.958 24.2078C83.8719 24.2697 83.7738 24.3128 83.67 24.3345C83.5662 24.3561 83.459 24.3557 83.3554 24.3334C83.2517 24.311 83.1539 24.2672 83.0682 24.2048C82.901 24.1048 82.7499 23.9801 82.62 23.8349L82.5768 23.7863L82.539 23.8376C82.4892 23.9023 82.4261 23.9556 82.3539 23.9938C82.2817 24.032 82.2021 24.0542 82.1205 24.059C81.9889 24.066 81.8593 24.0247 81.756 23.9429C81.6658 23.8627 81.5923 23.7654 81.54 23.6567Z" fill="#455A64"/>
<path d="M84.2588 18.7957C84.2588 18.7957 84.3101 18.7957 84.3965 18.82C84.5242 18.8485 84.6401 18.9154 84.7286 19.0117L84.7556 19.0441L84.7745 19.0036C84.9499 18.6491 85.2117 18.3446 85.5359 18.118C85.743 17.9701 85.9798 17.8688 86.2298 17.821C86.5021 17.7722 86.7826 17.8002 87.0398 17.902C87.2431 17.9823 87.4271 18.1047 87.5798 18.2611C87.7213 18.4082 87.8259 18.5868 87.8849 18.7822L87.9011 18.8416L87.9551 18.8146C88.1732 18.7086 88.4219 18.6836 88.6568 18.7439C88.8917 18.8042 89.0975 18.946 89.2376 19.144C89.347 19.3064 89.4198 19.4907 89.4509 19.684C89.4621 19.6324 89.4621 19.579 89.4509 19.5274C89.4263 19.3824 89.3711 19.2444 89.2889 19.1224C89.166 18.9287 88.9829 18.7808 88.7678 18.7012C88.6303 18.6504 88.4841 18.6274 88.3377 18.6334C88.1912 18.6394 88.0474 18.6744 87.9146 18.7363L87.9821 18.7687C87.9233 18.5548 87.8119 18.3589 87.6581 18.199C87.472 18.0066 87.2414 17.8629 86.9867 17.7805C86.732 17.6981 86.4609 17.6795 86.1974 17.7265C85.9347 17.7802 85.6862 17.8887 85.4684 18.0451C85.1354 18.2842 84.8732 18.6088 84.7097 18.9847H84.7583C84.6581 18.8851 84.5283 18.8207 84.3884 18.8011C84.3074 18.7768 84.2588 18.7903 84.2588 18.7957Z" fill="#455A64"/>
<path d="M87.3369 63.8031C87.5934 63.8247 88.4709 64.1352 89.6103 62.0265C90.7497 59.9178 91.8432 52.1094 91.8432 52.1094L87.3369 63.8031Z" fill="#E0E0E0"/>
<path d="M92.253 49.0997L92.3826 41.5532L90.8652 35.7779C90.8652 35.7779 89.8041 34.1147 88.6458 33.2696C87.8977 32.6968 87.0433 32.2783 86.1321 32.0384L84.3933 31.6172L84.207 33.059L89.2533 38.8478L92.253 49.0997Z" fill="#E0E0E0"/>
<path d="M84.2402 32.1309C84.2402 32.1309 88.3928 32.4873 90.4016 37.5066C91.4816 40.2066 92.1377 47.4291 92.2646 48.5577C92.3915 49.6863 91.9676 52.2756 91.1981 55.764C91.0469 56.4417 90.5042 58.2237 89.0246 62.5464C87.4397 67.1688 86.1761 70.5816 86.1761 70.5816L72.8975 65.4516L79.5017 53.8686C79.5017 53.8686 79.1534 50.2992 79.1696 49.959C79.2965 47.3049 78.7808 45.8118 79.6583 40.7115C79.9161 39.187 80.4515 37.7227 81.2378 36.3915C82.0748 34.9848 82.6931 34.5636 84.1133 33.5052L84.2402 32.1309Z" fill="#263238"/>
<path d="M85.6605 63.768L86.0115 60.9681L79.68 58.4004L78.5244 61.0761L85.6605 63.768Z" fill="#263238"/>
<path d="M85.6602 63.7689L85.5171 63.7068L85.1121 63.5448L83.619 62.9616L78.5484 61.0203L78.5889 61.1121L79.5717 58.8468L79.7472 58.4364L79.6527 58.4769L85.9923 61.0203L85.9626 60.969C85.8681 61.8195 85.7898 62.5134 85.7358 63.0075C85.7115 63.2424 85.6926 63.4287 85.6764 63.5718C85.6602 63.7149 85.6575 63.7716 85.6602 63.7743C85.6758 63.715 85.6866 63.6545 85.6926 63.5934C85.7142 63.4557 85.7412 63.2748 85.7736 63.0534C85.8438 62.5512 85.941 61.8492 86.0598 60.9852V60.9474L86.0247 60.9339L79.7013 58.3446L79.65 58.3203L79.623 58.3851C79.5663 58.5201 79.5069 58.6551 79.4475 58.7928C79.1073 59.5812 78.7779 60.3453 78.4701 61.0635L78.4404 61.131L78.5079 61.1553L83.6541 63.0615L85.1418 63.6015L85.536 63.7419C85.5765 63.7547 85.6181 63.7638 85.6602 63.7689Z" fill="#455A64"/>
<path d="M90.9085 56.6992C90.9045 56.7241 90.8982 56.7485 90.8896 56.7721L90.8248 56.98L90.5548 57.79C90.3199 58.4947 89.9878 59.4964 89.5747 60.7276L86.2942 70.4044L86.224 70.6096L86.1997 70.6798L86.1322 70.6528L76.7416 66.9997L73.9093 65.8792L73.1425 65.5687L72.9454 65.485L72.8779 65.4499L72.9508 65.4715L73.1533 65.5417L73.9282 65.8279L76.7767 66.9079L86.1808 70.5259L86.089 70.5691C86.1133 70.5043 86.1349 70.4341 86.1592 70.3639C87.4552 66.5839 88.6297 63.1819 89.4829 60.6979C89.9095 59.4721 90.2578 58.4758 90.5035 57.7738L90.8005 56.9692C90.8302 56.8855 90.8572 56.818 90.8761 56.764C90.895 56.71 90.9058 56.6992 90.9085 56.6992Z" fill="#455A64"/>
<path d="M71.3906 71.4849C71.3906 71.4849 72.9593 66.3738 74.2958 66.0255C75.6323 65.6772 77.3981 65.6232 77.7086 66.4953C78.0907 67.5948 78.2647 68.7558 78.2216 69.9189C78.1313 70.9897 77.9553 72.0515 77.6951 73.0941L76.3316 72.6702C76.3316 72.6702 77.4116 67.4808 77.1227 66.6303C76.8338 65.7798 74.582 65.985 74.1689 66.8679C73.7558 67.7508 72.4436 71.8089 72.4436 71.8089L71.3906 71.4849Z" fill="#455A64"/>
<path d="M65.1239 77.9159C65.6018 75.7748 66.7196 71.066 67.2137 69.0059C67.2782 68.7345 67.4452 68.4987 67.6798 68.3477C67.9143 68.1967 68.1981 68.1423 68.4719 68.1959L81.2699 70.7177C81.5447 70.7722 81.7877 70.9313 81.9474 71.1616C82.1071 71.3918 82.171 71.6751 82.1258 71.9516L80.6813 80.8454C80.6582 80.9877 80.6068 81.1239 80.5303 81.2461C80.4537 81.3682 80.3534 81.4738 80.2354 81.5566C80.1174 81.6394 79.984 81.6977 79.8431 81.7281C79.7022 81.7585 79.5566 81.7604 79.415 81.7337L65.9825 79.2146C65.8395 79.1883 65.7033 79.1335 65.582 79.0533C65.4607 78.9731 65.3569 78.8693 65.2767 78.748C65.1966 78.6267 65.1417 78.4905 65.1154 78.3476C65.0892 78.2046 65.092 78.0577 65.1239 77.9159Z" fill="#455A64"/>
<path d="M80.8079 73.9955L80.7917 74.09C80.7782 74.1575 80.762 74.2547 80.7377 74.3762C80.6891 74.6327 80.6162 75.0026 80.5217 75.4805L79.7117 79.5602L79.6469 79.8896C79.6318 80.0087 79.5831 80.1211 79.5065 80.2136C79.4253 80.3081 79.3168 80.3751 79.196 80.4053C79.0741 80.4299 78.948 80.4243 78.8288 80.3891L77.3654 80.1056L74.1254 79.4819L70.5587 78.788L68.6687 78.4208L67.7048 78.2318L67.4618 78.1859C67.3759 78.1739 67.2917 78.1521 67.2107 78.1211C67.1271 78.0844 67.053 78.029 66.994 77.9593C66.935 77.8896 66.8928 77.8073 66.8705 77.7188C66.8557 77.6421 66.8557 77.5633 66.8705 77.4866C66.8705 77.4083 66.9002 77.3435 66.9137 77.2733L67.0028 76.8548L67.181 76.0259C67.2971 75.4859 67.4132 74.9459 67.5266 74.4059C67.757 73.3385 67.9775 72.3116 68.1881 71.3252V71.2793H68.234C71.8709 72.2108 75.0164 72.875 77.2466 73.3151C78.3644 73.5338 79.2527 73.6985 79.8602 73.8092L80.5622 73.9388L80.7377 73.9739L80.7971 73.9874H80.7323L80.5514 73.9604L79.8548 73.847C79.2446 73.7444 78.3563 73.5905 77.2385 73.3772C75.0002 72.956 71.852 72.2972 68.2097 71.3765L68.2664 71.3414C68.0585 72.3269 67.8371 73.3583 67.6103 74.4248C67.4969 74.9648 67.3808 75.5048 67.2647 76.0448C67.2053 76.3148 67.1459 76.5848 67.0865 76.8737L66.9974 77.2895C66.9538 77.4189 66.9427 77.5571 66.965 77.6918C66.9844 77.7655 67.0198 77.834 67.0688 77.8924C67.1179 77.9507 67.1792 77.9975 67.2485 78.0293C67.3233 78.0577 67.4012 78.0767 67.4807 78.086L67.7237 78.1346L68.6876 78.3236L70.5776 78.6908L74.147 79.3901L77.387 80.0246L78.8504 80.3135C78.9591 80.3455 79.0739 80.3511 79.1852 80.3297C79.2901 80.3041 79.3844 80.2465 79.4552 80.165C79.5234 80.0816 79.5665 79.9804 79.5794 79.8734C79.6037 79.7627 79.6253 79.6547 79.6469 79.5494C80.0006 77.8376 80.2895 76.4552 80.4866 75.4994C80.5892 75.0215 80.6675 74.6489 80.7215 74.3924C80.7485 74.2682 80.7701 74.171 80.7836 74.1008C80.7971 74.0306 80.8079 73.9955 80.8079 73.9955Z" fill="#263238"/>
<path d="M76.037 78.9732C76.037 78.9732 76.1153 78.9867 76.2665 78.9867C76.4856 78.9796 76.6982 78.9103 76.8794 78.7869C77.0198 78.686 77.1365 78.5558 77.2214 78.4051C77.3063 78.2545 77.3573 78.0872 77.3708 77.9148C77.4491 77.5125 77.5409 77.0562 77.6408 76.5513C77.6921 76.2975 77.7434 76.0329 77.7974 75.7575C77.8755 75.482 77.8476 75.1872 77.7191 74.9313C77.6489 74.7988 77.552 74.6824 77.4344 74.5894C77.3167 74.4964 77.1811 74.429 77.036 74.3913C76.7282 74.3238 76.3961 74.2617 76.064 74.1942L71.7197 73.3248C71.537 73.2884 71.348 73.2998 71.1711 73.358C70.9941 73.4162 70.8353 73.5192 70.7099 73.6569C70.5854 73.7912 70.4988 73.9561 70.4588 74.1348L70.3454 74.6748L70.1294 75.7548C70.0952 75.9348 70.0601 76.1076 70.0241 76.2732C69.9857 76.4388 69.9568 76.6065 69.9377 76.7754C69.9291 76.9351 69.9562 77.0948 70.0169 77.2428C70.0776 77.3908 70.1704 77.5235 70.2887 77.6313C70.403 77.7332 70.5373 77.8104 70.6829 77.8581C70.8233 77.9013 70.9826 77.9256 71.1284 77.958L72.7781 78.2955L75.1676 78.7923L75.8156 78.9327L75.983 78.9705L76.0397 78.9867H75.9803L75.8102 78.957L75.1595 78.8355L72.7646 78.3684L71.1095 78.0309C70.961 77.9985 70.8125 77.9796 70.6532 77.9337C70.4958 77.8834 70.3511 77.7996 70.2293 77.688C70.1003 77.5725 69.9987 77.4297 69.9319 77.2699C69.8651 77.1102 69.8348 76.9375 69.8432 76.7646C69.8632 76.5912 69.893 76.419 69.9323 76.2489C69.9674 76.0788 69.9998 75.906 70.0349 75.7305C70.1051 75.3822 70.178 75.0258 70.2509 74.6505C70.286 74.4696 70.3238 74.286 70.3616 74.1105C70.4058 73.9167 70.4987 73.7373 70.6316 73.5894C70.7685 73.4393 70.9418 73.327 71.1347 73.2631C71.3276 73.1993 71.5337 73.1861 71.7332 73.2249L76.0775 74.1024C76.4096 74.1726 76.7336 74.232 77.0522 74.3049C77.2096 74.3472 77.3564 74.4222 77.4829 74.525C77.6095 74.6278 77.7129 74.7561 77.7866 74.9016C77.9214 75.175 77.9494 75.4889 77.8649 75.7818C77.8082 76.0518 77.7542 76.3218 77.7029 76.5729C77.6003 77.0751 77.5058 77.5314 77.4329 77.9229C77.4113 78.0228 77.3924 78.12 77.3654 78.2145C77.3362 78.3027 77.2963 78.3871 77.2466 78.4656C77.1614 78.6054 77.0461 78.7244 76.9091 78.8139C76.721 78.9384 76.5001 79.0042 76.2746 79.0029C76.1944 79.004 76.1144 78.994 76.037 78.9732Z" fill="#263238"/>
<g opacity="0.3">
<path d="M67.1729 78.0684C70.7741 79.9542 74.8483 80.7454 78.8936 80.3445L67.1729 78.0684Z" fill="black"/>
</g>
<path d="M75.2112 75.4012L73.71 75.0988C73.6536 75.0875 73.6 75.0652 73.5522 75.0331C73.5044 75.0011 73.4634 74.9599 73.4316 74.912C73.3997 74.8641 73.3776 74.8104 73.3666 74.754C73.3555 74.6975 73.3557 74.6394 73.3671 74.5831C73.3906 74.47 73.4575 74.3708 73.5534 74.3066C73.6494 74.2425 73.7667 74.2186 73.8801 74.2401L75.3894 74.5452C75.4457 74.5562 75.4993 74.5782 75.547 74.61C75.5948 74.6418 75.6358 74.6827 75.6677 74.7304C75.6995 74.778 75.7217 74.8316 75.7327 74.8878C75.7438 74.9441 75.7437 75.002 75.7323 75.0582C75.7214 75.1154 75.6991 75.1698 75.6668 75.2181C75.6345 75.2665 75.5928 75.3079 75.5443 75.3399C75.4957 75.3719 75.4411 75.3938 75.3839 75.4043C75.3267 75.4148 75.268 75.4137 75.2112 75.4012Z" fill="#E0E0E0"/>
<path d="M77.609 64.8789C77.8072 65.1798 77.9686 65.5034 78.0896 65.8428C78.1441 66.4506 78.1549 67.0614 78.122 67.6707C78.122 67.6707 77.8061 67.83 77.5496 66.9822C77.4145 66.5745 77.3177 66.1551 77.2607 65.7294L77.609 64.8789Z" fill="#FFBF9D"/>
<path d="M77.5685 67.5919L77.6279 64.9162L76.5965 62.9371L73.3241 62.875L73.208 66.115C73.208 66.115 73.6886 67.5055 73.9181 67.7674C74.1476 68.0293 74.6066 67.8349 74.6066 67.8349C74.8523 68.2237 75.5327 68.0806 75.5327 68.0806C75.8648 68.4775 76.3832 68.1049 76.3832 68.1049C76.3832 68.1049 76.8368 68.5207 77.0447 68.4937C77.132 68.4727 77.2099 68.4234 77.2661 68.3533C77.4557 68.1444 77.5631 67.8739 77.5685 67.5919Z" fill="#FFBF9D"/>
<path d="M74.3551 67.1445C74.3848 67.1445 74.4631 67.2768 74.5252 67.4631C74.5873 67.6494 74.617 67.8114 74.5846 67.8222C74.5522 67.833 74.4766 67.6872 74.4145 67.5009C74.3524 67.3146 74.3227 67.1553 74.3551 67.1445Z" fill="#FF9A6C"/>
<path d="M75.2027 67.1035C75.2847 67.2594 75.342 67.4269 75.3728 67.6003C75.4404 67.7631 75.4832 67.9351 75.4997 68.1106C75.3766 67.9779 75.2933 67.8132 75.2594 67.6354C75.19 67.4672 75.1703 67.2826 75.2027 67.1035Z" fill="#FF9A6C"/>
<path d="M76.1694 67.1895C76.2045 67.1895 76.2288 67.3947 76.2774 67.6404C76.326 67.8861 76.3719 68.0859 76.3395 68.0994C76.3071 68.1129 76.2072 67.9212 76.1586 67.662C76.11 67.4028 76.1397 67.1895 76.1694 67.1895Z" fill="#FF9A6C"/>
<path d="M77.5893 65.7559C77.6425 66.0924 77.6579 66.4338 77.6352 66.7738C77.6498 67.1129 77.6253 67.4527 77.5623 67.7863C77.4921 67.1107 77.5011 66.4293 77.5893 65.7559Z" fill="#FF9A6C"/>
<path d="M74.3068 66.6061C74.3068 66.6061 74.3068 66.6547 74.2366 66.6898C74.159 66.7345 74.0676 66.749 73.9801 66.7303C73.8915 66.7123 73.8127 66.6623 73.7587 66.5899C73.7182 66.5359 73.7155 66.49 73.729 66.4846C73.7425 66.4792 73.8478 66.5845 73.999 66.6142C74.1502 66.6439 74.2879 66.5791 74.3068 66.6061Z" fill="#FF9A6C"/>
<path d="M75.2944 66.7686C75.2944 66.7686 75.2755 66.8172 75.2107 66.8496C75.1252 66.8845 75.0314 66.8939 74.9407 66.8766C74.8469 66.8594 74.761 66.8131 74.695 66.7443C74.6464 66.6876 74.6356 66.6444 74.6464 66.6336C74.6572 66.6228 74.7841 66.7281 74.9623 66.7605C75.1405 66.7929 75.2782 66.7389 75.2944 66.7686Z" fill="#FF9A6C"/>
<path d="M77.1875 66.5703C77.1875 66.5541 77.2631 66.6405 77.1875 66.7566C77.0841 66.8713 76.9394 66.9402 76.7852 66.9483C76.6363 66.962 76.4869 66.928 76.3586 66.8511C76.2641 66.789 76.2263 66.7269 76.2371 66.7161C76.4079 66.7892 76.5914 66.8277 76.7771 66.8295C76.9032 66.8223 77.0243 66.7782 77.1254 66.7026C77.1875 66.6405 77.1713 66.5757 77.1875 66.5703Z" fill="#FF9A6C"/>
<path d="M87.3747 41.4048C86.0895 42.7548 78.1083 50.5848 78.1083 50.5848C78.1083 50.5848 77.6466 63.2478 77.4144 63.3018C77.1822 63.3558 72.5949 62.9805 72.5949 62.9805C72.5949 62.9805 71.9523 49.5561 72.4869 48.0252C73.0215 46.4943 79.8471 37.5438 79.9956 37.3575C80.1441 37.1712 80.9271 35.8023 83.538 35.13C86.5971 34.347 87.8823 35.8131 88.398 37.317C88.8408 38.613 87.9957 40.6272 87.588 41.1672C87.5219 41.2508 87.4507 41.3301 87.3747 41.4048Z" fill="#263238"/>
<path d="M87.375 41.4054C87.375 41.4054 87.4128 41.3514 87.4938 41.2569C87.6115 41.1149 87.7113 40.9589 87.7908 40.7925C88.1121 40.1585 88.3317 39.4779 88.4415 38.7756C88.5325 38.273 88.4991 37.7558 88.3443 37.269C88.1508 36.6918 87.82 36.1701 87.3804 35.7489C87.1295 35.5235 86.843 35.341 86.5326 35.2089C86.2001 35.0763 85.8498 34.9935 85.4931 34.9632C84.7104 34.9284 83.9277 35.0336 83.1819 35.2737C82.3519 35.5116 81.5761 35.9087 80.8977 36.4428C80.5457 36.7358 80.2375 37.0776 79.9824 37.458L79.1103 38.6109C77.9412 40.1688 76.6992 41.8509 75.4221 43.6194C74.7876 44.5104 74.1369 45.4284 73.5105 46.3842C73.1859 46.8596 72.891 47.3546 72.6276 47.8665C72.6006 47.934 72.5655 47.9961 72.5412 48.0636L72.5007 48.2715C72.4676 48.4125 72.4468 48.5562 72.4386 48.7008L72.4008 49.1409L72.3792 49.5837C72.2955 51.9624 72.363 54.4437 72.4305 56.9601C72.4926 59.0121 72.5709 61.0236 72.66 62.973L72.5952 62.9082L75.0603 63.1026L76.2699 63.1863L76.8666 63.2214L77.1636 63.2349H77.3715C77.4335 62.853 77.4758 62.4682 77.4984 62.082C77.5227 61.6932 77.5497 61.3098 77.574 60.9264C77.6172 60.1632 77.6586 59.4126 77.6982 58.6746C77.8467 55.7262 77.9682 53.0046 78.0519 50.5746V50.553V50.5368L84.8397 43.8516L86.7 42.0318L87.186 41.5593C87.2967 41.454 87.3561 41.4027 87.3561 41.4027C87.3561 41.4027 87.3048 41.4621 87.1968 41.5701L86.7216 42.0534L84.8829 43.8948L78.1329 50.6151L78.1491 50.5773C78.0627 53.0073 77.9574 55.7262 77.8143 58.6773C77.7765 59.4135 77.7369 60.1641 77.6955 60.9291C77.6685 61.3125 77.6442 61.6986 77.6199 62.0874C77.5987 62.4838 77.5545 62.8787 77.4876 63.27C77.4812 63.2914 77.4712 63.3115 77.4579 63.3294C77.446 63.3451 77.4287 63.3557 77.4093 63.3591H77.3877H77.3013H77.1501L76.8504 63.3456L76.251 63.3105L75.0414 63.2268L72.5763 63.0351H72.5142V62.973C72.4251 61.0209 72.3468 59.0094 72.2847 56.9547C72.2172 54.4275 72.1497 51.9597 72.2361 49.5702L72.2577 49.1247L72.2982 48.6792C72.307 48.5293 72.3277 48.3803 72.3603 48.2337L72.4089 48.0123C72.4347 47.9414 72.4644 47.872 72.498 47.8044C72.7638 47.2856 73.0623 46.7842 73.3917 46.3032C74.0235 45.342 74.6742 44.4267 75.3114 43.5357C76.5912 41.7564 77.8386 40.0878 79.0131 38.5326L79.8825 37.3878C80.0229 37.2069 80.1525 37.0071 80.3172 36.8478C80.4718 36.6756 80.6397 36.5158 80.8194 36.3699C82.1598 35.3534 83.8091 34.8291 85.4904 34.8849C85.8566 34.9205 86.2153 35.0116 86.5542 35.1549C86.8728 35.2893 87.166 35.4774 87.4209 35.7111C87.8676 36.1413 88.2022 36.6743 88.3956 37.2636C88.5517 37.7614 88.5823 38.2901 88.4847 38.8026C88.3686 39.509 88.1388 40.192 87.8043 40.8249C87.721 40.9906 87.6166 41.1449 87.4938 41.2839C87.4209 41.3595 87.375 41.4054 87.375 41.4054Z" fill="#455A64"/>
<path d="M91.9028 47.1981C91.877 47.1508 91.8588 47.0998 91.8488 47.0469C91.8137 46.9335 91.7705 46.7769 91.7165 46.6068C91.6004 46.2072 91.4465 45.651 91.2494 44.9706C90.8606 43.5639 90.3287 41.6334 89.732 39.468V39.4383L89.7482 39.4113C89.8967 39.1791 90.056 38.9307 90.218 38.6823L90.3395 38.4906L90.3935 38.5986L89.4998 38.5149H89.4539L89.4377 38.469C89.2783 37.965 89.0936 37.4694 88.8842 36.984C88.6992 36.5334 88.4656 36.1043 88.1876 35.7042C87.908 35.3734 87.5646 35.1025 87.1778 34.9077C86.8214 34.7052 86.4785 34.5351 86.1653 34.3866C85.5335 34.0896 85.0178 33.8736 84.6614 33.7251L84.2537 33.555C84.2046 33.5389 84.1575 33.5171 84.1133 33.4902C84.1645 33.4966 84.2145 33.5102 84.2618 33.5307C84.359 33.5631 84.4994 33.6117 84.6803 33.6792C85.0421 33.8115 85.5659 34.014 86.2031 34.3002C86.5217 34.446 86.8673 34.6107 87.2318 34.8105C87.6348 35.0064 87.9939 35.282 88.2875 35.6205C88.5755 36.0247 88.8165 36.4604 89.0057 36.9192C89.22 37.4088 89.4093 37.9089 89.5727 38.4177L89.5106 38.3691L90.407 38.4501H90.5204L90.4583 38.5473L90.3368 38.739L89.8643 39.468V39.4113C90.4448 41.5848 90.9605 43.5153 91.3358 44.9274C91.514 45.6132 91.6571 46.1721 91.7624 46.5744C91.8056 46.758 91.8434 46.9065 91.8704 47.0226C91.8894 47.0793 91.9003 47.1384 91.9028 47.1981Z" fill="#455A64"/>
<path d="M90.9712 39.1319C89.4052 40.0553 88.1335 40.0499 85.5199 39.8285C83.7082 39.6746 82.1207 39.1562 80.3036 39.0995C77.6846 39.0212 75.7135 39.8204 73.3375 40.9004L71.5771 42.9794L74.8792 43.9784C77.1111 42.8315 79.6028 42.2844 82.1098 42.3908C86.1598 42.6122 89.9615 41.5079 91.3061 40.4792L91.7677 39.1994L91.5923 38.5298L91.0361 38.4785L90.9712 39.1319Z" fill="#00AAD3"/>
<path d="M90.971 39.131C90.971 39.131 90.971 39.0743 90.971 38.9636C90.971 38.8529 90.9926 38.6936 91.0115 38.4857V38.4668H91.0277L91.5839 38.5127H91.6001V38.5289C91.6514 38.7233 91.7135 38.9474 91.781 39.1958C91.6514 39.5711 91.4975 40.0058 91.3301 40.481C90.9348 40.7688 90.5048 41.0056 90.0503 41.1857C89.5303 41.4061 88.9963 41.5919 88.4519 41.7419C86.43 42.2913 84.335 42.5235 82.2419 42.4304C81.441 42.3901 80.6383 42.4154 79.8416 42.506C79.001 42.6049 78.1707 42.7774 77.3603 43.0217C76.5126 43.2675 75.6914 43.5967 74.9087 44.0045H74.8817H74.8547L72.9269 43.4699L71.5499 43.046L71.4473 43.0163L71.5148 42.9353L73.2752 40.8536H73.2887C74.4228 40.3153 75.5962 39.864 76.7987 39.5036C77.9106 39.1825 79.0653 39.034 80.2223 39.0635C81.254 39.115 82.2798 39.2505 83.2895 39.4685C84.1586 39.6463 85.0377 39.7717 85.922 39.8438C86.6442 39.9141 87.3698 39.9447 88.0955 39.9356C88.6382 39.9278 89.1776 39.8479 89.6993 39.698C90.0255 39.5996 90.3426 39.4731 90.647 39.32L90.8792 39.1985L90.9629 39.158C90.9629 39.158 90.9413 39.1769 90.89 39.2066C90.8387 39.2363 90.7604 39.2849 90.6578 39.3416C90.3566 39.5068 90.0401 39.6425 89.7128 39.7466C89.1874 39.9093 88.6425 40.0001 88.0928 40.0166C87.3648 40.0328 86.6365 40.0084 85.9112 39.9437C85.0235 39.8788 84.1407 39.7589 83.2679 39.5846C82.2628 39.3744 81.2426 39.2444 80.2169 39.1958C79.0721 39.1697 77.9301 39.32 76.8311 39.6413C75.6399 40.0042 74.4775 40.4554 73.3535 40.9913L73.3778 40.9724L71.6201 43.0541L71.5877 42.9407L72.9566 43.3565L74.8898 43.9397H74.8358C75.6303 43.52 76.4653 43.1817 77.3279 42.9299C78.1456 42.6856 78.9831 42.513 79.8308 42.4142C80.6375 42.325 81.4502 42.3015 82.2608 42.344C84.3398 42.4422 86.4215 42.22 88.433 41.6852C88.9739 41.5387 89.505 41.3584 90.0233 41.1452C90.472 40.969 90.898 40.7396 91.2923 40.4621V40.4783L91.7621 39.1985V39.2147L91.5947 38.5451L91.6136 38.564L91.0574 38.5046H91.0763L91.0196 38.9879C90.9899 39.0797 90.971 39.131 90.971 39.131Z" fill="#263238"/>
<path d="M84.7802 55.9828C84.7802 56.0179 83.5733 55.6237 82.1153 55.1026C81.2263 54.8105 80.353 54.4725 79.499 54.0901C79.5125 54.055 80.7059 54.4492 82.1639 54.9703C83.0529 55.2623 83.9262 55.6003 84.7802 55.9828Z" fill="#455A64"/>
</svg>
