<svg width="100" height="100" viewBox="0 0 100 100" fill="none" xmlns="http://www.w3.org/2000/svg">
<g clip-path="url(#clip0_1602_9538)">
<path d="M65.7235 27.7779H41.668V22.2223H63.2791C62.4939 19.4269 62.3083 16.497 62.7344 13.6248C63.1604 10.7526 64.1885 8.00285 65.7513 5.55566H22.2235C20.7501 5.55566 19.337 6.14098 18.2952 7.18285C17.2533 8.22472 16.668 9.63779 16.668 11.1112V88.889C16.668 90.3624 17.2533 91.7755 18.2952 92.8174C19.337 93.8592 20.7501 94.4446 22.2235 94.4446H77.7791C79.2525 94.4446 80.6656 93.8592 81.7075 92.8174C82.7493 91.7755 83.3346 90.3624 83.3346 88.889V37.5001C79.8166 37.5007 76.3559 36.6092 73.276 34.9089C70.1961 33.2087 67.5976 30.7552 65.7235 27.7779ZM36.1124 72.2223H30.5569V66.6668H36.1124V72.2223ZM36.1124 61.1112H30.5569V55.5557H36.1124V61.1112ZM36.1124 50.0001H30.5569V44.4446H36.1124V50.0001ZM36.1124 38.889H30.5569V33.3334H36.1124V38.889ZM36.1124 27.7779H30.5569V22.2223H36.1124V27.7779ZM69.4457 72.2223H41.668V66.6668H69.4457V72.2223ZM69.4457 61.1112H41.668V55.5557H69.4457V61.1112ZM69.4457 50.0001H41.668V44.4446H69.4457V50.0001ZM69.4457 38.889H41.668V33.3334H69.4457V38.889Z" fill="#00AAD3"/>
<path d="M83.3342 30.5551C91.0048 30.5551 97.2231 24.3369 97.2231 16.6662C97.2231 8.99561 91.0048 2.77734 83.3342 2.77734C75.6636 2.77734 69.4453 8.99561 69.4453 16.6662C69.4453 24.3369 75.6636 30.5551 83.3342 30.5551Z" fill="#00AAD3"/>
</g>
<defs>
<clipPath id="clip0_1602_9538">
<rect width="100" height="100" fill="white"/>
</clipPath>
</defs>
</svg>
