<svg width="124" height="100" viewBox="0 0 124 100" fill="none" xmlns="http://www.w3.org/2000/svg">
<path d="M21.7 18.75C21.7 15.293 24.4706 12.5 27.9 12.5H31C34.4294 12.5 37.2 15.293 37.2 18.75V81.25C37.2 84.707 34.4294 87.5 31 87.5H27.9C24.4706 87.5 21.7 84.707 21.7 81.25V75H12.4C8.97062 75 6.2 72.207 6.2 68.75V56.25C2.77062 56.25 0 53.457 0 50C0 46.543 2.77062 43.75 6.2 43.75V31.25C6.2 27.793 8.97062 25 12.4 25H21.7V18.75ZM102.3 18.75V25H111.6C115.029 25 117.8 27.793 117.8 31.25V43.75C121.229 43.75 124 46.543 124 50C124 53.457 121.229 56.25 117.8 56.25V68.75C117.8 72.207 115.029 75 111.6 75H102.3V81.25C102.3 84.707 99.5294 87.5 96.1 87.5H93C89.5706 87.5 86.8 84.707 86.8 81.25V18.75C86.8 15.293 89.5706 12.5 93 12.5H96.1C99.5294 12.5 102.3 15.293 102.3 18.75ZM80.6 43.75V56.25H43.4V43.75H80.6Z" fill="#00AAD3"/>
</svg>
