<svg width="100" height="100" viewBox="0 0 100 100" fill="none" xmlns="http://www.w3.org/2000/svg">
<path d="M50 6.25C25.8398 6.25 6.25 25.8398 6.25 50C6.25 74.1602 25.8398 93.75 50 93.75C74.1602 93.75 93.75 74.1602 93.75 50C93.75 25.8398 74.1602 6.25 50 6.25ZM52.1777 71.2109L52.1973 74.3066C52.1973 74.7363 51.8457 75.0977 51.416 75.0977H48.6426C48.2129 75.0977 47.8613 74.7461 47.8613 74.3164V71.25C39.1895 70.6055 35.1074 65.6641 34.668 60.293C34.6289 59.834 34.9902 59.4434 35.4492 59.4434H39.9609C40.3418 59.4434 40.6738 59.7168 40.7324 60.0879C41.2305 63.1836 43.6426 65.498 47.9688 66.0742V52.1387L45.5566 51.5234C40.4492 50.3027 35.5859 47.1191 35.5859 40.5176C35.5859 33.3984 40.9961 29.5703 47.9102 28.8965V25.6738C47.9102 25.2441 48.2617 24.8926 48.6914 24.8926H51.4355C51.8652 24.8926 52.2168 25.2441 52.2168 25.6738V28.8672C58.9062 29.541 63.9258 33.4473 64.5117 39.5312C64.5605 39.9902 64.1992 40.3906 63.7305 40.3906H59.3457C58.9551 40.3906 58.623 40.0977 58.5742 39.7168C58.1836 36.8652 55.8984 34.541 52.1777 34.0332V47.1484L54.6582 47.7246C60.9863 49.2871 65.293 52.3144 65.293 59.0918C65.293 66.4453 59.8242 70.5469 52.1777 71.2109ZM41.6602 40.0684C41.6602 42.5488 43.1934 44.4727 46.4941 45.6641C46.9531 45.8496 47.4121 45.9961 47.959 46.1523V34.043C44.3555 34.502 41.6602 36.5234 41.6602 40.0684ZM53.0371 53.2715C52.7637 53.2129 52.4902 53.1445 52.1777 53.0566V66.1133C56.3379 65.7422 59.209 63.457 59.209 59.6289C59.209 56.6309 57.6562 54.6777 53.0371 53.2715Z" fill="#00AAD3"/>
</svg>
