<svg width="124" height="100" viewBox="0 0 124 100" fill="none" xmlns="http://www.w3.org/2000/svg">
<path d="M35.65 17.1875C35.65 23.2227 30.7869 28.125 24.8 28.125C18.8131 28.125 13.95 23.2227 13.95 17.1875C13.95 11.1523 18.8131 6.25 24.8 6.25C30.7869 6.25 35.65 11.1523 35.65 17.1875ZM12.4 47.9883C10.4625 50.1758 9.3 53.0859 9.3 56.25C9.3 59.4141 10.4625 62.3242 12.4 64.5117V47.9883ZM40.3775 38.3594C34.6231 43.4961 31 51.0156 31 59.375C31 66.0742 33.325 72.2266 37.2 77.0508V81.25C37.2 84.707 34.4294 87.5 31 87.5H18.6C15.1706 87.5 12.4 84.707 12.4 81.25V76.0156C5.07625 72.5 0 64.9805 0 56.25C0 44.1602 9.70687 34.375 21.7 34.375H27.9C32.55 34.375 36.8512 35.8398 40.3775 38.3398V38.3594ZM86.8 81.25V77.0508C90.675 72.2266 93 66.0742 93 59.375C93 51.0156 89.3769 43.4961 83.6225 38.3398C87.1488 35.8398 91.45 34.375 96.1 34.375H102.3C114.293 34.375 124 44.1602 124 56.25C124 64.9805 118.924 72.5 111.6 76.0156V81.25C111.6 84.707 108.829 87.5 105.4 87.5H93C89.5706 87.5 86.8 84.707 86.8 81.25ZM110.05 17.1875C110.05 23.2227 105.187 28.125 99.2 28.125C93.2131 28.125 88.35 23.2227 88.35 17.1875C88.35 11.1523 93.2131 6.25 99.2 6.25C105.187 6.25 110.05 11.1523 110.05 17.1875ZM111.6 47.9883V64.5312C113.537 62.3242 114.7 59.4336 114.7 56.2695C114.7 53.1055 113.537 50.1953 111.6 48.0078V47.9883ZM62 31.25C55.1606 31.25 49.6 25.6445 49.6 18.75C49.6 11.8555 55.1606 6.25 62 6.25C68.8394 6.25 74.4 11.8555 74.4 18.75C74.4 25.6445 68.8394 31.25 62 31.25ZM46.5 59.375C46.5 62.5391 47.6625 65.4297 49.6 67.6367V51.1133C47.6625 53.3203 46.5 56.2109 46.5 59.375ZM74.4 51.1133V67.6562C76.3375 65.4492 77.5 62.5586 77.5 59.3945C77.5 56.2305 76.3375 53.3203 74.4 51.1328V51.1133ZM86.8 59.375C86.8 68.1055 81.7237 75.625 74.4 79.1406V87.5C74.4 90.957 71.6294 93.75 68.2 93.75H55.8C52.3706 93.75 49.6 90.957 49.6 87.5V79.1406C42.2762 75.625 37.2 68.1055 37.2 59.375C37.2 47.2852 46.9069 37.5 58.9 37.5H65.1C77.0931 37.5 86.8 47.2852 86.8 59.375Z" fill="#00AAD3"/>
</svg>
