<svg width="100" height="100" viewBox="0 0 100 100" fill="none" xmlns="http://www.w3.org/2000/svg">
<path d="M45.3118 42.4131C46.6868 43.1318 48.2805 43.5381 49.9993 43.5381C51.718 43.5381 53.3118 43.1318 54.6868 42.4131C55.1243 42.1631 55.6243 42.6943 55.343 43.1318C54.218 44.8818 52.2493 46.0381 49.9993 46.0381C47.7493 46.0381 45.7805 44.8818 44.6555 43.1318C44.3743 42.6943 44.843 42.1631 45.3118 42.4131ZM38.1555 32.8193C38.6243 30.9131 40.3743 29.4756 42.4368 29.4756C44.593 29.4756 46.3743 31.0068 46.7805 33.0381C46.8743 33.4756 46.5305 33.8818 46.0618 33.8818H45.818C45.8753 33.6465 45.9047 33.4053 45.9055 33.1631C45.9055 31.5693 44.6555 30.3193 43.093 30.3193C42.6585 30.3204 42.2301 30.4208 41.8402 30.6127C41.4504 30.8045 41.1096 31.0829 40.8437 31.4266C40.5778 31.7702 40.394 32.17 40.3061 32.5955C40.2183 33.021 40.2287 33.461 40.3368 33.8818H38.9993C38.4368 33.8818 38.0305 33.3818 38.1555 32.8193Z" fill="#00AAD3"/>
<path d="M44.6876 33.1318C44.6876 32.2256 43.9688 31.5068 43.0625 31.5068C42.8428 31.5053 42.625 31.5478 42.4219 31.6318C42.4822 31.6766 42.5316 31.7344 42.5664 31.8009C42.6013 31.8674 42.6208 31.9408 42.6233 32.0159C42.6259 32.0909 42.6116 32.1655 42.5814 32.2343C42.5512 32.303 42.5059 32.364 42.4489 32.4129C42.3919 32.4617 42.3246 32.4971 42.2521 32.5163C42.1795 32.5356 42.1036 32.5383 42.0298 32.5242C41.9561 32.5101 41.8865 32.4796 41.8261 32.435C41.7658 32.3903 41.7163 32.3326 41.6813 32.2662C41.5321 32.5073 41.4484 32.7832 41.4385 33.0665C41.4286 33.3499 41.4929 33.631 41.625 33.8818H44.5C44.625 33.6631 44.6876 33.4131 44.6876 33.1318ZM61.875 32.8193C61.4063 30.9131 59.6563 29.4756 57.5938 29.4756C55.4376 29.4756 53.6563 31.0068 53.2501 33.0381C53.1563 33.4756 53.5001 33.8818 53.9688 33.8818H54.2125C54.1551 33.6465 54.1258 33.4053 54.125 33.1631C54.0938 31.5693 55.375 30.3193 56.9375 30.3193C57.3723 30.32 57.8011 30.4199 58.1914 30.6116C58.5816 30.8033 58.9228 31.0816 59.189 31.4253C59.4552 31.769 59.6394 32.169 59.7274 32.5948C59.8154 33.0205 59.805 33.4607 59.6969 33.8818H61.0313C61.5938 33.8818 62 33.3818 61.875 32.8193Z" fill="#00AAD3"/>
<path d="M56.3345 31.6197C56.643 31.4903 56.9841 31.46 57.3105 31.5331C57.637 31.6062 57.9326 31.779 58.1565 32.0276C58.3803 32.2762 58.5213 32.5882 58.5599 32.9205C58.5986 33.2528 58.5329 33.5889 58.372 33.8822H55.5001C55.3625 33.6212 55.2985 33.3278 55.315 33.0332C55.3316 32.7387 55.4279 32.4542 55.5939 32.2103C55.6217 32.284 55.6667 32.3501 55.7249 32.4032C55.7832 32.4562 55.8532 32.4947 55.9292 32.5156C56.0053 32.5364 56.0851 32.539 56.1623 32.5231C56.2395 32.5072 56.3119 32.4733 56.3735 32.4242C56.4351 32.375 56.4842 32.3119 56.5168 32.2402C56.5494 32.1684 56.5645 32.09 56.561 32.0112C56.5575 31.9325 56.5355 31.8557 56.4966 31.7871C56.4578 31.7185 56.4033 31.6601 56.3376 31.6165L56.3345 31.6197Z" fill="#00AAD3"/>
<path fill-rule="evenodd" clip-rule="evenodd" d="M81.2188 96.8755H15.625C14.7962 96.8755 14.0013 96.5462 13.4153 95.9602C12.8292 95.3741 12.5 94.5793 12.5 93.7505V82.813C12.5031 81.2317 12.6063 79.6567 12.8063 78.0942H8.1875C7.125 78.0942 6.25 77.2192 6.25 76.1567V14.438C6.25 13.3755 7.125 12.5005 8.1875 12.5005H29.7156C30.3687 11.8786 31.1125 11.3505 31.925 10.938L33.3125 10.263C33.9688 9.90983 34.575 9.46296 35.1094 8.94108L38.2594 5.79733C39.5826 4.47038 41.283 3.58397 43.1286 3.25904C44.9741 2.9341 46.875 3.18647 48.5719 3.98171C49.5625 4.28796 50.625 4.27233 51.6031 3.93483C53.4433 3.28551 55.43 3.17163 57.3323 3.60642C59.2347 4.04121 60.9746 5.00682 62.35 6.39108L64.9781 9.01608C65.4906 9.52233 66.0812 9.94421 66.725 10.2661L68.0438 10.9098L68.0812 10.9286C68.9 11.3442 69.65 11.8755 70.3062 12.5005H91.75C92.8438 12.5005 93.6875 13.3755 93.6875 14.438V76.1255C93.6959 76.381 93.6528 76.6356 93.5607 76.8742C93.4687 77.1127 93.3296 77.3303 93.1518 77.514C92.9739 77.6977 92.7609 77.8437 92.5255 77.9434C92.29 78.043 92.0369 78.0943 91.7812 78.0942H87.2063C87.3969 79.6567 87.4906 81.2317 87.4844 82.813V90.6255C87.4844 91.4475 87.3222 92.2615 87.0071 93.0208C86.6921 93.7801 86.2303 94.4698 85.6483 95.0504C85.0663 95.631 84.3754 96.091 83.6153 96.4042C82.8552 96.7174 82.0408 96.8775 81.2188 96.8755ZM17.6 63.9692C16.1552 66.4541 14.9997 69.0963 14.1563 71.8442H12.5V18.7505H26.7969C26.7531 19.4911 26.7969 20.238 26.925 20.9755L28.3 28.5973C27.5848 29.4974 27.0636 30.5357 26.7694 31.6471C26.4751 32.7584 26.4141 33.9186 26.5903 35.0546C26.7664 36.1907 27.1758 37.278 27.7928 38.248C28.4097 39.2181 29.2208 40.0499 30.175 40.6911L30.6094 46.5817C30.7344 47.8223 31.0156 49.0442 31.4562 50.213C25.7078 53.4997 20.9282 58.2447 17.6 63.9692ZM73.0344 21.0161C73.1781 20.2661 73.2281 19.5036 73.1875 18.7505H87.4688V71.8442H85.8844C83.2041 63.0016 77.3335 55.4704 69.4125 50.713C69.9708 49.3689 70.3257 47.9491 70.4656 46.5005L70.9625 39.788C72.4399 38.3668 73.3408 36.4504 73.4924 34.4061C73.6441 32.3618 73.0359 30.3334 71.7844 28.7098L73.0344 21.0161ZM72.4062 90.6255H81.2188V82.813C81.2429 76.9592 79.613 71.2176 76.517 66.2495C73.4209 61.2814 68.9845 57.2889 63.7188 54.7317C63.061 54.4084 62.5378 53.8642 62.2406 53.1942C61.9751 53.3976 61.7009 53.5895 61.4187 53.7692L64.875 59.7786C65.1562 60.2661 64.7188 60.8286 64.0625 60.8286H60.7813C60.0313 60.8286 59.6875 61.5723 60.1875 61.9848L60.825 62.4973H66.1406C66.4785 62.4911 66.8142 62.5518 67.1284 62.6758C67.4427 62.7999 67.7294 62.9849 67.9719 63.2201C68.2144 63.4554 68.408 63.7363 68.5416 64.0466C68.6751 64.357 68.7459 64.6907 68.75 65.0286V70.738C70.8375 71.2067 72.4062 73.0817 72.4062 75.3098V90.6255ZM54.2188 55.5942C53.7924 56.339 53.1768 56.958 52.4343 57.3885C51.6919 57.819 50.8489 58.0457 49.9906 58.0457C49.1324 58.0457 48.2894 57.819 47.5469 57.3885C46.8044 56.958 46.1889 56.339 45.7625 55.5942H54.2188ZM38.6969 53.8411C38.5101 53.7245 38.3267 53.6025 38.1469 53.4755C37.8376 53.8764 37.4354 54.196 36.975 54.4067C31.5421 56.9109 26.9393 60.9173 23.7099 65.953C20.4805 70.9887 18.7595 76.8432 18.75 82.8255V90.6255H27.5625V75.313C27.5625 73.938 28.2313 72.7567 29.0719 71.9598C29.8844 71.1911 31.0188 70.6223 32.2188 70.6255V68.3755C32.2188 65.1255 34.925 62.4692 38.3063 62.5005H39.3281L39.9688 61.988C40.4688 61.5755 40.125 60.8317 39.375 60.8317H36.0938C35.4375 60.8317 35 60.2692 35.2812 59.7817L38.6969 53.8442V53.8411ZM36.2906 38.7005L36.8344 46.0442C36.8937 46.6192 37.0125 47.1817 37.1938 47.7255C37.9071 49.1585 39.0078 50.3629 40.3711 51.202C41.7343 52.041 43.3055 52.4811 44.9062 52.4723H55.0937C59.575 52.4723 63.2906 49.1442 63.7563 44.4036L64.1937 38.1786C63.6409 38.9382 62.916 39.5563 62.0785 39.9821C61.241 40.4079 60.3146 40.6294 59.375 40.6286H57.125C56.3392 40.6292 55.5611 40.4744 54.8354 40.1729C54.1098 39.8715 53.451 39.4295 52.8969 38.8723C52.8115 39.2458 52.6023 39.5793 52.3033 39.8188C52.0043 40.0582 51.6331 40.1894 51.25 40.1911H48.8125C48.4149 40.1955 48.0285 40.0593 47.7215 39.8066C47.4144 39.5539 47.2065 39.2009 47.1344 38.8098C46.05 39.913 44.5406 40.5973 42.875 40.5973H40.6562C39.8377 40.5984 39.0277 40.4305 38.2771 40.1041C37.5264 39.7777 36.8512 39.2999 36.2938 38.7005H36.2906ZM50 31.663C50.4437 31.663 50.8219 31.913 51.0187 32.2817C50.4469 31.6005 49.2781 31.6848 48.875 32.5317C48.9365 32.281 49.0813 32.0585 49.2856 31.9007C49.49 31.7429 49.7418 31.6591 50 31.663ZM64.9 28.2255H61.2188C61.4217 28.1899 61.6153 28.1133 61.7878 28.0005C61.9603 27.8877 62.1079 27.7409 62.2219 27.5692C62.8156 26.8192 62.6594 25.7255 61.9094 25.1317C61.8156 25.038 59.1906 23.038 55.3781 23.5067C54.9412 23.5872 54.5513 23.8309 54.2874 24.1883C54.0236 24.5457 53.9055 24.9901 53.9572 25.4313C54.0088 25.8725 54.2264 26.2776 54.5657 26.5644C54.905 26.8511 55.3407 26.9981 55.7844 26.9755C57.1917 26.7977 58.6163 27.1267 59.8031 27.9036L59.8156 27.913C60.0594 28.0692 60.3031 28.1755 60.5563 28.2255H54C53.0625 28.2255 52.1875 28.663 51.5938 29.3817C51.403 29.6201 51.1601 29.8116 50.8839 29.9416C50.6076 30.0716 50.3053 30.1366 50 30.1317C49.6947 30.1366 49.3924 30.0716 49.1161 29.9416C48.8399 29.8116 48.597 29.6201 48.4062 29.3817C47.8125 28.663 46.9375 28.2255 46 28.2255H39.4688C39.7227 28.1735 39.9658 28.0784 40.1875 27.9442C40.25 27.8817 41.8438 26.7255 44.2188 27.0067C45.1875 27.1005 46.0312 26.413 46.1562 25.4755C46.2025 25.0169 46.0686 24.5583 45.7828 24.1968C45.497 23.8352 45.0818 23.5989 44.625 23.538C40.8438 23.1005 38.1875 25.0692 38.0937 25.163C37.8311 25.367 37.6329 25.6424 37.523 25.9563C37.413 26.2701 37.3959 26.609 37.4738 26.9323C37.5516 27.2556 37.7211 27.5496 37.9619 27.779C38.2027 28.0083 38.5045 28.1634 38.8312 28.2255H35.125L35.0594 27.2411C35.049 27.0223 35.0873 26.804 35.1716 26.6019C35.2559 26.3997 35.3841 26.2189 35.5469 26.0723L36.1344 25.5473C37.2937 24.5161 37.9062 23.0536 37.9062 21.5692V18.8192C37.9062 18.7854 37.9172 18.7525 37.9375 18.7255L37.9469 18.7161C38.4281 18.6848 39.0094 18.5942 39.5813 18.4973L40.4938 18.3411C41.05 18.2442 41.6625 18.138 42.35 18.0286C44.475 17.6848 47.1188 17.3505 50 17.3505C55.8438 17.3505 60.0594 18.2005 62 18.6786C62.0251 18.6859 62.047 18.7013 62.0625 18.7223C62.0828 18.7494 62.0938 18.7823 62.0938 18.8161V21.5661C62.0938 23.0848 62.7562 24.5255 63.8469 25.5317L63.8625 25.5411L64.4813 26.1005C64.634 26.2339 64.7569 26.3981 64.842 26.5822C64.9271 26.7664 64.9724 26.9664 64.975 27.1692L64.9 28.2255ZM69.2812 90.6255V75.3067C69.2812 74.4536 68.575 73.7442 67.7188 73.7442V77.338H67.6594C67.6432 77.7414 67.4715 78.123 67.1802 78.4026C66.8889 78.6823 66.5007 78.8383 66.0969 78.838H58.125C58.0221 78.8588 57.9174 78.8693 57.8125 78.8692C57.3219 78.8692 56.9781 79.2536 56.9688 79.6286V79.6473C56.9664 79.7818 56.9989 79.9146 57.0629 80.0328C57.127 80.1511 57.2205 80.2508 57.3344 80.3223C57.5495 80.4659 57.7256 80.6607 57.8469 80.8892C57.9682 81.1176 58.0309 81.3726 58.0293 81.6312C58.0278 81.8899 57.962 82.1441 57.838 82.3711C57.714 82.598 57.5356 82.7907 57.3187 82.9317C57.2139 82.9995 57.1272 83.0918 57.0661 83.2008C57.0051 83.3097 56.9717 83.4319 56.9688 83.5567C56.9688 83.838 57.1 84.0505 57.2906 84.1692C57.5143 84.3076 57.6994 84.5003 57.8288 84.7293C57.9582 84.9584 58.0277 85.2163 58.0308 85.4794C58.0339 85.7424 57.9706 86.002 57.8467 86.234C57.7227 86.466 57.5422 86.663 57.3219 86.8067C57.2164 86.8741 57.1291 86.9663 57.0675 87.0753C57.006 87.1842 56.972 87.3066 56.9688 87.4317C56.9688 87.713 57.1 87.9255 57.2906 88.0442C57.5073 88.1782 57.6879 88.3631 57.8167 88.5829C57.9456 88.8026 58.0187 89.0506 58.0298 89.3051C58.0409 89.5596 57.9896 89.8129 57.8804 90.043C57.7711 90.2732 57.6073 90.4731 57.4031 90.6255H69.2812ZM32.25 73.7505L32.2188 73.7473C31.8395 73.7807 31.4853 73.9506 31.2219 74.2255C31.0648 74.3613 30.9366 74.5273 30.8449 74.7135C30.7531 74.8998 30.6996 75.1025 30.6875 75.3098V90.6255H42.5656C42.3621 90.473 42.1989 90.2732 42.09 90.0434C41.9812 89.8136 41.9302 89.5607 41.9412 89.3067C41.9523 89.0527 42.0252 88.8052 42.1537 88.5857C42.2821 88.3663 42.4621 88.1814 42.6781 88.0473C42.7802 87.9826 42.8636 87.8923 42.9201 87.7854C42.9765 87.6786 43.0041 87.5588 43 87.438C42.997 87.3131 42.9636 87.1909 42.9026 87.082C42.8416 86.9731 42.7549 86.8807 42.65 86.813C42.4288 86.6697 42.2474 86.4728 42.1228 86.2406C41.9981 86.0084 41.9343 85.7484 41.9371 85.4849C41.9399 85.2214 42.0093 84.9628 42.1389 84.7333C42.2684 84.5039 42.4539 84.3109 42.6781 84.1723C42.7802 84.1076 42.8636 84.0173 42.9201 83.9104C42.9765 83.8036 43.0041 83.6838 43 83.563C42.997 83.4381 42.9636 83.3159 42.9026 83.207C42.8416 83.0981 42.7549 83.0057 42.65 82.938C42.4325 82.7971 42.2535 82.6043 42.129 82.377C42.0046 82.1497 41.9386 81.8951 41.9371 81.6359C41.9355 81.3768 41.9984 81.1214 42.1202 80.8926C42.2419 80.6638 42.4186 80.4689 42.6344 80.3255C42.7483 80.2539 42.8418 80.1542 42.9058 80.036C42.9699 79.9177 43.0023 79.7849 43 79.6505V79.6317C42.9906 79.2567 42.6469 78.8755 42.1562 78.8755C42.0513 78.8756 41.9466 78.8651 41.8438 78.8442H33.8313C33.4275 78.8445 33.0392 78.6885 32.7479 78.4089C32.4566 78.1292 32.2849 77.7477 32.2688 77.3442H32.25V73.7505ZM56.5938 62.5005H43.5625V57.938C44.32 58.9656 45.3128 59.7966 46.4578 60.3614C47.6027 60.9261 48.8664 61.208 50.1428 61.1836C51.4192 61.1591 52.6711 60.8289 53.7936 60.2206C54.916 59.6124 55.8763 58.7439 56.5938 57.688V62.5005ZM65.5469 65.188H37.8125C37.0914 65.188 36.3999 65.4744 35.8901 65.9843C35.3802 66.4941 35.0937 67.1856 35.0937 67.9067C35.0937 68.6278 35.3802 69.3193 35.8901 69.8292C36.3999 70.339 37.0914 70.6255 37.8125 70.6255H65.5469V65.188ZM42.6562 39.5067C45.5 39.5067 47.8125 37.1942 47.8125 34.3505H47.7812V32.0692C47.7812 30.538 46.5625 29.3192 45.0312 29.3192H38.5312C37 29.3192 35.7812 30.538 35.7812 32.0692V34.3505C35.7812 37.1942 38.0938 39.5067 40.9375 39.5067H42.6562ZM59.1562 39.5067C62 39.5067 64.3125 37.1942 64.3125 34.3505V32.0692C64.3125 30.538 63.0938 29.3192 61.5625 29.3192H55.0312C53.5 29.3192 52.2812 30.538 52.2812 32.0692V34.3505C52.2812 37.1942 54.5937 39.5067 57.4375 39.5067H59.1562Z" fill="#00AAD3"/>
</svg>
