<svg width="100" height="100" viewBox="0 0 100 100" fill="none" xmlns="http://www.w3.org/2000/svg">
<path d="M49.9219 24.3125L48.9437 24.6094L9.88125 37.6969L1 40.625L6.17188 42.2812V69.625C4.30625 70.7094 3.04688 72.6875 3.04688 75C3.04688 76.6576 3.70536 78.2473 4.87746 79.4194C6.04956 80.5915 7.63927 81.25 9.29688 81.25C10.9545 81.25 12.5442 80.5915 13.7163 79.4194C14.8884 78.2473 15.5469 76.6576 15.5469 75C15.5469 72.6875 14.2875 70.7094 12.4219 69.625V44.4375L18.6719 46.4844V62.5C18.6719 65.0625 20.2344 67.1875 22.0906 68.6562C23.9469 70.1156 26.2531 71.1469 29.0219 72.0719C34.5656 73.9156 41.8719 75 49.9219 75C57.9719 75 65.2781 73.9187 70.8219 72.0687C73.5906 71.1469 75.8969 70.1156 77.7531 68.6531C79.6094 67.1875 81.1719 65.0625 81.1719 62.5V46.4844L89.9625 43.5531L98.8438 40.625L89.9594 37.6938L50.8969 24.6094L49.9219 24.3125ZM49.9219 30.8594L79.2188 40.625L49.9219 50.3906L20.625 40.625L49.9219 30.8594ZM24.9219 48.6344L48.9469 56.6406L49.9219 56.9344L50.9 56.6375L74.9219 48.6313V62.5C74.9219 62.5312 74.9344 62.8937 73.9438 63.6719C72.9563 64.4531 71.1844 65.4375 68.8656 66.2125C64.2344 67.7531 57.4062 68.75 49.9219 68.75C42.4375 68.75 35.6094 67.7562 30.975 66.2094C28.6625 65.4375 26.8875 64.45 25.9 63.6719C24.9062 62.8906 24.9219 62.5312 24.9219 62.5V48.6313V48.6344Z" fill="#00AAD3"/>
</svg>
