<svg width="100" height="100" viewBox="0 0 100 100" fill="none" xmlns="http://www.w3.org/2000/svg">
<path d="M49.5064 3.39941C24.1725 3.39941 3.60156 23.9764 3.60156 49.3104C3.60156 74.6438 24.1727 95.2205 49.5059 95.2205C74.8392 95.2205 95.4166 74.6438 95.4166 49.3104C95.4166 23.9764 74.8394 3.39941 49.5064 3.39941ZM71.851 13.4275C83.8131 20.8865 91.767 34.158 91.767 49.3104C91.767 52.6586 91.3777 55.9164 90.6439 59.0389L83.9545 55.5115L88.2514 66.2291C86.4049 70.457 83.8838 74.3213 80.8295 77.6914L72.4002 71.6492L59.7781 80.9695L47.7359 82.3303L45.0199 74.1701L35.309 79.4131L22.0096 75.7143L23.798 82.8615C18.2492 78.6051 13.7922 73.0049 10.9074 66.5406L15.8697 59.4666L22.1686 62.8111L33.735 60.8824L34.2902 52.8926L26.9965 52.557L27.9545 49.0719L33.9662 44.1279L29.0652 41.0762L42.1941 33.5385L33.3377 27.7461L20.325 35.5951L10.6693 32.6107C13.367 26.3334 17.5463 20.849 22.7604 16.5826L22.0279 25.2496L30.4998 18.5848L44.5623 22.9246L40.1678 17.5717L45.5084 14.758L50.7453 20.3182L64.6125 22.241L63.9289 15.5086L72.0281 17.9807L71.8514 13.4275H71.851ZM72.0768 36.8709L54.2975 38.9588L59.9432 47.3998L60.5596 59.9912L66.2603 62.6951L68.4943 57.1531L80.7318 66.6562L77.3014 57.4217L78.5529 47.9795L70.008 43.542L72.077 36.8711L72.0768 36.8709ZM43.1646 37.5854L36.9939 41.7236L44.117 44.6104L47.376 41.7236L43.1646 37.5852V37.5854ZM47.4982 65.8447L51.148 76.117L55.0113 67.8037L47.4982 65.8447Z" fill="#00AAD3"/>
</svg>
