<svg width="100" height="100" viewBox="0 0 100 100" fill="none" xmlns="http://www.w3.org/2000/svg">
<g clip-path="url(#clip0_1619_1503)">
<path d="M49.9997 0H49.8789C22.2664 0 -0.121094 22.3875 -0.121094 50C-0.121094 77.6125 22.2664 100 49.8789 100H49.9997C77.6122 100 99.9997 77.6125 99.9997 50C99.9997 22.3875 77.6122 0 49.9997 0ZM49.9997 96H49.8789C24.4747 96 3.87891 75.4042 3.87891 50C3.87891 24.5958 24.4747 4 49.8789 4H49.9997C75.4039 4 95.9997 24.5958 95.9997 50C95.9997 75.4042 75.4039 96 49.9997 96Z" fill="black"/>
<path d="M65.9372 29.7586C61.8122 30.8003 57.0372 31.4753 52.1289 31.6336L52.0206 31.6378V48.0086H68.2706C68.1716 41.6634 67.3483 35.3502 65.8164 29.1919L65.9372 29.7586ZM51.9956 8.29193V27.9794C56.5044 27.8472 60.9864 27.2369 65.3664 26.1586L64.9289 26.2503C61.7789 16.2919 56.8747 9.75859 51.9956 8.29193ZM34.9539 26.2253C38.8122 27.1919 43.2872 27.8253 47.8789 27.9753L47.9831 27.9794V8.24609C43.1039 9.66276 38.1247 16.2044 34.9539 26.2253ZM79.9497 20.5253C74.5085 14.9642 67.6243 11.0308 60.0706 9.16693L59.7831 9.10859C63.8 13.6959 66.7386 19.1246 68.3831 24.9961L68.4497 25.2836C72.5525 24.0518 76.5178 22.4014 80.2831 20.3586L79.9497 20.5253ZM71.9456 48.0086H91.9706C91.5648 38.9423 88.2102 30.2564 82.4164 23.2711L82.4706 23.3419C78.7622 25.4336 74.4581 27.2919 69.9497 28.6961L69.4706 28.8253C70.9414 34.5544 71.8372 41.1503 71.9414 47.9419L71.9456 48.0086ZM31.6081 48.0086H47.9997V31.6378C43.1068 31.499 38.2435 30.8284 33.4956 29.6378L33.9622 29.7378C32.474 35.6954 31.684 41.8059 31.6081 47.9461V48.0086ZM68.2706 51.9961H51.9956V68.3294C57.0122 68.4753 61.7997 69.1503 66.3997 70.3044L65.9414 70.2086C67.3247 64.7711 68.1664 58.5086 68.2706 52.0669V51.9961ZM33.9664 70.2419C38.1331 69.1794 42.9497 68.4919 47.9039 68.3461L48.0039 68.3419V52.0086H31.6081C31.7039 58.5253 32.5581 64.7961 34.0831 70.8003L33.9664 70.2419ZM48.0081 91.7336V71.9961C43.2997 72.1503 38.8206 72.7794 34.5081 73.8419L34.9539 73.7503C38.1289 83.7753 43.1039 90.3294 48.0081 91.7336ZM59.7831 90.8919C67.4486 89.0401 74.442 85.0779 79.9706 79.4544L79.9789 79.4461C76.4598 77.5408 72.7614 75.9875 68.9372 74.8086L68.4872 74.6878C66.8378 80.695 63.8491 86.2507 59.7456 90.9378L59.7831 90.8919ZM40.0706 9.15859C32.4693 11.0195 25.5376 14.963 20.0539 20.5461L20.0456 20.5544C23.2747 22.3211 27.0372 23.9211 30.9706 25.1461L31.4164 25.2669C33.065 19.2996 36.0356 13.7798 40.1081 9.11693L40.0664 9.16276L40.0706 9.15859ZM69.4706 71.1794C74.4664 72.7003 78.7831 74.5628 82.8372 76.8336L82.4997 76.6586C88.2479 69.7163 91.5796 61.0914 91.9914 52.0878L91.9956 51.9919H71.9706C71.8522 58.6679 70.9701 65.3083 69.3414 71.7836L69.4706 71.1794ZM51.9956 71.9961V91.7044C56.8747 90.2378 61.7789 83.7044 64.9289 73.7253C60.7223 72.6998 56.4194 72.1202 52.0914 71.9961H51.9956ZM30.4331 28.7961C25.8268 27.4091 21.3864 25.5215 17.1914 23.1669L17.5206 23.3378C11.7724 30.28 8.44067 38.9049 8.02891 47.9086L8.02474 48.0044H27.9497C28.0456 41.1419 28.9456 34.5336 30.5581 28.2086L30.4331 28.7961ZM27.9289 51.9961H8.00391C8.44974 61.4378 11.9622 69.9794 17.5581 76.7336L17.5039 76.6628C21.1831 74.5836 25.4622 72.7336 29.9372 71.3336L30.4122 71.2044C28.8591 64.9434 28.0273 58.5253 27.9331 52.0753L27.9289 51.9961ZM20.0247 79.4461C25.4385 84.9752 32.2771 88.8979 39.7831 90.7794L40.0706 90.8419C36.0611 86.2675 33.1243 80.8551 31.4747 75.0003L31.4039 74.7086C27.3437 75.9552 23.4163 77.5993 19.6789 79.6169L20.0247 79.4461Z" fill="black"/>
</g>
<defs>
<clipPath id="clip0_1619_1503">
<rect width="100" height="100" fill="white"/>
</clipPath>
</defs>
</svg>
