<svg width="100" height="100" viewBox="0 0 100 100" fill="none" xmlns="http://www.w3.org/2000/svg">
<path d="M54.1584 8.33301V12.4997H83.325V20.833H54.1584V79.1664H70.825V87.4997H29.1583V79.1664H45.825V20.833H16.6583V12.4997H45.825V8.33301H54.1584ZM20.825 26.4288L32.6084 38.2164C34.9391 40.5473 36.5264 43.517 37.1694 46.75C37.8124 49.983 37.4823 53.334 36.2208 56.3794C34.9594 59.4248 32.8231 62.0277 30.0823 63.8591C27.3415 65.6904 24.1192 66.6678 20.8229 66.6678C17.5266 66.6678 14.3043 65.6904 11.5635 63.8591C8.82271 62.0277 6.6865 59.4248 5.42501 56.3794C4.16353 53.334 3.83342 49.983 4.47644 46.75C5.11946 43.517 6.70672 40.5473 9.03751 38.2164L20.825 26.4288ZM79.1584 26.4288L90.9417 38.2164C93.2725 40.5473 94.8598 43.517 95.5028 46.75C96.1458 49.983 95.8157 53.334 94.5542 56.3794C93.2927 59.4248 91.1565 62.0277 88.4157 63.8591C85.6749 65.6904 82.4526 66.6678 79.1563 66.6678C75.86 66.6678 72.6377 65.6904 69.8969 63.8591C67.1561 62.0277 65.0199 59.4248 63.7584 56.3794C62.4969 53.334 62.1668 49.983 62.8098 46.75C63.4528 43.517 65.0401 40.5473 67.3709 38.2164L79.1584 26.4288ZM79.1584 38.2164L73.2667 44.108C71.7038 45.6705 70.8255 47.7897 70.825 49.9997L87.4917 50.0039C87.4917 47.7539 86.6084 45.6664 85.05 44.108L79.1584 38.2164ZM20.825 38.2164L14.9333 44.108C13.3704 45.6705 12.4921 47.7897 12.4917 49.9997L29.1583 50.0039C29.1583 47.7539 28.275 45.6664 26.7167 44.108L20.825 38.2164Z" fill="black"/>
</svg>
