<svg width="100" height="100" viewBox="0 0 100 100" fill="none" xmlns="http://www.w3.org/2000/svg">
<path d="M25.0003 54.166H8.33366C5.83366 54.166 4.16699 55.8327 4.16699 58.3327V91.666C4.16699 94.166 5.83366 95.8327 8.33366 95.8327H25.0003C27.5003 95.8327 29.167 94.166 29.167 91.666V58.3327C29.167 55.8327 27.5003 54.166 25.0003 54.166ZM91.667 37.4993H75.0003C72.5003 37.4993 70.8337 39.166 70.8337 41.666V91.666C70.8337 94.166 72.5003 95.8327 75.0003 95.8327H91.667C94.167 95.8327 95.8337 94.166 95.8337 91.666V41.666C95.8337 39.166 94.167 37.4993 91.667 37.4993ZM58.3337 4.16602H41.667C39.167 4.16602 37.5003 5.83268 37.5003 8.33268V91.666C37.5003 94.166 39.167 95.8327 41.667 95.8327H58.3337C60.8337 95.8327 62.5003 94.166 62.5003 91.666V8.33268C62.5003 5.83268 60.8337 4.16602 58.3337 4.16602Z" fill="black"/>
</svg>
