<svg width="125" height="125" viewBox="0 0 125 125" fill="none" xmlns="http://www.w3.org/2000/svg">
<path fill-rule="evenodd" clip-rule="evenodd" d="M37.7606 28.4427V35.8385L28.9377 36.5572C25.9066 36.8012 23.0449 38.0544 20.81 40.1165C18.5751 42.1786 17.0961 44.9305 16.6096 47.9322C16.3943 49.276 16.1964 50.6215 16.0158 51.9687C15.9753 52.2947 16.0386 52.6251 16.1966 52.9131C16.3546 53.2011 16.5993 53.4319 16.8961 53.5729L17.2971 53.7604C45.5731 67.1458 79.4325 67.1458 107.703 53.7604L108.104 53.5729C108.4 53.4311 108.644 53.1999 108.801 52.912C108.958 52.6241 109.02 52.2941 108.979 51.9687C108.803 50.6204 108.607 49.2748 108.391 47.9322C107.904 44.9305 106.425 42.1786 104.19 40.1165C101.956 38.0544 99.0938 36.8012 96.0627 36.5572L87.2398 35.8437V28.4479C87.2403 26.2648 86.4573 24.1541 85.0331 22.4995C83.6089 20.845 81.6382 19.7566 79.4794 19.4322L73.1252 18.4791C66.081 17.4262 58.9194 17.4262 51.8752 18.4791L45.5211 19.4322C43.3631 19.7564 41.3931 20.8441 39.969 22.4976C38.545 24.151 37.7614 26.2605 37.7606 28.4427ZM71.9638 26.2031C65.6895 25.2659 59.3109 25.2659 53.0367 26.2031L46.6825 27.1562C46.3742 27.2023 46.0927 27.3575 45.8891 27.5936C45.6856 27.8297 45.5734 28.1309 45.5731 28.4427V35.2916C56.8487 34.6477 68.1518 34.6477 79.4273 35.2916V28.4427C79.427 28.1309 79.3149 27.8297 79.1113 27.5936C78.9077 27.3575 78.6262 27.2023 78.3179 27.1562L71.9638 26.2031Z" fill="black"/>
<path d="M109.99 62.8646C109.98 62.6962 109.929 62.5328 109.841 62.3886C109.754 62.2443 109.633 62.1234 109.488 62.0363C109.344 61.9492 109.18 61.8985 109.012 61.8885C108.843 61.8786 108.675 61.9097 108.521 61.9792C79.5056 74.8281 45.4952 74.8281 16.4796 61.9792C16.3258 61.9097 16.1575 61.8786 15.9891 61.8885C15.8207 61.8985 15.6572 61.9492 15.5127 62.0363C15.3683 62.1234 15.2471 62.2443 15.1597 62.3886C15.0722 62.5328 15.0212 62.6962 15.0108 62.8646C14.4833 72.8359 15.0193 82.835 16.6098 92.6927C17.0953 95.6954 18.5737 98.4485 20.8087 100.512C23.0437 102.575 25.9061 103.829 28.9379 104.073L38.6879 104.854C54.5369 106.135 70.4587 106.135 86.3129 104.854L96.0629 104.073C99.0948 103.829 101.957 102.575 104.192 100.512C106.427 98.4485 107.906 95.6954 108.391 92.6927C109.985 82.8229 110.526 72.8229 109.99 62.8698" fill="black"/>
</svg>
