<svg width="77" height="70" viewBox="0 0 77 70" fill="none" xmlns="http://www.w3.org/2000/svg">
<path d="M76.1859 31.4289C76.1859 29.6027 75.4604 27.8513 74.1691 26.56C72.8778 25.2687 71.1264 24.5432 69.3002 24.5432H47.5414L50.8465 8.80946C50.9154 8.46518 50.9498 8.08647 50.9498 7.70775C50.9498 6.29619 50.3645 4.98791 49.435 4.05834L45.7856 0.443359L23.1317 23.0972C21.8578 24.3711 21.1004 26.0925 21.1004 27.9861V62.4145C21.1004 64.2407 21.8259 65.9921 23.1172 67.2834C24.4085 68.5747 26.1599 69.3002 27.9861 69.3002H58.9716C61.8292 69.3002 64.2736 67.5788 65.3065 65.0999L75.7039 40.8279C76.0137 40.036 76.1859 39.2097 76.1859 38.3146V31.4289ZM0.443359 69.3002H14.2147V27.9861H0.443359V69.3002Z" fill="white"/>
</svg>
