<svg width="83" height="83" viewBox="0 0 83 83" fill="none" xmlns="http://www.w3.org/2000/svg">
<path d="M30.9852 68.8569H51.6423V75.7426H30.9852V68.8569ZM58.2043 47.2083C61.7505 43.0562 65.4136 38.763 65.4136 30.9856C65.4136 17.6997 54.5997 6.88574 41.3138 6.88574C28.0278 6.88574 17.2139 17.6997 17.2139 30.9856C17.2139 38.8525 20.8874 43.132 24.4473 47.2703C25.6798 48.7094 26.9571 50.2001 28.1793 51.9147C28.6751 52.6239 29.4876 55.3437 30.214 58.5284H27.4873V65.414H55.1402V58.5284H52.4204C53.1537 55.3368 53.9696 52.6101 54.462 51.9009C55.6738 50.1691 56.9615 48.6646 58.2043 47.2083Z" fill="white"/>
</svg>
