<svg width="83" height="83" viewBox="0 0 83 83" fill="none" xmlns="http://www.w3.org/2000/svg">
<path d="M20.6572 75.743C18.7636 75.743 17.1432 75.0694 15.7959 73.7221C14.4486 72.3748 13.7738 70.7532 13.7715 68.8573V34.4289C13.7715 32.5354 14.4463 30.9149 15.7959 29.5676C17.1455 28.2203 18.7659 27.5455 20.6572 27.5432H24.1V20.6576C24.1 15.895 25.779 11.8359 29.1369 8.48024C32.4948 5.12462 36.5539 3.44566 41.3142 3.44336C46.0745 3.44107 50.1348 5.12003 53.495 8.48024C56.8552 11.8405 58.533 15.8996 58.5284 20.6576V27.5432H61.9712C63.8648 27.5432 65.4864 28.218 66.836 29.5676C68.1856 30.9172 68.8592 32.5377 68.8569 34.4289V68.8573C68.8569 70.7509 68.1833 72.3725 66.836 73.7221C65.4887 75.0717 63.8671 75.7453 61.9712 75.743H20.6572ZM41.3142 58.5288C43.2078 58.5288 44.8293 57.8552 46.1789 56.5079C47.5285 55.1606 48.2022 53.539 48.1999 51.6431C48.1976 49.7473 47.5239 48.1268 46.1789 46.7818C44.8339 45.4368 43.2124 44.762 41.3142 44.7575C39.4161 44.7529 37.7956 45.4277 36.4529 46.7818C35.1102 48.136 34.4354 49.7565 34.4285 51.6431C34.4216 53.5298 35.0964 55.1514 36.4529 56.5079C37.8094 57.8643 39.4298 58.538 41.3142 58.5288ZM30.9857 27.5432H51.6427V20.6576C51.6427 17.7885 50.6386 15.3499 48.6302 13.3415C46.6219 11.3332 44.1832 10.329 41.3142 10.329C38.4452 10.329 36.0065 11.3332 33.9982 13.3415C31.9898 15.3499 30.9857 17.7885 30.9857 20.6576V27.5432Z" fill="white"/>
</svg>
