<svg width="100" height="100" viewBox="0 0 100 100" fill="none" xmlns="http://www.w3.org/2000/svg">
<path d="M60.1445 48.4375L42.1875 30.1797V47.2656C42.1875 47.5764 42.311 47.8745 42.5307 48.0943C42.7505 48.314 43.0486 48.4375 43.3594 48.4375H60.1445Z" fill="black"/>
<path d="M35.9375 52.3438V28.125H11.7188C11.0971 28.125 10.501 28.3719 10.0615 28.8115C9.62193 29.251 9.375 29.8471 9.375 30.4688V94.5312C9.375 95.1529 9.62193 95.749 10.0615 96.1885C10.501 96.6281 11.0971 96.875 11.7188 96.875H60.1562C60.7779 96.875 61.374 96.6281 61.8135 96.1885C62.2531 95.749 62.5 95.1529 62.5 94.5312V54.6875H38.2812C37.6596 54.6875 37.0635 54.4406 36.624 54.001C36.1844 53.5615 35.9375 52.9654 35.9375 52.3438ZM71.4844 23.4375H88.2695L70.3125 5.17969V22.2656C70.3125 22.5764 70.436 22.8745 70.6557 23.0943C70.8755 23.314 71.1736 23.4375 71.4844 23.4375Z" fill="black"/>
<path d="M66.4062 29.6875C65.7846 29.6875 65.1885 29.4406 64.749 29.001C64.3094 28.5615 64.0625 27.9654 64.0625 27.3438V3.125H33.5938C32.9721 3.125 32.376 3.37193 31.9365 3.81147C31.4969 4.25101 31.25 4.84715 31.25 5.46875V21.875H39.4766C40.5266 21.8791 41.5655 22.0907 42.5335 22.4976C43.5015 22.9045 44.3796 23.4987 45.1172 24.2461L66.4375 45.9258C67.9251 47.4348 68.7556 49.4709 68.748 51.5898V78.125H88.2812C88.9029 78.125 89.499 77.8781 89.9385 77.4385C90.3781 76.999 90.625 76.4029 90.625 75.7812V29.6875H66.4062Z" fill="black"/>
</svg>
