<svg width="100" height="100" viewBox="0 0 100 100" fill="none" xmlns="http://www.w3.org/2000/svg">
<path fill-rule="evenodd" clip-rule="evenodd" d="M8.33366 8.33301C7.22859 8.33301 6.16878 8.77199 5.38738 9.5534C4.60598 10.3348 4.16699 11.3946 4.16699 12.4997V70.833C4.16699 76.4747 7.90449 81.2413 13.0378 82.7997C13.802 85.3205 15.343 87.5355 17.4408 89.1285C19.5387 90.7215 22.0862 91.611 24.7196 91.6702C27.3531 91.7293 29.9379 90.955 32.1051 89.4578C34.2724 87.9606 35.9113 85.817 36.7878 83.333H63.2128C64.0894 85.817 65.7283 87.9606 67.8955 89.4578C70.0627 90.955 72.6476 91.7293 75.281 91.6702C77.9145 91.611 80.462 90.7215 82.5598 89.1285C84.6576 87.5355 86.1986 85.3205 86.9628 82.7997C89.5297 82.0209 91.778 80.437 93.3755 78.282C94.9729 76.1271 95.8347 73.5155 95.8337 70.833V54.1663C95.8337 51.4305 95.2948 48.7214 94.2478 46.1938C93.2008 43.6662 91.6663 41.3695 89.7317 39.4349C87.7972 37.5004 85.5005 35.9658 82.9729 34.9188C80.4453 33.8719 77.7362 33.333 75.0003 33.333H58.3337V12.4997C58.3337 11.3946 57.8947 10.3348 57.1133 9.5534C56.3319 8.77199 55.2721 8.33301 54.167 8.33301H8.33366ZM63.2128 74.9997H58.3337V41.6663H75.0003C78.3155 41.6663 81.495 42.9833 83.8392 45.3275C86.1834 47.6717 87.5003 50.8511 87.5003 54.1663V70.833C87.5001 71.938 87.061 72.9976 86.2795 73.7788C85.2143 71.5473 83.5111 69.6819 81.3856 68.4185C79.26 67.1551 76.8074 66.5505 74.3382 66.6812C71.8689 66.8119 69.4939 67.672 67.5136 69.1527C65.5332 70.6334 64.0365 72.6682 63.2128 74.9997ZM22.0545 76.2205C22.4389 75.8225 22.8986 75.5051 23.407 75.2868C23.9153 75.0684 24.4621 74.9534 25.0153 74.9486C25.5686 74.9438 26.1172 75.0492 26.6293 75.2587C27.1414 75.4682 27.6066 75.7776 27.9978 76.1689C28.389 76.5601 28.6984 77.0253 28.9079 77.5374C29.1174 78.0494 29.2228 78.5981 29.218 79.1513C29.2132 79.7046 29.0983 80.2513 28.8799 80.7597C28.6615 81.268 28.3441 81.7278 27.9462 82.1122C27.1603 82.8712 26.1078 83.2911 25.0153 83.2816C23.9228 83.2722 22.8778 82.8339 22.1052 82.0614C21.3327 81.2889 20.8945 80.2438 20.885 79.1513C20.8755 78.0589 21.2955 77.0063 22.0545 76.2205ZM70.8337 79.1663C70.8337 78.0613 71.2726 77.0015 72.054 76.2201C72.8354 75.4387 73.8953 74.9997 75.0003 74.9997C76.1054 74.9997 77.1652 75.4387 77.9466 76.2201C78.728 77.0015 79.167 78.0613 79.167 79.1663C79.167 80.2714 78.728 81.3312 77.9466 82.1126C77.1652 82.894 76.1054 83.333 75.0003 83.333C73.8953 83.333 72.8354 82.894 72.054 82.1126C71.2726 81.3312 70.8337 80.2714 70.8337 79.1663Z" fill="black"/>
</svg>
