<svg width="100" height="100" viewBox="0 0 100 100" fill="none" xmlns="http://www.w3.org/2000/svg">
<mask id="mask0_1619_1545" style="mask-type:luminance" maskUnits="userSpaceOnUse" x="8" y="16" width="84" height="68">
<path d="M58.3331 16.666H41.6664C25.9539 16.666 18.0956 16.666 13.2164 21.5493C9.69974 25.0618 8.71641 30.1202 8.44141 38.541H91.5581C91.2831 30.1202 90.2997 25.0618 86.7831 21.5493C81.9039 16.666 74.0456 16.666 58.3331 16.666ZM41.6664 83.3327H58.3331C74.0456 83.3327 81.9039 83.3327 86.7831 78.4493C91.6622 73.566 91.6664 65.7119 91.6664 49.9994C91.6664 48.1605 91.6636 46.4244 91.6581 44.791H8.34141C8.33307 46.4244 8.3303 48.1605 8.33307 49.9994C8.33307 65.7119 8.33307 73.5702 13.2164 78.4493C18.0997 83.3285 25.9539 83.3327 41.6664 83.3327Z" fill="white"/>
<path fill-rule="evenodd" clip-rule="evenodd" d="M21.875 66.666C21.875 65.8372 22.2042 65.0424 22.7903 64.4563C23.3763 63.8703 24.1712 63.541 25 63.541H41.6667C42.4955 63.541 43.2903 63.8703 43.8764 64.4563C44.4624 65.0424 44.7917 65.8372 44.7917 66.666C44.7917 67.4948 44.4624 68.2897 43.8764 68.8757C43.2903 69.4618 42.4955 69.791 41.6667 69.791H25C24.1712 69.791 23.3763 69.4618 22.7903 68.8757C22.2042 68.2897 21.875 67.4948 21.875 66.666ZM48.9583 66.666C48.9583 65.8372 49.2876 65.0424 49.8736 64.4563C50.4597 63.8703 51.2545 63.541 52.0833 63.541H58.3333C59.1621 63.541 59.957 63.8703 60.543 64.4563C61.1291 65.0424 61.4583 65.8372 61.4583 66.666C61.4583 67.4948 61.1291 68.2897 60.543 68.8757C59.957 69.4618 59.1621 69.791 58.3333 69.791H52.0833C51.2545 69.791 50.4597 69.4618 49.8736 68.8757C49.2876 68.2897 48.9583 67.4948 48.9583 66.666Z" fill="black"/>
</mask>
<g mask="url(#mask0_1619_1545)">
<path d="M0 0H100V100H0V0Z" fill="white"/>
</g>
</svg>
