<svg width="100" height="100" viewBox="0 0 100 100" fill="none" xmlns="http://www.w3.org/2000/svg">
<path d="M25.0003 91.666C22.7087 91.666 20.7475 90.8507 19.117 89.2202C17.4864 87.5896 16.6698 85.6271 16.667 83.3327V41.666C16.667 39.3744 17.4837 37.4132 19.117 35.7827C20.7503 34.1521 22.7114 33.3355 25.0003 33.3327H29.167V24.9993C29.167 19.2355 31.1989 14.323 35.2628 10.2619C39.3267 6.20074 44.2392 4.1688 50.0003 4.16602C55.7614 4.16324 60.6753 6.19519 64.742 10.2619C68.8087 14.3285 70.8392 19.241 70.8337 24.9993V33.3327H75.0003C77.292 33.3327 79.2545 34.1494 80.8878 35.7827C82.5212 37.416 83.3364 39.3771 83.3337 41.666V83.3327C83.3337 85.6243 82.5184 87.5868 80.8878 89.2202C79.2573 90.8535 77.2948 91.6688 75.0003 91.666H25.0003ZM50.0003 70.8327C52.292 70.8327 54.2545 70.0174 55.8878 68.3868C57.5212 66.7563 58.3364 64.7938 58.3337 62.4994C58.3309 60.2049 57.5156 58.2438 55.8878 56.616C54.26 54.9882 52.2975 54.1716 50.0003 54.166C47.7031 54.1605 45.742 54.9771 44.117 56.616C42.492 58.2549 41.6753 60.216 41.667 62.4994C41.6587 64.7827 42.4753 66.7452 44.117 68.3868C45.7587 70.0285 47.7198 70.8438 50.0003 70.8327ZM37.5003 33.3327H62.5003V24.9993C62.5003 21.5271 61.285 18.5757 58.8545 16.1452C56.4239 13.7146 53.4725 12.4994 50.0003 12.4994C46.5281 12.4994 43.5767 13.7146 41.1462 16.1452C38.7156 18.5757 37.5003 21.5271 37.5003 24.9993V33.3327Z" fill="white"/>
</svg>
