<svg width="100" height="100" viewBox="0 0 100 100" fill="none" xmlns="http://www.w3.org/2000/svg">
<path d="M56.25 66.667C56.25 68.3246 55.5915 69.9143 54.4194 71.0864C53.2473 72.2585 51.6576 72.917 50 72.917C48.3424 72.917 46.7527 72.2585 45.5806 71.0864C44.4085 69.9143 43.75 68.3246 43.75 66.667C43.75 65.0094 44.4085 63.4197 45.5806 62.2476C46.7527 61.0755 48.3424 60.417 50 60.417C51.6576 60.417 53.2473 61.0755 54.4194 62.2476C55.5915 63.4197 56.25 65.0094 56.25 66.667Z" fill="white"/>
<path d="M59.7792 2.75L73.0292 21.3167L81.7667 18.3375L89.7417 41.6667H93.75V91.6667H6.25V41.6667H8.375V41.625L11.075 41.65L59.7792 2.75ZM39.1542 41.6667H80.9375L76.6167 29.0292L70.275 31.0583L39.1542 41.6667ZM32.6625 35.0708L64.7917 24.125L58.1083 14.75L32.6625 35.0708ZM22.9167 50H14.5833V58.3333C16.7935 58.3333 18.9131 57.4554 20.4759 55.8926C22.0387 54.3298 22.9167 52.2101 22.9167 50ZM64.5833 66.6667C64.5833 64.7516 64.2061 62.8552 63.4732 61.0859C62.7404 59.3165 61.6662 57.7089 60.312 56.3547C58.9578 55.0005 57.3501 53.9263 55.5808 53.1934C53.8115 52.4605 51.9151 52.0833 50 52.0833C48.0849 52.0833 46.1885 52.4605 44.4192 53.1934C42.6499 53.9263 41.0422 55.0005 39.688 56.3547C38.3338 57.7089 37.2596 59.3165 36.5268 61.0859C35.7939 62.8552 35.4167 64.7516 35.4167 66.6667C35.4167 70.5344 36.9531 74.2437 39.688 76.9787C42.4229 79.7136 46.1323 81.25 50 81.25C53.8677 81.25 57.5771 79.7136 60.312 76.9787C63.0469 74.2437 64.5833 70.5344 64.5833 66.6667ZM85.4167 83.3333V75C83.2065 75 81.0869 75.878 79.5241 77.4408C77.9613 79.0036 77.0833 81.1232 77.0833 83.3333H85.4167ZM77.0833 50C77.0833 52.2101 77.9613 54.3298 79.5241 55.8926C81.0869 57.4554 83.2065 58.3333 85.4167 58.3333V50H77.0833ZM14.5833 83.3333H22.9167C22.9167 81.1232 22.0387 79.0036 20.4759 77.4408C18.9131 75.878 16.7935 75 14.5833 75V83.3333Z" fill="white"/>
</svg>
