<svg width="193" height="193" viewBox="0 0 193 193" fill="none" xmlns="http://www.w3.org/2000/svg">
<path d="M17.2195 85.9502L29.6989 90.3699L26.553 92.1957L17.8294 97.1789L15.0231 98.7886L17.2195 85.9502Z" fill="#EBEBEB"/>
<path d="M71.5605 154.457L79.3346 150.933L62.4123 122.099L54.7888 128.881L41.3715 105.358L33.9912 110.357L21.9827 88.7061L17.5746 90.5704L32.2349 119.76L40.5609 112.553L53.1985 138.805L60.7525 130.614L71.5605 154.457Z" fill="#EBEBEB"/>
<path d="M183.616 121.443C183.305 123.56 182.373 125.536 180.937 127.123C179.501 128.709 177.627 129.834 175.552 130.354C173.477 130.874 171.294 130.767 169.28 130.046C167.266 129.325 165.511 128.022 164.238 126.303C162.965 124.583 162.23 122.525 162.128 120.388C162.025 118.251 162.559 116.132 163.662 114.299C164.765 112.465 166.388 111.001 168.324 110.09C170.26 109.18 172.422 108.864 174.538 109.184C177.365 109.611 179.907 111.141 181.609 113.438C183.311 115.736 184.032 118.614 183.616 121.443Z" fill="#F5F5F5"/>
<path d="M181.073 121.061C180.834 122.672 180.124 124.176 179.03 125.383C177.937 126.59 176.51 127.445 174.93 127.841C173.35 128.236 171.689 128.154 170.156 127.605C168.623 127.055 167.287 126.064 166.318 124.755C165.349 123.446 164.79 121.879 164.711 120.253C164.633 118.626 165.039 117.013 165.879 115.617C166.718 114.221 167.952 113.106 169.426 112.412C170.899 111.718 172.545 111.477 174.155 111.719C175.223 111.878 176.249 112.246 177.174 112.802C178.1 113.357 178.907 114.09 179.549 114.957C180.191 115.825 180.657 116.81 180.918 117.857C181.179 118.905 181.232 119.993 181.073 121.061Z" fill="#EBEBEB"/>
<path d="M181.111 120.818C181.053 120.484 181.03 120.145 181.042 119.806C180.99 118.904 180.8 118.015 180.478 117.17C180.254 116.593 179.967 116.043 179.621 115.53C179.226 114.944 178.756 114.412 178.224 113.947C177.938 113.693 177.632 113.462 177.309 113.256C176.977 113.037 176.629 112.845 176.267 112.681C175.892 112.51 175.505 112.368 175.109 112.256C174.701 112.144 174.286 112.061 173.866 112.009C173.445 111.96 173.02 111.943 172.596 111.959C172.184 111.977 171.774 112.024 171.369 112.102C170.975 112.176 170.587 112.282 170.211 112.418C169.85 112.544 169.499 112.696 169.161 112.874C168.535 113.204 167.953 113.612 167.431 114.09C166.977 114.509 166.57 114.976 166.215 115.483C165.708 116.23 165.318 117.05 165.057 117.915C164.991 118.248 164.89 118.572 164.756 118.884C164.705 118.541 164.726 118.191 164.818 117.857C164.997 116.929 165.347 116.041 165.849 115.24C166.196 114.679 166.608 114.161 167.076 113.696C167.616 113.166 168.227 112.713 168.89 112.349C169.248 112.149 169.621 111.978 170.006 111.836C170.408 111.686 170.821 111.567 171.241 111.48C171.676 111.391 172.118 111.337 172.561 111.318C173.473 111.279 174.386 111.387 175.263 111.639C175.689 111.762 176.104 111.919 176.506 112.106C176.895 112.288 177.269 112.499 177.626 112.739C177.966 112.972 178.289 113.23 178.591 113.511C179.641 114.464 180.429 115.671 180.88 117.016C181.178 117.913 181.309 118.858 181.266 119.803C181.286 120.148 181.233 120.494 181.111 120.818Z" fill="#E0E0E0"/>
<path d="M173.125 124.832L172.936 126.253L171.666 126.079L171.855 124.697C170.732 124.508 169.685 124.008 168.833 123.253L169.74 121.802C170.399 122.409 171.205 122.833 172.079 123.033L172.364 120.918C171.002 120.385 169.496 119.702 169.74 117.888C169.921 116.545 171.056 115.522 173.09 115.572L173.279 114.163L174.549 114.337L174.364 115.719C175.264 115.892 176.109 116.277 176.83 116.842L175.985 118.316C175.436 117.889 174.808 117.575 174.136 117.394L173.843 119.548C175.205 120.069 176.691 120.748 176.448 122.535C176.271 123.848 175.151 124.859 173.125 124.832ZM172.619 119.042L172.862 117.24C172.168 117.301 171.851 117.625 171.797 118.05C171.743 118.475 172.083 118.799 172.619 119.054V119.042ZM174.387 122.393C174.445 121.949 174.109 121.659 173.592 121.393L173.353 123.145C174.005 123.103 174.329 122.809 174.387 122.404V122.393Z" fill="#E0E0E0"/>
<path d="M175.781 36.6159C175.508 38.4571 174.695 40.176 173.445 41.5551C172.195 42.9342 170.564 43.9115 168.759 44.3633C166.953 44.8152 165.054 44.7212 163.302 44.0933C161.55 43.4654 160.023 42.3318 158.915 40.836C157.808 39.3402 157.169 37.5494 157.079 35.6903C156.99 33.8311 157.454 31.9872 158.413 30.3919C159.371 28.7966 160.782 27.5216 162.466 26.7283C164.149 25.935 166.031 25.659 167.871 25.9353C169.092 26.1169 170.265 26.5374 171.323 27.1725C172.382 27.8077 173.304 28.6451 174.039 29.6369C174.773 30.6288 175.305 31.7557 175.604 32.9531C175.903 34.1506 175.963 35.3952 175.781 36.6159Z" fill="#F5F5F5"/>
<path d="M173.569 36.2836C173.363 37.6874 172.745 38.9985 171.793 40.0509C170.842 41.1034 169.599 41.85 168.223 42.1963C166.847 42.5425 165.4 42.4729 164.063 41.9961C162.727 41.5194 161.562 40.657 160.716 39.5181C159.87 38.3791 159.381 37.0148 159.31 35.5978C159.239 34.1807 159.591 32.7745 160.32 31.5572C161.049 30.3398 162.122 29.366 163.404 28.759C164.687 28.1519 166.12 27.9388 167.524 28.1468C168.456 28.2832 169.351 28.6021 170.159 29.0851C170.968 29.5681 171.673 30.2057 172.234 30.9615C172.795 31.7173 173.202 32.5764 173.431 33.4896C173.66 34.4029 173.707 35.3523 173.569 36.2836Z" fill="#EBEBEB"/>
<path d="M173.6 36.0596C173.549 35.769 173.529 35.4742 173.538 35.1795C173.497 34.3865 173.331 33.605 173.048 32.8635C172.853 32.3612 172.603 31.8822 172.303 31.4353C171.956 30.9252 171.546 30.4609 171.083 30.0534C170.834 29.8333 170.568 29.6332 170.288 29.4551C169.999 29.2637 169.696 29.0959 169.381 28.9533C169.055 28.7993 168.718 28.6702 168.373 28.5673C168.017 28.4694 167.655 28.3972 167.289 28.3511C166.921 28.3122 166.55 28.298 166.181 28.3087C165.823 28.3233 165.467 28.3659 165.115 28.4361C164.774 28.4987 164.438 28.5903 164.112 28.7101C163.799 28.8152 163.494 28.9442 163.201 29.0961C162.655 29.3816 162.149 29.7372 161.695 30.1538C161.299 30.519 160.945 30.9267 160.638 31.3696C160.19 32.0184 159.848 32.7336 159.623 33.4888C159.564 33.7775 159.476 34.0594 159.36 34.3303C159.315 34.0313 159.334 33.7262 159.414 33.4348C159.571 32.6273 159.874 31.8554 160.31 31.1574C160.613 30.6731 160.971 30.2261 161.379 29.8256C161.851 29.3687 162.383 28.9791 162.961 28.6676C163.273 28.4921 163.598 28.3424 163.934 28.2199C164.283 28.0881 164.642 27.9848 165.007 27.9111C165.389 27.8335 165.776 27.7857 166.165 27.7683C166.563 27.7536 166.962 27.7678 167.358 27.8107C167.75 27.8609 168.137 27.9409 168.516 28.0501C168.888 28.1499 169.252 28.279 169.605 28.4361C169.942 28.5931 170.266 28.7777 170.573 28.988C170.872 29.1857 171.155 29.4064 171.419 29.6481C171.905 30.0922 172.33 30.5999 172.681 31.1574C172.984 31.6414 173.229 32.1597 173.41 32.7014C173.671 33.4818 173.786 34.3034 173.75 35.1254C173.77 35.4441 173.718 35.7631 173.6 36.0596Z" fill="#E0E0E0"/>
<path d="M166.644 39.5646L166.478 40.8037L165.374 40.6532L165.536 39.4488C164.556 39.2933 163.64 38.8652 162.892 38.2136L163.683 36.9476C164.258 37.4755 164.961 37.8453 165.721 38.0206L165.968 36.1756C164.783 35.7124 163.471 35.1179 163.683 33.5392C163.842 32.3812 164.841 31.4779 166.601 31.5165L166.767 30.2891L167.871 30.4396L167.709 31.6439C168.494 31.7928 169.231 32.1277 169.859 32.6205L169.126 33.9059C168.652 33.5274 168.107 33.2466 167.524 33.0798L167.269 34.9597C168.458 35.4113 169.747 36.0057 169.539 37.5613C169.381 38.7116 168.408 39.5917 166.644 39.5646ZM166.2 34.5466L166.412 32.9756C165.81 33.0297 165.536 33.3192 165.486 33.682C165.436 34.0448 165.737 34.315 166.2 34.5351V34.5466ZM167.744 37.4648C167.798 37.0788 167.505 36.824 167.053 36.5963L166.845 38.1403C167.412 38.0631 167.694 37.8276 167.74 37.4416L167.744 37.4648Z" fill="#E0E0E0"/>
<path d="M65.3807 24.7037C66.203 27.7002 66.1178 30.8733 65.1358 33.8213C64.1539 36.7694 62.3194 39.3598 59.8645 41.2648C57.4097 43.1697 54.4448 44.3035 51.3453 44.5226C48.2457 44.7417 45.1508 44.0363 42.4524 42.4956C39.754 40.955 37.5733 38.6484 36.1864 35.8678C34.7995 33.0872 34.2688 29.9576 34.6614 26.8752C35.054 23.7929 36.3523 20.8962 38.3919 18.5521C40.4315 16.2079 43.1208 14.5216 46.1193 13.7065C48.1061 13.1639 50.1803 13.0178 52.2235 13.2768C54.2668 13.5358 56.239 14.1947 58.0276 15.2159C59.8162 16.237 61.3861 17.6005 62.6478 19.2284C63.9094 20.8564 64.838 22.7169 65.3807 24.7037Z" fill="#F5F5F5"/>
<path d="M61.76 25.6725C62.3873 27.9563 62.3228 30.375 61.5746 32.6221C60.8264 34.8692 59.4282 36.8438 57.557 38.2958C55.6859 39.7477 53.4259 40.6117 51.0634 40.7783C48.7008 40.945 46.3419 40.4068 44.2855 39.2319C42.229 38.057 40.5674 36.2983 39.5112 34.1784C38.455 32.0586 38.0516 29.6729 38.3521 27.3237C38.6526 24.9744 39.6435 22.7671 41.1994 20.9814C42.7552 19.1957 44.806 17.9119 47.092 17.2925C50.1482 16.4644 53.408 16.8814 56.1573 18.4521C58.9066 20.0228 60.9213 22.6192 61.76 25.6725Z" fill="#EBEBEB"/>
<path d="M61.6751 25.3094C61.6056 25.3325 61.4203 24.8385 60.9919 24.0047C60.3951 22.839 59.6217 21.7727 58.699 20.8434C57.335 19.4694 55.6562 18.4492 53.8084 17.8712C53.28 17.7014 52.7393 17.5723 52.1911 17.4852C51.6209 17.3885 51.044 17.3369 50.4657 17.3308C49.8667 17.3224 49.2679 17.3598 48.6746 17.4427C48.065 17.5267 47.4625 17.6557 46.872 17.8287C46.2859 18.0201 45.7144 18.2536 45.162 18.5274C44.6251 18.7901 44.1089 19.0934 43.618 19.4345C43.1431 19.7638 42.694 20.129 42.2747 20.5268C41.87 20.907 41.4933 21.3159 41.1476 21.7505C40.5065 22.5559 39.972 23.4407 39.5573 24.383C39.1965 25.2063 38.9285 26.0672 38.7583 26.9499C38.5145 28.2416 38.4728 29.5633 38.6347 30.8678C38.7467 31.7981 38.8702 32.3114 38.8007 32.3307C38.7312 32.35 38.5112 31.8675 38.2835 30.9295C37.9741 29.5905 37.9178 28.2054 38.1175 26.8457C38.2531 25.901 38.5006 24.9758 38.8548 24.0896C39.2662 23.0683 39.8141 22.1074 40.4837 21.2332C40.8427 20.7574 41.2389 20.3108 41.6687 19.8977C42.1127 19.4616 42.5916 19.0627 43.1008 18.7049C43.6275 18.3296 44.1839 17.9979 44.7644 17.7129C45.9586 17.1217 47.2418 16.7305 48.5627 16.5549C49.2021 16.4675 49.8475 16.4314 50.4927 16.4468C51.1157 16.4585 51.7367 16.5218 52.3493 16.636C52.936 16.7388 53.5141 16.8859 54.0786 17.076C55.1189 17.4247 56.1071 17.9129 57.0161 18.5274C57.8061 19.0632 58.5292 19.6918 59.1699 20.3995C60.095 21.4148 60.824 22.5926 61.32 23.8735C61.6558 24.7651 61.7253 25.2939 61.6751 25.3094Z" fill="#E0E0E0"/>
<path d="M53.407 35.3461L53.9821 37.3495L52.1949 37.8628L51.6352 35.9328C49.8326 36.3188 47.976 36.2687 46.7678 35.7823L47.1268 33.3158C48.3575 33.7333 49.6753 33.825 50.952 33.5821L50.0951 30.5945C47.9721 30.6832 45.5635 30.6562 44.8262 28.1009C44.2819 26.2018 45.1929 24.1791 47.9142 23.0443L47.3429 21.0603L49.1301 20.5469L49.6898 22.4769C50.9899 22.1796 52.342 22.1955 53.6347 22.5232L53.3761 24.982C52.3934 24.7345 51.3713 24.6846 50.3692 24.8353L51.2454 27.877C53.3645 27.7728 55.7346 27.8075 56.4602 30.3281C57.0161 32.1964 56.1167 34.1997 53.407 35.3461ZM49.3463 27.9542L48.636 25.4143C47.7482 25.9007 47.5243 26.526 47.6942 27.1166C47.864 27.7072 48.4893 27.9272 49.3463 27.9542ZM53.654 31.378C53.4765 30.7527 52.8589 30.5636 52.0135 30.5134L52.7199 32.9838C53.5691 32.5283 53.8277 31.9532 53.654 31.378Z" fill="#E0E0E0"/>
<path d="M30.4438 51.1681C30.086 53.0779 29.1697 54.8386 27.8108 56.2275C26.452 57.6163 24.7116 58.5708 22.8101 58.9701C20.9085 59.3694 18.9313 59.1957 17.1285 58.4708C15.3258 57.7459 13.7786 56.5026 12.6827 54.898C11.5869 53.2935 10.9917 51.3999 10.9725 49.457C10.9533 47.5141 11.5109 45.6091 12.5748 43.9832C13.6386 42.3573 15.1609 41.0836 16.949 40.3232C18.7371 39.5628 20.7105 39.35 22.6196 39.7116C23.8857 39.9499 25.0924 40.4353 26.1709 41.1401C27.2493 41.8448 28.1784 42.7552 28.905 43.819C29.6316 44.8829 30.1414 46.0795 30.4055 47.3405C30.6695 48.6015 30.6825 49.9021 30.4438 51.1681Z" fill="#F5F5F5"/>
<path d="M28.1509 50.7312C27.8783 52.1869 27.18 53.529 26.1444 54.5876C25.1087 55.6463 23.7823 56.3739 22.333 56.6783C20.8836 56.9828 19.3766 56.8505 18.0025 56.2981C16.6284 55.7457 15.4491 54.798 14.6138 53.5751C13.7785 52.3522 13.3248 50.9089 13.3101 49.428C13.2954 47.9471 13.7203 46.4951 14.5312 45.2559C15.342 44.0166 16.5023 43.0457 17.8651 42.4661C19.228 41.8865 20.7321 41.7243 22.1872 41.9999C24.1359 42.367 25.8589 43.4931 26.9773 45.1305C28.0957 46.7679 28.5179 48.7826 28.1509 50.7312Z" fill="#EBEBEB"/>
<path d="M28.178 50.4997C28.136 50.1953 28.127 49.8873 28.151 49.581C28.1361 48.7583 27.9928 47.9431 27.7264 47.1646C27.3391 46.0194 26.6763 44.9868 25.7964 44.1577C25.5457 43.9163 25.2759 43.6955 24.9897 43.4976C24.6958 43.2885 24.3861 43.1026 24.0633 42.9418C23.7288 42.7723 23.3816 42.629 23.0249 42.5133C22.6573 42.397 22.282 42.3067 21.9017 42.2431C21.5182 42.1867 21.1313 42.157 20.7437 42.1543C20.3701 42.1564 19.9973 42.1861 19.6281 42.2431C19.2698 42.2986 18.9163 42.3811 18.5705 42.4902C18.2398 42.5949 17.9172 42.724 17.6055 42.8762C16.5125 43.397 15.5626 44.1759 14.8379 45.1458C14.347 45.8048 13.9628 46.5369 13.6992 47.3152C13.625 47.6141 13.5216 47.905 13.3904 48.1837C13.3592 47.866 13.4001 47.5454 13.51 47.2457C13.7036 46.4095 14.0504 45.6164 14.5329 44.9065C14.8642 44.412 15.253 43.9586 15.6909 43.5555C16.2013 43.0952 16.7712 42.7057 17.3855 42.3975C17.7183 42.2274 18.0643 42.0841 18.42 41.9691C18.7889 41.8461 19.1671 41.7532 19.5509 41.6911C19.9501 41.6231 20.3542 41.5882 20.7591 41.5869C21.1753 41.5899 21.5907 41.6234 22.002 41.6873C22.4128 41.7545 22.818 41.8525 23.2141 41.9806C23.594 42.1112 23.9631 42.2712 24.318 42.4593C24.6641 42.6378 24.9958 42.843 25.3101 43.073C25.6113 43.2929 25.8964 43.5341 26.1631 43.7948C27.0863 44.6978 27.7604 45.824 28.1201 47.0643C28.3628 47.8889 28.4492 48.7516 28.3749 49.608C28.3705 49.9155 28.3035 50.2189 28.178 50.4997Z" fill="#E0E0E0"/>
<path d="M20.7977 53.8817L20.5738 55.1671L19.4158 54.9664L19.6319 53.7157C18.6154 53.5086 17.6785 53.0174 16.9299 52.2991L17.8062 51.0137C18.3846 51.5866 19.1013 52.0001 19.8867 52.2142L20.2225 50.2842C19.0028 49.7515 17.6556 49.0799 17.9413 47.4394C18.1536 46.2235 19.2189 45.3357 21.0679 45.4438L21.2879 44.1738L22.4459 44.3707L22.2297 45.6213C23.0418 45.8107 23.7973 46.1904 24.4338 46.7291L23.6155 48.0377C23.1294 47.631 22.568 47.3241 21.9634 47.1344L21.6237 49.0644C22.8435 49.5855 24.1713 50.2533 23.8857 51.8707C23.6888 53.0981 22.635 53.9782 20.7977 53.8817ZM20.5352 48.6128L20.8208 46.9839C20.1878 47.0186 19.8906 47.3081 19.8211 47.6864C19.7516 48.0647 20.072 48.3658 20.5352 48.6128ZM22.0251 51.724C22.0946 51.338 21.8013 51.0485 21.3381 50.7899L21.0601 52.3725C21.6584 52.3416 21.9595 52.0868 22.0251 51.724Z" fill="#E0E0E0"/>
<path d="M183.817 137.713L174.441 137.373L176.043 139.396L180.49 144.95L181.918 146.745L183.817 137.713Z" fill="#F5F5F5"/>
<path d="M130.151 168.693L125.948 164.347L144.615 149.756L147.873 156.21L162.842 144.209L166.405 149.424L179.961 138.288L182.381 140.666L165.111 156.083L161.502 149.162L146.329 163.166L143.488 155.801L130.151 168.693Z" fill="#F5F5F5"/>
<path d="M165.995 54.2402L153.47 60.9103L157.098 62.3462L167.134 66.2371L170.365 67.4955L165.995 54.2402Z" fill="#E0E0E0"/>
<path d="M119.301 135.493L110.5 133L123.848 99.746L133.008 105.717L143.484 78.6549L152.099 82.7774L161.383 57.9229L166.354 59.1928L155.458 92.466L145.487 86.151L136.27 115.985L126.959 108.504L119.301 135.493Z" fill="#E0E0E0"/>
<path d="M184.284 182.763C184.284 182.821 144.607 182.868 95.6701 182.868C46.733 182.868 7.04449 182.821 7.04449 182.763C7.04449 182.706 46.7137 182.663 95.6701 182.663C144.626 182.663 184.284 182.709 184.284 182.763Z" fill="#263238"/>
<path d="M110.164 182.675H119.687V167.092H110.164V182.675Z" fill="#00AAD3"/>
<path d="M148.56 182.675H158.083V156.238H148.56V182.675Z" fill="#00AAD3"/>
<path d="M167.759 182.671H177.282V173.067H167.759V182.671Z" fill="#00AAD3"/>
<path d="M129.36 182.671H138.883V159.685H129.36V182.671Z" fill="#00AAD3"/>
<path d="M90.9648 182.675H100.487V154.034H90.9648V182.675Z" fill="#00AAD3"/>
<path d="M71.769 182.671H81.2916V145.827H71.769V182.671Z" fill="#00AAD3"/>
<path d="M52.5732 182.675H62.0958L62.0958 136.698H52.5732L52.5732 182.675Z" fill="#00AAD3"/>
<path d="M33.3697 182.671H42.8923L42.8923 124.308H33.3697L33.3697 182.671Z" fill="#00AAD3"/>
<path d="M14.1739 182.671H23.6965L23.6965 105.95H14.1739L14.1739 182.671Z" fill="#00AAD3"/>
<path d="M160.634 172.345C159.077 169.393 156.768 166.903 153.942 165.128C151.115 163.352 147.87 162.353 144.534 162.232C148.568 157.766 149.363 150.857 147.035 145.306C144.708 139.755 139.585 135.614 133.834 133.83C128.083 132.047 121.795 132.464 116.078 134.309C116.746 129.97 112.403 125.636 108.065 126.311C108.928 125.72 109.538 124.826 109.774 123.807C110.01 122.787 109.855 121.716 109.339 120.806C108.823 119.895 107.984 119.212 106.988 118.89C105.993 118.569 104.912 118.633 103.961 119.07L104.22 87.2363H85.306L85.5608 119.054C84.6036 118.574 83.4985 118.48 82.4739 118.792C81.4493 119.103 80.5835 119.796 80.0553 120.728C79.5271 121.659 79.3769 122.758 79.6357 123.797C79.8945 124.836 80.5426 125.736 81.4461 126.311C77.1074 125.636 72.7649 129.97 73.4288 134.309C67.7006 132.464 61.4088 132.043 55.6728 133.83C49.9369 135.618 44.7761 139.752 42.4601 145.306C40.1441 150.861 40.9161 157.766 44.9652 162.232C41.6288 162.353 38.3833 163.352 35.5559 165.128C32.7286 166.903 30.4194 169.393 28.8613 172.345C27.1011 175.789 26.9313 180.872 30.359 182.671H159.136C162.56 180.872 162.398 175.789 160.634 172.345Z" fill="#EBEBEB"/>
<path d="M30.3473 182.671L29.888 182.397C29.4451 182.1 29.0539 181.732 28.73 181.308C28.225 180.601 27.8836 179.79 27.7303 178.934C27.5194 177.76 27.5338 176.556 27.7727 175.387C28.0544 173.909 28.6122 172.497 29.4171 171.226C30.3529 169.687 31.5119 168.295 32.8563 167.096C34.404 165.696 36.1692 164.558 38.0828 163.726L38.8548 163.398L39.6577 163.116C39.9286 163.019 40.2043 162.935 40.4837 162.865C40.7655 162.788 41.0434 162.699 41.3329 162.638C42.5165 162.372 43.722 162.215 44.9343 162.171L44.888 162.271C43.67 160.895 42.7184 159.305 42.0817 157.581C41.2003 155.142 40.8882 152.535 41.1692 149.957C41.4502 147.379 42.3168 144.9 43.7029 142.708C44.2923 141.745 44.9721 140.84 45.7333 140.006C48.9904 136.447 53.3085 134.032 58.0467 133.12C60.5531 132.625 63.1153 132.474 65.6625 132.672C68.3022 132.886 70.9083 133.404 73.4288 134.216L73.313 134.317C73.1632 133.268 73.2773 132.199 73.645 131.206C74.0305 130.176 74.6249 129.237 75.3909 128.447C76.1568 127.658 77.0776 127.036 78.0956 126.62C79.157 126.191 80.3137 126.054 81.446 126.222L81.3766 126.392C80.4966 125.786 79.8757 124.872 79.6361 123.831C79.3966 122.79 79.5558 121.697 80.0824 120.767C80.609 119.837 81.4647 119.139 82.481 118.809C83.4972 118.479 84.6001 118.542 85.5724 118.985L85.4373 119.074C85.3523 108.941 85.2674 98.2566 85.1786 87.2556V87.1553H104.293V87.2363C104.205 98.2103 104.116 108.852 104.035 119.054L103.9 118.966C104.872 118.522 105.975 118.46 106.991 118.79C108.007 119.12 108.863 119.818 109.39 120.748C109.916 121.677 110.075 122.771 109.836 123.812C109.596 124.853 108.975 125.767 108.095 126.373L108.026 126.203C109.14 126.039 110.277 126.172 111.322 126.589C112.344 126.999 113.269 127.617 114.04 128.403C114.811 129.189 115.41 130.126 115.8 131.155C116.183 132.165 116.303 133.256 116.147 134.324L116.032 134.224C118.552 133.411 121.158 132.893 123.798 132.68C126.341 132.483 128.899 132.632 131.402 133.124C136.135 134.034 140.451 136.442 143.712 139.991C144.472 140.827 145.153 141.731 145.746 142.693C146.333 143.618 146.829 144.598 147.228 145.619C147.618 146.611 147.911 147.639 148.104 148.688C148.29 149.707 148.387 150.74 148.394 151.776C148.398 153.749 148.059 155.709 147.39 157.566C146.753 159.297 145.797 160.894 144.572 162.275L144.53 162.174C145.744 162.219 146.95 162.376 148.135 162.641C148.421 162.707 148.703 162.796 148.984 162.869C149.264 162.94 149.54 163.025 149.81 163.124L150.617 163.406L151.389 163.734C153.306 164.566 155.074 165.706 156.623 167.107C157.965 168.31 159.122 169.703 160.059 171.242C160.861 172.514 161.417 173.925 161.699 175.403C161.934 176.571 161.946 177.773 161.734 178.946C161.579 179.8 161.238 180.609 160.734 181.316C160.412 181.74 160.02 182.107 159.576 182.401C159.275 182.586 159.117 182.675 159.117 182.675L159.569 182.385C159.999 182.085 160.378 181.718 160.692 181.297C161.186 180.59 161.52 179.784 161.668 178.934C161.873 177.768 161.856 176.574 161.618 175.414C161.333 173.945 160.776 172.543 159.974 171.28C159.038 169.752 157.881 168.371 156.542 167.181C154.999 165.79 153.239 164.659 151.331 163.834L150.559 163.51L149.756 163.232C149.487 163.133 149.212 163.048 148.934 162.977C148.652 162.904 148.375 162.819 148.089 162.753C146.911 162.492 145.712 162.338 144.507 162.294H144.379L144.464 162.198C145.674 160.827 146.618 159.243 147.247 157.527C147.909 155.681 148.244 153.733 148.236 151.772C148.225 150.746 148.128 149.724 147.946 148.715C147.753 147.675 147.459 146.656 147.07 145.673C146.673 144.661 146.181 143.689 145.599 142.77C145.012 141.827 144.34 140.94 143.592 140.118C140.352 136.598 136.067 134.212 131.367 133.313C128.878 132.826 126.334 132.679 123.806 132.877C121.181 133.092 118.591 133.61 116.086 134.421L115.947 134.463L115.966 134.321C116.118 133.279 116.001 132.216 115.626 131.233C115.242 130.233 114.656 129.323 113.904 128.561C113.152 127.798 112.251 127.199 111.257 126.801C110.242 126.392 109.136 126.259 108.053 126.415L107.648 126.481L107.987 126.245C108.823 125.664 109.411 124.792 109.637 123.799C109.863 122.806 109.709 121.765 109.207 120.88C108.705 119.994 107.891 119.328 106.923 119.012C105.956 118.695 104.905 118.752 103.977 119.17L103.842 119.232V119.081C103.923 108.887 104.004 98.2373 104.093 87.2634L104.193 87.3637H85.306L85.4064 87.2634C85.4913 98.2644 85.5762 108.945 85.6573 119.081V119.232L85.5183 119.17C84.5951 118.768 83.5557 118.721 82.5998 119.038C81.644 119.355 80.8391 120.014 80.3397 120.889C79.8404 121.764 79.6819 122.792 79.8946 123.776C80.1074 124.761 80.6764 125.632 81.4923 126.222L81.832 126.458L81.4229 126.392C80.3282 126.23 79.2103 126.364 78.1843 126.778C77.1764 127.187 76.2661 127.804 75.5132 128.589C74.0194 130.133 73.1972 132.271 73.5099 134.274L73.533 134.417L73.3941 134.375C70.8893 133.563 68.2985 133.044 65.6741 132.831C63.1441 132.635 60.5992 132.781 58.1085 133.267C53.3978 134.175 49.1055 136.578 45.8684 140.118C45.115 140.945 44.4392 141.839 43.8496 142.789C43.2664 143.706 42.7751 144.679 42.3828 145.692C40.902 149.491 40.8444 153.697 42.2207 157.535C42.8521 159.244 43.7944 160.823 44.9999 162.19L45.0848 162.286H44.9536C43.7507 162.331 42.5543 162.484 41.3792 162.746C41.0936 162.807 40.8157 162.896 40.5339 162.97C40.2521 163.043 39.9819 163.12 39.7117 163.22L38.9127 163.498L38.1407 163.823C36.2338 164.645 34.4737 165.773 32.9297 167.161C31.5916 168.354 30.4343 169.735 29.4943 171.261C28.6931 172.525 28.1342 173.927 27.8461 175.395C27.6077 176.556 27.5894 177.751 27.792 178.919C27.9391 179.77 28.2726 180.578 28.7686 181.285C29.0813 181.709 29.4622 182.078 29.8957 182.378L30.3473 182.671Z" fill="#263238"/>
<path d="M70.2057 43.6336L94.0257 15.9072L116.916 43.6336H107.984V88.8574H80.2533V43.6838L70.2057 43.6336Z" fill="#00AAD3"/>
<path d="M183.342 88.6914L166.478 93.8754L170.573 96.4577L181.918 103.518L185.566 105.799L183.342 88.6914Z" fill="#00AAD3"/>
<path d="M107.239 176.456L97.0752 171.376L121.181 134.119L130.97 143.503L150.115 113.086L159.673 120.1L176.846 92.0879L182.621 94.786L161.502 132.637L150.806 122.651L132.541 156.724L122.929 145.479L107.239 176.456Z" fill="#00AAD3"/>
<g opacity="0.3">
<path d="M117.186 166.852C114.87 165.308 111.882 165.154 109.161 165.694C108.261 165.872 107.266 166.103 106.478 165.636C105.691 165.169 105.428 164.189 105.119 163.32C103.529 158.951 99.1673 155.955 94.5778 155.191C89.9882 154.427 86.3058 154.805 82.1486 156.878C79.2216 158.262 76.7245 160.414 74.9226 163.104C74.3012 164.034 73.1702 165.93 73.1702 165.93C72.3403 166.54 71.2402 166.582 70.2212 166.748C68.1156 167.127 66.1654 168.109 64.6078 169.575C63.0502 171.042 61.9522 172.929 61.4474 175.008L119.757 174.086C120.853 171.523 119.498 168.385 117.186 166.852Z" fill="black"/>
</g>
<path d="M58.2551 178.826C60.077 172.369 67.2605 167.937 73.8495 169.211C75.2353 162.186 81.9555 156.608 89.1313 156.55C96.307 156.492 103.116 161.954 104.614 168.968C108.57 168.057 112.824 167.381 116.603 168.868C120.382 170.354 123.273 174.785 121.71 178.518" fill="#EBEBEB"/>
<path d="M121.71 178.533C121.71 178.533 121.71 178.494 121.741 178.421C121.771 178.347 121.798 178.239 121.841 178.1C121.905 177.926 121.951 177.744 121.976 177.56C122.035 177.315 122.07 177.066 122.08 176.815C122.165 175.154 121.668 173.516 120.675 172.183C119.999 171.228 119.15 170.407 118.174 169.763C117.018 169.02 115.723 168.521 114.368 168.296C112.831 168.04 111.266 167.994 109.717 168.157C108.004 168.346 106.305 168.651 104.633 169.068H104.544V168.979C103.853 166.001 102.303 163.291 100.086 161.186C97.6686 158.847 94.5859 157.315 91.262 156.801C89.161 156.497 87.0185 156.67 84.9934 157.306C81.219 158.499 77.9925 160.996 75.8915 164.351C74.9673 165.847 74.3139 167.495 73.9615 169.218V169.299H73.8766C72.468 169.041 71.0259 169.023 69.6113 169.245C68.9584 169.345 68.3134 169.49 67.6813 169.682L66.7819 169.994C66.4808 170.091 66.2106 170.241 65.9288 170.357C65.4001 170.601 64.8847 170.873 64.3848 171.172L63.6939 171.635L63.3542 171.862L63.0454 172.11L62.4433 172.592C62.2503 172.75 62.0804 172.932 61.9029 173.094C61.7253 173.256 61.5555 173.418 61.4011 173.588L60.961 174.09C60.0813 175.111 59.3604 176.258 58.8226 177.494C58.6373 177.923 58.5408 178.266 58.4366 178.49C58.3324 178.714 58.3092 178.834 58.3092 178.834C58.3092 178.834 58.4327 178.351 58.7608 177.475C59.283 176.225 59.9938 175.062 60.8684 174.028L61.3123 173.515C61.4667 173.345 61.6442 173.186 61.8141 173.017C61.9839 172.847 62.1576 172.669 62.3545 172.507L62.9566 172.017C63.0609 171.932 63.1612 171.847 63.2693 171.766L63.6051 171.534L64.3038 171.063C64.8106 170.758 65.3338 170.481 65.8709 170.234C66.1527 170.114 66.4268 169.959 66.7279 169.848L67.6388 169.527C68.2795 169.331 68.9336 169.181 69.5958 169.079C71.0286 168.846 72.4907 168.859 73.919 169.118L73.8187 169.187C74.1726 167.44 74.8339 165.77 75.7718 164.254C76.7872 162.619 78.0789 161.171 79.5894 159.978C81.1792 158.711 82.9853 157.744 84.92 157.121C86.9739 156.475 89.147 156.301 91.2775 156.612C94.6418 157.13 97.7619 158.681 100.206 161.051C102.448 163.187 104.013 165.934 104.706 168.952L104.594 168.883C106.278 168.476 107.986 168.184 109.709 168.006C111.273 167.845 112.853 167.899 114.403 168.165C115.779 168.396 117.093 168.909 118.263 169.67C119.248 170.329 120.101 171.165 120.779 172.137C121.775 173.489 122.262 175.15 122.154 176.826C122.137 177.08 122.096 177.332 122.034 177.579C122.001 177.76 121.951 177.937 121.883 178.108C121.833 178.243 121.795 178.347 121.768 178.428C121.753 178.465 121.733 178.5 121.71 178.533Z" fill="#263238"/>
<path d="M85.4064 79.462C85.6534 94.9677 73.2976 107.783 57.8653 108.026C42.433 108.269 29.6873 95.8632 29.4287 80.3576C29.17 64.8519 41.5336 52.0367 56.9659 51.7936C72.3982 51.5504 85.1593 63.9603 85.4064 79.462ZM44.0349 80.1298C44.0902 82.7732 44.9272 85.3411 46.4404 87.5092C47.9536 89.6774 50.0751 91.3488 52.5373 92.3124C54.9995 93.276 57.6919 93.4887 60.2748 92.9236C62.8577 92.3585 65.2153 91.041 67.0502 89.1373C68.885 87.2336 70.1149 84.829 70.5845 82.227C71.0541 79.6251 70.7424 76.9423 69.6888 74.5173C68.6351 72.0923 66.8868 70.0337 64.6644 68.6014C62.4419 67.1691 59.845 66.4271 57.2014 66.4693C53.6447 66.5372 50.2604 68.014 47.7917 70.5754C45.3231 73.1367 43.9719 76.573 44.0349 80.1298Z" fill="#E0E0E0"/>
<path d="M85.4064 79.4615C85.6534 94.9671 73.2975 107.782 57.8653 108.025L57.6298 93.3575C61.1955 93.3007 64.5925 91.8297 67.0737 89.2682C69.5548 86.7067 70.9168 83.2646 70.86 79.6989C70.8031 76.1332 69.3322 72.7361 66.7707 70.255C64.2092 67.7739 60.767 66.4119 57.2013 66.4687L56.9659 51.8007C72.3982 51.546 85.1555 63.9597 85.4064 79.4615Z" fill="#455A64"/>
<path d="M57.6761 108.226L57.4368 93.1723H57.6298C60.2457 93.1185 62.7873 92.2921 64.9344 90.7969C67.0816 89.3017 68.7384 87.2047 69.6962 84.7699C70.6541 82.335 70.8701 79.6713 70.3172 77.1139C69.7643 74.5565 68.467 72.2199 66.5889 70.3983C65.3502 69.185 63.8828 68.2299 62.272 67.5885C60.6611 66.947 58.9388 66.6321 57.2052 66.6618H57.0122L56.769 51.6078H56.962C64.4509 51.5119 71.6719 54.3907 77.0407 59.6126C82.4095 64.8345 85.4875 71.9729 85.5994 79.4616C85.8464 95.0753 73.4095 107.979 57.8691 108.23L57.6761 108.226ZM57.8267 93.5583L58.0544 107.84C73.2937 107.489 85.4604 94.8012 85.2134 79.4693C85.1036 72.1164 82.095 65.1043 76.8419 59.9582C71.5889 54.8121 64.5163 51.9484 57.1628 51.9899L57.3905 66.2719C60.9507 66.3017 64.3582 67.7222 66.8854 70.2302C69.4125 72.7381 70.859 76.1346 70.9159 79.6945C70.9728 83.2544 69.6357 86.6955 67.1901 89.283C64.7445 91.8704 61.3841 93.3992 57.8267 93.5428V93.5583Z" fill="#455A64"/>
<path d="M60.3781 110.288C42.3249 110.581 27.9194 96.5694 27.6299 78.4274L44.7181 78.1533C44.8571 86.8267 51.4577 92.2848 60.0886 92.1458L60.3781 110.288Z" fill="#00AAD3"/>
<path d="M37.442 78.7438C37.5501 78.8171 35.9366 81.3531 33.8368 84.3987C31.737 87.4442 29.9421 89.8606 29.834 89.8027C29.7259 89.7448 31.3432 87.1933 33.4431 84.1439C35.5429 81.0945 37.3378 78.6511 37.442 78.7438Z" fill="#263238"/>
<path d="M44.8764 80.1525C44.9844 80.2297 42.5951 83.8851 39.5418 88.3202C36.4886 92.7554 33.9178 96.2873 33.8097 96.2139C33.7017 96.1406 36.091 92.4852 39.1481 88.0501C42.2052 83.6149 44.776 80.0791 44.8764 80.1525Z" fill="#263238"/>
<path d="M48.4893 87.7523C48.6013 87.8257 46.4474 91.1376 43.6875 95.1443C40.9276 99.1509 38.6 102.339 38.4919 102.266C38.3839 102.193 40.5339 98.8807 43.2938 94.874C46.0537 90.8674 48.3813 87.6751 48.4893 87.7523Z" fill="#263238"/>
<path d="M54.7812 91.9559C54.8893 92.0292 52.7392 95.3373 49.9793 99.3478C47.2194 103.358 44.8919 106.535 44.7761 106.47C44.6603 106.404 46.818 103.084 49.5818 99.0738C52.3455 95.0632 54.6731 91.8671 54.7812 91.9559Z" fill="#263238"/>
<path d="M60.1697 97.2715C60.2816 97.3487 58.5214 100.085 56.2479 103.39C53.9744 106.694 52.0366 109.326 51.9286 109.237C51.8205 109.149 53.5768 106.424 55.8542 103.119C58.1316 99.8152 60.0616 97.2136 60.1697 97.2715Z" fill="#263238"/>
<path d="M149.289 25.9234C149.289 25.9234 150.976 22.0402 151.057 21.4303C151.138 20.8204 150.972 19.4733 150.536 19.1143C150.355 18.939 150.122 18.8261 149.872 18.7921C149.622 18.7581 149.368 18.8047 149.147 18.9252C149.119 18.6806 149.015 18.4511 148.848 18.2699C148.682 18.0888 148.462 17.9654 148.22 17.9177C148.124 17.8839 148.021 17.874 147.92 17.8888C147.819 17.9036 147.724 17.9427 147.641 18.0027C147.559 18.0627 147.492 18.1418 147.447 18.2332C147.402 18.3247 147.38 18.4257 147.383 18.5276C147.388 18.3538 147.332 18.1835 147.225 18.0466C147.118 17.9097 146.966 17.8149 146.796 17.7788C146.572 17.7434 146.343 17.7771 146.14 17.8753C146.14 17.8753 145.317 17.1419 144.765 17.5973C144.213 18.0528 144.85 25.1282 144.85 25.1282L149.289 25.9234Z" fill="#FFBF9D"/>
<path d="M144.75 24.3175C144.75 24.3175 143.245 21.7275 143.252 21.0211C143.26 20.3147 144.105 18.7051 144.576 18.5121C145.047 18.3191 146.892 17.8906 146.892 17.8906C146.892 17.8906 147.664 18.6047 146.526 19.3111L145.236 20.0715C145.236 20.0715 147.305 20.7625 147.24 22.8777" fill="#FFBF9D"/>
<path d="M147.24 22.8583C147.207 22.526 147.142 22.1977 147.047 21.8778C146.91 21.5238 146.704 21.2009 146.441 20.9283C146.093 20.5772 145.672 20.3059 145.209 20.1331L145.036 20.0675L145.194 19.9787L146.506 19.2067C146.73 19.0807 146.908 18.8858 147.012 18.6509C147.049 18.5299 147.051 18.401 147.018 18.2789C146.985 18.1567 146.919 18.0462 146.827 17.9599L146.915 17.9831L145.923 18.2185L145.151 18.4231C145.024 18.4617 144.897 18.4965 144.765 18.5389C144.706 18.5572 144.648 18.5791 144.592 18.6045C144.544 18.6324 144.498 18.6647 144.457 18.701C144.134 19.0579 143.873 19.4663 143.685 19.9092C143.584 20.112 143.501 20.3224 143.434 20.5384C143.363 20.7321 143.335 20.9389 143.353 21.1444C143.444 21.5181 143.574 21.8815 143.739 22.2291C144.032 22.8814 144.302 23.3871 144.484 23.7538C144.585 23.9355 144.674 24.1238 144.75 24.3173C144.621 24.1547 144.507 23.9803 144.41 23.7962C144.21 23.4488 143.92 22.9432 143.607 22.2908C143.427 21.9356 143.285 21.5615 143.187 21.1753C143.159 20.945 143.184 20.7112 143.26 20.4921C143.33 20.2671 143.414 20.0467 143.511 19.832C143.711 19.3629 143.99 18.9319 144.337 18.5582C144.392 18.5084 144.453 18.4656 144.518 18.4308C144.581 18.4015 144.646 18.3757 144.711 18.3536C144.839 18.3112 144.97 18.2726 145.097 18.2378C145.355 18.1658 145.612 18.0963 145.869 18.0294L146.869 17.7939H146.923L146.958 17.8287C147.079 17.9415 147.165 18.0863 147.207 18.2462C147.248 18.4061 147.244 18.5745 147.193 18.7319C147.072 19.0075 146.865 19.2363 146.603 19.3843L145.271 20.1254V19.971C145.755 20.1592 146.19 20.4533 146.545 20.8318C146.817 21.1224 147.022 21.4688 147.147 21.8469C147.191 21.9853 147.222 22.1275 147.24 22.2715C147.259 22.3771 147.267 22.4846 147.263 22.5919C147.267 22.6813 147.259 22.7709 147.24 22.8583Z" fill="#FF9A6C"/>
<path d="M147.228 18.5781C147.02 19.3314 146.946 20.1152 147.008 20.8941C147.008 21.1562 147.096 21.4107 147.259 21.6159C147.35 21.7036 147.46 21.7677 147.581 21.8027C147.703 21.8377 147.83 21.8425 147.954 21.8167C148.203 21.7569 148.428 21.6222 148.598 21.4307" fill="#FFBF9D"/>
<path d="M148.61 21.4615C148.61 21.4615 148.486 21.7278 148.058 21.8822C147.929 21.9239 147.792 21.9351 147.658 21.915C147.524 21.8949 147.397 21.844 147.286 21.7664C147.167 21.6538 147.072 21.5171 147.01 21.3654C146.947 21.2136 146.918 21.0503 146.923 20.8863C146.83 20.0993 146.941 19.3015 147.247 18.5703C147.14 19.3296 147.099 20.0967 147.124 20.8632C147.118 21.0002 147.139 21.1371 147.187 21.2657C147.235 21.3943 147.308 21.5121 147.402 21.612C147.491 21.6766 147.593 21.7214 147.701 21.7433C147.808 21.7653 147.92 21.7639 148.027 21.7394C148.231 21.6696 148.427 21.5763 148.61 21.4615Z" fill="#FF9A6C"/>
<path d="M145.572 19.9756C145.474 20.2463 145.453 20.5388 145.51 20.8209C145.511 21.0025 145.568 21.1795 145.674 21.327C145.779 21.4744 145.929 21.585 146.101 21.6431C146.394 21.7126 146.773 21.3227 146.946 20.9136" fill="#FFBF9D"/>
<path d="M146.946 20.913C146.966 20.913 146.946 21.106 146.765 21.3492C146.667 21.4974 146.535 21.6193 146.379 21.7043C146.266 21.7488 146.141 21.7488 146.028 21.7043C145.912 21.6658 145.807 21.5995 145.723 21.5113C145.568 21.3483 145.471 21.1398 145.445 20.9169C145.436 20.7471 145.436 20.5771 145.445 20.4074C145.445 20.1024 145.588 19.948 145.603 19.9596C145.619 19.9712 145.568 20.141 145.603 20.4074L145.657 20.8899C145.689 21.0703 145.772 21.2379 145.896 21.3724C145.96 21.4364 146.036 21.4863 146.12 21.519C146.191 21.548 146.27 21.548 146.34 21.519C146.478 21.4564 146.601 21.3641 146.699 21.2488C146.838 21.0597 146.915 20.9014 146.946 20.913Z" fill="#FF9A6C"/>
<path d="M149.285 18.96C148.861 19.421 148.552 19.9768 148.386 20.5812C148.322 20.7315 148.3 20.8963 148.323 21.0581C148.345 21.2199 148.411 21.3725 148.513 21.4998C148.656 21.595 148.825 21.6429 148.996 21.6367C149.167 21.6304 149.332 21.5704 149.467 21.4651C149.688 21.3265 149.878 21.1439 150.025 20.9288C150.173 20.7137 150.274 20.4705 150.324 20.2145" fill="#FFBF9D"/>
<path d="M150.324 20.2148C150.333 20.493 150.246 20.7659 150.077 20.9868C149.914 21.2435 149.69 21.4557 149.424 21.6044C149.261 21.6942 149.078 21.7432 148.892 21.7472C148.784 21.7493 148.677 21.7243 148.581 21.6744C148.485 21.6245 148.404 21.5513 148.344 21.4616C148.239 21.2837 148.199 21.0749 148.232 20.871C148.253 20.6954 148.296 20.523 148.359 20.3576C148.456 20.0857 148.586 19.8265 148.745 19.5856C148.875 19.3471 149.059 19.1422 149.282 18.9873C149.305 19.0105 149.1 19.2382 148.865 19.6589C148.728 19.9042 148.617 20.1629 148.533 20.4309C148.477 20.5841 148.441 20.7436 148.425 20.9057C148.401 21.0648 148.43 21.2272 148.506 21.3689C148.679 21.643 149.077 21.5889 149.336 21.4538C149.579 21.3256 149.791 21.1434 149.953 20.9212C150.097 20.6969 150.221 20.4606 150.324 20.2148Z" fill="#FF9A6C"/>
<path d="M128.333 50.7934C128.333 50.7934 130.425 48.5353 131.252 48.0296C132.078 47.524 137.52 41.0353 138.095 39.3292C138.67 37.623 144.009 23.9162 143.885 24.1015C143.762 24.2868 150.663 25.549 150.663 25.549C150.663 25.549 145.549 41.375 144.924 43.166C143.797 46.4431 138.211 53.0785 135.03 57.062C133.672 58.7565 131.796 64.1837 131.796 64.1837L128.333 50.7934Z" fill="#263238"/>
<path d="M133.321 59.305C133.217 58.8989 133.151 58.4842 133.124 58.066C133.035 57.294 132.954 56.2286 132.935 55.0474C132.915 53.8663 132.958 52.7932 133.019 52.0212C133.035 51.602 133.087 51.1848 133.174 50.7744C133.204 51.1921 133.204 51.6113 133.174 52.0289C133.147 52.8009 133.128 53.8663 133.147 55.0436C133.166 56.2209 133.224 57.2824 133.278 58.0544C133.323 58.4697 133.337 58.8877 133.321 59.305Z" fill="#455A64"/>
<path d="M98.816 139.87L95.8747 145.865L95.4887 147.332C95.4887 147.332 97.4534 156.237 96.2259 157.117L87.4714 142.985L89.7257 141.565L92.5319 135.574L98.816 139.87Z" fill="#455A64"/>
<path d="M87.4946 142.986L88.6024 142.349L96.581 156.137C96.581 156.137 96.7123 156.928 96.2491 157.117L87.4946 142.986Z" fill="#263238"/>
<path d="M95.728 147.517C95.6585 147.555 95.4153 147.231 94.9946 147.019C94.5738 146.807 94.1878 146.803 94.1762 146.722C94.1647 146.641 94.6047 146.509 95.1065 146.772C95.6083 147.034 95.7897 147.494 95.728 147.517Z" fill="#263238"/>
<path d="M96.0599 149.382C96.0059 149.436 95.7087 149.208 95.2879 149.142C94.8672 149.077 94.5159 149.196 94.4928 149.142C94.4696 149.088 94.7977 148.795 95.3188 148.884C95.8399 148.973 96.114 149.32 96.0599 149.382Z" fill="#263238"/>
<path d="M94.902 151.25C94.8479 151.196 95.1181 150.895 95.5852 150.864C96.0523 150.833 96.3919 151.053 96.3572 151.115C96.3225 151.177 96.0059 151.115 95.6238 151.142C95.2417 151.169 94.956 151.312 94.902 151.25Z" fill="#263238"/>
<path d="M128.816 95.7703C128.53 96.4496 113.762 119.058 110.732 121.571C107.702 124.083 97.3607 144.703 97.3607 144.703C97.3607 144.703 88.9112 140.608 88.7221 141.052C88.5329 141.496 94.6472 126.496 98.2949 120.335C101.943 114.175 103.645 111.793 103.645 111.793L110.902 92.4429C110.902 92.4429 111.052 86.0701 111.982 83.592C112.913 81.1138 115.646 78.96 115.646 78.96L128.816 95.7703Z" fill="#263238"/>
<path d="M115.514 123.092L107.659 123.655C107.659 123.655 105.644 132.259 104.185 132.514L102.456 116.495L114.654 115.09L115.514 123.092Z" fill="#455A64"/>
<path d="M107.787 118.629C107.733 118.478 107.623 118.352 107.479 118.28C107.335 118.208 107.168 118.195 107.015 118.243C106.871 118.306 106.755 118.419 106.69 118.561C106.624 118.704 106.613 118.866 106.66 119.015C106.72 119.169 106.837 119.294 106.985 119.365C107.134 119.437 107.305 119.45 107.462 119.401C107.608 119.32 107.718 119.186 107.77 119.028C107.822 118.869 107.813 118.697 107.744 118.544" fill="#E0E0E0"/>
<path d="M102.475 116.494L103.71 116.405L104.903 131.795C104.903 131.795 104.687 132.54 104.204 132.513L102.475 116.494Z" fill="#263238"/>
<path d="M107.767 123.906C107.69 123.906 107.617 123.52 107.335 123.165C107.053 122.809 106.721 122.636 106.744 122.559C106.768 122.481 107.208 122.559 107.54 122.995C107.872 123.431 107.837 123.906 107.767 123.906Z" fill="#263238"/>
<path d="M107.308 125.658C107.239 125.681 107.076 125.357 106.733 125.125C106.389 124.893 106.05 124.855 106.046 124.778C106.042 124.7 106.455 124.604 106.876 124.897C107.296 125.191 107.358 125.646 107.308 125.658Z" fill="#263238"/>
<path d="M105.486 126.82C105.463 126.751 105.822 126.6 106.258 126.758C106.694 126.917 106.883 127.26 106.825 127.303C106.768 127.345 106.528 127.14 106.173 127.017C105.818 126.893 105.501 126.897 105.486 126.82Z" fill="#263238"/>
<path d="M109.539 123.566C109.47 123.543 109.539 123.18 109.458 122.732C109.377 122.284 109.211 121.96 109.269 121.914C109.327 121.868 109.632 122.169 109.713 122.686C109.794 123.203 109.624 123.597 109.539 123.566Z" fill="#263238"/>
<path d="M108.636 89.8408C108.636 89.8408 108.617 97.3755 112.037 99.9193C115.456 102.463 127.314 112.036 127.314 112.036L108.381 115.27L109.798 124.048C109.798 124.048 135.355 121.47 138.481 120.424C141.608 119.378 143.858 114.085 141.411 110.388C140.18 108.543 127.457 90.4546 127.457 90.4546L127.071 85.6025L111.033 86.6139L108.636 89.8408Z" fill="#263238"/>
<path d="M109.798 124.049C109.781 124 109.77 123.949 109.763 123.898C109.74 123.782 109.713 123.632 109.678 123.443C109.605 123.03 109.504 122.447 109.377 121.698C109.122 120.154 108.755 117.977 108.308 115.283V115.209H108.381L125.666 112.229L127.307 111.948L127.26 112.125C124.593 109.921 122.057 107.845 119.745 105.98L116.456 103.355C115.426 102.541 114.434 101.811 113.615 101.039C112.314 99.8494 111.181 98.4886 110.245 96.9941C109.993 96.5886 109.765 96.1684 109.562 95.7357C109.489 95.589 109.443 95.4732 109.412 95.396C109.393 95.3583 109.38 95.3179 109.373 95.2764C109.396 95.3117 109.415 95.3492 109.431 95.3883C109.466 95.4655 109.52 95.5774 109.597 95.7203C109.812 96.1428 110.049 96.5538 110.307 96.9516C111.263 98.4224 112.406 99.7627 113.708 100.939C114.526 101.692 115.518 102.41 116.553 103.224C117.587 104.039 118.699 104.907 119.857 105.833C122.173 107.694 124.72 109.763 127.388 111.967L127.558 112.106L127.341 112.141L125.701 112.422L108.408 115.352L108.47 115.267C108.891 117.969 109.242 120.162 109.47 121.69C109.582 122.443 109.67 123.03 109.732 123.443C109.759 123.636 109.778 123.786 109.794 123.902C109.801 123.951 109.802 124 109.798 124.049Z" fill="#455A64"/>
<path d="M132.421 112.58C132.421 112.638 131.298 112.31 129.893 112.163C128.488 112.016 127.334 112.097 127.33 112.036C127.574 111.961 127.827 111.923 128.083 111.924C128.693 111.886 129.305 111.9 129.912 111.966C130.521 112.028 131.123 112.142 131.711 112.31C131.961 112.36 132.201 112.451 132.421 112.58Z" fill="#455A64"/>
<path d="M120.733 26.6335C120.848 26.2898 121.066 25.9897 121.357 25.7742C121.649 25.5588 122 25.4383 122.362 25.4292C122.726 25.034 123.212 24.7725 123.743 24.6864C124.273 24.6003 124.817 24.6947 125.288 24.9544C125.569 24.7165 125.906 24.5549 126.267 24.4851C126.628 24.4154 127.002 24.4399 127.351 24.5562C127.7 24.6726 128.013 24.8769 128.26 25.1495C128.507 25.422 128.68 25.7537 128.762 26.1124C129.117 25.9953 129.5 25.9898 129.859 26.0968C130.218 26.2037 130.536 26.418 130.769 26.7107C130.993 27.0128 131.12 27.3756 131.133 27.7512C131.146 28.1268 131.045 28.4976 130.842 28.8144C131.267 28.8713 131.656 29.0839 131.933 29.411C132.21 29.7381 132.355 30.1563 132.341 30.5847C132.327 31.013 132.155 31.4209 131.857 31.7293C131.56 32.0377 131.158 32.2246 130.73 32.2537L121.409 28.5635C121.111 28.3507 120.886 28.051 120.765 27.7055C120.644 27.3601 120.633 26.9856 120.733 26.6335Z" fill="#263238"/>
<path d="M131.047 32.4468C130.575 30.6716 129.454 29.1382 127.906 28.1497C126.358 27.1612 124.495 26.7896 122.686 27.1084L122.3 27.174C118.336 28.139 117.745 32.0801 118.826 36.052L121.903 50.9516L129.275 55.3327L130.163 52.0787V46.7751C130.163 46.7751 133.907 45.4743 133.251 41.5911C132.923 39.6959 131.958 35.8976 131.047 32.4468Z" fill="#FFBF9D"/>
<path d="M130.182 46.7442C128.393 47.0695 126.548 46.8725 124.867 46.1768C124.867 46.1768 126.376 48.9637 130.155 47.9138L130.182 46.7442Z" fill="#FF9A6C"/>
<path d="M130.568 36.0986C130.597 36.2418 130.568 36.3905 130.488 36.5126C130.408 36.6346 130.283 36.7203 130.14 36.7509C130.071 36.7694 130 36.7741 129.93 36.7646C129.859 36.7552 129.792 36.7318 129.731 36.6958C129.67 36.6599 129.616 36.6121 129.574 36.5553C129.531 36.4984 129.501 36.4337 129.484 36.3649C129.455 36.2212 129.484 36.072 129.564 35.9493C129.644 35.8266 129.769 35.7402 129.912 35.7087C129.981 35.6902 130.053 35.6857 130.123 35.6954C130.194 35.7051 130.261 35.7288 130.322 35.7652C130.384 35.8015 130.437 35.8497 130.479 35.907C130.521 35.9642 130.552 36.0294 130.568 36.0986Z" fill="#263238"/>
<path d="M130.642 34.6812C130.584 34.7662 130.113 34.5307 129.522 34.6426C128.932 34.7546 128.538 35.1251 128.472 35.0672C128.407 35.0093 128.472 34.8974 128.646 34.7237C128.868 34.4975 129.156 34.3475 129.468 34.2952C129.776 34.2378 130.094 34.2811 130.375 34.4188C130.584 34.523 130.669 34.6426 130.642 34.6812Z" fill="#263238"/>
<path d="M125.4 37.2642C125.429 37.4079 125.4 37.5571 125.32 37.6798C125.239 37.8025 125.114 37.8888 124.971 37.9204C124.903 37.9384 124.832 37.9426 124.761 37.9329C124.691 37.9233 124.624 37.8998 124.563 37.8639C124.502 37.828 124.449 37.7805 124.406 37.7239C124.364 37.6673 124.333 37.6029 124.315 37.5344C124.287 37.3911 124.315 37.2424 124.396 37.1204C124.476 36.9983 124.601 36.9127 124.744 36.882C124.812 36.8634 124.883 36.8586 124.953 36.8678C125.023 36.877 125.091 36.9001 125.152 36.9356C125.213 36.9712 125.266 37.0186 125.309 37.075C125.351 37.1314 125.382 37.1957 125.4 37.2642Z" fill="#263238"/>
<path d="M124.964 35.6274C124.906 35.7123 124.435 35.4807 123.844 35.5888C123.254 35.6968 122.871 36.0751 122.794 36.0134C122.717 35.9516 122.794 35.8435 122.964 35.6698C123.189 35.4455 123.477 35.2958 123.79 35.2414C124.098 35.1842 124.416 35.2275 124.697 35.3649C124.906 35.473 124.991 35.5888 124.964 35.6274Z" fill="#263238"/>
<path d="M127.712 39.6881C128.006 39.5314 128.318 39.4133 128.642 39.3369C128.793 39.2944 128.928 39.2403 128.936 39.1323C128.921 38.9728 128.858 38.8218 128.754 38.7L128.094 37.623C127.175 36.079 126.481 34.8129 126.55 34.7743C126.62 34.7357 127.407 35.9555 128.326 37.4763C128.55 37.8623 128.766 38.2175 128.966 38.5649C129.095 38.7312 129.162 38.9373 129.156 39.1477C129.143 39.205 129.118 39.2588 129.082 39.3049C129.046 39.3511 129 39.3884 128.947 39.4141C128.868 39.4532 128.783 39.4818 128.696 39.499C128.377 39.6015 128.046 39.665 127.712 39.6881Z" fill="#263238"/>
<path d="M126.044 40.4176C126.141 40.3944 126.261 41.0391 126.894 41.398C127.527 41.757 128.198 41.5602 128.218 41.6489C128.237 41.7377 128.09 41.8033 127.801 41.8651C127.425 41.9376 127.036 41.8761 126.701 41.6914C126.379 41.5097 126.14 41.2111 126.033 40.8576C125.959 40.5913 126.002 40.4215 126.044 40.4176Z" fill="#263238"/>
<path d="M124.678 33.9252C124.636 34.0951 124.099 34.0488 123.481 34.1723C122.864 34.2958 122.37 34.5158 122.281 34.373C122.238 34.3074 122.316 34.1453 122.509 33.987C122.756 33.7808 123.053 33.6413 123.369 33.5817C123.686 33.518 124.015 33.542 124.319 33.6512C124.554 33.7245 124.678 33.848 124.678 33.9252Z" fill="#263238"/>
<path d="M130.209 33.0762C130.144 33.2345 129.708 33.2036 129.221 33.3271C128.735 33.4506 128.357 33.6552 128.225 33.5394C128.167 33.4854 128.194 33.3348 128.341 33.1534C128.538 32.9364 128.796 32.7836 129.081 32.7147C129.366 32.6459 129.665 32.6643 129.939 32.7674C130.144 32.8755 130.236 32.999 130.209 33.0762Z" fill="#263238"/>
<path d="M130.352 30.7369C130.352 30.7369 128.897 28.4942 127.631 28.143C126.087 27.7107 125.774 29.3782 124.361 29.2431C122.949 29.108 121.49 28.695 120.305 29.9881C119.012 31.4047 119.861 32.0763 120.081 33.8133C120.969 40.8501 120.081 43.0542 119.108 39.8349C119.004 39.4837 117.95 39.3756 117.533 37.8818C116.985 35.9518 116.476 33.5701 116.661 32.0918C116.815 30.845 117.332 29.9109 118.371 28.7953C120.004 27.0313 122.597 26.5295 124.392 26.3867C126.187 26.2439 129.962 27.6721 130.352 30.7369Z" fill="#263238"/>
<path d="M119.822 39.5956C119.792 39.4549 119.733 39.3217 119.65 39.2041C119.567 39.0866 119.461 38.9871 119.338 38.9117C119.216 38.8363 119.079 38.7865 118.937 38.7654C118.794 38.7443 118.649 38.7523 118.51 38.7889C117.803 38.9858 117.078 39.5609 117.394 41.0277C117.962 43.6602 120.482 42.5524 120.463 42.4752C120.444 42.398 120.069 40.6957 119.822 39.5956Z" fill="#FFBF9D"/>
<path d="M119.679 41.6067C119.679 41.6067 119.641 41.6491 119.571 41.7032C119.472 41.7717 119.35 41.7994 119.232 41.7804C119.041 41.7073 118.873 41.5854 118.745 41.4268C118.617 41.2682 118.533 41.0786 118.502 40.8771C118.45 40.651 118.45 40.4162 118.502 40.19C118.508 40.1029 118.536 40.0187 118.583 39.9447C118.629 39.8707 118.693 39.8092 118.768 39.7654C118.818 39.7406 118.875 39.734 118.929 39.7466C118.984 39.7593 119.032 39.7905 119.066 39.8349C119.116 39.9005 119.112 39.9546 119.123 39.9584C119.135 39.9623 119.17 39.9005 119.123 39.7963C119.094 39.7345 119.045 39.6842 118.984 39.6535C118.942 39.636 118.897 39.627 118.851 39.627C118.806 39.627 118.76 39.636 118.718 39.6535C118.616 39.6991 118.527 39.7697 118.46 39.8587C118.392 39.9478 118.348 40.0525 118.332 40.163C118.27 40.4166 118.27 40.6815 118.332 40.935C118.37 41.172 118.476 41.3928 118.638 41.5699C118.8 41.747 119.01 41.8725 119.243 41.9309C119.315 41.9338 119.387 41.9207 119.454 41.8927C119.521 41.8647 119.581 41.8224 119.629 41.7688C119.687 41.6877 119.691 41.6105 119.679 41.6067Z" fill="#FF9A6C"/>
<path d="M118.452 34.543C118.823 34.7486 119.24 34.8575 119.664 34.8595C119.873 34.8526 120.073 34.771 120.228 34.6294C120.382 34.4878 120.48 34.2955 120.505 34.0875C120.505 33.8983 120.42 33.7015 120.505 33.5278C120.59 33.3541 120.891 33.3386 121.119 33.3232C121.513 33.282 121.88 33.1056 122.158 32.824C122.436 32.5425 122.607 32.1732 122.644 31.7792C122.785 31.8891 122.962 31.9419 123.14 31.9268C123.318 31.9118 123.484 31.8301 123.605 31.6981C123.838 31.425 124.033 31.1211 124.184 30.7949C124.259 30.6322 124.374 30.4906 124.517 30.3829C124.661 30.2751 124.829 30.2045 125.006 30.1773C125.203 30.208 125.402 30.2158 125.6 30.2005C125.94 30.1078 126.037 29.6678 126.025 29.3127C126.014 28.9575 125.983 28.5407 126.241 28.3091C126.52 28.133 126.853 28.0631 127.179 28.1122C127.503 28.1122 127.901 27.9501 127.928 27.622C127.926 27.5356 127.907 27.4505 127.872 27.3717C127.837 27.2928 127.786 27.2217 127.723 27.1626C127.452 26.8806 127.093 26.6991 126.706 26.6479C126.318 26.5967 125.924 26.6789 125.589 26.8809C125.383 26.4623 125.057 26.1149 124.652 25.8833C124.247 25.6516 123.782 25.5462 123.317 25.5806C122.852 25.615 122.408 25.7877 122.042 26.0765C121.675 26.3653 121.404 26.757 121.262 27.2012C120.936 26.996 120.566 26.8731 120.182 26.843C119.798 26.8129 119.413 26.8766 119.059 27.0285C118.705 27.1805 118.394 27.4161 118.152 27.7152C117.909 28.0143 117.743 28.3678 117.668 28.7452C117.33 28.7234 116.993 28.7996 116.697 28.9646C116.402 29.1296 116.16 29.3764 116.001 29.6755C115.85 29.9797 115.789 30.3204 115.824 30.658C115.86 30.9956 115.991 31.3162 116.201 31.5823C115.978 31.7494 115.801 31.9707 115.686 32.2253C115.572 32.48 115.525 32.7595 115.549 33.0376C115.638 33.5857 116.267 34.0373 116.769 33.8096C116.714 34.0417 116.744 34.2858 116.853 34.498C116.962 34.7102 117.143 34.8767 117.363 34.9676C117.594 35.0417 117.844 35.0288 118.066 34.9314C118.288 34.834 118.466 34.6588 118.568 34.4387" fill="#263238"/>
<path d="M116.572 33.8206C116.579 33.9147 116.605 34.0064 116.65 34.0895C116.694 34.1727 116.756 34.2455 116.831 34.3031C116.991 34.4466 117.199 34.5251 117.413 34.5231C117.551 34.52 117.687 34.4866 117.81 34.4252C117.934 34.3638 118.042 34.276 118.128 34.168H118.012C118.196 34.3929 118.417 34.586 118.664 34.7392C118.828 34.8431 119.01 34.9151 119.201 34.9515C119.38 34.9837 119.566 34.9678 119.737 34.9052C119.889 34.8658 120.029 34.7935 120.149 34.6934C120.269 34.5933 120.366 34.4679 120.432 34.3262C120.507 34.1384 120.545 33.9379 120.544 33.7356C120.544 33.5928 120.544 33.5156 120.525 33.5156C120.501 33.5842 120.487 33.6556 120.482 33.7279C120.462 33.9177 120.412 34.1028 120.332 34.276C120.255 34.4068 120.152 34.5201 120.029 34.6085C119.906 34.697 119.765 34.7587 119.617 34.7896C119.469 34.8205 119.315 34.82 119.167 34.788C119.019 34.7561 118.879 34.6934 118.757 34.6041C118.518 34.4612 118.302 34.2829 118.116 34.0753L118.054 34.0058L118 34.0792C117.929 34.1718 117.839 34.2479 117.736 34.3025C117.632 34.3572 117.519 34.3889 117.402 34.3957C117.214 34.4058 117.028 34.3468 116.881 34.2297C116.752 34.1152 116.647 33.9761 116.572 33.8206Z" fill="#455A64"/>
<path d="M120.459 26.8695C120.459 26.8695 120.532 26.8695 120.656 26.9042C120.838 26.9449 121.004 27.0405 121.131 27.1783L121.169 27.2246L121.196 27.1667C121.447 26.6599 121.821 26.2245 122.285 25.9006C122.581 25.6891 122.919 25.5443 123.277 25.476C123.666 25.4062 124.067 25.4463 124.435 25.5918C124.725 25.7066 124.989 25.8815 125.207 26.1052C125.409 26.3154 125.559 26.5708 125.643 26.8502L125.666 26.9351L125.743 26.8965C126.055 26.745 126.411 26.7092 126.747 26.7954C127.082 26.8817 127.377 27.0844 127.577 27.3674C127.733 27.5996 127.837 27.863 127.882 28.1394C127.898 28.0656 127.898 27.9893 127.882 27.9155C127.847 27.7083 127.768 27.5109 127.65 27.3365C127.474 27.0597 127.213 26.8481 126.905 26.7344C126.709 26.6618 126.5 26.6288 126.29 26.6374C126.081 26.646 125.875 26.696 125.685 26.7845L125.782 26.8309C125.698 26.525 125.539 26.245 125.319 26.0164C125.053 25.7413 124.723 25.5358 124.359 25.418C123.995 25.3003 123.607 25.2738 123.23 25.3409C122.855 25.4176 122.5 25.5728 122.188 25.7964C121.712 26.1382 121.337 26.6023 121.104 27.1397H121.173C121.03 26.9973 120.844 26.9052 120.644 26.8772C120.528 26.8424 120.459 26.8617 120.459 26.8695Z" fill="#455A64"/>
<path d="M124.859 91.2157C125.226 91.2466 126.481 91.6905 128.11 88.6758C129.738 85.6612 131.302 74.498 131.302 74.498L124.859 91.2157Z" fill="#E0E0E0"/>
<path d="M131.888 70.1937L132.074 59.405L129.904 51.1485C129.904 51.1485 128.387 48.7707 126.732 47.5625C125.662 46.7436 124.44 46.1453 123.138 45.8024L120.652 45.2002L120.386 47.2614L127.6 55.5373L131.888 70.1937Z" fill="#E0E0E0"/>
<path d="M120.432 45.9336C120.432 45.9336 126.369 46.4431 129.241 53.6189C130.785 57.4789 131.722 67.8044 131.904 69.4178C132.085 71.0313 131.479 74.7331 130.379 79.7202C130.163 80.689 129.387 83.2366 127.272 89.4165C125.006 96.0248 123.2 100.904 123.2 100.904L104.216 93.5699L113.658 77.0105C113.658 77.0105 113.16 71.9075 113.183 71.4212C113.364 67.6268 112.627 65.4922 113.882 58.2007C114.25 56.0212 115.016 53.9279 116.14 52.0247C117.336 50.0136 118.22 49.4115 120.251 47.8983L120.432 45.9336Z" fill="#263238"/>
<path d="M122.462 91.1649L122.964 87.1621L113.912 83.4912L112.26 87.3165L122.462 91.1649Z" fill="#263238"/>
<path d="M122.462 91.1655L122.258 91.0767L121.679 90.8451L119.544 90.0113L112.295 87.236L112.353 87.3672L113.758 84.1287L114.009 83.542L113.874 83.5999L122.937 87.236L122.895 87.1626C122.76 88.3785 122.648 89.3706 122.57 90.0769C122.536 90.4128 122.509 90.6791 122.486 90.8837C122.462 91.0883 122.459 91.1693 122.462 91.1732C122.485 91.0883 122.5 91.0018 122.509 90.9146C122.54 90.7177 122.578 90.4591 122.625 90.1426C122.725 89.4246 122.864 88.421 123.034 87.1858V87.1318L122.983 87.1125L113.943 83.4107L113.87 83.376L113.831 83.4686C113.75 83.6616 113.665 83.8546 113.581 84.0515C113.094 85.1786 112.623 86.271 112.183 87.2977L112.141 87.3942L112.237 87.429L119.594 90.1541L121.721 90.9261L122.285 91.1269C122.343 91.1452 122.402 91.1581 122.462 91.1655Z" fill="#455A64"/>
<path d="M129.966 81.0596C129.96 81.0951 129.951 81.13 129.939 81.1638L129.847 81.461L129.461 82.619C129.125 83.6265 128.65 85.0585 128.059 86.8187L123.369 100.653L123.269 100.946L123.234 101.047L123.138 101.008L109.713 95.7855L105.664 94.1836L104.567 93.7397L104.286 93.62L104.189 93.5698L104.293 93.6007L104.583 93.7011L105.691 94.1102L109.763 95.6542L123.207 100.827L123.076 100.888C123.111 100.796 123.142 100.695 123.176 100.595C125.029 95.191 126.708 90.3274 127.928 86.7762C128.538 85.0238 129.036 83.5994 129.387 82.5958L129.812 81.4456C129.854 81.3259 129.893 81.2294 129.92 81.1522C129.947 81.075 129.962 81.0596 129.966 81.0596Z" fill="#455A64"/>
<path d="M102.062 102.197C102.062 102.197 104.305 94.8897 106.216 94.3917C108.126 93.8938 110.651 93.8166 111.095 95.0634C111.641 96.6352 111.89 98.295 111.828 99.9579C111.699 101.489 111.447 103.007 111.075 104.497L109.126 103.891C109.126 103.891 110.67 96.4723 110.257 95.2564C109.844 94.0405 106.625 94.3339 106.034 95.5961C105.444 96.8583 103.568 102.66 103.568 102.66L102.062 102.197Z" fill="#455A64"/>
<path d="M93.1031 111.392C93.7864 108.331 95.3844 101.599 96.0908 98.6536C96.183 98.2656 96.4218 97.9284 96.7571 97.7126C97.0924 97.4967 97.4982 97.419 97.8895 97.4956L116.186 101.101C116.579 101.179 116.926 101.406 117.155 101.735C117.383 102.065 117.474 102.47 117.41 102.865L115.344 115.58C115.311 115.783 115.238 115.978 115.129 116.152C115.019 116.327 114.876 116.478 114.707 116.596C114.538 116.715 114.348 116.798 114.146 116.842C113.945 116.885 113.737 116.888 113.534 116.85L94.3306 113.248C94.1262 113.211 93.9315 113.132 93.7581 113.018C93.5848 112.903 93.4363 112.755 93.3217 112.581C93.2071 112.408 93.1286 112.213 93.0911 112.009C93.0535 111.804 93.0576 111.594 93.1031 111.392Z" fill="#455A64"/>
<path d="M115.526 105.786L115.503 105.922C115.483 106.018 115.46 106.157 115.426 106.331C115.356 106.697 115.252 107.226 115.117 107.909L113.959 113.742L113.866 114.213C113.845 114.383 113.775 114.544 113.665 114.676C113.549 114.811 113.394 114.907 113.221 114.95C113.047 114.985 112.867 114.977 112.697 114.927L110.604 114.522L105.972 113.63L100.873 112.638L98.1713 112.113L96.7933 111.843L96.4459 111.777C96.3231 111.76 96.2027 111.729 96.0869 111.685C95.9674 111.632 95.8615 111.553 95.7772 111.453C95.6929 111.354 95.6325 111.236 95.6006 111.109C95.5794 111 95.5794 110.887 95.6006 110.777C95.6006 110.666 95.643 110.573 95.6623 110.473L95.7897 109.874L96.0445 108.689C96.2105 107.917 96.3764 107.145 96.5386 106.373C96.868 104.847 97.1832 103.379 97.4843 101.969V101.903H97.5499C102.749 103.235 107.246 104.185 110.435 104.814C112.033 105.126 113.303 105.362 114.171 105.52L115.175 105.705L115.426 105.756L115.51 105.775H115.418L115.159 105.736L114.163 105.574C113.291 105.428 112.021 105.207 110.423 104.903C107.223 104.3 102.722 103.359 97.5151 102.042L97.5962 101.992C97.299 103.401 96.9825 104.876 96.6582 106.4C96.4961 107.172 96.3301 107.944 96.1641 108.716C96.0792 109.102 95.9943 109.488 95.9094 109.901L95.782 110.496C95.7197 110.681 95.7038 110.878 95.7357 111.071C95.7634 111.176 95.8141 111.274 95.8842 111.358C95.9543 111.441 96.042 111.508 96.141 111.553C96.2479 111.594 96.3594 111.621 96.4729 111.634L96.8203 111.704L98.1984 111.974L100.9 112.499L106.003 113.499L110.635 114.406L112.727 114.819C112.883 114.865 113.047 114.873 113.206 114.842C113.356 114.805 113.491 114.723 113.592 114.607C113.69 114.487 113.751 114.343 113.77 114.19C113.804 114.031 113.835 113.877 113.866 113.727C114.372 111.279 114.785 109.303 115.067 107.937C115.213 107.253 115.325 106.721 115.402 106.354C115.441 106.176 115.472 106.037 115.491 105.937C115.51 105.837 115.526 105.786 115.526 105.786Z" fill="#263238"/>
<path d="M108.705 112.9C108.705 112.9 108.817 112.92 109.033 112.92C109.347 112.91 109.651 112.81 109.91 112.634C110.11 112.49 110.277 112.304 110.399 112.088C110.52 111.873 110.593 111.634 110.612 111.387C110.724 110.812 110.855 110.16 110.998 109.438C111.071 109.075 111.145 108.697 111.222 108.303C111.334 107.909 111.294 107.488 111.11 107.122C111.01 106.933 110.871 106.766 110.703 106.633C110.535 106.5 110.341 106.404 110.134 106.35C109.693 106.253 109.219 106.165 108.744 106.068L102.533 104.825C102.272 104.773 102.002 104.79 101.749 104.873C101.496 104.956 101.269 105.103 101.09 105.3C100.912 105.492 100.788 105.728 100.731 105.983L100.568 106.755L100.26 108.299C100.211 108.557 100.161 108.804 100.109 109.04C100.054 109.277 100.013 109.517 99.9856 109.758C99.9734 109.987 100.012 110.215 100.099 110.427C100.186 110.638 100.318 110.828 100.487 110.982C100.651 111.128 100.843 111.238 101.051 111.306C101.252 111.368 101.479 111.403 101.688 111.449L104.046 111.932L107.462 112.642L108.389 112.843L108.628 112.897L108.709 112.92H108.624L108.381 112.877L107.451 112.704L104.027 112.036L101.661 111.553C101.449 111.507 101.236 111.48 101.008 111.414C100.783 111.342 100.577 111.223 100.402 111.063C100.218 110.898 100.073 110.694 99.9773 110.465C99.8818 110.237 99.8385 109.99 99.8505 109.743C99.8791 109.495 99.9217 109.249 99.9779 109.006C100.028 108.762 100.074 108.515 100.125 108.265C100.225 107.767 100.329 107.257 100.433 106.721C100.484 106.462 100.538 106.199 100.592 105.949C100.655 105.671 100.788 105.415 100.978 105.204C101.173 104.989 101.421 104.828 101.697 104.737C101.973 104.646 102.267 104.627 102.552 104.682L108.763 105.937C109.238 106.037 109.701 106.122 110.157 106.226C110.382 106.287 110.592 106.394 110.772 106.541C110.953 106.688 111.101 106.872 111.207 107.08C111.399 107.47 111.439 107.919 111.319 108.338C111.237 108.724 111.16 109.11 111.087 109.469C110.94 110.187 110.805 110.839 110.701 111.399C110.67 111.542 110.643 111.681 110.604 111.816C110.563 111.942 110.506 112.062 110.435 112.175C110.313 112.375 110.148 112.545 109.952 112.673C109.683 112.851 109.367 112.945 109.045 112.943C108.93 112.944 108.816 112.93 108.705 112.9Z" fill="#263238"/>
<g opacity="0.3">
<path d="M96.0329 111.607C101.181 114.303 107.006 115.435 112.789 114.861L96.0329 111.607Z" fill="black"/>
</g>
<path d="M107.524 107.794L105.378 107.362C105.297 107.345 105.221 107.314 105.152 107.268C105.084 107.222 105.025 107.163 104.98 107.095C104.934 107.026 104.903 106.949 104.887 106.869C104.871 106.788 104.871 106.705 104.888 106.624C104.921 106.463 105.017 106.321 105.154 106.229C105.291 106.137 105.459 106.103 105.621 106.134L107.779 106.57C107.859 106.586 107.936 106.617 108.004 106.663C108.072 106.708 108.131 106.767 108.177 106.835C108.222 106.903 108.254 106.98 108.27 107.06C108.286 107.141 108.285 107.223 108.269 107.304C108.254 107.385 108.222 107.463 108.176 107.532C108.129 107.601 108.07 107.661 108 107.706C107.931 107.752 107.853 107.783 107.771 107.798C107.689 107.813 107.605 107.812 107.524 107.794Z" fill="#E0E0E0"/>
<path d="M110.952 92.752C111.235 93.1822 111.466 93.6448 111.639 94.13C111.717 94.9988 111.732 95.8721 111.685 96.7432C111.685 96.7432 111.234 96.9709 110.867 95.7589C110.674 95.1761 110.535 94.5764 110.454 93.9679L110.952 92.752Z" fill="#FFBF9D"/>
<path d="M110.894 96.6311L110.979 92.8059L109.504 89.9765L104.826 89.8877L104.66 94.5197C104.66 94.5197 105.347 96.5076 105.675 96.882C106.003 97.2564 106.66 96.9785 106.66 96.9785C107.011 97.5344 107.983 97.3298 107.983 97.3298C108.458 97.8972 109.199 97.3645 109.199 97.3645C109.199 97.3645 109.848 97.959 110.145 97.9204C110.27 97.8904 110.381 97.8198 110.462 97.7196C110.733 97.421 110.886 97.0343 110.894 96.6311Z" fill="#FFBF9D"/>
<path d="M106.301 95.9902C106.343 95.9902 106.455 96.1794 106.544 96.4457C106.632 96.7121 106.675 96.9437 106.629 96.9591C106.582 96.9745 106.474 96.7661 106.385 96.4998C106.297 96.2334 106.254 96.0057 106.301 95.9902Z" fill="#FF9A6C"/>
<path d="M107.513 95.9326C107.63 96.1554 107.712 96.395 107.756 96.6429C107.852 96.8756 107.914 97.1215 107.937 97.3724C107.761 97.1827 107.642 96.9473 107.594 96.693C107.494 96.4526 107.466 96.1886 107.513 95.9326Z" fill="#FF9A6C"/>
<path d="M108.894 96.0557C108.945 96.0557 108.979 96.349 109.049 96.7003C109.118 97.0515 109.184 97.3372 109.138 97.3565C109.091 97.3758 108.949 97.1017 108.879 96.7312C108.81 96.3606 108.852 96.0557 108.894 96.0557Z" fill="#FF9A6C"/>
<path d="M110.925 94.0059C111.001 94.487 111.023 94.9751 110.99 95.4611C111.011 95.946 110.976 96.4317 110.886 96.9086C110.786 95.9428 110.799 94.9686 110.925 94.0059Z" fill="#FF9A6C"/>
<path d="M106.231 95.2218C106.231 95.2218 106.231 95.2913 106.131 95.3415C106.02 95.4055 105.889 95.4261 105.764 95.3994C105.637 95.3737 105.525 95.3023 105.447 95.1987C105.39 95.1215 105.386 95.0559 105.405 95.0481C105.424 95.0404 105.575 95.191 105.791 95.2334C106.007 95.2759 106.204 95.1832 106.231 95.2218Z" fill="#FF9A6C"/>
<path d="M107.644 95.4539C107.644 95.4539 107.617 95.5234 107.524 95.5697C107.402 95.6196 107.268 95.633 107.138 95.6083C107.004 95.5837 106.881 95.5175 106.787 95.4191C106.717 95.3381 106.702 95.2763 106.717 95.2609C106.733 95.2454 106.914 95.396 107.169 95.4423C107.424 95.4886 107.621 95.4114 107.644 95.4539Z" fill="#FF9A6C"/>
<path d="M110.35 95.1717C110.35 95.1486 110.458 95.2721 110.35 95.4381C110.202 95.602 109.995 95.7005 109.775 95.7121C109.562 95.7317 109.348 95.683 109.165 95.5732C109.03 95.4844 108.976 95.3956 108.991 95.3802C109.235 95.4847 109.497 95.5398 109.763 95.5423C109.943 95.5321 110.116 95.469 110.261 95.3609C110.35 95.2721 110.327 95.1795 110.35 95.1717Z" fill="#FF9A6C"/>
<path d="M124.913 59.1924C123.076 61.1224 111.666 72.3164 111.666 72.3164C111.666 72.3164 111.006 90.4198 110.674 90.497C110.342 90.5742 103.784 90.0376 103.784 90.0376C103.784 90.0376 102.865 70.8457 103.629 68.6571C104.394 66.4684 114.152 53.6726 114.364 53.4062C114.576 53.1399 115.696 51.1829 119.428 50.2217C123.802 49.1023 125.639 51.1983 126.376 53.3483C127.009 55.2011 125.801 58.0807 125.218 58.8527C125.124 58.9721 125.022 59.0856 124.913 59.1924Z" fill="#263238"/>
<path d="M124.913 59.1929C124.913 59.1929 124.967 59.1157 125.083 58.9806C125.252 58.7776 125.394 58.5546 125.508 58.3167C125.967 57.4103 126.281 56.4372 126.438 55.4333C126.568 54.7147 126.52 53.9753 126.299 53.2794C126.023 52.4541 125.55 51.7084 124.921 51.1062C124.562 50.7839 124.153 50.5231 123.709 50.3342C123.234 50.1446 122.733 50.0263 122.223 49.983C121.104 49.9333 119.985 50.0836 118.919 50.4268C117.732 50.767 116.623 51.3346 115.653 52.0982C115.15 52.5171 114.709 53.0058 114.345 53.5496L113.098 55.1978C111.427 57.425 109.651 59.8298 107.825 62.3581C106.918 63.6319 105.988 64.9443 105.092 66.3107C104.628 66.9904 104.207 67.6981 103.83 68.4299C103.792 68.5264 103.741 68.6152 103.707 68.7117L103.649 69.0089C103.601 69.2105 103.572 69.4159 103.56 69.6226L103.506 70.2518L103.475 70.8849C103.355 74.2855 103.452 77.8329 103.548 81.4304C103.637 84.364 103.749 87.2397 103.876 90.0266L103.784 89.934L107.308 90.2119L109.037 90.3315L109.89 90.3817L110.315 90.401H110.612C110.701 89.8551 110.761 89.3049 110.794 88.7528C110.828 88.1969 110.867 87.6488 110.902 87.1007C110.963 86.0096 111.023 84.9365 111.079 83.8815C111.292 79.6663 111.465 75.7755 111.585 72.3015V72.2706V72.2474L121.289 62.6901L123.948 60.0884L124.643 59.4129C124.802 59.2624 124.886 59.189 124.886 59.189C124.886 59.189 124.813 59.274 124.659 59.4284L123.979 60.1193L121.351 62.7518L111.701 72.3594L111.724 72.3053C111.6 75.7793 111.45 79.6664 111.245 83.8853C111.191 84.9378 111.135 86.0109 111.075 87.1046C111.037 87.6527 111.002 88.2047 110.967 88.7605C110.937 89.3272 110.874 89.8918 110.778 90.4512C110.769 90.4818 110.755 90.5105 110.736 90.5361C110.719 90.5585 110.694 90.5736 110.666 90.5786H110.635H110.512H110.296L109.867 90.5593L109.01 90.5091L107.281 90.3894L103.757 90.1154H103.668V90.0266C103.541 87.2358 103.429 84.3601 103.34 81.4227C103.243 77.8097 103.147 74.2817 103.27 70.8655L103.301 70.2287L103.359 69.5917C103.372 69.3774 103.401 69.1644 103.448 68.9549L103.517 68.6383C103.554 68.5369 103.597 68.4377 103.645 68.3411C104.025 67.5994 104.452 66.8826 104.923 66.195C105.826 64.8208 106.756 63.5123 107.667 62.2385C109.497 59.6947 111.28 57.3092 112.959 55.0859L114.202 53.4492C114.403 53.1906 114.588 52.905 114.823 52.6772C115.044 52.431 115.284 52.2025 115.541 51.994C117.458 50.5408 119.816 49.7912 122.219 49.871C122.743 49.9219 123.256 50.0521 123.74 50.257C124.196 50.4491 124.615 50.7181 124.979 51.0522C125.618 51.6673 126.096 52.4292 126.373 53.2717C126.596 53.9834 126.639 54.7392 126.5 55.4719C126.334 56.4818 126.005 57.4581 125.527 58.363C125.408 58.5999 125.259 58.8204 125.083 59.0192C124.979 59.1273 124.913 59.1929 124.913 59.1929Z" fill="#455A64"/>
<path d="M131.387 67.4761C131.35 67.4085 131.324 67.3356 131.309 67.26C131.259 67.0978 131.198 66.874 131.12 66.6308C130.954 66.0595 130.734 65.2643 130.453 64.2916C129.897 62.2806 129.136 59.5207 128.283 56.4249V56.3825L128.306 56.3439C128.519 56.0119 128.746 55.6568 128.978 55.3017L129.152 55.0276L129.229 55.182L127.951 55.0624H127.886L127.862 54.9967C127.635 54.2762 127.371 53.5676 127.071 52.8737C126.807 52.2295 126.473 51.616 126.075 51.0441C125.676 50.5712 125.185 50.1839 124.632 49.9054C124.122 49.6159 123.632 49.3727 123.184 49.1604C122.281 48.7358 121.544 48.427 121.034 48.2147L120.451 47.9715C120.381 47.9484 120.314 47.9173 120.251 47.8789C120.324 47.888 120.395 47.9075 120.463 47.9368C120.602 47.9831 120.803 48.0526 121.061 48.1491C121.578 48.3382 122.327 48.6277 123.238 49.0369C123.694 49.2453 124.188 49.4808 124.709 49.7664C125.285 50.0465 125.798 50.4404 126.218 50.9244C126.63 51.5022 126.974 52.1251 127.245 52.7811C127.551 53.481 127.822 54.196 128.055 54.9234L127.967 54.8539L129.248 54.9697H129.41L129.322 55.1087L129.148 55.3827L128.472 56.4249V56.3439C129.302 59.4512 130.04 62.2111 130.576 64.2299C130.831 65.2103 131.035 66.0093 131.186 66.5845C131.248 66.8469 131.302 67.0592 131.34 67.2252C131.368 67.3063 131.383 67.3907 131.387 67.4761Z" fill="#455A64"/>
<path d="M130.055 55.9429C127.816 57.263 125.998 57.2553 122.262 56.9388C119.672 56.7188 117.402 55.9777 114.804 55.8966C111.06 55.7847 108.242 56.9272 104.845 58.4712L102.329 61.4434L107.049 62.8716C110.24 61.232 113.802 60.4499 117.386 60.6019C123.176 60.9185 128.611 59.3397 130.534 57.8691L131.194 56.0394L130.943 55.0821L130.148 55.0088L130.055 55.9429Z" fill="#00AAD3"/>
<path d="M130.055 55.9427C130.055 55.9427 130.055 55.8617 130.055 55.7034C130.055 55.5451 130.086 55.3174 130.113 55.0202V54.9932H130.136L130.931 55.0588H130.954V55.0819C131.028 55.3599 131.116 55.6802 131.213 56.0354C131.028 56.5719 130.808 57.1934 130.568 57.8727C130.003 58.2841 129.389 58.6226 128.739 58.8802C127.995 59.1952 127.232 59.4609 126.454 59.6753C123.563 60.4608 120.568 60.7928 117.576 60.6596C116.431 60.6021 115.283 60.6382 114.144 60.7677C112.942 60.9091 111.755 61.1558 110.597 61.505C109.385 61.8564 108.211 62.3271 107.092 62.91H107.053H107.015L104.259 62.1457L102.29 61.5397L102.143 61.4973L102.24 61.3815L104.757 58.4054H104.776C106.397 57.6359 108.075 56.9907 109.794 56.4754C111.383 56.0163 113.034 55.8041 114.688 55.8462C116.163 55.9199 117.63 56.1136 119.073 56.4252C120.316 56.6795 121.573 56.8586 122.837 56.9618C123.869 57.0622 124.907 57.106 125.944 57.093C126.72 57.0819 127.491 56.9677 128.237 56.7533C128.703 56.6126 129.157 56.4318 129.592 56.2129L129.924 56.0392L130.043 55.9813C130.043 55.9813 130.013 56.0083 129.939 56.0508C129.866 56.0933 129.754 56.1627 129.607 56.2438C129.177 56.48 128.724 56.6739 128.256 56.8228C127.505 57.0553 126.726 57.1852 125.94 57.2088C124.899 57.2319 123.858 57.1971 122.821 57.1046C121.552 57.0119 120.29 56.8404 119.042 56.5912C117.605 56.2907 116.147 56.1049 114.681 56.0354C113.044 55.9981 111.411 56.2129 109.84 56.6723C108.137 57.191 106.475 57.8362 104.868 58.6023L104.903 58.5752L102.39 61.5513L102.344 61.3892L104.301 61.9836L107.065 62.8174H106.988C108.124 62.2174 109.317 61.7337 110.55 61.3737C111.719 61.0244 112.917 60.7778 114.129 60.6365C115.282 60.5089 116.444 60.4753 117.603 60.5361C120.575 60.6765 123.551 60.3588 126.427 59.5943C127.2 59.3849 127.959 59.1271 128.7 58.8223C129.342 58.5703 129.951 58.2425 130.514 57.8457V57.8689L131.186 56.0392V56.0624L130.947 55.1051L130.974 55.1321L130.178 55.0472H130.206L130.124 55.7381C130.082 55.8694 130.055 55.9427 130.055 55.9427Z" fill="#263238"/>
<path d="M121.204 80.0332C121.204 80.0834 119.479 79.5198 117.394 78.7748C116.123 78.3573 114.875 77.8741 113.654 77.3273C113.673 77.2771 115.379 77.8407 117.464 78.5857C118.735 79.0033 119.983 79.4864 121.204 80.0332Z" fill="#455A64"/>
</svg>
