<svg width="230" height="190" viewBox="0 0 230 190" fill="none" xmlns="http://www.w3.org/2000/svg">
<path d="M193.85 53.1998C193.85 53.1998 162.331 13.1934 121.369 10.104C80.408 7.0146 56.5217 39.8048 45.2027 59.3596C33.8836 78.9144 5.64267 111.496 8.97307 141.329C12.3035 171.163 44.9543 193.8 91.7271 183.855C138.5 173.911 152.061 170.137 173.371 177.684C194.681 185.231 222.358 173.911 222.91 131.043C223.462 88.175 193.85 53.1998 193.85 53.1998Z" fill="#00AAD3"/>
<path opacity="0.7" d="M193.85 53.1998C193.85 53.1998 162.331 13.1934 121.369 10.104C80.408 7.0146 56.5217 39.8048 45.2027 59.3596C33.8836 78.9144 5.64267 111.496 8.97307 141.329C12.3035 171.163 44.9543 193.8 91.7271 183.855C138.5 173.911 152.061 170.137 173.371 177.684C194.681 185.231 222.358 173.911 222.91 131.043C223.462 88.175 193.85 53.1998 193.85 53.1998Z" fill="white"/>
<path d="M15.0021 173.527H214.924" stroke="#263238" stroke-miterlimit="10"/>
<path d="M23.7115 110.021L27.7564 158.015" stroke="#263238" stroke-width="2" stroke-miterlimit="10"/>
<path d="M27.1032 148.83L25.2724 146.433" stroke="#263238" stroke-width="2" stroke-miterlimit="10"/>
<path d="M25.8275 147.151C25.8238 146.784 25.7568 146.422 25.6309 146.09C25.505 145.757 25.3232 145.462 25.0976 145.224C24.6284 144.704 22.1536 143.416 21.9175 144.495C21.663 145.669 24.196 147.979 25.8275 147.151Z" fill="#00AAD3" stroke="#263238" stroke-miterlimit="10"/>
<path d="M25.8275 147.15L23.4723 145.33" stroke="#263238" stroke-width="0.5" stroke-miterlimit="10"/>
<path d="M27.5632 154.291L25.7324 151.894" stroke="#263238" stroke-width="2" stroke-miterlimit="10"/>
<path d="M26.2875 152.611C26.284 152.244 26.217 151.882 26.0911 151.55C25.9652 151.217 25.7833 150.922 25.5576 150.684C25.0884 150.164 22.6136 148.872 22.3775 149.951C22.1229 151.129 24.656 153.436 26.2875 152.611Z" fill="#00AAD3" stroke="#263238" stroke-miterlimit="10"/>
<path d="M26.2875 152.611L23.9323 150.791" stroke="#263238" stroke-width="0.5" stroke-miterlimit="10"/>
<path d="M25.9808 135.511L24.15 133.113" stroke="#263238" stroke-width="2" stroke-miterlimit="10"/>
<path d="M24.7051 133.831C24.7014 133.465 24.6347 133.103 24.5093 132.771C24.384 132.439 24.203 132.143 23.9783 131.905C23.506 131.384 21.0312 130.092 20.7951 131.175C20.5467 132.349 23.0736 134.656 24.7051 133.831Z" fill="#00AAD3" stroke="#263238" stroke-miterlimit="10"/>
<path d="M24.7051 133.832L22.3499 132.012" stroke="#263238" stroke-width="0.5" stroke-miterlimit="10"/>
<path d="M26.4408 140.968L24.61 138.57" stroke="#263238" stroke-width="2" stroke-miterlimit="10"/>
<path d="M25.1651 139.289C25.1614 138.922 25.0944 138.56 24.9685 138.227C24.8426 137.895 24.6608 137.6 24.4352 137.362C23.966 136.841 21.4912 135.553 21.2551 136.632C21.0006 137.807 23.5336 140.117 25.1651 139.289Z" fill="#00AAD3" stroke="#263238" stroke-miterlimit="10"/>
<path d="M25.1651 139.289L22.8099 137.469" stroke="#263238" stroke-width="0.5" stroke-miterlimit="10"/>
<path d="M25.2356 126.642L23.4018 124.244" stroke="#263238" stroke-width="2" stroke-miterlimit="10"/>
<path d="M23.9599 124.963C23.9562 124.596 23.8892 124.234 23.7633 123.902C23.6374 123.569 23.4556 123.274 23.23 123.036C22.7608 122.519 20.283 121.227 20.0499 122.307C19.7923 123.5 22.3284 125.78 23.9599 124.963Z" fill="#00AAD3" stroke="#263238" stroke-miterlimit="10"/>
<path d="M23.9599 124.963L21.6016 123.143" stroke="#263238" stroke-width="0.5" stroke-miterlimit="10"/>
<path d="M24.4843 117.739L22.6535 115.341" stroke="#263238" stroke-width="2" stroke-miterlimit="10"/>
<path d="M23.2086 116.059C23.2049 115.692 23.1378 115.33 23.012 114.998C22.8861 114.665 22.7042 114.37 22.4787 114.132C22.0095 113.612 19.5347 112.32 19.2986 113.403C19.044 114.577 21.5771 116.883 23.2086 116.059Z" fill="#00AAD3" stroke="#263238" stroke-miterlimit="10"/>
<path d="M23.2085 116.059L20.8533 114.239" stroke="#263238" stroke-width="0.5" stroke-miterlimit="10"/>
<path d="M26.7966 145.6L28.1888 142.784" stroke="#263238" stroke-width="2" stroke-miterlimit="10"/>
<path d="M27.7656 143.64C27.7075 143.28 27.7124 142.909 27.7802 142.552C27.8479 142.194 27.9768 141.859 28.1582 141.569C28.5292 140.938 30.7372 139.042 31.1482 140.049C31.5867 141.117 29.4983 144.02 27.7656 143.64Z" fill="#00AAD3" stroke="#263238" stroke-miterlimit="10"/>
<path d="M27.7656 143.632L29.8878 141.116" stroke="#263238" stroke-width="0.5" stroke-miterlimit="10"/>
<path d="M25.5852 131.237L26.9805 128.421" stroke="#263238" stroke-width="2" stroke-miterlimit="10"/>
<path d="M26.5543 129.268C26.4969 128.908 26.5023 128.537 26.57 128.18C26.6377 127.823 26.7662 127.488 26.9468 127.197C27.321 126.566 29.529 124.67 29.9368 125.677C30.3846 126.752 28.29 129.656 26.5543 129.268Z" fill="#00AAD3" stroke="#263238" stroke-miterlimit="10"/>
<path d="M26.5543 129.268L28.6765 126.752" stroke="#263238" stroke-width="0.5" stroke-miterlimit="10"/>
<path d="M25.0547 124.924L26.447 122.108" stroke="#263238" stroke-width="2" stroke-miterlimit="10"/>
<path d="M26.0237 122.953C25.9656 122.593 25.9705 122.222 26.0383 121.864C26.106 121.507 26.2349 121.172 26.4163 120.882C26.7904 120.255 28.9953 118.358 29.4063 119.362C29.8509 120.437 27.7564 123.344 26.0237 122.953Z" fill="#00AAD3" stroke="#263238" stroke-miterlimit="10"/>
<path d="M26.0238 122.952L28.1459 120.44" stroke="#263238" stroke-width="0.5" stroke-miterlimit="10"/>
<path d="M24.2758 115.671L25.668 112.855" stroke="#263238" stroke-width="2" stroke-miterlimit="10"/>
<path d="M25.2448 113.7C25.1867 113.34 25.1916 112.968 25.2594 112.611C25.3271 112.254 25.456 111.919 25.6374 111.629C26.0084 110.998 28.2164 109.102 28.6274 110.109C29.072 111.184 26.9867 114.091 25.2448 113.7Z" fill="#00AAD3" stroke="#263238" stroke-miterlimit="10"/>
<path d="M25.2448 113.699L27.3669 111.188" stroke="#263238" stroke-width="0.5" stroke-miterlimit="10"/>
<path d="M23.6777 109.751C23.6204 109.391 23.6257 109.021 23.6934 108.663C23.7611 108.306 23.8896 107.971 24.0703 107.68C24.4444 107.053 26.6524 105.157 27.0633 106.16C27.508 107.236 25.4135 110.143 23.6777 109.751Z" fill="#00AAD3" stroke="#263238" stroke-miterlimit="10"/>
<path d="M23.6778 109.751L25.7999 107.239" stroke="#263238" stroke-width="0.5" stroke-miterlimit="10"/>
<path d="M23.8035 109.862C23.5082 109.895 23.2106 109.85 22.9307 109.729C22.6508 109.607 22.3952 109.413 22.1812 109.159C21.7151 108.634 20.424 105.716 21.2612 105.313C22.1843 104.88 24.2972 107.764 23.8035 109.862Z" fill="#00AAD3" stroke="#263238" stroke-miterlimit="10"/>
<path d="M23.8035 109.861L22.0064 106.98" stroke="#263238" stroke-width="0.5" stroke-miterlimit="10"/>
<path d="M34.3743 116.629L30.3539 164.63" stroke="#263238" stroke-width="2" stroke-miterlimit="10"/>
<path d="M31.2432 155.477L29.8479 152.661" stroke="#263238" stroke-width="2" stroke-miterlimit="10"/>
<path d="M30.2742 153.52C30.3315 153.16 30.3261 152.789 30.2585 152.432C30.1908 152.075 30.0623 151.74 29.8816 151.449C29.5075 150.822 27.2995 148.926 26.8886 149.929C26.4439 150.993 28.5415 153.9 30.2742 153.52Z" fill="#00AAD3" stroke="#263238" stroke-miterlimit="10"/>
<path d="M30.2741 153.505L28.2716 151.122" stroke="#263238" stroke-width="0.5" stroke-miterlimit="10"/>
<path d="M32.3595 142.154L30.9642 139.338" stroke="#263238" stroke-width="2" stroke-miterlimit="10"/>
<path d="M31.3904 140.185C31.4478 139.825 31.4424 139.455 31.3747 139.097C31.307 138.74 31.1785 138.405 30.9979 138.114C30.6237 137.484 28.4157 135.591 28.0048 136.594C27.5601 137.67 29.6547 140.577 31.3904 140.185Z" fill="#00AAD3" stroke="#263238" stroke-miterlimit="10"/>
<path d="M31.3904 140.185L29.3848 137.803" stroke="#263238" stroke-width="0.5" stroke-miterlimit="10"/>
<path d="M31.9025 147.615L30.5072 144.799" stroke="#263238" stroke-width="2" stroke-miterlimit="10"/>
<path d="M30.9335 145.642C30.9908 145.282 30.9855 144.911 30.9178 144.554C30.8501 144.197 30.7216 143.862 30.541 143.571C30.1668 142.944 27.9588 141.048 27.5479 142.051C27.1032 143.13 29.1978 146.033 30.9335 145.642Z" fill="#00AAD3" stroke="#263238" stroke-miterlimit="10"/>
<path d="M30.9335 145.642L28.9279 143.26" stroke="#263238" stroke-width="0.5" stroke-miterlimit="10"/>
<path d="M33.1016 133.285L31.7063 130.473" stroke="#263238" stroke-width="2" stroke-miterlimit="10"/>
<path d="M32.1326 131.316C32.1899 130.956 32.1845 130.585 32.1169 130.228C32.0492 129.871 31.9207 129.536 31.74 129.245C31.3659 128.614 29.1579 126.722 28.747 127.725C28.3023 128.82 30.3999 131.708 32.1326 131.316Z" fill="#00AAD3" stroke="#263238" stroke-miterlimit="10"/>
<path d="M32.1326 131.316L30.13 128.934" stroke="#263238" stroke-width="0.5" stroke-miterlimit="10"/>
<path d="M33.8468 124.381L32.4546 121.565" stroke="#263238" stroke-width="2" stroke-miterlimit="10"/>
<path d="M32.8777 122.409C32.9359 122.049 32.9309 121.678 32.8632 121.32C32.7955 120.963 32.6666 120.628 32.4852 120.338C32.1111 119.711 29.9031 117.814 29.4921 118.818C29.0475 119.897 31.1451 122.8 32.8777 122.409Z" fill="#00AAD3" stroke="#263238" stroke-miterlimit="10"/>
<path d="M32.8777 122.409L30.8752 120.026" stroke="#263238" stroke-width="0.5" stroke-miterlimit="10"/>
<path d="M31.4794 152.235L33.3102 149.837" stroke="#263238" stroke-width="2" stroke-miterlimit="10"/>
<path d="M32.7551 150.555C32.7578 150.188 32.8241 149.827 32.9495 149.494C33.0749 149.162 33.2565 148.867 33.4819 148.629C33.9542 148.108 36.429 146.816 36.662 147.895C36.9196 149.07 34.3866 151.38 32.7551 150.555Z" fill="#00AAD3" stroke="#263238" stroke-miterlimit="10"/>
<path d="M32.7551 150.556L35.2483 148.637" stroke="#263238" stroke-width="0.5" stroke-miterlimit="10"/>
<path d="M32.6815 137.871L34.5123 135.47" stroke="#263238" stroke-width="2" stroke-miterlimit="10"/>
<path d="M33.9572 136.188C33.9609 135.821 34.0279 135.459 34.1538 135.127C34.2797 134.794 34.4615 134.499 34.6871 134.261C35.1563 133.741 37.6311 132.449 37.8672 133.532C38.1217 134.706 35.5887 137.012 33.9572 136.188Z" fill="#00AAD3" stroke="#263238" stroke-miterlimit="10"/>
<path d="M33.9572 136.188L36.4504 134.272" stroke="#263238" stroke-width="0.5" stroke-miterlimit="10"/>
<path d="M33.212 131.556L35.0428 129.158" stroke="#263238" stroke-width="2" stroke-miterlimit="10"/>
<path d="M34.4847 129.876C34.4884 129.509 34.5554 129.147 34.6813 128.814C34.8072 128.482 34.989 128.187 35.2145 127.949C35.6837 127.428 38.1585 126.136 38.3947 127.216C38.64 128.39 36.1192 130.719 34.4847 129.876Z" fill="#00AAD3" stroke="#263238" stroke-miterlimit="10"/>
<path d="M34.4847 129.876L36.9809 127.957" stroke="#263238" stroke-width="0.5" stroke-miterlimit="10"/>
<path d="M33.9848 122.303L35.8187 119.901" stroke="#263238" stroke-width="2" stroke-miterlimit="10"/>
<path d="M35.2667 120.623C35.2702 120.256 35.3371 119.894 35.463 119.562C35.5889 119.229 35.7709 118.934 35.9966 118.696C36.4658 118.172 38.9406 116.88 39.1767 117.963C39.4251 119.137 36.892 121.448 35.2667 120.623Z" fill="#00AAD3" stroke="#263238" stroke-miterlimit="10"/>
<path d="M35.2606 120.623L37.7568 118.704" stroke="#263238" stroke-width="0.5" stroke-miterlimit="10"/>
<path d="M34.3865 116.359C34.3902 115.992 34.457 115.631 34.5823 115.299C34.7076 114.966 34.8887 114.671 35.1133 114.432C35.5856 113.912 38.0604 112.62 38.2935 113.699C38.5511 114.873 36.018 117.184 34.3865 116.359Z" fill="#00AAD3" stroke="#263238" stroke-miterlimit="10"/>
<path d="M34.3866 116.359L36.8798 114.44" stroke="#263238" stroke-width="0.5" stroke-miterlimit="10"/>
<path d="M34.4878 116.496C34.1938 116.454 33.9107 116.334 33.6573 116.144C33.4039 115.955 33.1862 115.7 33.0188 115.398C32.6508 114.763 31.8719 111.579 32.7643 111.4C33.7334 111.21 35.3219 114.573 34.4878 116.496Z" fill="#00AAD3" stroke="#263238" stroke-miterlimit="10"/>
<path d="M34.4878 116.496L33.209 113.225" stroke="#263238" stroke-width="0.5" stroke-miterlimit="10"/>
<path d="M29.7682 97.082V157.783" stroke="#263238" stroke-width="2" stroke-miterlimit="10"/>
<path d="M29.8081 148.655L28.1858 146.033" stroke="#263238" stroke-width="2" stroke-miterlimit="10"/>
<path d="M28.6795 146.82C28.7066 146.455 28.6703 146.086 28.573 145.739C28.4757 145.393 28.3196 145.076 28.1152 144.81C27.692 144.232 25.3368 142.633 25.0118 143.67C24.6591 144.81 26.9867 147.44 28.6795 146.82Z" fill="#00AAD3" stroke="#263238" stroke-miterlimit="10"/>
<path d="M28.6795 146.82L26.4868 144.707" stroke="#263238" stroke-width="0.5" stroke-miterlimit="10"/>
<path d="M29.808 137.248L28.1858 134.63" stroke="#263238" stroke-width="2" stroke-miterlimit="10"/>
<path d="M28.6795 135.412C28.7066 135.047 28.6702 134.679 28.5729 134.333C28.4756 133.987 28.3195 133.671 28.1152 133.406C27.692 132.824 25.3368 131.225 25.0118 132.266C24.6591 133.406 26.9867 136.039 28.6795 135.412Z" fill="#00AAD3" stroke="#263238" stroke-miterlimit="10"/>
<path d="M28.6795 135.413L26.4868 133.3" stroke="#263238" stroke-width="0.5" stroke-miterlimit="10"/>
<path d="M29.8081 123.856L28.1858 121.234" stroke="#263238" stroke-width="2" stroke-miterlimit="10"/>
<path d="M28.6795 122.021C28.7066 121.656 28.6703 121.287 28.573 120.941C28.4757 120.594 28.3196 120.277 28.1152 120.011C27.692 119.434 25.3368 117.834 25.0118 118.871C24.6591 120.011 26.9867 122.633 28.6795 122.021Z" fill="#00AAD3" stroke="#263238" stroke-miterlimit="10"/>
<path d="M28.6795 122.021L26.4868 119.908" stroke="#263238" stroke-width="0.5" stroke-miterlimit="10"/>
<path d="M29.8081 114.942L28.1858 112.32" stroke="#263238" stroke-width="2" stroke-miterlimit="10"/>
<path d="M28.6795 113.107C28.7066 112.741 28.6703 112.373 28.573 112.026C28.4757 111.679 28.3196 111.363 28.1152 111.097C27.692 110.519 25.3368 108.916 25.0118 109.957C24.6591 111.097 26.9867 113.719 28.6795 113.107Z" fill="#00AAD3" stroke="#263238" stroke-miterlimit="10"/>
<path d="M28.6795 113.107L26.4868 110.994" stroke="#263238" stroke-width="0.5" stroke-miterlimit="10"/>
<path d="M29.808 105.985L28.1858 103.367" stroke="#263238" stroke-width="2" stroke-miterlimit="10"/>
<path d="M28.6795 104.154C28.7066 103.788 28.6703 103.42 28.573 103.073C28.4757 102.726 28.3196 102.409 28.1152 102.144C27.692 101.566 25.3368 99.9625 25.0118 101.004C24.6591 102.144 26.9867 104.766 28.6795 104.154Z" fill="#00AAD3" stroke="#263238" stroke-miterlimit="10"/>
<path d="M28.6795 104.154L26.4868 102.041" stroke="#263238" stroke-width="0.5" stroke-miterlimit="10"/>
<path d="M29.7712 152.141L31.3935 149.519" stroke="#263238" stroke-width="2" stroke-miterlimit="10"/>
<path d="M30.8998 150.304C30.8726 149.939 30.909 149.57 31.0063 149.223C31.1036 148.877 31.2597 148.56 31.464 148.294C31.8872 147.716 34.2424 146.113 34.5675 147.154C34.9202 148.294 32.5926 150.916 30.8998 150.304Z" fill="#00AAD3" stroke="#263238" stroke-miterlimit="10"/>
<path d="M30.8997 150.305L33.2212 148.078" stroke="#263238" stroke-width="0.5" stroke-miterlimit="10"/>
<path d="M29.7712 133.999L31.3935 131.377" stroke="#263238" stroke-width="2" stroke-miterlimit="10"/>
<path d="M30.8997 132.164C30.8726 131.798 30.9089 131.43 31.0063 131.083C31.1036 130.736 31.2597 130.419 31.464 130.153C31.8872 129.576 34.2424 127.972 34.5675 129.013C34.9201 130.153 32.5925 132.775 30.8997 132.164Z" fill="#00AAD3" stroke="#263238" stroke-miterlimit="10"/>
<path d="M30.8997 132.163L33.2212 129.937" stroke="#263238" stroke-width="0.5" stroke-miterlimit="10"/>
<path d="M29.7712 125.042L31.3935 122.42" stroke="#263238" stroke-width="2" stroke-miterlimit="10"/>
<path d="M30.8997 123.207C30.8726 122.841 30.9089 122.473 31.0063 122.126C31.1036 121.779 31.2597 121.463 31.464 121.197C31.8872 120.619 34.2424 119.019 34.5675 120.057C34.9201 121.197 32.5925 123.819 30.8997 123.207Z" fill="#00AAD3" stroke="#263238" stroke-miterlimit="10"/>
<path d="M30.8998 123.207L33.2212 120.98" stroke="#263238" stroke-width="0.5" stroke-miterlimit="10"/>
<path d="M29.7712 113.209L31.3935 110.587" stroke="#263238" stroke-width="2" stroke-miterlimit="10"/>
<path d="M30.8997 111.374C30.8726 111.008 30.9089 110.64 31.0063 110.293C31.1036 109.946 31.2597 109.629 31.464 109.363C31.8872 108.786 34.2424 107.182 34.5675 108.223C34.9201 109.363 32.5925 111.985 30.8997 111.374Z" fill="#00AAD3" stroke="#263238" stroke-miterlimit="10"/>
<path d="M30.8998 111.373L33.2212 109.146" stroke="#263238" stroke-width="0.5" stroke-miterlimit="10"/>
<path d="M29.7712 103.903L31.3935 101.281" stroke="#263238" stroke-width="2" stroke-miterlimit="10"/>
<path d="M30.8997 102.067C30.8726 101.702 30.9089 101.333 31.0063 100.987C31.1036 100.64 31.2597 100.323 31.464 100.057C31.8872 99.4795 34.2424 97.8797 34.5675 98.9171C34.9201 100.057 32.5925 102.679 30.8997 102.067Z" fill="#00AAD3" stroke="#263238" stroke-miterlimit="10"/>
<path d="M30.8997 102.068L33.2212 99.8408" stroke="#263238" stroke-width="0.5" stroke-miterlimit="10"/>
<path d="M29.6762 97.9404C29.6488 97.5751 29.6848 97.2068 29.7816 96.8602C29.8783 96.5135 30.0337 96.1964 30.2374 95.9302C30.6636 95.3526 33.0158 93.7528 33.3409 94.7902C33.6935 95.9302 31.3659 98.5522 29.6762 97.9404Z" fill="#00AAD3" stroke="#263238" stroke-miterlimit="10"/>
<path d="M29.6761 97.9407L31.9945 95.7139" stroke="#263238" stroke-width="0.5" stroke-miterlimit="10"/>
<path d="M29.7866 98.0661C29.4905 98.0613 29.1988 97.9777 28.931 97.821C28.6633 97.6643 28.4259 97.4382 28.2348 97.1579C27.8147 96.5765 26.7751 93.5061 27.6491 93.2173C28.5967 92.9019 30.4551 96.0445 29.7866 98.0661Z" fill="#00AAD3" stroke="#263238" stroke-miterlimit="10"/>
<path d="M29.7866 98.0659L28.244 94.9727" stroke="#263238" stroke-width="0.5" stroke-miterlimit="10"/>
<path d="M31.7829 173.526H26.5972L25.9471 157.289H32.4331L31.7829 173.526Z" fill="#263238" stroke="#263238" stroke-miterlimit="10"/>
<path d="M197.527 110.021L201.569 158.015" stroke="#263238" stroke-width="2" stroke-miterlimit="10"/>
<path d="M200.919 148.83L199.085 146.433" stroke="#263238" stroke-width="2" stroke-miterlimit="10"/>
<path d="M199.64 147.151C199.636 146.784 199.569 146.422 199.443 146.09C199.318 145.757 199.136 145.462 198.91 145.224C198.441 144.704 195.963 143.416 195.73 144.495C195.475 145.669 198.012 147.979 199.64 147.151Z" fill="#00AAD3" stroke="#263238" stroke-miterlimit="10"/>
<path d="M199.643 147.15L197.285 145.33" stroke="#263238" stroke-width="0.5" stroke-miterlimit="10"/>
<path d="M201.379 154.291L199.545 151.894" stroke="#263238" stroke-width="2" stroke-miterlimit="10"/>
<path d="M200.103 152.611C200.1 152.244 200.033 151.882 199.907 151.55C199.781 151.217 199.599 150.922 199.373 150.684C198.901 150.164 196.426 148.872 196.193 149.951C195.936 151.129 198.472 153.436 200.103 152.611Z" fill="#00AAD3" stroke="#263238" stroke-miterlimit="10"/>
<path d="M200.103 152.611L197.745 150.791" stroke="#263238" stroke-width="0.5" stroke-miterlimit="10"/>
<path d="M199.796 135.511L197.963 133.113" stroke="#263238" stroke-width="2" stroke-miterlimit="10"/>
<path d="M198.521 133.831C198.517 133.464 198.45 133.102 198.324 132.77C198.198 132.438 198.016 132.143 197.791 131.905C197.322 131.384 194.844 130.092 194.611 131.175C194.356 132.349 196.88 134.656 198.521 133.831Z" fill="#00AAD3" stroke="#263238" stroke-miterlimit="10"/>
<path d="M198.521 133.832L196.162 132.012" stroke="#263238" stroke-width="0.5" stroke-miterlimit="10"/>
<path d="M200.256 140.968L198.423 138.57" stroke="#263238" stroke-width="2" stroke-miterlimit="10"/>
<path d="M198.981 139.289C198.977 138.922 198.91 138.56 198.784 138.227C198.658 137.895 198.476 137.6 198.251 137.362C197.782 136.841 195.304 135.553 195.071 136.632C194.813 137.807 197.349 140.117 198.981 139.289Z" fill="#00AAD3" stroke="#263238" stroke-miterlimit="10"/>
<path d="M198.981 139.289L196.622 137.469" stroke="#263238" stroke-width="0.5" stroke-miterlimit="10"/>
<path d="M199.048 126.642L197.217 124.244" stroke="#263238" stroke-width="2" stroke-miterlimit="10"/>
<path d="M197.772 124.963C197.769 124.596 197.702 124.235 197.577 123.902C197.451 123.57 197.27 123.275 197.046 123.036C196.573 122.519 194.099 121.227 193.862 122.307C193.608 123.5 196.141 125.78 197.772 124.963Z" fill="#00AAD3" stroke="#263238" stroke-miterlimit="10"/>
<path d="M197.772 124.963L195.417 123.143" stroke="#263238" stroke-width="0.5" stroke-miterlimit="10"/>
<path d="M198.3 117.739L196.466 115.341" stroke="#263238" stroke-width="2" stroke-miterlimit="10"/>
<path d="M197.024 116.059C197.02 115.692 196.953 115.33 196.828 114.998C196.702 114.665 196.52 114.37 196.294 114.132C195.825 113.612 193.347 112.32 193.114 113.403C192.857 114.577 195.393 116.883 197.024 116.059Z" fill="#00AAD3" stroke="#263238" stroke-miterlimit="10"/>
<path d="M197.024 116.059L194.666 114.239" stroke="#263238" stroke-width="0.5" stroke-miterlimit="10"/>
<path d="M200.609 145.6L202.004 142.784" stroke="#263238" stroke-width="2" stroke-miterlimit="10"/>
<path d="M201.578 143.64C201.521 143.28 201.526 142.909 201.594 142.552C201.662 142.195 201.79 141.86 201.971 141.569C202.345 140.938 204.553 139.042 204.961 140.049C205.408 141.117 203.32 144.02 201.578 143.64Z" fill="#00AAD3" stroke="#263238" stroke-miterlimit="10"/>
<path d="M201.578 143.632L203.7 141.116" stroke="#263238" stroke-width="0.5" stroke-miterlimit="10"/>
<path d="M199.401 131.237L200.793 128.421" stroke="#263238" stroke-width="2" stroke-miterlimit="10"/>
<path d="M200.37 129.268C200.312 128.908 200.317 128.537 200.384 128.18C200.452 127.822 200.581 127.487 200.762 127.197C201.133 126.566 203.341 124.67 203.752 125.677C204.197 126.752 202.093 129.656 200.37 129.268Z" fill="#00AAD3" stroke="#263238" stroke-miterlimit="10"/>
<path d="M200.37 129.268L202.492 126.752" stroke="#263238" stroke-width="0.5" stroke-miterlimit="10"/>
<path d="M198.867 124.924L200.263 122.108" stroke="#263238" stroke-width="2" stroke-miterlimit="10"/>
<path d="M199.836 122.953C199.779 122.593 199.784 122.222 199.852 121.865C199.92 121.507 200.048 121.172 200.229 120.882C200.603 120.255 202.811 118.358 203.219 119.362C203.667 120.437 201.572 123.344 199.836 122.953Z" fill="#00AAD3" stroke="#263238" stroke-miterlimit="10"/>
<path d="M199.836 122.952L201.958 120.44" stroke="#263238" stroke-width="0.5" stroke-miterlimit="10"/>
<path d="M198.088 115.671L199.484 112.855" stroke="#263238" stroke-width="2" stroke-miterlimit="10"/>
<path d="M199.057 113.7C199 113.34 199.005 112.969 199.073 112.612C199.141 112.254 199.269 111.919 199.45 111.629C199.824 110.998 202.032 109.102 202.44 110.109C202.888 111.184 200.793 114.091 199.057 113.7Z" fill="#00AAD3" stroke="#263238" stroke-miterlimit="10"/>
<path d="M199.057 113.699L201.18 111.188" stroke="#263238" stroke-width="0.5" stroke-miterlimit="10"/>
<path d="M197.493 109.751C197.436 109.391 197.441 109.021 197.509 108.663C197.577 108.306 197.705 107.971 197.886 107.68C198.26 107.053 200.468 105.157 200.876 106.16C201.324 107.236 199.229 110.143 197.493 109.751Z" fill="#00AAD3" stroke="#263238" stroke-miterlimit="10"/>
<path d="M197.493 109.751L199.615 107.239" stroke="#263238" stroke-width="0.5" stroke-miterlimit="10"/>
<path d="M197.616 109.862C197.321 109.895 197.023 109.85 196.743 109.729C196.463 109.607 196.208 109.413 195.994 109.159C195.528 108.634 194.24 105.716 195.074 105.313C196 104.88 198.107 107.764 197.616 109.862Z" fill="#00AAD3" stroke="#263238" stroke-miterlimit="10"/>
<path d="M197.616 109.861L195.822 106.98" stroke="#263238" stroke-width="0.5" stroke-miterlimit="10"/>
<path d="M208.19 116.629L204.169 164.63" stroke="#263238" stroke-width="2" stroke-miterlimit="10"/>
<path d="M205.059 155.477L203.664 152.661" stroke="#263238" stroke-width="2" stroke-miterlimit="10"/>
<path d="M204.09 153.52C204.147 153.16 204.141 152.789 204.073 152.431C204.005 152.074 203.875 151.739 203.694 151.449C203.32 150.822 201.112 148.926 200.704 149.929C200.253 150.993 202.354 153.9 204.09 153.52Z" fill="#00AAD3" stroke="#263238" stroke-miterlimit="10"/>
<path d="M204.09 153.505L202.084 151.122" stroke="#263238" stroke-width="0.5" stroke-miterlimit="10"/>
<path d="M206.175 142.154L204.78 139.338" stroke="#263238" stroke-width="2" stroke-miterlimit="10"/>
<path d="M205.203 140.185C205.261 139.826 205.256 139.454 205.188 139.097C205.121 138.74 204.992 138.405 204.81 138.114C204.436 137.484 202.228 135.591 201.82 136.594C201.373 137.67 203.47 140.577 205.203 140.185Z" fill="#00AAD3" stroke="#263238" stroke-miterlimit="10"/>
<path d="M205.203 140.185L203.2 137.803" stroke="#263238" stroke-width="0.5" stroke-miterlimit="10"/>
<path d="M205.718 147.615L204.323 144.799" stroke="#263238" stroke-width="2" stroke-miterlimit="10"/>
<path d="M204.746 145.642C204.804 145.282 204.799 144.911 204.732 144.554C204.664 144.196 204.535 143.861 204.354 143.571C203.979 142.944 201.771 141.048 201.364 142.051C200.916 143.13 203.013 146.033 204.746 145.642Z" fill="#00AAD3" stroke="#263238" stroke-miterlimit="10"/>
<path d="M204.746 145.642L202.743 143.26" stroke="#263238" stroke-width="0.5" stroke-miterlimit="10"/>
<path d="M206.917 133.285L205.522 130.473" stroke="#263238" stroke-width="2" stroke-miterlimit="10"/>
<path d="M205.948 131.316C206.005 130.956 206 130.585 205.931 130.228C205.863 129.87 205.734 129.535 205.553 129.245C205.178 128.614 202.97 126.722 202.563 127.725C202.118 128.82 204.212 131.708 205.948 131.316Z" fill="#00AAD3" stroke="#263238" stroke-miterlimit="10"/>
<path d="M205.948 131.316L203.943 128.934" stroke="#263238" stroke-width="0.5" stroke-miterlimit="10"/>
<path d="M207.662 124.381L206.267 121.565" stroke="#263238" stroke-width="2" stroke-miterlimit="10"/>
<path d="M206.693 122.409C206.75 122.048 206.745 121.677 206.676 121.32C206.608 120.963 206.479 120.628 206.298 120.338C205.927 119.711 203.719 117.814 203.308 118.818C202.863 119.897 204.958 122.8 206.693 122.409Z" fill="#00AAD3" stroke="#263238" stroke-miterlimit="10"/>
<path d="M206.693 122.409L204.688 120.026" stroke="#263238" stroke-width="0.5" stroke-miterlimit="10"/>
<path d="M205.295 152.235L207.126 149.837" stroke="#263238" stroke-width="2" stroke-miterlimit="10"/>
<path d="M206.568 150.555C206.571 150.188 206.638 149.826 206.764 149.494C206.89 149.162 207.072 148.867 207.298 148.629C207.767 148.108 210.242 146.816 210.478 147.895C210.732 149.07 208.202 151.38 206.568 150.555Z" fill="#00AAD3" stroke="#263238" stroke-miterlimit="10"/>
<path d="M206.568 150.556L209.064 148.637" stroke="#263238" stroke-width="0.5" stroke-miterlimit="10"/>
<path d="M206.497 137.871L208.328 135.47" stroke="#263238" stroke-width="2" stroke-miterlimit="10"/>
<path d="M207.773 136.188C207.776 135.821 207.842 135.459 207.967 135.127C208.093 134.794 208.274 134.499 208.5 134.261C208.969 133.741 211.444 132.449 211.68 133.532C211.937 134.706 209.404 137.012 207.773 136.188Z" fill="#00AAD3" stroke="#263238" stroke-miterlimit="10"/>
<path d="M207.773 136.188L210.266 134.272" stroke="#263238" stroke-width="0.5" stroke-miterlimit="10"/>
<path d="M207.025 131.556L208.855 129.158" stroke="#263238" stroke-width="2" stroke-miterlimit="10"/>
<path d="M208.3 129.876C208.304 129.509 208.371 129.147 208.497 128.814C208.623 128.482 208.805 128.187 209.03 127.949C209.499 127.428 211.974 126.136 212.21 127.216C212.465 128.39 209.932 130.719 208.3 129.876Z" fill="#00AAD3" stroke="#263238" stroke-miterlimit="10"/>
<path d="M208.3 129.876L210.793 127.957" stroke="#263238" stroke-width="0.5" stroke-miterlimit="10"/>
<path d="M207.8 122.303L209.631 119.901" stroke="#263238" stroke-width="2" stroke-miterlimit="10"/>
<path d="M209.076 120.623C209.079 120.256 209.145 119.894 209.27 119.562C209.396 119.229 209.577 118.934 209.803 118.696C210.275 118.172 212.75 116.88 212.983 117.963C213.241 119.137 210.708 121.448 209.076 120.623Z" fill="#00AAD3" stroke="#263238" stroke-miterlimit="10"/>
<path d="M209.076 120.623L211.569 118.704" stroke="#263238" stroke-width="0.5" stroke-miterlimit="10"/>
<path d="M208.199 116.359C208.203 115.992 208.27 115.63 208.396 115.298C208.522 114.966 208.703 114.67 208.929 114.432C209.398 113.912 211.873 112.62 212.109 113.699C212.367 114.873 209.834 117.184 208.199 116.359Z" fill="#00AAD3" stroke="#263238" stroke-miterlimit="10"/>
<path d="M208.199 116.359L210.695 114.44" stroke="#263238" stroke-width="0.5" stroke-miterlimit="10"/>
<path d="M208.303 116.496C208.009 116.454 207.725 116.334 207.472 116.144C207.218 115.955 206.999 115.7 206.831 115.398C206.463 114.763 205.687 111.579 206.577 111.4C207.549 111.21 209.147 114.573 208.303 116.496Z" fill="#00AAD3" stroke="#263238" stroke-miterlimit="10"/>
<path d="M208.303 116.496L207.025 113.225" stroke="#263238" stroke-width="0.5" stroke-miterlimit="10"/>
<path d="M203.584 97.082V157.783" stroke="#263238" stroke-width="2" stroke-miterlimit="10"/>
<path d="M203.621 148.655L202.001 146.033" stroke="#263238" stroke-width="2" stroke-miterlimit="10"/>
<path d="M202.495 146.82C202.522 146.455 202.486 146.086 202.389 145.739C202.291 145.393 202.135 145.076 201.931 144.81C201.505 144.232 199.152 142.633 198.827 143.67C198.475 144.81 200.802 147.44 202.495 146.82Z" fill="#00AAD3" stroke="#263238" stroke-miterlimit="10"/>
<path d="M202.495 146.82L200.302 144.707" stroke="#263238" stroke-width="0.5" stroke-miterlimit="10"/>
<path d="M203.621 137.248L202.001 134.63" stroke="#263238" stroke-width="2" stroke-miterlimit="10"/>
<path d="M202.495 135.412C202.522 135.047 202.486 134.679 202.389 134.333C202.291 133.987 202.135 133.671 201.931 133.406C201.505 132.824 199.152 131.225 198.827 132.266C198.475 133.406 200.802 136.039 202.495 135.412Z" fill="#00AAD3" stroke="#263238" stroke-miterlimit="10"/>
<path d="M202.495 135.413L200.302 133.3" stroke="#263238" stroke-width="0.5" stroke-miterlimit="10"/>
<path d="M203.621 123.856L202.001 121.234" stroke="#263238" stroke-width="2" stroke-miterlimit="10"/>
<path d="M202.495 122.021C202.522 121.656 202.486 121.287 202.389 120.941C202.291 120.594 202.135 120.277 201.931 120.011C201.505 119.434 199.152 117.834 198.827 118.871C198.475 120.011 200.802 122.633 202.495 122.021Z" fill="#00AAD3" stroke="#263238" stroke-miterlimit="10"/>
<path d="M202.495 122.021L200.302 119.908" stroke="#263238" stroke-width="0.5" stroke-miterlimit="10"/>
<path d="M203.621 114.942L202.001 112.32" stroke="#263238" stroke-width="2" stroke-miterlimit="10"/>
<path d="M202.495 113.107C202.522 112.741 202.486 112.373 202.389 112.026C202.291 111.679 202.135 111.363 201.931 111.097C201.505 110.519 199.152 108.916 198.827 109.957C198.475 111.097 200.802 113.719 202.495 113.107Z" fill="#00AAD3" stroke="#263238" stroke-miterlimit="10"/>
<path d="M202.495 113.107L200.302 110.994" stroke="#263238" stroke-width="0.5" stroke-miterlimit="10"/>
<path d="M203.621 105.985L202.001 103.367" stroke="#263238" stroke-width="2" stroke-miterlimit="10"/>
<path d="M202.495 104.154C202.522 103.788 202.486 103.42 202.389 103.073C202.291 102.726 202.135 102.409 201.931 102.144C201.505 101.566 199.152 99.9625 198.827 101.004C198.475 102.144 200.802 104.766 202.495 104.154Z" fill="#00AAD3" stroke="#263238" stroke-miterlimit="10"/>
<path d="M202.495 104.154L200.302 102.041" stroke="#263238" stroke-width="0.5" stroke-miterlimit="10"/>
<path d="M203.587 152.141L205.209 149.519" stroke="#263238" stroke-width="2" stroke-miterlimit="10"/>
<path d="M204.715 150.304C204.688 149.939 204.725 149.57 204.822 149.223C204.919 148.877 205.075 148.56 205.28 148.294C205.703 147.716 208.058 146.113 208.38 147.154C208.733 148.294 206.405 150.916 204.715 150.304Z" fill="#00AAD3" stroke="#263238" stroke-miterlimit="10"/>
<path d="M204.715 150.305L207.037 148.078" stroke="#263238" stroke-width="0.5" stroke-miterlimit="10"/>
<path d="M203.587 133.999L205.209 131.377" stroke="#263238" stroke-width="2" stroke-miterlimit="10"/>
<path d="M204.715 132.164C204.688 131.798 204.725 131.43 204.822 131.083C204.919 130.736 205.075 130.419 205.28 130.153C205.703 129.576 208.058 127.972 208.38 129.013C208.733 130.153 206.405 132.775 204.715 132.164Z" fill="#00AAD3" stroke="#263238" stroke-miterlimit="10"/>
<path d="M204.715 132.163L207.037 129.937" stroke="#263238" stroke-width="0.5" stroke-miterlimit="10"/>
<path d="M203.587 125.042L205.209 122.42" stroke="#263238" stroke-width="2" stroke-miterlimit="10"/>
<path d="M204.715 123.207C204.688 122.841 204.725 122.473 204.822 122.126C204.919 121.779 205.075 121.463 205.28 121.197C205.703 120.619 208.058 119.019 208.38 120.057C208.733 121.197 206.405 123.819 204.715 123.207Z" fill="#00AAD3" stroke="#263238" stroke-miterlimit="10"/>
<path d="M204.715 123.207L207.037 120.98" stroke="#263238" stroke-width="0.5" stroke-miterlimit="10"/>
<path d="M203.587 113.209L205.209 110.587" stroke="#263238" stroke-width="2" stroke-miterlimit="10"/>
<path d="M204.715 111.374C204.688 111.008 204.725 110.64 204.822 110.293C204.919 109.946 205.075 109.629 205.28 109.363C205.703 108.786 208.058 107.182 208.38 108.223C208.733 109.363 206.405 111.985 204.715 111.374Z" fill="#00AAD3" stroke="#263238" stroke-miterlimit="10"/>
<path d="M204.715 111.373L207.037 109.146" stroke="#263238" stroke-width="0.5" stroke-miterlimit="10"/>
<path d="M203.587 103.903L205.209 101.281" stroke="#263238" stroke-width="2" stroke-miterlimit="10"/>
<path d="M204.715 102.067C204.688 101.702 204.725 101.333 204.822 100.987C204.919 100.64 205.075 100.323 205.28 100.057C205.703 99.4795 208.058 97.8797 208.38 98.9171C208.733 100.057 206.405 102.679 204.715 102.067Z" fill="#00AAD3" stroke="#263238" stroke-miterlimit="10"/>
<path d="M204.715 102.068L207.037 99.8408" stroke="#263238" stroke-width="0.5" stroke-miterlimit="10"/>
<path d="M203.489 97.9404C203.462 97.5748 203.498 97.2063 203.595 96.8596C203.693 96.5129 203.849 96.196 204.053 95.9302C204.476 95.3526 206.831 93.7528 207.156 94.7902C207.509 95.9302 205.182 98.5522 203.489 97.9404Z" fill="#00AAD3" stroke="#263238" stroke-miterlimit="10"/>
<path d="M203.489 97.9407L205.81 95.7139" stroke="#263238" stroke-width="0.5" stroke-miterlimit="10"/>
<path d="M203.602 98.0661C203.306 98.0614 203.013 97.9778 202.745 97.8211C202.477 97.6645 202.239 97.4383 202.047 97.1579C201.63 96.5765 200.591 93.5061 201.462 93.2173C202.4 92.9019 204.271 96.0445 203.602 98.0661Z" fill="#00AAD3" stroke="#263238" stroke-miterlimit="10"/>
<path d="M203.602 98.0659L202.06 94.9727" stroke="#263238" stroke-width="0.5" stroke-miterlimit="10"/>
<path d="M205.599 173.526H200.41L199.763 157.289H206.246L205.599 173.526Z" fill="#263238" stroke="#263238" stroke-miterlimit="10"/>
<path d="M207.613 45.22C207.614 43.0609 207.195 40.9334 206.392 39.0174C205.588 37.1015 204.424 35.4535 202.998 34.2131C201.572 32.9726 199.926 32.1762 198.199 31.8911C196.471 31.606 194.714 31.8408 193.076 32.5754C191.437 33.3101 189.966 34.523 188.786 36.1116C187.606 37.7002 186.752 39.6177 186.297 41.7017C185.841 43.7858 185.798 45.9751 186.17 48.0844C186.542 50.1937 187.319 52.1609 188.434 53.8194C190.032 56.1921 190.907 59.1844 190.906 62.2744V64.1136H202.615V62.2744C202.608 59.1893 203.476 56.1994 205.068 53.827C206.707 51.4184 207.608 48.3707 207.613 45.22Z" fill="white" stroke="#263238" stroke-linecap="round" stroke-linejoin="round"/>
<path d="M202.615 64.1172H190.891V67.712H202.615V64.1172Z" fill="#00AAD3" stroke="#263238" stroke-linecap="round" stroke-linejoin="round"/>
<path d="M190.891 67.7197H202.615V69.5171C202.615 69.9938 202.462 70.451 202.19 70.7881C201.918 71.1252 201.549 71.3145 201.164 71.3145H192.338C191.954 71.3145 191.585 71.1252 191.313 70.7881C191.041 70.451 190.888 69.9938 190.888 69.5171V67.7197H190.891Z" fill="#00AAD3" stroke="#263238" stroke-linecap="round" stroke-linejoin="round"/>
<path d="M192.369 71.3105H201.133V72.4505C201.133 73.0966 200.926 73.7161 200.558 74.1729C200.189 74.6297 199.689 74.8863 199.168 74.8863H194.335C193.813 74.8863 193.313 74.6297 192.945 74.1729C192.576 73.7161 192.369 73.0966 192.369 72.4505V71.3105Z" fill="#263238" stroke="#263238" stroke-linecap="round" stroke-linejoin="round"/>
<path d="M209.137 45.292H214.105" stroke="#263238" stroke-linecap="round" stroke-linejoin="round"/>
<path d="M178.934 45.292H183.966" stroke="#263238" stroke-linecap="round" stroke-linejoin="round"/>
<path d="M196.521 29.6741V23.5029" stroke="#263238" stroke-linecap="round" stroke-linejoin="round"/>
<path d="M205.525 34.1312L208.953 29.8828" stroke="#263238" stroke-linecap="round" stroke-linejoin="round"/>
<path d="M184.086 60.6969L187.563 56.3877" stroke="#263238" stroke-linecap="round" stroke-linejoin="round"/>
<path d="M187.416 34.0096L184.086 29.8828" stroke="#263238" stroke-linecap="round" stroke-linejoin="round"/>
<path d="M208.953 60.6976L205.638 56.5898" stroke="#263238" stroke-linecap="round" stroke-linejoin="round"/>
<path d="M132.649 40.7058L118.294 16.1084L103.935 40.7058H109.842V68.0316H126.745V40.7058H132.649Z" fill="#00AAD3" stroke="#263238" stroke-linecap="round" stroke-linejoin="round"/>
<path d="M120.553 82.744C128.622 81.1282 134.106 71.7129 132.802 61.7144C131.498 51.7159 123.9 44.9204 115.831 46.5362C107.762 48.152 102.278 57.5673 103.582 67.5658C104.886 77.5643 112.484 84.3599 120.553 82.744Z" fill="white" stroke="#263238" stroke-linecap="round" stroke-linejoin="round"/>
<path d="M129.462 71.6814C132.6 63.9722 130.099 54.5711 123.878 50.6836C117.656 46.7961 110.069 49.8943 106.932 57.6036C103.795 65.3129 106.295 74.7139 112.517 78.6014C118.738 82.4889 126.325 79.3907 129.462 71.6814Z" fill="white" stroke="#263238" stroke-linecap="round" stroke-linejoin="round"/>
<path d="M122.406 66.9825C122.406 62.8899 117.726 62.8025 117.726 61.0925C117.726 60.1957 118.107 59.9259 118.889 59.9259C119.56 59.9259 120.115 60.2831 120.775 61.0051L122.308 58.8011C121.595 57.8018 120.629 57.132 119.569 56.9011V54.6211H117.545V56.9999C115.797 57.4673 114.752 59.0101 114.752 61.2825C114.752 65.2193 119.431 65.4625 119.431 67.2637C119.431 68.1415 119.069 68.5215 118.162 68.5215C117.401 68.5215 116.628 68.1643 115.659 67.2637L114.316 69.8705C115.237 70.8132 116.359 71.4035 117.545 71.5691V73.8263H119.579V71.4095C121.471 70.8395 122.406 69.1599 122.406 66.9825Z" fill="#00AAD3" stroke="#263238" stroke-linecap="round" stroke-linejoin="round"/>
<path d="M44.9575 51.4286C50.1936 50.2519 53.6684 44.0382 52.7187 37.55C51.769 31.0618 46.7545 26.756 41.5184 27.9327C36.2823 29.1095 32.8075 35.3232 33.7571 41.8114C34.7068 48.2996 39.7214 52.6054 44.9575 51.4286Z" fill="white" stroke="#263238" stroke-linecap="round" stroke-linejoin="round"/>
<path d="M45.9602 28.2373L43.2401 39.6829H52.8755C52.8746 37.1057 52.2004 34.5981 50.954 32.5351C49.7075 30.472 47.9556 28.9643 45.9602 28.2373Z" fill="#00AAD3" stroke="#263238" stroke-linecap="round" stroke-linejoin="round"/>
<path d="M49.2231 32.1514L53.0472 26.5654H56.3285" stroke="#263238" stroke-width="0.5" stroke-linecap="round" stroke-linejoin="round"/>
<path d="M58.6531 26.7324H63.572" stroke="#263238" stroke-width="0.5" stroke-linecap="round" stroke-linejoin="round"/>
<path d="M58.6531 28.2568H63.572" stroke="#263238" stroke-width="0.5" stroke-linecap="round" stroke-linejoin="round"/>
<path d="M58.6531 29.7803H63.572" stroke="#263238" stroke-width="0.5" stroke-linecap="round" stroke-linejoin="round"/>
<path d="M58.6531 31.3037H63.572" stroke="#263238" stroke-width="0.5" stroke-linecap="round" stroke-linejoin="round"/>
<path d="M34.0216 64.2461H31.2187V74.6087H34.0216V64.2461Z" fill="#263238" stroke="#263238" stroke-width="0.5" stroke-linecap="round" stroke-linejoin="round"/>
<path d="M38.4254 67.9746H35.6224V74.6094H38.4254V67.9746Z" fill="#00AAD3" stroke="#263238" stroke-linecap="round" stroke-linejoin="round"/>
<path d="M42.8322 61.9775H40.0292V74.6087H42.8322V61.9775Z" fill="#263238" stroke="#263238" stroke-width="0.5" stroke-linecap="round" stroke-linejoin="round"/>
<path d="M47.239 64.5918H44.436V74.6124H47.239V64.5918Z" fill="#00AAD3" stroke="#263238" stroke-linecap="round" stroke-linejoin="round"/>
<path d="M51.6427 62.3008H48.8397V74.609H51.6427V62.3008Z" fill="#263238" stroke="#263238" stroke-width="0.5" stroke-linecap="round" stroke-linejoin="round"/>
<path d="M56.0495 55.0088H53.2466V74.613H56.0495V55.0088Z" fill="#00AAD3" stroke="#263238" stroke-linecap="round" stroke-linejoin="round"/>
<path d="M59.199 54.8037H60.8396" stroke="#263238" stroke-width="0.5" stroke-linecap="round" stroke-linejoin="round"/>
<path d="M59.199 58.7627H60.8396" stroke="#263238" stroke-width="0.5" stroke-linecap="round" stroke-linejoin="round"/>
<path d="M59.199 62.7266H60.8396" stroke="#263238" stroke-width="0.5" stroke-linecap="round" stroke-linejoin="round"/>
<path d="M59.199 66.6895H60.8396" stroke="#263238" stroke-width="0.5" stroke-linecap="round" stroke-linejoin="round"/>
<path d="M59.199 70.6533H60.8396" stroke="#263238" stroke-width="0.5" stroke-linecap="round" stroke-linejoin="round"/>
<path d="M59.199 74.6133H60.8396" stroke="#263238" stroke-width="0.5" stroke-linecap="round" stroke-linejoin="round"/>
<path d="M32.8226 60.4273L37.1159 63.6459L41.584 57.7179L45.997 58.1777L50.2719 56.0763L55.1111 48.1875" stroke="#263238" stroke-linecap="round" stroke-linejoin="round"/>
<path d="M33.3623 60.4197C33.3623 60.2865 33.3304 60.1563 33.2706 60.0456C33.2108 59.9349 33.1258 59.8487 33.0265 59.7979C32.9271 59.7471 32.8178 59.734 32.7124 59.7603C32.6071 59.7865 32.5104 59.851 32.4346 59.9454C32.3588 60.0399 32.3073 60.1601 32.2867 60.2908C32.2661 60.4215 32.2773 60.5569 32.3189 60.6797C32.3604 60.8025 32.4305 60.9073 32.5201 60.9808C32.6098 61.0542 32.7151 61.093 32.8225 61.0923C32.8937 61.0923 32.9641 61.0748 33.0298 61.041C33.0955 61.0071 33.1551 60.9575 33.2053 60.895C33.2554 60.8325 33.2951 60.7583 33.3221 60.6768C33.349 60.5952 33.3627 60.5078 33.3623 60.4197Z" fill="#263238"/>
<path d="M37.6587 63.6462C37.6587 63.5132 37.6268 63.3832 37.5672 63.2726C37.5075 63.1619 37.4228 63.0757 37.3236 63.0248C37.2244 62.9739 37.1153 62.9606 37.01 62.9866C36.9047 63.0125 36.808 63.0766 36.732 63.1706C36.6561 63.2647 36.6044 63.3845 36.5835 63.515C36.5625 63.6455 36.5733 63.7807 36.6144 63.9036C36.6555 64.0265 36.725 64.1316 36.8143 64.2055C36.9036 64.2794 37.0085 64.3188 37.1159 64.3188C37.1873 64.3193 37.258 64.3023 37.3241 64.2687C37.3901 64.235 37.4501 64.1855 37.5006 64.123C37.5511 64.0604 37.591 63.9861 37.6182 63.9042C37.6453 63.8224 37.6591 63.7347 37.6587 63.6462Z" fill="#263238"/>
<path d="M42.1237 57.7175C42.1237 57.5843 42.0918 57.4541 42.0321 57.3434C41.9723 57.2328 41.8873 57.1466 41.788 57.0958C41.6886 57.045 41.5793 57.0319 41.4739 57.0581C41.3685 57.0844 41.2718 57.1488 41.196 57.2433C41.1203 57.3377 41.0688 57.4579 41.0482 57.5886C41.0276 57.7194 41.0388 57.8547 41.0804 57.9776C41.1219 58.1004 41.192 58.2052 41.2816 58.2786C41.3713 58.3521 41.4765 58.3909 41.584 58.3901C41.6552 58.3901 41.7256 58.3727 41.7913 58.3388C41.857 58.305 41.9166 58.2554 41.9668 58.1929C42.0169 58.1304 42.0566 58.0562 42.0835 57.9746C42.1105 57.893 42.1242 57.8057 42.1237 57.7175Z" fill="#263238"/>
<path d="M46.5367 58.1775C46.5367 58.0443 46.5048 57.9141 46.445 57.8034C46.3852 57.6927 46.3003 57.6065 46.2009 57.5557C46.1016 57.5049 45.9923 57.4918 45.8869 57.5181C45.7815 57.5444 45.6848 57.6088 45.609 57.7032C45.5332 57.7977 45.4818 57.9179 45.4612 58.0486C45.4406 58.1793 45.4518 58.3147 45.4933 58.4375C45.5349 58.5603 45.6049 58.6651 45.6946 58.7386C45.7843 58.812 45.8895 58.8508 45.997 58.8501C46.0681 58.8501 46.1386 58.8327 46.2042 58.7988C46.2699 58.765 46.3296 58.7154 46.3797 58.6528C46.4299 58.5903 46.4696 58.5162 46.4965 58.4346C46.5235 58.353 46.5371 58.2656 46.5367 58.1775Z" fill="#263238"/>
<path d="M50.8147 55.9704C50.8147 55.8374 50.7828 55.7074 50.7232 55.5968C50.6635 55.4862 50.5788 55.4 50.4796 55.3491C50.3804 55.2981 50.2713 55.2848 50.166 55.3108C50.0607 55.3367 49.964 55.4008 49.888 55.4948C49.8121 55.5889 49.7604 55.7088 49.7395 55.8392C49.7186 55.9697 49.7293 56.1049 49.7704 56.2278C49.8115 56.3507 49.881 56.4558 49.9703 56.5297C50.0596 56.6036 50.1645 56.643 50.2719 56.643C50.4158 56.643 50.5539 56.5722 50.6557 56.4461C50.7575 56.3199 50.8147 56.1488 50.8147 55.9704Z" fill="#263238"/>
<path d="M55.6508 48.1872C55.6508 48.054 55.6189 47.9239 55.5592 47.8132C55.4994 47.7025 55.4144 47.6163 55.3151 47.5655C55.2157 47.5147 55.1064 47.5016 55.001 47.5279C54.8956 47.5541 54.7989 47.6186 54.7231 47.713C54.6474 47.8074 54.5959 47.9276 54.5753 48.0584C54.5547 48.1891 54.5659 48.3244 54.6075 48.4473C54.649 48.5701 54.7191 48.6749 54.8087 48.7483C54.8984 48.8218 55.0036 48.8606 55.1111 48.8598C55.2545 48.8588 55.3918 48.7875 55.493 48.6615C55.5941 48.5355 55.6508 48.365 55.6508 48.1872Z" fill="#263238"/>
<path d="M162.53 157.1H164.278V136.23H162.53V157.1Z" fill="#263238" stroke="#263238" stroke-linecap="round" stroke-linejoin="round"/>
<path d="M171.236 136.963L174.318 137.409L176.274 116.681L173.192 116.234L171.236 136.963Z" fill="#263238" stroke="#263238" stroke-linecap="round" stroke-linejoin="round"/>
<path d="M161.184 157.954V154.436H165.621V157.985L183.371 166.812V170.977H182.16V167.812L163.34 162.503L145.017 167.812V170.977H143.839V166.812L161.184 157.954Z" fill="#8C8C8C" stroke="#263238" stroke-linecap="round" stroke-linejoin="round"/>
<path d="M159.034 142.895H167.774V136.229H159.034V142.895Z" fill="#263238" stroke="#263238" stroke-linecap="round" stroke-linejoin="round"/>
<path d="M183.387 171.144C183.387 170.682 183.497 170.231 183.704 169.847C183.911 169.463 184.206 169.164 184.55 168.988C184.894 168.811 185.273 168.765 185.638 168.856C186.003 168.946 186.339 169.169 186.602 169.495C186.865 169.822 187.044 170.238 187.117 170.691C187.189 171.144 187.151 171.613 187.008 172.039C186.865 172.466 186.624 172.83 186.313 173.086C186.003 173.341 185.639 173.478 185.267 173.477C185.019 173.477 184.775 173.417 184.546 173.299C184.318 173.182 184.111 173.01 183.936 172.793C183.762 172.577 183.623 172.319 183.529 172.036C183.435 171.753 183.386 171.45 183.387 171.144Z" fill="#263238" stroke="#263238" stroke-linecap="round" stroke-linejoin="round"/>
<path d="M184.445 171.144C184.445 170.946 184.492 170.753 184.581 170.589C184.669 170.424 184.795 170.296 184.943 170.221C185.09 170.145 185.252 170.125 185.409 170.164C185.565 170.202 185.709 170.297 185.821 170.437C185.934 170.577 186.011 170.755 186.042 170.949C186.073 171.143 186.057 171.344 185.996 171.526C185.935 171.709 185.832 171.865 185.699 171.975C185.567 172.085 185.411 172.143 185.251 172.143C185.037 172.143 184.832 172.038 184.681 171.851C184.53 171.663 184.445 171.409 184.445 171.144Z" fill="white" stroke="#263238" stroke-linecap="round" stroke-linejoin="round"/>
<path d="M139.938 171.144C139.938 170.682 140.049 170.231 140.255 169.847C140.462 169.464 140.756 169.165 141.1 168.988C141.445 168.812 141.823 168.765 142.188 168.855C142.554 168.945 142.889 169.168 143.152 169.494C143.416 169.82 143.595 170.236 143.668 170.689C143.74 171.141 143.703 171.61 143.561 172.037C143.418 172.463 143.177 172.827 142.867 173.084C142.558 173.34 142.193 173.477 141.821 173.477C141.322 173.477 140.843 173.231 140.49 172.794C140.136 172.356 139.938 171.763 139.938 171.144Z" fill="#263238" stroke="#263238" stroke-linecap="round" stroke-linejoin="round"/>
<path d="M141.821 172.143C142.266 172.143 142.628 171.696 142.628 171.144C142.628 170.592 142.266 170.145 141.821 170.145C141.376 170.145 141.014 170.592 141.014 171.144C141.014 171.696 141.376 172.143 141.821 172.143Z" fill="white" stroke="#263238" stroke-linecap="round" stroke-linejoin="round"/>
<path d="M162.595 171.099H164.073L164.815 158.601H161.856L162.595 171.099Z" fill="#8C8C8C" stroke="#263238" stroke-linecap="round" stroke-linejoin="round"/>
<path d="M162.665 173.595H164.143V168.431H162.665V173.595Z" fill="#263238" stroke="#263238" stroke-linecap="round" stroke-linejoin="round"/>
<path d="M175.045 126.638C175.908 126.741 176.778 126.633 177.607 126.319C178.436 126.006 179.206 125.493 179.875 124.81C180.544 124.127 181.097 123.288 181.504 122.34C181.911 121.392 182.163 120.354 182.246 119.285L184.307 92.7194C184.474 90.5612 183.943 88.409 182.83 86.7359C181.718 85.0627 180.114 84.0056 178.373 83.797C176.631 83.5905 174.894 84.2494 173.544 85.6288C172.194 87.0083 171.341 88.9955 171.172 91.1538L169.108 117.754C168.949 119.907 169.484 122.05 170.596 123.715C171.709 125.38 173.309 126.431 175.045 126.638Z" fill="#8C8C8C" stroke="#263238" stroke-linecap="round" stroke-linejoin="round"/>
<path d="M173.481 126.453C175.223 126.66 176.96 126.002 178.31 124.623C179.66 123.244 180.513 121.258 180.682 119.1L182.746 92.4996C182.908 90.3446 182.374 88.1977 181.261 86.5295C180.148 84.8614 178.547 83.8079 176.809 83.6C175.946 83.4973 175.076 83.6061 174.247 83.9202C173.419 84.2344 172.648 84.7477 171.98 85.4309C171.312 86.1141 170.758 86.9537 170.352 87.9018C169.946 88.85 169.694 89.8881 169.611 90.9568L167.547 117.534C167.38 119.692 167.911 121.844 169.024 123.516C170.137 125.189 171.74 126.245 173.481 126.453Z" fill="#8C8C8C" stroke="#263238" stroke-linecap="round" stroke-linejoin="round"/>
<path d="M144.774 138.319L175.551 139.322C175.722 139.329 175.892 139.294 176.052 139.219C176.212 139.144 176.358 139.031 176.483 138.886C176.607 138.741 176.707 138.567 176.777 138.374C176.848 138.181 176.886 137.972 176.891 137.761L177.048 131.658C177.053 131.446 177.025 131.235 176.964 131.037C176.904 130.839 176.812 130.658 176.695 130.504C176.578 130.35 176.438 130.226 176.282 130.139C176.126 130.052 175.958 130.004 175.787 129.997L145.013 128.994C144.843 128.987 144.673 129.022 144.513 129.096C144.353 129.171 144.207 129.284 144.082 129.428C143.958 129.573 143.858 129.747 143.787 129.94C143.717 130.133 143.678 130.341 143.673 130.552L143.52 136.659C143.509 137.085 143.635 137.499 143.87 137.81C144.105 138.121 144.43 138.304 144.774 138.319Z" fill="#8C8C8C" stroke="#263238" stroke-linecap="round" stroke-linejoin="round"/>
<path d="M157.643 138.615L175.555 139.316C176.273 139.344 176.873 138.646 176.896 137.757L177.051 131.653C177.074 130.764 176.511 130.02 175.793 129.992L157.88 129.291C157.163 129.262 156.562 129.961 156.54 130.85L156.384 136.954C156.361 137.843 156.925 138.587 157.643 138.615Z" fill="#8C8C8C" stroke="#263238" stroke-linecap="round" stroke-linejoin="round"/>
<path d="M142.723 164.433L142.572 165.839C142.572 165.839 141.211 169.213 140.68 169.776C140.15 170.338 136.822 172.117 136.218 172.398C135.614 172.679 136.672 173.538 138.11 173.618C139.549 173.697 142.195 173.713 143.103 173.431C144.011 173.15 145.749 171.554 146.13 171.463L146.436 172.679C146.436 172.679 148.102 171.919 148.706 171.744C149.31 171.569 150.294 170.604 150.294 170.604C149.951 169.295 149.547 168.011 149.086 166.759C148.807 166.13 148.448 165.561 148.025 165.071L146.893 163.399L142.723 164.433Z" fill="#263238" stroke="#263238" stroke-linecap="round" stroke-linejoin="round"/>
<path d="M151.877 110.884L149.38 112.757L143.934 114.726C143.934 114.726 126.687 118.662 125.703 120.08C124.718 121.497 125.089 122.706 125.93 124.488C126.77 126.27 141.373 165.744 141.373 165.744L147.427 164.243L137.289 126.445C137.289 126.445 156.354 131.225 159.675 130.473C162.996 129.72 167.241 125.32 167.995 121.946C168.749 118.571 165.272 113.206 165.272 113.206L151.877 110.884Z" fill="#00AAD3" stroke="#263238" stroke-linecap="round" stroke-linejoin="round"/>
<path d="M132.998 122.777C132.998 122.777 136.81 125.057 137.494 127.622" stroke="#263238" stroke-linecap="round" stroke-linejoin="round"/>
<path d="M171.62 79.5753L163.45 78.6367L151.499 112.195L159.365 113.882L171.62 79.5753Z" fill="white" stroke="#263238" stroke-linecap="round" stroke-linejoin="round"/>
<path d="M163.601 81.7721C163.601 81.7721 151.65 111.72 151.493 112.195C151.337 112.67 147.939 113.882 147.182 114.068C146.424 114.254 143.928 114.726 143.928 114.726L148.166 111.165L151.187 101.509L147.507 99.1799C147.507 99.1799 154.315 86.5259 155.827 82.2129C157.338 77.8999 157.933 76.7599 159.442 76.6687C160.951 76.5775 165.269 76.9499 165.269 76.9499L163.601 81.7721Z" fill="#00AAD3" stroke="#263238" stroke-linecap="round" stroke-linejoin="round"/>
<path d="M161.938 88.1027L162.089 90.2611C162.089 90.2611 154.146 107.882 154.072 108.258C153.999 108.634 154.686 111.256 154.686 111.256L157.486 108.725L162.779 90.6373L164.217 89.6037V86.2559L161.938 88.1027Z" fill="#263238" stroke="#263238" stroke-linecap="round" stroke-linejoin="round"/>
<path d="M165.097 55.7115C165.097 55.7115 162.288 64.1399 161.665 66.6935C161.043 69.2471 160.604 73.4195 160.745 73.8831C160.887 74.3467 161.665 75.9693 163.116 76.0491C164.567 76.1289 165.799 76.1251 165.799 76.1251L163.616 81.7719C163.616 81.7719 163.864 86.1799 164.229 86.2559C164.594 86.3319 170.096 81.0765 170.221 80.8409C170.347 80.6053 173.84 71.3409 173.84 71.3409C173.84 71.3409 176.962 69.4067 177.149 67.7043C177.21 67.228 177.167 66.7402 177.024 66.2917C176.881 65.8432 176.644 65.4505 176.336 65.1545V63.0645L177.71 57.9611C177.71 57.9611 174.279 55.1795 170.47 54.0167C166.661 52.8539 165.851 53.6367 165.851 53.6367L165.097 55.7115Z" fill="white" stroke="#263238" stroke-linecap="round" stroke-linejoin="round"/>
<path d="M171.399 50.9956C171.399 50.9956 165.784 49.1374 163.288 51.8468C160.791 54.5562 167.281 58.8996 169.403 59.2796C171.525 59.6596 174.147 59.1238 173.521 59.823C172.896 60.5222 171.525 61.6014 172.212 62.2968C172.643 62.7258 173.128 63.0647 173.647 63.3C173.647 63.3 170.715 71.28 170.215 72.192C169.715 73.104 168.78 73.0432 168.219 72.8114C167.658 72.5796 164.974 70.4934 164.1 70.1058C163.226 69.7182 161.604 68.5592 161.23 69.798C160.856 71.0368 159.917 76.2922 161.291 77.4512C162.665 78.6102 169.341 75.6728 170.341 74.8216C171.341 73.9704 171.651 72.4238 171.838 72.116C172.025 71.8082 174.708 66.3172 174.956 65.9296C175.205 65.542 176.33 65.1696 176.33 65.1696C176.33 65.1696 178.578 59.5988 178.765 57.4366C178.952 55.2744 173.086 50.9196 171.399 50.9956Z" fill="#263238" stroke="#263238" stroke-linecap="round" stroke-linejoin="round"/>
<path d="M165.536 61.7422L165.41 65.1622C165.41 65.1622 162.478 69.2586 162.478 69.7222C162.478 70.1858 165.971 69.6462 165.971 69.6462" stroke="#263238" stroke-linecap="round" stroke-linejoin="round"/>
<path d="M165.097 60.971C164.99 60.7119 164.813 60.5077 164.596 60.3945C164.38 60.2812 164.138 60.266 163.913 60.3516" stroke="#263238" stroke-linecap="round" stroke-linejoin="round"/>
<path d="M167.719 62.9012C167.719 62.9012 169.528 62.6694 170.09 64.3718" stroke="#263238" stroke-linecap="round" stroke-linejoin="round"/>
<path d="M162.84 71.4854C162.84 71.4854 164.462 72.7242 165.523 72.7242" stroke="white" stroke-linecap="round" stroke-linejoin="round"/>
<path d="M168.335 66.2526C168.164 66.6744 167.851 66.9024 167.636 66.7694C167.422 66.6364 167.385 66.1842 167.556 65.7662C167.728 65.3482 168.041 65.1164 168.256 65.2494C168.47 65.3824 168.507 65.8346 168.335 66.2526Z" fill="#263238"/>
<path d="M164.429 64.372C164.26 64.79 163.944 65.0218 163.729 64.885C163.515 64.7482 163.478 64.3036 163.65 63.8818C163.821 63.46 164.134 63.232 164.349 63.3688C164.563 63.5056 164.6 63.9502 164.429 64.372Z" fill="#263238"/>
<path d="M137.353 161.298L136.822 165.235L135.688 165.615C135.688 165.615 134.627 167.199 134.403 167.579C134.179 167.959 131.376 170.482 130.622 170.954C129.867 171.425 127.972 171.607 128.049 172.265C128.125 172.922 132.133 173.484 134.706 173.576C137.279 173.667 138.715 172.641 138.715 172.641L138.941 173.294L141.588 173.013C141.588 173.013 141.438 169.92 141.514 168.609C141.538 167.543 141.487 166.476 141.361 165.421L141.211 162.704L137.353 161.298Z" fill="#263238" stroke="#263238" stroke-linecap="round" stroke-linejoin="round"/>
<path d="M158.611 115.288C158.611 115.288 137.126 118.567 136.672 119.225C136.218 119.882 136.595 139.285 136.595 139.285L134.099 161.994L141.815 164.92C141.815 164.92 144.238 145.772 145.069 140.6C145.637 136.754 146.041 132.874 146.28 128.976C146.28 128.976 158.157 132.35 162.227 129.538C166.296 126.726 165.477 123.257 165.477 123.257" fill="#00AAD3"/>
<path d="M158.611 115.288C158.611 115.288 137.126 118.567 136.672 119.225C136.218 119.882 136.595 139.285 136.595 139.285L134.099 161.994L141.815 164.92C141.815 164.92 144.238 145.772 145.069 140.6C145.637 136.754 146.041 132.874 146.28 128.976C146.28 128.976 158.157 132.35 162.227 129.538C166.296 126.726 165.477 123.257 165.477 123.257" stroke="#263238" stroke-linecap="round" stroke-linejoin="round"/>
<path d="M137.006 138.525C137.006 138.525 137.985 133.076 138.178 130.165" stroke="#263238" stroke-linecap="round" stroke-linejoin="round"/>
<path d="M144.682 125.84C144.449 125.454 144.169 125.115 143.851 124.837" stroke="#263238" stroke-linecap="round" stroke-linejoin="round"/>
<path d="M146.28 128.976C146.28 128.976 145.845 127.919 145.274 126.852" stroke="#263238" stroke-linecap="round" stroke-linejoin="round"/>
<path d="M171.319 77.793C171.319 77.793 162.769 97.2794 160.954 102.257C159.138 107.235 156.707 114.163 156.707 114.911C156.707 115.66 155.118 134.88 155.649 135.253C156.179 135.625 164.119 132.441 167.826 130.662C171.534 128.884 171.684 127.569 171.988 126.536C172.291 125.502 172.215 112.194 172.215 112.194C172.215 112.194 179.93 85.0092 179.854 83.7932C179.777 82.5772 171.319 77.793 171.319 77.793Z" fill="#00AAD3" stroke="#263238" stroke-linecap="round" stroke-linejoin="round"/>
<path d="M164.821 97.5078C163.42 99.2102 162.242 100.479 162.242 100.479" stroke="#263238" stroke-linecap="round" stroke-linejoin="round"/>
<path d="M174.043 79.9482C174.043 79.9482 170.488 88.5742 168.67 92.0436C167.772 93.6336 166.76 95.1192 165.646 96.482" stroke="#263238" stroke-linecap="round" stroke-linejoin="round"/>
<path d="M162.671 78.1387C162.671 78.1387 158.991 85.7615 157.93 90.2607C156.869 94.7599 156.642 97.1007 156.642 97.1007" stroke="#263238" stroke-linecap="round" stroke-linejoin="round"/>
<path d="M160.727 89.0413L164.223 86.2559L164.358 92.7919" stroke="#263238" stroke-linecap="round" stroke-linejoin="round"/>
<path d="M168.185 118.328L169.354 118.1" stroke="#263238" stroke-linecap="round" stroke-linejoin="round"/>
<path d="M168.973 116.412L160.727 117.632V119.787L166.615 118.635" stroke="#263238" stroke-linecap="round" stroke-linejoin="round"/>
<path d="M157.476 81.0727C157.476 81.0727 158.838 77.5121 159.519 77.4171C160.2 77.3221 161.711 77.4171 161.711 78.1771C161.711 78.9371 160.88 79.0207 160.88 79.0207H159.746L159.215 80.7079L157.476 81.0727Z" fill="white" stroke="#263238" stroke-linecap="round" stroke-linejoin="round"/>
<path d="M155.584 87.8217L156.115 84.1661C156.115 84.1661 156.342 80.9817 156.728 80.7917C157.115 80.6017 160.586 80.7005 160.586 80.7005C160.586 80.7005 160.663 84.4473 160.359 85.3859C160.055 86.3245 158.694 86.6969 158.694 86.6969C158.568 87.2815 158.391 87.8473 158.166 88.3841C157.939 88.7641 157.105 89.2277 157.105 89.2277L156.878 89.9877L154.913 88.3917L155.584 87.8217Z" fill="white" stroke="#263238" stroke-linecap="round" stroke-linejoin="round"/>
<path d="M158.685 86.7004L158.307 84.9182L159.746 84.8232" fill="white"/>
<path d="M158.685 86.7004L158.307 84.9182L159.746 84.8232" stroke="#263238" stroke-linecap="round" stroke-linejoin="round"/>
<path d="M154.827 87.5439L157.93 90.2609L156.719 91.8531L154.072 88.8549L154.827 87.5439Z" fill="white" stroke="#263238" stroke-linecap="round" stroke-linejoin="round"/>
<path d="M154.072 88.8555L157.627 92.1349L150.819 104.979C150.013 105.191 149.176 105.125 148.399 104.789C147.111 104.226 145.903 101.042 145.903 100.666C145.903 100.29 154.072 88.8555 154.072 88.8555Z" fill="#00AAD3" stroke="#263238" stroke-linecap="round" stroke-linejoin="round"/>
<path d="M151.349 103.759C151.349 103.759 150.215 101.133 150.138 100.384C150.061 99.6359 149.988 98.1349 149.607 97.5725C149.227 97.0101 148.776 96.6339 148.626 95.7903C148.476 94.9467 147.792 95.3229 147.706 96.1703C147.62 97.0177 148.233 97.8575 148.233 97.8575C148.233 97.8575 146.344 97.0975 146.041 97.2951C145.737 97.4927 145.121 97.7625 145.283 98.4351C145.384 98.8477 145.513 99.2493 145.667 99.6359C145.667 99.6359 144.458 101.604 144.458 102.539C144.458 103.474 145.289 104.979 145.897 105.541C146.504 106.103 148.62 106.681 148.62 106.681L151.349 103.759Z" fill="white" stroke="#263238" stroke-linecap="round" stroke-linejoin="round"/>
<path d="M173.175 84.4697L166.327 102.071L149.607 103.211C149.186 103.338 148.8 103.606 148.494 103.986C148.187 104.366 147.971 104.844 147.869 105.366C147.693 106.223 147.616 107.108 147.642 107.992C147.642 107.992 158.761 109.679 162.242 109.96C165.723 110.241 169.958 110.804 170.488 110.146C171.019 109.489 177.296 93.3693 177.296 93.3693" fill="#00AAD3"/>
<path d="M173.175 84.4697L166.327 102.071L149.607 103.211C149.186 103.338 148.8 103.606 148.494 103.986C148.187 104.366 147.971 104.844 147.869 105.366C147.693 106.223 147.616 107.108 147.642 107.992C147.642 107.992 158.761 109.679 162.242 109.96C165.723 110.241 169.958 110.804 170.488 110.146C171.019 109.489 177.296 93.3693 177.296 93.3693" stroke="#263238" stroke-linecap="round" stroke-linejoin="round"/>
<path d="M73.1001 136.234H71.3521V157.104H73.1001V136.234Z" fill="#263238" stroke="#263238" stroke-linecap="round" stroke-linejoin="round"/>
<path d="M62.449 116.239L59.3665 116.686L61.3228 137.414L64.4052 136.967L62.449 116.239Z" fill="#263238" stroke="#263238" stroke-linecap="round" stroke-linejoin="round"/>
<path d="M74.4464 157.954V154.436H70.0089V157.985L52.2591 166.812V170.977H53.4704V167.812L72.2905 162.503L90.6139 167.812V170.977H91.7915V166.812L74.4464 157.954Z" fill="#8C8C8C" stroke="#263238" stroke-linecap="round" stroke-linejoin="round"/>
<path d="M76.5961 136.234H67.8561V142.9H76.5961V136.234Z" fill="#263238" stroke="#263238" stroke-linecap="round" stroke-linejoin="round"/>
<path d="M52.2591 171.145C52.2591 170.683 52.1486 170.232 51.9417 169.848C51.7348 169.465 51.4408 169.166 51.0967 168.989C50.7526 168.813 50.374 168.766 50.0088 168.856C49.6435 168.946 49.308 169.169 49.0447 169.495C48.7814 169.821 48.602 170.237 48.5294 170.69C48.4567 171.142 48.494 171.611 48.6365 172.038C48.779 172.464 49.0204 172.828 49.33 173.085C49.6397 173.341 50.0037 173.478 50.3761 173.478C50.8755 173.478 51.3544 173.232 51.7076 172.795C52.0607 172.357 52.2591 171.764 52.2591 171.145Z" fill="#263238" stroke="#263238" stroke-linecap="round" stroke-linejoin="round"/>
<path d="M51.1827 171.145C51.1827 170.947 51.1354 170.754 51.0468 170.59C50.9581 170.425 50.8322 170.297 50.6848 170.222C50.5374 170.146 50.3752 170.126 50.2188 170.165C50.0623 170.203 49.9186 170.298 49.8058 170.438C49.693 170.578 49.6162 170.756 49.5851 170.95C49.554 171.144 49.57 171.345 49.631 171.527C49.692 171.71 49.7954 171.866 49.9281 171.976C50.0607 172.086 50.2166 172.144 50.3761 172.144C50.5901 172.144 50.7952 172.039 50.9464 171.852C51.0977 171.664 51.1827 171.41 51.1827 171.145Z" fill="white" stroke="#263238" stroke-linecap="round" stroke-linejoin="round"/>
<path d="M95.68 171.145C95.68 170.683 95.5696 170.232 95.3627 169.848C95.1558 169.465 94.8617 169.166 94.5176 168.989C94.1736 168.813 93.795 168.766 93.4297 168.856C93.0645 168.946 92.729 169.169 92.4656 169.495C92.2023 169.821 92.023 170.237 91.9503 170.69C91.8777 171.142 91.9149 171.611 92.0575 172.038C92.2 172.464 92.4413 172.828 92.751 173.085C93.0606 173.341 93.4246 173.478 93.7971 173.478C94.2964 173.478 94.7754 173.232 95.1285 172.795C95.4816 172.357 95.68 171.764 95.68 171.145Z" fill="#263238" stroke="#263238" stroke-linecap="round" stroke-linejoin="round"/>
<path d="M93.8093 172.144C94.2547 172.144 94.6158 171.697 94.6158 171.145C94.6158 170.593 94.2547 170.146 93.8093 170.146C93.3639 170.146 93.0028 170.593 93.0028 171.145C93.0028 171.697 93.3639 172.144 93.8093 172.144Z" fill="white" stroke="#263238" stroke-linecap="round" stroke-linejoin="round"/>
<path d="M73.0327 171.099H71.5545L70.8155 158.601H73.7748L73.0327 171.099Z" fill="#8C8C8C" stroke="#263238" stroke-linecap="round" stroke-linejoin="round"/>
<path d="M72.9652 168.432H71.4871V173.596H72.9652V168.432Z" fill="#263238" stroke="#263238" stroke-linecap="round" stroke-linejoin="round"/>
<path d="M60.5851 126.639C59.7226 126.742 58.8522 126.634 58.0235 126.32C57.1948 126.007 56.4241 125.494 55.7555 124.811C55.0868 124.128 54.5332 123.289 54.1264 122.341C53.7196 121.393 53.4675 120.355 53.3845 119.286L51.3207 92.6862C51.2373 91.6175 51.3247 90.5389 51.5778 89.5121C51.831 88.4852 52.2449 87.5302 52.7959 86.7017C53.347 85.8731 54.0244 85.1872 54.7894 84.6831C55.5545 84.179 56.3922 83.8666 57.2547 83.7638C58.9966 83.5573 60.7335 84.2162 62.0836 85.5956C63.4338 86.9751 64.2868 88.9623 64.4552 91.1206L66.5191 117.721C66.6865 119.878 66.1554 122.03 65.0426 123.703C63.9298 125.375 62.3264 126.431 60.5851 126.639Z" fill="#8C8C8C" stroke="#263238" stroke-linecap="round" stroke-linejoin="round"/>
<path d="M62.1491 126.453C60.4074 126.66 58.6705 126.002 57.3203 124.623C55.97 123.244 55.1169 121.258 54.9485 119.1L52.8847 92.4996C52.7223 90.3452 53.2557 88.1989 54.368 86.5308C55.4802 84.8627 57.0806 83.8089 58.8187 83.6C60.5608 83.3925 62.2981 84.051 63.6485 85.4307C64.9988 86.8103 65.8516 88.7981 66.0192 90.9568L68.08 117.53C68.2475 119.688 67.7169 121.839 66.6048 123.512C65.4927 125.186 63.8901 126.243 62.1491 126.453Z" fill="#8C8C8C" stroke="#263238" stroke-linecap="round" stroke-linejoin="round"/>
<path d="M91.9203 138.32L60.0791 139.323C59.9083 139.33 59.7381 139.295 59.5783 139.22C59.4186 139.145 59.2722 139.032 59.1478 138.887C59.0233 138.742 58.9232 138.568 58.853 138.375C58.7828 138.182 58.7441 137.973 58.7389 137.762L58.5733 131.659C58.5626 131.232 58.689 130.818 58.9247 130.506C59.1605 130.195 59.4863 130.012 59.8307 129.998L91.6933 128.995C91.864 128.988 92.034 129.023 92.1938 129.097C92.3536 129.172 92.4999 129.285 92.6244 129.429C92.7489 129.574 92.8491 129.748 92.9193 129.941C92.9895 130.133 93.0283 130.342 93.0335 130.553L93.1899 136.66C93.1952 136.872 93.1665 137.084 93.1054 137.283C93.0444 137.481 92.9522 137.663 92.8341 137.818C92.7161 137.972 92.5746 138.096 92.4178 138.182C92.2609 138.268 92.0918 138.315 91.9203 138.32Z" fill="#8C8C8C" stroke="#263238" stroke-linecap="round" stroke-linejoin="round"/>
<path d="M77.7581 129.295L59.8455 129.996C59.1277 130.024 58.5643 130.768 58.5869 131.657L58.7426 137.761C58.7653 138.65 59.3655 139.348 60.0833 139.32L77.9959 138.619C78.7137 138.591 79.2772 137.847 79.2545 136.958L79.0988 130.854C79.0761 129.965 78.4759 129.266 77.7581 129.295Z" fill="#8C8C8C" stroke="#263238" stroke-linecap="round" stroke-linejoin="round"/>
<path d="M95.9867 125.891C95.9867 125.891 96.2596 132.411 96.9833 138.252C97.7071 144.093 98.9061 161.812 98.9061 161.812C99.2832 163.591 99.7967 165.322 100.439 166.98C100.869 168.081 101.418 169.104 102.071 170.02C102.071 170.02 104.429 172.942 104.337 173.391C104.245 173.839 102.767 173.793 101.317 173.455C99.866 173.117 99.5685 172.695 98.7528 172.015C97.9371 171.335 96.0817 170.465 95.266 170.115C94.4503 169.765 94.1804 168.884 94.4533 167.873C94.7263 166.862 95.634 164.502 95.634 163.043C95.634 161.584 94.9072 154.66 92.92 150.051C90.9328 145.442 89.746 137.465 89.746 137.465L95.9867 125.891Z" fill="white" stroke="#263238" stroke-linecap="round" stroke-linejoin="round"/>
<path d="M96.4681 168.211C95.8916 167.656 95.3519 167.071 94.8919 166.52C94.7201 167.063 94.5607 167.542 94.4717 167.872C94.1988 168.883 94.4717 169.772 95.2844 170.114C96.0971 170.456 97.9555 171.33 98.7712 172.014C99.5869 172.698 99.8844 173.116 101.335 173.455C102.785 173.793 104.267 173.835 104.356 173.39C104.445 172.945 102.089 170.019 102.089 170.019L100.912 170.696C100.912 170.696 98.0996 169.784 96.4681 168.211Z" fill="#00AAD3" stroke="#263238" stroke-linecap="round" stroke-linejoin="round"/>
<path d="M61.1984 112.499C61.1984 112.499 60.3827 116.458 60.8273 118.959C61.272 121.459 64.3203 127.243 69.5949 128.626C74.8696 130.009 88.1268 129.557 88.1268 129.557C88.1268 129.557 84.9313 135.572 83.7415 142.815C82.9564 147.611 80.5491 154.322 80.178 155.336C79.8069 156.351 75.4216 158.19 75.578 159.018C75.7344 159.847 76.2465 165 77.3597 167.12C78.4729 169.24 80.3313 170.16 81.0735 170.434C81.8156 170.707 81.9659 170.707 81.9659 169.788C81.9659 168.868 81.4445 167.58 81.4445 166.748C81.4445 165.915 81.3709 160.288 81.6684 159.566C81.9659 158.844 91.6933 139.84 93.1776 136.724C94.6619 133.608 96.968 127.516 97.6365 126.506C98.3051 125.495 99.1208 124.112 98.4523 122.364C97.7837 120.616 82.4351 114.764 82.4351 114.764L81.6285 111.226L73.9619 110.675L61.1984 112.499Z" fill="white" stroke="#263238" stroke-linecap="round" stroke-linejoin="round"/>
<path d="M82.4351 114.761L81.6285 111.223L73.9619 110.672L61.1831 112.511C61.1831 112.511 60.3489 116.474 60.812 118.971C61.548 122.919 64.3049 127.255 69.5796 128.638C74.8543 130.021 88.1115 129.569 88.1115 129.569C88.1115 129.569 89.3688 121.783 91.8252 118.747C88.8751 117.5 82.4351 114.761 82.4351 114.761Z" fill="#263238" stroke="#263238" stroke-linecap="round" stroke-linejoin="round"/>
<path d="M88.1268 129.542C89.896 128.962 91.613 128.16 93.2512 127.148L88.1268 129.542Z" fill="white"/>
<path d="M88.1268 129.542C89.896 128.962 91.613 128.16 93.2512 127.148" stroke="#263238" stroke-linecap="round" stroke-linejoin="round"/>
<path d="M78.0957 163.423C77.5683 161.903 77.602 158.863 77.6695 157.236C76.5471 157.924 75.4952 158.589 75.5719 159.003C75.7191 159.832 76.2404 164.985 77.3536 167.105C78.4668 169.225 80.3252 170.145 81.0673 170.419C81.8095 170.692 81.9597 170.692 81.9597 169.773C81.9597 168.853 81.4415 167.569 81.4384 166.733C80.6615 166.61 79.8921 166.423 79.1353 166.174C79.1353 166.174 78.8379 165.539 78.0957 163.423Z" fill="#00AAD3" stroke="#263238" stroke-linecap="round" stroke-linejoin="round"/>
<path d="M77.0224 76.0459L74.7193 77.2429C74.7193 77.2429 76.5777 98.8003 76.5041 101.84C76.4305 104.88 76.2803 110.96 76.2803 110.96C76.2803 110.96 79.4757 112.157 81.6285 111.238L81.4813 100.837C81.4813 100.837 83.0423 90.8925 82.4473 87.6701C81.8524 84.4477 79.994 78.7401 79.994 78.7401C79.994 78.7401 79.12 76.1371 77.0224 76.0459Z" fill="white" stroke="#263238" stroke-linecap="round" stroke-linejoin="round"/>
<path d="M76.36 85.3446L78.5925 81.1304L81.3372 86.0704C81.3372 86.0704 80.1504 79.1658 80.0001 78.706C79.6442 77.8394 79.106 77.1081 78.4423 76.5894C77.5499 75.8522 76.5072 75.8294 75.9153 75.761C75.3235 75.6926 74.7255 77.2354 74.7255 77.2354L76.36 85.3446Z" fill="white" stroke="#263238" stroke-linecap="round" stroke-linejoin="round"/>
<path d="M75.3173 75.708C75.3173 75.708 67.85 77.7334 67.2091 78.311C66.5681 78.8886 66.2891 80.7696 66.4485 81.4916C66.608 82.2136 68.3161 97.8316 68.3161 97.8316L59.7295 113.374C59.7295 113.374 62.5324 116.265 65.1575 116.843C67.7825 117.421 73.3823 116.554 75.3664 115.543L77.3505 114.533C77.3505 114.533 78.2705 95.6618 77.2923 88.2138C76.314 80.7658 75.3173 75.708 75.3173 75.708Z" fill="#00AAD3" stroke="#263238" stroke-linecap="round" stroke-linejoin="round"/>
<path d="M98.2468 99.7082L101.163 98.1197C101.163 98.1197 102.04 95.7333 102.157 95.5167C102.273 95.3001 103.264 94.9391 103.73 94.4299C104.196 93.9207 104.84 93.0581 105.015 92.9859C105.19 92.9137 105.481 93.5635 105.015 94.4299C104.662 95.044 104.25 95.6028 103.788 96.0944L106.649 94.7948C106.649 94.7948 107.757 92.4805 108.048 93.4913C108.339 94.5021 106.821 97.6144 106.475 98.6252C106.128 99.636 105.772 100.145 105.131 100.29C104.491 100.434 102.506 100.867 102.099 100.939C101.691 101.012 99.1791 102.817 99.1791 102.817L98.2468 99.7082Z" fill="white" stroke="#263238" stroke-linecap="round" stroke-linejoin="round"/>
<path d="M102.295 98.9863C102.813 98.4429 103.411 97.9033 103.73 97.9033C104.374 97.9033 105.772 98.0477 105.772 98.0477C105.772 98.0477 106.591 95.7335 106.999 95.3877C107.407 95.0419 107.757 95.5321 107.407 96.2541" fill="white"/>
<path d="M102.295 98.9863C102.813 98.4429 103.411 97.9033 103.73 97.9033C104.374 97.9033 105.772 98.0477 105.772 98.0477C105.772 98.0477 106.591 95.7335 106.999 95.3877C107.407 95.0419 107.757 95.5321 107.407 96.2541" stroke="#263238" stroke-linecap="round" stroke-linejoin="round"/>
<path d="M79.2273 77.4443C79.2273 77.4443 81.0949 87.4915 81.0367 91.2497C80.9784 95.0079 80.04 96.9003 80.2179 98.1923C80.3957 99.4843 80.8005 114.677 80.8005 114.677L82.4351 114.749C82.4351 114.749 82.0272 108.965 82.0855 107.879C82.1437 106.792 82.7264 102.456 82.7264 102.456C82.7264 102.456 85.6459 109.615 86.0537 109.976C86.4616 110.337 99.9979 103.182 99.9979 103.182L99.0043 99.0587L88.6788 101.662C88.6788 101.662 86.6364 93.2751 86.3451 91.4663C86.0537 89.6575 85.8207 83.3001 85.0019 81.7079C84.1831 80.1157 79.2273 77.4443 79.2273 77.4443Z" fill="#00AAD3" stroke="#263238" stroke-linecap="round" stroke-linejoin="round"/>
<path d="M82.7264 102.455C82.7264 102.455 83.076 100.65 83.6617 95.8776C84.0137 93.0281 84.0333 90.1308 83.72 87.2744" stroke="#263238" stroke-linecap="round" stroke-linejoin="round"/>
<path d="M82.0885 83.0723C82.3676 85.6753 82.5761 88.8901 82.202 90.6723C81.775 92.6952 81.2287 94.6765 80.5675 96.6003" stroke="#263238" stroke-linecap="round" stroke-linejoin="round"/>
<path d="M81.5733 79.04C81.5733 79.04 81.7481 80.1306 81.9413 81.7" stroke="#263238" stroke-linecap="round" stroke-linejoin="round"/>
<path d="M75.992 93.1006C76.7494 95.4262 77.418 97.6948 77.418 97.6948" stroke="#263238" stroke-linecap="round" stroke-linejoin="round"/>
<path d="M72.4592 76.8633C72.4592 76.8633 73.7993 87.0587 74.8512 89.8061C75.0659 90.3647 75.2989 91.0259 75.5351 91.7061" stroke="#263238" stroke-linecap="round" stroke-linejoin="round"/>
<path d="M89.0284 97.5423L91.3039 96.7443C91.3039 96.7443 92.7636 94.4301 93.1132 93.8525C93.4628 93.2749 94.2785 93.2749 94.8642 92.8417C95.45 92.4085 96.2044 90.8163 96.4957 91.1051C96.7871 91.3939 96.4957 92.6973 96.1891 93.0583C95.7983 93.4499 95.3887 93.8116 94.9624 94.1413C94.7293 94.3579 97.704 93.4915 97.704 93.4915C97.704 93.4915 99.6299 91.3939 99.7464 91.9715C99.8629 92.5491 98.8693 94.5745 98.8693 94.5745C98.8693 94.5745 97.4709 96.2351 96.7686 96.9571C96.0664 97.6791 94.3767 97.9717 93.9105 98.0971C93.4444 98.2225 92.6286 98.3859 92.6286 98.3859L89.1265 99.9743L89.0284 97.5423Z" fill="white" stroke="#263238" stroke-linecap="round" stroke-linejoin="round"/>
<path d="M98.4216 95C98.4216 95 97.1949 95.722 96.554 96.083L98.4216 95Z" fill="white"/>
<path d="M98.4216 95C98.4216 95 97.1949 95.722 96.554 96.083" stroke="#263238" stroke-linecap="round" stroke-linejoin="round"/>
<path d="M94.9808 94.1416L93.9289 94.4304" stroke="#263238" stroke-linecap="round" stroke-linejoin="round"/>
<path d="M68.491 77.7334C68.491 77.7334 65.0502 79.1774 64.5227 80.2642C63.9952 81.351 65.8659 90.2392 67.2674 95.1564C68.6688 100.074 72.401 108.312 72.8671 108.601C73.3332 108.89 85.5294 103.543 88.32 102.456C91.1107 101.369 91.586 100.796 91.586 100.796L90.3594 96.8892L76.36 99.9976L72.0667 83.3004" fill="#00AAD3"/>
<path d="M68.491 77.7334C68.491 77.7334 65.0502 79.1774 64.5227 80.2642C63.9952 81.351 65.8659 90.2392 67.2674 95.1564C68.6688 100.074 72.401 108.312 72.8671 108.601C73.3332 108.89 85.5294 103.543 88.32 102.456C91.1107 101.369 91.586 100.796 91.586 100.796L90.3594 96.8892L76.36 99.9976L72.0667 83.3004" stroke="#263238" stroke-linecap="round" stroke-linejoin="round"/>
<path d="M85.3975 55.7161C85.3975 55.7161 86.7591 56.8561 86.0691 58.0835C85.3791 59.3109 83.9224 59.3945 83.9224 59.3945L82.6497 56.9093C82.6497 56.9093 84.1647 54.6825 85.3975 55.7161Z" fill="#263238" stroke="#263238" stroke-linecap="round" stroke-linejoin="round"/>
<path d="M83.9684 57.1982C83.9684 57.1982 86.0568 63.339 85.9402 63.8672C85.8237 64.3954 84.8516 65.22 85.2932 66.0218C85.7348 66.8236 87.0289 68.4272 86.9952 68.6514C86.9614 68.8756 85.379 70.0194 85.379 70.0194C85.379 70.0194 84.272 74.9594 83.8212 75.6814C83.3704 76.4034 79.5646 75.5256 79.5646 75.5256L78.7612 81.0584L74.2409 75.8372L72.5512 73.8612C72.5512 73.8612 71.0362 65.4328 74.2501 60.3674C77.464 55.302 83.9684 57.1982 83.9684 57.1982Z" fill="white" stroke="#263238" stroke-linecap="round" stroke-linejoin="round"/>
<path d="M83.6801 65.8504C83.6801 66.3672 83.5084 66.7852 83.3152 66.7814C83.122 66.7776 82.9717 66.352 82.9809 65.8314C82.9901 65.3108 83.1496 64.8966 83.3428 64.9004C83.536 64.9042 83.6863 65.3298 83.6801 65.8504Z" fill="#263238"/>
<path d="M83.6893 71.2543C83.328 71.2331 82.974 71.1211 82.6487 70.9251C82.3235 70.7292 82.0337 70.4533 81.7972 70.1143C81.7972 70.1143 81.6837 72.3373 82.2418 72.4665C82.8 72.5957 83.6893 71.2543 83.6893 71.2543Z" fill="#263238" stroke="#263238" stroke-linecap="round" stroke-linejoin="round"/>
<path d="M82.5148 63.7908C82.5148 63.7908 83.6771 62.571 84.7167 63.9998" stroke="#263238" stroke-linecap="round" stroke-linejoin="round"/>
<path d="M79.5647 75.5254L77.6786 74.9668L79.0985 78.231L79.5647 75.5254Z" fill="#263238" stroke="#263238" stroke-linecap="round" stroke-linejoin="round"/>
<path d="M83.9684 57.1978C83.9684 57.1978 83.5575 58.7976 81.5488 60.8876C79.5401 62.9776 77.7431 64.3076 77.7492 64.8852C77.7553 65.4628 78.0559 66.0024 77.6511 66.143C77.3211 66.1952 76.986 66.1251 76.6881 65.9416C76.6881 65.9416 75.7129 69.3882 75.5657 71.8202C75.5059 73.4254 75.7029 75.0293 76.1453 76.5398C76.1453 76.5398 71.8183 76.8286 69.322 74.4802C66.8257 72.1318 66.1235 69.4718 66.3995 67.1652C66.6755 64.8586 67.4667 57.574 71.3061 54.0058C75.1456 50.4376 80.6472 50.5858 82.5148 52.0412C84.3824 53.4966 85.7348 54.5644 85.3913 55.7158C85.0479 56.8672 83.9684 57.1978 83.9684 57.1978Z" fill="#263238" stroke="#263238" stroke-linecap="round" stroke-linejoin="round"/>
<path d="M74.9003 129.774C74.7858 129.775 74.6726 129.744 74.5691 129.683C74.3502 129.535 74.1824 129.293 74.0972 129.003C74.0119 128.712 74.0151 128.393 74.106 128.106C75.4921 123.417 77.0807 115.053 75.4523 112.556C75.072 112.176 72.7812 111.416 60.4409 112.997L59.5424 113.111C58.6807 113.202 57.9447 114.745 57.7545 115.277C57.714 115.413 57.6505 115.536 57.5682 115.639C57.486 115.742 57.3869 115.822 57.2777 115.873C57.1684 115.925 57.0516 115.947 56.9349 115.938C56.8183 115.928 56.7046 115.889 56.6015 115.82C56.3904 115.653 56.2351 115.396 56.1642 115.098C56.0932 114.8 56.1113 114.481 56.2151 114.198C56.3347 113.863 57.4417 110.915 59.4105 110.702L60.2845 110.592C73.4344 108.897 75.9552 109.752 76.7219 110.922C79.6168 115.361 76.1085 127.642 75.6945 129.029C75.6407 129.24 75.5353 129.425 75.3931 129.558C75.2508 129.692 75.0786 129.767 74.9003 129.774Z" fill="white" stroke="#263238" stroke-linecap="round" stroke-linejoin="round"/>
<path d="M129.113 94.0654H108.962L104.3 113.632H124.451L129.113 94.0654Z" fill="#D9D9D9" stroke="#263238" stroke-linecap="round" stroke-linejoin="round"/>
<path d="M89.5589 112.56L89.3044 113.631H124.451L124.709 112.56H89.5589Z" fill="#D9D9D9" stroke="#263238" stroke-linecap="round" stroke-linejoin="round"/>
<path d="M104.592 112.56L104.337 113.631H124.451L124.709 112.56H104.592Z" fill="#263238" stroke="#263238" stroke-linecap="round" stroke-linejoin="round"/>
<path d="M124.163 116.568H120.753V173.067H124.163V116.568Z" fill="white" stroke="#263238" stroke-linecap="round" stroke-linejoin="round"/>
<path d="M124.163 116.568H120.753V125.901H124.163V116.568Z" fill="#263238" stroke="#263238" stroke-linecap="round" stroke-linejoin="round"/>
<path d="M165.591 113.643H79.0188V116.781H165.591V113.643Z" fill="white" stroke="#263238" stroke-linecap="round" stroke-linejoin="round"/>
<path d="M140.251 173.526H104.371C107.921 171.458 111.795 170.386 115.718 170.388H128.944C132.867 170.385 136.741 171.457 140.291 173.526H140.251Z" fill="white" stroke="#263238" stroke-linecap="round" stroke-linejoin="round"/>
</svg>
