<svg width="193" height="193" viewBox="0 0 193 193" fill="none" xmlns="http://www.w3.org/2000/svg">
<path d="M193 147.606H0V147.703H193V147.606Z" fill="#E6E6E6"/>
<path d="M180.802 151.012H173.557V151.108H180.802V151.012Z" fill="#E6E6E6"/>
<path d="M147.359 153.659H144.005V153.756H147.359V153.659Z" fill="#E6E6E6"/>
<path d="M115.538 152.328H108.065V152.425H115.538V152.328Z" fill="#E6E6E6"/>
<path d="M47.9103 152.277H31.239V152.374H47.9103V152.277Z" fill="#E6E6E6"/>
<path d="M27.8036 152.277H25.3602V152.374H27.8036V152.277Z" fill="#E6E6E6"/>
<path d="M109.23 149.992H73.0698V150.089H109.23V149.992Z" fill="#E6E6E6"/>
<path d="M91.482 130.391H16.9493C16.3654 130.39 15.8058 130.158 15.3932 129.744C14.9807 129.331 14.7491 128.771 14.7491 128.187V23.4152C14.7541 22.8347 14.9881 22.2796 15.4 21.8705C15.812 21.4615 16.3687 21.2315 16.9493 21.2305H91.482C92.0665 21.2305 92.6272 21.4627 93.0405 21.876C93.4538 22.2894 93.6861 22.85 93.6861 23.4345V128.187C93.6861 128.772 93.4538 129.332 93.0405 129.746C92.6272 130.159 92.0665 130.391 91.482 130.391ZM16.9493 21.3077C16.391 21.3087 15.8559 21.5312 15.4615 21.9263C15.0671 22.3215 14.8456 22.8569 14.8456 23.4152V128.187C14.8456 128.745 15.0671 129.281 15.4615 129.676C15.8559 130.071 16.391 130.294 16.9493 130.295H91.482C92.0406 130.294 92.5761 130.071 92.9711 129.676C93.3662 129.281 93.5885 128.746 93.5896 128.187V23.4152C93.5885 22.8566 93.3662 22.3211 92.9711 21.9261C92.5761 21.5311 92.0406 21.3087 91.482 21.3077H16.9493Z" fill="#E6E6E6"/>
<path d="M174.978 130.391H100.441C99.8568 130.39 99.2968 130.158 98.8837 129.745C98.4706 129.331 98.238 128.771 98.237 128.187V23.4152C98.2431 22.8343 98.4779 22.2793 98.8904 21.8703C99.303 21.4613 99.8601 21.2315 100.441 21.2305H174.978C175.558 21.2325 176.113 21.4629 176.524 21.8719C176.936 22.2809 177.169 22.8354 177.174 23.4152V128.187C177.174 128.77 176.943 129.33 176.531 129.743C176.119 130.156 175.561 130.389 174.978 130.391ZM100.441 21.3077C99.8824 21.3087 99.3469 21.5311 98.9519 21.9261C98.5569 22.3211 98.3345 22.8566 98.3335 23.4152V128.187C98.3345 128.746 98.5569 129.281 98.9519 129.676C99.3469 130.071 99.8824 130.294 100.441 130.295H174.978C175.536 130.294 176.072 130.071 176.467 129.676C176.862 129.281 177.084 128.746 177.085 128.187V23.4152C177.084 22.8566 176.862 22.3211 176.467 21.9261C176.072 21.5311 175.536 21.3087 174.978 21.3077H100.441Z" fill="#E6E6E6"/>
<path d="M100.731 28.4414H22.662V84.0756H100.731V28.4414Z" fill="#FAFAFA"/>
<path d="M102.174 28.4414H23.3376V84.0756H102.174V28.4414Z" fill="#F5F5F5"/>
<path d="M100.152 81.8019V30.7109L25.3602 30.7109V81.8019H100.152Z" fill="#FAFAFA"/>
<path d="M38.9783 81.8019L50.8439 30.7109H66.3997L54.5341 81.8019H38.9783Z" fill="white"/>
<path d="M57.0508 81.8019L68.9203 30.7109H75.9455L64.076 81.8019H57.0508Z" fill="white"/>
<path d="M100.152 81.8019V30.7109H99.8929V81.8019H100.152Z" fill="#FAFAFA"/>
<path d="M21.1451 28.3482V50.3965H26.9775C26.9775 50.3965 37.442 43.5605 39.8391 29.4985C39.8972 29.1617 39.8807 28.8163 39.791 28.4865C39.7012 28.1568 39.5403 27.8507 39.3195 27.5898C39.0988 27.3289 38.8235 27.1196 38.5131 26.9765C38.2028 26.8335 37.8648 26.7602 37.5231 26.7617H22.7315C22.3108 26.7617 21.9073 26.9289 21.6097 27.2264C21.3122 27.5239 21.1451 27.9274 21.1451 28.3482Z" fill="#E0E0E0"/>
<path d="M21.1451 90.88V52.1758H26.9775C26.9775 52.1758 38.8162 74.9691 40.1865 90.88H21.1451Z" fill="#E0E0E0"/>
<path d="M26.8077 50.3965H21.3574C21.0355 50.3965 20.7745 50.6574 20.7745 50.9793V51.5931C20.7745 51.915 21.0355 52.1759 21.3574 52.1759H26.8077C27.1296 52.1759 27.3906 51.915 27.3906 51.5931V50.9793C27.3906 50.6574 27.1296 50.3965 26.8077 50.3965Z" fill="#F5F5F5"/>
<path d="M103.834 28.3482V50.3965H97.99C97.99 50.3965 87.5101 43.5604 85.1284 29.4985C85.071 29.1618 85.088 28.8166 85.178 28.4872C85.268 28.1577 85.429 27.8519 85.6496 27.5912C85.8702 27.3305 86.1452 27.1211 86.4553 26.9778C86.7653 26.8346 87.1029 26.7608 87.4444 26.7617H102.251C102.671 26.7638 103.073 26.9317 103.37 27.2289C103.666 27.5261 103.833 27.9284 103.834 28.3482Z" fill="#E0E0E0"/>
<path d="M103.834 90.88V52.1758H97.99C97.99 52.1758 86.1552 74.9691 84.781 90.88H103.834Z" fill="#E0E0E0"/>
<path d="M98.1598 52.1719H103.61C103.932 52.1719 104.193 51.9109 104.193 51.589V50.9753C104.193 50.6534 103.932 50.3924 103.61 50.3924H98.1598C97.8379 50.3924 97.5769 50.6534 97.5769 50.9753V51.589C97.5769 51.9109 97.8379 52.1719 98.1598 52.1719Z" fill="#F5F5F5"/>
<path d="M102.07 97.9131H89.2432V147.607H102.07V97.9131Z" fill="#FAFAFA"/>
<path d="M98.6462 147.607H102.07V141.867H95.0564L98.6462 147.607Z" fill="#F4F8FF"/>
<path d="M40.7037 97.9131H27.8769V147.607H40.7037V97.9131Z" fill="#E0E0E0"/>
<path d="M102.07 97.9131H37.7161V145.63H102.07V97.9131Z" fill="#FAFAFA"/>
<path d="M57.0508 89.4756C57.0508 94.1076 61.513 97.9135 66.971 97.9135H71.8964C77.3505 97.9135 81.8127 94.1153 81.8127 89.4756H57.0508Z" fill="#EBEBEB"/>
<path d="M54.1944 78.8721H63.4584C63.4584 78.8721 61.8488 83.1181 61.8488 85.6193C61.8488 88.1206 68.8971 97.9135 58.8264 97.9135C48.7557 97.9135 55.804 88.1168 55.804 85.6193C55.804 83.1219 54.1944 78.8721 54.1944 78.8721Z" fill="#E0E0E0"/>
<path d="M99.4143 100.819H40.3717V112.851H99.4143V100.819Z" fill="#EBEBEB"/>
<path d="M41.1399 147.607H37.7161V141.867H44.7335L41.1399 147.607Z" fill="#FAFAFA"/>
<path d="M68.0788 106.834C68.0788 107.193 68.1852 107.543 68.3846 107.842C68.5839 108.14 68.8673 108.373 69.1988 108.51C69.5303 108.647 69.895 108.683 70.247 108.613C70.5989 108.543 70.9221 108.37 71.1759 108.117C71.4296 107.863 71.6024 107.54 71.6724 107.188C71.7424 106.836 71.7064 106.471 71.5691 106.139C71.4318 105.808 71.1993 105.525 70.9009 105.325C70.6026 105.126 70.2518 105.02 69.893 105.02C69.4119 105.02 68.9504 105.211 68.6102 105.551C68.27 105.891 68.0788 106.353 68.0788 106.834Z" fill="#FAFAFA"/>
<path d="M99.4143 115.758H40.3717V127.789H99.4143V115.758Z" fill="#EBEBEB"/>
<path d="M68.0788 121.772C68.0788 122.131 68.1852 122.482 68.3846 122.78C68.5839 123.078 68.8673 123.311 69.1988 123.448C69.5303 123.586 69.895 123.622 70.247 123.552C70.5989 123.482 70.9221 123.309 71.1759 123.055C71.4296 122.801 71.6024 122.478 71.6724 122.126C71.7424 121.774 71.7064 121.409 71.5691 121.078C71.4318 120.746 71.1993 120.463 70.9009 120.264C70.6026 120.064 70.2518 119.958 69.893 119.958C69.4119 119.958 68.9504 120.149 68.6102 120.489C68.27 120.83 68.0788 121.291 68.0788 121.772Z" fill="#FAFAFA"/>
<path d="M99.4143 130.692H40.3717V142.724H99.4143V130.692Z" fill="#EBEBEB"/>
<path d="M69.893 138.524C70.895 138.524 71.7072 137.712 71.7072 136.71C71.7072 135.708 70.895 134.896 69.893 134.896C68.8911 134.896 68.0788 135.708 68.0788 136.71C68.0788 137.712 68.8911 138.524 69.893 138.524Z" fill="#FAFAFA"/>
<path d="M142.774 27.7695H114.121V48.1658H142.774V27.7695Z" fill="#E0E0E0"/>
<path d="M145.113 27.7695H115.75V48.1658H145.113V27.7695Z" fill="#F5F5F5"/>
<path d="M143.241 46.2936V29.6416H117.622V46.2936H143.241Z" fill="white"/>
<path d="M138.732 41.4411V34.4893H122.13V41.4411H138.732Z" fill="#F5F5F5"/>
<path d="M166.019 37.9678H148.579V56.2565H166.019V37.9678Z" fill="#E0E0E0"/>
<path d="M168.365 37.9678H150.212V56.2565H168.365V37.9678Z" fill="#F5F5F5"/>
<path d="M166.493 54.3843V39.8398H152.084V54.3843H166.493Z" fill="white"/>
<path d="M156.592 47.1116C156.592 46.4693 156.847 45.8534 157.301 45.3989C157.755 44.9444 158.37 44.6885 159.013 44.6875H159.561C160.203 44.6885 160.819 44.9444 161.272 45.3989C161.726 45.8534 161.981 46.4693 161.981 47.1116C161.981 47.7535 161.726 48.3691 161.272 48.8229C160.818 49.2768 160.203 49.5318 159.561 49.5318H159.032C158.713 49.5344 158.396 49.4736 158.1 49.3531C157.804 49.2327 157.535 49.0548 157.308 48.8298C157.081 48.6048 156.901 48.3371 156.779 48.0422C156.656 47.7473 156.592 47.431 156.592 47.1116Z" fill="#F5F5F5"/>
<path d="M193 62.4746H146.95H138.578V73.1166H130.206V83.7586H121.833V94.4007H113.461V105.043H105.089V115.681H96.7162V126.323H88.3438V136.965H79.9715V147.607H88.3438H193V62.4746Z" fill="#FAFAFA"/>
<path d="M126.832 136.965H79.1107V140.157H126.832V136.965Z" fill="#EBEBEB"/>
<path d="M135.204 126.323H87.483V129.515H135.204V126.323Z" fill="#EBEBEB"/>
<path d="M143.577 115.681H95.8554V118.873H143.577V115.681Z" fill="#EBEBEB"/>
<path d="M151.949 105.039H104.228V108.231H151.949V105.039Z" fill="#EBEBEB"/>
<path d="M160.321 94.4004H112.6V97.5926H160.321V94.4004Z" fill="#EBEBEB"/>
<path d="M168.694 83.7588H120.972V86.951H168.694V83.7588Z" fill="#EBEBEB"/>
<path d="M177.066 73.1162H129.345V76.3084H177.066V73.1162Z" fill="#EBEBEB"/>
<path d="M185.438 62.4746H137.717V65.6668H185.438V62.4746Z" fill="#EBEBEB"/>
<path d="M184.628 62.4746V73.1166H176.255V83.7586H167.883V94.4007H159.511V105.043H151.138V115.681H142.766V126.323H134.394V136.965H126.021V147.607H134.394H193V73.1166V62.4746H184.628Z" fill="white"/>
<path d="M96.5 165.038C137.834 165.038 171.342 163.082 171.342 160.668C171.342 158.255 137.834 156.299 96.5 156.299C55.1661 156.299 21.6584 158.255 21.6584 160.668C21.6584 163.082 55.1661 165.038 96.5 165.038Z" fill="#F5F5F5"/>
<path d="M140.948 62.532C141.488 64.3424 144.275 67.7314 144.495 70.198C144.715 72.6645 139.964 76.6094 139.964 76.6094C139.964 76.6094 136.412 64.7361 138.636 63.3503C140.859 61.9646 140.948 62.532 140.948 62.532Z" fill="#263238"/>
<path d="M131.19 75.3594C130.348 76.0619 129.522 76.6525 128.662 77.2585C127.801 77.8645 126.913 78.4165 126.01 78.9338C125.103 79.4701 124.169 79.9584 123.211 80.3967C122.725 80.6167 122.242 80.8329 121.741 81.022C121.494 81.1224 121.243 81.2189 120.988 81.3038L120.216 81.574C119.556 81.7585 118.865 81.8084 118.185 81.7207C117.617 81.6542 117.055 81.5458 116.503 81.3964C115.473 81.1116 114.466 80.753 113.488 80.3233C111.59 79.4946 109.758 78.5202 108.011 77.409L108.732 76.0658C109.643 76.4518 110.577 76.8378 111.504 77.1736C112.43 77.5094 113.364 77.8645 114.298 78.154C115.209 78.4525 116.137 78.6948 117.078 78.8797C117.509 78.9641 117.947 79.017 118.386 79.038C118.714 79.0634 119.043 79.0294 119.359 78.9376C120.24 78.6007 121.1 78.214 121.937 77.7796C122.366 77.5557 122.79 77.328 123.207 77.081C123.624 76.8339 124.049 76.5946 124.462 76.3398C125.292 75.8265 126.102 75.2822 126.905 74.7225C127.708 74.1628 128.507 73.5645 129.221 72.9971L131.19 75.3594Z" fill="#E58A7B"/>
<path d="M133.228 71.2484C132.271 70.4995 128.31 72.9506 127.11 73.9735L127.986 79.2733C127.986 79.2733 133.68 76.8878 134.019 75.2589C134.378 73.5567 133.942 71.8197 133.228 71.2484Z" fill="#00AAD3"/>
<path opacity="0.2" d="M133.228 71.2484C132.271 70.4995 128.31 72.9506 127.11 73.9735L127.986 79.2733C127.986 79.2733 133.68 76.8878 134.019 75.2589C134.378 73.5567 133.942 71.8197 133.228 71.2484Z" fill="black"/>
<path d="M146.549 87.2865L134.529 89.6295C128.318 72.8115 129.669 72.2595 129.669 72.2595C130.542 71.7795 131.445 71.3541 132.371 70.9857L132.533 70.9239C133.305 70.6421 133.459 70.5997 134.486 70.2986C136.254 69.8778 137.902 69.5266 139.944 69.2371L140.33 69.183C140.716 69.1367 141.068 69.0981 141.423 69.0634C141.662 69.0364 141.901 69.0209 142.129 69.0055L142.901 68.963C144.221 68.8974 145.167 68.9167 145.167 68.9167C144.8 79.4198 145.395 82.4344 146.549 87.2865Z" fill="#00AAD3"/>
<path opacity="0.2" d="M146.549 87.2865L134.529 89.6295C128.318 72.8115 129.669 72.2595 129.669 72.2595C130.542 71.7795 131.445 71.3541 132.371 70.9857L132.533 70.9239C133.305 70.6421 133.459 70.5997 134.486 70.2986C136.254 69.8778 137.902 69.5266 139.944 69.2371L140.33 69.183C140.716 69.1367 141.068 69.0981 141.423 69.0634C141.662 69.0364 141.901 69.0209 142.129 69.0055L142.901 68.963C144.221 68.8974 145.167 68.9167 145.167 68.9167C144.8 79.4198 145.395 82.4344 146.549 87.2865Z" fill="black"/>
<path d="M137.134 63.7407C136.362 65.0184 139.161 65.609 140.817 64.3004C142.141 63.2505 141.828 60.8264 140.693 60.2629C139.558 59.6993 137.134 63.7407 137.134 63.7407Z" fill="#00AAD3"/>
<path opacity="0.4" d="M137.134 63.7407C136.362 65.0184 139.161 65.609 140.817 64.3004C142.141 63.2505 141.828 60.8264 140.693 60.2629C139.558 59.6993 137.134 63.7407 137.134 63.7407Z" fill="black"/>
<path d="M148.834 156.898L145.827 157.121L144.727 150.2L147.734 149.977L148.834 156.898Z" fill="#E58A7B"/>
<path d="M170.102 147.224L167.551 148.83L163.008 143.442L165.559 141.832L170.102 147.224Z" fill="#E58A7B"/>
<path d="M144.727 150.2L145.337 154.045L148.301 153.547L147.738 149.98L144.727 150.2Z" fill="#CF6F64"/>
<path d="M165.563 141.836L163.008 143.442L164.891 145.673L167.501 144.133L165.563 141.836Z" fill="#CF6F64"/>
<path d="M134.714 89.6299C134.714 89.6299 134.672 113.492 136.621 122.478C138.651 131.827 144.623 153.096 144.623 153.096L148.954 152.536C148.954 152.536 145.568 131.052 144.125 121.76C142.554 111.636 143.519 87.916 143.519 87.916L134.714 89.6299Z" fill="#00AAD3"/>
<path opacity="0.7" d="M134.714 89.6299C134.714 89.6299 134.672 113.492 136.621 122.478C138.651 131.827 144.623 153.096 144.623 153.096L148.954 152.536C148.954 152.536 145.568 131.052 144.125 121.76C142.554 111.636 143.519 87.916 143.519 87.916L134.714 89.6299Z" fill="black"/>
<path opacity="0.5" d="M143.248 98.4922L141.125 96.377C141.207 105.544 141.72 110.072 143.484 115.005C143.206 109.79 143.183 103.622 143.248 98.4922Z" fill="black"/>
<path d="M137.702 89.0116C137.702 89.0116 144.175 108.732 147.386 120.092C150.775 132.078 163.768 145.333 163.768 145.333L167.497 143.179C167.497 143.179 158.619 130.595 155.353 119.413C148.714 96.7122 151.443 91.9027 146.545 87.2861L137.702 89.0116Z" fill="#00AAD3"/>
<path opacity="0.7" d="M137.702 89.0116C137.702 89.0116 144.175 108.732 147.386 120.092C150.775 132.078 163.768 145.333 163.768 145.333L167.497 143.179C167.497 143.179 158.619 130.595 155.353 119.413C148.714 96.7122 151.443 91.9027 146.545 87.2861L137.702 89.0116Z" fill="black"/>
<path d="M132.614 56.7773C134.336 57.3525 135.899 61.6255 135.965 63.3085C136.03 64.9914 130.978 67.3113 130.978 67.3113C130.978 67.3113 128.75 61.9073 129.372 58.4333C129.642 56.924 132.614 56.7773 132.614 56.7773Z" fill="#263238"/>
<path d="M108.987 76.2087L106.945 73.9854L106.277 76.7723C106.277 76.7723 107.729 78.0538 108.902 77.6138L108.987 76.2087Z" fill="#E58A7B"/>
<path d="M104.876 73.3477L103.448 74.4825L106.277 76.7715L106.945 73.9846L104.876 73.3477Z" fill="#E58A7B"/>
<path d="M166.752 148.255L169.137 145.85C169.179 145.809 169.233 145.784 169.291 145.78C169.35 145.776 169.407 145.792 169.454 145.827L171.627 147.441C171.681 147.483 171.725 147.536 171.757 147.597C171.789 147.657 171.807 147.724 171.811 147.792C171.815 147.86 171.805 147.929 171.78 147.992C171.756 148.056 171.718 148.114 171.67 148.162C170.82 148.985 170.373 149.34 169.323 150.397C168.678 151.05 167.802 152.065 166.91 152.964C166.019 153.864 165.081 153.026 165.366 152.578C166.667 150.544 166.435 149.784 166.524 148.749C166.538 148.562 166.619 148.387 166.752 148.255Z" fill="#263238"/>
<path d="M145.626 156.689H149.015C149.075 156.689 149.133 156.71 149.178 156.748C149.224 156.786 149.255 156.839 149.266 156.898L149.799 159.577C149.811 159.643 149.808 159.71 149.791 159.775C149.774 159.84 149.742 159.9 149.699 159.951C149.656 160.002 149.602 160.043 149.541 160.071C149.48 160.1 149.414 160.114 149.347 160.113C148.162 160.094 147.591 160.024 146.101 160.024C145.186 160.024 143.295 160.117 142.029 160.117C140.763 160.117 140.628 158.866 141.149 158.755C143.465 158.245 144.372 157.546 145.132 156.875C145.27 156.757 145.445 156.691 145.626 156.689Z" fill="#263238"/>
<g style="mix-blend-mode:multiply" opacity="0.27">
<path d="M145.557 75.0039L143.704 76.1079L145.842 84.1482C145.375 81.7126 145.584 79.0376 145.557 75.0039Z" fill="#00AAD3"/>
</g>
<path d="M135.027 62.4516C136.343 63.5517 138.254 65.1536 140.504 63.2815C142.434 61.6681 143.785 57.4336 140.323 57.2792C138.512 57.1982 135.027 62.4516 135.027 62.4516Z" fill="#263238"/>
<path d="M138.207 63.2041C138.207 65.026 138.489 68.3109 139.944 69.245C139.944 69.245 139.813 71.121 136.547 71.754C132.962 72.4527 134.486 70.3065 134.486 70.3065C136.354 69.4573 136.03 68.0137 135.413 66.7167L138.207 63.2041Z" fill="#E58A7B"/>
<path d="M137.069 64.6357L135.417 66.7163C135.561 67.017 135.68 67.3295 135.772 67.6504C136.497 67.3956 137.366 66.3766 137.292 65.5776C137.277 65.2525 137.201 64.9332 137.069 64.6357Z" fill="#CF6F64"/>
<path d="M138.381 59.0199C138.767 61.9882 139.002 63.235 137.814 65.0299C136.026 67.7319 132.298 67.5582 131.028 64.7674C129.87 62.2546 129.437 57.8194 132.078 56.1017C132.658 55.7174 133.327 55.4881 134.022 55.4355C134.716 55.3829 135.412 55.5089 136.044 55.8013C136.676 56.0938 137.222 56.5432 137.631 57.1065C138.04 57.6699 138.298 58.3286 138.381 59.0199Z" fill="#E58A7B"/>
<path d="M133.224 53.8203C131.217 55.2446 135.243 55.6654 135.247 57.7305C135.247 58.5835 136.648 61.2894 138.64 61.135L140.57 57.7073C142.6 54.4263 137.802 50.5663 133.224 53.8203Z" fill="#263238"/>
<path d="M133.224 53.8202C129.692 53.6349 128.152 56.445 128.557 58.9695C131.021 58.3551 133.57 58.153 136.1 58.3712C140.94 58.8652 133.224 53.8202 133.224 53.8202Z" fill="#263238"/>
<path d="M139.346 61.5785C139.395 62.1547 139.213 62.7268 138.84 63.1689C138.342 63.7517 137.682 63.4082 137.451 62.7172C137.254 62.0919 137.277 61.0381 137.949 60.7062C138.097 60.6376 138.26 60.607 138.423 60.6172C138.586 60.6273 138.745 60.678 138.883 60.7646C139.022 60.8512 139.137 60.9709 139.218 61.113C139.298 61.2551 139.343 61.4151 139.346 61.5785Z" fill="#E58A7B"/>
<path d="M134.093 60.7068C134.139 60.9461 134.05 61.1622 133.896 61.1931C133.741 61.224 133.575 61.0542 133.529 60.8071C133.483 60.5601 133.571 60.3478 133.726 60.3169C133.88 60.286 134.046 60.4675 134.093 60.7068Z" fill="#263238"/>
<path d="M131.394 61.2317C131.441 61.471 131.352 61.691 131.198 61.7219C131.043 61.7528 130.877 61.583 130.831 61.3359C130.785 61.0889 130.873 60.8766 131.028 60.8496C131.182 60.8225 131.348 60.9885 131.394 61.2317Z" fill="#263238"/>
<path d="M131.101 60.8529L130.495 60.8027C130.495 60.8027 130.877 61.1926 131.101 60.8529Z" fill="#263238"/>
<path d="M132.19 61.5059C132.081 62.0906 131.894 62.658 131.634 63.1927C131.772 63.2572 131.923 63.2906 132.076 63.2906C132.228 63.2906 132.379 63.2572 132.518 63.1927L132.19 61.5059Z" fill="#DF5753"/>
<path d="M133.525 63.9644C133.509 63.9646 133.492 63.9589 133.48 63.9483C133.467 63.9377 133.458 63.9228 133.456 63.9065C133.454 63.8973 133.454 63.8879 133.456 63.8789C133.458 63.8698 133.462 63.8613 133.467 63.8537C133.473 63.8462 133.48 63.8398 133.488 63.8349C133.496 63.83 133.504 63.8268 133.514 63.8254C133.812 63.7735 134.094 63.6521 134.337 63.471C134.579 63.29 134.776 63.0544 134.911 62.7832C134.914 62.7746 134.92 62.7668 134.926 62.7601C134.933 62.7535 134.941 62.7483 134.949 62.7447C134.958 62.7411 134.967 62.7393 134.976 62.7393C134.986 62.7392 134.995 62.7411 135.004 62.7446C135.012 62.7482 135.02 62.7534 135.027 62.7599C135.033 62.7665 135.038 62.7743 135.042 62.7829C135.046 62.7915 135.047 62.8008 135.047 62.8101C135.047 62.8194 135.046 62.8286 135.042 62.8372C134.901 63.1319 134.691 63.3882 134.429 63.5844C134.168 63.7806 133.863 63.9109 133.541 63.9644H133.525Z" fill="#263238"/>
<path d="M134.714 59.6797C134.679 59.6801 134.644 59.6677 134.617 59.6449C134.488 59.5215 134.33 59.4306 134.159 59.3796C133.987 59.3286 133.806 59.319 133.629 59.3516C133.59 59.3613 133.549 59.3552 133.515 59.3345C133.48 59.3139 133.456 59.2805 133.446 59.2416C133.436 59.2027 133.442 59.1615 133.463 59.1271C133.484 59.0927 133.517 59.0679 133.556 59.0582C133.779 59.0144 134.008 59.0241 134.227 59.0865C134.445 59.1489 134.645 59.2623 134.81 59.4172C134.837 59.4439 134.852 59.48 134.852 59.5175C134.852 59.5551 134.837 59.5912 134.81 59.6179C134.8 59.6345 134.786 59.6485 134.769 59.6592C134.752 59.6698 134.734 59.6768 134.714 59.6797Z" fill="#263238"/>
<path d="M129.901 60.216C129.883 60.2199 129.864 60.2199 129.847 60.216C129.829 60.2088 129.813 60.1982 129.799 60.1847C129.786 60.1713 129.775 60.1553 129.768 60.1376C129.761 60.12 129.757 60.1011 129.758 60.0821C129.758 60.0631 129.762 60.0443 129.769 60.0268C129.851 59.8157 129.983 59.6274 130.153 59.4776C130.323 59.3278 130.526 59.221 130.746 59.166C130.764 59.1622 130.784 59.1621 130.802 59.1659C130.821 59.1697 130.838 59.1772 130.854 59.1881C130.869 59.1989 130.883 59.2128 130.893 59.229C130.903 59.2451 130.909 59.2631 130.912 59.2818C130.916 59.3001 130.916 59.319 130.912 59.3373C130.909 59.3557 130.902 59.3731 130.891 59.3886C130.881 59.4041 130.867 59.4174 130.852 59.4275C130.836 59.4377 130.818 59.4446 130.8 59.4478C130.626 59.4951 130.466 59.5822 130.332 59.7021C130.198 59.8221 130.094 59.9716 130.028 60.1388C130.016 60.1618 129.997 60.1812 129.975 60.1947C129.952 60.2083 129.927 60.2156 129.901 60.216Z" fill="#263238"/>
<path d="M165.856 149.657C165.79 149.655 165.725 149.637 165.668 149.605C165.61 149.573 165.561 149.527 165.525 149.471C165.497 149.439 165.479 149.399 165.471 149.357C165.464 149.315 165.468 149.272 165.482 149.232C165.617 148.869 166.683 148.638 166.802 148.61C166.816 148.608 166.83 148.61 166.843 148.615C166.856 148.621 166.868 148.63 166.876 148.641C166.884 148.653 166.888 148.666 166.888 148.68C166.888 148.694 166.884 148.707 166.876 148.719C166.667 149.062 166.258 149.637 165.876 149.657H165.856ZM166.663 148.788C166.242 148.896 165.687 149.089 165.617 149.282C165.61 149.3 165.609 149.319 165.613 149.338C165.617 149.356 165.627 149.373 165.64 149.386C165.664 149.426 165.698 149.459 165.739 149.481C165.78 149.504 165.825 149.515 165.872 149.514C166.076 149.502 166.366 149.236 166.663 148.788Z" fill="#00AAD3"/>
<path d="M166.49 148.788C166.104 148.788 165.621 148.691 165.478 148.483C165.446 148.435 165.432 148.379 165.437 148.322C165.442 148.265 165.466 148.211 165.505 148.17C165.539 148.127 165.582 148.092 165.63 148.066C165.679 148.041 165.732 148.026 165.787 148.023H165.818C166.25 148.023 166.845 148.606 166.868 148.629C166.877 148.638 166.884 148.649 166.887 148.661C166.891 148.674 166.891 148.687 166.887 148.699C166.884 148.711 166.877 148.722 166.868 148.73C166.86 148.739 166.849 148.746 166.837 148.749C166.723 148.777 166.606 148.789 166.49 148.788ZM165.818 148.166H165.795C165.76 148.167 165.726 148.176 165.695 148.192C165.665 148.208 165.638 148.231 165.617 148.259C165.563 148.332 165.579 148.375 165.598 148.402C165.714 148.579 166.304 148.68 166.667 148.637C166.436 148.401 166.141 148.238 165.818 148.166Z" fill="#00AAD3"/>
<path d="M144.518 157.218C144.259 157.241 143.999 157.175 143.781 157.032C143.73 156.992 143.689 156.94 143.663 156.88C143.638 156.82 143.628 156.754 143.634 156.689C143.634 156.65 143.644 156.612 143.663 156.578C143.682 156.544 143.709 156.516 143.743 156.496C144.098 156.287 145.341 156.905 145.48 156.975C145.493 156.981 145.503 156.992 145.51 157.005C145.517 157.018 145.52 157.033 145.518 157.048C145.516 157.062 145.51 157.076 145.501 157.087C145.491 157.098 145.478 157.106 145.464 157.11C145.153 157.175 144.836 157.211 144.518 157.218ZM143.947 156.592C143.902 156.59 143.856 156.599 143.816 156.619C143.803 156.626 143.792 156.637 143.785 156.65C143.778 156.663 143.776 156.678 143.777 156.693C143.773 156.736 143.78 156.78 143.797 156.82C143.814 156.861 143.84 156.896 143.874 156.924C144.067 157.09 144.565 157.117 145.221 157.009C144.822 156.8 144.392 156.659 143.947 156.592Z" fill="#00AAD3"/>
<path d="M145.449 157.102H145.422C145.036 156.936 144.291 156.28 144.345 155.944C144.345 155.867 144.414 155.766 144.607 155.747H144.665C145.337 155.747 145.51 156.975 145.518 157.029C145.52 157.042 145.518 157.055 145.514 157.067C145.509 157.079 145.501 157.09 145.491 157.098C145.478 157.103 145.463 157.105 145.449 157.102ZM144.677 155.882H144.634C144.511 155.882 144.503 155.94 144.503 155.956C144.472 156.16 144.982 156.673 145.368 156.901C145.29 156.6 145.094 155.89 144.661 155.89L144.677 155.882Z" fill="#00AAD3"/>
<path d="M133.799 60.3285L133.193 60.2744C133.193 60.2744 133.575 60.6681 133.799 60.3285Z" fill="#263238"/>
<path d="M136.451 74.3206C129.993 75.7604 131.989 71.8541 132.375 70.9933L132.537 70.9315C133.309 70.6498 133.463 70.6073 134.49 70.3062C136.282 69.8226 138.106 69.4678 139.948 69.2447L140.334 69.1907C140.72 69.1405 141.071 69.1019 141.427 69.071C141.666 69.044 141.905 69.0286 142.133 69.0131L142.905 68.9668C143.036 69.569 143.357 72.7882 136.451 74.3206Z" fill="#E58A7B"/>
<path d="M146.587 86.5455L147.34 87.5182C147.398 87.5915 147.317 87.6958 147.178 87.7228L134.571 90.1777C134.463 90.2009 134.363 90.1777 134.343 90.0967L134.023 89.0429C134.023 88.9696 134.085 88.8885 134.201 88.8653L146.375 86.4953C146.412 86.4845 146.451 86.4834 146.488 86.4922C146.525 86.501 146.559 86.5194 146.587 86.5455Z" fill="#26395A"/>
<path d="M145.217 88.2247L145.545 88.1629C145.611 88.1629 145.653 88.1089 145.642 88.0664L145.217 86.7C145.217 86.6575 145.14 86.6382 145.074 86.6498L144.75 86.7116C144.684 86.7116 144.642 86.7695 144.654 86.8081L145.078 88.1784C145.09 88.217 145.155 88.2401 145.217 88.2247Z" fill="#00AAD3"/>
<path d="M137.833 92.7788L135.32 91.8447L135.706 94.2341C135.706 94.2341 137.528 94.8903 138.458 94.0488L137.833 92.7788Z" fill="#E58A7B"/>
<path d="M132.927 92.4778L132.329 94.0449L135.706 94.2341L135.32 91.8447L132.927 92.4778Z" fill="#E58A7B"/>
<path d="M135.509 90.1163L135.837 90.0545C135.899 90.0545 135.945 90.0005 135.93 89.958L135.505 88.5916C135.505 88.5491 135.432 88.5298 135.366 88.5414L135.038 88.6032C134.973 88.6032 134.93 88.6611 134.946 88.6997L135.37 90.07C135.382 90.1086 135.444 90.1317 135.509 90.1163Z" fill="#00AAD3"/>
<path d="M140.365 89.1661L140.689 89.1043C140.755 89.1043 140.797 89.0503 140.786 89.0078L140.361 87.6414C140.361 87.5989 140.284 87.5796 140.218 87.5912L139.894 87.653C139.828 87.653 139.786 87.7109 139.798 87.7495L140.222 89.1198C140.238 89.1421 140.26 89.1587 140.286 89.1671C140.312 89.1755 140.339 89.1751 140.365 89.1661Z" fill="#00AAD3"/>
<path d="M138.991 67.712C139.265 67.6077 139.608 68.5727 139.524 68.6963C139.327 68.978 135.721 69.9623 135.559 69.4104C135.549 69.1112 135.595 68.8127 135.694 68.5303C135.799 68.345 136.598 68.6847 138.991 67.712Z" fill="#00AAD3"/>
<path d="M138.381 67.7352C138.52 67.4148 138.918 66.9014 139.265 67.1948C139.612 67.4881 139.759 68.1212 139.531 68.2254C139.304 68.3296 138.142 68.2717 138.381 67.7352Z" fill="#00AAD3"/>
<path d="M139.118 67.9017C139.358 67.6469 139.89 67.2957 140.133 67.6894C140.377 68.0831 140.288 68.7277 140.041 68.747C139.794 68.7663 138.713 68.3224 139.118 67.9017Z" fill="#00AAD3"/>
<path d="M139.25 67.8436C139.23 67.6384 139.27 67.4319 139.366 67.2491C139.461 67.0662 139.607 66.9148 139.786 66.813C140.226 66.5274 140.655 66.3421 140.824 66.041C140.898 66.3233 140.912 66.6176 140.867 66.9057C140.778 67.3187 139.408 67.6352 139.5 67.9942L139.25 67.8436Z" fill="#00AAD3"/>
<path d="M139.192 67.8242C139.064 67.6622 138.986 67.4667 138.966 67.2612C138.947 67.0557 138.988 66.8491 139.084 66.6662C139.292 66.1876 139.554 65.8016 139.539 65.4619C139.753 65.6594 139.925 65.8984 140.045 66.1644C140.191 66.5504 139.215 67.5656 139.489 67.8204L139.192 67.8242Z" fill="#00AAD3"/>
<path d="M166.038 143.229C166.03 143.229 166.022 143.227 166.016 143.223C166.009 143.219 166.003 143.213 165.999 143.206C165.911 143.083 157.087 130.491 153.852 119.429C151.741 112.332 150.118 105.1 148.996 97.7817C148.328 93.6592 147.923 91.1695 146.595 89.1276C146.586 89.1182 146.581 89.1058 146.581 89.0929C146.581 89.0799 146.586 89.0675 146.595 89.0581C146.604 89.0502 146.616 89.0459 146.628 89.0459C146.64 89.0459 146.652 89.0502 146.661 89.0581C148.004 91.1194 148.409 93.6168 149.077 97.7508C150.205 105.058 151.83 112.28 153.941 119.367C157.171 130.414 165.988 142.99 166.077 143.117C166.084 143.127 166.088 143.138 166.088 143.15C166.088 143.162 166.084 143.174 166.077 143.183C166.076 143.194 166.072 143.204 166.065 143.213C166.058 143.221 166.048 143.227 166.038 143.229Z" fill="#00AAD3"/>
<path opacity="0.4" d="M166.038 143.229C166.03 143.229 166.022 143.227 166.016 143.223C166.009 143.219 166.003 143.213 165.999 143.206C165.911 143.083 157.087 130.491 153.852 119.429C151.741 112.332 150.118 105.1 148.996 97.7817C148.328 93.6592 147.923 91.1695 146.595 89.1276C146.586 89.1182 146.581 89.1058 146.581 89.0929C146.581 89.0799 146.586 89.0675 146.595 89.0581C146.604 89.0502 146.616 89.0459 146.628 89.0459C146.64 89.0459 146.652 89.0502 146.661 89.0581C148.004 91.1194 148.409 93.6168 149.077 97.7508C150.205 105.058 151.83 112.28 153.941 119.367C157.171 130.414 165.988 142.99 166.077 143.117C166.084 143.127 166.088 143.138 166.088 143.15C166.088 143.162 166.084 143.174 166.077 143.183C166.076 143.194 166.072 143.204 166.065 143.213C166.058 143.221 166.048 143.227 166.038 143.229Z" fill="black"/>
<path d="M149.729 152.521L143.831 153.285L143.445 151.641L149.587 150.34L149.729 152.521Z" fill="#00AAD3"/>
<path d="M167.81 143.048L163.459 145.561L161.993 144.306L166.752 141.087L167.81 143.048Z" fill="#00AAD3"/>
<path d="M147.394 73.0049C147.603 74.078 147.722 75.0893 147.838 76.1353C147.954 77.1814 147.996 78.2159 148.027 79.2619C148.058 80.3162 148.035 81.3714 147.958 82.4233C147.915 82.9521 147.869 83.4809 147.796 84.0136C147.765 84.2761 147.73 84.5424 147.68 84.8088L147.537 85.6271C147.379 86.2941 147.089 86.9227 146.684 87.476C146.352 87.9415 145.985 88.3815 145.588 88.7923C144.843 89.5574 144.043 90.267 143.194 90.9153C141.553 92.1791 139.816 93.3135 137.999 94.3082L137.173 93.0267C137.945 92.413 138.717 91.7799 139.489 91.1353C140.261 90.4907 140.994 89.8383 141.701 89.159C142.399 88.5051 143.057 87.8104 143.673 87.0784C143.956 86.7398 144.214 86.3812 144.445 86.0054C144.627 85.7316 144.758 85.4268 144.831 85.106C144.957 84.1689 145.03 83.2256 145.051 82.2805C145.051 81.798 145.051 81.3155 145.051 80.833C145.051 80.3505 145.032 79.8602 145.009 79.3739C144.962 78.4012 144.873 77.4439 144.769 76.4557C144.665 75.4676 144.53 74.491 144.383 73.5762L147.394 73.0049Z" fill="#E58A7B"/>
<path d="M146.927 69.7237C148.575 71.0593 148.182 75.0273 148.182 75.0273L142.623 76.857C142.623 76.857 142.878 72.2829 143.156 70.6385C143.48 68.6815 145.302 68.4074 146.927 69.7237Z" fill="#00AAD3"/>
<path opacity="0.2" d="M146.927 69.7237C148.575 71.0593 148.182 75.0273 148.182 75.0273L142.623 76.857C142.623 76.857 142.878 72.2829 143.156 70.6385C143.48 68.6815 145.302 68.4074 146.927 69.7237Z" fill="black"/>
<path d="M73.4983 86.2818C73.2826 85.3459 72.756 84.5108 72.0044 83.9127C71.2529 83.3147 70.3208 82.9892 69.3603 82.9893H38.4803C37.3542 82.9893 36.2742 83.4366 35.478 84.2329C34.6817 85.0292 34.2343 86.1091 34.2343 87.2353V155.874C34.2343 157 34.6817 158.08 35.478 158.876C36.2742 159.672 37.3542 160.12 38.4803 160.12H136.524C137.65 160.12 138.73 159.672 139.527 158.876C140.323 158.08 140.77 157 140.77 155.874V98.217C140.77 97.0908 140.323 96.0109 139.527 95.2146C138.73 94.4183 137.65 93.971 136.524 93.971H83.1598C80.9171 93.9713 78.7404 93.2111 76.9856 91.8145C75.2307 90.4179 74.0013 88.4675 73.4983 86.2818Z" fill="#00AAD3"/>
<path opacity="0.6" d="M73.4983 86.2818C73.2826 85.3459 72.756 84.5108 72.0044 83.9127C71.2529 83.3147 70.3208 82.9892 69.3603 82.9893H38.4803C37.3542 82.9893 36.2742 83.4366 35.478 84.2329C34.6817 85.0292 34.2343 86.1091 34.2343 87.2353V155.874C34.2343 157 34.6817 158.08 35.478 158.876C36.2742 159.672 37.3542 160.12 38.4803 160.12H136.524C137.65 160.12 138.73 159.672 139.527 158.876C140.323 158.08 140.77 157 140.77 155.874V98.217C140.77 97.0908 140.323 96.0109 139.527 95.2146C138.73 94.4183 137.65 93.971 136.524 93.971H83.1598C80.9171 93.9713 78.7404 93.2111 76.9856 91.8145C75.2307 90.4179 74.0013 88.4675 73.4983 86.2818Z" fill="black"/>
<path opacity="0.22" d="M62.5976 64.9053L65.3498 73.818C65.7011 74.9524 66.4883 75.9009 67.5385 76.4553C68.5886 77.0096 69.8159 77.1246 70.9507 76.7748L79.8595 74.0226L62.5976 64.9053Z" fill="#00AAD3"/>
<path d="M62.5976 64.9053L30.7526 74.7444C30.1905 74.9171 29.6679 75.199 29.2147 75.5738C28.7616 75.9487 28.3868 76.4092 28.1119 76.9291C27.8369 77.4489 27.6671 78.0179 27.6122 78.6034C27.5573 79.1889 27.6184 79.7795 27.792 80.3414L45.9726 139.199C46.1461 139.761 46.4287 140.283 46.8041 140.736C47.1795 141.188 47.6404 141.563 48.1605 141.837C48.6806 142.112 49.2498 142.281 49.8354 142.336C50.421 142.391 51.0116 142.329 51.5735 142.155L92.3312 129.564C92.893 129.391 93.4152 129.109 93.8679 128.734C94.3206 128.359 94.695 127.898 94.9696 127.378C95.2442 126.859 95.4137 126.29 95.4683 125.704C95.5229 125.119 95.4616 124.529 95.288 123.967L79.848 74.0226L62.5976 64.9053Z" fill="#00AAD3"/>
<path opacity="0.8" d="M62.5976 64.9053L30.7526 74.7444C30.1905 74.9171 29.6679 75.199 29.2147 75.5738C28.7616 75.9487 28.3868 76.4092 28.1119 76.9291C27.8369 77.4489 27.6671 78.0179 27.6122 78.6034C27.5573 79.1889 27.6184 79.7795 27.792 80.3414L45.9726 139.199C46.1461 139.761 46.4287 140.283 46.8041 140.736C47.1795 141.188 47.6404 141.563 48.1605 141.837C48.6806 142.112 49.2498 142.281 49.8354 142.336C50.421 142.391 51.0116 142.329 51.5735 142.155L92.3312 129.564C92.893 129.391 93.4152 129.109 93.8679 128.734C94.3206 128.359 94.695 127.898 94.9696 127.378C95.2442 126.859 95.4137 126.29 95.4683 125.704C95.5229 125.119 95.4616 124.529 95.288 123.967L79.848 74.0226L62.5976 64.9053Z" fill="white"/>
<g opacity="0.28">
<path d="M79.7322 126.993L53.2371 135.177C52.7417 135.329 52.2061 135.279 51.7475 135.037C51.2889 134.795 50.9446 134.382 50.7899 133.887C50.6391 133.392 50.6904 132.857 50.9326 132.399C51.1749 131.941 51.5885 131.598 52.083 131.444L78.578 123.257C79.0741 123.105 79.6101 123.156 80.0688 123.398C80.5274 123.64 80.8714 124.055 81.0253 124.55C81.1761 125.046 81.1248 125.581 80.8826 126.038C80.6403 126.496 80.2267 126.84 79.7322 126.993Z" fill="#00AAD3"/>
</g>
<g opacity="0.28">
<path d="M51.2184 78.9674L37.2066 83.2945C36.7111 83.4456 36.1759 83.3949 35.7176 83.1535C35.2593 82.912 34.9149 82.4994 34.7593 82.0052C34.6084 81.5092 34.6596 80.9737 34.9018 80.5153C35.144 80.0569 35.5576 79.7128 36.0524 79.558L50.0642 75.2309C50.5597 75.0777 51.0958 75.1274 51.5546 75.3691C52.0135 75.6109 52.3576 76.0249 52.5115 76.5202C52.6624 77.0162 52.6112 77.5518 52.369 78.0102C52.1268 78.4686 51.7132 78.8127 51.2184 78.9674Z" fill="#00AAD3"/>
</g>
<g opacity="0.28">
<path d="M62.6517 83.5573L39.4917 90.7099C38.9972 90.8584 38.4641 90.8059 38.0081 90.5638C37.5521 90.3217 37.21 89.9095 37.056 89.4168C36.9039 88.9218 36.9542 88.3867 37.1959 87.9287C37.4375 87.4708 37.8508 87.1272 38.3453 86.9734L61.5053 79.8208C62.0007 79.6686 62.5363 79.7188 62.9949 79.9604C63.4535 80.202 63.7978 80.6153 63.9525 81.11C64.1021 81.6071 64.0493 82.143 63.8057 82.6014C63.5621 83.0597 63.1473 83.4032 62.6517 83.5573Z" fill="#00AAD3"/>
</g>
<g opacity="0.28">
<path d="M75.5827 87.6832L41.7845 98.1052C41.2896 98.2572 40.7545 98.2069 40.2965 97.9653C39.8385 97.7236 39.495 97.3103 39.3411 96.8159C39.19 96.3204 39.2407 95.7853 39.4821 95.327C39.7236 94.8687 40.1363 94.5242 40.6304 94.3687L74.4286 83.9467C74.9235 83.7957 75.4581 83.8464 75.9158 84.0879C76.3735 84.3294 76.7172 84.7421 76.8719 85.2359C77.0241 85.7314 76.9739 86.267 76.7323 86.7256C76.4907 87.1842 76.0774 87.5285 75.5827 87.6832Z" fill="#00AAD3"/>
</g>
<g opacity="0.28">
<path d="M77.8717 95.0951L58.2243 101.167C57.7288 101.318 57.1937 101.266 56.7359 101.024C56.2782 100.782 55.9348 100.368 55.7809 99.8738C55.6299 99.3788 55.6806 98.8442 55.9221 98.3865C56.1636 97.9288 56.5763 97.5851 57.0701 97.4304L76.7175 91.3586C77.2135 91.2087 77.7486 91.2604 78.2068 91.5025C78.6649 91.7445 79.0091 92.1575 79.1648 92.6517C79.3156 93.1472 79.2643 93.6822 79.022 94.14C78.7797 94.5978 78.3662 94.9412 77.8717 95.0951Z" fill="#00AAD3"/>
</g>
<g opacity="0.28">
<path d="M49.215 103.95L44.0774 105.536C43.5819 105.689 43.0463 105.638 42.5877 105.397C42.1291 105.155 41.7848 104.742 41.6301 104.247C41.4781 103.751 41.5288 103.215 41.7712 102.756C42.0136 102.298 42.4278 101.954 42.9232 101.8L48.0609 100.213C48.5564 100.062 49.0915 100.113 49.5498 100.354C50.0081 100.596 50.3526 101.009 50.5081 101.503C50.658 101.999 50.6063 102.534 50.3643 102.992C50.1222 103.45 49.7093 103.794 49.215 103.95Z" fill="#00AAD3"/>
</g>
<g opacity="0.28">
<path d="M80.1645 102.509L46.3663 112.951C45.8708 113.101 45.3358 113.05 44.878 112.808C44.4202 112.566 44.0769 112.152 43.9229 111.658C43.7709 111.163 43.8212 110.627 44.0628 110.17C44.3045 109.712 44.7178 109.368 45.2122 109.214L79.0103 98.7728C79.5053 98.6218 80.0399 98.6726 80.4976 98.9141C80.9553 99.1556 81.299 99.5683 81.4537 100.062C81.6059 100.558 81.5557 101.093 81.3141 101.552C81.0725 102.01 80.6592 102.355 80.1645 102.509Z" fill="#00AAD3"/>
</g>
<g opacity="0.28">
<path d="M69.4105 113.951L48.6553 120.362C48.1603 120.513 47.6257 120.462 47.168 120.221C46.7103 119.979 46.3667 119.567 46.2119 119.073C46.0608 118.577 46.1115 118.042 46.3529 117.584C46.5944 117.125 47.0071 116.781 47.5012 116.626L68.2564 110.214C68.7524 110.063 69.288 110.114 69.7464 110.357C70.2048 110.599 70.5489 111.012 70.7036 111.507C70.8556 112.003 70.8047 112.538 70.5623 112.996C70.3199 113.454 69.9057 113.797 69.4105 113.951Z" fill="#00AAD3"/>
</g>
<g opacity="0.28">
<path d="M82.4535 109.924L76.9144 111.634C76.4184 111.785 75.8828 111.734 75.4244 111.492C74.966 111.25 74.6219 110.836 74.4671 110.341C74.3163 109.846 74.3676 109.311 74.6099 108.853C74.8521 108.395 75.2657 108.052 75.7602 107.898L81.2993 106.188C81.7943 106.036 82.3294 106.086 82.7873 106.328C83.2453 106.569 83.5888 106.983 83.7427 107.477C83.8949 107.973 83.8447 108.508 83.6031 108.967C83.3615 109.425 82.9482 109.77 82.4535 109.924Z" fill="#00AAD3"/>
</g>
<g opacity="0.28">
<path d="M84.7425 117.344L50.952 127.766C50.456 127.918 49.92 127.867 49.4613 127.625C49.0026 127.382 48.6587 126.968 48.5048 126.473C48.3529 125.977 48.4037 125.442 48.6461 124.984C48.8885 124.526 49.3027 124.182 49.7979 124.029L83.5922 113.588C84.0882 113.438 84.6233 113.49 85.0814 113.732C85.5396 113.974 85.8838 114.387 86.0394 114.881C86.1169 115.128 86.1449 115.388 86.1216 115.645C86.0983 115.903 86.0242 116.154 85.9036 116.383C85.7831 116.611 85.6184 116.814 85.4191 116.979C85.2198 117.144 84.9898 117.268 84.7425 117.344Z" fill="#00AAD3"/>
</g>
<path d="M85.4681 42.7725L95.5736 65.2917C95.836 65.8796 95.8549 66.5474 95.6264 67.1492C95.3978 67.751 94.9403 68.2378 94.3538 68.5033L51.4847 87.7454C50.897 88.0088 50.2288 88.0283 49.6267 87.7996C49.0246 87.5709 48.5378 87.1128 48.2732 86.5256L38.1638 64.0064C37.8992 63.4182 37.8791 62.7491 38.1078 62.1461C38.3366 61.5431 38.7955 61.0556 39.3836 60.791L82.2527 41.5489C82.8416 41.2866 83.5104 41.2681 84.1129 41.4974C84.7153 41.7267 85.2026 42.1851 85.4681 42.7725Z" fill="#00AAD3"/>
<path opacity="0.3" d="M85.4681 42.7725L95.5736 65.2917C95.836 65.8796 95.8549 66.5474 95.6264 67.1492C95.3978 67.751 94.9403 68.2378 94.3538 68.5033L51.4847 87.7454C50.897 88.0088 50.2288 88.0283 49.6267 87.7996C49.0246 87.5709 48.5378 87.1128 48.2732 86.5256L38.1638 64.0064C37.8992 63.4182 37.8791 62.7491 38.1078 62.1461C38.3366 61.5431 38.7955 61.0556 39.3836 60.791L82.2527 41.5489C82.8416 41.2866 83.5104 41.2681 84.1129 41.4974C84.7153 41.7267 85.2026 42.1851 85.4681 42.7725Z" fill="black"/>
<path d="M78.7118 41.6599L77.3418 42.2744L77.4998 42.6266L78.8698 42.012L78.7118 41.6599Z" fill="#00AAD3"/>
<path d="M75.4231 43.1335L71.1511 45.0498L71.309 45.402L75.5811 43.4856L75.4231 43.1335Z" fill="#00AAD3"/>
<path d="M38.1258 66.2755L37.7737 66.4336L38.9436 69.0394L39.2958 68.8813L38.1258 66.2755Z" fill="#00AAD3"/>
<path opacity="0.6" d="M84.0322 41.4677L72.9772 63.1223C71.9514 65.1294 70.2714 66.7264 68.215 67.6493C66.1586 68.5723 63.8488 68.7659 61.6674 68.1982L38.1407 62.0647C38.382 61.5002 38.8252 61.046 39.3836 60.7909L82.2528 41.5488C82.8143 41.2977 83.4502 41.2687 84.0322 41.4677Z" fill="#00AAD3"/>
<path d="M99.229 69.1826L65.9635 71.2361C65.3759 71.2711 64.8008 71.4216 64.2714 71.679C63.7419 71.9364 63.2684 72.2957 62.8779 72.7363C62.4875 73.177 62.1878 73.6903 61.996 74.2469C61.8041 74.8035 61.724 75.3925 61.76 75.9801L65.5544 137.462C65.5898 138.05 65.7409 138.625 65.999 139.155C66.2571 139.685 66.6172 140.158 67.0586 140.548C67.5 140.938 68.0141 141.237 68.5714 141.429C69.1286 141.62 69.7181 141.699 70.306 141.662L112.882 139.033C113.469 138.998 114.043 138.847 114.572 138.589C115.1 138.331 115.573 137.972 115.962 137.531C116.352 137.09 116.65 136.577 116.841 136.021C117.032 135.465 117.111 134.876 117.074 134.289L113.87 82.1136L99.229 69.1826Z" fill="#00AAD3"/>
<path opacity="0.8" d="M99.229 69.1826L65.9635 71.2361C65.3759 71.2711 64.8008 71.4216 64.2714 71.679C63.7419 71.9364 63.2684 72.2957 62.8779 72.7363C62.4875 73.177 62.1878 73.6903 61.996 74.2469C61.8041 74.8035 61.724 75.3925 61.76 75.9801L65.5544 137.462C65.5898 138.05 65.7409 138.625 65.999 139.155C66.2571 139.685 66.6172 140.158 67.0586 140.548C67.5 140.938 68.0141 141.237 68.5714 141.429C69.1286 141.62 69.7181 141.699 70.306 141.662L112.882 139.033C113.469 138.998 114.043 138.847 114.572 138.589C115.1 138.331 115.573 137.972 115.962 137.531C116.352 137.09 116.65 136.577 116.841 136.021C117.032 135.465 117.111 134.876 117.074 134.289L113.87 82.1136L99.229 69.1826Z" fill="white"/>
<g opacity="0.22">
<path d="M101.24 133.555L73.56 135.265C73.0429 135.295 72.5351 135.119 72.1475 134.775C71.7599 134.432 71.5239 133.949 71.4911 133.432C71.4614 132.915 71.637 132.407 71.9796 132.019C72.3222 131.631 72.8042 131.394 73.3207 131.359L101.001 129.653C101.518 129.622 102.026 129.797 102.415 130.14C102.803 130.483 103.04 130.966 103.074 131.482C103.104 132 102.929 132.509 102.585 132.898C102.241 133.286 101.758 133.523 101.24 133.555Z" fill="#00AAD3"/>
</g>
<g opacity="0.22">
<path d="M84.8582 80.1646L70.2173 81.0601C69.7004 81.0898 69.1927 80.9142 68.8046 80.5716C68.4164 80.229 68.1792 79.747 68.1444 79.2305C68.1148 78.713 68.2909 78.2047 68.6343 77.8165C68.9778 77.4282 69.4607 77.1914 69.9779 77.1577L84.6189 76.2544C85.1357 76.2238 85.6435 76.3991 86.0312 76.742C86.419 77.0849 86.6551 77.5675 86.6879 78.084C86.7207 78.6025 86.5464 79.1127 86.2034 79.5028C85.8604 79.8928 85.3766 80.1309 84.8582 80.1646Z" fill="#00AAD3"/>
</g>
<g opacity="0.22">
<path d="M94.8865 87.3202L70.6959 88.8102C70.1785 88.8419 69.6697 88.667 69.2811 88.324C68.8925 87.981 68.6559 87.4978 68.6231 86.9805C68.5924 86.4628 68.7682 85.954 69.1118 85.5655C69.4554 85.177 69.939 84.9405 70.4566 84.9077L94.6433 83.4177C95.1607 83.386 95.6695 83.5609 96.0581 83.9039C96.4468 84.2469 96.6834 84.7301 96.7162 85.2474C96.7468 85.7645 96.5716 86.2727 96.2288 86.6611C95.886 87.0495 95.4035 87.2864 94.8865 87.3202Z" fill="#00AAD3"/>
</g>
<g opacity="0.22">
<path d="M106.478 94.3802L71.1746 96.5573C70.6558 96.589 70.1455 96.4139 69.7556 96.0702C69.3656 95.7266 69.1278 95.2424 69.094 94.7238C69.0634 94.207 69.2387 93.6992 69.5816 93.3115C69.9245 92.9237 70.4071 92.6876 70.9237 92.6548L106.231 90.4739C106.748 90.4443 107.256 90.6205 107.644 90.964C108.031 91.3076 108.267 91.7905 108.3 92.3074C108.331 92.8233 108.157 93.3304 107.815 93.7186C107.474 94.1067 106.994 94.3445 106.478 94.3802Z" fill="#00AAD3"/>
</g>
<g opacity="0.22">
<path d="M106.957 102.124L86.4331 103.39C85.916 103.421 85.4078 103.245 85.0194 102.903C84.631 102.56 84.3941 102.077 84.3603 101.56C84.3286 101.043 84.5034 100.534 84.8465 100.146C85.1895 99.7569 85.6726 99.5203 86.1899 99.4875L106.714 98.2214C107.231 98.1897 107.74 98.3646 108.128 98.7076C108.517 99.0506 108.754 99.5338 108.786 100.051C108.817 100.568 108.642 101.076 108.299 101.465C107.956 101.853 107.474 102.09 106.957 102.124Z" fill="#00AAD3"/>
</g>
<g opacity="0.22">
<path d="M77.0186 103.969L71.6493 104.301C71.1326 104.332 70.6248 104.156 70.237 103.814C69.8493 103.471 69.6132 102.988 69.5804 102.471C69.5497 101.954 69.7249 101.446 70.0677 101.058C70.4105 100.669 70.8931 100.432 71.41 100.399L76.7793 100.067C77.2968 100.037 77.805 100.213 78.1933 100.557C78.5815 100.9 78.8183 101.383 78.8521 101.9C78.8817 102.417 78.7055 102.925 78.362 103.313C78.0184 103.7 77.5355 103.936 77.0186 103.969Z" fill="#00AAD3"/>
</g>
<g opacity="0.22">
<path d="M107.435 109.867L72.128 112.044C71.6109 112.075 71.1026 111.899 70.7142 111.557C70.3259 111.214 70.0889 110.731 70.0552 110.214C70.0255 109.697 70.2016 109.188 70.545 108.8C70.8885 108.412 71.3714 108.175 71.8887 108.141L107.192 105.964C107.71 105.934 108.219 106.109 108.607 106.453C108.996 106.797 109.232 107.28 109.265 107.798C109.296 108.315 109.12 108.822 108.777 109.21C108.435 109.598 107.952 109.834 107.435 109.867Z" fill="#00AAD3"/>
</g>
<g opacity="0.22">
<path d="M94.2882 118.452L72.6066 119.791C72.0891 119.821 71.5809 119.645 71.1926 119.301C70.8044 118.958 70.5676 118.475 70.5338 117.957C70.5042 117.44 70.6804 116.933 71.0239 116.545C71.3674 116.157 71.8504 115.921 72.3673 115.889L94.0489 114.549C94.566 114.52 95.0738 114.696 95.4614 115.039C95.8491 115.383 96.0851 115.866 96.1179 116.383C96.1495 116.9 95.9746 117.408 95.6315 117.796C95.2884 118.184 94.8052 118.42 94.2882 118.452Z" fill="#00AAD3"/>
</g>
<g opacity="0.22">
<path d="M107.91 117.614L102.12 117.969C101.603 118 101.096 117.825 100.708 117.482C100.32 117.139 100.084 116.656 100.051 116.14C100.02 115.622 100.194 115.113 100.537 114.725C100.88 114.336 101.364 114.1 101.881 114.067L107.671 113.712C108.188 113.68 108.697 113.855 109.086 114.198C109.474 114.541 109.711 115.024 109.744 115.541C109.773 116.059 109.597 116.567 109.254 116.955C108.91 117.344 108.427 117.58 107.91 117.614Z" fill="#00AAD3"/>
</g>
<g opacity="0.22">
<path d="M108.389 125.357L73.0852 127.534C72.5681 127.565 72.0599 127.39 71.6715 127.047C71.2831 126.704 71.0462 126.221 71.0124 125.704C70.9818 125.187 71.157 124.679 71.4998 124.291C71.8426 123.902 72.3251 123.665 72.8421 123.632L108.149 121.455C108.666 121.424 109.174 121.599 109.562 121.942C109.95 122.285 110.186 122.768 110.218 123.284C110.25 123.802 110.075 124.31 109.732 124.699C109.389 125.088 108.906 125.324 108.389 125.357Z" fill="#00AAD3"/>
</g>
<path opacity="0.22" d="M99.229 69.1826L99.8042 78.4929C99.8401 79.08 99.9913 79.6542 100.249 80.1827C100.507 80.7113 100.866 81.1839 101.307 81.5736C101.748 81.9632 102.26 82.2622 102.817 82.4536C103.373 82.6449 103.961 82.7248 104.548 82.6888L113.87 82.1136L99.229 69.1826Z" fill="#00AAD3"/>
<path opacity="0.5" d="M88.3361 92.4086C88.3303 91.9624 88.2351 91.522 88.0562 91.1132C87.8772 90.7045 87.6182 90.3357 87.2943 90.0288C86.9705 89.7219 86.5884 89.4829 86.1706 89.3262C85.7529 89.1694 85.3079 89.0979 84.8621 89.116H53.9435C51.6005 89.116 49.3115 91.019 48.8715 93.362L36.67 155.875C36.2145 158.218 37.7431 160.121 40.0861 160.121H138.13C140.473 160.121 142.743 158.222 143.202 155.875L153.265 104.344C153.721 101.997 152.192 100.098 149.849 100.098H96.5C91.868 100.098 88.4944 96.9094 88.3361 92.4086Z" fill="#00AAD3"/>
</svg>
