<svg width="56" height="56" viewBox="0 0 56 56" fill="none" xmlns="http://www.w3.org/2000/svg">
<path d="M38.3337 12.3333C38.3337 7.46117 38.3337 5.02767 36.8198 3.51383C35.306 2 32.8725 2 28.0003 2C23.1282 2 20.6947 2 19.1808 3.51383C17.667 5.02767 17.667 7.46117 17.667 12.3333M2.16699 33C2.16699 23.2583 2.16699 18.3861 5.19466 15.361C8.22233 12.3359 13.0919 12.3333 22.8337 12.3333H33.167C42.9087 12.3333 47.7809 12.3333 50.806 15.361C53.8311 18.3887 53.8337 23.2583 53.8337 33C53.8337 42.7418 53.8337 47.6139 50.806 50.639C47.7783 53.6641 42.9087 53.6667 33.167 53.6667H22.8337C13.0919 53.6667 8.21974 53.6667 5.19466 50.639C2.16958 47.6113 2.16699 42.7418 2.16699 33Z" stroke="#00AAD3" stroke-width="2.95772"/>
<path d="M28.0006 41.6096C30.8552 41.6096 33.1673 39.6824 33.1673 37.3058C33.1673 34.9291 30.8552 32.9993 28.0006 32.9993C25.1461 32.9993 22.834 31.0722 22.834 28.6929C22.834 26.3163 25.1461 24.3891 28.0006 24.3891M28.0006 41.6096C25.1461 41.6096 22.834 39.6824 22.834 37.3058M28.0006 41.6096V43.3327M28.0006 24.3891V22.666M28.0006 24.3891C30.8552 24.3891 33.1673 26.3163 33.1673 28.6929" stroke="#00AAD3" stroke-width="2.95772" stroke-linecap="round"/>
</svg>
