<svg width="44" height="62" viewBox="0 0 44 62" fill="none" xmlns="http://www.w3.org/2000/svg">
<path d="M22 0C18.633 0 16.04 2.80922 16.04 6.16822C16.04 9.40354 16.0173 12.2343 16.0173 12.2343H10.0307C9.91797 12.2343 9.80896 12.2467 9.70144 12.2645H8.03637V18.0808H35.9636V12.2645H34.2985C34.191 12.2467 34.082 12.2343 33.9693 12.2343H27.9828C27.9828 12.2343 28.0509 9.67179 28.0509 6.18713C28.0509 2.95177 25.367 0 22 0ZM0.0517578 5.89956V62H43.9482V5.89956H30.0414V9.96376H39.9295V57.9283H4.07437V9.96376H13.9586V5.89956H0.0517578ZM22 5.9752C23.1031 5.9752 23.9943 6.86283 23.9943 7.96188C23.9943 9.06295 23.1031 9.95234 22 9.95234C20.8969 9.95234 20.0057 9.0629 20.0057 7.96188C20.0057 6.86288 20.8969 5.9752 22 5.9752ZM8.03637 22.0239V24.0144H10.0307V22.0239H8.03637ZM14.0229 22.0618V24.0522H35.9636V22.0618H14.0229ZM8.03637 29.5317V31.5222H10.0307V29.5317H8.03637ZM14.0229 29.5696V31.5638H35.9636V29.5696H14.0229ZM8.03637 37.0396V39.03H10.0307V37.0396H8.03637ZM14.0229 37.0812V39.0716H35.9636V37.0812H14.0229ZM8.03637 44.5511V46.5416H10.0307V44.5511H8.03637ZM14.0229 44.5928V46.5832H35.9636V44.5928H14.0229ZM8.03637 52.059V54.0494H10.0307V52.059H8.03637ZM14.0229 52.1006V54.091H35.9636V52.1006H14.0229Z" fill="#00AAD3"/>
</svg>
