<svg width="57" height="40" viewBox="0 0 57 40" fill="none" xmlns="http://www.w3.org/2000/svg">
<path d="M28.4167 12.251C30.4721 12.251 32.4433 13.0675 33.8967 14.5209C35.3502 15.9743 36.1667 17.9455 36.1667 20.001C36.1667 22.0564 35.3502 24.0276 33.8967 25.4811C32.4433 26.9345 30.4721 27.751 28.4167 27.751C26.3612 27.751 24.39 26.9345 22.9366 25.4811C21.4832 24.0276 20.6667 22.0564 20.6667 20.001C20.6667 17.9455 21.4832 15.9743 22.9366 14.5209C24.39 13.0675 26.3612 12.251 28.4167 12.251ZM28.4167 0.625977C41.3333 0.625977 52.3642 8.66014 56.8333 20.001C52.3642 31.3418 41.3333 39.376 28.4167 39.376C15.5 39.376 4.46917 31.3418 0 20.001C4.46917 8.66014 15.5 0.625977 28.4167 0.625977ZM5.63167 20.001C7.71966 24.2643 10.9619 27.8562 14.9897 30.3685C19.0176 32.8809 23.6695 34.2127 28.4167 34.2127C33.1638 34.2127 37.8157 32.8809 41.8436 30.3685C45.8715 27.8562 49.1137 24.2643 51.2017 20.001C49.1137 15.7377 45.8715 12.1457 41.8436 9.6334C37.8157 7.12109 33.1638 5.78923 28.4167 5.78923C23.6695 5.78923 19.0176 7.12109 14.9897 9.6334C10.9619 12.1457 7.71966 15.7377 5.63167 20.001Z" fill="#00AAD3"/>
</svg>
