<svg width="62" height="63" viewBox="0 0 62 63" fill="none" xmlns="http://www.w3.org/2000/svg">
<path fill-rule="evenodd" clip-rule="evenodd" d="M27.3346 4.06425H27.2829C26.9884 4.06425 26.7611 4.06425 26.5441 4.07717C25.2019 4.15876 23.9104 4.61962 22.8197 5.40618C21.729 6.19274 20.884 7.27269 20.3828 8.5205C20.3027 8.71942 20.2304 8.93384 20.1374 9.21542L20.1219 9.2645L20.0547 9.46342L19.9798 9.683C19.5665 10.8248 18.1947 11.7781 16.7429 11.8143L12.0412 12.0468C10.0107 12.2844 8.27216 12.7908 6.80224 13.9868C6.29177 14.4077 5.8229 14.8765 5.40208 15.387C4.20599 16.8595 3.69708 18.5955 3.45941 20.6286C3.22949 22.5919 3.22949 25.059 3.22949 28.1203V28.3218C3.22949 29.0554 3.22949 29.7426 3.28891 30.3212C3.35349 30.9619 3.50333 31.6439 3.90891 32.3001C4.04324 32.5136 4.19394 32.7151 4.36099 32.9046C4.79758 33.398 5.30391 33.7183 5.81283 33.9534C5.82058 38.1281 5.87483 42.3441 6.24941 45.9556C6.46899 48.0739 6.80483 50.0605 7.33958 51.7552C7.86399 53.4214 8.63899 54.9998 9.86866 56.09C11.9947 57.981 14.6737 58.8154 18.0139 59.2158C21.2947 59.6059 25.5004 59.6059 30.8686 59.6059H31.1321C36.5002 59.6059 40.7059 59.6059 43.9867 59.2132C47.327 58.8154 50.0059 57.981 52.132 56.09C53.3617 54.9998 54.1367 53.4214 54.6637 51.7552C55.1958 50.0605 55.5317 48.0739 55.7512 45.9556C56.1258 42.3441 56.1801 38.1281 56.1878 33.9534C56.9729 33.6051 57.6352 33.0292 58.0892 32.3001C58.4973 31.6439 58.6472 30.9619 58.7117 30.3212C58.7711 29.7426 58.7712 29.0554 58.7712 28.3218V28.1203C58.7712 25.059 58.7712 22.5919 58.5387 20.6286C58.301 18.5955 57.7947 16.8569 56.5986 15.387C56.1777 14.8765 55.7089 14.4077 55.1984 13.9868C53.7259 12.7908 51.9899 12.2818 49.9568 12.0442L45.2603 11.8143C43.8085 11.7781 42.4367 10.8248 42.0234 9.683L41.9485 9.46342L41.8658 9.21284C41.7728 8.93642 41.7031 8.71942 41.6204 8.51792C41.1188 7.27059 40.2736 6.19118 39.183 5.4051C38.0924 4.61902 36.8011 4.15854 35.4592 4.07717C35.2139 4.06587 34.9684 4.06156 34.7229 4.06425H27.3346ZM19.5587 15.6893H42.4445C45.6013 15.6893 47.8127 15.6944 49.5047 15.8933C51.1736 16.0897 52.0855 16.4513 52.752 16.9938C53.062 17.2453 53.3419 17.5251 53.5916 17.8334C54.1341 18.4999 54.4957 19.4118 54.6921 21.0807C54.8936 22.7908 54.8962 25.0306 54.8962 28.2417C54.8962 29.0838 54.8962 29.5721 54.8574 29.9312C54.8514 30.0409 54.8314 30.1494 54.798 30.2541L54.736 30.3393C54.6446 30.4017 54.5457 30.452 54.4415 30.4892C54.1082 30.6287 53.6407 30.7707 52.8347 31.011L39.3962 35.0436V34.4184C39.3962 32.6359 37.9495 31.1892 36.167 31.1892H25.8337C24.0512 31.1892 22.6045 32.6359 22.6045 34.4184V35.0436L9.16599 31.0136C8.6225 30.8639 8.0863 30.6889 7.55916 30.4892C7.45498 30.452 7.35601 30.4017 7.26466 30.3393L22.6045 35.0436L7.20266 30.2541C7.1692 30.1494 7.14923 30.0409 7.14324 29.9312C7.104 29.3689 7.09107 28.8051 7.10449 28.2417C7.10449 25.0306 7.10707 22.7908 7.30858 21.0807C7.50491 19.4118 7.86658 18.4999 8.40908 17.8334C8.6602 17.5262 8.94147 17.245 9.24866 16.9938C9.91516 16.4513 10.8271 16.0897 12.4959 15.8933C14.188 15.6944 16.3993 15.6893 19.5587 15.6893ZM27.332 7.93925C26.9626 7.93925 26.8592 7.93925 26.7766 7.94442C26.1665 7.98159 25.5794 8.19116 25.0837 8.54877C24.588 8.90638 24.204 9.39734 23.9762 9.96459C23.9113 10.1377 23.851 10.3126 23.7954 10.489L23.7205 10.7086L23.6223 11.0005C23.519 11.2829 23.3984 11.5542 23.2607 11.8143H38.7348C38.5476 11.4607 38.3937 11.0906 38.275 10.7086L38.2027 10.489C38.1471 10.3126 38.0868 10.1377 38.0218 9.96459C37.7939 9.39696 37.4095 8.90575 36.9133 8.54811C36.4171 8.19047 35.8295 7.98112 35.2189 7.94442C35.0338 7.93772 34.8486 7.936 34.6635 7.93925H27.332ZM9.69299 35.2167C9.71107 38.9289 9.78599 42.4939 10.1037 45.5578C10.3104 47.5469 10.6101 49.2442 11.0337 50.5901C11.4677 51.9593 11.9689 52.773 12.4417 53.1941C13.7204 54.3307 15.4848 55.0102 18.4737 55.3641C21.4962 55.7257 25.472 55.7309 31.0003 55.7309C36.5287 55.7309 40.5018 55.7283 43.5269 55.3667C46.5158 55.0102 48.2802 54.3282 49.559 53.1941C50.0317 52.773 50.5329 51.9593 50.9669 50.5901C51.3906 49.2467 51.6902 47.5469 51.8969 45.5578C52.2147 42.4939 52.2896 38.9263 52.3077 35.2167L39.3962 39.0891V40.0036C39.3962 41.3211 38.5927 42.5094 37.3657 43.0002L35.5573 43.7236C32.632 44.8936 29.3687 44.8936 26.4433 43.7236L24.635 43.0002C24.0359 42.7608 23.5223 42.3473 23.1604 41.8132C22.7985 41.2791 22.6048 40.6488 22.6045 40.0036V39.0891L9.69299 35.2167ZM26.4795 35.0642V39.5644L27.8822 40.125C29.8843 40.9258 32.1189 40.9258 34.1184 40.125L35.5212 39.5644V35.0642H26.4795Z" fill="#00AAD3"/>
</svg>
