<svg width="62" height="63" viewBox="0 0 62 63" fill="none" xmlns="http://www.w3.org/2000/svg">
<path d="M28.4167 38.2926C28.4167 41.8576 34.2007 44.751 41.3333 44.751C48.4659 44.751 54.25 41.8576 54.25 38.2926M7.75 25.376C7.75 28.941 13.5341 31.8343 20.6667 31.8343C23.5755 31.8343 26.2596 31.3538 28.4167 30.5426M7.75 34.4176C7.75 37.9826 13.5341 40.876 20.6667 40.876C23.5755 40.876 26.257 40.3955 28.4167 39.5843M41.3333 34.4176C34.2007 34.4176 28.4167 31.5243 28.4167 27.9593C28.4167 24.3943 34.2007 21.501 41.3333 21.501C48.4659 21.501 54.25 24.3943 54.25 27.9593C54.25 31.5243 48.4659 34.4176 41.3333 34.4176Z" stroke="#00AAD3" stroke-width="2.95772" stroke-linecap="round" stroke-linejoin="round"/>
<path d="M7.75 15.042V43.4587C7.75 47.0237 13.5341 49.917 20.6667 49.917C23.5755 49.917 26.257 49.4365 28.4167 48.6253M28.4167 48.6253V27.9587M28.4167 48.6253C28.4167 52.1903 34.2007 55.0837 41.3333 55.0837C48.4659 55.0837 54.25 52.1903 54.25 48.6253V27.9587M33.5833 22.792V15.042" stroke="#00AAD3" stroke-width="2.95772" stroke-linecap="round" stroke-linejoin="round"/>
<path d="M20.6667 21.5006C13.5341 21.5006 7.75 18.6073 7.75 15.0423C7.75 11.4773 13.5341 8.58398 20.6667 8.58398C27.7992 8.58398 33.5833 11.4773 33.5833 15.0423C33.5833 18.6073 27.7992 21.5006 20.6667 21.5006Z" stroke="#00AAD3" stroke-width="2.95772" stroke-linecap="round" stroke-linejoin="round"/>
</svg>
