<svg width="62" height="62" viewBox="0 0 62 62" fill="none" xmlns="http://www.w3.org/2000/svg">
<path d="M31.0003 27.126C28.2598 27.126 25.6314 26.1053 23.6936 24.2886C21.7557 22.4718 20.667 20.0078 20.667 17.4385C20.667 14.8692 21.7557 12.4051 23.6936 10.5884C25.6314 8.77162 28.2598 7.75098 31.0003 7.75098C33.7409 7.75098 36.3692 8.77162 38.3071 10.5884C40.245 12.4051 41.3337 14.8692 41.3337 17.4385C41.3337 20.0078 40.245 22.4718 38.3071 24.2886C36.3692 26.1053 33.7409 27.126 31.0003 27.126ZM31.0003 11.626C27.5697 11.626 24.8003 14.2222 24.8003 17.4385C24.8003 20.6547 27.5697 23.251 31.0003 23.251C34.431 23.251 37.2003 20.6547 37.2003 17.4385C37.2003 14.2222 34.431 11.626 31.0003 11.626Z" fill="#00AAD3"/>
<path d="M55.8 42.626C54.6427 42.626 53.7333 41.7735 53.7333 40.6885C53.7333 39.6035 54.6427 38.751 55.8 38.751C56.9573 38.751 57.8667 37.8985 57.8667 36.8135C57.8667 34.2442 56.778 31.7801 54.8401 29.9634C52.9022 28.1466 50.2739 27.126 47.5333 27.126H43.4C42.2427 27.126 41.3333 26.2735 41.3333 25.1885C41.3333 24.1035 42.2427 23.251 43.4 23.251C46.8307 23.251 49.6 20.6547 49.6 17.4385C49.6 14.2222 46.8307 11.626 43.4 11.626C42.2427 11.626 41.3333 10.7735 41.3333 9.68848C41.3333 8.60348 42.2427 7.75098 43.4 7.75098C46.1406 7.75098 48.7689 8.77162 50.7068 10.5884C52.6446 12.4051 53.7333 14.8692 53.7333 17.4385C53.7333 19.841 52.824 22.011 51.2533 23.716C57.412 25.266 62 30.536 62 36.8135C62 40.0297 59.2307 42.626 55.8 42.626ZM6.2 42.626C2.76933 42.626 0 40.0297 0 36.8135C0 30.536 4.54667 25.266 10.7467 23.716C9.21733 22.011 8.26667 19.841 8.26667 17.4385C8.26667 14.8692 9.35535 12.4051 11.2932 10.5884C13.2311 8.77162 15.8594 7.75098 18.6 7.75098C19.7573 7.75098 20.6667 8.60348 20.6667 9.68848C20.6667 10.7735 19.7573 11.626 18.6 11.626C15.1693 11.626 12.4 14.2222 12.4 17.4385C12.4 20.6547 15.1693 23.251 18.6 23.251C19.7573 23.251 20.6667 24.1035 20.6667 25.1885C20.6667 26.2735 19.7573 27.126 18.6 27.126H14.4667C11.7261 27.126 9.09777 28.1466 7.1599 29.9634C5.22202 31.7801 4.13333 34.2442 4.13333 36.8135C4.13333 37.8985 5.04267 38.751 6.2 38.751C7.35733 38.751 8.26667 39.6035 8.26667 40.6885C8.26667 41.7735 7.35733 42.626 6.2 42.626ZM43.4 54.251H18.6C15.1693 54.251 12.4 51.6547 12.4 48.4385V44.5635C12.4 37.0847 18.8893 31.001 26.8667 31.001H35.1333C43.1107 31.001 49.6 37.0847 49.6 44.5635V48.4385C49.6 51.6547 46.8307 54.251 43.4 54.251ZM26.8667 34.876C24.1261 34.876 21.4978 35.8966 19.5599 37.7134C17.622 39.5301 16.5333 41.9942 16.5333 44.5635V48.4385C16.5333 49.5235 17.4427 50.376 18.6 50.376H43.4C44.5573 50.376 45.4667 49.5235 45.4667 48.4385V44.5635C45.4667 41.9942 44.378 39.5301 42.4401 37.7134C40.5022 35.8966 37.8739 34.876 35.1333 34.876H26.8667Z" fill="#00AAD3"/>
</svg>
