<svg width="62" height="62" viewBox="0 0 62 62" fill="none" xmlns="http://www.w3.org/2000/svg">
<path d="M57.1778 62L35.4778 40.3C33.7556 41.6778 31.775 42.7685 29.5361 43.5722C27.2972 44.3759 24.9148 44.7778 22.3889 44.7778C16.1315 44.7778 10.8362 42.6101 6.50311 38.2747C2.17 33.9393 0.00229812 28.644 1.82246e-06 22.3889C-0.00229447 16.1338 2.16541 10.8385 6.50311 6.50311C10.8408 2.1677 16.1361 0 22.3889 0C28.6417 0 33.9381 2.1677 38.2781 6.50311C42.6181 10.8385 44.7847 16.1338 44.7778 22.3889C44.7778 24.9148 44.3759 27.2972 43.5722 29.5361C42.7685 31.775 41.6778 33.7556 40.3 35.4778L62 57.1778L57.1778 62ZM22.3889 37.8889C26.6944 37.8889 30.3547 36.3825 33.3698 33.3698C36.3848 30.357 37.8912 26.6967 37.8889 22.3889C37.8866 18.081 36.3802 14.4219 33.3698 11.4114C30.3593 8.401 26.699 6.89348 22.3889 6.88889C18.0787 6.8843 14.4196 8.39182 11.4114 11.4114C8.4033 14.4311 6.89578 18.0902 6.88889 22.3889C6.882 26.6876 8.38952 30.3479 11.4114 33.3698C14.4334 36.3917 18.0925 37.8981 22.3889 37.8889Z" fill="#00AAD3"/>
</svg>
