<svg width="84" height="84" viewBox="0 0 84 84" fill="none" xmlns="http://www.w3.org/2000/svg">
<path d="M14.981 43.1846C0.0575726 51.7996 0.0592527 65.7671 14.981 74.3839C29.9028 83.0006 54.0965 82.9922 69.0199 74.3839C83.9433 65.7755 83.9417 51.7996 69.0199 43.1846C54.0981 34.5695 29.9045 34.5678 14.981 43.1846Z" fill="#FAFAFA"/>
<path d="M36.5165 77.9839C40.4979 77.9839 43.7254 76.1208 43.7254 73.8225C43.7254 71.5242 40.4979 69.6611 36.5165 69.6611C32.5351 69.6611 29.3076 71.5242 29.3076 73.8225C29.3076 76.1208 32.5351 77.9839 36.5165 77.9839Z" fill="#E0E0E0"/>
<path d="M48.5927 74.992C52.8626 74.992 56.324 72.9935 56.324 70.5282C56.324 68.0629 52.8626 66.0645 48.5927 66.0645C44.3228 66.0645 40.8613 68.0629 40.8613 70.5282C40.8613 72.9935 44.3228 74.992 48.5927 74.992Z" fill="#E0E0E0"/>
<path d="M12.4989 68.5981L10.9331 69.5019C10.937 67.9613 10.7679 66.4252 10.4291 64.9223C9.39086 60.0973 7.28414 59.259 6.25766 57.3807C5.1791 55.4051 6.5651 54.2207 7.87214 54.4239C9.04814 54.6037 10.8961 56.0401 11.8151 59.0053C13.0432 62.9147 12.7425 66.8156 12.4989 68.5981Z" fill="#00AAD3"/>
<path opacity="0.5" d="M12.4989 68.5981L10.9331 69.5019C10.937 67.9613 10.7679 66.4252 10.4291 64.9223C9.39086 60.0973 7.28414 59.259 6.25766 57.3807C5.1791 55.4051 6.5651 54.2207 7.87214 54.4239C9.04814 54.6037 10.8961 56.0401 11.8151 59.0053C13.0432 62.9147 12.7425 66.8156 12.4989 68.5981Z" fill="white"/>
<path d="M11.5785 68.217C11.5677 68.2154 11.5575 68.2117 11.5482 68.2061C11.5389 68.2004 11.5309 68.193 11.5245 68.1843C11.5181 68.1756 11.5135 68.1656 11.5109 68.1551C11.5084 68.1446 11.5079 68.1337 11.5096 68.123C12.3395 62.3152 9.74893 57.3105 7.64557 55.6137C7.63718 55.6069 7.63022 55.5984 7.62508 55.5889C7.61995 55.5794 7.61675 55.5689 7.61565 55.5582C7.61456 55.5474 7.6156 55.5365 7.61872 55.5262C7.62183 55.5158 7.62696 55.5061 7.63381 55.4978C7.64023 55.4891 7.64835 55.4819 7.65767 55.4765C7.66699 55.4711 7.67732 55.4676 7.68803 55.4664C7.69873 55.4651 7.70957 55.466 7.7199 55.4691C7.73022 55.4722 7.7398 55.4774 7.74805 55.4843C9.88333 57.208 12.5109 62.2749 11.6725 68.1465C11.6692 68.1682 11.6575 68.1878 11.6399 68.201C11.6223 68.2142 11.6002 68.2199 11.5785 68.217Z" fill="white"/>
<path d="M11.7145 69.0485L10.9333 69.4988L10.8057 69.5727C10.5486 68.4051 9.86151 67.1871 8.55951 65.8767C7.03239 64.3462 4.90383 62.9165 5.28015 61.6313C5.65647 60.3461 7.37343 60.6855 8.55951 61.4465C9.67335 62.1706 12.0455 64.8099 11.7145 69.0485Z" fill="#00AAD3"/>
<path opacity="0.65" d="M11.7145 69.0485L10.9333 69.4988L10.8057 69.5727C10.5486 68.4051 9.86151 67.1871 8.55951 65.8767C7.03239 64.3462 4.90383 62.9165 5.28015 61.6313C5.65647 60.3461 7.37343 60.6855 8.55951 61.4465C9.67335 62.1706 12.0455 64.8099 11.7145 69.0485Z" fill="white"/>
<path d="M11.2999 68.691C11.2808 68.6879 11.2634 68.6784 11.2506 68.664C11.2377 68.6496 11.2302 68.6313 11.2293 68.612C11.1201 65.7661 7.99699 62.0819 6.50851 61.4771C6.4973 61.4739 6.48688 61.4685 6.47793 61.4611C6.46899 61.4536 6.46172 61.4444 6.45661 61.4339C6.4515 61.4235 6.44866 61.412 6.44829 61.4004C6.44791 61.3888 6.45 61.3772 6.45442 61.3665C6.45885 61.3557 6.4655 61.346 6.47395 61.338C6.4824 61.33 6.49244 61.3239 6.50343 61.32C6.51441 61.3162 6.52608 61.3147 6.53767 61.3157C6.54926 61.3167 6.56051 61.3202 6.57067 61.3259C8.12971 61.9592 11.2747 65.6485 11.3923 68.6053C11.393 68.6162 11.3914 68.6271 11.3878 68.6373C11.3841 68.6476 11.3785 68.657 11.3711 68.665C11.3637 68.673 11.3548 68.6794 11.3449 68.6839C11.3349 68.6884 11.3242 68.6908 11.3133 68.691H11.2999Z" fill="white"/>
<path d="M55.6719 12.0811L56.5673 16.0895L60.2499 18.245L59.3343 14.1945L55.6719 12.0811Z" fill="#00AAD3"/>
<path opacity="0.2" d="M55.6719 12.0811L56.5673 16.0895L60.2499 18.245L59.3343 14.1945L55.6719 12.0811Z" fill="black"/>
<path d="M47.7334 31.8545L59.3338 14.1943L55.6714 12.0809L69.5952 8.15137L72.1304 21.583L68.478 19.4746L56.8776 37.133L47.7334 31.8545Z" fill="#00AAD3"/>
<path opacity="0.2" d="M47.7334 31.8545L59.3338 14.1943L55.6714 12.0809L69.5952 8.15137L72.1304 21.583L68.478 19.4746L56.8776 37.133L47.7334 31.8545Z" fill="white"/>
<path d="M68.4782 19.4746L56.8828 37.1331L58.9358 39.4683L69.4072 23.5301L73.0511 25.6352L72.1305 21.583L68.4782 19.4746Z" fill="#00AAD3"/>
<path opacity="0.2" d="M68.4782 19.4746L56.8828 37.1331L58.9358 39.4683L69.4072 23.5301L73.0511 25.6352L72.1305 21.583L68.4782 19.4746Z" fill="black"/>
<path d="M49.7864 34.2046L47.7334 31.8711L56.8827 37.1329L58.9356 39.4681L49.7864 34.2046Z" fill="#00AAD3"/>
<path opacity="0.4" d="M49.7864 34.2046L47.7334 31.8711L56.8827 37.1329L58.9356 39.4681L49.7864 34.2046Z" fill="black"/>
<path opacity="0.2" d="M69.4076 23.5301L68.4785 19.4746L72.1308 21.583L73.0515 25.6352L69.4076 23.5301Z" fill="black"/>
<path d="M17.5153 77.3001L31.0713 56.7151L21.927 51.4365L8.37109 72.0216L17.5153 77.3001Z" fill="#00AAD3"/>
<path opacity="0.2" d="M17.5153 77.3001L31.0713 56.7151L21.927 51.4365L8.37109 72.0216L17.5153 77.3001Z" fill="white"/>
<path d="M31.0715 56.7148L17.5156 77.2999L23.0008 74.1331L32.8876 59.1794L31.0715 56.7148Z" fill="#00AAD3"/>
<path opacity="0.2" d="M31.0715 56.7148L17.5156 77.2999L23.0008 74.1331L32.8876 59.1794L31.0715 56.7148Z" fill="black"/>
<path d="M55.2587 66.4651C55.2587 67.4361 55.2587 68.7499 55.2587 69.5848C55.2587 69.7663 55.2587 69.9914 55.2587 70.2887C55.126 71.1623 54.4792 72.0175 53.32 72.6861C50.6992 74.1981 46.4505 74.1981 43.8297 72.6861C42.4857 71.9066 41.8238 70.8751 41.8675 69.8536C41.8675 69.7663 41.8843 69.6755 41.8943 69.5815C41.8943 69.5815 41.8943 69.5814 41.8943 69.5714C42.0086 68.5785 42.0892 67.5839 42.1447 66.6515C42.2337 65.1715 42.2219 64.5196 42.2102 63.7233C42.1951 62.7405 41.7868 61.9694 40.7503 61.0975C39.7137 60.2255 37.6523 57.2452 37.6523 57.2452L51.3225 50.2178L55.2083 62.5288C55.2083 62.5288 55.2587 65.494 55.2587 66.4651Z" fill="#FFA8A7"/>
<path d="M51.4286 47.6677C51.4286 47.6677 51.1716 48.7026 49.9502 47.3317C48.7289 45.9608 46.7297 43.8675 44.6229 41.8532C43.6149 40.8872 39.5695 37.6347 36.8563 35.1752C35.9911 34.2831 34.763 33.6632 33.918 34.3083C33.0729 34.9534 33.078 36.5511 33.6038 37.3407C34.0742 38.0413 35.0822 39.0123 35.8517 39.7095C35.8517 39.7515 35.8433 39.7935 35.8382 39.8355C35.6921 41.1073 35.4317 42.5369 35.309 44.0775C35.2351 44.9965 34.133 46.1523 34.1431 47.1015C34.469 48.4455 36.2481 49.8853 37.5031 50.8899C38.7581 51.8946 39.3091 52.3028 39.2957 52.6203C39.2738 53.1058 37.236 51.3385 36.3305 50.7169C36.3809 53.6014 34.5362 53.9492 34.5362 53.9492C34.8134 54.5036 36.3842 55.7266 38.6203 58.5877C39.5023 59.7183 48.4802 52.286 48.4802 52.286L50.6122 50.9168L52.1124 48.4354L51.4286 47.6677Z" fill="#FFA8A7"/>
<path d="M50.6846 50.2127C49.8446 51.2711 46.5334 54.6479 49.1374 59.1251C48.9576 58.9581 48.7945 58.7741 48.6502 58.5757C48.2773 58.0795 47.9822 57.5294 47.7749 56.9444C47.7665 56.9226 47.7598 56.9024 47.753 56.8806C47.1617 55.1771 47.3633 53.4416 48.467 51.9767C49.3356 50.8259 50.9165 49.707 51.1282 48.4655C51.1282 48.4201 51.1399 48.3747 51.1433 48.3311C51.1802 48.7208 51.2239 49.5373 50.6846 50.2127Z" fill="#F28F8F"/>
<path opacity="0.5" d="M33.4322 34.9443C33.0962 35.7037 33.1987 36.7487 33.6002 37.34C34.0706 38.0406 35.0786 39.0116 35.8481 39.7088L35.838 39.8096C36.174 40.1003 36.5419 40.4094 36.9418 40.7622C37.9061 41.6106 39.1812 42.7059 40.1438 43.556C40.626 43.9811 42.9158 45.824 43.7474 46.5649C42.469 45.1621 39.5962 42.6169 38.1514 41.1889C37.061 40.1154 35.4516 38.6168 34.9291 38.0187C34.4066 37.4207 34.0992 37.0107 33.9211 36.789C33.7179 36.5313 33.5696 36.2346 33.4855 35.9173C33.4014 35.6 33.3833 35.2689 33.4322 34.9443Z" fill="#F28F8F"/>
<path d="M35.8888 55.1884C36.1414 55.1543 36.3843 55.0687 36.6024 54.9369C36.8206 54.8051 37.0094 54.63 37.1572 54.4223C37.4932 53.8629 37.5587 53.4278 37.468 52.5542C37.4222 52.146 37.3396 51.7429 37.221 51.3496C36.922 51.1346 36.6095 50.9027 36.3323 50.7129C36.3827 53.5975 34.5381 53.9452 34.5381 53.9452C34.6641 54.1955 35.0555 54.5853 35.6536 55.2019C35.7326 55.2002 35.8098 55.1951 35.8888 55.1884Z" fill="#F28F8F"/>
<path d="M34.4119 43.5323C34.3396 43.5978 35.3611 44.5823 35.4686 44.6411C35.8466 44.8528 36.569 44.5907 36.8815 44.3286C37.0766 44.1586 37.2281 43.9443 37.3233 43.7037C37.6593 42.8973 37.4913 41.975 37.3233 41.1165C37.3191 41.0478 37.3003 40.9808 37.2681 40.92C37.236 40.8591 37.1912 40.8058 37.1368 40.7637C37.1167 41.2139 36.7202 41.4088 36.4279 41.6793L35.5879 42.4504L34.4119 43.5323Z" fill="#F28F8F"/>
<path d="M36.7333 44.0615L42.0791 49.4577L35.8379 44.2262L36.7333 44.0615Z" fill="#F28F8F"/>
<path d="M36.0025 48.6714C36.2614 48.5858 36.4975 48.4426 36.6931 48.2526C36.8886 48.0626 37.0385 47.8307 37.1315 47.5743C37.2844 47.1359 37.2592 46.6587 37.2289 46.1951C37.2241 45.8001 37.1572 45.4084 37.0307 45.0342L34.5308 45.8843C34.3124 46.3026 34.136 46.7243 34.1428 47.0972C34.2755 47.6432 34.6232 48.1959 35.1121 48.7268C35.4092 48.7775 35.714 48.7585 36.0025 48.6714Z" fill="#F28F8F"/>
<path d="M35.3376 39.6704C36.4363 39.5696 37.0176 40.0517 37.2595 41.0379C37.3595 41.5985 37.3595 42.1724 37.2595 42.733C37.1553 43.4655 36.4632 44.3441 35.5694 44.2131H35.5257C34.0809 43.9779 33.918 43.2051 33.918 41.9501C33.918 40.6951 34.3598 39.7594 35.3376 39.6704Z" fill="#FFA8A7"/>
<path opacity="0.5" d="M36.6346 39.9609C36.7152 40.0298 37.1806 40.4868 37.1856 41.7501C37.1856 43.1311 36.4968 43.4167 35.7308 43.541C34.9647 43.6653 33.9365 43.1865 33.9365 42.5045C34.002 43.4335 34.3095 44.0165 35.5275 44.2147H35.5712C36.4649 44.3457 37.1571 43.4671 37.2612 42.7346C37.3612 42.174 37.3612 41.6001 37.2612 41.0395C37.1822 40.6188 36.961 40.238 36.6346 39.9609Z" fill="#F28F8F"/>
<path d="M35.3624 44.0736C36.3704 43.9812 36.8929 44.4214 37.118 45.3218C37.2085 45.8342 37.2085 46.3584 37.118 46.8708C37.0239 47.5428 36.3889 48.3425 35.5741 48.2148H35.5337C34.2149 47.9998 34.0654 47.2908 34.0654 46.1484C34.0654 45.006 34.4686 44.1542 35.3624 44.0736Z" fill="#FFA8A7"/>
<path opacity="0.5" d="M36.7625 44.5488C36.9036 44.7588 37.0061 45.2763 36.9305 46.0608C36.8213 47.0873 36.5945 47.5846 35.7058 47.6501C34.7768 47.7156 34.2056 47.2855 34.1064 46.8336C34.1955 47.5795 34.5096 48.0516 35.5428 48.2196H35.5832C36.398 48.3406 37.033 47.5476 37.1271 46.8756C37.2176 46.3633 37.2176 45.839 37.1271 45.3267C37.0634 45.044 36.939 44.7786 36.7625 44.5488Z" fill="#F28F8F"/>
<path d="M35.4164 50.2829C36.458 50.1888 37.2376 50.6827 37.2376 51.5798V53.1876C37.2385 53.3896 37.196 53.5894 37.113 53.7735C37.03 53.9577 36.9084 54.1218 36.7564 54.2548C36.6044 54.3878 36.4256 54.4866 36.2321 54.5445C36.0386 54.6024 35.8349 54.6181 35.6348 54.5904H35.5945C34.2253 54.367 34.2421 53.117 34.2253 52.4602C34.2085 51.8033 34.4891 50.3686 35.4164 50.2829Z" fill="#FFA8A7"/>
<path opacity="0.5" d="M36.7303 50.5684C37.1856 51.0438 37.0075 52.0132 36.9739 52.9691C36.9487 53.6327 36.6043 54.182 35.6971 54.182C34.7899 54.182 34.3834 53.6293 34.2607 53.0867C34.3363 53.7133 34.5967 54.4206 35.5947 54.5836H35.635C35.8351 54.6112 36.0387 54.5956 36.2322 54.5377C36.4257 54.4798 36.6045 54.381 36.7565 54.248C36.9085 54.115 37.0301 53.9508 37.1132 53.7667C37.1962 53.5826 37.2386 53.3827 37.2377 53.1808V51.5764C37.2437 51.3794 37.2004 51.1841 37.1118 51.0081C37.0232 50.832 36.8921 50.6809 36.7303 50.5684Z" fill="#F28F8F"/>
<path d="M23.8682 49.9671L46.2777 32.9756L55.4286 38.2558L33.0124 55.2473L23.8682 49.9671Z" fill="#00AAD3"/>
<path d="M55.4289 38.2559L57.4819 40.5894L34.8288 57.7103L33.0127 55.2474L55.4289 38.2559Z" fill="#00AAD3"/>
<path opacity="0.2" d="M55.4289 38.2559L57.4819 40.5894L34.8288 57.7103L33.0127 55.2474L55.4289 38.2559Z" fill="black"/>
<path d="M23.8682 49.9668L25.6842 52.4314L34.8285 57.7099L33.0124 55.247L23.8682 49.9668Z" fill="#00AAD3"/>
<path opacity="0.4" d="M23.8682 49.9668L25.6842 52.4314L34.8285 57.7099L33.0124 55.247L23.8682 49.9668Z" fill="black"/>
<path d="M55.2102 62.5254C55.2155 59.7373 55.4047 56.9525 55.7764 54.1892C56.1712 51.4324 56.0939 49.0736 55.9746 48.4067C55.8553 47.7397 55.8184 46.772 54.7902 45.5423C54.3064 44.9627 53.2429 44.1193 52.3559 43.0777C51.4689 42.0361 50.6272 40.8601 50.1534 40.2217C49.6797 39.5833 48.5053 40.6098 48.5625 42.6443C48.6095 44.3058 49.7385 45.759 50.1837 46.3806C50.7196 47.1383 51.0993 47.8708 51.1413 48.3277C51.1782 48.7141 51.2219 49.534 50.6809 50.2127C49.8409 51.2694 46.5313 54.6462 49.1353 59.1167V63.2243L55.2102 62.5254Z" fill="#FFA8A7"/>
<path d="M50.3689 41.4661C50.3689 41.4661 51.3769 42.8353 51.7011 43.0117C52.0254 43.1881 52.1161 42.7866 52.1161 42.7866C51.6524 42.1348 50.7872 40.9487 50.1572 40.2246C50.3374 40.6121 50.4105 41.0408 50.3689 41.4661Z" fill="#FFA8A7"/>
<path opacity="0.6" d="M50.3689 41.4661C50.3689 41.4661 51.3769 42.8353 51.7011 43.0117C52.0254 43.1881 52.1161 42.7866 52.1161 42.7866C51.6524 42.1348 50.7872 40.9487 50.1572 40.2246C50.3374 40.6121 50.4105 41.0408 50.3689 41.4661Z" fill="white"/>
<path d="M52.116 42.7871C52.0708 42.714 52.0208 42.6438 51.9665 42.5771C51.9821 42.6651 51.9728 42.7556 51.9395 42.8384C51.9062 42.9213 51.8504 42.9932 51.7783 43.0459C52.0421 43.1231 52.116 42.7871 52.116 42.7871Z" fill="#F28F8F"/>
<path opacity="0.2" d="M37.8859 47.7244C38.7826 46.9873 39.7785 46.3799 40.8444 45.92C42.2068 45.3018 43.8432 44.7558 44.9805 44.0838C46.4572 43.2102 47.0217 42.1585 46.9142 41.1001C46.852 40.5004 46.4959 39.8351 45.1317 39.3932C44.7331 39.2626 44.3191 39.1846 43.9003 39.1614C43.3132 39.1405 42.7271 39.2224 42.1682 39.4033C39.665 40.161 38.6016 41.3252 37.7616 42.4559C36.9216 43.5865 35.9001 44.2434 34.0656 45.3119C33.281 45.7672 32.4393 46.214 31.6968 46.676L31.68 46.6878C31.3039 46.8978 30.9424 47.133 30.598 47.3917C30.1276 47.7932 29.7144 48.2082 29.5447 48.6467C29.375 49.0852 29.459 49.5505 29.9596 49.9907C30.1253 50.1385 30.325 50.243 30.5409 50.2948C30.8162 50.3607 31.0979 50.3957 31.3809 50.3989C31.9374 50.4174 32.4941 50.3734 33.0408 50.2679C33.4731 50.1808 33.8973 50.0577 34.3092 49.9C35.6285 49.4079 36.8422 48.6696 37.8859 47.7244Z" fill="black"/>
<path d="M30.2069 25.4269C30.0691 25.7915 29.6693 26.5643 29.6945 26.6617C29.7668 26.903 29.7749 27.1589 29.718 27.4043C29.6827 27.5907 28.0699 28.2241 28.0699 28.2241L28.0313 27.9687C28.005 27.7981 28.0271 27.6234 28.0951 27.4647C28.4031 26.7733 28.6336 26.0498 28.7822 25.3076L30.2069 25.4269Z" fill="#FFA8A7"/>
<path d="M29.7364 27.2393L28.0312 28.007L28.0632 28.2237C28.0632 28.2237 29.676 27.5904 29.7112 27.4039C29.7364 27.3434 29.7364 27.2913 29.7364 27.2393Z" fill="#F28F8F"/>
<path d="M24.5706 30.5188L24.0582 35.7839C24.033 36.0393 24.1993 36.2039 24.4076 36.3551L24.9301 36.7298C24.9879 36.7799 25.0557 36.817 25.129 36.8388C25.2023 36.8605 25.2794 36.8663 25.3552 36.8558C25.4614 36.8393 25.5649 36.8082 25.6626 36.7634H25.6744L25.7063 36.7482L31.6837 34.0317C31.8979 33.9339 32.0827 33.7816 32.2195 33.5899C32.3563 33.3983 32.4403 33.174 32.4632 32.9397L32.9286 28.1416C32.9313 28.0817 32.9198 28.022 32.8949 27.9674C32.8701 27.9128 32.8327 27.8648 32.7858 27.8274L31.8937 27.1907C31.844 27.1597 31.7879 27.1405 31.7296 27.1347C31.6714 27.1289 31.6125 27.1365 31.5577 27.1571L24.7722 30.2399C24.7186 30.267 24.6724 30.3068 24.6378 30.3558C24.6027 30.404 24.5797 30.4599 24.5706 30.5188Z" fill="#37474F"/>
<path d="M24.5706 30.5192L24.0582 35.7844C24.033 36.0397 24.1993 36.2044 24.4076 36.3556L24.9301 36.7302C24.9879 36.7803 25.0557 36.8175 25.129 36.8392C25.2023 36.861 25.2794 36.8667 25.3552 36.8562C25.4614 36.8397 25.5649 36.8086 25.6626 36.7638C25.4308 36.8461 25.2695 36.7134 25.2947 36.453L25.7768 31.492C25.7889 31.4043 25.8217 31.3208 25.8726 31.2484L24.6328 30.3613C24.6002 30.4085 24.5789 30.4625 24.5706 30.5192Z" fill="#263238"/>
<path d="M25.7765 31.4898C25.7906 31.4001 25.8254 31.3151 25.8782 31.2413C25.931 31.1675 26.0003 31.107 26.0806 31.0647L32.4881 28.1533C32.7418 28.0374 32.9282 28.1701 32.8997 28.4473L32.4646 32.9362C32.4415 33.1708 32.3572 33.3951 32.2201 33.5868C32.083 33.7785 31.8979 33.9307 31.6834 34.0282L25.7042 36.7448C25.4506 36.8607 25.2658 36.728 25.2926 36.4508L25.7765 31.4898Z" fill="#455A64"/>
<path d="M32.6547 28.3633C32.6536 28.3829 32.6536 28.4025 32.6547 28.4221L32.2179 32.9111C32.199 33.1016 32.1306 33.2839 32.0195 33.4398C31.9084 33.5957 31.7584 33.7198 31.5845 33.7998L25.6071 36.5164C25.5878 36.5253 25.5675 36.5315 25.5466 36.5348C25.5466 36.5348 25.5466 36.5063 25.5466 36.476L26.0287 31.515C26.0359 31.4685 26.0539 31.4243 26.0814 31.3861C26.1088 31.3478 26.1449 31.3166 26.1867 31.2949L32.5925 28.3818C32.6117 28.3729 32.6321 28.3667 32.653 28.3633M32.653 28.1113C32.5946 28.1131 32.5373 28.1274 32.485 28.1533L26.0758 31.0648C25.9955 31.1071 25.9262 31.1675 25.8734 31.2413C25.8207 31.3151 25.7858 31.4002 25.7717 31.4898L25.2946 36.4559C25.2744 36.6642 25.3735 36.7919 25.5331 36.7919C25.5915 36.7897 25.6487 36.7754 25.7011 36.7499L31.6786 34.0333C31.8931 33.9358 32.0782 33.7835 32.2153 33.5919C32.3524 33.4002 32.4367 33.1759 32.4598 32.9413L32.8949 28.4524C32.9167 28.244 32.8159 28.1164 32.6563 28.1164L32.653 28.1113Z" fill="#37474F"/>
<path d="M32.1843 27.3975L25.3887 30.5206C25.2928 30.5648 25.2101 30.6334 25.1488 30.7194C25.0875 30.8055 25.0497 30.906 25.0392 31.0111L24.5117 36.4291L24.6041 36.4963L25.1367 31.0212C25.1457 30.9332 25.1774 30.8491 25.2286 30.7769C25.2799 30.7048 25.3489 30.6472 25.429 30.6096L32.2767 27.463L32.1843 27.3975Z" fill="#00AAD3"/>
<path opacity="0.2" d="M25.1484 30.7207C25.087 30.8062 25.0493 30.9065 25.0392 31.0113L24.5117 36.4293L24.6041 36.4965L25.1367 31.0214C25.1463 30.9337 25.1781 30.8498 25.2291 30.7778L25.1484 30.7207Z" fill="black"/>
<path opacity="0.2" d="M25.2291 30.7776C25.2798 30.705 25.3488 30.6471 25.429 30.6096L32.2767 27.463L32.1843 27.3975L25.3887 30.5206C25.2925 30.5651 25.2097 30.634 25.1484 30.7205" fill="black"/>
<path d="M29.8338 27.8479L29.7549 28.6627L30.0556 28.8778L30.1614 27.7958C30.1614 27.7404 30.1295 27.7135 30.0791 27.737L29.8338 27.8479Z" fill="#00AAD3"/>
<path opacity="0.4" d="M29.8338 27.8479L29.7549 28.6627L30.0556 28.8778L30.1614 27.7958C30.1614 27.7404 30.1295 27.7135 30.0791 27.737L29.8338 27.8479Z" fill="black"/>
<path d="M27.5161 28.4356L27.3867 29.7544L27.674 29.961L27.8907 29.8619L27.9966 28.78C28.0011 28.7498 28.0128 28.7211 28.0306 28.6962C28.0484 28.6714 28.0719 28.6512 28.099 28.6372L29.737 27.8879L30.073 27.7333C30.1234 27.7098 30.1604 27.7333 30.1554 27.7921L30.0495 28.874L30.2662 28.7766L30.3956 27.4561V27.4393C30.3943 27.4116 30.387 27.3845 30.3742 27.3599C30.3614 27.3352 30.3435 27.3136 30.3217 27.2965L30.2007 27.2092C30.1758 27.194 30.1477 27.1845 30.1186 27.1816C30.0896 27.1787 30.0602 27.1824 30.0327 27.1924L27.6186 28.2894C27.5909 28.3036 27.5671 28.3244 27.5493 28.3498C27.5314 28.3753 27.52 28.4047 27.5161 28.4356Z" fill="#00AAD3"/>
<path opacity="0.2" d="M27.8032 28.641L27.6738 29.9615L27.8905 29.8624L27.9964 28.7804C28.001 28.7502 28.0126 28.7215 28.0304 28.6967C28.0483 28.6719 28.0717 28.6516 28.0989 28.6376L29.7369 27.8884L30.0729 27.7338C30.1233 27.7103 30.1602 27.7338 30.1552 27.7926L30.0493 28.8745L30.2661 28.7771L30.3954 27.4566V27.4398C30.3954 27.3961 30.3585 27.3776 30.3131 27.3978L27.8989 28.4948C27.8728 28.5102 27.8505 28.5313 27.8339 28.5567C27.8173 28.582 27.8068 28.6109 27.8032 28.641Z" fill="black"/>
<path d="M29.4814 27.7873C29.5164 27.7875 29.5505 27.7987 29.5788 27.8192C29.6013 27.7824 29.6329 27.752 29.6706 27.7311C29.7083 27.7102 29.7508 27.6994 29.7939 27.6999C29.8128 27.6975 29.832 27.7013 29.8487 27.7107C29.8653 27.7201 29.8785 27.7345 29.8863 27.752C29.8888 27.7642 29.8888 27.7768 29.8863 27.789C29.8751 27.911 29.8583 28.032 29.8359 28.1518C29.8317 28.241 29.7967 28.3259 29.7368 28.3921C29.709 28.4154 29.6758 28.4312 29.6402 28.4379C29.6046 28.4447 29.5678 28.4422 29.5335 28.4307C29.508 28.4883 29.4609 28.5335 29.4024 28.5567C29.389 28.5567 29.2193 28.5769 29.2344 28.5567C29.2012 28.6279 29.1457 28.6864 29.0763 28.7234C29.0069 28.7604 28.9274 28.7738 28.8497 28.7617C28.8497 28.7617 28.8044 28.8927 28.5641 28.8641C28.4873 28.8471 28.4157 28.8116 28.3557 28.7606C28.2957 28.7097 28.249 28.6449 28.2197 28.5718C28.2332 28.4996 28.2584 28.4694 28.3407 28.4374C28.381 28.4206 28.4247 28.4038 28.465 28.3837C28.5175 28.3451 28.5625 28.2973 28.5977 28.2426C28.6365 28.1917 28.6873 28.1513 28.7456 28.125C28.7751 28.1127 28.8075 28.1087 28.8392 28.1135C28.8708 28.1182 28.9006 28.1315 28.9253 28.1518C28.9357 28.1025 28.9616 28.0578 28.9992 28.0241C29.0286 27.9882 29.0696 27.9638 29.1152 27.9553C29.1286 27.9553 29.2378 27.9721 29.2244 28.0006C29.2534 27.928 29.3038 27.8659 29.3688 27.8226C29.4026 27.8011 29.4414 27.7889 29.4814 27.7873Z" fill="#FFA8A7"/>
<path d="M30.447 25.304C30.3428 25.7862 30.0807 26.2196 30.1966 26.6245C30.2756 26.8983 30.2974 26.8698 30.2655 27.1487C30.2478 27.2735 30.2175 27.3962 30.1748 27.5149C30.1546 27.572 30.1345 27.6308 30.1126 27.6829C30.0924 27.7448 30.0671 27.8049 30.037 27.8627C29.9919 27.9336 29.9408 28.0005 29.8842 28.0626C29.7935 28.1776 29.6879 28.2798 29.57 28.3667L29.5498 28.3784C29.5343 28.3823 29.518 28.3817 29.5028 28.3766C29.4877 28.3716 29.4742 28.3623 29.4642 28.3499C29.3583 28.2339 29.4373 28.0659 29.4927 27.95C29.568 27.8249 29.6128 27.684 29.6238 27.5384C29.6238 27.5199 29.6238 27.4628 29.6238 27.3704L29.4742 27.3335C29.4742 27.3335 28.9921 27.2175 28.9837 26.984C28.9753 26.7505 29.1601 26.5271 29.2995 26.2532C29.439 25.9794 29.4961 25.8013 29.6355 25.0957L30.447 25.304Z" fill="#FFA8A7"/>
<path d="M30.0375 27.8692C29.9253 28.0471 29.7878 28.2079 29.6293 28.3463C29.6024 28.3648 29.5805 28.4 29.5318 28.4034C29.3084 28.3614 29.4142 28.0674 29.4898 27.9347C29.5622 27.816 29.6081 27.683 29.6242 27.5449C29.6216 27.6859 29.5834 27.824 29.5133 27.9464C29.4545 28.0674 29.3453 28.316 29.5318 28.3715C29.726 28.2319 29.8963 28.0617 30.0358 27.8675L30.0375 27.8692Z" fill="#F28F8F"/>
<path d="M29.5872 27.3316C29.5284 27.3013 29.4646 27.2795 29.4092 27.2442C29.366 27.2153 29.3289 27.1782 29.3 27.135C29.2187 27.0316 29.1786 26.9017 29.1874 26.7704C29.1874 26.7704 29.1874 26.7486 29.1756 26.7704C29.1541 26.8428 29.1488 26.919 29.1601 26.9937C29.1714 27.0683 29.1991 27.1395 29.2412 27.2022C29.2786 27.2607 29.3293 27.3096 29.389 27.345C29.4191 27.3635 29.452 27.3771 29.4864 27.3853C29.5199 27.3988 29.5572 27.3988 29.5906 27.3853C29.604 27.3652 29.5973 27.3366 29.5872 27.3316Z" fill="#F28F8F"/>
<path d="M33.3103 15.6323C32.2704 15.5517 31.4388 15.7583 30.8995 17.1275C30.293 18.6748 29.6933 19.8676 29.3875 20.9915C29.0818 22.1154 28.6416 25.6753 28.6416 25.6753C28.6416 25.6753 29.4278 26.3608 30.293 26.0483L31.6034 22.0029L33.3053 18.7285L33.3103 15.6323Z" fill="#E6E6E6"/>
<path d="M45.132 41.1754C45.2042 41.125 45.3117 41.3115 45.3134 41.4291C45.3134 41.7651 45.095 42.2574 44.6044 42.6942C44.1139 43.131 42.9362 43.593 42.5968 43.7643C42.2575 43.9357 41.7803 44.4246 41.4796 44.6631C40.9303 45.0949 40.4263 45.1587 40.1205 45.0747C40.0659 45.0541 40.0163 45.0222 39.975 44.9811C39.9336 44.94 39.9013 44.8906 39.8803 44.8362C39.7576 44.6043 39.7526 44.5472 39.7778 44.5354L45.132 41.1754Z" fill="#37474F"/>
<path d="M39.4811 43.8315C39.5741 44.1348 39.7111 44.4229 39.8877 44.6866C39.9729 44.7414 40.0688 44.7775 40.1689 44.7926C40.2691 44.8076 40.3714 44.8013 40.4689 44.774C40.9272 44.6628 41.3472 44.4307 41.6853 44.102C41.924 43.8745 42.1931 43.6811 42.4849 43.5274C42.8394 43.3594 43.6374 43.01 43.9835 42.8235C44.3084 42.649 44.5942 42.4101 44.8235 42.1212C44.9915 41.8894 45.2049 41.4644 45.183 41.246C45.0285 40.7924 44.847 40.574 44.5345 40.5639C44.2221 40.5538 43.8273 40.7319 43.3132 40.9654C43.1586 41.036 42.9671 41.1334 42.8831 41.167C42.5639 41.3014 42.2716 41.4358 42.0431 41.5484C41.8509 41.6574 41.6369 41.7223 41.4165 41.7382C41.3154 41.7462 41.2147 41.7196 41.1309 41.6626C41.025 41.5836 40.941 41.4291 40.8436 41.4711C40.8436 41.4711 39.3097 42.7042 39.1821 42.7949C39.0544 42.8856 39.2409 43.0704 39.4811 43.8315Z" fill="#455A64"/>
<path d="M42.9906 41.0834C43.0647 41.0943 43.1356 41.1206 43.1989 41.1607C43.2675 41.2046 43.3306 41.2565 43.3871 41.3152C43.4576 41.3891 43.3602 41.4647 43.2627 41.3891C43.1858 41.3232 43.1012 41.2668 43.0107 41.2211C42.9462 41.191 42.8735 41.1833 42.8041 41.1993L42.7134 41.2379C42.7016 41.1607 42.9015 41.0767 42.9906 41.0834Z" fill="#FAFAFA"/>
<path d="M42.1774 41.4193C42.2039 41.3999 42.2342 41.3863 42.2663 41.3793C42.2984 41.3724 42.3317 41.3723 42.3638 41.3789C42.4461 41.3957 42.5222 41.4346 42.5839 41.4915C42.6598 41.5584 42.73 41.6315 42.7939 41.7099C42.8309 41.762 42.6998 41.8325 42.6511 41.7788C42.589 41.7105 42.5234 41.6454 42.4546 41.5839C42.4176 41.5537 42.2698 41.4461 42.1706 41.4814L42.1286 41.5016C42.1169 41.4831 42.1286 41.4545 42.1522 41.4411C42.1598 41.4329 42.1682 41.4256 42.1774 41.4193Z" fill="#FAFAFA"/>
<path d="M41.7224 41.6647C41.7648 41.6495 41.8111 41.6495 41.8534 41.6647C41.9064 41.688 41.9552 41.7198 41.9979 41.7587C42.0738 41.8329 42.1384 41.9178 42.1894 42.0107C42.2314 42.0813 42.0903 42.1351 42.0601 42.0897C41.9942 41.9621 41.8957 41.8543 41.7745 41.7772C41.7196 41.7453 41.6581 41.7263 41.5947 41.7218C41.5947 41.7083 41.6098 41.6949 41.6233 41.6899C41.6367 41.6848 41.6989 41.6647 41.7224 41.6647Z" fill="#FAFAFA"/>
<path d="M38.1064 41.033C38.1064 41.033 38.9666 42.5568 39.2052 42.8962C39.2808 43.0054 39.5244 42.9298 39.6638 42.9163C39.8306 42.8881 40.001 42.8881 40.1678 42.9163C40.6113 43.0406 40.8616 42.9869 40.7575 42.3955C40.7356 42.2746 40.776 42.1939 40.9255 42.1452C41.038 42.1241 41.1456 42.0826 41.243 42.0226C41.2514 42.0041 41.2296 41.9856 41.2111 41.9772C41.1367 41.9474 41.0696 41.9019 41.0142 41.844C40.9589 41.786 40.9166 41.7169 40.8902 41.6412C40.5828 40.9776 40.3039 39.6084 40.3039 39.6084L38.1064 41.033Z" fill="#FFA8A7"/>
<path d="M31.585 44.4392C31.8487 44.0176 31.9915 43.2061 32.5711 41.5547L34.7232 43.1322L33.4901 45.5279C33.447 45.6366 33.4144 45.7491 33.3926 45.8639C33.1054 46.2856 31.585 44.4392 31.585 44.4392Z" fill="#FFA8A7"/>
<path d="M30.785 45.34C30.785 45.3148 30.7766 45.1165 30.785 45.093C30.8421 44.878 30.9748 44.8192 31.1445 44.6999C31.3161 44.585 31.4734 44.4503 31.6132 44.2984C31.6703 44.2194 31.6804 44.1791 31.7695 44.1438C31.8841 44.1077 32.0053 44.0969 32.1245 44.1123C32.2438 44.1276 32.3582 44.1688 32.4599 44.2329C32.9471 44.4899 33.0967 44.799 33.0681 45.1333C33.0479 45.3887 33.0261 45.7281 33.2512 45.8793C33.3453 45.9431 33.4931 45.5433 33.4931 45.5433C33.6309 45.7768 33.436 46.0977 33.3352 46.5697C33.2753 46.8296 33.2707 47.0992 33.3218 47.361C33.3705 47.7743 33.4276 47.7726 33.6477 47.8012C33.8359 47.8264 34.3735 47.7911 34.6994 48.0179C34.8247 48.0898 34.9244 48.1991 34.9846 48.3304C35.0449 48.4617 35.0626 48.6085 35.0354 48.7504C34.9766 48.91 34.4877 49.6811 32.7019 49.3921C32.1827 49.3098 31.0941 48.495 31.1109 48.4177C31.1201 48.3402 31.1201 48.2618 31.1109 48.1842C31.1109 48.0011 31.0975 47.8197 31.0891 47.6365C31.0959 47.4618 31.0858 47.2868 31.0588 47.1141C31.0262 46.9719 31.0038 46.8276 30.9916 46.6823C30.958 46.3161 30.9239 45.9493 30.8891 45.5819C30.8656 45.4677 30.7715 45.4441 30.785 45.34Z" fill="#455A64"/>
<path d="M30.5617 45.2681C30.3937 45.4361 30.4912 45.9401 30.7297 46.5265C30.8356 46.7902 31.0305 47.2438 30.9733 47.726C30.9162 48.2081 30.9045 48.4349 31.0288 48.6617C31.2237 49.0145 32.2619 49.4665 32.8768 49.6093C32.5075 49.0898 32.2926 48.4766 32.2569 47.8402C32.1964 46.7768 32.1141 46.0913 31.6285 45.6193C31.0069 45.0245 30.5617 45.2681 30.5617 45.2681Z" fill="#263238"/>
<path d="M35.0253 48.7422C35.0253 48.7422 34.6674 49.4142 33.2848 49.3924C32.7405 49.384 32.4448 49.1185 32.4347 48.2903C32.4196 47.2941 32.339 46.2877 32.0164 45.7921C31.6938 45.2965 31.1764 45.058 30.7816 45.0933C30.6895 45.1191 30.6107 45.1792 30.5615 45.2613C30.5615 45.2613 30.9597 45.1302 31.5796 45.6443C32.0382 46.024 32.1609 46.8203 32.1542 47.8048C32.1542 48.2281 32.1256 48.7103 32.2499 49.0312C32.3066 49.1731 32.3959 49.2997 32.5106 49.4007C32.6253 49.5017 32.7622 49.5742 32.9102 49.6125C33.6611 49.8241 34.691 49.4764 34.9497 49.1589C34.9918 49.099 35.0203 49.0308 35.0334 48.9589C35.0464 48.8869 35.0437 48.813 35.0253 48.7422Z" fill="#37474F"/>
<path d="M33.3636 47.6133C33.4204 47.6537 33.4604 47.7134 33.4762 47.7813C33.4829 47.8661 33.4668 47.9512 33.4296 48.0277C33.3924 48.1042 33.3354 48.1693 33.2645 48.2164C33.1822 48.2668 33.1099 48.25 33.241 48.0753C33.3248 47.936 33.3673 47.7758 33.3636 47.6133Z" fill="#FAFAFA"/>
<path d="M33.2904 47.0977C33.2904 47.0977 33.3341 47.1245 33.3459 47.2657C33.3241 47.4412 33.2349 47.6015 33.0972 47.7125C32.9511 47.7831 33.03 47.6151 33.0972 47.5328C33.1931 47.4039 33.2591 47.2552 33.2904 47.0977Z" fill="#FAFAFA"/>
<path d="M33.3386 46.5264C33.3386 46.5264 33.3856 46.5398 33.3386 46.7313C33.271 46.8506 33.165 46.9436 33.0379 46.9951C32.9438 47.0068 32.8984 46.9598 33.0144 46.8758C33.0967 46.8103 33.3218 46.6188 33.3386 46.5264Z" fill="#FAFAFA"/>
<path d="M36.8663 25.2204C36.8663 25.2204 37.7063 26.2284 38.2103 28.0966C38.6669 29.8391 39.0154 31.6081 39.2536 33.3936C39.3746 34.1916 39.4888 34.9611 39.7677 36.4966C40.0315 37.9548 40.6867 41.1082 40.6867 41.1082C40.6867 41.1082 40.5724 41.5903 39.9223 41.8743C39.4955 42.0423 39.0333 42.1001 38.5783 42.0423C38.5783 42.0423 38.1331 41.2812 37.2057 39.492C36.7808 38.7141 36.4922 37.8692 36.3523 36.9939C36.2411 36.3995 36.1771 35.7973 36.1607 35.1929L32.6714 29.2827C32.3695 28.9253 32.133 28.5175 31.9725 28.0781C31.4803 26.8433 32.1086 25.0625 32.1086 25.0625L36.8663 25.2204Z" fill="#37474F"/>
<path d="M36.8663 25.2204C36.8663 25.2204 37.7063 26.2284 38.2103 28.0966C38.6669 29.8391 39.0154 31.6081 39.2536 33.3936C39.3746 34.1916 39.4888 34.9611 39.7677 36.4966C40.0315 37.9548 40.6867 41.1082 40.6867 41.1082C40.6867 41.1082 40.5724 41.5903 39.9223 41.8743C39.4955 42.0423 39.0333 42.1001 38.5783 42.0423C38.5783 42.0423 38.1331 41.2812 37.2057 39.492C36.7808 38.7141 36.4922 37.8692 36.3523 36.9939C36.2411 36.3995 36.1771 35.7973 36.1607 35.1929L32.6714 29.2827C32.3695 28.9253 32.133 28.5175 31.9725 28.0781C31.4803 26.8433 32.1086 25.0625 32.1086 25.0625L36.8663 25.2204Z" fill="#37474F"/>
<path d="M39.1836 32.9388C38.9568 31.3067 38.6314 29.6898 38.2092 28.097C38.072 27.5873 37.8939 27.0896 37.6767 26.6085L33.265 26.5312C32.929 27.299 32.677 28.2583 33.396 29.4309L33.5842 30.8287L36.1563 35.1967C36.1726 35.8011 36.2367 36.4033 36.3478 36.9977C36.4877 37.8729 36.7764 38.7179 37.2012 39.4958L37.2819 39.6504C37.6123 39.1773 37.9072 38.6804 38.1639 38.1636C38.4159 37.5655 38.5906 36.4097 38.8544 34.9481C38.9501 34.4121 39.0761 33.6309 39.1836 32.9388Z" fill="#263238"/>
<path d="M33.9638 25.2204C33.4558 25.8175 33.1572 26.5645 33.1138 27.3473C33.0794 28.1062 33.3177 28.8523 33.7858 29.4507C33.9538 32.011 34.4662 36.9418 34.4662 36.9418C33.7942 37.639 33.6144 38.0875 33.223 39.3375C32.9861 40.0951 32.2922 42.3867 32.0234 43.2418C33.6648 43.3123 33.9739 44.7185 33.9739 44.7185C33.9739 44.7185 35.963 41.5114 36.9677 39.7003C37.7102 38.3563 37.8077 38.0422 38.0059 37.2442C38.2042 36.4462 38.2462 35.707 38.4898 34.0421C38.7334 32.3772 39.1618 30.0807 39.2861 28.441C39.4104 26.8013 39.4272 25.0625 39.4272 25.0625L33.9638 25.2204Z" fill="#37474F"/>
<path d="M31.793 27.2266C31.9889 27.1632 32.1607 27.0412 32.2852 26.8772C32.3439 26.7631 32.3868 26.6416 32.4129 26.516C32.4629 26.3046 32.532 26.0982 32.6195 25.8994L32.7455 25.9565C32.6629 26.149 32.596 26.3479 32.5456 26.5513C32.5175 26.6907 32.4694 26.8254 32.4028 26.9511C32.2548 27.1514 32.0444 27.2968 31.8047 27.3644C31.8014 27.319 31.7963 27.2737 31.793 27.2266Z" fill="#263238"/>
<path d="M35.0824 28.6927C35.0528 28.6958 35.023 28.6958 34.9934 28.6927C34.7918 28.649 34.6356 28.513 34.3214 28.1148C34.0845 27.8124 34.108 27.594 34.1534 27.2345C34.1685 27.1018 34.308 26.3945 34.3214 26.208L34.4541 26.2819C34.4541 26.4718 34.3113 27.1219 34.2962 27.2496C34.2576 27.6074 34.2391 27.7721 34.4407 28.0308C34.728 28.3987 34.8657 28.5214 35.0304 28.5566C35.391 28.5647 35.749 28.493 36.0787 28.3466C36.1862 28.2727 36.3676 27.3386 36.4735 26.5322L36.6112 26.5507C36.5575 26.9623 36.366 28.3164 36.1576 28.4609C35.9493 28.6054 35.3613 28.7011 35.0824 28.6927Z" fill="#263238"/>
<path d="M32.0735 16.3756C31.6048 17.2711 31.6619 18.0741 31.798 19.3324C31.9223 20.4933 32.0097 21.2107 32.1172 22.6454C32.1999 23.5373 32.1677 24.4362 32.0214 25.32C32.0214 25.32 32.0668 26.0138 34.1113 26.5346C37.7032 27.4502 39.4269 26.4069 39.4269 26.4069C39.4269 26.4069 39.5142 24.3909 39.3748 21.7382C39.2185 18.773 39.1665 18.3396 38.938 17.634C38.7564 17.2202 38.4294 16.8873 38.019 16.6982C37.6612 16.5302 36.8077 16.258 36.3004 16.0615C35.4833 15.7766 34.6238 15.6323 33.7585 15.6348C32.7354 15.5659 32.3171 15.9103 32.0735 16.3756Z" fill="#F5F5F5"/>
<path d="M33.5065 15.7927C33.5838 15.7927 33.6645 15.7927 33.7468 15.7927H33.8073C34.6356 15.7955 35.4578 15.9363 36.2399 16.2093C36.4465 16.2883 36.7103 16.3773 36.9657 16.4731C37.347 16.6075 37.7418 16.7469 37.9485 16.841C38.3214 17.0094 38.6201 17.3081 38.7885 17.681C39.0052 18.353 39.0556 18.7176 39.2152 21.7332C39.3345 24.018 39.2857 25.8576 39.2706 26.2893C39.0321 26.4052 38.2408 26.7295 36.8884 26.7295C35.9656 26.7262 35.0468 26.6076 34.1533 26.3767C32.4616 25.9466 32.2213 25.4107 32.1928 25.325C32.3344 24.4363 32.3654 23.5334 32.2852 22.637C32.1945 21.4224 32.1172 20.7201 32.0214 19.8314L31.9643 19.3173C31.8299 18.0624 31.7761 17.3114 32.223 16.4613C32.391 16.1354 32.6783 15.8028 33.5065 15.8028M33.5065 15.6348C32.6665 15.6348 32.2969 15.959 32.0735 16.384C31.6048 17.2795 31.6619 18.0825 31.798 19.3408C31.9223 20.5017 32.0097 21.2191 32.1172 22.6538C32.1999 23.5457 32.1677 24.4446 32.0214 25.3284C32.0214 25.3284 32.0668 26.0222 34.1113 26.543C35.015 26.7831 35.945 26.9095 36.88 26.9193C38.5953 26.9193 39.4269 26.4153 39.4269 26.4153C39.4269 26.4153 39.5142 24.3993 39.3748 21.7466C39.2185 18.7814 39.1665 18.348 38.938 17.6424C38.7564 17.2286 38.4294 16.8957 38.019 16.7066C37.6612 16.5386 36.8077 16.2664 36.3004 16.0699C35.499 15.7894 34.6563 15.6452 33.8073 15.6432H33.7585C33.6695 15.6432 33.5905 15.6432 33.5065 15.6432V15.6348Z" fill="#E0E0E0"/>
<path d="M36.3896 15.0466L36.2888 16.137C35.6907 16.2663 34.2409 16.1739 33.9688 15.801L34.0259 14.793L36.3896 15.0466Z" fill="#FFA8A7"/>
<path d="M37.9433 12.251C37.9433 12.251 38.2205 12.461 38.4305 13.1851L38.0206 13.4858C37.8862 12.9767 37.74 12.4593 37.9433 12.251Z" fill="#F28F8F"/>
<path d="M36.8847 10.2253C37.9045 10.2925 38.0741 10.8234 37.9229 12.5605C38.2808 14.2102 37.7869 14.8638 37.5735 15.0805C37.0947 15.3375 36.6058 15.3812 35.9422 15.2082C35.4382 15.0754 34.1564 14.6958 33.6205 13.9011C32.9888 12.967 32.8241 11.5491 33.4961 11.0166C34.4403 10.269 36.4798 10.1984 36.8847 10.2253Z" fill="#FFA8A7"/>
<path d="M37.5735 15.0788C37.4559 15.1981 36.7755 15.4148 36.3555 15.3678L36.3891 15.0469C36.7805 15.112 37.1791 15.1227 37.5735 15.0788Z" fill="#F28F8F"/>
<path d="M36.9921 11.4244C36.9707 11.4992 36.9384 11.5705 36.8964 11.636C36.7774 11.7985 36.6221 11.9308 36.4428 12.0224C36.5181 12.2347 36.5639 12.4563 36.5789 12.681C36.5848 12.7536 36.5683 12.8263 36.5318 12.8893C36.5202 12.9123 36.5024 12.9315 36.4804 12.945C36.4585 12.9585 36.4333 12.9656 36.4075 12.9656C36.3818 12.9656 36.3565 12.9585 36.3346 12.945C36.3126 12.9315 36.2948 12.9123 36.2832 12.8893C36.2288 12.7659 36.1594 12.6497 36.0765 12.5432C35.9699 12.4189 35.8208 12.3387 35.6582 12.3181C35.0433 12.2576 35.0417 13.2152 35.2869 13.5395C35.6901 14.0687 36.0228 13.7293 36.0228 13.7293C36.0228 13.7293 36.2294 14.5475 35.6364 14.9053C35.6364 14.9053 34.6821 15.1405 34.0303 14.8096C33.7329 14.1964 33.3297 13.8385 33.0105 13.185C32.4494 12.0409 32.7182 11.038 33.0996 10.833C32.9921 10.2988 33.318 9.77459 34.0085 9.44867C34.6989 9.12275 35.6297 9.29075 36.3605 9.40667C36.7919 9.47579 37.2333 9.45057 37.6541 9.33275C37.713 9.31428 37.7739 9.303 37.8355 9.29915C37.8673 9.29668 37.8991 9.30196 37.9284 9.31454C37.9577 9.32713 37.9835 9.34664 38.0035 9.37139C38.0237 9.40638 38.0343 9.44607 38.0343 9.48647C38.0343 9.52687 38.0237 9.56656 38.0035 9.60155C37.9609 9.66956 37.9227 9.74027 37.8893 9.81323C37.9657 9.80174 38.0438 9.81617 38.1111 9.85423C38.1784 9.89229 38.231 9.95179 38.2605 10.0232C38.3036 10.1231 38.3198 10.2325 38.3078 10.3406C38.2957 10.4487 38.2557 10.5518 38.1917 10.6398C38.0607 10.8143 37.8749 10.9397 37.6641 10.996C37.4544 11.0513 37.2375 11.0751 37.0207 11.0665C37.041 11.1863 37.0312 11.3093 36.9921 11.4244Z" fill="#263238"/>
<path d="M36.3337 15.6715C36.4899 15.6715 36.6596 15.9856 36.9637 16.3032C36.2987 16.629 35.5478 16.736 34.8183 16.6089C33.5331 16.4157 33.2861 15.6345 33.2861 15.6345C33.2861 15.6345 33.5801 15.4077 33.7347 15.2565C33.9229 15.0717 34.0153 15.0684 34.0153 15.0684L34.0001 15.3321C34.0001 15.3321 34.2471 15.5875 35.03 15.7454C35.4626 15.8464 35.9152 15.8207 36.3337 15.6715Z" fill="#E6E6E6"/>
<path d="M40.8813 23.2365C40.8813 23.2365 40.5134 21.3885 40.2463 20.1033C39.9792 18.8181 40.0783 17.3213 38.0488 16.8105C37.7128 17.3145 37.4944 18.1092 37.607 19.0886C37.7196 20.0681 38.1681 21.6086 38.279 22.1244C38.4807 22.9302 38.8109 23.6982 39.2568 24.3991C39.9002 25.3567 41.1048 26.9762 41.5886 27.5709C41.8137 27.8465 42.0086 28.1253 42.2169 28.4109C42.4504 28.7002 42.7036 28.973 42.9746 29.2274C43.1004 29.3532 43.2567 29.4441 43.4282 29.4912C43.5374 29.5214 43.6466 29.4794 43.7491 29.508C43.8516 29.5365 43.9171 29.6357 44.0481 29.639C44.1792 29.6424 44.3035 29.5466 44.4312 29.5584C44.5636 29.5861 44.6977 29.6052 44.8327 29.6155C44.9455 29.598 45.0608 29.6084 45.1687 29.6457C45.2661 29.6861 45.4039 29.8137 45.5164 29.7499C45.629 29.6861 45.6038 29.5382 45.5601 29.424C45.4563 29.2079 45.2854 29.0311 45.0729 28.92C44.8678 28.7879 44.6552 28.6679 44.4362 28.5605C44.2262 28.4598 44.0409 28.3141 43.8936 28.1337C43.7894 28.0161 43.7256 27.8364 43.9339 27.8347C44.1842 27.8347 44.4967 27.9271 44.7252 27.7675C44.8831 27.6583 44.8293 27.5189 44.6764 27.4517C44.4241 27.3425 44.1804 27.2144 43.9473 27.0686C43.7088 26.9208 43.4887 26.7494 43.2484 26.6083C43.1195 26.5363 42.9859 26.4729 42.8486 26.4185C42.4706 26.2605 42.306 25.8825 42.1144 25.5482C41.849 25.0879 41.1787 23.8565 40.8813 23.2365Z" fill="#FFA8A7"/>
<path d="M37.9515 21.2672C37.9515 21.2672 37.5953 19.8678 37.5029 19.2815C37.4105 18.6951 37.3601 17.1747 37.9666 16.6758C38.4034 16.7816 39.5744 16.9899 39.9121 18.092C40.2497 19.1941 40.7521 22.0921 40.7521 22.0921L42.2775 25.6923C42.2775 25.6923 42.2775 26.0283 41.6441 26.4601C41.0108 26.8919 40.6798 26.7457 40.6798 26.7457C40.6798 26.7457 39.4215 24.8406 38.8117 23.9015C38.4051 23.2715 38.3043 22.8481 37.9515 21.2672Z" fill="#E6E6E6"/>
<path d="M42.2013 72.2646C41.8431 71.7073 41.3488 71.2505 40.7649 70.9374C38.4129 69.5834 34.6128 69.5834 32.2658 70.9374C31.682 71.25 31.1881 71.7069 30.8311 72.2646H30.5068V73.4927C30.5505 74.3462 31.1352 75.1929 32.2624 75.8447C34.6144 77.1988 38.4146 77.1988 40.7616 75.8447C41.8905 75.1929 42.4785 74.3462 42.5222 73.4927V72.2646H42.2013Z" fill="#00AAD3"/>
<path opacity="0.25" d="M42.2013 72.2646C41.8431 71.7073 41.3488 71.2505 40.7649 70.9374C38.4129 69.5834 34.6128 69.5834 32.2658 70.9374C31.682 71.25 31.1881 71.7069 30.8311 72.2646H30.5068V73.4927C30.5505 74.3462 31.1352 75.1929 32.2624 75.8447C34.6144 77.1988 38.4146 77.1988 40.7616 75.8447C41.8905 75.1929 42.4785 74.3462 42.5222 73.4927V72.2646H42.2013Z" fill="black"/>
<path opacity="0.1" d="M36.5162 69.9209C34.9773 69.9209 33.4401 70.2569 32.2658 70.9373C31.682 71.2499 31.1881 71.7068 30.8311 72.2645H30.5068V73.4926C30.5505 74.346 31.1352 75.1927 32.2624 75.8446C33.4384 76.5166 34.974 76.861 36.5128 76.861L36.5162 69.9209Z" fill="black"/>
<path opacity="0.1" d="M33.2335 70.4854C32.899 70.6091 32.5753 70.7602 32.2658 70.9373C31.682 71.2498 31.1881 71.7068 30.8311 72.2645H30.5068V73.4926C30.5505 74.346 31.1352 75.1927 32.2624 75.8446C32.572 76.0216 32.8957 76.1728 33.2301 76.2965L33.2335 70.4854Z" fill="black"/>
<path opacity="0.5" d="M39.7979 70.4854C40.1323 70.6091 40.456 70.7602 40.7655 70.9373C41.3494 71.2503 41.8438 71.7071 42.2019 72.2645H42.5262V73.4926C42.4825 74.346 41.8945 75.1927 40.7655 75.8446C40.456 76.0216 40.1323 76.1728 39.7979 76.2965V70.4854Z" fill="#00AAD3"/>
<path d="M32.266 69.8115C29.914 71.1672 29.914 73.3647 32.266 74.7187C34.3206 75.9048 37.4891 76.0527 39.826 75.1639L39.9184 75.127C40.2111 75.0113 40.4951 74.8749 40.7684 74.7187C42.7256 73.5881 43.0516 71.8728 41.7428 70.549C41.4524 70.2607 41.1247 70.0127 40.7684 69.8115C38.4181 68.4574 34.6079 68.4574 32.266 69.8115Z" fill="#00AAD3"/>
<path opacity="0.2" d="M32.266 69.8115C29.914 71.1672 29.914 73.3647 32.266 74.7187C34.3206 75.9048 37.4891 76.0527 39.826 75.1639L39.9184 75.127C40.2111 75.0113 40.4951 74.8749 40.7684 74.7187C42.7256 73.5881 43.0516 71.8728 41.7428 70.549C41.4524 70.2607 41.1247 70.0127 40.7684 69.8115C38.4181 68.4574 34.6079 68.4574 32.266 69.8115Z" fill="black"/>
<path opacity="0.5" d="M41.7395 70.5488C41.9949 70.8376 42.1838 71.179 42.2926 71.5489C42.4015 71.9188 42.4278 72.308 42.3695 72.6891C42.1612 73.8819 40.4913 74.8866 39.915 75.1268C40.2077 75.0111 40.4918 74.8747 40.7651 74.7186C42.7223 73.5829 43.0482 71.8727 41.7395 70.5488Z" fill="#F5F5F5"/>
<path opacity="0.5" d="M31.2912 73.9813C31.0356 73.6927 30.8467 73.3512 30.7381 72.9813C30.6295 72.6114 30.6038 72.222 30.6629 71.841C30.8712 70.6482 32.5411 69.6452 33.1157 69.4033C32.8231 69.5193 32.539 69.6557 32.2656 69.8116C30.3084 70.9422 29.9841 72.6575 31.2912 73.9813Z" fill="#F5F5F5"/>
<path d="M40.4676 74.5407C42.6516 73.2824 42.6516 71.2395 40.4676 69.9795C38.2836 68.7195 34.7556 68.7212 32.5716 69.9795C30.3876 71.2378 30.3876 73.2824 32.5716 74.5407C34.7556 75.7991 38.287 75.8007 40.4676 74.5407Z" fill="#00AAD3"/>
<path opacity="0.4" d="M40.4676 74.5407C42.6516 73.2824 42.6516 71.2395 40.4676 69.9795C38.2836 68.7195 34.7556 68.7212 32.5716 69.9795C30.3876 71.2378 30.3876 73.2824 32.5716 74.5407C34.7556 75.7991 38.287 75.8007 40.4676 74.5407Z" fill="white"/>
<path opacity="0.2" d="M41.8502 73.2236C42.2987 72.3937 42.1526 71.4798 41.4117 70.7036C41.2657 70.5522 41.1072 70.4134 40.9379 70.2887C40.7935 70.1803 40.6426 70.081 40.486 69.9913C40.397 69.9376 40.3062 69.8888 40.2105 69.8418C40.444 70.2232 40.3583 70.6331 39.0429 70.7104C36.4674 70.8599 39.73 73.3211 39.73 73.3211C39.73 73.3211 41.3898 72.5197 41.8502 73.2236Z" fill="white"/>
<path opacity="0.5" d="M41.5853 72.5436C41.9717 72.4999 42.1632 72.1035 42.0137 71.6566C41.8642 71.2097 41.4274 70.8821 41.041 70.9258C40.6546 70.9695 40.463 71.3659 40.6142 71.8128C40.7654 72.2597 41.1989 72.5873 41.5853 72.5436Z" fill="white"/>
<path d="M37.5124 74.5911C37.3847 73.6352 33.2066 70.9875 33.2066 70.9875C33.2066 70.9875 32.2792 70.6163 32.5866 69.9678C32.4324 70.0557 32.2832 70.1522 32.1398 70.2567C32.0423 70.3256 31.9533 70.3979 31.8676 70.4718C30.6244 71.5487 30.6227 72.9649 31.8676 74.0435C31.9516 74.1157 32.0356 74.1879 32.1381 74.2585C32.2711 74.356 32.4097 74.4457 32.553 74.5273C32.6962 74.6122 32.8437 74.6896 32.9949 74.7591C33.1175 74.8179 33.2435 74.8717 33.3712 74.9271C33.4989 74.9826 33.6299 75.0246 33.7643 75.0683C34.1712 75.2012 34.588 75.3012 35.0109 75.3673L35.2914 75.4093C35.7048 75.4621 36.1212 75.4879 36.538 75.4866C37.049 75.4867 37.5592 75.4451 38.0634 75.3623C38.0634 75.3623 37.3931 75.2228 37.5124 74.5911Z" fill="#00AAD3"/>
<path opacity="0.3" d="M37.5124 74.5911C37.3847 73.6352 33.2066 70.9875 33.2066 70.9875C33.2066 70.9875 32.2792 70.6163 32.5866 69.9678C32.4324 70.0557 32.2832 70.1522 32.1398 70.2567C32.0423 70.3256 31.9533 70.3979 31.8676 70.4718C30.6244 71.5487 30.6227 72.9649 31.8676 74.0435C31.9516 74.1157 32.0356 74.1879 32.1381 74.2585C32.2711 74.356 32.4097 74.4457 32.553 74.5273C32.6962 74.6122 32.8437 74.6896 32.9949 74.7591C33.1175 74.8179 33.2435 74.8717 33.3712 74.9271C33.4989 74.9826 33.6299 75.0246 33.7643 75.0683C34.1712 75.2012 34.588 75.3012 35.0109 75.3673L35.2914 75.4093C35.7048 75.4621 36.1212 75.4879 36.538 75.4866C37.049 75.4867 37.5592 75.4451 38.0634 75.3623C38.0634 75.3623 37.3931 75.2228 37.5124 74.5911Z" fill="white"/>
<path d="M33.5735 70.5589C32.0144 71.4594 31.9506 72.8958 33.3836 73.84C33.4441 73.8803 33.5079 73.9189 33.5735 73.9576C35.1997 74.8967 37.8339 74.8967 39.4535 73.9576C41.073 73.0185 41.0797 71.4981 39.4535 70.5589L39.2485 70.4497C37.6206 69.6249 35.1325 69.6618 33.5735 70.5589Z" fill="#00AAD3"/>
<path opacity="0.2" d="M33.5735 70.5589C32.0144 71.4594 31.9506 72.8958 33.3836 73.84C33.4441 73.8803 33.5079 73.9189 33.5735 73.9576C35.1997 74.8967 37.8339 74.8967 39.4535 73.9576C41.073 73.0185 41.0797 71.4981 39.4535 70.5589L39.2485 70.4497C37.6206 69.6249 35.1325 69.6618 33.5735 70.5589Z" fill="black"/>
<path d="M36.5183 74.557C38.7154 74.557 40.4965 73.5288 40.4965 72.2604C40.4965 70.9921 38.7154 69.9639 36.5183 69.9639C34.3212 69.9639 32.54 70.9921 32.54 72.2604C32.54 73.5288 34.3212 74.557 36.5183 74.557Z" fill="#00AAD3"/>
<path opacity="0.5" d="M36.5183 74.557C38.7154 74.557 40.4965 73.5288 40.4965 72.2604C40.4965 70.9921 38.7154 69.9639 36.5183 69.9639C34.3212 69.9639 32.54 70.9921 32.54 72.2604C32.54 73.5288 34.3212 74.557 36.5183 74.557Z" fill="black"/>
<path d="M33.7054 71.2764C35.2577 70.3792 37.7777 70.3792 39.33 71.2764C39.9668 71.6443 40.338 72.1046 40.4573 72.58C40.3414 73.0572 39.9668 73.5175 39.33 73.8837C37.7777 74.7808 35.2577 74.7808 33.7054 73.8837C33.0704 73.5175 32.6974 73.0572 32.5781 72.58C32.694 72.1046 33.0704 71.6443 33.7054 71.2764Z" fill="#00AAD3"/>
<path opacity="0.35" d="M33.7054 71.2764C35.2577 70.3792 37.7777 70.3792 39.33 71.2764C39.9668 71.6443 40.338 72.1046 40.4573 72.58C40.3414 73.0572 39.9668 73.5175 39.33 73.8837C37.7777 74.7808 35.2577 74.7808 33.7054 73.8837C33.0704 73.5175 32.6974 73.0572 32.5781 72.58C32.694 72.1046 33.0704 71.6443 33.7054 71.2764Z" fill="black"/>
<path d="M39.0232 72.9529C39.0232 72.8739 39.0232 72.5581 39.0232 72.4775C39.0232 72.2826 38.8888 72.0944 38.5998 71.9247H38.5897C38.0555 71.6156 37.5028 71.6559 37.0105 71.7803C36.8022 71.834 36.6023 71.9012 36.4209 71.9634C36.2141 72.0407 36.0033 72.1063 35.7892 72.1599C35.6906 72.1827 35.5895 72.1923 35.4885 72.1885C35.402 72.1836 35.3174 72.1613 35.2398 72.123L35.26 72.1079L35.3221 72.0709C35.376 72.0388 35.4322 72.0108 35.4901 71.9869C35.6289 71.9256 35.7783 71.8923 35.93 71.8889C36.0816 71.8854 36.2324 71.9119 36.3738 71.9667L36.8778 71.4527V70.9806C36.4281 70.8271 35.9431 70.8096 35.4834 70.9302C35.3317 70.969 35.1834 71.0202 35.0399 71.0831L34.5359 70.7891L33.9277 71.1402V71.6123L34.1361 71.7332C34.0806 71.8146 34.0497 71.9103 34.047 72.0087V72.4791C34.047 72.674 34.1881 72.8622 34.4805 73.0319C34.7359 73.1814 35.0246 73.2645 35.3205 73.2738H35.4885C35.7967 73.2508 36.1004 73.1853 36.3906 73.0789L36.5586 73.0184L36.0445 73.5325V74.0046C36.3611 74.1243 36.6988 74.1785 37.037 74.1638C37.3752 74.149 37.7068 74.0657 38.0118 73.9189L38.5158 74.2095L39.124 73.8584V73.3863L38.9157 73.2654C38.9821 73.1744 39.0196 73.0655 39.0232 72.9529ZM37.7397 72.9109C37.6944 72.9378 37.6472 72.9613 37.5985 72.9815C37.2821 73.1181 36.9244 73.1236 36.604 72.9966C37.0794 72.8286 37.4776 72.6824 37.8169 72.8622C37.7923 72.8802 37.7665 72.8964 37.7397 72.9109Z" fill="#00AAD3"/>
<path d="M37.0105 71.7734C36.8022 71.8272 36.6023 71.8944 36.4209 71.9566C36.2141 72.0339 36.0033 72.0995 35.7892 72.1531C35.6906 72.1759 35.5895 72.1855 35.4885 72.1817C35.3865 72.1761 35.2874 72.1462 35.1995 72.0943C35.0029 71.9818 34.9744 71.8171 35.26 71.6289L35.3221 71.5903C35.3764 71.5595 35.4325 71.532 35.4901 71.508C35.6289 71.4467 35.7783 71.4134 35.93 71.41C36.0816 71.4065 36.2324 71.433 36.3738 71.4878L36.8778 70.9737C36.4281 70.8203 35.9431 70.8027 35.4834 70.9234C35.3317 70.9622 35.1834 71.0133 35.0399 71.0762L34.5359 70.7822L33.9277 71.1334L34.4317 71.424C33.9277 71.8121 33.9109 72.2153 34.4855 72.5479C34.7409 72.6974 35.0297 72.7806 35.3255 72.7898H35.4935C35.802 72.7672 36.1057 72.701 36.3957 72.5933C36.9803 72.3984 37.4541 72.1682 37.8472 72.395C38.1109 72.5479 38.037 72.7394 37.7481 72.899C37.7028 72.9259 37.6556 72.9495 37.6069 72.9696C37.4479 73.0378 37.2768 73.0737 37.1038 73.0752C36.9307 73.0766 36.7591 73.0436 36.5989 72.978L36.063 73.5139C36.3796 73.6337 36.7173 73.6878 37.0555 73.6731C37.3936 73.6584 37.7253 73.575 38.0303 73.4282L38.5343 73.7189L39.1425 73.3677L38.6385 73.0771C39.1425 72.6857 39.2046 72.2589 38.6133 71.9129H38.6032C38.0555 71.6088 37.5028 71.6491 37.0105 71.7734Z" fill="#00AAD3"/>
<g opacity="0.3">
<path d="M37.0105 71.7734C36.8022 71.8272 36.6023 71.8944 36.4209 71.9566C36.2141 72.0339 36.0033 72.0995 35.7892 72.1531C35.6906 72.1759 35.5895 72.1855 35.4885 72.1817C35.3865 72.1761 35.2874 72.1462 35.1995 72.0943C35.0029 71.9818 34.9744 71.8171 35.26 71.6289L35.3221 71.5903C35.3764 71.5595 35.4325 71.532 35.4901 71.508C35.6289 71.4467 35.7783 71.4134 35.93 71.41C36.0816 71.4065 36.2324 71.433 36.3738 71.4878L36.8778 70.9737C36.4281 70.8203 35.9431 70.8027 35.4834 70.9234C35.3317 70.9622 35.1834 71.0133 35.0399 71.0762L34.5359 70.7822L33.9277 71.1334L34.4317 71.424C33.9277 71.8121 33.9109 72.2153 34.4855 72.5479C34.7409 72.6974 35.0297 72.7806 35.3255 72.7898H35.4935C35.802 72.7672 36.1057 72.701 36.3957 72.5933C36.9803 72.3984 37.4541 72.1682 37.8472 72.395C38.1109 72.5479 38.037 72.7394 37.7481 72.899C37.7028 72.9259 37.6556 72.9495 37.6069 72.9696C37.4479 73.0378 37.2768 73.0737 37.1038 73.0752C36.9307 73.0766 36.7591 73.0436 36.5989 72.978L36.063 73.5139C36.3796 73.6337 36.7173 73.6878 37.0555 73.6731C37.3936 73.6584 37.7253 73.575 38.0303 73.4282L38.5343 73.7189L39.1425 73.3677L38.6385 73.0771C39.1425 72.6857 39.2046 72.2589 38.6133 71.9129H38.6032C38.0555 71.6088 37.5028 71.6491 37.0105 71.7734Z" fill="white"/>
</g>
<path opacity="0.45" d="M33.9229 71.1334L34.5377 70.8545L35.0417 71.0762L34.531 70.7822L33.9229 71.1334Z" fill="#F5F5F5"/>
<path opacity="0.45" d="M35.4141 70.9425C35.8479 70.8561 36.2959 70.8716 36.7228 70.9879L36.3683 71.4919L36.8723 70.9778C36.4013 70.8173 35.8923 70.8049 35.4141 70.9425Z" fill="#F5F5F5"/>
<path opacity="0.45" d="M38.5899 71.9181H38.6C39.1914 72.2642 39.1326 72.6909 38.6252 73.0823C39.0755 72.5934 38.9931 72.2524 38.5059 71.9718C38.045 71.7365 37.518 71.6643 37.0107 71.7669C37.503 71.6493 38.0557 71.609 38.5899 71.9181Z" fill="#F5F5F5"/>
<path opacity="0.45" d="M38.6247 73.0889L39.0111 73.3862L38.5205 73.7306L39.1287 73.3795L38.6247 73.0889Z" fill="#F5F5F5"/>
<path opacity="0.45" d="M37.5978 72.9814C37.2976 73.1334 36.9506 73.164 36.6284 73.0671L36.0488 73.5258L36.5847 72.9898C36.7456 73.0561 36.9181 73.0895 37.0921 73.0881C37.2661 73.0866 37.438 73.0504 37.5978 72.9814Z" fill="#F5F5F5"/>
<path opacity="0.45" d="M35.7842 72.1531C35.6661 72.2013 35.5382 72.2203 35.4112 72.2083C35.2842 72.1963 35.162 72.1537 35.0551 72.0842C34.8871 71.933 34.9912 71.77 35.255 71.6289C34.9694 71.8171 34.998 71.9817 35.1945 72.0943C35.2824 72.1461 35.3816 72.1761 35.4835 72.1816C35.5845 72.1855 35.6857 72.1759 35.7842 72.1531Z" fill="#F5F5F5"/>
<path opacity="0.45" d="M34.4211 71.4297C34.3791 71.4666 34.0128 71.8094 34.1741 72.1504C34.3354 72.4914 34.8831 72.7485 35.3165 72.7955C35.0207 72.7863 34.7319 72.7031 34.4765 72.5536C33.9003 72.221 33.9104 71.8178 34.4211 71.4297Z" fill="#F5F5F5"/>
<path d="M43.3439 70.5354C42.9873 69.9774 42.4932 69.5204 41.9092 69.2082C39.5572 67.8525 35.757 67.8525 33.4101 69.2082C32.826 69.5204 32.3319 69.9774 31.9753 70.5354H31.6494V71.7635C31.6931 72.617 32.2761 73.4637 33.405 74.1155C35.757 75.4713 39.5572 75.4713 41.9041 74.1155C43.0331 73.4653 43.6211 72.6186 43.6631 71.7635V70.5354H43.3439Z" fill="#00AAD3"/>
<path opacity="0.25" d="M43.3439 70.5354C42.9873 69.9774 42.4932 69.5204 41.9092 69.2082C39.5572 67.8525 35.757 67.8525 33.4101 69.2082C32.826 69.5204 32.3319 69.9774 31.9753 70.5354H31.6494V71.7635C31.6931 72.617 32.2761 73.4637 33.405 74.1155C35.757 75.4713 39.5572 75.4713 41.9041 74.1155C43.0331 73.4653 43.6211 72.6186 43.6631 71.7635V70.5354H43.3439Z" fill="black"/>
<path opacity="0.1" d="M37.6536 68.1924C36.1147 68.1924 34.5775 68.5284 33.4032 69.2004C32.8191 69.5125 32.3251 69.9695 31.9685 70.5276H31.6426V71.7557C31.6863 72.6091 32.2692 73.4558 33.3982 74.1077C34.5742 74.7797 36.1097 75.1157 37.6486 75.1157L37.6536 68.1924Z" fill="black"/>
<path opacity="0.1" d="M34.3709 68.7549C34.0367 68.8799 33.7131 69.0315 33.4032 69.2085C32.8191 69.5206 32.3251 69.9776 31.9685 70.5357H31.6426V71.7638C31.6863 72.6172 32.2692 73.4639 33.3982 74.1158C33.7077 74.2934 34.0313 74.4451 34.3659 74.5694L34.3709 68.7549Z" fill="black"/>
<path opacity="0.5" d="M40.9355 68.7549C41.2698 68.8799 41.5934 69.0315 41.9032 69.2085C42.4873 69.5206 42.9813 69.9776 43.3379 70.5357H43.6622V71.7638C43.6202 72.6172 43.0305 73.4639 41.9032 74.1158C41.5937 74.2934 41.2701 74.4451 40.9355 74.5694V68.7549Z" fill="#00AAD3"/>
<path d="M33.4036 68.083C31.0516 69.4371 31.0516 71.6345 33.4036 72.9903C35.4566 74.1663 38.6268 74.3242 40.9636 73.4338L41.056 73.3985C41.3486 73.2825 41.6327 73.1461 41.9061 72.9903C43.8633 71.8597 44.1876 70.1444 42.8805 68.8205C42.59 68.5328 42.2623 68.2854 41.9061 68.0847C39.5558 66.7273 35.7506 66.7273 33.4036 68.083Z" fill="#00AAD3"/>
<path opacity="0.2" d="M33.4036 68.083C31.0516 69.4371 31.0516 71.6345 33.4036 72.9903C35.4566 74.1663 38.6268 74.3242 40.9636 73.4338L41.056 73.3985C41.3486 73.2825 41.6327 73.1461 41.9061 72.9903C43.8633 71.8597 44.1876 70.1444 42.8805 68.8205C42.59 68.5328 42.2623 68.2854 41.9061 68.0847C39.5558 66.7273 35.7506 66.7273 33.4036 68.083Z" fill="black"/>
<path opacity="0.5" d="M42.8773 68.8203C43.1341 69.1084 43.3242 69.4496 43.434 69.8195C43.5438 70.1895 43.5705 70.5791 43.5124 70.9606C43.3041 72.1534 41.6358 73.1564 41.0596 73.3983C41.3521 73.2823 41.6362 73.1459 41.9097 72.9901C43.8601 71.8594 44.1844 70.1442 42.8773 68.8203Z" fill="#F5F5F5"/>
<path opacity="0.5" d="M32.4243 72.2528C32.1688 71.964 31.9801 71.6226 31.8715 71.2527C31.763 70.8828 31.7371 70.4935 31.796 70.1125C32.0026 68.9197 33.6725 67.915 34.2488 67.6748C33.9561 67.7905 33.672 67.9269 33.3987 68.083C31.4465 69.2154 31.1223 70.929 32.4243 72.2528Z" fill="#F5F5F5"/>
<path d="M41.6053 72.8119C43.7893 71.5519 43.7893 69.5107 41.6053 68.2507C39.4213 66.9907 35.8933 66.9907 33.7093 68.2507C31.5253 69.5107 31.5253 71.5519 33.7093 72.8119C35.8933 74.0719 39.423 74.0719 41.6053 72.8119Z" fill="#00AAD3"/>
<path opacity="0.4" d="M41.6053 72.8119C43.7893 71.5519 43.7893 69.5107 41.6053 68.2507C39.4213 66.9907 35.8933 66.9907 33.7093 68.2507C31.5253 69.5107 31.5253 71.5519 33.7093 72.8119C35.8933 74.0719 39.423 74.0719 41.6053 72.8119Z" fill="white"/>
<path opacity="0.2" d="M42.9884 71.4951C43.4369 70.6652 43.2908 69.7496 42.5499 68.9751C42.4039 68.8243 42.2454 68.686 42.0761 68.5618C41.9314 68.4535 41.7805 68.3537 41.6242 68.2628C41.5351 68.2107 41.4427 68.1603 41.3487 68.1133C41.5805 68.4963 41.4965 68.9046 40.1727 68.9818C37.5989 69.133 40.8615 71.5926 40.8615 71.5926C40.8615 71.5926 42.528 70.7895 42.9884 71.4951Z" fill="white"/>
<path opacity="0.5" d="M42.7228 70.8146C43.1092 70.7709 43.3007 70.3727 43.1495 69.9259C42.9983 69.479 42.5648 69.153 42.1784 69.195C41.792 69.237 41.6005 69.6369 41.75 70.0838C41.8996 70.5307 42.3364 70.8566 42.7228 70.8146Z" fill="white"/>
<path d="M38.6504 72.8639C38.5227 71.9079 34.3429 69.2619 34.3429 69.2619C34.3429 69.2619 33.4172 68.889 33.7246 68.2422C33.5698 68.3291 33.4205 68.4256 33.2777 68.5311C33.1833 68.598 33.0924 68.6697 33.0056 68.7462C31.7607 69.8231 31.759 71.2376 33.0056 72.3162C33.0896 72.3901 33.1803 72.4623 33.2777 72.5329C33.4109 72.6294 33.5488 72.7191 33.691 72.8017C33.8344 72.8835 33.9822 72.9608 34.1345 73.0336C34.2555 73.0907 34.3832 73.1461 34.5109 73.2016C34.6385 73.257 34.7696 73.299 34.9023 73.3427C35.31 73.4746 35.7273 73.5746 36.1505 73.6417C36.2429 73.6568 36.337 73.6703 36.4294 73.682C37.3513 73.8013 38.2857 73.7854 39.2031 73.635C39.2031 73.635 38.5294 73.4939 38.6504 72.8639Z" fill="#00AAD3"/>
<path opacity="0.3" d="M38.6504 72.8639C38.5227 71.9079 34.3429 69.2619 34.3429 69.2619C34.3429 69.2619 33.4172 68.889 33.7246 68.2422C33.5698 68.3291 33.4205 68.4256 33.2777 68.5311C33.1833 68.598 33.0924 68.6697 33.0056 68.7462C31.7607 69.8231 31.759 71.2376 33.0056 72.3162C33.0896 72.3901 33.1803 72.4623 33.2777 72.5329C33.4109 72.6294 33.5488 72.7191 33.691 72.8017C33.8344 72.8835 33.9822 72.9608 34.1345 73.0336C34.2555 73.0907 34.3832 73.1461 34.5109 73.2016C34.6385 73.257 34.7696 73.299 34.9023 73.3427C35.31 73.4746 35.7273 73.5746 36.1505 73.6417C36.2429 73.6568 36.337 73.6703 36.4294 73.682C37.3513 73.8013 38.2857 73.7854 39.2031 73.635C39.2031 73.635 38.5294 73.4939 38.6504 72.8639Z" fill="white"/>
<path d="M34.7112 68.8322C33.1521 69.7327 33.0883 71.1691 34.5213 72.1132C34.5818 72.1519 34.6456 72.1922 34.7112 72.2308C36.3374 73.1683 38.9716 73.1683 40.5912 72.2308C42.2107 71.2934 42.2174 69.7713 40.5912 68.8322C40.5256 68.7936 40.4568 68.7566 40.3879 68.7213C38.7583 67.8948 36.2702 67.9317 34.7112 68.8322Z" fill="#00AAD3"/>
<path opacity="0.2" d="M34.7112 68.8322C33.1521 69.7327 33.0883 71.1691 34.5213 72.1132C34.5818 72.1519 34.6456 72.1922 34.7112 72.2308C36.3374 73.1683 38.9716 73.1683 40.5912 72.2308C42.2107 71.2934 42.2174 69.7713 40.5912 68.8322C40.5256 68.7936 40.4568 68.7566 40.3879 68.7213C38.7583 67.8948 36.2702 67.9317 34.7112 68.8322Z" fill="black"/>
<path d="M37.656 72.8275C39.8531 72.8275 41.6342 71.7993 41.6342 70.5309C41.6342 69.2626 39.8531 68.2344 37.656 68.2344C35.4589 68.2344 33.6777 69.2626 33.6777 70.5309C33.6777 71.7993 35.4589 72.8275 37.656 72.8275Z" fill="#00AAD3"/>
<path opacity="0.5" d="M37.656 72.8275C39.8531 72.8275 41.6342 71.7993 41.6342 70.5309C41.6342 69.2626 39.8531 68.2344 37.656 68.2344C35.4589 68.2344 33.6777 69.2626 33.6777 70.5309C33.6777 71.7993 35.4589 72.8275 37.656 72.8275Z" fill="black"/>
<path d="M34.8414 69.5517C36.3954 68.6546 38.9137 68.6546 40.4677 69.5517C41.1028 69.918 41.4757 70.3783 41.595 70.8554C41.4791 71.3325 41.1028 71.7929 40.4677 72.1591C38.9137 73.0562 36.3954 73.0562 34.8414 72.1591C34.2064 71.7929 33.8334 71.3325 33.7158 70.8554C33.8317 70.3749 34.2064 69.9146 34.8414 69.5517Z" fill="#00AAD3"/>
<path opacity="0.35" d="M34.8414 69.5517C36.3954 68.6546 38.9137 68.6546 40.4677 69.5517C41.1028 69.918 41.4757 70.3783 41.595 70.8554C41.4791 71.3325 41.1028 71.7929 40.4677 72.1591C38.9137 73.0562 36.3954 73.0562 34.8414 72.1591C34.2064 71.7929 33.8334 71.3325 33.7158 70.8554C33.8317 70.3749 34.2064 69.9146 34.8414 69.5517Z" fill="black"/>
<path d="M40.1609 71.231V70.7572C40.1609 70.5623 40.0265 70.3725 39.7358 70.2028H39.7258C39.1915 69.8954 38.6405 69.9357 38.1482 70.06C37.9382 70.1121 37.74 70.181 37.5585 70.2431C37.3521 70.3207 37.1412 70.3858 36.9269 70.438C36.8288 70.46 36.7283 70.4695 36.6278 70.4666C36.5409 70.4603 36.4559 70.4375 36.3775 70.3994L36.3977 70.3859L36.4598 70.3473C36.5141 70.3165 36.5702 70.289 36.6278 70.265C36.7665 70.2032 36.9159 70.1697 37.0676 70.1662C37.2193 70.1628 37.3702 70.1895 37.5115 70.2448L38.0155 69.7307V69.2586C37.5659 69.1046 37.0809 69.0865 36.6211 69.2066C36.4692 69.2455 36.3208 69.2972 36.1776 69.3611L35.6736 69.0654L35.0654 69.4182V69.8903L35.2738 70.0096C35.2167 70.0902 35.1857 70.1864 35.1847 70.2851V70.7572C35.1847 70.9521 35.3241 71.1402 35.6181 71.3099C35.8739 71.4587 36.1625 71.5418 36.4581 71.5518C36.5136 71.5518 36.569 71.5518 36.6261 71.5518C36.9344 71.5289 37.238 71.4633 37.5283 71.357L37.6963 71.2965L37.1822 71.8106V72.2843C37.4991 72.4028 37.8366 72.4563 38.1746 72.4416C38.5126 72.4269 38.8441 72.3442 39.1495 72.1986L39.6535 72.4893L40.2617 72.1382V71.651L40.0533 71.53C40.1173 71.4428 40.1547 71.3389 40.1609 71.231ZM38.8774 71.1906C38.8317 71.2168 38.7846 71.2404 38.7362 71.2612C38.4191 71.397 38.0611 71.4025 37.74 71.2763C38.2171 71.1083 38.6153 70.9605 38.9546 71.1419C38.9311 71.1503 38.9042 71.1654 38.8774 71.1822V71.1906Z" fill="#00AAD3"/>
<path d="M38.1482 70.0453C37.9382 70.0974 37.74 70.1663 37.5585 70.2285C37.3521 70.3061 37.1412 70.3712 36.9269 70.4233C36.8288 70.4453 36.7283 70.4549 36.6278 70.4519C36.5254 70.4464 36.4257 70.4164 36.3372 70.3645C36.1423 70.252 36.1137 70.0857 36.3977 69.8992L36.4598 69.8605C36.5141 69.8297 36.5702 69.8023 36.6278 69.7782C36.7665 69.7165 36.9159 69.683 37.0676 69.6795C37.2193 69.676 37.3702 69.7027 37.5115 69.7581L38.0155 69.244C37.5659 69.0899 37.0809 69.0718 36.6211 69.1919C36.4692 69.2308 36.3208 69.2825 36.1776 69.3465L35.6736 69.0508L35.0654 69.4036L35.5694 69.6942C35.0654 70.084 35.0469 70.4872 35.6232 70.8198C35.8789 70.9686 36.1675 71.0517 36.4632 71.0617C36.5191 71.0651 36.5752 71.0651 36.6312 71.0617C36.9395 71.0388 37.2431 70.9732 37.5333 70.8669C38.118 70.672 38.5901 70.4418 38.9849 70.6686C39.247 70.8215 39.1747 71.013 38.8858 71.1726C38.8401 71.1988 38.793 71.2224 38.7446 71.2432C38.585 71.3099 38.4137 71.3443 38.2406 71.3443C38.0676 71.3443 37.8963 71.3099 37.7366 71.2432L37.2024 71.7791C37.519 71.8986 37.8565 71.9528 38.1946 71.9384C38.5327 71.9239 38.8644 71.8412 39.1697 71.6951L39.6737 71.9857L40.2818 71.6346L39.7778 71.344C40.2818 70.9509 40.3423 70.5241 39.7509 70.1781H39.7409C39.1915 69.8874 38.6405 69.921 38.1482 70.0453Z" fill="#00AAD3"/>
<g opacity="0.3">
<path d="M38.1482 70.0453C37.9382 70.0974 37.74 70.1663 37.5585 70.2285C37.3521 70.3061 37.1412 70.3712 36.9269 70.4233C36.8288 70.4453 36.7283 70.4549 36.6278 70.4519C36.5254 70.4464 36.4257 70.4164 36.3372 70.3645C36.1423 70.252 36.1137 70.0857 36.3977 69.8992L36.4598 69.8605C36.5141 69.8297 36.5702 69.8023 36.6278 69.7782C36.7665 69.7165 36.9159 69.683 37.0676 69.6795C37.2193 69.676 37.3702 69.7027 37.5115 69.7581L38.0155 69.244C37.5659 69.0899 37.0809 69.0718 36.6211 69.1919C36.4692 69.2308 36.3208 69.2825 36.1776 69.3465L35.6736 69.0508L35.0654 69.4036L35.5694 69.6942C35.0654 70.084 35.0469 70.4872 35.6232 70.8198C35.8789 70.9686 36.1675 71.0517 36.4632 71.0617C36.5191 71.0651 36.5752 71.0651 36.6312 71.0617C36.9395 71.0388 37.2431 70.9732 37.5333 70.8669C38.118 70.672 38.5901 70.4418 38.9849 70.6686C39.247 70.8215 39.1747 71.013 38.8858 71.1726C38.8401 71.1988 38.793 71.2224 38.7446 71.2432C38.585 71.3099 38.4137 71.3443 38.2406 71.3443C38.0676 71.3443 37.8963 71.3099 37.7366 71.2432L37.2024 71.7791C37.519 71.8986 37.8565 71.9528 38.1946 71.9384C38.5327 71.9239 38.8644 71.8412 39.1697 71.6951L39.6737 71.9857L40.2818 71.6346L39.7778 71.344C40.2818 70.9509 40.3423 70.5241 39.7509 70.1781H39.7409C39.1915 69.8874 38.6405 69.921 38.1482 70.0453Z" fill="white"/>
</g>
<path opacity="0.45" d="M35.0605 69.4048L35.6754 69.1259L36.1794 69.3477L35.6687 69.0537L35.0605 69.4048Z" fill="#F5F5F5"/>
<path opacity="0.45" d="M36.5518 69.2158C36.985 69.129 37.4324 69.144 37.8588 69.2594L37.506 69.7634L38.01 69.2494C37.5388 69.0894 37.0298 69.0776 36.5518 69.2158Z" fill="#F5F5F5"/>
<path opacity="0.45" d="M39.726 70.1879H39.736C40.3274 70.5339 40.2703 70.9607 39.7629 71.3538C40.2115 70.8649 40.1308 70.5239 39.6436 70.2416C39.1823 70.0076 38.6555 69.936 38.1484 70.0383C38.6407 69.9207 39.1917 69.8871 39.726 70.1879Z" fill="#F5F5F5"/>
<path opacity="0.45" d="M39.7624 71.3604L40.1488 71.656L39.6582 72.0021L40.2664 71.651L39.7624 71.3604Z" fill="#F5F5F5"/>
<path opacity="0.45" d="M38.7355 71.2529C38.4347 71.4049 38.0869 71.435 37.7644 71.3369L37.1865 71.7956L37.7208 71.2597C37.8818 71.3262 38.0545 71.3599 38.2288 71.3588C38.4031 71.3576 38.5753 71.3216 38.7355 71.2529Z" fill="#F5F5F5"/>
<path opacity="0.45" d="M36.9215 70.4246C36.8033 70.4721 36.6753 70.4906 36.5484 70.4783C36.4215 70.466 36.2994 70.4234 36.1924 70.354C36.0244 70.2028 36.1303 70.0415 36.3923 69.9004C36.1084 70.0869 36.137 70.2532 36.3319 70.3658C36.4204 70.4176 36.52 70.4476 36.6225 70.4531C36.723 70.4561 36.8234 70.4465 36.9215 70.4246Z" fill="#F5F5F5"/>
<path opacity="0.45" d="M35.5594 69.6992C35.5157 69.7379 35.1495 70.0789 35.3124 70.4216C35.4754 70.7643 36.0214 71.0197 36.4548 71.0651C36.1592 71.055 35.8706 70.9719 35.6148 70.8231C35.0369 70.4922 35.0487 70.089 35.5594 69.6992Z" fill="#F5F5F5"/>
<path d="M41.9728 68.5137C41.6151 67.9559 41.1206 67.499 40.5364 67.1865C38.1844 65.8324 34.3859 65.8324 32.039 67.1865C31.4548 67.499 30.9603 67.9559 30.6026 68.5137H30.2783V69.7417C30.322 70.5952 30.9066 71.4419 32.0356 72.0937C34.3876 73.4478 38.1861 73.4478 40.533 72.0937C41.662 71.4419 42.25 70.5952 42.2937 69.7417V68.5137H41.9728Z" fill="#00AAD3"/>
<path opacity="0.25" d="M41.9728 68.5137C41.6151 67.9559 41.1206 67.499 40.5364 67.1865C38.1844 65.8324 34.3859 65.8324 32.039 67.1865C31.4548 67.499 30.9603 67.9559 30.6026 68.5137H30.2783V69.7417C30.322 70.5952 30.9066 71.4419 32.0356 72.0937C34.3876 73.4478 38.1861 73.4478 40.533 72.0937C41.662 71.4419 42.25 70.5952 42.2937 69.7417V68.5137H41.9728Z" fill="black"/>
<path opacity="0.1" d="M36.2877 66.1699C34.7505 66.1699 33.2116 66.5059 32.039 67.1863C31.4548 67.4989 30.9603 67.9558 30.6026 68.5135H30.2783V69.7416C30.322 70.595 30.9066 71.4418 32.0356 72.0936C33.2116 72.7656 34.7471 73.11 36.2843 73.11L36.2877 66.1699Z" fill="black"/>
<path opacity="0.1" d="M33.005 66.7324C32.6713 66.8574 32.3482 67.0091 32.039 67.186C31.4548 67.4986 30.9603 67.9555 30.6026 68.5132H30.2783V69.7413C30.322 70.5947 30.9066 71.4415 32.0356 72.0933C32.3446 72.2704 32.6677 72.4215 33.0016 72.5452L33.005 66.7324Z" fill="black"/>
<path opacity="0.5" d="M39.5703 66.7324C39.904 66.8574 40.227 67.0091 40.5363 67.186C41.1205 67.4986 41.615 67.9555 41.9727 68.5132H42.297V69.7413C42.2533 70.5947 41.6653 71.4415 40.5363 72.0933C40.2273 72.2704 39.9042 72.4215 39.5703 72.5452V66.7324Z" fill="#00AAD3"/>
<path d="M32.0394 66.0605C29.6874 67.4162 29.6874 69.612 32.0394 70.9678C34.0924 72.1538 37.2625 72.3017 39.5994 71.413L39.6935 71.376C39.9828 71.2599 40.2635 71.1235 40.5335 70.9678C42.4907 69.8371 42.8166 68.1218 41.5096 66.798C41.2195 66.5093 40.8917 66.2612 40.5351 66.0605C38.1915 64.7064 34.3864 64.7064 32.0394 66.0605Z" fill="#00AAD3"/>
<path opacity="0.2" d="M32.0394 66.0605C29.6874 67.4162 29.6874 69.612 32.0394 70.9678C34.0924 72.1538 37.2625 72.3017 39.5994 71.413L39.6935 71.376C39.9828 71.2599 40.2635 71.1235 40.5335 70.9678C42.4907 69.8371 42.8166 68.1218 41.5096 66.798C41.2195 66.5093 40.8917 66.2612 40.5351 66.0605C38.1915 64.7064 34.3864 64.7064 32.0394 66.0605Z" fill="black"/>
<path opacity="0.5" d="M41.513 66.7979C41.7682 67.0867 41.9568 67.4282 42.0653 67.7981C42.1739 68.1679 42.1998 68.5572 42.1413 68.9382C41.933 70.131 40.263 71.1339 39.6885 71.3759C39.9778 71.2598 40.2585 71.1234 40.5285 70.9676C42.4941 69.837 42.82 68.1217 41.513 66.7979Z" fill="#F5F5F5"/>
<path opacity="0.5" d="M31.0635 70.2235C30.8083 69.9346 30.6197 69.5932 30.5111 69.2233C30.4025 68.8534 30.3766 68.4642 30.4352 68.0832C30.6435 66.8904 32.3134 65.8874 32.888 65.6455C32.5988 65.7619 32.3181 65.8983 32.048 66.0537C30.0824 67.1995 29.7565 68.9064 31.0635 70.2235Z" fill="#F5F5F5"/>
<path d="M36.2891 71.7354C39.3742 71.7354 41.8751 70.2912 41.8751 68.5098C41.8751 66.7283 39.3742 65.2842 36.2891 65.2842C33.2041 65.2842 30.7031 66.7283 30.7031 68.5098C30.7031 70.2912 33.2041 71.7354 36.2891 71.7354Z" fill="#00AAD3"/>
<path opacity="0.4" d="M36.2891 71.7354C39.3742 71.7354 41.8751 70.2912 41.8751 68.5098C41.8751 66.7283 39.3742 65.2842 36.2891 65.2842C33.2041 65.2842 30.7031 66.7283 30.7031 68.5098C30.7031 70.2912 33.2041 71.7354 36.2891 71.7354Z" fill="white"/>
<path opacity="0.2" d="M30.9569 69.4727C30.5083 68.6427 30.6545 67.7271 31.3953 66.9527C31.5413 66.8013 31.6998 66.6624 31.8691 66.5377C32.0138 66.4294 32.1647 66.3295 32.321 66.2387C32.4101 66.1866 32.5025 66.1379 32.5965 66.0908C32.3647 66.4722 32.4487 66.8821 33.7725 66.9577C36.3463 67.1089 33.0837 69.5701 33.0837 69.5701C33.0837 69.5701 31.4155 68.7687 30.9569 69.4727Z" fill="white"/>
<path opacity="0.5" d="M31.2226 68.7926C30.8362 68.749 30.6447 68.3525 30.7959 67.9056C30.9471 67.4587 31.3805 67.1311 31.7669 67.1748C32.1533 67.2185 32.3448 67.615 32.1953 68.0618C32.0458 68.5087 31.609 68.8363 31.2226 68.7926Z" fill="white"/>
<path d="M35.2949 70.8431C35.4226 69.8855 39.6024 67.2395 39.6024 67.2395C39.6024 67.2395 40.5281 66.8665 40.2207 66.2197C40.3751 66.3073 40.5243 66.4037 40.6675 66.5087C40.762 66.5755 40.8529 66.6473 40.9397 66.7237C42.1846 67.8006 42.1863 69.2168 40.9397 70.2954C40.8557 70.3676 40.7717 70.4399 40.6675 70.5104C40.5344 70.607 40.3965 70.6967 40.2543 70.7792C40.1109 70.8632 39.9631 70.9405 39.8107 71.0111C39.6898 71.0699 39.5621 71.1236 39.4344 71.1791C39.3067 71.2345 39.1757 71.2765 39.043 71.3202C38.6355 71.4529 38.2181 71.5529 37.7947 71.6192L37.5159 71.6612C37.1019 71.714 36.6849 71.7398 36.2676 71.7385C35.7566 71.7387 35.2464 71.6971 34.7422 71.6142C34.7422 71.6142 35.4159 71.4714 35.2949 70.8431Z" fill="#00AAD3"/>
<path opacity="0.3" d="M35.2949 70.8431C35.4226 69.8855 39.6024 67.2395 39.6024 67.2395C39.6024 67.2395 40.5281 66.8665 40.2207 66.2197C40.3751 66.3073 40.5243 66.4037 40.6675 66.5087C40.762 66.5755 40.8529 66.6473 40.9397 66.7237C42.1846 67.8006 42.1863 69.2168 40.9397 70.2954C40.8557 70.3676 40.7717 70.4399 40.6675 70.5104C40.5344 70.607 40.3965 70.6967 40.2543 70.7792C40.1109 70.8632 39.9631 70.9405 39.8107 71.0111C39.6898 71.0699 39.5621 71.1236 39.4344 71.1791C39.3067 71.2345 39.1757 71.2765 39.043 71.3202C38.6355 71.4529 38.2181 71.5529 37.7947 71.6192L37.5159 71.6612C37.1019 71.714 36.6849 71.7398 36.2676 71.7385C35.7566 71.7387 35.2464 71.6971 34.7422 71.6142C34.7422 71.6142 35.4159 71.4714 35.2949 70.8431Z" fill="white"/>
<path d="M39.2349 66.8102C40.7939 67.7107 40.8577 69.1471 39.4247 70.0912C39.3642 70.1316 39.3004 70.1702 39.2349 70.2088C37.6086 71.148 34.9744 71.148 33.3549 70.2088C31.7353 69.2697 31.7286 67.7493 33.3549 66.8102C33.4204 66.7732 33.4893 66.7363 33.5581 66.701C35.1877 65.8744 37.6758 65.9114 39.2349 66.8102Z" fill="#00AAD3"/>
<path opacity="0.2" d="M39.2349 66.8102C40.7939 67.7107 40.8577 69.1471 39.4247 70.0912C39.3642 70.1316 39.3004 70.1702 39.2349 70.2088C37.6086 71.148 34.9744 71.148 33.3549 70.2088C31.7353 69.2697 31.7286 67.7493 33.3549 66.8102C33.4204 66.7732 33.4893 66.7363 33.5581 66.701C35.1877 65.8744 37.6758 65.9114 39.2349 66.8102Z" fill="black"/>
<path d="M39.1033 66.8851C40.6557 67.7822 40.6557 69.2371 39.1033 70.1325C37.551 71.028 35.031 71.0297 33.477 70.1325C31.923 69.2354 31.923 67.7805 33.477 66.8851C35.031 65.9897 37.5493 65.988 39.1033 66.8851Z" fill="#00AAD3"/>
<path opacity="0.5" d="M39.1033 66.8851C40.6557 67.7822 40.6557 69.2371 39.1033 70.1325C37.551 71.028 35.031 71.0297 33.477 70.1325C31.923 69.2354 31.923 67.7805 33.477 66.8851C35.031 65.9897 37.5493 65.988 39.1033 66.8851Z" fill="black"/>
<path d="M39.1035 67.5254C37.5495 66.6283 35.0312 66.6283 33.4772 67.5254C32.8421 67.8933 32.4692 68.3519 32.3516 68.8291C32.4658 69.3062 32.8421 69.7665 33.4772 70.1327C35.0312 71.0299 37.5495 71.0299 39.1035 70.1327C39.7385 69.7665 40.1115 69.3062 40.2291 68.8291C40.1132 68.3519 39.7385 67.8933 39.1035 67.5254Z" fill="#00AAD3"/>
<path opacity="0.35" d="M39.1035 67.5254C37.5495 66.6283 35.0312 66.6283 33.4772 67.5254C32.8421 67.8933 32.4692 68.3519 32.3516 68.8291C32.4658 69.3062 32.8421 69.7665 33.4772 70.1327C35.0312 71.0299 37.5495 71.0299 39.1035 70.1327C39.7385 69.7665 40.1115 69.3062 40.2291 68.8291C40.1132 68.3519 39.7385 67.8933 39.1035 67.5254Z" fill="black"/>
<path d="M38.794 69.2C38.794 69.1227 38.794 68.8069 38.794 68.7262C38.794 68.5313 38.6579 68.3432 38.3689 68.1735H38.3588C37.8246 67.8644 37.2719 67.9047 36.7813 68.029C36.573 68.0828 36.3748 68.15 36.1933 68.2121C35.9868 68.2895 35.7759 68.3546 35.5616 68.407C35.4631 68.4299 35.362 68.4395 35.2609 68.4356C35.1745 68.4307 35.0899 68.4084 35.0123 68.3701L35.0324 68.3549L35.0946 68.3163C35.1489 68.2854 35.205 68.258 35.2626 68.234C35.5434 68.1102 35.8618 68.1029 36.148 68.2138L36.652 67.6997V67.2277C36.2022 67.0742 35.7172 67.0566 35.2576 67.1773C35.1058 67.2161 34.9575 67.2672 34.814 67.3301L34.31 67.0361L33.7002 67.3873V67.8593L33.9102 67.9803C33.8536 68.0613 33.8221 68.1571 33.8195 68.2558C33.8195 68.3331 33.8195 68.6473 33.8195 68.7262C33.8195 68.9211 33.9589 69.1093 34.2529 69.2789C34.5085 69.4281 34.7972 69.5113 35.0929 69.5209C35.1484 69.5209 35.2055 69.5209 35.2609 69.5209C35.5699 69.4987 35.8741 69.4331 36.1648 69.326L36.3328 69.2655L35.8204 69.7813V70.2533C36.1367 70.373 36.4741 70.4272 36.812 70.4124C37.1499 70.3977 37.4812 70.3144 37.786 70.1677L38.29 70.4583L38.8998 70.1072V69.6351L38.6898 69.5141C38.7569 69.4231 38.7934 69.3131 38.794 69.2ZM37.5104 69.1597C37.465 69.1862 37.4178 69.2097 37.3693 69.2302C37.0529 69.3669 36.6952 69.3723 36.3748 69.2453C36.8519 69.0773 37.2484 68.9295 37.5877 69.1109C37.5631 69.1289 37.5373 69.1452 37.5104 69.1597Z" fill="#00AAD3"/>
<path d="M36.7921 68.0232C36.5837 68.0769 36.3855 68.1441 36.2041 68.2063C35.9975 68.2837 35.7866 68.3487 35.5724 68.4012C35.4739 68.424 35.3727 68.4336 35.2717 68.4297C35.1698 68.424 35.0707 68.394 34.9827 68.3424C34.7861 68.2298 34.7576 68.0635 35.0432 67.877L35.1053 67.8384C35.1596 67.8075 35.2157 67.78 35.2733 67.756C35.5541 67.6322 35.8726 67.625 36.1587 67.7359L36.6627 67.2218C36.213 67.0683 35.7279 67.0508 35.2683 67.1714C35.1166 67.2103 34.9682 67.2614 34.8248 67.3243L34.3208 67.0303L33.7109 67.3814L34.2149 67.672C33.7109 68.0601 33.6925 68.4633 34.2687 68.796C34.5242 68.9451 34.8129 69.0283 35.1087 69.0379C35.1641 69.0379 35.2213 69.0379 35.2767 69.0379C35.5856 69.0158 35.8899 68.9502 36.1805 68.843C36.7635 68.6481 37.2373 68.418 37.6304 68.6448C37.8941 68.7976 37.8219 68.9892 37.5313 69.1488C37.4858 69.1753 37.4386 69.1988 37.3901 69.2193C37.2311 69.2876 37.06 69.3234 36.887 69.3249C36.7139 69.3263 36.5423 69.2933 36.3821 69.2277L35.8479 69.7636C36.1642 69.8833 36.5016 69.9375 36.8395 69.9227C37.1774 69.908 37.5088 69.8247 37.8135 69.678L38.3175 69.9686L38.9273 69.6175L38.4233 69.3268C38.9273 68.9354 38.9878 68.5087 38.3965 68.1626H38.3864C37.8269 67.8585 37.2742 67.8988 36.7921 68.0232Z" fill="#00AAD3"/>
<g opacity="0.3">
<path d="M36.7921 68.0232C36.5837 68.0769 36.3855 68.1441 36.2041 68.2063C35.9975 68.2837 35.7866 68.3487 35.5724 68.4012C35.4739 68.424 35.3727 68.4336 35.2717 68.4297C35.1698 68.424 35.0707 68.394 34.9827 68.3424C34.7861 68.2298 34.7576 68.0635 35.0432 67.877L35.1053 67.8384C35.1596 67.8075 35.2157 67.78 35.2733 67.756C35.5541 67.6322 35.8726 67.625 36.1587 67.7359L36.6627 67.2218C36.213 67.0683 35.7279 67.0508 35.2683 67.1714C35.1166 67.2103 34.9682 67.2614 34.8248 67.3243L34.3208 67.0303L33.7109 67.3814L34.2149 67.672C33.7109 68.0601 33.6925 68.4633 34.2687 68.796C34.5242 68.9451 34.8129 69.0283 35.1087 69.0379C35.1641 69.0379 35.2213 69.0379 35.2767 69.0379C35.5856 69.0158 35.8899 68.9502 36.1805 68.843C36.7635 68.6481 37.2373 68.418 37.6304 68.6448C37.8941 68.7976 37.8219 68.9892 37.5313 69.1488C37.4858 69.1753 37.4386 69.1988 37.3901 69.2193C37.2311 69.2876 37.06 69.3234 36.887 69.3249C36.7139 69.3263 36.5423 69.2933 36.3821 69.2277L35.8479 69.7636C36.1642 69.8833 36.5016 69.9375 36.8395 69.9227C37.1774 69.908 37.5088 69.8247 37.8135 69.678L38.3175 69.9686L38.9273 69.6175L38.4233 69.3268C38.9273 68.9354 38.9878 68.5087 38.3965 68.1626H38.3864C37.8269 67.8585 37.2742 67.8988 36.7921 68.0232Z" fill="white"/>
</g>
<path opacity="0.45" d="M33.6953 67.3824L34.3085 67.1035L34.8125 67.3252L34.3035 67.0312L33.6953 67.3824Z" fill="#F5F5F5"/>
<path opacity="0.45" d="M35.1855 67.1996C35.6194 67.1132 36.0674 67.1287 36.4943 67.245L36.1415 67.749L36.6455 67.2349C36.1739 67.074 35.6643 67.0617 35.1855 67.1996Z" fill="#F5F5F5"/>
<path opacity="0.45" d="M38.3607 68.1671H38.3708C38.9622 68.5132 38.9034 68.9399 38.3977 69.3314C38.8462 68.8425 38.7656 68.5014 38.2784 68.2192C37.817 67.9853 37.2903 67.9137 36.7832 68.0159C37.2738 67.8983 37.8265 67.858 38.3607 68.1671Z" fill="#F5F5F5"/>
<path opacity="0.45" d="M38.3978 69.3379L38.7842 69.6352L38.292 69.9796L38.9018 69.6285L38.3978 69.3379Z" fill="#F5F5F5"/>
<path opacity="0.45" d="M37.3695 69.2305C37.0694 69.3824 36.7223 69.4131 36.4002 69.3162L35.8223 69.7748L36.3565 69.2389C36.5174 69.3051 36.6899 69.3385 36.8639 69.3371C37.0379 69.3357 37.2098 69.2994 37.3695 69.2305Z" fill="#F5F5F5"/>
<path opacity="0.45" d="M35.5571 68.4021C35.439 68.4501 35.311 68.4689 35.1841 68.4569C35.0572 68.4449 34.935 68.4025 34.828 68.3332C34.6516 68.182 34.7658 68.019 35.0279 67.8779C34.7423 68.0644 34.7709 68.2307 34.9674 68.3433C35.0554 68.395 35.1545 68.4249 35.2564 68.4306C35.3574 68.4346 35.4586 68.425 35.5571 68.4021Z" fill="#F5F5F5"/>
<path opacity="0.45" d="M34.195 67.6787C34.1513 67.7157 33.7851 68.0584 33.9464 68.3994C34.1076 68.7405 34.6553 68.9975 35.0888 69.0446C34.793 69.035 34.5043 68.9518 34.2488 68.8026C33.6725 68.47 33.6826 68.0668 34.195 67.6787Z" fill="#F5F5F5"/>
<path d="M30.9808 67.9037L31.132 66.7529L31.2832 67.9037L33.274 67.9911L31.2832 68.0785L31.132 69.2276L30.9808 68.0785L28.9883 67.9911L30.9808 67.9037Z" fill="white"/>
<g opacity="0.3">
<path d="M66.9933 70.2372C66.9851 70.2395 66.9764 70.2395 66.9681 70.2372L63.7156 68.359C63.708 68.3546 63.7016 68.3482 63.6972 68.3405C63.6928 68.3329 63.6904 68.3242 63.6904 68.3153C63.6905 68.3067 63.6929 68.2983 63.6974 68.2909C63.7018 68.2835 63.7081 68.2775 63.7156 68.2733L67.7829 65.9213C67.7904 65.9172 67.7988 65.915 67.8073 65.915C67.8158 65.915 67.8242 65.9172 67.8316 65.9213L71.0858 67.7996C71.0935 67.804 71.0998 67.8104 71.1043 67.818C71.1087 67.8257 71.111 67.8344 71.111 67.8432C71.1108 67.8521 71.1084 67.8607 71.104 67.8683C71.0996 67.876 71.0933 67.8824 71.0858 67.8869L67.0185 70.2389C67.0101 70.2409 67.0014 70.2403 66.9933 70.2372ZM63.84 68.3086L66.9916 70.1297L70.9581 67.8399L67.8064 66.0238L63.84 68.3086Z" fill="#00AAD3"/>
</g>
<path d="M66.994 69.7182V52.8795L64.5547 51.4717V68.3103L66.994 69.7182Z" fill="#00AAD3"/>
<path opacity="0.2" d="M66.994 69.7182V52.8795L64.5547 51.4717V68.3103L66.994 69.7182Z" fill="black"/>
<path d="M66.9932 69.7181L70.2473 67.8399V51.0029L66.9932 52.8795V69.7181Z" fill="#00AAD3"/>
<path d="M70.2482 51.0023L67.8088 49.5928L64.5547 51.471L66.994 52.8789L70.2482 51.0023Z" fill="#00AAD3"/>
<path opacity="0.25" d="M70.2482 51.0023L67.8088 49.5928L64.5547 51.471L66.994 52.8789L70.2482 51.0023Z" fill="white"/>
<path opacity="0.3" d="M70.2477 51.0029L66.9616 52.814L65.8948 52.2176L64.5508 51.4717L65.8679 52.2596L66.9465 52.903C66.9213 53.2692 66.9145 68.2297 66.9196 68.5959C66.9213 68.971 66.9449 69.3457 66.9901 69.7181C67.036 69.3458 67.0601 68.9711 67.0624 68.5959C67.0624 68.2414 67.0624 53.2928 67.0355 52.9383L70.2477 51.0029Z" fill="white"/>
<g opacity="0.3">
<path d="M60.8948 73.7603C60.8865 73.7622 60.8779 73.7622 60.8696 73.7603L57.6238 71.8736C57.6163 71.8695 57.61 71.8634 57.6056 71.856C57.6011 71.8487 57.5988 71.8402 57.5986 71.8316C57.5986 71.8228 57.601 71.8141 57.6054 71.8064C57.6098 71.7988 57.6162 71.7924 57.6238 71.788L61.6911 69.436C61.6989 69.4318 61.7075 69.4297 61.7163 69.4297C61.7251 69.4297 61.7338 69.4318 61.7415 69.436L64.994 71.3142C65.0014 71.3189 65.0076 71.3253 65.012 71.3329C65.0164 71.3405 65.0189 71.3491 65.0192 71.3579C65.0192 71.3667 65.0169 71.3754 65.0124 71.3831C65.008 71.3908 65.0017 71.3971 64.994 71.4016L60.9267 73.7536C60.917 73.759 60.9059 73.7613 60.8948 73.7603ZM57.7414 71.8316L60.8948 73.6511L64.8596 71.3612L61.7079 69.5418L57.7414 71.8316Z" fill="#00AAD3"/>
</g>
<path d="M60.8951 73.2389L60.8935 63.1371L58.4541 61.7275V71.8311L60.8951 73.2389Z" fill="#00AAD3"/>
<path opacity="0.1" d="M60.8951 73.2389L60.8935 63.1371L58.4541 61.7275V71.8311L60.8951 73.2389Z" fill="white"/>
<path d="M60.8952 73.2389L64.1477 71.3606V61.2588L60.8936 63.137L60.8952 73.2389Z" fill="#00AAD3"/>
<path opacity="0.3" d="M60.8952 73.2389L64.1477 71.3606V61.2588L60.8936 63.137L60.8952 73.2389Z" fill="white"/>
<path d="M64.1476 61.2591L61.7083 59.8496L58.4541 61.7278L60.8935 63.1374L64.1476 61.2591Z" fill="#00AAD3"/>
<path opacity="0.55" d="M64.1476 61.2591L61.7083 59.8496L58.4541 61.7278L60.8935 63.1374L64.1476 61.2591Z" fill="white"/>
<path opacity="0.3" d="M60.9376 63.1975L64.148 61.2588L60.862 63.0715C60.5075 62.8699 60.1513 62.6733 59.7952 62.4751L58.4512 61.7275L59.7683 62.5154C60.1278 62.7327 60.4879 62.9477 60.8485 63.1605C60.8368 63.5402 60.825 65.3731 60.8216 65.7528C60.8183 66.1325 60.8216 70.5257 60.8216 70.9137C60.8216 71.3018 60.8217 71.6882 60.8435 72.0763C60.8653 72.4644 60.8687 72.8525 60.8939 73.2389C60.9174 72.8525 60.9336 72.4649 60.9426 72.0763C60.956 71.6882 60.9628 71.3018 60.9645 70.9137C60.9661 70.5257 60.9645 66.1392 60.9645 65.7528C60.9645 65.3664 60.9493 63.5637 60.9376 63.1975Z" fill="white"/>
<g opacity="0.3">
<path d="M54.7951 77.2793C54.7868 77.2809 54.7782 77.2809 54.7699 77.2793L51.5157 75.4011C51.5084 75.3965 51.5024 75.39 51.4982 75.3824C51.4941 75.3747 51.492 75.3661 51.4922 75.3574C51.4919 75.3487 51.4939 75.3401 51.498 75.3324C51.5021 75.3247 51.5083 75.3183 51.5157 75.3137L55.583 72.9617C55.5905 72.9568 55.5993 72.9541 55.6082 72.9541C55.6172 72.9541 55.626 72.9568 55.6334 72.9617L58.8859 74.84C58.8934 74.8441 58.8997 74.8502 58.9042 74.8576C58.9086 74.865 58.911 74.8734 58.9111 74.882C58.9111 74.8908 58.9088 74.8995 58.9044 74.9072C58.8999 74.9149 58.8936 74.9212 58.8859 74.9257L54.8203 77.2777C54.8121 77.2797 54.8035 77.2803 54.7951 77.2793ZM51.6417 75.3507L54.7951 77.1718L58.7616 74.8803L55.6082 73.0625L51.6417 75.3507Z" fill="#00AAD3"/>
</g>
<path d="M54.7955 76.7604L54.7939 73.2106L52.3545 71.8027V75.3526L54.7955 76.7604Z" fill="#00AAD3"/>
<path opacity="0.45" d="M54.7955 76.7604L54.7939 73.2106L52.3545 71.8027V75.3526L54.7955 76.7604Z" fill="black"/>
<path d="M54.7947 76.7601L58.0471 74.8835V71.332L54.793 73.2103L54.7947 76.7601Z" fill="#00AAD3"/>
<path opacity="0.3" d="M54.7947 76.7601L58.0471 74.8835V71.332L54.793 73.2103L54.7947 76.7601Z" fill="black"/>
<path d="M58.048 71.3326L55.6087 69.9248L52.3545 71.803L54.7939 73.2109L58.048 71.3326Z" fill="#00AAD3"/>
<path opacity="0.15" d="M58.048 71.3326L55.6087 69.9248L52.3545 71.803L54.7939 73.2109L58.048 71.3326Z" fill="black"/>
<path opacity="0.3" d="M58.0476 71.332L54.7682 73.1448L53.7014 72.5483L52.3574 71.8024L53.6745 72.5903L54.7531 73.2338C54.7279 73.4556 54.7212 75.8462 54.7262 76.0696C54.7286 76.3015 54.7528 76.5327 54.7985 76.7601C54.8436 76.5327 54.8672 76.3015 54.869 76.0696C54.869 75.8579 54.869 73.4791 54.8455 73.2674L58.0476 71.332Z" fill="white"/>
<g opacity="0.3">
<path d="M73.0939 66.7154C73.0856 66.7177 73.0769 66.7177 73.0687 66.7154L69.8162 64.8304C69.8085 64.826 69.8022 64.8196 69.7978 64.8119C69.7933 64.8043 69.791 64.7956 69.791 64.7867C69.7913 64.7779 69.7938 64.7694 69.7982 64.7617C69.8026 64.7541 69.8088 64.7477 69.8162 64.743L73.8818 62.391C73.8896 62.3869 73.8982 62.3848 73.907 62.3848C73.9158 62.3848 73.9245 62.3869 73.9322 62.391L77.1864 64.2693C77.1938 64.2738 77.2 64.2802 77.2041 64.2879C77.2082 64.2956 77.2102 64.3042 77.2099 64.313C77.2099 64.3216 77.2078 64.3302 77.2037 64.3378C77.1996 64.3454 77.1936 64.3519 77.1864 64.3566L73.1191 66.7086C73.1115 66.7132 73.1028 66.7155 73.0939 66.7154ZM69.9405 64.7867L73.0939 66.6078L77.0604 64.318L73.907 62.4952L69.9405 64.7867Z" fill="#00AAD3"/>
</g>
<path d="M73.0937 66.1964V42.888L70.6543 41.4785V64.7868L73.0937 66.1964Z" fill="#00AAD3"/>
<path opacity="0.3" d="M73.0937 66.1964V42.888L70.6543 41.4785V64.7868L73.0937 66.1964Z" fill="white"/>
<path d="M73.0938 66.1963L76.3462 64.3181L76.3479 41.0098L73.0938 42.888V66.1963Z" fill="#00AAD3"/>
<path opacity="0.55" d="M73.0938 66.1963L76.3462 64.3181L76.3479 41.0098L73.0938 42.888V66.1963Z" fill="white"/>
<path d="M76.3478 41.0101L73.9068 39.6006L70.6543 41.4788L73.0937 42.8883L76.3478 41.0101Z" fill="#00AAD3"/>
<path opacity="0.75" d="M76.3478 41.0101L73.9068 39.6006L70.6543 41.4788L73.0937 42.8883L76.3478 41.0101Z" fill="white"/>
<path opacity="0.3" d="M73.1375 42.9485L76.348 41.0098L73.0602 42.8208C72.7052 42.6214 72.3496 42.4232 71.9934 42.2261L70.6494 41.4785L71.9649 42.2664C72.3244 42.4831 72.6839 42.6982 73.0468 42.9115C73.035 43.3416 73.0233 48.7394 73.0199 49.1712C73.0165 49.603 73.0199 63.1286 73.0199 63.5671C73.0199 64.0056 73.0283 64.4424 73.0417 64.8809C73.0552 65.3194 73.0669 65.7578 73.0921 66.1963C73.1173 65.7578 73.1325 65.3194 73.1425 64.8809C73.1526 64.4424 73.161 64.0056 73.1644 63.5671C73.1677 63.1286 73.1644 49.608 73.1644 49.1712C73.1644 48.7344 73.1476 43.3668 73.1375 42.9485Z" fill="white"/>
<path opacity="0.5" d="M16.459 28.5329L7.03418 33.9744L11.7466 25.3174L16.459 28.5329Z" fill="#00AAD3"/>
<path opacity="0.3" d="M16.459 32.4909L7.03418 37.9324L11.7466 29.2754L16.459 32.4909Z" fill="#00AAD3"/>
<path opacity="0.15" d="M16.459 36.447L7.03418 41.8885L11.7466 33.2314L16.459 36.447Z" fill="#00AAD3"/>
<path d="M26.4346 15.2501V13.0846L28.2557 12.8931C28.2919 12.8881 28.3287 12.8958 28.3598 12.9149L29.3141 13.4676C29.3372 13.4801 29.357 13.4978 29.3721 13.5193C29.3871 13.5408 29.3969 13.5655 29.4006 13.5915C29.4044 13.6174 29.402 13.6439 29.3937 13.6688C29.3854 13.6937 29.3714 13.7163 29.3527 13.7348L27.3838 15.8045L26.4346 15.2501Z" fill="#00AAD3"/>
<path d="M20.7227 20.1352V13.4404C20.7253 13.3872 20.7405 13.3354 20.7671 13.2892C20.7937 13.2431 20.8308 13.2039 20.8755 13.1749L26.3389 10.0266C26.386 10.0027 26.4381 9.99023 26.4909 9.99023C26.5438 9.99023 26.5959 10.0027 26.643 10.0266L27.4931 10.5306C27.5374 10.5598 27.5743 10.599 27.6006 10.6451C27.6268 10.6913 27.6418 10.743 27.6443 10.796V17.4959C27.6416 17.5491 27.6264 17.6009 27.5998 17.647C27.5732 17.6932 27.5361 17.7324 27.4914 17.7613L22.028 20.908C21.9809 20.9319 21.9288 20.9443 21.876 20.9443C21.8231 20.9443 21.7711 20.9319 21.7239 20.908L20.8739 20.404C20.829 20.3745 20.7919 20.3347 20.7656 20.2879C20.7393 20.2412 20.7246 20.1888 20.7227 20.1352Z" fill="#00AAD3"/>
<path opacity="0.15" d="M22.0077 20.9146C21.9355 20.9431 21.88 20.9028 21.88 20.8155V14.1123C21.8818 14.0588 21.8974 14.0067 21.9254 13.9611L20.7695 13.2891C20.7433 13.3334 20.7289 13.3837 20.7275 13.4352V20.1351C20.73 20.1881 20.7449 20.2398 20.7712 20.286C20.7975 20.3321 20.8344 20.3714 20.8787 20.4005L21.7288 20.9045C21.7719 20.9261 21.819 20.9381 21.8672 20.9399C21.9153 20.9416 21.9632 20.933 22.0077 20.9146Z" fill="black"/>
<path d="M29.2149 13.4404L27.6441 13.6084V10.791C27.6441 10.6936 27.5752 10.6549 27.4912 10.7037L22.0279 13.852C21.9834 13.8808 21.9464 13.9197 21.9198 13.9655C21.8932 14.0114 21.8779 14.0628 21.875 14.1157V20.8156C21.875 20.913 21.9439 20.9517 22.0279 20.9029L27.4912 17.7563C27.5359 17.7273 27.5731 17.6882 27.5997 17.642C27.6263 17.5959 27.6415 17.5441 27.6441 17.4909V15.537L29.356 13.7344C29.385 13.7105 29.405 13.6776 29.4131 13.6409C29.4211 13.6043 29.4167 13.566 29.4005 13.5322C29.3842 13.4984 29.3571 13.4709 29.3235 13.4543C29.2899 13.4377 29.2517 13.4328 29.2149 13.4404Z" fill="#00AAD3"/>
<path opacity="0.35" d="M29.2149 13.4404L27.6441 13.6084V10.791C27.6441 10.6936 27.5752 10.6549 27.4912 10.7037L22.0279 13.852C21.9834 13.8808 21.9464 13.9197 21.9198 13.9655C21.8932 14.0114 21.8779 14.0628 21.875 14.1157V20.8156C21.875 20.913 21.9439 20.9517 22.0279 20.9029L27.4912 17.7563C27.5359 17.7273 27.5731 17.6882 27.5997 17.642C27.6263 17.5959 27.6415 17.5441 27.6441 17.4909V15.537L29.356 13.7344C29.385 13.7105 29.405 13.6776 29.4131 13.6409C29.4211 13.6043 29.4167 13.566 29.4005 13.5322C29.3842 13.4984 29.3571 13.4709 29.3235 13.4543C29.2899 13.4377 29.2517 13.4328 29.2149 13.4404Z" fill="white"/>
<path d="M26.3505 16.4742C26.357 16.4624 26.3604 16.4491 26.3604 16.4356C26.3604 16.4221 26.357 16.4088 26.3505 16.397L26.117 16.1366C26.0888 16.0919 26.0716 16.0413 26.0666 15.9888C26.0616 15.9362 26.0691 15.8833 26.0884 15.8342C26.1167 15.7143 26.1833 15.6069 26.2783 15.5284L26.6529 15.2562C26.6766 15.2361 26.6921 15.208 26.6966 15.1773C26.7168 15.0179 26.7269 14.8574 26.7269 14.6968C26.7269 14.5463 26.7173 14.3959 26.6983 14.2466C26.6983 14.2214 26.6765 14.2096 26.6546 14.218L26.2817 14.3759C26.2638 14.3848 26.2442 14.3896 26.2243 14.39C26.2043 14.3904 26.1846 14.3864 26.1664 14.3782C26.1482 14.3699 26.1321 14.3578 26.1192 14.3426C26.1063 14.3274 26.0969 14.3095 26.0918 14.2902C26.0918 14.2902 26.0918 14.2902 26.0918 14.2818C26.0585 14.1701 26.0693 14.0498 26.1221 13.9458L26.3556 13.4183C26.3618 13.4061 26.365 13.3926 26.365 13.3788C26.365 13.3651 26.3618 13.3516 26.3556 13.3394C26.2359 13.1669 26.0674 13.0341 25.8717 12.958C25.8533 12.958 25.8297 12.958 25.8129 12.9916L25.5173 13.4738C25.4937 13.52 25.4597 13.5601 25.418 13.591C25.3764 13.6219 25.3281 13.6427 25.277 13.6518C25.1947 13.6518 25.1376 13.5863 25.1292 13.4838L25.0872 13.0084C25.0872 12.9798 25.0687 12.9681 25.0469 12.9748C24.7931 13.0669 24.5573 13.2022 24.3497 13.3746C24.3269 13.3957 24.3125 13.4244 24.3093 13.4553L24.2657 13.9794C24.2526 14.1041 24.2009 14.2216 24.1178 14.3154C24.0355 14.4062 23.9498 14.4448 23.8776 14.4129L23.5701 14.2802C23.5517 14.2802 23.5281 14.2802 23.5097 14.3121C23.3139 14.6066 23.1484 14.9201 23.0157 15.2478C23.0094 15.26 23.0061 15.2736 23.0061 15.2873C23.0061 15.3011 23.0094 15.3146 23.0157 15.3268L23.2493 15.5855C23.2772 15.6303 23.2941 15.681 23.2988 15.7335C23.3035 15.7861 23.2957 15.839 23.2761 15.8879C23.2769 15.8912 23.2769 15.8947 23.2761 15.898C23.2476 16.0164 23.1816 16.1225 23.088 16.2004L22.7117 16.4742C22.6878 16.494 22.6727 16.5224 22.6697 16.5532C22.6489 16.7131 22.6383 16.8741 22.6377 17.0354C22.637 17.1843 22.6471 17.3331 22.668 17.4806C22.668 17.5074 22.6881 17.5192 22.71 17.5091L23.0846 17.3529C23.1027 17.344 23.1225 17.3393 23.1426 17.3391C23.1628 17.339 23.1827 17.3433 23.2009 17.3519C23.2191 17.3604 23.2352 17.3729 23.2479 17.3885C23.2606 17.4041 23.2697 17.4224 23.2744 17.4419C23.3071 17.5537 23.2963 17.6737 23.2442 17.7779L23.0157 18.3122C23.0095 18.3247 23.0063 18.3385 23.0063 18.3525C23.0063 18.3665 23.0095 18.3803 23.0157 18.3928C23.139 18.5634 23.3104 18.6932 23.508 18.7658C23.5264 18.7658 23.55 18.7658 23.5668 18.7305L23.8608 18.2483C23.8857 18.2038 23.9204 18.1655 23.9623 18.1364C24.0043 18.1073 24.0523 18.0881 24.1027 18.0803C24.185 18.0803 24.2405 18.1425 24.2505 18.2483L24.2925 18.7238C24.2925 18.7506 24.311 18.7658 24.3329 18.7574C24.454 18.7129 24.5705 18.6566 24.6806 18.5894C24.8031 18.5184 24.9199 18.4381 25.0301 18.3491C25.0525 18.3278 25.0668 18.2992 25.0704 18.2685L25.1141 17.7443C25.1276 17.6201 25.1786 17.5029 25.2602 17.4083C25.3442 17.3159 25.4282 17.2773 25.5021 17.3092L25.7945 17.4537C25.8112 17.4537 25.8365 17.4537 25.8533 17.4218C26.0502 17.1233 26.2168 16.8059 26.3505 16.4742ZM24.6823 17.2386C24.1128 17.5646 23.6508 17.2134 23.6524 16.4541C23.6541 15.6947 24.1161 14.8077 24.6857 14.4818C25.2552 14.1558 25.7172 14.5086 25.7155 15.268C25.7138 16.0274 25.2501 16.911 24.6823 17.2386Z" fill="white"/>
</svg>
