<svg width="60" height="60" viewBox="0 0 60 60" fill="none" xmlns="http://www.w3.org/2000/svg">
<path d="M60 45.8877H0V45.9177H60V45.8877Z" fill="#EBEBEB"/>
<path d="M53.9879 47.8184H47.3604V47.8484H53.9879V47.8184Z" fill="#EBEBEB"/>
<path d="M39.66 47.1895H38.6172V47.2195H39.66V47.1895Z" fill="#EBEBEB"/>
<path d="M46.9991 46.7051H44.6963V46.7351H46.9991V46.7051Z" fill="#EBEBEB"/>
<path d="M11.4777 46.9062H6.29492V46.9362H11.4777V46.9062Z" fill="#EBEBEB"/>
<path d="M31.3262 47.6816H25.8398V47.7116H31.3262V47.6816Z" fill="#EBEBEB"/>
<path d="M28.0971 47.1738H16.8555V47.2038H28.0971V47.1738Z" fill="#EBEBEB"/>
<path d="M29.1262 39.8504C29.1262 39.9405 29.1084 40.0297 29.0739 40.1129C29.0394 40.1961 28.9888 40.2717 28.925 40.3353C28.8613 40.399 28.7856 40.4494 28.7023 40.4838C28.6191 40.5182 28.5298 40.5358 28.4398 40.5356H5.26896C5.08744 40.5353 4.91347 40.463 4.78523 40.3345C4.65699 40.206 4.58496 40.0319 4.58496 39.8504V7.27881C4.58654 7.09833 4.65926 6.92577 4.78733 6.7986C4.9154 6.67142 5.08848 6.59992 5.26896 6.59961H28.4398C28.6215 6.59961 28.7958 6.6718 28.9243 6.8003C29.0528 6.9288 29.125 7.10308 29.125 7.28481M29.095 7.28481C29.0956 7.19831 29.0791 7.11253 29.0465 7.03242C29.0139 6.9523 28.9657 6.87943 28.9048 6.81798C28.8439 6.75654 28.7715 6.70773 28.6917 6.67438C28.6119 6.64102 28.5263 6.62377 28.4398 6.62361H5.26896C5.0954 6.62393 4.92905 6.6931 4.80644 6.81594C4.68383 6.93878 4.61496 7.10525 4.61496 7.27881V39.8504C4.61496 40.024 4.68383 40.1904 4.80644 40.3133C4.92905 40.4361 5.0954 40.5053 5.26896 40.5056H28.4398C28.6134 40.5053 28.7799 40.4362 28.9027 40.3134C29.0255 40.1905 29.0946 40.0241 29.095 39.8504" fill="#EBEBEB"/>
<path d="M54.3972 40.5356H31.2252C31.0436 40.5353 30.8695 40.463 30.7411 40.3346C30.6127 40.2061 30.5404 40.032 30.54 39.8504V7.27881C30.5419 7.09822 30.6149 6.92566 30.7432 6.79852C30.8714 6.67138 31.0446 6.59992 31.2252 6.59961H54.3972C54.5775 6.60023 54.7503 6.67188 54.8781 6.79902C55.0059 6.92615 55.0785 7.09854 55.08 7.27881V39.8504C55.08 40.0317 55.0082 40.2056 54.8802 40.3341C54.7522 40.4625 54.5785 40.535 54.3972 40.5356ZM31.2252 6.62361C31.0516 6.62393 30.8851 6.69306 30.7623 6.81586C30.6395 6.93867 30.5704 7.10514 30.57 7.27881V39.8504C30.5704 40.0241 30.6395 40.1905 30.7623 40.3134C30.8851 40.4362 31.0516 40.5053 31.2252 40.5056H54.3972C54.5709 40.5053 54.7374 40.4362 54.8602 40.3134C54.983 40.1905 55.0521 40.0241 55.0524 39.8504V7.27881C55.0521 7.10514 54.983 6.93867 54.8602 6.81586C54.7374 6.69306 54.5709 6.62393 54.3972 6.62361H31.2252Z" fill="#EBEBEB"/>
<path d="M40.7413 14.9756H32.7793V24.2072H40.7413V14.9756Z" fill="#E6E6E6"/>
<path d="M41.297 14.9756H32.8994V24.2072H41.297V14.9756Z" fill="#F0F0F0"/>
<path d="M40.5938 23.5049V15.6797H33.6037V23.5049H40.5938Z" fill="white"/>
<path d="M38.7983 21.3596H36.9839C36.545 21.359 36.1243 21.1843 35.8141 20.8738C35.5038 20.5634 35.3294 20.1425 35.3291 19.7036V17.8904C35.3291 17.8726 35.3362 17.8555 35.3488 17.8429C35.3614 17.8303 35.3785 17.8232 35.3963 17.8232H37.2107C37.6498 17.8236 38.0708 17.9981 38.3813 18.3086C38.6918 18.6191 38.8664 19.0401 38.8667 19.4792V21.2936C38.8665 21.3025 38.8647 21.3112 38.8611 21.3193C38.8576 21.3274 38.8525 21.3347 38.8462 21.3408C38.8398 21.3469 38.8323 21.3518 38.8241 21.355C38.8159 21.3582 38.8071 21.3598 38.7983 21.3596ZM35.4635 17.9576V19.7036C35.4641 20.1067 35.6245 20.493 35.9095 20.778C36.1945 21.063 36.5809 21.2234 36.9839 21.224H38.7311V19.4792C38.7308 19.0761 38.5705 18.6896 38.2854 18.4045C38.0004 18.1194 37.6138 17.9592 37.2107 17.9588L35.4635 17.9576Z" fill="#F0F0F0"/>
<path d="M52.2453 18.4456H43.1289L43.9365 11.7568H51.4377L52.2453 18.4456Z" fill="#EBEBEB"/>
<path d="M44.6386 18.4443H44.4922V21.0063H44.6386V18.4443Z" fill="#E0E0E0"/>
<path d="M44.5658 21.1824C44.6626 21.1824 44.741 21.104 44.741 21.0072C44.741 20.9105 44.6626 20.832 44.5658 20.832C44.4691 20.832 44.3906 20.9105 44.3906 21.0072C44.3906 21.104 44.4691 21.1824 44.5658 21.1824Z" fill="#E0E0E0"/>
<path d="M50.2453 18.4456H48.6781L48.3457 11.7568H49.7917L50.2453 18.4456Z" fill="#F5F5F5"/>
<path d="M48.1444 18.4443H47.2324V45.8859H48.1444V18.4443Z" fill="#F0F0F0"/>
<path d="M49.1301 45.8881H46.2441C46.2441 45.725 46.3088 45.5686 46.424 45.4532C46.5392 45.3378 46.6955 45.2728 46.8585 45.2725H48.5157C48.6788 45.2728 48.8351 45.3378 48.9503 45.4532C49.0654 45.5686 49.1301 45.725 49.1301 45.8881Z" fill="#F0F0F0"/>
<path d="M48.1444 18.4443H47.2324V19.0011H48.1444V18.4443Z" fill="#E0E0E0"/>
<path d="M46.6292 32.9189C46.556 32.9189 46.4828 32.9189 46.4084 32.9261C45.9461 32.9583 45.4968 33.0925 45.0926 33.319C44.6883 33.5455 44.3393 33.8588 44.0706 34.2363C43.8019 34.6138 43.6201 35.0461 43.5384 35.5022C43.4567 35.9583 43.4771 36.4268 43.598 36.8741C43.9403 38.2095 44.1057 39.5841 44.09 40.9625V44.9777C44.0898 45.047 44.1034 45.1155 44.1298 45.1795C44.1562 45.2435 44.195 45.3017 44.2439 45.3506C44.2929 45.3996 44.351 45.4384 44.415 45.4648C44.479 45.4912 44.5476 45.5047 44.6168 45.5045H53.2568V32.9189H46.6292Z" fill="#F0F0F0"/>
<path d="M56.4005 36.0573C56.4003 35.6103 56.3048 35.1685 56.1201 34.7614C55.9355 34.3544 55.6661 33.9914 55.3299 33.6969C54.9936 33.4023 54.5984 33.183 54.1706 33.0535C53.7428 32.9241 53.2922 32.8874 52.8491 32.9461C52.406 33.0048 51.9805 33.1574 51.6012 33.3938C51.2218 33.6302 50.8973 33.9449 50.6493 34.3168C50.4014 34.6887 50.2357 35.1092 50.1634 35.5503C50.0911 35.9914 50.1138 36.4429 50.2301 36.8745C50.5724 38.2099 50.7378 39.5844 50.7221 40.9629V44.9781C50.7219 45.0473 50.7354 45.1159 50.7618 45.1799C50.7883 45.2438 50.8271 45.302 50.876 45.3509C50.925 45.3999 50.9831 45.4387 51.0471 45.4651C51.1111 45.4915 51.1796 45.505 51.2489 45.5049H55.2737C55.4134 45.5049 55.5474 45.4494 55.6462 45.3506C55.745 45.2518 55.8005 45.1178 55.8005 44.9781V40.7277C55.7868 39.4347 55.9482 38.1458 56.2805 36.8961C56.3584 36.6232 56.3988 36.341 56.4005 36.0573Z" fill="#F5F5F5"/>
<path d="M51.6676 37.8633H37.3564V45.5049H51.6676V37.8633Z" fill="#F0F0F0"/>
<path d="M42.7004 27.8519H32.1404C31.836 27.8464 31.534 27.9057 31.2543 28.026C30.9747 28.1462 30.7238 28.3245 30.5184 28.5491C30.313 28.7737 30.1577 29.0395 30.0628 29.3287C29.968 29.618 29.9358 29.9241 29.9684 30.2267L30.7724 39.5867H46.0796L45.2756 30.2267C45.2109 29.5845 44.9131 28.9882 44.4386 28.5507C43.9641 28.1131 43.3457 27.8645 42.7004 27.8519Z" fill="#E0E0E0"/>
<path d="M45.8061 27.8519H35.0181C34.7283 27.8463 34.4405 27.9025 34.1741 28.0168C33.9077 28.1311 33.6687 28.3009 33.4731 28.5148C33.2774 28.7287 33.1296 28.9819 33.0395 29.2574C32.9494 29.533 32.9191 29.8246 32.9505 30.1127L33.7653 39.5927H49.0797L48.2649 30.1127C48.2037 29.4999 47.9194 28.9309 47.4661 28.5141C47.0127 28.0972 46.4219 27.8616 45.8061 27.8519Z" fill="#F5F5F5"/>
<path d="M37.5916 37.166H51.4252C51.6336 37.166 51.8335 37.2488 51.9809 37.3962C52.1283 37.5436 52.2112 37.7436 52.2112 37.952V39.4916C52.2112 39.7001 52.1283 39.9 51.9809 40.0474C51.8335 40.1948 51.6336 40.2776 51.4252 40.2776H37.5916C37.5279 40.2776 37.4669 40.2523 37.4219 40.2073C37.3768 40.1623 37.3516 40.1013 37.3516 40.0376V37.3976C37.3537 37.3354 37.38 37.2765 37.4248 37.2333C37.4695 37.1901 37.5293 37.166 37.5916 37.166Z" fill="#E0E0E0"/>
<path d="M29.6457 32.9189C29.5721 32.9189 29.4989 32.9213 29.4261 32.9261C28.964 32.9588 28.5149 33.0932 28.1108 33.3198C27.7068 33.5465 27.3579 33.8597 27.0892 34.237C26.8205 34.6144 26.6386 35.0465 26.5565 35.5024C26.4744 35.9584 26.4943 36.4268 26.6145 36.8741C26.9574 38.2094 27.1229 39.584 27.1065 40.9625V44.9777C27.1065 45.1175 27.162 45.2515 27.2608 45.3503C27.3596 45.449 27.4936 45.5045 27.6333 45.5045H36.2733V32.9189H29.6457Z" fill="#F0F0F0"/>
<path d="M39.4131 36.057C39.4117 35.6108 39.3152 35.1701 39.13 34.7641C38.9449 34.3581 38.6753 33.9963 38.3392 33.7028C38.0032 33.4092 37.6084 33.1907 37.1812 33.0617C36.7541 32.9327 36.3043 32.8963 35.862 32.9549C35.4196 33.0134 34.9948 33.1656 34.6159 33.4013C34.2371 33.637 33.9128 33.9507 33.6647 34.3216C33.4166 34.6925 33.2504 35.112 33.1773 35.5522C33.1041 35.9923 33.1256 36.443 33.2403 36.8742C33.5832 38.2095 33.7487 39.5841 33.7324 40.9626V44.9778C33.7324 45.0471 33.746 45.1157 33.7726 45.1797C33.7991 45.2437 33.838 45.3018 33.8871 45.3508C33.9361 45.3997 33.9943 45.4385 34.0584 45.4649C34.1224 45.4913 34.1911 45.5048 34.2603 45.5046H38.2839C38.3532 45.5048 38.4217 45.4913 38.4857 45.4649C38.5497 45.4385 38.6079 45.3997 38.6568 45.3507C38.7058 45.3018 38.7446 45.2436 38.771 45.1796C38.7974 45.1156 38.8109 45.0471 38.8108 44.9778V40.7274C38.7994 39.4341 38.9633 38.1452 39.298 36.8958C39.3737 36.6227 39.4125 36.3405 39.4131 36.057Z" fill="#F5F5F5"/>
<path d="M51.6645 45.8877H29.8701C29.7686 45.8877 29.6712 45.8474 29.5994 45.7756C29.5276 45.7038 29.4873 45.6064 29.4873 45.5049H52.0473C52.0473 45.6064 52.007 45.7038 51.9352 45.7756C51.8634 45.8474 51.766 45.8877 51.6645 45.8877Z" fill="#E0E0E0"/>
<path d="M8.1636 10.7793H5.5332V45.8877H8.1636V10.7793Z" fill="#E6E6E6"/>
<path d="M8.16267 45.8877H31.2471L31.2471 10.7793H8.16267L8.16267 45.8877Z" fill="#F5F5F5"/>
<path d="M30.8164 45.8881L30.8164 11.2969L8.5948 11.2969L8.5948 45.8881H30.8164Z" fill="#E6E6E6"/>
<path d="M10.4541 45.8881L10.4541 11.2969H8.5941L8.5941 45.8881H10.4541Z" fill="#E0E0E0"/>
<path d="M31.0498 39.7211V39.2051H8.59421V39.7211H31.0498Z" fill="#F5F5F5"/>
<path d="M31.0498 32.473V31.957H8.5942V32.473H31.0498Z" fill="#F5F5F5"/>
<path d="M31.0498 25.2262V24.709H8.5942V25.2262H31.0498Z" fill="#F5F5F5"/>
<path d="M31.0498 17.9769V17.4609H8.5942V17.9769H31.0498Z" fill="#F5F5F5"/>
<path d="M10.5745 17.4619H13.9141V12.5383H10.5745V17.4619Z" fill="#FAFAFA"/>
<path d="M14.2695 12.5371H13.6287C13.528 12.5371 13.4463 12.6188 13.4463 12.7195V17.2783C13.4463 17.379 13.528 17.4607 13.6287 17.4607H14.2695C14.3702 17.4607 14.4519 17.379 14.4519 17.2783V12.7195C14.4519 12.6188 14.3702 12.5371 14.2695 12.5371Z" fill="#F0F0F0"/>
<path d="M9.44849 17.4619H12.7881V12.5383H9.44849V17.4619Z" fill="#FAFAFA"/>
<path d="M13.1464 12.5371H12.5056C12.4049 12.5371 12.3232 12.6188 12.3232 12.7195V17.2783C12.3232 17.379 12.4049 17.4607 12.5056 17.4607H13.1464C13.2472 17.4607 13.3288 17.379 13.3288 17.2783V12.7195C13.3288 12.6188 13.2472 12.5371 13.1464 12.5371Z" fill="#E6E6E6"/>
<path d="M8.59473 12.5371H11.4771L11.2479 17.4619H8.59473V12.5371Z" fill="#FAFAFA"/>
<path d="M11.8493 12.5371H11.1761C11.1271 12.542 11.0817 12.5652 11.0492 12.6022C11.0167 12.6392 10.9994 12.6871 11.0009 12.7363L10.7897 17.2627C10.7865 17.2862 10.7881 17.31 10.7943 17.3329C10.8006 17.3557 10.8113 17.3771 10.826 17.3957C10.8407 17.4143 10.8589 17.4297 10.8797 17.4411C10.9005 17.4525 10.9233 17.4595 10.9469 17.4619H11.6201C11.6689 17.4565 11.7139 17.4331 11.7463 17.3963C11.7787 17.3594 11.7962 17.3118 11.7953 17.2627L12.0065 12.7363C12.0098 12.7128 12.0084 12.6889 12.0022 12.666C11.996 12.6431 11.9853 12.6216 11.9706 12.603C11.9559 12.5844 11.9375 12.5689 11.9167 12.5576C11.8958 12.5463 11.8729 12.5393 11.8493 12.5371Z" fill="#F0F0F0"/>
<path d="M26.0188 17.4609H28.5508V13.3041H26.0188V17.4609Z" fill="#FAFAFA"/>
<path d="M28.8131 13.3057H28.3415C28.2613 13.3057 28.1963 13.3707 28.1963 13.4509V17.3173C28.1963 17.3975 28.2613 17.4625 28.3415 17.4625H28.8131C28.8933 17.4625 28.9583 17.3975 28.9583 17.3173V13.4509C28.9583 13.3707 28.8933 13.3057 28.8131 13.3057Z" fill="#F0F0F0"/>
<path d="M25.1653 17.4609H27.6973V13.3041H25.1653V17.4609Z" fill="#FAFAFA"/>
<path d="M27.9615 13.3057H27.4899C27.4097 13.3057 27.3447 13.3707 27.3447 13.4509V17.3173C27.3447 17.3975 27.4097 17.4625 27.4899 17.4625H27.9615C28.0417 17.4625 28.1067 17.3975 28.1067 17.3173V13.4509C28.1067 13.3707 28.0417 13.3057 27.9615 13.3057Z" fill="#E6E6E6"/>
<path d="M24.5176 13.3057H26.7028L26.5288 17.4625H24.5176V13.3057Z" fill="#FAFAFA"/>
<path d="M26.9844 13.3057H26.4744C26.4048 13.3057 26.346 13.3813 26.3412 13.4737L26.1816 17.2945C26.1816 17.3869 26.2308 17.4625 26.3016 17.4625H26.8128C26.8824 17.4625 26.9412 17.3869 26.9448 17.2945L27.1056 13.4737C27.108 13.3813 27.054 13.3057 26.9844 13.3057Z" fill="#F0F0F0"/>
<path d="M22.7532 17.4609H25.2852V13.3041H22.7532V17.4609Z" fill="#FAFAFA"/>
<path d="M25.5484 13.3057H25.0768C24.9966 13.3057 24.9316 13.3707 24.9316 13.4509V17.3173C24.9316 17.3975 24.9966 17.4625 25.0768 17.4625H25.5484C25.6286 17.4625 25.6936 17.3975 25.6936 17.3173V13.4509C25.6936 13.3707 25.6286 13.3057 25.5484 13.3057Z" fill="#F0F0F0"/>
<path d="M21.9016 17.4609H24.4336V13.3041H21.9016V17.4609Z" fill="#FAFAFA"/>
<path d="M24.6959 13.3057H24.2243C24.1441 13.3057 24.0791 13.3707 24.0791 13.4509V17.3173C24.0791 17.3975 24.1441 17.4625 24.2243 17.4625H24.6959C24.7761 17.4625 24.8411 17.3975 24.8411 17.3173V13.4509C24.8411 13.3707 24.7761 13.3057 24.6959 13.3057Z" fill="#E6E6E6"/>
<path d="M21.2529 13.3057H23.4369L23.2641 17.4625H21.2529V13.3057Z" fill="#FAFAFA"/>
<path d="M23.7203 13.3057H23.2091C23.1395 13.3057 23.0807 13.3813 23.0771 13.4737L22.9199 17.2945C22.9199 17.3869 22.9703 17.4625 23.0399 17.4625H23.5499C23.6195 17.4625 23.6783 17.3869 23.6831 17.2945L23.8427 13.4737C23.8427 13.3813 23.7899 13.3057 23.7203 13.3057Z" fill="#F0F0F0"/>
<path d="M17.9828 17.4619H19.748V12.9943H17.9828V17.4619Z" fill="#FAFAFA"/>
<path d="M19.9076 12.9932H19.628C19.5584 12.9932 19.502 13.0496 19.502 13.1192V17.3348C19.502 17.4044 19.5584 17.4608 19.628 17.4608H19.9076C19.9771 17.4608 20.0336 17.4044 20.0336 17.3348V13.1192C20.0336 13.0496 19.9771 12.9932 19.9076 12.9932Z" fill="#F0F0F0"/>
<path d="M16.5128 17.4619H18.458V12.5383H16.5128V17.4619Z" fill="#FAFAFA"/>
<path d="M18.6339 12.5371H18.3267C18.2498 12.5371 18.1875 12.5994 18.1875 12.6763V17.3215C18.1875 17.3984 18.2498 17.4607 18.3267 17.4607H18.6339C18.7108 17.4607 18.7731 17.3984 18.7731 17.3215V12.6763C18.7731 12.5994 18.7108 12.5371 18.6339 12.5371Z" fill="#F5F5F5"/>
<path d="M16.0156 12.5371H17.6944L17.5612 17.4619H16.0156V12.5371Z" fill="#FAFAFA"/>
<path d="M17.9111 12.5371H17.5199C17.4671 12.5371 17.4203 12.6259 17.4179 12.7363L17.2979 17.2627C17.2979 17.3719 17.3351 17.4619 17.3891 17.4619H17.7815C17.8343 17.4619 17.8799 17.3719 17.8835 17.2627L18.0035 12.7363C17.9999 12.6259 17.9639 12.5371 17.9111 12.5371Z" fill="#F0F0F0"/>
<path d="M19.4651 24.71H22.8047V19.7864H19.4651V24.71Z" fill="#FAFAFA"/>
<path d="M23.1611 19.7852H22.5203C22.4196 19.7852 22.3379 19.8668 22.3379 19.9676V24.5264C22.3379 24.6271 22.4196 24.7088 22.5203 24.7088H23.1611C23.2618 24.7088 23.3435 24.6271 23.3435 24.5264V19.9676C23.3435 19.8668 23.2618 19.7852 23.1611 19.7852Z" fill="#F0F0F0"/>
<path d="M18.342 24.71H21.6816V19.7864H18.342V24.71Z" fill="#FAFAFA"/>
<path d="M22.0371 19.7852H21.3963C21.2955 19.7852 21.2139 19.8668 21.2139 19.9676V24.5264C21.2139 24.6271 21.2955 24.7088 21.3963 24.7088H22.0371C22.1378 24.7088 22.2195 24.6271 22.2195 24.5264V19.9676C22.2195 19.8668 22.1378 19.7852 22.0371 19.7852Z" fill="#E6E6E6"/>
<path d="M17.4863 19.7852H20.3675L20.1383 24.71H17.4863V19.7852Z" fill="#FAFAFA"/>
<path d="M20.7413 19.7852H20.0681C20.0191 19.79 19.9737 19.8133 19.9412 19.8502C19.9087 19.8872 19.8914 19.9351 19.8929 19.9844L19.6805 24.5108C19.6771 24.5342 19.6786 24.5582 19.6847 24.5811C19.6909 24.604 19.7017 24.6254 19.7164 24.644C19.7311 24.6627 19.7494 24.6781 19.7703 24.6894C19.7911 24.7008 19.814 24.7078 19.8377 24.71H20.5109C20.5597 24.7046 20.6047 24.6812 20.6371 24.6443C20.6695 24.6075 20.687 24.5598 20.6861 24.5108L20.8961 19.9844C20.8996 19.961 20.8984 19.9372 20.8924 19.9144C20.8864 19.8915 20.8759 19.8702 20.8614 19.8515C20.8469 19.8329 20.8288 19.8174 20.8082 19.806C20.7875 19.7946 20.7648 19.7875 20.7413 19.7852Z" fill="#F0F0F0"/>
<path d="M24.5849 24.709H26.6309V20.5522H24.5849V24.709Z" fill="#FAFAFA"/>
<path d="M26.8295 20.5527H26.4755C26.4033 20.5527 26.3447 20.6113 26.3447 20.6835V24.5787C26.3447 24.651 26.4033 24.7095 26.4755 24.7095H26.8295C26.9018 24.7095 26.9603 24.651 26.9603 24.5787V20.6835C26.9603 20.6113 26.9018 20.5527 26.8295 20.5527Z" fill="#F0F0F0"/>
<path d="M23.8954 24.709H25.9414V20.5522H23.8954V24.709Z" fill="#FAFAFA"/>
<path d="M26.141 20.5527H25.787C25.7148 20.5527 25.6562 20.6113 25.6562 20.6835V24.5787C25.6562 24.651 25.7148 24.7095 25.787 24.7095H26.141C26.2133 24.7095 26.2718 24.651 26.2718 24.5787V20.6835C26.2718 20.6113 26.2133 20.5527 26.141 20.5527Z" fill="#E6E6E6"/>
<path d="M23.3711 20.5527H25.1375L24.9971 24.7095H23.3711V20.5527Z" fill="#FAFAFA"/>
<path d="M25.3653 20.5527H24.9525C24.8961 20.5527 24.8481 20.6283 24.8457 20.7207L24.7197 24.5415C24.7197 24.6339 24.7593 24.7095 24.8157 24.7095H25.2285C25.2849 24.7095 25.3329 24.6339 25.3353 24.5415L25.4649 20.7207C25.4649 20.6283 25.4217 20.5527 25.3653 20.5527Z" fill="#F0F0F0"/>
<path d="M27.998 24.71H29.6924V21.2672H27.998V24.71Z" fill="#FAFAFA"/>
<path d="M29.8571 21.2656H29.5631C29.5034 21.2656 29.4551 21.314 29.4551 21.3736V24.6004C29.4551 24.6601 29.5034 24.7084 29.5631 24.7084H29.8571C29.9167 24.7084 29.9651 24.6601 29.9651 24.6004V21.3736C29.9651 21.314 29.9167 21.2656 29.8571 21.2656Z" fill="#F0F0F0"/>
<path d="M27.4277 24.71H29.1221V21.2672H27.4277V24.71Z" fill="#FAFAFA"/>
<path d="M29.2868 21.2656H28.9928C28.9331 21.2656 28.8848 21.314 28.8848 21.3736V24.6004C28.8848 24.6601 28.9331 24.7084 28.9928 24.7084H29.2868C29.3464 24.7084 29.3948 24.6601 29.3948 24.6004V21.3736C29.3948 21.314 29.3464 21.2656 29.2868 21.2656Z" fill="#E6E6E6"/>
<path d="M26.9932 21.2656H28.456L28.3396 24.7096H26.9932V21.2656Z" fill="#FAFAFA"/>
<path d="M28.645 21.2656H28.303C28.2562 21.2656 28.2166 21.328 28.2142 21.4048L28.1074 24.5704C28.1074 24.6472 28.1398 24.7096 28.1866 24.7096H28.5286C28.5742 24.7096 28.615 24.6472 28.6174 24.5704L28.7242 21.4048C28.7266 21.328 28.6906 21.2656 28.645 21.2656Z" fill="#F0F0F0"/>
<path d="M14.1116 24.709H16.6436V20.5522H14.1116V24.709Z" fill="#FAFAFA"/>
<path d="M16.9078 20.5527H16.4362C16.356 20.5527 16.291 20.6177 16.291 20.6979V24.5643C16.291 24.6445 16.356 24.7095 16.4362 24.7095H16.9078C16.988 24.7095 17.053 24.6445 17.053 24.5643V20.6979C17.053 20.6177 16.988 20.5527 16.9078 20.5527Z" fill="#F0F0F0"/>
<path d="M13.261 24.709H15.793V20.5522H13.261V24.709Z" fill="#FAFAFA"/>
<path d="M16.0553 20.5527H15.5837C15.5035 20.5527 15.4385 20.6177 15.4385 20.6979V24.5643C15.4385 24.6445 15.5035 24.7095 15.5837 24.7095H16.0553C16.1355 24.7095 16.2005 24.6445 16.2005 24.5643V20.6979C16.2005 20.6177 16.1355 20.5527 16.0553 20.5527Z" fill="#E6E6E6"/>
<path d="M12.6123 20.5527H14.7975L14.6235 24.7095H12.6123V20.5527Z" fill="#FAFAFA"/>
<path d="M15.0795 20.5527H14.5695C14.5304 20.5592 14.4951 20.58 14.4705 20.611C14.4458 20.6421 14.4337 20.6812 14.4363 20.7207L14.2803 24.5415C14.2803 24.6339 14.3295 24.7095 14.4003 24.7095H14.9103C14.9494 24.7031 14.9847 24.6823 15.0093 24.6512C15.0339 24.6202 15.0461 24.5811 15.0435 24.5415L15.2031 20.7207C15.2031 20.6283 15.1491 20.5527 15.0795 20.5527Z" fill="#F0F0F0"/>
<path d="M10.5619 24.71H12.3271V20.2424H10.5619V24.71Z" fill="#FAFAFA"/>
<path d="M12.4857 20.2412H12.2061C12.1365 20.2412 12.0801 20.2976 12.0801 20.3672V24.5828C12.0801 24.6524 12.1365 24.7088 12.2061 24.7088H12.4857C12.5553 24.7088 12.6117 24.6524 12.6117 24.5828V20.3672C12.6117 20.2976 12.5553 20.2412 12.4857 20.2412Z" fill="#F0F0F0"/>
<path d="M9.09289 24.71H11.0381V19.7864H9.09289V24.71Z" fill="#FAFAFA"/>
<path d="M11.212 19.7852H10.9048C10.8279 19.7852 10.7656 19.8475 10.7656 19.9244V24.5696C10.7656 24.6464 10.8279 24.7088 10.9048 24.7088H11.212C11.2889 24.7088 11.3512 24.6464 11.3512 24.5696V19.9244C11.3512 19.8475 11.2889 19.7852 11.212 19.7852Z" fill="#F5F5F5"/>
<path d="M8.59473 19.7852H10.2735L10.1403 24.71H8.59473V19.7852Z" fill="#FAFAFA"/>
<path d="M10.4904 19.7852H10.098C10.044 19.7852 9.99838 19.874 9.99598 19.9844L9.87598 24.5108C9.87598 24.62 9.91438 24.71 9.96838 24.71H10.356C10.41 24.71 10.4556 24.62 10.458 24.5108L10.578 19.9844C10.584 19.874 10.5432 19.7852 10.4904 19.7852Z" fill="#F0F0F0"/>
<path d="M10.5745 31.958H13.9141V27.0344H10.5745V31.958Z" fill="#FAFAFA"/>
<path d="M14.2695 27.0332H13.6287C13.528 27.0332 13.4463 27.1149 13.4463 27.2156V31.7744C13.4463 31.8751 13.528 31.9568 13.6287 31.9568H14.2695C14.3702 31.9568 14.4519 31.8751 14.4519 31.7744V27.2156C14.4519 27.1149 14.3702 27.0332 14.2695 27.0332Z" fill="#F0F0F0"/>
<path d="M9.44849 31.958H12.7881V27.0344H9.44849V31.958Z" fill="#FAFAFA"/>
<path d="M13.1464 27.0332H12.5056C12.4049 27.0332 12.3232 27.1149 12.3232 27.2156V31.7744C12.3232 31.8751 12.4049 31.9568 12.5056 31.9568H13.1464C13.2472 31.9568 13.3288 31.8751 13.3288 31.7744V27.2156C13.3288 27.1149 13.2472 27.0332 13.1464 27.0332Z" fill="#E6E6E6"/>
<path d="M8.59473 27.0332H11.4771L11.2479 31.958H8.59473V27.0332Z" fill="#FAFAFA"/>
<path d="M11.8493 27.0332H11.1761C11.1271 27.038 11.0817 27.0613 11.0492 27.0983C11.0167 27.1352 10.9994 27.1832 11.0009 27.2324L10.7897 31.7588C10.7865 31.7823 10.7881 31.8061 10.7943 31.829C10.8006 31.8518 10.8113 31.8732 10.826 31.8918C10.8407 31.9103 10.8589 31.9258 10.8797 31.9372C10.9005 31.9486 10.9233 31.9556 10.9469 31.958H11.6201C11.6689 31.9526 11.7139 31.9292 11.7463 31.8924C11.7787 31.8555 11.7962 31.8079 11.7953 31.7588L12.0065 27.2324C12.0098 27.2089 12.0084 27.185 12.0022 27.1621C11.996 27.1392 11.9853 27.1177 11.9706 27.0991C11.9559 27.0805 11.9375 27.065 11.9167 27.0537C11.8958 27.0424 11.8729 27.0354 11.8493 27.0332Z" fill="#F0F0F0"/>
<path d="M26.0188 31.957H28.5508V27.8002H26.0188V31.957Z" fill="#FAFAFA"/>
<path d="M28.8131 27.8008H28.3415C28.2613 27.8008 28.1963 27.8658 28.1963 27.946V31.8124C28.1963 31.8926 28.2613 31.9576 28.3415 31.9576H28.8131C28.8933 31.9576 28.9583 31.8926 28.9583 31.8124V27.946C28.9583 27.8658 28.8933 27.8008 28.8131 27.8008Z" fill="#F0F0F0"/>
<path d="M25.1653 31.957H27.6973V27.8002H25.1653V31.957Z" fill="#FAFAFA"/>
<path d="M27.9615 27.8008H27.4899C27.4097 27.8008 27.3447 27.8658 27.3447 27.946V31.8124C27.3447 31.8926 27.4097 31.9576 27.4899 31.9576H27.9615C28.0417 31.9576 28.1067 31.8926 28.1067 31.8124V27.946C28.1067 27.8658 28.0417 27.8008 27.9615 27.8008Z" fill="#E6E6E6"/>
<path d="M24.5176 27.8008H26.7028L26.5288 31.9576H24.5176V27.8008Z" fill="#FAFAFA"/>
<path d="M26.9844 27.8008H26.4744C26.4048 27.8008 26.346 27.8764 26.3412 27.9688L26.1816 31.7896C26.1816 31.882 26.2308 31.9576 26.3016 31.9576H26.8128C26.8824 31.9576 26.9412 31.882 26.9448 31.7896L27.1056 27.9688C27.108 27.8764 27.054 27.8008 26.9844 27.8008Z" fill="#F0F0F0"/>
<path d="M22.7532 31.957H25.2852V27.8002H22.7532V31.957Z" fill="#FAFAFA"/>
<path d="M25.5484 27.8008H25.0768C24.9966 27.8008 24.9316 27.8658 24.9316 27.946V31.8124C24.9316 31.8926 24.9966 31.9576 25.0768 31.9576H25.5484C25.6286 31.9576 25.6936 31.8926 25.6936 31.8124V27.946C25.6936 27.8658 25.6286 27.8008 25.5484 27.8008Z" fill="#F0F0F0"/>
<path d="M21.9016 31.957H24.4336V27.8002H21.9016V31.957Z" fill="#FAFAFA"/>
<path d="M24.6959 27.8008H24.2243C24.1441 27.8008 24.0791 27.8658 24.0791 27.946V31.8124C24.0791 31.8926 24.1441 31.9576 24.2243 31.9576H24.6959C24.7761 31.9576 24.8411 31.8926 24.8411 31.8124V27.946C24.8411 27.8658 24.7761 27.8008 24.6959 27.8008Z" fill="#E6E6E6"/>
<path d="M21.2529 27.8008H23.4369L23.2641 31.9576H21.2529V27.8008Z" fill="#FAFAFA"/>
<path d="M23.7203 27.8008H23.2091C23.1395 27.8008 23.0807 27.8764 23.0771 27.9688L22.9199 31.7896C22.9199 31.882 22.9703 31.9576 23.0399 31.9576H23.5499C23.6195 31.9576 23.6783 31.882 23.6831 31.7896L23.8427 27.9688C23.8427 27.8764 23.7899 27.8008 23.7203 27.8008Z" fill="#F0F0F0"/>
<path d="M17.9828 31.958H19.748V27.4904H17.9828V31.958Z" fill="#FAFAFA"/>
<path d="M19.9076 27.4893H19.628C19.5584 27.4893 19.502 27.5457 19.502 27.6153V31.8309C19.502 31.9004 19.5584 31.9569 19.628 31.9569H19.9076C19.9771 31.9569 20.0336 31.9004 20.0336 31.8309V27.6153C20.0336 27.5457 19.9771 27.4893 19.9076 27.4893Z" fill="#F0F0F0"/>
<path d="M16.5128 31.958H18.458V27.0344H16.5128V31.958Z" fill="#FAFAFA"/>
<path d="M18.6339 27.0332H18.3267C18.2498 27.0332 18.1875 27.0955 18.1875 27.1724V31.8176C18.1875 31.8945 18.2498 31.9568 18.3267 31.9568H18.6339C18.7108 31.9568 18.7731 31.8945 18.7731 31.8176V27.1724C18.7731 27.0955 18.7108 27.0332 18.6339 27.0332Z" fill="#F5F5F5"/>
<path d="M16.0156 27.0332H17.6944L17.5612 31.958H16.0156V27.0332Z" fill="#FAFAFA"/>
<path d="M17.9111 27.0332H17.5199C17.4671 27.0332 17.4203 27.122 17.4179 27.2324L17.2979 31.7588C17.2979 31.868 17.3351 31.958 17.3891 31.958H17.7815C17.8343 31.958 17.8799 31.868 17.8835 31.7588L18.0035 27.2324C17.9999 27.1196 17.9639 27.0332 17.9111 27.0332Z" fill="#F0F0F0"/>
<path d="M9.86138 45.8877H12.001V40.9641H9.86138V45.8877Z" fill="#FAFAFA"/>
<path d="M12.2013 40.9629H11.8473C11.7672 40.9629 11.7021 41.0279 11.7021 41.1081V45.7413C11.7021 45.8215 11.7672 45.8865 11.8473 45.8865H12.2013C12.2815 45.8865 12.3465 45.8215 12.3465 45.7413V41.1081C12.3465 41.0279 12.2815 40.9629 12.2013 40.9629Z" fill="#F0F0F0"/>
<path d="M9.14263 45.8877H11.2822V40.9641H9.14263V45.8877Z" fill="#FAFAFA"/>
<path d="M11.4816 40.9629H11.1276C11.0474 40.9629 10.9824 41.0279 10.9824 41.1081V45.7413C10.9824 45.8215 11.0474 45.8865 11.1276 45.8865H11.4816C11.5618 45.8865 11.6268 45.8215 11.6268 45.7413V41.1081C11.6268 41.0279 11.5618 40.9629 11.4816 40.9629Z" fill="#E6E6E6"/>
<path d="M8.59473 40.9639H10.4403L10.2939 45.8875H8.59473V40.9639Z" fill="#FAFAFA"/>
<path d="M10.6802 40.9629H10.2482C10.1894 40.9629 10.139 41.0529 10.1354 41.1621L10.001 45.6885C10.001 45.7989 10.043 45.8877 10.1018 45.8877H10.5326C10.5914 45.8877 10.6418 45.7989 10.6454 45.6885L10.7798 41.1597C10.7834 41.0529 10.7378 40.9629 10.6802 40.9629Z" fill="#F0F0F0"/>
<path d="M27.7633 45.8877H29.9941V41.7309H27.7633V45.8877Z" fill="#FAFAFA"/>
<path d="M30.2168 41.7305H29.8184C29.7429 41.7305 29.6816 41.7917 29.6816 41.8673V45.7505C29.6816 45.826 29.7429 45.8873 29.8184 45.8873H30.2168C30.2924 45.8873 30.3536 45.826 30.3536 45.7505V41.8673C30.3536 41.7917 30.2924 41.7305 30.2168 41.7305Z" fill="#F0F0F0"/>
<path d="M27.0124 45.8877H29.2432V41.7309H27.0124V45.8877Z" fill="#FAFAFA"/>
<path d="M29.4659 41.7305H29.0675C28.9919 41.7305 28.9307 41.7917 28.9307 41.8673V45.7505C28.9307 45.826 28.9919 45.8873 29.0675 45.8873H29.4659C29.5414 45.8873 29.6027 45.826 29.6027 45.7505V41.8673C29.6027 41.7917 29.5414 41.7305 29.4659 41.7305Z" fill="#E6E6E6"/>
<path d="M26.4404 41.7305H28.3652L28.2116 45.8873H26.4404V41.7305Z" fill="#FAFAFA"/>
<path d="M28.6152 41.7305H28.1652C28.104 41.7305 28.0452 41.8061 28.0452 41.8985L27.9072 45.7193C27.9072 45.8117 27.9504 45.8873 28.0116 45.8873H28.4616C28.5228 45.8873 28.5756 45.8117 28.5816 45.7193L28.722 41.8985C28.7232 41.8061 28.68 41.7305 28.6152 41.7305Z" fill="#F0F0F0"/>
<path d="M24.8854 45.8877H27.1162V41.7309H24.8854V45.8877Z" fill="#FAFAFA"/>
<path d="M27.3399 41.7305H26.9415C26.8659 41.7305 26.8047 41.7917 26.8047 41.8673V45.7505C26.8047 45.826 26.8659 45.8873 26.9415 45.8873H27.3399C27.4154 45.8873 27.4767 45.826 27.4767 45.7505V41.8673C27.4767 41.7917 27.4154 41.7305 27.3399 41.7305Z" fill="#F0F0F0"/>
<path d="M24.1344 45.8877H26.3652V41.7309H24.1344V45.8877Z" fill="#FAFAFA"/>
<path d="M26.5879 41.7305H26.1895C26.114 41.7305 26.0527 41.7917 26.0527 41.8673V45.7505C26.0527 45.826 26.114 45.8873 26.1895 45.8873H26.5879C26.6635 45.8873 26.7247 45.826 26.7247 45.7505V41.8673C26.7247 41.7917 26.6635 41.7305 26.5879 41.7305Z" fill="#E6E6E6"/>
<path d="M23.5635 41.7305H25.4883L25.3359 45.8873H23.5635V41.7305Z" fill="#FAFAFA"/>
<path d="M25.7373 41.7305H25.2873C25.2261 41.7305 25.1733 41.8061 25.1673 41.8985L25.0293 45.7193C25.0293 45.8117 25.0725 45.8873 25.1337 45.8873H25.5837C25.6449 45.8873 25.7037 45.8117 25.7037 45.7193L25.8441 41.8985C25.8453 41.8061 25.7997 41.7305 25.7373 41.7305Z" fill="#F0F0F0"/>
<path d="M22.5952 45.8877H24.1504V41.4201H22.5952V45.8877Z" fill="#FAFAFA"/>
<path d="M24.0516 41.4199H24.2832C24.3151 41.4199 24.3456 41.4326 24.3681 41.4551C24.3906 41.4776 24.4032 41.5081 24.4032 41.5399V45.7711C24.4032 45.8029 24.3906 45.8335 24.3681 45.856C24.3456 45.8785 24.3151 45.8911 24.2832 45.8911H24.0516C24.0198 45.8911 23.9893 45.8785 23.9668 45.856C23.9443 45.8335 23.9316 45.8029 23.9316 45.7711V41.5375C23.9323 41.5061 23.9452 41.4762 23.9676 41.4542C23.9901 41.4322 24.0202 41.4199 24.0516 41.4199Z" fill="#F0F0F0"/>
<path d="M21.3001 45.8877H23.0137V40.9641H21.3001V45.8877Z" fill="#FAFAFA"/>
<path d="M23.1586 40.9629H22.9042C22.832 40.9629 22.7734 41.0215 22.7734 41.0937V45.7557C22.7734 45.8279 22.832 45.8865 22.9042 45.8865H23.1586C23.2309 45.8865 23.2894 45.8279 23.2894 45.7557V41.0937C23.2894 41.0215 23.2309 40.9629 23.1586 40.9629Z" fill="#F5F5F5"/>
<path d="M20.8604 40.9639H22.34L22.2224 45.8875H20.8604V40.9639Z" fill="#FAFAFA"/>
<path d="M22.5309 40.9629H22.1853C22.1385 40.9629 22.0977 41.0529 22.0953 41.1621L21.9873 45.6885C21.9873 45.7989 22.0209 45.8877 22.0677 45.8877H22.4133C22.4601 45.8877 22.5009 45.7989 22.5033 45.6885L22.6113 41.1621C22.6137 41.0529 22.5777 40.9629 22.5309 40.9629Z" fill="#F0F0F0"/>
<path d="M19.4651 39.2061H22.8047V34.2825H19.4651V39.2061Z" fill="#FAFAFA"/>
<path d="M23.1611 34.2812H22.5203C22.4196 34.2812 22.3379 34.3629 22.3379 34.4637V39.0225C22.3379 39.1232 22.4196 39.2048 22.5203 39.2048H23.1611C23.2618 39.2048 23.3435 39.1232 23.3435 39.0225V34.4637C23.3435 34.3629 23.2618 34.2812 23.1611 34.2812Z" fill="#F0F0F0"/>
<path d="M18.342 39.2061H21.6816V34.2825H18.342V39.2061Z" fill="#FAFAFA"/>
<path d="M22.0371 34.2812H21.3963C21.2955 34.2812 21.2139 34.3629 21.2139 34.4637V39.0225C21.2139 39.1232 21.2955 39.2048 21.3963 39.2048H22.0371C22.1378 39.2048 22.2195 39.1232 22.2195 39.0225V34.4637C22.2195 34.3629 22.1378 34.2812 22.0371 34.2812Z" fill="#E6E6E6"/>
<path d="M17.4863 34.2812H20.3675L20.1383 39.2061H17.4863V34.2812Z" fill="#FAFAFA"/>
<path d="M20.7413 34.2812H20.0681C20.0192 34.2864 19.974 34.3097 19.9415 34.3466C19.9091 34.3835 19.8917 34.4313 19.8929 34.4805L19.6805 39.0069C19.6771 39.0303 19.6786 39.0543 19.6847 39.0772C19.6909 39.1001 19.7017 39.1215 19.7164 39.1401C19.7311 39.1588 19.7494 39.1742 19.7703 39.1855C19.7911 39.1969 19.814 39.2039 19.8377 39.2061H20.5109C20.5597 39.2007 20.6047 39.1773 20.6371 39.1404C20.6695 39.1036 20.687 39.0559 20.6861 39.0069L20.8961 34.4805C20.8994 34.4571 20.8981 34.4334 20.892 34.4106C20.886 34.3879 20.8754 34.3665 20.861 34.348C20.8465 34.3294 20.8285 34.3139 20.8079 34.3024C20.7874 34.2909 20.7647 34.2838 20.7413 34.2812Z" fill="#F0F0F0"/>
<path d="M24.5849 39.2051H26.6309V35.0483H24.5849V39.2051Z" fill="#FAFAFA"/>
<path d="M26.8295 35.0488H26.4755C26.4033 35.0488 26.3447 35.1074 26.3447 35.1796V39.0748C26.3447 39.1471 26.4033 39.2056 26.4755 39.2056H26.8295C26.9018 39.2056 26.9603 39.1471 26.9603 39.0748V35.1796C26.9603 35.1074 26.9018 35.0488 26.8295 35.0488Z" fill="#F0F0F0"/>
<path d="M23.8954 39.2051H25.9414V35.0483H23.8954V39.2051Z" fill="#FAFAFA"/>
<path d="M26.141 35.0488H25.787C25.7148 35.0488 25.6562 35.1074 25.6562 35.1796V39.0748C25.6562 39.1471 25.7148 39.2056 25.787 39.2056H26.141C26.2133 39.2056 26.2718 39.1471 26.2718 39.0748V35.1796C26.2718 35.1074 26.2133 35.0488 26.141 35.0488Z" fill="#E6E6E6"/>
<path d="M23.3711 35.0488H25.1375L24.9971 39.2056H23.3711V35.0488Z" fill="#FAFAFA"/>
<path d="M25.3653 35.0488H24.9525C24.8961 35.0488 24.8481 35.1244 24.8457 35.2168L24.7197 39.0376C24.7197 39.13 24.7593 39.2056 24.8157 39.2056H25.2285C25.2849 39.2056 25.3329 39.13 25.3353 39.0376L25.4649 35.2168C25.4649 35.1244 25.4217 35.0488 25.3653 35.0488Z" fill="#F0F0F0"/>
<path d="M27.998 39.2061H29.6924V35.7633H27.998V39.2061Z" fill="#FAFAFA"/>
<path d="M29.8571 35.7617H29.5631C29.5034 35.7617 29.4551 35.8101 29.4551 35.8697V39.0965C29.4551 39.1562 29.5034 39.2045 29.5631 39.2045H29.8571C29.9167 39.2045 29.9651 39.1562 29.9651 39.0965V35.8697C29.9651 35.8101 29.9167 35.7617 29.8571 35.7617Z" fill="#F0F0F0"/>
<path d="M27.4277 39.2061H29.1221V35.7633H27.4277V39.2061Z" fill="#FAFAFA"/>
<path d="M29.2868 35.7617H28.9928C28.9331 35.7617 28.8848 35.8101 28.8848 35.8697V39.0965C28.8848 39.1562 28.9331 39.2045 28.9928 39.2045H29.2868C29.3464 39.2045 29.3948 39.1562 29.3948 39.0965V35.8697C29.3948 35.8101 29.3464 35.7617 29.2868 35.7617Z" fill="#E6E6E6"/>
<path d="M26.9932 35.7617H28.456L28.3396 39.2057H26.9932V35.7617Z" fill="#FAFAFA"/>
<path d="M28.645 35.7598H28.303C28.2562 35.7598 28.2166 35.8222 28.2142 35.899L28.1074 39.0646C28.1074 39.1414 28.1398 39.2038 28.1866 39.2038H28.5286C28.5742 39.2038 28.615 39.1414 28.6174 39.0646L28.7242 35.899C28.7266 35.8246 28.6906 35.7598 28.645 35.7598Z" fill="#F0F0F0"/>
<path d="M14.1116 39.2051H16.6436V35.0483H14.1116V39.2051Z" fill="#FAFAFA"/>
<path d="M16.9078 35.0488H16.4362C16.356 35.0488 16.291 35.1138 16.291 35.194V39.0604C16.291 39.1406 16.356 39.2056 16.4362 39.2056H16.9078C16.988 39.2056 17.053 39.1406 17.053 39.0604V35.194C17.053 35.1138 16.988 35.0488 16.9078 35.0488Z" fill="#F0F0F0"/>
<path d="M13.261 39.2051H15.793V35.0483H13.261V39.2051Z" fill="#FAFAFA"/>
<path d="M16.0553 35.0488H15.5837C15.5035 35.0488 15.4385 35.1138 15.4385 35.194V39.0604C15.4385 39.1406 15.5035 39.2056 15.5837 39.2056H16.0553C16.1355 39.2056 16.2005 39.1406 16.2005 39.0604V35.194C16.2005 35.1138 16.1355 35.0488 16.0553 35.0488Z" fill="#E6E6E6"/>
<path d="M12.6123 35.0488H14.7975L14.6235 39.2056H12.6123V35.0488Z" fill="#FAFAFA"/>
<path d="M15.0795 35.0488H14.5695C14.5304 35.0553 14.4951 35.0761 14.4705 35.1071C14.4458 35.1382 14.4337 35.1773 14.4363 35.2168L14.2803 39.0376C14.2803 39.13 14.3295 39.2056 14.4003 39.2056H14.9103C14.9494 39.1992 14.9847 39.1784 15.0093 39.1473C15.0339 39.1163 15.0461 39.0772 15.0435 39.0376L15.2031 35.2168C15.2031 35.1244 15.1491 35.0488 15.0795 35.0488Z" fill="#F0F0F0"/>
<path d="M10.5619 39.2061H12.3271V34.7385H10.5619V39.2061Z" fill="#FAFAFA"/>
<path d="M12.4857 34.7373H12.2061C12.1365 34.7373 12.0801 34.7937 12.0801 34.8633V39.0789C12.0801 39.1485 12.1365 39.2049 12.2061 39.2049H12.4857C12.5553 39.2049 12.6117 39.1485 12.6117 39.0789V34.8633C12.6117 34.7937 12.5553 34.7373 12.4857 34.7373Z" fill="#F0F0F0"/>
<path d="M9.09289 39.2061H11.0381V34.2825H9.09289V39.2061Z" fill="#FAFAFA"/>
<path d="M11.212 34.2812H10.9048C10.8279 34.2812 10.7656 34.3436 10.7656 34.4205V39.0656C10.7656 39.1425 10.8279 39.2048 10.9048 39.2048H11.212C11.2889 39.2048 11.3512 39.1425 11.3512 39.0656V34.4205C11.3512 34.3436 11.2889 34.2812 11.212 34.2812Z" fill="#F5F5F5"/>
<path d="M8.59473 34.2812H10.2735L10.1403 39.2061H8.59473V34.2812Z" fill="#FAFAFA"/>
<path d="M10.4904 34.2812H10.098C10.044 34.2812 9.99838 34.3713 9.99598 34.4805L9.87598 39.0069C9.87598 39.1161 9.91438 39.2061 9.96838 39.2061H10.356C10.41 39.2061 10.4556 39.1161 10.458 39.0069L10.578 34.4805C10.584 34.3713 10.5432 34.2812 10.4904 34.2812Z" fill="#F0F0F0"/>
<path d="M18.5205 45.8877H20.9961V40.5693H18.5205V45.8877Z" fill="#FAFAFA"/>
<path d="M21.2324 40.5693H20.8136C20.7235 40.5693 20.6504 40.6424 20.6504 40.7325V45.7245C20.6504 45.8147 20.7235 45.8877 20.8136 45.8877H21.2324C21.3225 45.8877 21.3956 45.8147 21.3956 45.7245V40.7325C21.3956 40.6424 21.3225 40.5693 21.2324 40.5693Z" fill="#F0F0F0"/>
<path d="M17.6885 45.8877H20.1641V40.5693H17.6885V45.8877Z" fill="#FAFAFA"/>
<path d="M20.3984 40.5693H19.9796C19.8895 40.5693 19.8164 40.6424 19.8164 40.7325V45.7245C19.8164 45.8147 19.8895 45.8877 19.9796 45.8877H20.3984C20.4885 45.8877 20.5616 45.8147 20.5616 45.7245V40.7325C20.5616 40.6424 20.4885 40.5693 20.3984 40.5693Z" fill="#E6E6E6"/>
<path d="M17.0527 40.5693H19.1887L19.0195 45.8877H17.0527V40.5693Z" fill="#FAFAFA"/>
<path d="M19.4667 40.5693H18.9675C18.8991 40.5693 18.8403 40.6653 18.8367 40.7841L18.6807 45.6729C18.6807 45.7929 18.7287 45.8877 18.8007 45.8877H19.2999C19.3683 45.8877 19.4199 45.7917 19.4295 45.6729L19.5855 40.7841C19.5867 40.6653 19.5339 40.5693 19.4667 40.5693Z" fill="#F0F0F0"/>
<path d="M14.8291 45.8877H16.9688V41.2581H14.8291V45.8877Z" fill="#FAFAFA"/>
<path d="M17.1727 41.2578H16.8115C16.7333 41.2578 16.6699 41.3212 16.6699 41.3994V45.7458C16.6699 45.824 16.7333 45.8874 16.8115 45.8874H17.1727C17.2509 45.8874 17.3143 45.824 17.3143 45.7458V41.3994C17.3143 41.3212 17.2509 41.2578 17.1727 41.2578Z" fill="#F0F0F0"/>
<path d="M14.1094 45.8877H16.249V41.2581H14.1094V45.8877Z" fill="#FAFAFA"/>
<path d="M16.453 41.2578H16.0918C16.0136 41.2578 15.9502 41.3212 15.9502 41.3994V45.7458C15.9502 45.824 16.0136 45.8874 16.0918 45.8874H16.453C16.5312 45.8874 16.5946 45.824 16.5946 45.7458V41.3994C16.5946 41.3212 16.5312 41.2578 16.453 41.2578Z" fill="#E6E6E6"/>
<path d="M13.5625 41.2578H15.4081L15.2617 45.8874H13.5625V41.2578Z" fill="#FAFAFA"/>
<path d="M15.6468 41.2578H15.216C15.1572 41.2578 15.1068 41.3418 15.1032 41.445L14.9688 45.7002C14.9688 45.8034 15.0096 45.8874 15.0684 45.8874H15.5003C15.5592 45.8874 15.6096 45.8034 15.612 45.7002L15.7475 41.445C15.7511 41.3418 15.7056 41.2578 15.6468 41.2578Z" fill="#F0F0F0"/>
<path d="M30.0002 51.3076C42.8501 51.3076 53.267 50.6994 53.267 49.9492C53.267 49.199 42.8501 48.5908 30.0002 48.5908C17.1503 48.5908 6.7334 49.199 6.7334 49.9492C6.7334 50.6994 17.1503 51.3076 30.0002 51.3076Z" fill="#F5F5F5"/>
<path d="M27.6151 49.6343C27.6272 49.6713 27.6301 49.7107 27.6236 49.7491C27.6171 49.7875 27.6014 49.8237 27.5778 49.8546C27.5541 49.8856 27.5234 49.9103 27.488 49.9267C27.4527 49.9431 27.414 49.9506 27.3751 49.9487H10.6591C10.1371 49.9487 10.1371 46.5491 10.6591 46.5491H27.3799C27.4186 46.5472 27.4572 46.5548 27.4924 46.5711C27.5276 46.5875 27.5583 46.6121 27.5819 46.6429C27.6055 46.6736 27.6213 46.7097 27.6279 46.7479C27.6345 46.7861 27.6318 46.8254 27.6199 46.8623C27.4111 47.5103 27.4111 48.9875 27.6151 49.6343Z" fill="#00AAD3"/>
<path opacity="0.8" d="M27.5917 46.9463H17.4481C17.0485 46.9463 17.0485 49.5515 17.4481 49.5515H27.5917C27.4201 48.8975 27.4201 47.5991 27.5917 46.9463Z" fill="white"/>
<path opacity="0.2" d="M16.9423 49.6343C16.9544 49.6713 16.9573 49.7107 16.9508 49.7491C16.9443 49.7875 16.9286 49.8237 16.905 49.8546C16.8813 49.8856 16.8506 49.9103 16.8152 49.9267C16.7799 49.9431 16.7412 49.9506 16.7023 49.9487H10.6591C10.1371 49.9487 10.1371 46.5491 10.6591 46.5491H16.7071C16.7458 46.5472 16.7844 46.5548 16.8196 46.5711C16.8548 46.5875 16.8855 46.6121 16.9091 46.6429C16.9327 46.6736 16.9485 46.7097 16.9551 46.7479C16.9617 46.7861 16.959 46.8254 16.9471 46.8623C16.7383 47.5103 16.7383 48.9875 16.9423 49.6343Z" fill="black"/>
<path d="M13.2375 46.5498H11.8563C11.3343 46.5498 11.3343 49.9494 11.8563 49.9494H13.2375C12.7203 49.9494 12.7203 46.5498 13.2375 46.5498Z" fill="#00AAD3"/>
<path d="M14.3255 46.5498H13.7831C13.2611 46.5498 13.2611 49.9494 13.7831 49.9494H14.3255C13.7999 49.9494 13.7999 46.5498 14.3255 46.5498Z" fill="#00AAD3"/>
<path d="M9.68508 46.2676C9.62748 46.4068 9.76908 46.5496 9.96108 46.5496H24.9947C25.6079 46.5496 25.6079 43.4932 24.9947 43.4932H9.95988C9.76788 43.4932 9.62628 43.6348 9.68388 43.7752C9.92388 44.3572 9.92388 45.6856 9.68508 46.2676Z" fill="#263238"/>
<path opacity="0.2" d="M9.68508 46.2676C9.62748 46.4068 9.76908 46.5496 9.96108 46.5496H17.3327C17.9459 46.5496 17.9459 43.4932 17.3327 43.4932H9.95988C9.76788 43.4932 9.62628 43.6348 9.68388 43.7752C9.92388 44.3572 9.92388 45.6856 9.68508 46.2676Z" fill="black"/>
<path opacity="0.8" d="M9.71191 43.8496H17.0319C17.5011 43.8496 17.5011 46.192 17.0319 46.192H9.71191C9.91351 45.6004 9.91351 44.4376 9.71191 43.8496Z" fill="white"/>
<path opacity="0.2" d="M19.4622 44.1748C19.4166 44.0392 19.5486 43.9072 19.731 43.9072H23.9394C24.3858 43.9072 24.3858 46.1344 23.9394 46.1344H19.731C19.5486 46.1344 19.4166 46.0036 19.4622 45.868C19.6062 45.3128 19.6062 44.73 19.4622 44.1748Z" fill="white"/>
<path d="M49.8879 44.9036C49.9012 44.9442 49.905 44.9873 49.899 45.0295C49.8931 45.0718 49.8775 45.1122 49.8535 45.1475C49.8296 45.1829 49.7978 45.2122 49.7607 45.2334C49.7236 45.2545 49.6821 45.2669 49.6395 45.2696H31.9755C31.4235 45.2696 31.4235 41.3096 31.9755 41.3096H49.6395C49.6815 41.3125 49.7222 41.3248 49.7587 41.3456C49.7952 41.3664 49.8266 41.3951 49.8505 41.4297C49.8743 41.4643 49.8901 41.5038 49.8966 41.5454C49.9031 41.5869 49.9001 41.6293 49.8879 41.6696C49.6731 42.4316 49.6731 44.1512 49.8879 44.9036Z" fill="#00AAD3"/>
<path opacity="0.5" d="M49.8879 44.9036C49.9012 44.9442 49.905 44.9873 49.899 45.0295C49.8931 45.0718 49.8775 45.1122 49.8535 45.1475C49.8296 45.1829 49.7978 45.2122 49.7607 45.2334C49.7236 45.2545 49.6821 45.2669 49.6395 45.2696H31.9755C31.4235 45.2696 31.4235 41.3096 31.9755 41.3096H49.6395C49.6815 41.3125 49.7222 41.3248 49.7587 41.3456C49.7952 41.3664 49.8266 41.3951 49.8505 41.4297C49.8743 41.4643 49.8901 41.5038 49.8966 41.5454C49.9031 41.5869 49.9001 41.6293 49.8879 41.6696C49.6731 42.4316 49.6731 44.1512 49.8879 44.9036Z" fill="white"/>
<path opacity="0.8" d="M49.8631 41.7744H39.1459C38.7235 41.7744 38.7235 44.8056 39.1459 44.8056H49.8631C49.6795 44.046 49.6795 42.5352 49.8631 41.7744Z" fill="white"/>
<path opacity="0.6" d="M38.6127 44.9036C38.626 44.9442 38.6298 44.9873 38.6238 45.0295C38.6179 45.0718 38.6023 45.1122 38.5783 45.1475C38.5543 45.1829 38.5226 45.2122 38.4855 45.2334C38.4484 45.2545 38.4069 45.2669 38.3643 45.2696H31.9755C31.4235 45.2696 31.4235 41.3096 31.9755 41.3096H38.3643C38.4063 41.3125 38.447 41.3248 38.4835 41.3456C38.52 41.3664 38.5514 41.3951 38.5753 41.4297C38.5991 41.4643 38.6149 41.5038 38.6214 41.5454C38.6279 41.5869 38.6249 41.6293 38.6127 41.6696C38.4003 42.4316 38.4003 44.1512 38.6127 44.9036Z" fill="#00AAD3"/>
<path opacity="0.5" d="M36.0202 41.6053C36.0328 41.5743 36.0378 41.5408 36.035 41.5075C36.0322 41.4742 36.0216 41.442 36.0041 41.4135C35.9866 41.385 35.9627 41.361 35.9342 41.3435C35.9057 41.3259 35.8736 41.3153 35.8402 41.3125H33.4042C32.8522 41.3125 32.8522 45.2725 33.4042 45.2725H35.8402C35.8736 45.2695 35.9058 45.2587 35.9342 45.241C35.9627 45.2234 35.9866 45.1993 36.0041 45.1707C36.0216 45.1422 36.0322 45.1099 36.035 45.0765C36.0378 45.0432 36.0327 45.0096 36.0202 44.9785C35.7742 44.2429 35.7742 42.3385 36.0202 41.6053Z" fill="white"/>
<path d="M48.6199 49.5133C48.6341 49.5659 48.6356 49.6212 48.6242 49.6745C48.6128 49.7278 48.5889 49.7777 48.5544 49.8199C48.5199 49.8621 48.4759 49.8955 48.4259 49.9173C48.376 49.9391 48.3215 49.9487 48.2671 49.9453H29.9143C29.1307 49.9453 29.1295 45.2653 29.9143 45.2653H48.2743C48.3287 45.2619 48.3832 45.2715 48.4331 45.2933C48.4831 45.3151 48.5271 45.3485 48.5616 45.3908C48.5961 45.433 48.62 45.4828 48.6314 45.5361C48.6428 45.5894 48.6413 45.6447 48.6271 45.6973C48.3139 46.5889 48.3151 48.6229 48.6199 49.5133Z" fill="#00AAD3"/>
<path opacity="0.2" d="M48.6199 49.5133C48.6341 49.5659 48.6356 49.6212 48.6242 49.6745C48.6128 49.7278 48.5889 49.7777 48.5544 49.8199C48.5199 49.8621 48.4759 49.8955 48.4259 49.9173C48.376 49.9391 48.3215 49.9487 48.2671 49.9453H29.9143C29.1307 49.9453 29.1295 45.2653 29.9143 45.2653H48.2743C48.3287 45.2619 48.3832 45.2715 48.4331 45.2933C48.4831 45.3151 48.5271 45.3485 48.5616 45.3908C48.5961 45.433 48.62 45.4828 48.6314 45.5361C48.6428 45.5894 48.6413 45.6447 48.6271 45.6973C48.3139 46.5889 48.3151 48.6229 48.6199 49.5133Z" fill="white"/>
<path opacity="0.8" d="M48.5845 45.8125H37.4881C36.8881 45.8125 36.8881 49.3981 37.4881 49.3981H48.5857C48.3289 48.4993 48.3289 46.7125 48.5845 45.8125Z" fill="white"/>
<path opacity="0.6" d="M36.7291 49.5162C36.7436 49.5688 36.7453 49.624 36.734 49.6774C36.7228 49.7307 36.699 49.7806 36.6646 49.8228C36.6302 49.8651 36.5862 49.8985 36.5363 49.9203C36.4863 49.9422 36.4319 49.9517 36.3775 49.9483H29.9143C29.1307 49.9483 29.1295 45.2683 29.9143 45.2683H36.3775C36.4319 45.2648 36.4864 45.2744 36.5363 45.2963C36.5863 45.3181 36.6303 45.3515 36.6648 45.3937C36.6993 45.4359 36.7232 45.4857 36.7346 45.5391C36.746 45.5924 36.7445 45.6476 36.7303 45.7002C36.4243 46.5918 36.4243 48.6246 36.7291 49.5162Z" fill="#00AAD3"/>
<path opacity="0.5" d="M32.8583 45.431C32.8683 45.4139 32.8734 45.3943 32.873 45.3745C32.8726 45.3546 32.8668 45.3353 32.8561 45.3185C32.8455 45.3018 32.8304 45.2883 32.8126 45.2796C32.7948 45.2708 32.7749 45.2672 32.7551 45.269H31.6571C30.8747 45.269 30.8747 49.949 31.6571 49.949H32.7599C32.7797 49.9508 32.7996 49.9472 32.8174 49.9384C32.8352 49.9297 32.8503 49.9162 32.8609 49.8995C32.8716 49.8828 32.8774 49.8634 32.8778 49.8436C32.8782 49.8237 32.8731 49.8042 32.8631 49.787C32.3867 49.0634 32.3867 46.1534 32.8583 45.431Z" fill="white"/>
<path opacity="0.5" d="M34.5722 45.4311C34.5821 45.4139 34.5871 45.3943 34.5866 45.3744C34.5862 45.3546 34.5804 45.3352 34.5697 45.3184C34.5591 45.3016 34.5441 45.2881 34.5264 45.2792C34.5086 45.2703 34.4888 45.2664 34.469 45.2679H33.371C32.5886 45.2679 32.5886 49.9479 33.371 49.9479H34.469C34.4886 49.9495 34.5084 49.9457 34.526 49.9368C34.5436 49.928 34.5585 49.9145 34.569 49.8978C34.5796 49.8811 34.5853 49.8618 34.5856 49.8421C34.586 49.8224 34.5809 49.803 34.571 49.7859C34.1006 49.0635 34.1006 46.1523 34.5722 45.4311Z" fill="white"/>
<path d="M48.4406 38.8227C48.4193 38.4895 48.341 38.1623 48.209 37.8555L48.317 37.8027C48.4542 38.1225 48.5353 38.4635 48.557 38.8107L48.4406 38.8227Z" fill="#00AAD3"/>
<path d="M47.6878 37.3359H44.707V37.4559H47.6878V37.3359Z" fill="#00AAD3"/>
<path d="M28.2609 40.9851C28.1997 41.1483 28.3497 41.3127 28.5525 41.3127H47.6877C48.3345 41.3127 48.3345 37.7559 47.6877 37.7559H28.5525C28.3497 37.7559 28.1997 37.9215 28.2609 38.0847C28.5129 38.7603 28.5129 40.3071 28.2609 40.9851Z" fill="#00AAD3"/>
<path opacity="0.2" d="M28.2609 40.9851C28.1997 41.1483 28.3497 41.3127 28.5525 41.3127H39.5925C40.2405 41.3127 40.2405 37.7559 39.5925 37.7559H28.5525C28.3497 37.7559 28.1997 37.9215 28.2609 38.0847C28.5129 38.7603 28.5129 40.3071 28.2609 40.9851Z" fill="black"/>
<path opacity="0.8" d="M28.29 38.1719H39.2724C39.7692 38.1719 39.7692 40.8971 39.2724 40.8971H28.29C28.5024 40.2131 28.5024 38.8559 28.29 38.1719Z" fill="white"/>
<path opacity="0.2" d="M41.8425 38.5489C41.7945 38.3917 41.9337 38.2393 42.1257 38.2393H46.5729C47.0445 38.2393 47.0445 40.8301 46.5729 40.8301H42.1257C41.9337 40.8301 41.7945 40.6777 41.8425 40.5193C41.9997 40.0213 41.9997 39.0481 41.8425 38.5489Z" fill="white"/>
<path d="M26.4714 11.7604C25.9302 12.34 24.609 11.7604 24.4074 13.3564C24.189 15.0772 25.017 15.904 23.9478 16.3564C22.2678 17.0584 21.0678 19.864 23.4006 20.9164C25.7334 21.9688 30.7014 20.866 30.1422 18.7216C29.583 16.5772 29.6934 15.4264 30.3534 14.416C31.2234 13.0804 31.0374 11.3644 30.3282 10.7428C29.2242 9.77085 27.699 10.4404 26.4714 11.7604Z" fill="#263238"/>
<path d="M29.359 18.6641C29.3499 18.6645 29.3409 18.6613 29.334 18.6553C29.3271 18.6493 29.3227 18.6409 29.3218 18.6317C29.321 18.6269 29.3211 18.622 29.3223 18.6172C29.3234 18.6124 29.3255 18.608 29.3284 18.604C29.3313 18.6001 29.335 18.5968 29.3392 18.5943C29.3435 18.5919 29.3482 18.5903 29.353 18.5897C29.8162 18.5261 30.0922 18.4121 30.2218 18.2297C30.3826 18.0029 30.313 17.6657 30.2218 17.2385C30.0802 16.5437 29.8846 15.5921 30.5086 14.3897C31.2658 12.9317 30.9886 11.3333 30.2794 10.8101C30.2715 10.8044 30.2662 10.7957 30.2646 10.7861C30.2631 10.7764 30.2654 10.7665 30.271 10.7585C30.277 10.7506 30.2859 10.7452 30.2957 10.7436C30.3056 10.7421 30.3157 10.7444 30.3238 10.7501C31.063 11.2913 31.3486 12.9329 30.5746 14.4245C29.9638 15.6029 30.1558 16.5401 30.295 17.2241C30.3862 17.6681 30.4582 18.0197 30.2782 18.2729C30.1366 18.4733 29.845 18.5969 29.3602 18.6641H29.359Z" fill="#263238"/>
<path d="M23.3084 16.5855C23.2326 16.5852 23.1568 16.5804 23.0816 16.5711C23.0767 16.5705 23.0719 16.569 23.0676 16.5665C23.0634 16.5641 23.0596 16.5608 23.0566 16.5569C23.0536 16.553 23.0514 16.5485 23.0501 16.5438C23.0488 16.539 23.0485 16.534 23.0492 16.5291C23.0498 16.5242 23.0513 16.5195 23.0538 16.5152C23.0562 16.5109 23.0595 16.5071 23.0634 16.5041C23.0673 16.5011 23.0718 16.4989 23.0765 16.4976C23.0813 16.4963 23.0863 16.496 23.0912 16.4967C23.432 16.5387 23.6792 16.4883 23.846 16.3419C24.158 16.0671 24.1628 15.4923 24.1664 14.8263C24.1664 14.0727 24.1772 13.2195 24.6656 12.6375C24.6687 12.6337 24.6726 12.6306 24.677 12.6283C24.6813 12.626 24.6861 12.6246 24.691 12.6242C24.6959 12.6237 24.7008 12.6243 24.7055 12.6257C24.7102 12.6272 24.7146 12.6296 24.7184 12.6327C24.7222 12.6359 24.7253 12.6397 24.7276 12.6441C24.7299 12.6484 24.7313 12.6532 24.7317 12.6581C24.7322 12.663 24.7316 12.668 24.7302 12.6727C24.7287 12.6774 24.7263 12.6817 24.7232 12.6855C24.2516 13.2471 24.2432 14.0859 24.2432 14.8275C24.2432 15.5103 24.2348 16.1007 23.8976 16.3983C23.7313 16.5319 23.5212 16.5986 23.3084 16.5855Z" fill="#263238"/>
<path d="M35.0863 37.7538C34.2859 37.7442 33.9715 37.6938 33.6031 37.6998C33.2347 37.7058 33.1471 37.7706 32.7631 37.7538C32.5039 37.743 32.5027 37.4346 32.6023 37.2234C32.6803 37.0578 32.7763 36.891 32.8651 36.6846L33.8803 36.759C34.0171 37.1454 34.6963 37.311 35.2915 37.4478C35.5279 37.5042 35.4067 37.7574 35.0863 37.7538Z" fill="#00AAD3"/>
<path d="M29.7934 23.0117C29.7934 23.0117 32.479 25.3217 35.1934 27.7721C36.3406 28.8101 33.9346 36.7241 33.9346 36.7241C33.8842 36.8933 32.989 36.6521 32.8546 36.5189C32.8546 36.5189 32.7178 30.3761 33.2998 29.1389C27.2806 27.6173 26.3398 24.6617 26.3398 24.6617L26.7718 22.8281L29.7934 23.0117Z" fill="#263238"/>
<path opacity="0.2" d="M26.7373 25.3899C27.0742 25.8608 27.4735 26.2839 27.9241 26.6475C28.5241 25.9455 28.3561 24.8115 28.3561 24.8115L26.7373 25.3899Z" fill="black"/>
<path d="M34.1436 36.3821C34.1268 36.5021 34.098 36.7145 34.0824 36.8717C34.08 36.8972 34.068 36.9208 34.0488 36.9377C34.0296 36.9546 34.0048 36.9636 33.9792 36.9629C33.5776 36.9314 33.1799 36.8623 32.7912 36.7565C32.7725 36.7513 32.7559 36.7402 32.744 36.7249C32.7321 36.7095 32.7255 36.6907 32.7252 36.6713L32.7168 36.2333C32.7167 36.2191 32.7197 36.205 32.7254 36.1919C32.7311 36.1789 32.7395 36.1672 32.75 36.1576C32.7605 36.148 32.7729 36.1407 32.7864 36.1361C32.7999 36.1316 32.8142 36.13 32.8284 36.1313L34.0668 36.2813C34.0786 36.2826 34.09 36.2863 34.1003 36.2922C34.1106 36.298 34.1196 36.3059 34.1268 36.3153C34.1339 36.3247 34.1391 36.3355 34.142 36.347C34.1449 36.3585 34.1455 36.3704 34.1436 36.3821Z" fill="#263238"/>
<path opacity="0.3" d="M34.1436 36.3821C34.1268 36.5021 34.098 36.7145 34.0824 36.8717C34.08 36.8972 34.068 36.9208 34.0488 36.9377C34.0296 36.9546 34.0048 36.9636 33.9792 36.9629C33.5776 36.9314 33.1799 36.8623 32.7912 36.7565C32.7725 36.7513 32.7559 36.7402 32.744 36.7249C32.7321 36.7095 32.7255 36.6907 32.7252 36.6713L32.7168 36.2333C32.7167 36.2191 32.7197 36.205 32.7254 36.1919C32.7311 36.1789 32.7395 36.1672 32.75 36.1576C32.7605 36.148 32.7729 36.1407 32.7864 36.1361C32.7999 36.1316 32.8142 36.13 32.8284 36.1313L34.0668 36.2813C34.0786 36.2826 34.09 36.2863 34.1003 36.2922C34.1106 36.298 34.1196 36.3059 34.1268 36.3153C34.1339 36.3247 34.1391 36.3355 34.142 36.347C34.1449 36.3585 34.1455 36.3704 34.1436 36.3821Z" fill="white"/>
<path d="M23.3361 43.4933C22.5225 43.4933 22.2561 43.1873 21.8013 43.1033C21.4173 43.0313 21.3153 43.0649 21.0057 43.0109C20.7465 42.9653 20.7261 42.7877 20.8857 42.5249C20.9898 42.3432 21.0781 42.1529 21.1497 41.9561L22.3833 42.0377C22.5117 42.3677 22.8081 43.0385 23.2605 43.1177C23.6865 43.2005 23.6601 43.4933 23.3361 43.4933Z" fill="#00AAD3"/>
<path d="M29.6071 23.0047C29.6071 23.0047 26.7691 28.0507 25.6267 31.1719C24.4267 34.4503 22.5163 39.8119 22.3783 42.0379C22.1743 42.1351 21.5047 42.0979 21.1447 41.9563C21.1447 41.9563 20.8111 34.2763 23.1211 31.1995C23.6719 24.6103 24.5863 23.5567 25.5583 22.7539L29.6071 23.0047Z" fill="#263238"/>
<path d="M22.5277 41.5831C22.513 41.735 22.509 41.8878 22.5157 42.0403C22.5174 42.0668 22.5085 42.093 22.4909 42.113C22.4734 42.133 22.4487 42.1452 22.4221 42.1471C21.9625 42.1891 21.3217 42.0415 21.1189 41.9911C21.1001 41.9864 21.0833 41.9756 21.0712 41.9604C21.059 41.9452 21.0522 41.9265 21.0517 41.9071L21.0361 41.4775C21.0359 41.4634 21.0387 41.4493 21.0442 41.4363C21.0497 41.4233 21.0578 41.4116 21.0681 41.4019C21.0783 41.3922 21.0905 41.3847 21.1038 41.38C21.1171 41.3752 21.1313 41.3733 21.1453 41.3743L22.4461 41.4859C22.4579 41.4868 22.4694 41.49 22.4799 41.4954C22.4904 41.5008 22.4998 41.5083 22.5074 41.5173C22.515 41.5264 22.5207 41.5369 22.5242 41.5481C22.5277 41.5594 22.5289 41.5713 22.5277 41.5831Z" fill="#263238"/>
<path opacity="0.3" d="M22.5277 41.5831C22.513 41.735 22.509 41.8878 22.5157 42.0403C22.5174 42.0668 22.5085 42.093 22.4909 42.113C22.4734 42.133 22.4487 42.1452 22.4221 42.1471C21.9625 42.1891 21.3217 42.0415 21.1189 41.9911C21.1001 41.9864 21.0833 41.9756 21.0712 41.9604C21.059 41.9452 21.0522 41.9265 21.0517 41.9071L21.0361 41.4775C21.0359 41.4634 21.0387 41.4493 21.0442 41.4363C21.0497 41.4233 21.0578 41.4116 21.0681 41.4019C21.0783 41.3922 21.0905 41.3847 21.1038 41.38C21.1171 41.3752 21.1313 41.3733 21.1453 41.3743L22.4461 41.4859C22.4579 41.4868 22.4694 41.49 22.4799 41.4954C22.4904 41.5008 22.4998 41.5083 22.5074 41.5173C22.515 41.5264 22.5207 41.5369 22.5242 41.5481C22.5277 41.5594 22.5289 41.5713 22.5277 41.5831Z" fill="white"/>
<path d="M30.3597 18.0546C30.4797 18.2814 30.6093 18.5346 30.7413 18.7746C30.8733 19.0146 31.0065 19.2546 31.1409 19.4886C31.4121 19.9602 31.6953 20.4222 31.9989 20.8578L31.8357 20.7126C31.9562 20.7973 32.0889 20.8628 32.2293 20.907C32.3992 20.964 32.5734 21.0073 32.7501 21.0366C32.9349 21.0702 33.1269 21.093 33.3225 21.111C33.5181 21.129 33.7233 21.1398 33.9105 21.1518H33.9357C34.0137 21.1563 34.0876 21.1878 34.1449 21.2409C34.2021 21.2939 34.2391 21.3653 34.2495 21.4427C34.2599 21.52 34.2429 21.5986 34.2017 21.6649C34.1604 21.7312 34.0973 21.781 34.0233 21.8058C33.8089 21.8772 33.5895 21.9325 33.3669 21.9714C33.1433 22.0112 32.9171 22.0357 32.6901 22.0446C32.4493 22.0539 32.2081 22.0394 31.9701 22.0014C31.7015 21.9609 31.4418 21.8749 31.2021 21.747C31.1523 21.7198 31.108 21.6836 31.0713 21.6402L31.0389 21.6018C30.8481 21.3738 30.6621 21.141 30.4917 20.9022C30.3213 20.6634 30.1545 20.4222 29.9997 20.1822C29.8449 19.9422 29.6949 19.6866 29.5533 19.4334C29.4117 19.1802 29.2773 18.9294 29.1489 18.6522C29.0815 18.4947 29.0768 18.3174 29.1358 18.1565C29.1948 17.9957 29.313 17.8634 29.4662 17.7868C29.6194 17.7101 29.7962 17.6949 29.9603 17.7443C30.1243 17.7936 30.2634 17.9038 30.3489 18.0522L30.3597 18.0546Z" fill="#FFB573"/>
<path d="M29.6975 17.0859C30.4811 17.3439 30.6083 17.6955 31.0379 18.9939C30.7523 19.7727 29.5979 20.1675 29.5979 20.1675C29.5979 20.1675 28.2347 17.9475 29.6975 17.0859Z" fill="#00AAD3"/>
<path d="M30.7696 18.7757C30.7252 19.2053 30.6148 19.7177 30.3832 20.7245C30.2032 21.5789 30.2008 23.2445 29.9128 23.3321C29.3596 23.6057 27.9748 23.5001 25.558 22.7537C25.6348 21.5057 25.78 20.6585 25.3648 17.7953C25.3387 17.6452 25.3463 17.4912 25.3872 17.3444C25.4281 17.1976 25.5013 17.0618 25.6013 16.9469C25.7013 16.8319 25.8256 16.7407 25.9653 16.6799C26.105 16.6191 26.2565 16.5902 26.4088 16.5953C26.584 16.5953 26.7688 16.6097 26.9572 16.6265C27.6219 16.6665 28.2828 16.7543 28.9348 16.8893C29.1472 16.9373 29.3668 16.9937 29.5756 17.0513C29.9433 17.1563 30.2633 17.3856 30.481 17.7C30.6987 18.0144 30.8007 18.3945 30.7696 18.7757Z" fill="#00AAD3"/>
<path d="M22.3105 23.739L22.5505 23.5194C22.5952 23.4785 22.6294 23.4276 22.6503 23.3708C22.6711 23.314 22.6781 23.253 22.6705 23.193L22.6045 22.6206C22.5919 22.5081 22.5526 22.4002 22.49 22.3059C22.4274 22.2115 22.3433 22.1335 22.2445 22.0782L22.1245 22.0098C21.6961 22.347 21.4813 23.0262 21.4813 23.0262L21.3985 23.2134C21.3803 23.2512 21.3698 23.2923 21.3676 23.3342C21.3654 23.3762 21.3716 23.4181 21.3858 23.4577C21.4 23.4972 21.4219 23.5335 21.4502 23.5645C21.4786 23.5955 21.5128 23.6205 21.5509 23.6382L21.9193 23.8062C21.9841 23.8338 22.0554 23.8421 22.1248 23.8302C22.1942 23.8183 22.2587 23.7866 22.3105 23.739Z" fill="#FFB573"/>
<path d="M34.9062 20.8564L34.599 20.7364C34.5421 20.7149 34.481 20.7074 34.4206 20.7145C34.3603 20.7216 34.3025 20.7431 34.2522 20.7772L33.7722 21.0988C33.678 21.1622 33.6004 21.2472 33.5458 21.3468C33.4913 21.4465 33.4616 21.5577 33.459 21.6712V21.814C33.9546 22.0396 34.659 21.9172 34.659 21.9172L34.863 21.9052C34.905 21.9038 34.9462 21.8941 34.9845 21.8767C35.0227 21.8593 35.0571 21.8344 35.0856 21.8036C35.1142 21.7728 35.1364 21.7367 35.1509 21.6973C35.1654 21.6579 35.172 21.616 35.1702 21.574L35.151 21.1696C35.1454 21.0991 35.1193 21.0318 35.0757 20.9762C35.0322 20.9205 34.9732 20.8788 34.9062 20.8564Z" fill="#FFB573"/>
<path d="M26.0805 18.182L25.9269 18.2528L25.7589 18.3296C25.6473 18.3836 25.5369 18.44 25.4265 18.4976C25.2045 18.6176 24.9885 18.7376 24.7761 18.8636C24.5637 18.9896 24.3585 19.13 24.1593 19.2728C23.9601 19.4156 23.7753 19.5716 23.5953 19.7312L23.6745 19.6304C23.616 19.7165 23.5646 19.8072 23.5209 19.9016C23.4681 20.0108 23.4189 20.1296 23.3709 20.2508C23.2749 20.4908 23.1813 20.7476 23.0949 21.0056C23.0085 21.2636 22.9209 21.5252 22.8357 21.7868L22.5765 22.5752C22.5514 22.6527 22.499 22.7184 22.4291 22.7601C22.3591 22.8018 22.2765 22.8167 22.1964 22.802C22.1163 22.7874 22.0442 22.7441 21.9937 22.6803C21.9431 22.6165 21.9173 22.5366 21.9213 22.4552C21.9345 22.166 21.9609 21.8852 21.9933 21.602C22.0257 21.3188 22.0665 21.0368 22.1133 20.7536C22.1601 20.4704 22.2213 20.186 22.2993 19.898C22.3377 19.754 22.3797 19.61 22.4325 19.4588C22.4883 19.2924 22.5598 19.1317 22.6461 18.9788C22.6612 18.9538 22.6785 18.9301 22.6977 18.908L22.7265 18.878C22.9242 18.6601 23.1358 18.4553 23.3601 18.2648C23.5811 18.077 23.8127 17.9019 24.0537 17.7404C24.2915 17.5792 24.5379 17.431 24.7917 17.2964C24.9189 17.2292 25.0473 17.1656 25.1781 17.1032C25.2441 17.0732 25.3089 17.042 25.3773 17.0132C25.4457 16.9844 25.5081 16.9592 25.5933 16.9268C25.7567 16.8615 25.9393 16.863 26.1016 16.931C26.2639 16.9991 26.393 17.1282 26.461 17.2905C26.529 17.4528 26.5305 17.6353 26.4652 17.7988C26.3998 17.9622 26.2729 18.0934 26.1117 18.164L26.0805 18.182Z" fill="#FFB573"/>
<path d="M27.2398 16.9069C26.6518 16.4857 26.2942 16.4401 24.871 17.0581C24.7018 17.9533 25.2562 19.2673 25.2562 19.2673C25.2562 19.2673 27.1498 18.2809 27.2398 16.9069Z" fill="#00AAD3"/>
<path d="M27.3928 14.4141C27.4804 15.0729 27.5368 16.2669 27.0664 16.6365C27.0664 16.6365 27.6808 16.6257 28.8556 17.5869C29.296 17.1069 29.044 16.8993 29.044 16.8993C28.3444 16.6341 28.3936 16.1049 28.546 15.6213L27.3928 14.4141Z" fill="#FFB573"/>
<path d="M28.6076 17.3919C28.1792 17.3919 27.962 18.0147 27.962 18.0147C27.962 18.0147 26.9324 17.1939 26.792 16.6167C26.9287 16.5615 27.0625 16.4995 27.1928 16.4307C27.1928 16.4307 28.394 17.1159 28.6076 17.3919Z" fill="white"/>
<path d="M29.0176 17.3769C29.0176 17.3769 29.3416 17.4969 29.4484 17.9769C29.668 17.0625 29.2396 16.9185 29.2396 16.9185C29.1323 16.838 28.9988 16.8004 28.8652 16.8129C28.9528 16.8741 29.0161 16.9641 29.044 17.0672C29.0718 17.1703 29.0625 17.28 29.0176 17.3769Z" fill="white"/>
<path opacity="0.2" d="M27.8633 14.9053L28.5449 15.6253C28.5078 15.7378 28.4809 15.8535 28.4645 15.9709C28.1957 15.8953 27.8405 15.5461 27.8285 15.2509C27.8187 15.1345 27.8305 15.0173 27.8633 14.9053Z" fill="black"/>
<path d="M26.6542 13.4549C26.8942 14.4797 26.9818 14.9177 27.5974 15.3857C28.5226 16.0889 29.7238 15.6329 29.7886 14.5721C29.8462 13.6121 29.4358 12.1001 28.3486 11.8121C28.1182 11.7428 27.8735 11.7363 27.6398 11.7933C27.4061 11.8502 27.1918 11.9685 27.019 12.136C26.8463 12.3034 26.7214 12.514 26.6573 12.7458C26.5932 12.9777 26.5921 13.2225 26.6542 13.4549Z" fill="#FFB573"/>
<path d="M26.8541 14.1918C27.2309 14.007 27.6305 13.0986 27.0941 12.669C27.5369 12.7518 28.0445 12.633 28.5137 12.2706C29.1257 11.7906 30.0269 12.9822 29.7305 12.2826C29.3033 11.2746 28.0157 11.0226 26.8505 11.8602C25.6853 12.6978 25.7681 13.7166 26.8541 14.1918Z" fill="#263238"/>
<path d="M26.5349 13.9864C26.5308 13.986 26.5269 13.9843 26.5239 13.9815C26.5208 13.9788 26.5188 13.9751 26.518 13.9711C26.5171 13.967 26.5177 13.9629 26.5194 13.9591C26.5211 13.9554 26.524 13.9524 26.5277 13.9504C26.8277 13.8208 28.1009 13.5496 28.1549 13.5388C28.1573 13.5381 28.1599 13.5379 28.1624 13.5383C28.1649 13.5386 28.1673 13.5395 28.1695 13.5409C28.1717 13.5422 28.1735 13.544 28.1749 13.5462C28.1763 13.5483 28.1773 13.5507 28.1777 13.5532C28.1784 13.558 28.1773 13.5628 28.1747 13.5668C28.172 13.5708 28.1679 13.5737 28.1633 13.5748C28.1501 13.5748 26.8433 13.8568 26.5421 13.9852L26.5349 13.9864Z" fill="white"/>
<path opacity="0.2" d="M28.0794 13.5607C27.9508 13.5041 27.805 13.5007 27.6738 13.5511C27.8071 13.5806 27.9449 13.5839 28.0794 13.5607Z" fill="black"/>
<path opacity="0.2" d="M28.069 13.652C28.0066 13.6389 27.942 13.6395 27.8799 13.6538C27.8177 13.6681 27.7594 13.6957 27.709 13.7348C27.8335 13.7329 27.9561 13.7046 28.069 13.652Z" fill="black"/>
<path d="M28.3033 13.5458C28.3201 13.6334 28.3789 13.6982 28.4353 13.691C28.4917 13.6838 28.5229 13.6082 28.5061 13.5206C28.4893 13.433 28.4293 13.3694 28.3741 13.3754C28.3189 13.3814 28.2865 13.4594 28.3033 13.5458Z" fill="#263238"/>
<path d="M29.3561 13.4317C29.3729 13.5181 29.4329 13.5829 29.4881 13.5769C29.5433 13.5709 29.5757 13.4929 29.5589 13.4065C29.5421 13.3201 29.4833 13.2541 29.4269 13.2613C29.3705 13.2685 29.3393 13.3441 29.3561 13.4317Z" fill="#263238"/>
<path d="M29.3994 13.27L29.5938 13.1836C29.5938 13.1836 29.5194 13.36 29.3994 13.27Z" fill="#263238"/>
<path d="M29.1602 13.5986C29.264 13.7944 29.3922 13.9762 29.5418 14.1398C29.5009 14.1742 29.4528 14.199 29.4011 14.2125C29.3495 14.226 29.2954 14.2278 29.243 14.2178L29.1602 13.5986Z" fill="#ED893E"/>
<path d="M28.7819 14.6053C28.8302 14.6094 28.8788 14.6094 28.9271 14.6053C28.9304 14.6048 28.9336 14.6037 28.9364 14.602C28.9392 14.6003 28.9417 14.598 28.9436 14.5953C28.9455 14.5926 28.9469 14.5896 28.9475 14.5863C28.9482 14.5831 28.9482 14.5797 28.9475 14.5765C28.9463 14.5696 28.9426 14.5634 28.937 14.5592C28.9314 14.5549 28.9245 14.553 28.9175 14.5537C28.8089 14.5668 28.6987 14.5557 28.5949 14.521C28.4912 14.4864 28.3964 14.4291 28.3175 14.3533C28.3152 14.3509 28.3124 14.349 28.3093 14.3477C28.3062 14.3464 28.3029 14.3457 28.2995 14.3457C28.2961 14.3457 28.2928 14.3464 28.2897 14.3477C28.2866 14.349 28.2838 14.3509 28.2815 14.3533C28.2769 14.3582 28.2744 14.3646 28.2744 14.3713C28.2744 14.3779 28.2769 14.3844 28.2815 14.3893C28.4165 14.5197 28.5944 14.5965 28.7819 14.6053Z" fill="#263238"/>
<path d="M26.4103 14.3724C26.4681 14.4549 26.5425 14.5245 26.6286 14.5767C26.7147 14.629 26.8108 14.6628 26.9107 14.676C27.1603 14.6964 27.2143 14.406 27.0871 14.148C26.9731 13.9164 26.7055 13.6248 26.4871 13.7256C26.2687 13.8264 26.2483 14.16 26.4103 14.3724Z" fill="#FFB573"/>
<path d="M27.9657 12.885C27.9724 12.885 27.979 12.8835 27.985 12.8806C27.991 12.8777 27.9963 12.8735 28.0005 12.8682C28.0391 12.8188 28.0893 12.7797 28.1467 12.7543C28.204 12.729 28.2668 12.7182 28.3293 12.723C28.3358 12.724 28.3424 12.7237 28.3488 12.722C28.3551 12.7204 28.3611 12.7174 28.3663 12.7134C28.3714 12.7093 28.3757 12.7043 28.3789 12.6985C28.382 12.6927 28.3839 12.6864 28.3845 12.6798C28.385 12.666 28.3806 12.6525 28.372 12.6417C28.3634 12.6309 28.3512 12.6236 28.3377 12.621C28.2587 12.614 28.1793 12.6267 28.1064 12.6579C28.0335 12.6891 27.9695 12.7378 27.9201 12.7998C27.9143 12.808 27.9109 12.8176 27.9103 12.8277C27.9096 12.8377 27.9118 12.8477 27.9165 12.8565C27.9213 12.8654 27.9284 12.8727 27.9371 12.8778C27.9458 12.8828 27.9557 12.8853 27.9657 12.885Z" fill="#263238"/>
<path d="M29.5508 12.8406C29.5572 12.8413 29.5637 12.8407 29.5699 12.8389C29.5761 12.837 29.5818 12.834 29.5868 12.8298C29.5916 12.8251 29.5954 12.8195 29.598 12.8133C29.6006 12.8072 29.6019 12.8005 29.6019 12.7938C29.6019 12.7871 29.6006 12.7805 29.598 12.7743C29.5954 12.7681 29.5916 12.7625 29.5868 12.7578C29.535 12.6927 29.4688 12.6404 29.3935 12.605C29.3181 12.5697 29.2356 12.5521 29.1524 12.5538C29.1458 12.5544 29.1393 12.5563 29.1335 12.5595C29.1277 12.5628 29.1226 12.5672 29.1186 12.5725C29.1147 12.5779 29.1119 12.584 29.1105 12.5905C29.109 12.597 29.109 12.6037 29.1104 12.6102C29.1125 12.6238 29.1195 12.6361 29.1302 12.6447C29.1408 12.6534 29.1543 12.6578 29.168 12.657C29.234 12.6563 29.2992 12.6708 29.3587 12.6993C29.4182 12.7278 29.4704 12.7696 29.5112 12.8214C29.516 12.8273 29.522 12.8321 29.5289 12.8355C29.5357 12.8388 29.5432 12.8405 29.5508 12.8406Z" fill="#263238"/>
<path d="M28.6278 14.0901C28.3746 14.0901 28.155 13.8213 28.131 13.4769C28.1165 13.3147 28.1539 13.1521 28.2378 13.0125C28.2709 12.9534 28.3177 12.903 28.3743 12.8656C28.4309 12.8282 28.4956 12.805 28.563 12.7977C28.8282 12.7797 29.061 13.0545 29.0862 13.4109C29.1114 13.7673 28.9158 14.0709 28.653 14.0889L28.6278 14.0901ZM28.5882 12.8409H28.5666C28.5049 12.848 28.4457 12.8696 28.3939 12.9041C28.3422 12.9385 28.2994 12.9847 28.269 13.0389C28.1893 13.1717 28.154 13.3263 28.1682 13.4805C28.191 13.8153 28.4082 14.0733 28.6482 14.0577C28.8882 14.0421 29.0694 13.7541 29.0466 13.4193C29.0238 13.0845 28.8222 12.8409 28.5882 12.8409Z" fill="white"/>
<path d="M29.7499 14.0245C29.4967 14.0245 29.2759 13.7569 29.2519 13.4125C29.2379 13.2503 29.2753 13.0878 29.3587 12.9481C29.3921 12.8889 29.4391 12.8385 29.4959 12.8012C29.5527 12.7638 29.6175 12.7405 29.6851 12.7333C29.9479 12.7153 30.1831 12.9901 30.2071 13.3453C30.221 13.5074 30.1837 13.6699 30.1003 13.8097C30.067 13.869 30.02 13.9194 29.9632 13.9568C29.9064 13.9942 29.8415 14.0174 29.7739 14.0245H29.7499ZM29.7103 12.7705H29.6875C29.6257 12.7775 29.5666 12.7992 29.5148 12.8336C29.4631 12.868 29.4203 12.9142 29.3899 12.9685C29.3113 13.1016 29.2761 13.256 29.2891 13.4101C29.3119 13.7341 29.5159 13.9873 29.7499 13.9873H29.7715C29.8333 13.9805 29.8926 13.9589 29.9444 13.9245C29.9962 13.89 30.0389 13.8437 30.0691 13.7893C30.1481 13.6567 30.1834 13.5026 30.1699 13.3489C30.1471 13.0237 29.9431 12.7705 29.7103 12.7705Z" fill="white"/>
<path d="M29.2792 13.4623C29.276 13.4621 29.2729 13.4612 29.2702 13.4595C29.2675 13.4578 29.2652 13.4555 29.2636 13.4527C29.218 13.3807 29.0848 13.4587 29.0836 13.4587C29.0816 13.46 29.0793 13.4609 29.0769 13.4613C29.0745 13.4617 29.0721 13.4616 29.0697 13.4611C29.0674 13.4605 29.0652 13.4595 29.0632 13.4581C29.0613 13.4566 29.0597 13.4548 29.0584 13.4527C29.0554 13.4492 29.0537 13.4448 29.0537 13.4401C29.0537 13.4355 29.0554 13.431 29.0584 13.4275C29.0656 13.4275 29.224 13.3291 29.2888 13.4275C29.2903 13.4295 29.2914 13.4318 29.2919 13.4342C29.2924 13.4366 29.2923 13.4391 29.2918 13.4415C29.2912 13.4439 29.2901 13.4462 29.2885 13.4481C29.287 13.4501 29.285 13.4516 29.2828 13.4527C29.2829 13.4545 29.2826 13.4562 29.282 13.4579C29.2814 13.4595 29.2804 13.461 29.2792 13.4623Z" fill="white"/>
<path d="M28.3496 13.384L28.5428 13.2988C28.5428 13.2988 28.4696 13.4752 28.3496 13.384Z" fill="#263238"/>
</svg>
