<svg width="60" height="60" viewBox="0 0 60 60" fill="none" xmlns="http://www.w3.org/2000/svg">
<path d="M11.1144 10.3964L17.0844 22.5464C17.1142 22.6075 17.1316 22.6739 17.1357 22.7418C17.1398 22.8097 17.1304 22.8777 17.1081 22.9419C17.0858 23.0062 17.051 23.0654 17.0057 23.1161C16.9605 23.1668 16.9057 23.2082 16.8444 23.2376C16.7833 23.2673 16.717 23.2846 16.6493 23.2885C16.5816 23.2925 16.5137 23.2831 16.4496 23.2608C16.3855 23.2385 16.3264 23.2038 16.2758 23.1586C16.2251 23.1135 16.1839 23.0588 16.1544 22.9976L10.188 10.8524C10.1582 10.7913 10.1407 10.7249 10.1367 10.6571C10.1326 10.5892 10.142 10.5212 10.1643 10.4569C10.1866 10.3927 10.2214 10.3335 10.2666 10.2828C10.3119 10.232 10.3667 10.1907 10.428 10.1612C10.5504 10.1025 10.6909 10.0943 10.8193 10.1383C10.9478 10.1823 11.0537 10.275 11.1144 10.3964Z" fill="#E0E0E0"/>
<path d="M15.3345 19.2354L16.5645 21.7383L17.1902 21.4308L15.9602 18.9279L15.3345 19.2354Z" fill="#E0E0E0"/>
<path d="M15.2233 17.8593C15.2517 17.9162 15.2685 17.9781 15.2728 18.0416C15.2771 18.105 15.2687 18.1687 15.2481 18.2288C15.2276 18.289 15.1953 18.3445 15.1531 18.3921C15.111 18.4397 15.0597 18.4784 15.0025 18.5061L14.0773 18.9597C14.0204 18.9881 13.9584 19.0049 13.895 19.0092C13.8315 19.0135 13.7679 19.0051 13.7077 18.9845C13.6475 18.964 13.592 18.9317 13.5444 18.8895C13.4968 18.8473 13.4581 18.7961 13.4305 18.7389C13.4021 18.682 13.3852 18.62 13.381 18.5566C13.3767 18.4931 13.3851 18.4295 13.4056 18.3693C13.4262 18.3091 13.4585 18.2536 13.5006 18.206C13.5428 18.1584 13.594 18.1197 13.6513 18.0921L14.5765 17.6373C14.6334 17.6089 14.6955 17.5921 14.759 17.588C14.8225 17.5838 14.8861 17.5923 14.9463 17.6129C15.0065 17.6336 15.062 17.666 15.1095 17.7083C15.1571 17.7506 15.1957 17.8019 15.2233 17.8593Z" fill="#E0E0E0"/>
<path d="M17.2118 21.9588L18.503 21.324L18.167 20.64L17.5202 20.9568L17.3102 20.5272L17.9558 20.2104L17.4026 19.0836L16.949 19.3068L16.7378 18.8772L17.1914 18.654L16.8566 17.9736L15.5654 18.6084L17.2118 21.9588Z" fill="#E0E0E0"/>
<path d="M9.58087 10.5762L10.1006 11.6338L11.9336 10.733L11.4139 9.67542L9.58087 10.5762Z" fill="#E0E0E0"/>
<path d="M7.6254 6.92664C7.64559 6.96807 7.66844 7.00815 7.6938 7.04664C7.23699 7.32677 6.90116 7.76728 6.75201 8.28197C6.60287 8.79665 6.65115 9.34847 6.8874 9.82944C7.14064 10.3401 7.58547 10.73 8.12495 10.9141C8.66443 11.0982 9.25481 11.0616 9.7674 10.8122L11.3838 10.0166C11.6375 9.89208 11.8641 9.71879 12.0508 9.50664C12.2374 9.29449 12.3805 9.04765 12.4717 8.78021C12.563 8.51277 12.6007 8.22997 12.5827 7.94797C12.5646 7.66596 12.4912 7.39027 12.3666 7.13664C12.1263 6.64819 11.7097 6.26899 11.2009 6.07548C10.692 5.88197 10.1288 5.88853 9.6246 6.09384C9.609 6.05184 9.5922 6.00984 9.573 5.97384C9.4457 5.71557 9.22101 5.51845 8.94837 5.42585C8.67573 5.33324 8.37747 5.35273 8.1192 5.48004C7.86093 5.60734 7.66382 5.83203 7.57121 6.10467C7.4786 6.37731 7.4981 6.67557 7.6254 6.93384V6.92664ZM9.9342 6.84864C10.1332 6.75075 10.3536 6.70411 10.5752 6.71296C10.7968 6.72181 11.0127 6.78586 11.2033 6.89931C11.3939 7.01276 11.5532 7.17201 11.6666 7.3626C11.7801 7.5532 11.8441 7.76911 11.853 7.99074C11.8618 8.21237 11.8152 8.4327 11.7173 8.63174C11.6194 8.83078 11.4734 9.00222 11.2925 9.13051C11.1115 9.25879 10.9014 9.33986 10.6812 9.36636C10.461 9.39286 10.2376 9.36394 10.0314 9.28224C9.95792 9.54117 9.80772 9.77177 9.60058 9.94365C9.39345 10.1155 9.13911 10.2206 8.87106 10.2451C8.60302 10.2695 8.33385 10.2122 8.09903 10.0807C7.8642 9.94915 7.67474 9.74955 7.5556 9.50819C7.43646 9.26684 7.39323 8.99505 7.43161 8.72865C7.47 8.46224 7.58819 8.21371 7.77062 8.01581C7.95305 7.8179 8.19115 7.67991 8.45356 7.62C8.71597 7.5601 8.99037 7.5811 9.2406 7.68024C9.29133 7.50069 9.37931 7.33384 9.49882 7.19055C9.61832 7.04727 9.76667 6.93077 9.9342 6.84864ZM9.0318 6.15744C9.07601 6.24929 9.09201 6.35218 9.0778 6.45313C9.06359 6.55407 9.0198 6.64854 8.95196 6.72462C8.88411 6.8007 8.79525 6.85498 8.69659 6.88062C8.59793 6.90625 8.49388 6.90208 8.39759 6.86865C8.30129 6.83521 8.21705 6.774 8.15551 6.69274C8.09396 6.61148 8.05786 6.51381 8.05176 6.41205C8.04567 6.3103 8.06985 6.20902 8.12125 6.12099C8.17266 6.03296 8.24898 5.96213 8.3406 5.91744C8.46413 5.85789 8.60622 5.8497 8.73577 5.89469C8.86532 5.93967 8.97176 6.03415 9.0318 6.15744Z" fill="#E0E0E0"/>
<path d="M49.3922 46.5995L52.5096 31.3043C52.5626 31.0446 52.3949 30.7911 52.1351 30.7381L51.9258 30.6955C51.6661 30.6425 51.4126 30.8102 51.3597 31.0699L48.2423 46.3651C48.1893 46.6248 48.357 46.8783 48.6167 46.9313L48.826 46.9739C49.0858 47.0269 49.3393 46.8592 49.3922 46.5995Z" fill="#E0E0E0"/>
<path d="M50.6107 35.3714L51.2441 32.2637L50.4669 32.1053L49.8335 35.213L50.6107 35.3714Z" fill="#E0E0E0"/>
<path d="M51.9552 37.2338L51.995 37.0386C52.0447 36.7951 51.8876 36.5574 51.644 36.5077L50.3001 36.2336C50.0566 36.1839 49.8189 36.341 49.7693 36.5845L49.7294 36.7797C49.6798 37.0232 49.8369 37.2609 50.0804 37.3106L51.4243 37.5847C51.6678 37.6344 51.9055 37.4773 51.9552 37.2338Z" fill="#E0E0E0"/>
<path d="M50.8129 31.6137L49.2097 31.2861L49.0357 32.1357L49.8373 32.3001L49.7293 32.8329L48.9277 32.6697L48.6421 34.0677L49.2049 34.1829L49.0957 34.7157L48.5329 34.6017L48.3613 35.4465L49.9645 35.7729L50.8129 31.6137Z" fill="#E0E0E0"/>
<path d="M49.7675 47.1679L50.0352 45.8545L47.7599 45.3908L47.4922 46.7042L49.7675 47.1679Z" fill="#E0E0E0"/>
<path d="M48.9868 51.8089C48.9975 51.7575 49.0047 51.7054 49.0084 51.6529C49.6143 51.7182 50.2229 51.5551 50.7151 51.1956C51.2073 50.8361 51.5477 50.306 51.67 49.7089C51.7995 49.0729 51.6712 48.4114 51.3132 47.87C50.9551 47.3286 50.3967 46.9515 49.7608 46.8217L47.752 46.4125C47.4371 46.3484 47.1127 46.3469 46.7973 46.4081C46.4818 46.4694 46.1815 46.5921 45.9135 46.7694C45.6456 46.9467 45.4151 47.175 45.2354 47.4414C45.0556 47.7077 44.9301 48.0069 44.866 48.3217C44.7419 48.9286 44.8528 49.56 45.1762 50.0883C45.4996 50.6166 46.0114 51.0026 46.6084 51.1681C46.5926 51.2166 46.5794 51.2659 46.5688 51.3157C46.5364 51.4745 46.5356 51.6381 46.5664 51.7972C46.5973 51.9562 46.6591 52.1077 46.7485 52.2428C46.8379 52.378 46.953 52.4943 47.0873 52.5849C47.2216 52.6756 47.3724 52.7389 47.5312 52.7713C47.8518 52.8367 48.1853 52.7721 48.4583 52.5916C48.7313 52.4111 48.9214 52.1296 48.9868 51.8089ZM46.8556 50.2729C46.6085 50.2226 46.3779 50.1114 46.1847 49.9493C45.9915 49.7873 45.8418 49.5796 45.7492 49.345C45.6567 49.1105 45.6241 48.8565 45.6545 48.6062C45.685 48.3559 45.7774 48.1172 45.9235 47.9116C46.0696 47.7061 46.2647 47.5403 46.4911 47.4293C46.7175 47.3183 46.968 47.2655 47.22 47.2759C47.4719 47.2862 47.7173 47.3593 47.9338 47.4885C48.1504 47.6177 48.3312 47.7989 48.46 48.0157C48.7066 47.8351 49.0021 47.7333 49.3076 47.7238C49.6132 47.7142 49.9145 47.7974 50.1719 47.9623C50.4293 48.1272 50.6307 48.3662 50.7498 48.6478C50.8688 48.9294 50.8998 49.2404 50.8388 49.5399C50.7777 49.8394 50.6274 50.1135 50.4077 50.326C50.1879 50.5385 49.909 50.6796 49.6076 50.7306C49.3062 50.7816 48.9964 50.7402 48.7189 50.6118C48.4415 50.4834 48.2094 50.2741 48.0532 50.0113C47.8828 50.1361 47.6883 50.2238 47.482 50.2688C47.2758 50.3139 47.0624 50.3153 46.8556 50.2729ZM47.1868 51.5233C47.21 51.4096 47.2665 51.3053 47.349 51.2237C47.4315 51.1421 47.5363 51.0868 47.6503 51.0647C47.7642 51.0427 47.8822 51.0549 47.9892 51.0999C48.0961 51.1449 48.1874 51.2207 48.2513 51.3175C48.3153 51.4144 48.3491 51.528 48.3485 51.6441C48.3478 51.7601 48.3128 51.8734 48.2478 51.9696C48.1827 52.0657 48.0907 52.1404 47.9832 52.1842C47.8757 52.228 47.7577 52.239 47.644 52.2157C47.4915 52.1845 47.3577 52.094 47.272 51.9642C47.1863 51.8344 47.1556 51.6758 47.1868 51.5233Z" fill="#E0E0E0"/>
<path d="M48.1638 6.44821L47.0742 6.4541L47.1036 11.8756L48.1931 11.8697L48.1638 6.44821Z" fill="#E0E0E0"/>
<path d="M40.4569 6.46227L37.6357 6.47754L37.6519 9.4703L40.4731 9.45503L40.4569 6.46227Z" fill="#EBEBEB"/>
<path d="M43.2645 6.44763L40.4434 6.46289L40.4596 9.45565L43.2807 9.44038L43.2645 6.44763Z" fill="#F5F5F5"/>
<path d="M37.6397 7.307C39.5149 7.323 41.3917 7.3146 43.2701 7.2818C43.2781 7.2818 43.2857 7.27864 43.2913 7.27302C43.297 7.26739 43.3001 7.25976 43.3001 7.2518C43.3001 7.24385 43.297 7.23622 43.2913 7.23059C43.2857 7.22497 43.2781 7.2218 43.2701 7.2218C41.3957 7.211 39.5153 7.2218 37.6409 7.2554C37.635 7.25668 37.6298 7.25994 37.626 7.26463C37.6222 7.26933 37.6201 7.27518 37.6201 7.2812C37.6201 7.28723 37.6222 7.29308 37.626 7.29778C37.6298 7.30247 37.635 7.30573 37.6409 7.307H37.6397Z" fill="#E0E0E0"/>
<path d="M41.0033 9.40683L35.877 9.43457L35.8902 11.8741L41.0165 11.8464L41.0033 9.40683Z" fill="#EBEBEB"/>
<path d="M46.1048 9.37949L40.9785 9.40723L40.9917 11.8468L46.118 11.8191L46.1048 9.37949Z" fill="#F5F5F5"/>
<path d="M35.8802 10.115C39.2858 10.1534 42.7034 10.115 46.109 10.0634C46.1169 10.0634 46.1246 10.0603 46.1302 10.0546C46.1358 10.049 46.139 10.0414 46.139 10.0334C46.139 10.0255 46.1358 10.0178 46.1302 10.0122C46.1246 10.0066 46.1169 10.0034 46.109 10.0034C42.7034 9.98543 39.2858 9.98783 35.8802 10.0634C35.8743 10.0647 35.869 10.068 35.8652 10.0727C35.8614 10.0774 35.8594 10.0832 35.8594 10.0892C35.8594 10.0953 35.8614 10.1011 35.8652 10.1058C35.869 10.1105 35.8743 10.1137 35.8802 10.115Z" fill="#E0E0E0"/>
<path d="M53.8241 11.875H33.9629V12.7486H53.8241V11.875Z" fill="#E0E0E0"/>
<path d="M38.0212 12.2949H37.2148V15.2769H38.0212V12.2949Z" fill="#E0E0E0"/>
<path d="M50.0554 12.2949H49.249V15.2769H50.0554V12.2949Z" fill="#E0E0E0"/>
<path d="M49.2478 4.20199L48.1582 4.21289L48.2328 11.6697L49.3224 11.6588L49.2478 4.20199Z" fill="#EBEBEB"/>
<path d="M50.9305 5.81506L49.2373 5.82422L49.27 11.8673L50.9632 11.8582L50.9305 5.81506Z" fill="#F5F5F5"/>
<path d="M50.9188 6.98095C50.6374 7.01024 50.3543 7.01986 50.0716 7.00975C49.7893 7.01988 49.5066 7.01026 49.2256 6.98095C49.7893 6.94255 50.355 6.94255 50.9188 6.98095Z" fill="#E0E0E0"/>
<path d="M50.9188 6.72824C50.6374 6.75681 50.3543 6.76643 50.0716 6.75704C49.7893 6.76645 49.5066 6.75683 49.2256 6.72824C49.7893 6.68824 50.3551 6.68824 50.9188 6.72824Z" fill="#E0E0E0"/>
<path d="M50.9188 10.9509C50.355 10.9893 49.7893 10.9893 49.2256 10.9509C49.7893 10.9109 50.3551 10.9109 50.9188 10.9509Z" fill="#E0E0E0"/>
<path d="M50.9188 10.6968C50.3551 10.7368 49.7893 10.7368 49.2256 10.6968C49.7893 10.6584 50.355 10.6584 50.9188 10.6968Z" fill="#E0E0E0"/>
<path d="M50.0993 10.1429C50.0825 10.1429 50.0693 9.53334 50.0693 8.78095C50.0693 8.02855 50.0825 7.41895 50.0993 7.41895C50.1161 7.41895 50.1281 8.02855 50.1281 8.78095C50.1281 9.53334 50.1149 10.1429 50.0993 10.1429Z" fill="#E0E0E0"/>
<path d="M52.7797 7.30078H50.9365V11.862H52.7797V7.30078Z" fill="#EBEBEB"/>
<path d="M48.9799 5.70187C48.9799 5.76382 48.9615 5.82437 48.9271 5.87588C48.8927 5.92738 48.8438 5.96753 48.7866 5.99123C48.7293 6.01494 48.6664 6.02114 48.6056 6.00905C48.5449 5.99697 48.4891 5.96714 48.4452 5.92334C48.4014 5.87954 48.3716 5.82373 48.3595 5.76297C48.3474 5.70222 48.3537 5.63925 48.3774 5.58202C48.4011 5.52479 48.4412 5.47587 48.4927 5.44146C48.5442 5.40704 48.6048 5.38867 48.6667 5.38867C48.7498 5.38867 48.8294 5.42167 48.8882 5.48041C48.9469 5.53914 48.9799 5.61881 48.9799 5.70187Z" fill="#E0E0E0"/>
<path d="M48.7625 6.56348H48.5693V10.9987H48.7625V6.56348Z" fill="#E0E0E0"/>
<path d="M13.3859 33.4014L12.0059 38.9622H12.5639L13.9967 33.4014H13.3859Z" fill="#EBEBEB"/>
<path d="M17.3874 33.4014L18.7674 38.9622H18.2082L16.7754 33.4014H17.3874Z" fill="#EBEBEB"/>
<path d="M15.6445 31.8896H14.9941V38.9612H15.6445V31.8896Z" fill="#EBEBEB"/>
<path d="M19.8955 26.2188H10.7119V32.1023H19.8955V26.2188Z" fill="#E0E0E0"/>
<path d="M17.6112 33.3115H13.002V33.8791H17.6112V33.3115Z" fill="#EBEBEB"/>
<path d="M11.3226 31.334C11.3282 31.3697 11.3302 31.4059 11.3286 31.442H11.3166C11.307 31.154 11.2998 30.2012 11.2998 29.0708C11.2998 28.3892 11.2998 27.7724 11.307 27.3188C11.307 27.0992 11.307 26.9192 11.3142 26.7872C11.3142 26.7288 11.3142 26.6808 11.3142 26.6432C11.3121 26.6264 11.3121 26.6095 11.3142 26.5928C11.3163 26.6095 11.3163 26.6264 11.3142 26.6432C11.3142 26.6808 11.3142 26.7288 11.3142 26.7872C11.3142 26.9192 11.3142 27.0992 11.3214 27.3188C11.3214 27.7724 11.3214 28.3892 11.3286 29.0708C11.3286 30.2012 11.3214 31.154 11.3118 31.442H11.2998C11.3037 31.4053 11.3113 31.3691 11.3226 31.334Z" fill="#F5F5F5"/>
<path d="M12.0062 31.334C12.0082 31.3699 12.0082 31.406 12.0062 31.442H12.0002C11.9918 31.154 11.9846 30.2012 11.9846 29.0708C11.9846 28.3892 11.9846 27.7724 11.9846 27.3188C11.9846 27.0992 11.9846 26.9192 11.9918 26.7872C11.9918 26.7284 11.9918 26.6804 11.9918 26.6432C11.9889 26.6265 11.9889 26.6095 11.9918 26.5928C11.9934 26.6095 11.9934 26.6264 11.9918 26.6432C11.9918 26.6804 11.9918 26.7284 11.9918 26.7872C11.9918 26.9192 11.9918 27.0992 11.999 27.3188C11.999 27.7724 11.999 28.3892 11.999 29.0708C11.999 30.2012 11.999 31.154 11.9834 31.442H12.0002C11.9988 31.4059 12.0009 31.3697 12.0062 31.334Z" fill="#F5F5F5"/>
<path d="M12.689 31.334C12.6946 31.3697 12.6967 31.4059 12.695 31.442H12.683C12.6734 31.154 12.6662 30.2012 12.6662 29.0708C12.6662 28.3892 12.6662 27.7724 12.6734 27.3188C12.6734 27.0992 12.6734 26.9192 12.6806 26.7872C12.6806 26.7288 12.6806 26.6808 12.6806 26.6432C12.6793 26.6264 12.6793 26.6095 12.6806 26.5928C12.6835 26.6095 12.6835 26.6265 12.6806 26.6432C12.6806 26.6804 12.6806 26.7284 12.6806 26.7872C12.6806 26.9192 12.6806 27.0992 12.6878 27.3188C12.6878 27.7724 12.6878 28.3892 12.6938 29.0708C12.6938 30.2012 12.6866 31.154 12.677 31.442H12.665C12.6702 31.4054 12.6782 31.3693 12.689 31.334Z" fill="#F5F5F5"/>
<path d="M13.3729 31.334C13.3757 31.3699 13.3757 31.406 13.3729 31.442H13.3609C13.3513 31.154 13.3441 30.2012 13.3441 29.0708C13.3441 28.3892 13.3441 27.7724 13.3441 27.3188C13.3441 27.0992 13.3441 26.9192 13.3513 26.7872C13.3513 26.7284 13.3513 26.6804 13.3513 26.6432C13.3492 26.6264 13.3492 26.6095 13.3513 26.5928C13.3526 26.6095 13.3526 26.6264 13.3513 26.6432C13.3513 26.6808 13.3513 26.7288 13.3513 26.7872C13.3513 26.9192 13.3513 27.0992 13.3585 27.3188C13.3585 27.7724 13.3585 28.3892 13.3657 29.0708C13.3657 30.2012 13.3585 31.154 13.3489 31.442H13.3369C13.3451 31.4048 13.3571 31.3686 13.3729 31.334Z" fill="#F5F5F5"/>
<path d="M14.0555 31.334C14.0613 31.3697 14.0637 31.4058 14.0627 31.442H14.0495C14.0399 31.154 14.0339 30.2012 14.0339 29.0708C14.0339 28.3892 14.0339 27.7724 14.0339 27.3188C14.0339 27.0992 14.0339 26.9192 14.0411 26.7872C14.0411 26.7284 14.0411 26.6804 14.0411 26.6432C14.0396 26.6264 14.0396 26.6095 14.0411 26.5928C14.044 26.6095 14.044 26.6265 14.0411 26.6432C14.0411 26.6804 14.0411 26.7284 14.0411 26.7872C14.0411 26.9192 14.0411 27.0992 14.0483 27.3188C14.0483 27.7724 14.0483 28.3892 14.0483 29.0708C14.0483 30.2012 14.0411 31.154 14.0327 31.442H14.0195C14.0294 31.4053 14.0414 31.3692 14.0555 31.334Z" fill="#F5F5F5"/>
<path d="M14.7397 31.334C14.7433 31.3699 14.7433 31.4061 14.7397 31.442H14.7277C14.7181 31.154 14.7109 30.2012 14.7109 29.0708C14.7109 28.3892 14.7109 27.7724 14.7181 27.3188C14.7181 27.0992 14.7181 26.9192 14.7253 26.7872C14.7253 26.7288 14.7253 26.6808 14.7253 26.6432C14.7232 26.6264 14.7232 26.6095 14.7253 26.5928C14.7274 26.6095 14.7274 26.6264 14.7253 26.6432C14.7253 26.6808 14.7253 26.7288 14.7253 26.7872C14.7253 26.9192 14.7253 27.0992 14.7325 27.3188C14.7325 27.7724 14.7325 28.3892 14.7397 29.0708C14.7397 30.2012 14.7325 31.154 14.7229 31.442H14.7109C14.7168 31.4051 14.7264 31.3689 14.7397 31.334Z" fill="#F5F5F5"/>
<path d="M15.4238 31.334C15.4278 31.3698 15.4298 31.4059 15.4298 31.442H15.4166C15.407 31.154 15.401 30.2012 15.401 29.0708C15.401 28.3892 15.401 27.7724 15.401 27.3188C15.401 27.0992 15.407 26.9192 15.4082 26.7872C15.4082 26.7284 15.4082 26.6804 15.4082 26.6432C15.4053 26.6265 15.4053 26.6095 15.4082 26.5928C15.4098 26.6095 15.4098 26.6264 15.4082 26.6432C15.4082 26.6804 15.4082 26.7284 15.4082 26.7872C15.4082 26.9192 15.4082 27.0992 15.4154 27.3188C15.4154 27.7724 15.4154 28.3892 15.4214 29.0708C15.4214 30.2012 15.4154 31.154 15.4058 31.442H15.3926C15.3995 31.405 15.4099 31.3689 15.4238 31.334Z" fill="#F5F5F5"/>
<path d="M16.1062 31.334C16.1118 31.3697 16.1138 31.4059 16.1122 31.442H16.1002C16.0906 31.154 16.0834 30.2012 16.0834 29.0708C16.0834 28.3892 16.0834 27.7724 16.0906 27.3188C16.0906 27.0992 16.0906 26.9192 16.0978 26.7872C16.0978 26.7288 16.0978 26.6808 16.0978 26.6432C16.0965 26.6264 16.0965 26.6095 16.0978 26.5928C16.0999 26.6095 16.0999 26.6264 16.0978 26.6432C16.0978 26.6804 16.0978 26.7284 16.0978 26.7872C16.0978 26.9192 16.0978 27.0992 16.0978 27.3188C16.0978 27.7724 16.0978 28.3892 16.105 29.0708C16.105 30.2012 16.0978 31.154 16.0882 31.442H16.0762C16.0833 31.4052 16.0933 31.3691 16.1062 31.334Z" fill="#F5F5F5"/>
<path d="M16.7906 31.334C16.7954 31.3698 16.7974 31.4059 16.7966 31.442H16.7846C16.775 31.154 16.7678 30.2012 16.7678 29.0708C16.7678 28.3892 16.7678 27.7724 16.7738 27.3188C16.7738 27.0992 16.7798 26.9192 16.781 26.7872C16.781 26.7284 16.781 26.6804 16.781 26.6432C16.7781 26.6265 16.7781 26.6095 16.781 26.5928C16.7823 26.6095 16.7823 26.6264 16.781 26.6432C16.781 26.6804 16.781 26.7284 16.781 26.7872C16.781 26.9192 16.781 27.0992 16.7882 27.3188C16.7882 27.7724 16.7882 28.3892 16.7954 29.0708C16.7954 30.2012 16.7882 31.154 16.7786 31.442H16.7666C16.7709 31.4052 16.7789 31.3691 16.7906 31.334Z" fill="#F5F5F5"/>
<path d="M17.4732 31.334C17.479 31.3697 17.4814 31.4058 17.4804 31.442H17.4672C17.4576 31.154 17.4504 30.2012 17.4504 29.0708C17.4504 28.3892 17.4564 27.7724 17.4576 27.3188C17.4576 27.0992 17.4636 26.9192 17.4648 26.7872C17.4648 26.7284 17.4648 26.6804 17.4648 26.6432C17.4632 26.6264 17.4632 26.6095 17.4648 26.5928C17.4677 26.6095 17.4677 26.6265 17.4648 26.6432C17.4648 26.6804 17.4648 26.7284 17.4648 26.7872C17.4648 26.9192 17.4648 27.0992 17.472 27.3188C17.472 27.7724 17.472 28.3892 17.478 29.0708C17.478 30.2012 17.4708 31.154 17.4624 31.442H17.4492C17.4552 31.4055 17.4632 31.3695 17.4732 31.334Z" fill="#F5F5F5"/>
<path d="M18.1576 31.334C18.1624 31.3698 18.1644 31.4059 18.1636 31.442H18.1516C18.142 31.154 18.1348 30.2012 18.1348 29.0708C18.1348 28.3892 18.1348 27.7724 18.142 27.3188C18.142 27.0992 18.142 26.9192 18.1492 26.7872C18.1492 26.7288 18.1492 26.6808 18.1492 26.6432C18.1471 26.6264 18.1471 26.6095 18.1492 26.5928C18.1505 26.6095 18.1505 26.6264 18.1492 26.6432C18.1492 26.6808 18.1492 26.7288 18.1492 26.7872C18.1492 26.9192 18.1492 27.0992 18.1564 27.3188C18.1564 27.7724 18.1564 28.3892 18.1636 29.0708C18.1636 30.2012 18.1564 31.154 18.1468 31.442H18.1348C18.1387 31.4053 18.1463 31.3691 18.1576 31.334Z" fill="#F5F5F5"/>
<path d="M18.8398 31.334C18.8438 31.3698 18.8458 31.4059 18.8458 31.442H18.8398C18.8302 31.154 18.8242 30.2012 18.8242 29.0708C18.8242 28.3892 18.8242 27.7724 18.8302 27.3188C18.8302 27.0992 18.8302 26.9192 18.8374 26.7872C18.8374 26.7284 18.8374 26.6804 18.8374 26.6432C18.8346 26.6265 18.8346 26.6095 18.8374 26.5928C18.839 26.6095 18.839 26.6264 18.8374 26.6432C18.8374 26.6804 18.8374 26.7284 18.8374 26.7872C18.8374 26.9192 18.8374 27.0992 18.8446 27.3188C18.8446 27.7724 18.8446 28.3892 18.8506 29.0708C18.8506 30.2012 18.8446 31.154 18.835 31.442H18.8398C18.8365 31.406 18.8365 31.3699 18.8398 31.334Z" fill="#F5F5F5"/>
<path d="M19.5238 31.334C19.5294 31.3697 19.5314 31.4059 19.5298 31.442H19.5178C19.5082 31.154 19.501 30.2012 19.501 29.0708C19.501 28.3892 19.501 27.7724 19.5082 27.3188C19.5082 27.0992 19.5082 26.9192 19.5154 26.7872C19.5154 26.7288 19.5154 26.6808 19.5154 26.6432C19.5141 26.6264 19.5141 26.6095 19.5154 26.5928C19.5175 26.6095 19.5175 26.6264 19.5154 26.6432C19.5154 26.6808 19.5154 26.7288 19.5154 26.7872C19.5154 26.9192 19.5154 27.0992 19.5226 27.3188C19.5226 27.7724 19.5226 28.3892 19.5298 29.0708C19.5298 30.2012 19.5226 31.154 19.513 31.442H19.501C19.5057 31.4054 19.5133 31.3693 19.5238 31.334Z" fill="#F5F5F5"/>
<path d="M30.9048 38.2754H6.96484V49.3166H30.9048V38.2754Z" fill="#F5F5F5"/>
<path d="M30.3353 48.7958H7.51367V38.8574H30.3353V48.7958ZM7.66247 48.647H30.1865V39.0062H7.66247V48.647Z" fill="#E0E0E0"/>
<path d="M36.7541 38.2754H30.9053V49.3166H36.7541V38.2754Z" fill="#E0E0E0"/>
<path d="M7.58762 41.933H30.2604C30.2684 41.933 30.276 41.9299 30.2816 41.9243C30.2873 41.9186 30.2904 41.911 30.2904 41.903C30.2904 41.8951 30.2873 41.8875 30.2816 41.8818C30.276 41.8762 30.2684 41.873 30.2604 41.873H7.58762C7.57966 41.873 7.57203 41.8762 7.5664 41.8818C7.56078 41.8875 7.55762 41.8951 7.55762 41.903C7.55762 41.911 7.56078 41.9186 7.5664 41.9243C7.57203 41.9299 7.57966 41.933 7.58762 41.933Z" fill="#E0E0E0"/>
<path d="M18.9987 41.903C19.0611 40.9041 19.0636 39.9023 19.0059 38.903C19.0045 38.896 19.0007 38.8896 18.9951 38.885C18.9895 38.8804 18.9825 38.8779 18.9753 38.8779C18.9681 38.8779 18.9611 38.8804 18.9555 38.885C18.9499 38.8896 18.9461 38.896 18.9447 38.903C18.8869 39.9023 18.8897 40.9041 18.9531 41.903C18.9531 41.9091 18.9555 41.9149 18.9598 41.9192C18.9641 41.9234 18.9699 41.9258 18.9759 41.9258C18.982 41.9258 18.9877 41.9234 18.992 41.9192C18.9963 41.9149 18.9987 41.9091 18.9987 41.903Z" fill="#E0E0E0"/>
<path d="M25.1002 40.4022C25.1002 40.4631 25.0821 40.5228 25.0482 40.5735C25.0143 40.6242 24.9662 40.6637 24.9098 40.6871C24.8535 40.7104 24.7915 40.7165 24.7316 40.7046C24.6718 40.6927 24.6169 40.6634 24.5737 40.6202C24.5306 40.5771 24.5012 40.5221 24.4893 40.4623C24.4774 40.4025 24.4835 40.3405 24.5069 40.2841C24.5302 40.2278 24.5697 40.1796 24.6205 40.1457C24.6712 40.1118 24.7308 40.0938 24.7918 40.0938C24.8735 40.0941 24.9518 40.1267 25.0095 40.1844C25.0673 40.2422 25.0999 40.3205 25.1002 40.4022Z" fill="#E0E0E0"/>
<path d="M13.2003 40.4022C13.2005 40.4634 13.1825 40.5234 13.1487 40.5745C13.1148 40.6256 13.0665 40.6654 13.01 40.689C12.9534 40.7127 12.8911 40.719 12.831 40.7071C12.7709 40.6953 12.7156 40.6659 12.6722 40.6227C12.6287 40.5794 12.5991 40.5243 12.5871 40.4642C12.575 40.4041 12.5811 40.3418 12.6045 40.2852C12.6279 40.2285 12.6676 40.1801 12.7185 40.146C12.7695 40.1119 12.8294 40.0938 12.8907 40.0938C12.9726 40.0937 13.0511 40.1262 13.1091 40.184C13.1672 40.2418 13.1999 40.3202 13.2003 40.4022Z" fill="#E0E0E0"/>
<path d="M19.2335 43.826C19.2337 43.8873 19.2157 43.9472 19.1819 43.9983C19.148 44.0494 19.0997 44.0892 19.0432 44.1129C18.9866 44.1365 18.9243 44.1428 18.8642 44.131C18.8041 44.1192 18.7488 44.0898 18.7054 44.0465C18.6619 44.0033 18.6323 43.9481 18.6203 43.888C18.6083 43.8279 18.6143 43.7656 18.6377 43.709C18.6611 43.6523 18.7008 43.6039 18.7517 43.5698C18.8027 43.5358 18.8626 43.5176 18.9239 43.5176C19.0058 43.5176 19.0843 43.55 19.1424 43.6078C19.2004 43.6656 19.2331 43.7441 19.2335 43.826Z" fill="#E0E0E0"/>
<path d="M9.82845 49.3164L8.67285 55.9836H9.36645L11.5613 49.3164H9.82845Z" fill="#E0E0E0"/>
<path d="M29.2115 49.3164L30.2411 55.9836H29.5487L27.4775 49.3164H29.2115Z" fill="#E0E0E0"/>
<path d="M33.8392 49.3164L35.0656 55.9836H34.372L32.1064 49.3164H33.8392Z" fill="#E0E0E0"/>
<path d="M19.212 46.9512C19.212 47.0125 19.1938 47.0724 19.1597 47.1233C19.1256 47.1743 19.0772 47.214 19.0206 47.2374C18.9639 47.2607 18.9016 47.2668 18.8415 47.2548C18.7814 47.2427 18.7263 47.2131 18.683 47.1697C18.6398 47.1263 18.6104 47.071 18.5986 47.0109C18.5868 46.9507 18.5931 46.8884 18.6167 46.8319C18.6403 46.7753 18.6802 46.7271 18.7312 46.6932C18.7823 46.6593 18.8423 46.6414 18.9036 46.6416C18.9442 46.6416 18.9844 46.6496 19.0219 46.6652C19.0594 46.6808 19.0934 46.7036 19.1221 46.7324C19.1507 46.7611 19.1734 46.7953 19.1888 46.8328C19.2043 46.8704 19.2121 46.9106 19.212 46.9512Z" fill="#E0E0E0"/>
<path d="M7.58762 45.351H30.2604C30.2684 45.351 30.276 45.3479 30.2816 45.3422C30.2873 45.3366 30.2904 45.329 30.2904 45.321C30.2904 45.3131 30.2873 45.3054 30.2816 45.2998C30.276 45.2942 30.2684 45.291 30.2604 45.291H7.58762C7.57966 45.291 7.57203 45.2942 7.5664 45.2998C7.56078 45.3054 7.55762 45.3131 7.55762 45.321C7.55762 45.329 7.56078 45.3366 7.5664 45.3422C7.57203 45.3479 7.57966 45.351 7.58762 45.351Z" fill="#E0E0E0"/>
<path d="M56.0255 21.0791H50.1875V22.6235H56.0255V21.0791Z" fill="#F5F5F5"/>
<path d="M53.5574 24.2509C53.5569 24.2417 53.5569 24.2325 53.5574 24.2233V24.1441C53.5574 24.0709 53.5574 23.9701 53.5574 23.8393C53.5574 23.5729 53.5574 23.1901 53.5478 22.7065L53.5658 22.7245L47.7278 22.7365L47.7578 22.7065V23.0989C47.7578 23.2297 47.7578 23.3605 47.7578 23.4889V24.2485L47.729 24.2197L51.8894 24.2329L53.117 24.2413H53.4494H53.5358H53.567C53.567 24.2413 53.5586 24.2413 53.5406 24.2413H53.4566H53.1314L51.9098 24.2497L47.729 24.2629H47.7002V24.2341C47.7002 23.9861 47.7002 23.7329 47.7002 23.4745V22.6921L47.7302 22.6621L53.5682 22.6741H53.5862V22.6921C53.5862 23.1805 53.579 23.5669 53.5766 23.8357C53.5766 23.9641 53.5766 24.0649 53.5766 24.1357C53.5766 24.1669 53.5766 24.1921 53.5766 24.2125C53.5766 24.2329 53.5586 24.2521 53.5574 24.2509Z" fill="#E0E0E0"/>
<path d="M44.425 37.7917C44.424 37.7825 44.424 37.7732 44.425 37.7641V37.6849C44.425 37.6117 44.425 37.5109 44.425 37.3801C44.425 37.1137 44.419 36.7309 44.4142 36.2473L44.4334 36.2653L38.5954 36.2773C38.6086 36.2641 38.5654 36.3073 38.6242 36.2473V37.7893L38.5942 37.7605L42.7546 37.7737L43.9834 37.7821H44.3158H44.4022H44.4334H44.4058H44.323H43.9966L42.775 37.7905L38.5942 37.8037H38.5654V36.2497C38.6254 36.1897 38.5822 36.2329 38.5966 36.2197L44.4346 36.2317H44.4526V36.2497C44.4526 36.7381 44.4442 37.1245 44.4418 37.3933C44.4418 37.5217 44.4418 37.6225 44.4418 37.6933C44.4418 37.7245 44.4418 37.7497 44.4418 37.7701C44.4369 37.7778 44.4313 37.785 44.425 37.7917Z" fill="#E0E0E0"/>
<path d="M12.2843 21.6973H6.44629V23.2417H12.2843V21.6973Z" fill="#F5F5F5"/>
<path d="M9.81624 24.8683C9.81539 24.8587 9.81539 24.849 9.81624 24.8395C9.81624 24.8191 9.81624 24.7927 9.81624 24.7603C9.81624 24.6883 9.81624 24.5863 9.81624 24.4567C9.81624 24.1903 9.81624 23.8063 9.80664 23.3227L9.82464 23.3407L3.98664 23.3527C3.99984 23.3395 3.95664 23.3827 4.01544 23.3227V24.8671L3.98664 24.8371L8.14704 24.8503L9.37464 24.8587H9.70704H9.79344C9.80377 24.857 9.81431 24.857 9.82464 24.8587H9.79704H9.71424H9.38784L8.16024 24.8839L3.97944 24.8971H3.94824V23.3239C4.00704 23.2651 3.96504 23.3083 3.97824 23.2951L9.81624 23.3059H9.84024V23.3239C9.84024 23.8123 9.83304 24.1987 9.83064 24.4687C9.83064 24.5971 9.83064 24.6967 9.83064 24.7687C9.83064 24.7999 9.83064 24.8251 9.83064 24.8443C9.82641 24.8526 9.8216 24.8606 9.81624 24.8683Z" fill="#E0E0E0"/>
<path d="M31.8479 6.05345C31.8468 6.04428 31.8468 6.03501 31.8479 6.02585V5.94665C31.8479 5.87345 31.8479 5.77265 31.8479 5.64305C31.8479 5.37545 31.8419 4.99265 31.8383 4.50905L31.8563 4.52705L26.0183 4.53905C26.0315 4.52585 25.9883 4.56905 26.0471 4.50905V6.05345L26.0183 6.02465L30.1787 6.03785L31.4063 6.04625H31.7387H31.8251H31.8563H31.8287H31.7459H31.4195L30.1991 6.05345L26.0183 6.06785H25.9883V4.51145L26.0183 4.48145L31.8563 4.49345H31.8743V4.51145C31.8743 4.99985 31.8671 5.38625 31.8647 5.65625C31.8647 5.78345 31.8647 5.88425 31.8647 5.95505V6.03185C31.8598 6.03955 31.8541 6.04678 31.8479 6.05345Z" fill="#E0E0E0"/>
<path d="M32.6403 4.50943C32.6386 4.49991 32.6386 4.49016 32.6403 4.48063C32.6403 4.45783 32.6403 4.43143 32.6403 4.39783C32.6403 4.32223 32.6403 4.21903 32.6403 4.08823C32.6403 3.81823 32.6343 3.43543 32.6295 2.96503L32.6511 2.98663L29.1327 2.99983C29.1051 3.02623 29.1675 2.96383 29.1615 2.96983V3.76423C29.1615 4.02223 29.1615 4.27303 29.1615 4.51303L29.1327 4.48543L31.6419 4.49863L32.3739 4.50583H32.5707H32.6415C32.6204 4.50747 32.5991 4.50747 32.5779 4.50583H32.3859L31.6659 4.51423L29.1375 4.52743H29.1099V4.49863C29.1099 4.25863 29.1099 4.00783 29.1099 3.74983V2.96623C29.1027 2.97223 29.1663 2.90983 29.1399 2.93623L32.6475 2.94463H32.6691V2.96623C32.6691 3.44623 32.6607 3.82903 32.6583 4.10263C32.6583 4.23103 32.6583 4.33303 32.6523 4.40743C32.6463 4.48183 32.6403 4.51063 32.6403 4.50943Z" fill="#E0E0E0"/>
<path d="M54.1105 55.9833C54.1105 56.0013 43.3104 56.0146 30.0012 56.0146C16.692 56.0146 5.88965 56.0013 5.88965 55.9833C5.88965 55.9653 16.6824 55.9521 30.0012 55.9521C43.32 55.9521 54.1105 55.9665 54.1105 55.9833Z" fill="#263238"/>
<path d="M24.1201 13.4042L23.6401 12.437C23.9384 11.6246 23.922 10.7299 23.5942 9.92894C23.2663 9.12796 22.6507 8.47858 21.8684 8.10844C21.0861 7.73829 20.1936 7.67416 19.3664 7.92865C18.5391 8.18314 17.837 8.73784 17.398 9.48372C16.959 10.2296 16.8149 11.1127 16.994 11.9595C17.173 12.8062 17.6623 13.5554 18.3657 14.0597C19.0691 14.564 19.9357 14.7869 20.7951 14.6847C21.6545 14.5826 22.4446 14.1626 23.0101 13.5074L24.1201 13.4042Z" fill="white"/>
<path d="M24.1201 13.4038L24.0505 13.4122L23.8417 13.435L23.0149 13.5214C23.0118 13.5212 23.0089 13.5201 23.0065 13.5182C23.0041 13.5162 23.0024 13.5136 23.0017 13.5106C23.0017 13.5106 23.0017 13.5106 23.0017 13.5034L23.0221 13.5166C22.647 13.9551 22.1686 14.2933 21.6301 14.5006C21.4644 14.5645 21.2938 14.6151 21.1201 14.6518C20.931 14.69 20.7392 14.7136 20.5465 14.7226C20.1239 14.7425 19.7012 14.6844 19.2997 14.551C18.8389 14.3974 18.4151 14.1496 18.0552 13.8234C17.6953 13.4972 17.4072 13.0997 17.2093 12.6562C16.9877 12.1529 16.888 11.6045 16.9184 11.0554C16.9489 10.5064 17.1086 9.97225 17.3845 9.49659L17.4949 9.31299L17.6221 9.14019L17.6857 9.05379L17.7553 8.97459L17.8969 8.81619C17.9449 8.76579 17.9989 8.72019 18.0505 8.67219C18.0997 8.62272 18.1523 8.57662 18.2077 8.53419C18.3155 8.44684 18.429 8.36666 18.5473 8.29419C18.9901 8.01388 19.491 7.83825 20.0119 7.78065C20.5328 7.72305 21.0599 7.785 21.5533 7.96179C22.4035 8.26134 23.1043 8.87909 23.5081 9.68499C23.5943 9.85788 23.6669 10.0372 23.7253 10.2214C23.7758 10.3948 23.8159 10.5711 23.8453 10.7494C23.9269 11.3194 23.8642 11.9007 23.6629 12.4402V12.4318C23.8141 12.7474 23.9317 12.991 24.0109 13.1578C24.0493 13.237 24.0781 13.2994 24.0985 13.3426C24.1189 13.3858 24.1273 13.4038 24.1273 13.4038C24.1273 13.4038 24.1141 13.381 24.0937 13.3402L23.9989 13.1542L23.6389 12.4414C23.6383 12.4401 23.638 12.4386 23.638 12.4372C23.638 12.4357 23.6383 12.4343 23.6389 12.433C23.8322 11.8953 23.8895 11.3182 23.8057 10.753C23.7762 10.5771 23.7362 10.4032 23.6857 10.2322C23.6273 10.0504 23.5546 9.87342 23.4685 9.70299C23.1551 9.08458 22.6627 8.5749 22.0554 8.24035C21.4482 7.90581 20.7543 7.7619 20.0641 7.82739C19.5355 7.8827 19.0266 8.05795 18.5761 8.33979C18.4596 8.4122 18.3482 8.49238 18.2425 8.57979C18.1878 8.62174 18.1357 8.66703 18.0865 8.71539C18.0373 8.76339 17.9845 8.80779 17.9365 8.85819L17.7973 9.01419L17.7277 9.09219L17.6653 9.17619L17.5453 9.34659L17.4361 9.52779C17.1558 10.0056 16.9975 10.5451 16.9753 11.0986C16.9435 11.8441 17.155 12.5798 17.578 13.1945C18.001 13.8093 18.6124 14.2698 19.3201 14.5066C19.7162 14.6384 20.1329 14.6973 20.5501 14.6806C20.7402 14.6716 20.9295 14.6491 21.1165 14.6134C21.2909 14.5773 21.4622 14.5275 21.6289 14.4646C22.1628 14.2634 22.6389 13.9337 23.0149 13.5046C23.0173 13.5023 23.0205 13.501 23.0239 13.501C23.0272 13.501 23.0304 13.5023 23.0329 13.5046C23.0344 13.5069 23.0352 13.5096 23.0352 13.5124C23.0352 13.5152 23.0344 13.5179 23.0329 13.5202L23.0209 13.5034L23.8405 13.4326L24.0541 13.4146L24.1201 13.4038Z" fill="#263238"/>
<path d="M18.7979 11.4739L19.2455 11.0251L20.1095 11.7931L21.8063 10.1611L22.2215 10.6099L20.0459 12.6571L18.7979 11.4739Z" fill="#00AAD3"/>
<path d="M22.0036 51.5187L19.9204 53.4963C19.9204 53.4963 21.9796 55.8471 21.7204 56.3331L16.6924 53.4363L19.8004 49.9443L22.0036 51.5187Z" fill="#455A64"/>
<g opacity="0.6">
<path d="M18.5334 52.3308C18.4772 52.3164 18.4177 52.3227 18.3659 52.3488C18.314 52.3748 18.2734 52.4187 18.2514 52.4724C18.2342 52.5282 18.2389 52.5884 18.2645 52.6408C18.2902 52.6932 18.3348 52.7338 18.3894 52.7544C18.4492 52.7701 18.5127 52.7633 18.5678 52.7352C18.6229 52.7071 18.6658 52.6597 18.6882 52.602C18.6992 52.5422 18.6872 52.4805 18.6544 52.4293C18.6217 52.378 18.5707 52.3411 18.5118 52.326" fill="white"/>
</g>
<g opacity="0.6">
<path d="M16.6924 53.4371L17.008 53.0771L21.688 56.0015C21.7238 56.0577 21.745 56.1219 21.7496 56.1884C21.7543 56.2548 21.7421 56.3214 21.7144 56.3819L16.6924 53.4371Z" fill="white"/>
</g>
<path d="M20.0127 53.5196C19.9971 53.5424 19.8699 53.4788 19.7043 53.4812C19.5387 53.4836 19.4115 53.546 19.3959 53.522C19.3803 53.498 19.5015 53.3828 19.7031 53.3828C19.9047 53.3828 20.0319 53.5028 20.0127 53.5196Z" fill="#263238"/>
<path d="M20.3933 54.0583C20.3849 54.0847 20.2553 54.0583 20.1101 54.1099C19.9649 54.1615 19.8701 54.2527 19.8509 54.2371C19.8317 54.2215 19.8977 54.0763 20.0789 54.0163C20.2601 53.9563 20.4077 54.0343 20.3933 54.0583Z" fill="#263238"/>
<path d="M20.2983 54.8577C20.2743 54.8493 20.3163 54.7089 20.4591 54.6177C20.6019 54.5265 20.7483 54.5433 20.7459 54.5697C20.7435 54.5961 20.6259 54.6237 20.5131 54.7005C20.4003 54.7773 20.3247 54.8697 20.2983 54.8577Z" fill="#263238"/>
<path d="M20.3337 52.9197C20.3097 52.9353 20.2209 52.8333 20.0793 52.7577C19.9377 52.6821 19.8057 52.6581 19.8057 52.6293C19.8057 52.6005 19.9617 52.5789 20.1261 52.6713C20.2905 52.7637 20.3565 52.9053 20.3337 52.9197Z" fill="#263238"/>
<path d="M20.6622 52.4116C20.6562 52.4212 20.553 52.3768 20.4222 52.2556C20.3432 52.1846 20.2734 52.104 20.2146 52.0156C20.1795 51.9635 20.1483 51.9089 20.121 51.8524C20.1031 51.8197 20.0901 51.7845 20.0826 51.748C20.077 51.721 20.0808 51.6929 20.0935 51.6684C20.1062 51.6439 20.1269 51.6246 20.1522 51.6136C20.1747 51.6046 20.199 51.601 20.2232 51.6031C20.2474 51.6052 20.2707 51.6129 20.2914 51.6256C20.3228 51.6444 20.3511 51.6678 20.3754 51.6952C20.4954 51.8184 20.5824 51.9699 20.6286 52.1356C20.6649 52.2281 20.6716 52.3295 20.6478 52.426C20.6322 52.426 20.6238 52.3168 20.5626 52.1572C20.5261 52.0646 20.4785 51.9768 20.421 51.8956C20.3864 51.8487 20.3483 51.8046 20.307 51.7636C20.2638 51.7168 20.2194 51.6892 20.187 51.7036C20.1546 51.718 20.1738 51.7132 20.175 51.7348C20.1805 51.7616 20.1898 51.7874 20.2026 51.8116C20.2279 51.865 20.2559 51.917 20.2866 51.9676C20.339 52.053 20.3993 52.1333 20.4666 52.2076C20.583 52.3336 20.6706 52.3984 20.6622 52.4116Z" fill="#263238"/>
<path d="M20.6095 52.4267C20.6074 52.3274 20.6368 52.23 20.6935 52.1483C20.7465 52.055 20.8151 51.9714 20.8963 51.9011C20.9446 51.8588 20.9973 51.8218 21.0535 51.7907C21.087 51.7668 21.1262 51.7519 21.1672 51.7475C21.2082 51.7431 21.2496 51.7493 21.2875 51.7655C21.309 51.7795 21.3262 51.7993 21.3368 51.8227C21.3474 51.8461 21.3511 51.8721 21.3475 51.8975C21.3421 51.9344 21.3316 51.9703 21.3163 52.0043C21.2449 52.166 21.1125 52.2928 20.9479 52.3571C20.7715 52.4243 20.6539 52.3907 20.6575 52.3811C20.7463 52.3572 20.8337 52.3279 20.9191 52.2935C21.0058 52.2501 21.082 52.1883 21.1423 52.1123C21.1769 52.0681 21.2052 52.0192 21.2263 51.9671C21.2515 51.9107 21.2587 51.8555 21.2359 51.8471C21.2124 51.8414 21.188 51.8409 21.1644 51.8457C21.1408 51.8505 21.1185 51.8604 21.0991 51.8747C21.0481 51.9015 20.9999 51.9333 20.9551 51.9695C20.8777 52.0308 20.8098 52.1032 20.7535 52.1843C20.6563 52.3259 20.6251 52.4315 20.6095 52.4267Z" fill="#263238"/>
<path d="M37.7018 51.6895L38.1986 54.3727C38.1986 54.3727 41.1698 55.3435 41.189 55.8979L35.5358 55.9651L35.1182 51.6895H37.7018Z" fill="#455A64"/>
<g opacity="0.6">
<path d="M36.0001 54.2904C35.9445 54.3066 35.8966 54.3423 35.8652 54.3911C35.8339 54.4398 35.8213 54.4982 35.8297 54.5556C35.8429 54.6123 35.8775 54.6618 35.9262 54.6937C35.9749 54.7256 36.034 54.7376 36.0913 54.7272C36.1507 54.7105 36.2018 54.6725 36.2348 54.6205C36.2678 54.5684 36.2804 54.506 36.2701 54.4452C36.2493 54.3881 36.2077 54.341 36.1536 54.3133C36.0995 54.2857 36.0369 54.2797 35.9785 54.2964" fill="white"/>
</g>
<g opacity="0.6">
<path d="M35.5361 55.9651L35.4473 55.5547L41.0021 55.6255C41.0615 55.6558 41.1125 55.7003 41.1504 55.7552C41.1883 55.8101 41.212 55.8736 41.2193 55.9399L35.5361 55.9651Z" fill="white"/>
</g>
<path d="M38.2933 54.3451C38.2933 54.3739 38.1505 54.3823 38.0089 54.4651C37.8673 54.5479 37.7905 54.6691 37.7689 54.6583C37.7473 54.6475 37.7893 54.4831 37.9633 54.3811C38.1373 54.2791 38.3005 54.3199 38.2933 54.3451Z" fill="#263238"/>
<path d="M38.8949 54.6131C38.9009 54.6407 38.7749 54.6851 38.6777 54.8027C38.5805 54.9203 38.5481 55.0427 38.5193 55.0427C38.4905 55.0427 38.4773 54.8795 38.6033 54.7367C38.7293 54.5939 38.8949 54.5855 38.8949 54.6131Z" fill="#263238"/>
<path d="M39.2212 55.348C39.196 55.354 39.16 55.2112 39.2368 55.0588C39.3136 54.9064 39.4468 54.8464 39.4588 54.8704C39.4708 54.8944 39.3856 54.976 39.3244 55.102C39.2632 55.228 39.25 55.3456 39.2212 55.348Z" fill="#263238"/>
<path d="M38.0584 53.7197C38.0464 53.7449 37.918 53.7029 37.7572 53.7101C37.5964 53.7173 37.4716 53.7641 37.4572 53.7389C37.4428 53.7137 37.5652 53.6189 37.7548 53.6117C37.9444 53.6045 38.0728 53.6981 38.0584 53.7197Z" fill="#263238"/>
<path d="M24.6534 32.1855C24.5598 32.2491 24.3462 35.4687 24.6534 36.1743L23.8722 41.9763C23.8722 41.9763 21.7746 45.3063 21.3522 45.7911C20.9298 46.2759 18.1914 50.9991 18.1914 50.9991L21.2838 53.6655C21.2838 53.6655 26.6574 46.6455 27.5238 45.3987C28.8762 43.4487 30.4806 36.1191 30.4806 36.1191L30.6894 32.4807L24.6534 32.1855Z" fill="#263238"/>
<path d="M28.876 36.8275C28.9696 36.9991 33.154 43.4275 33.154 43.4275C33.154 43.4275 33.7888 46.8343 33.9292 48.3367C34.0696 49.8391 35.0992 53.7031 35.0992 53.7031L38.4652 53.4391C38.4652 53.4391 37.5556 43.4911 36.9916 41.5531C36.4276 39.6151 34.8628 35.8675 34.8628 35.8675L33.5428 32.3623L29.7376 32.4331L28.876 36.8275Z" fill="#263238"/>
<path d="M31.2575 33.417C31.253 33.4523 31.2458 33.4872 31.2359 33.5214L31.1639 33.8166C31.0979 34.0782 31.0031 34.4466 30.8879 34.8966C30.6479 35.8098 30.3263 37.071 29.9471 38.4582C29.5679 39.8454 29.1971 41.0982 28.9151 41.997C28.7735 42.447 28.6571 42.8106 28.5731 43.0602L28.4759 43.3482C28.4662 43.3821 28.4533 43.4151 28.4375 43.4466C28.4435 43.4119 28.4523 43.3778 28.4639 43.3446L28.5503 43.053C28.6283 42.795 28.7375 42.4314 28.8731 41.9838C29.1443 41.0814 29.5067 39.8298 29.8871 38.4426C30.2675 37.0554 30.5987 35.8026 30.8471 34.8846C30.9671 34.4346 31.0703 34.0674 31.1423 33.8046L31.2251 33.5118C31.2338 33.4795 31.2446 33.4478 31.2575 33.417Z" fill="#455A64"/>
<path d="M41.5977 18.2392C41.5977 18.2392 41.9517 17.9596 42.0657 17.968C42.1797 17.9764 42.8925 18.0796 42.8925 18.0796C42.8925 18.0796 42.9369 18.3796 42.7329 18.478C42.5712 18.5428 42.3994 18.579 42.2253 18.5848L42.0561 18.7048L41.5977 18.2392Z" fill="#FFCAAE"/>
<path d="M32.3096 19.2251L37.8848 23.6015L40.6448 21.0047L40.7204 20.4995C40.743 20.3558 40.7833 20.2156 40.8404 20.0819L41.552 18.3887L43.2188 21.0911C43.2188 21.0911 39.1208 26.4419 38.4008 26.6291C37.454 26.8763 32.7416 23.6855 32.7416 23.6855L32.3096 19.2251Z" fill="#FFCAAE"/>
<path d="M41.5205 19.8799C41.692 20.061 41.8157 20.2821 41.8805 20.523C41.9452 20.7639 41.9489 21.0172 41.8913 21.2599C41.8964 21.0179 41.8727 20.7762 41.8205 20.5399C41.7471 20.3087 41.6464 20.0872 41.5205 19.8799Z" fill="#FF9A6C"/>
<path d="M28.7021 11.3599L28.5929 17.0719C28.5545 18.0475 28.5029 19.4911 30.0473 19.4815C31.3865 19.3711 31.7753 18.1171 31.8101 17.2015C31.8269 16.7707 31.8413 16.4107 31.8461 16.3615C31.8461 16.3615 33.3113 16.2811 33.4733 14.8411C33.5513 14.1439 33.5933 12.6967 33.6209 11.3875C33.6309 10.7108 33.3865 10.055 32.936 9.54994C32.4856 9.04484 31.862 8.72722 31.1885 8.65995L31.0493 8.64675C29.5397 8.58435 28.7225 9.84915 28.7021 11.3599Z" fill="#FFCAAE"/>
<path d="M31.8492 16.3707C31.183 16.3026 30.5504 16.0448 30.0264 15.6279C30.0264 15.6279 30.3792 16.7271 31.8264 16.7415L31.8492 16.3707Z" fill="#FF935C"/>
<path d="M31.2 12.1308C31.1676 12.138 31.0284 12.024 30.7956 11.958C30.5628 11.892 30.3708 11.9052 30.3504 11.8812C30.33 11.8572 30.378 11.8512 30.462 11.844C30.5835 11.836 30.7054 11.8498 30.822 11.8848C30.9362 11.9166 31.0434 11.9699 31.1376 12.042C31.2 12.0924 31.2144 12.1272 31.2 12.1308Z" fill="#263238"/>
<path d="M30.9148 12.4147C30.9099 12.4654 30.8856 12.5123 30.8469 12.5454C30.8081 12.5785 30.7581 12.5953 30.7072 12.5923C30.6822 12.5918 30.6576 12.5864 30.6347 12.5762C30.6119 12.5661 30.5913 12.5515 30.5741 12.5332C30.557 12.515 30.5437 12.4935 30.5351 12.4701C30.5264 12.4466 30.5225 12.4217 30.5236 12.3967C30.5285 12.346 30.5529 12.2991 30.5916 12.266C30.6303 12.2329 30.6804 12.2161 30.7312 12.2191C30.7562 12.2196 30.7809 12.225 30.8037 12.2352C30.8266 12.2453 30.8472 12.2599 30.8643 12.2782C30.8814 12.2964 30.8947 12.3179 30.9034 12.3413C30.9121 12.3648 30.916 12.3897 30.9148 12.4147Z" fill="#263238"/>
<path d="M31.7354 13.6233C31.8556 13.5981 31.9786 13.5884 32.1014 13.5945C32.159 13.5945 32.2142 13.5885 32.2274 13.5501C32.2377 13.492 32.2302 13.4322 32.2058 13.3785C32.1662 13.2369 32.1254 13.0881 32.0858 12.9309C31.9142 12.2937 31.7966 11.7729 31.8218 11.7657C31.847 11.7585 32.0078 12.2709 32.1818 12.9069L32.3018 13.3569C32.3302 13.429 32.3327 13.5087 32.309 13.5825C32.2985 13.6016 32.2839 13.618 32.2663 13.6307C32.2486 13.6434 32.2283 13.6519 32.207 13.6557C32.1747 13.6597 32.142 13.6597 32.1098 13.6557C31.9841 13.6612 31.8582 13.6503 31.7354 13.6233Z" fill="#263238"/>
<path d="M31.0962 11.0118C31.071 11.0646 30.879 11.019 30.6462 11.025C30.4134 11.031 30.2226 11.0766 30.1962 11.025C30.1854 10.9998 30.2226 10.9518 30.303 10.905C30.4083 10.8489 30.5257 10.8193 30.645 10.8186C30.764 10.8155 30.8819 10.8418 30.9882 10.8954C31.0686 10.9386 31.107 10.9866 31.0962 11.0118Z" fill="#263238"/>
<path d="M33.3822 11.5192C33.3546 11.5612 33.1674 11.5084 32.9394 11.4952C32.7114 11.482 32.5194 11.506 32.4966 11.4592C32.487 11.4376 32.5254 11.3992 32.6058 11.3668C32.7146 11.3266 32.8309 11.3106 32.9466 11.32C33.0629 11.3271 33.1764 11.3582 33.2802 11.4112C33.3606 11.4568 33.393 11.5 33.3822 11.5192Z" fill="#263238"/>
<path d="M28.7129 12.4601C28.6877 12.4469 27.6929 12.075 27.6497 13.1142C27.6065 14.1534 28.6589 13.983 28.6625 13.9542C28.6661 13.9254 28.7129 12.4601 28.7129 12.4601Z" fill="#FFCAAE"/>
<path d="M28.3609 13.5461C28.3609 13.5461 28.3417 13.5581 28.3105 13.5713C28.267 13.5887 28.2184 13.5887 28.1749 13.5713C28.0669 13.5269 27.9817 13.3481 27.9841 13.1609C27.9852 13.0718 28.0061 12.9841 28.0453 12.9041C28.0564 12.8719 28.0752 12.8429 28.1001 12.8196C28.125 12.7964 28.1552 12.7797 28.1881 12.7709C28.2091 12.7661 28.2311 12.7689 28.2502 12.7788C28.2693 12.7887 28.2843 12.805 28.2925 12.8249C28.3057 12.8537 28.2925 12.8741 28.3033 12.8765C28.3141 12.8789 28.3261 12.8597 28.3201 12.8165C28.3154 12.7907 28.3018 12.7673 28.2817 12.7505C28.2539 12.7273 28.2181 12.7161 28.1821 12.7193C28.1391 12.7261 28.0986 12.7438 28.0644 12.7707C28.0301 12.7976 28.0033 12.8327 27.9865 12.8729C27.9387 12.961 27.9132 13.0594 27.9121 13.1597C27.9121 13.3697 28.0093 13.5701 28.1521 13.6205C28.1797 13.6298 28.2091 13.6327 28.238 13.6289C28.2669 13.6252 28.2946 13.6149 28.3189 13.5989C28.3573 13.5713 28.3645 13.5485 28.3609 13.5461Z" fill="#FF935C"/>
<path d="M31.7548 14.3135C31.7548 14.2859 31.5556 14.2775 31.3792 14.1347C31.3041 14.0719 31.2379 13.9992 31.1824 13.9187C31.1356 13.8563 31.1032 13.8179 31.0936 13.8239C31.084 13.8299 31.0996 13.8755 31.1344 13.9439C31.1805 14.0404 31.2472 14.1257 31.33 14.1935C31.4148 14.2595 31.5161 14.301 31.6228 14.3135C31.7032 14.3327 31.7536 14.3219 31.7548 14.3135Z" fill="#263238"/>
<path d="M33.3361 12.0151C33.3121 12.0379 33.1345 12.0151 32.9005 12.0799C32.6665 12.1447 32.5093 12.2527 32.4805 12.2443C32.4517 12.2359 32.4889 12.2059 32.5573 12.1567C32.6585 12.0876 32.771 12.0368 32.8897 12.0067C33.0034 11.9736 33.1223 11.9626 33.2401 11.9743C33.3181 11.9839 33.3481 11.9995 33.3361 12.0151Z" fill="#263238"/>
<path d="M33.0242 12.5241C33.0193 12.5748 32.995 12.6216 32.9562 12.6548C32.9175 12.6879 32.8675 12.7047 32.8166 12.7017C32.7916 12.7012 32.7669 12.6958 32.7441 12.6856C32.7212 12.6755 32.7006 12.6609 32.6835 12.6426C32.6664 12.6244 32.6531 12.6029 32.6444 12.5795C32.6358 12.556 32.6319 12.5311 32.633 12.5061C32.6379 12.4554 32.6622 12.4085 32.701 12.3754C32.7397 12.3423 32.7897 12.3254 32.8406 12.3285C32.8656 12.3289 32.8903 12.3344 32.9131 12.3445C32.936 12.3547 32.9566 12.3693 32.9737 12.3875C32.9908 12.4058 33.0041 12.4272 33.0128 12.4507C33.0214 12.4741 33.0253 12.4991 33.0242 12.5241Z" fill="#263238"/>
<path d="M35.6116 10.154C35.5951 10.0953 35.557 10.0451 35.5048 10.0136C35.3906 9.95879 35.264 9.9348 35.1376 9.94399C34.8233 9.92916 34.5165 9.84342 34.24 9.69319C34.3393 9.64826 34.4308 9.58791 34.5112 9.51439C34.5963 9.43973 34.6593 9.34328 34.6936 9.23543C34.7278 9.12758 34.732 9.01243 34.7056 8.90239C34.7015 8.88174 34.6926 8.86233 34.6797 8.84568C34.6668 8.82902 34.6502 8.81558 34.6312 8.80639C34.5676 8.78479 34.5112 8.84599 34.4632 8.89519C34.4048 8.97024 34.3274 9.0283 34.239 9.06332C34.1506 9.09835 34.0544 9.10908 33.9604 9.09439C33.829 9.08263 33.7019 9.04163 33.5884 8.97439L33.5764 8.95999L33.43 8.80399C33.07 8.42599 32.7568 8.16199 32.4316 8.02039C31.9516 7.81399 31.1512 7.71319 30.6448 7.83199C30.1384 7.95079 29.6776 8.34559 29.5936 8.85919C29.3176 8.61919 28.8952 8.60359 28.5484 8.73199H28.54C28.1536 8.85199 27.9256 9.25639 27.8032 9.64279C27.796 9.66319 27.79 9.68479 27.784 9.70639C27.6495 9.90895 27.4684 10.0764 27.256 10.1948C27.2188 10.2152 27.1756 10.2404 27.1696 10.2836C27.1636 10.3268 27.1984 10.3616 27.232 10.3868C27.3226 10.4546 27.4271 10.5013 27.538 10.5236C27.5011 10.6156 27.4566 10.7043 27.4048 10.7888C27.3592 10.8608 27.3052 10.9472 27.3412 11.0288C27.3579 11.0571 27.3828 11.0796 27.4126 11.0936C27.4423 11.1075 27.4756 11.1121 27.508 11.1068C27.5726 11.0942 27.6338 11.0685 27.688 11.0312L27.5524 11.3336C27.6906 11.3604 27.8332 11.3547 27.9688 11.3168C28.0285 11.681 28.1086 12.0416 28.2088 12.3968C28.3684 12.3968 28.5208 12.368 28.6168 12.4592C28.7476 12.5792 28.8016 12.8108 29.026 12.7304C29.146 12.6896 29.2504 12.4556 29.2912 12.3404C29.5613 11.5776 29.6637 10.7655 29.5912 9.95959C29.7544 9.79444 29.9479 9.66242 30.1612 9.57079L30.1432 9.58519C30.5512 9.45679 31.0108 9.33079 31.3888 9.52999C31.6816 9.68479 31.8484 9.99799 32.0632 10.25C32.2513 10.4797 32.4851 10.6677 32.7497 10.8022C33.0143 10.9367 33.304 11.0147 33.6004 11.0312C33.646 11.4692 33.5836 12.02 33.6004 12.428L33.994 11.7824C34.0214 11.7362 34.0462 11.6885 34.0684 11.6396L34.0756 11.6252C34.114 11.5484 34.15 11.4716 34.1956 11.396C34.2419 11.4353 34.3007 11.4568 34.3614 11.4565C34.4222 11.4563 34.4808 11.4343 34.5267 11.3946C34.5727 11.3549 34.6029 11.3001 34.6119 11.24C34.621 11.18 34.6082 11.1187 34.576 11.0672C34.5427 11.0189 34.5023 10.976 34.456 10.94C34.5046 10.9895 34.5652 11.0255 34.6319 11.0446C34.6985 11.0638 34.769 11.0653 34.8364 11.0492C34.9032 11.0305 34.962 10.9905 35.0038 10.9352C35.0457 10.88 35.0682 10.8125 35.068 10.7432C35.0631 10.6981 35.0471 10.655 35.0213 10.6177C34.9955 10.5804 34.9609 10.5501 34.9204 10.5296C35.0989 10.5492 35.2792 10.5145 35.4376 10.43C35.5396 10.3748 35.6404 10.2824 35.6116 10.154Z" fill="#263238"/>
<path d="M30.0378 9.03516C29.9847 9.07373 29.935 9.11668 29.889 9.16356C29.7713 9.29865 29.6907 9.46197 29.655 9.63756C29.6267 9.75759 29.611 9.88026 29.6082 10.0036C29.6082 10.1368 29.6082 10.2796 29.6166 10.4296C29.6265 10.5894 29.6265 10.7497 29.6166 10.9096C29.6098 10.9932 29.5965 11.0763 29.577 11.158C29.5623 11.2459 29.5251 11.3286 29.469 11.398C29.4431 11.4255 29.4104 11.4459 29.3742 11.4571C29.338 11.4682 29.2996 11.4698 29.2626 11.4616C29.1922 11.446 29.1289 11.4076 29.0826 11.3524C29.0068 11.2427 28.962 11.1146 28.953 10.9816H28.983C28.9371 11.0891 28.8756 11.1894 28.8006 11.2792C28.7276 11.3624 28.6253 11.4144 28.515 11.4244C28.464 11.4286 28.4128 11.4182 28.3674 11.3944C28.3247 11.3715 28.2903 11.3359 28.269 11.2924C28.2484 11.2528 28.2389 11.2085 28.2414 11.164C28.2444 11.1222 28.2618 11.0828 28.2906 11.0524L28.3062 11.0668C28.2171 11.1625 28.1093 11.2389 27.9894 11.2912C27.9577 11.3045 27.9252 11.3161 27.8922 11.326C27.881 11.3299 27.8693 11.3323 27.8574 11.3332L27.8898 11.32C27.9126 11.3116 27.9438 11.2996 27.9846 11.2804C28.1012 11.2262 28.2054 11.1486 28.2906 11.0524L28.305 11.0668C28.2806 11.0966 28.2662 11.1334 28.2636 11.1719C28.261 11.2103 28.2705 11.2487 28.2906 11.2816C28.3101 11.3201 28.3412 11.3515 28.3794 11.3716C28.4211 11.392 28.4675 11.4011 28.5138 11.398C28.6164 11.3872 28.7109 11.3373 28.7778 11.2588C28.8507 11.1706 28.9105 11.0724 28.9554 10.9672L28.977 10.9216L28.9854 10.972C28.9936 11.0985 29.035 11.2206 29.1054 11.326C29.1469 11.3757 29.204 11.41 29.2674 11.4232C29.2985 11.4303 29.3309 11.4292 29.3615 11.42C29.392 11.4107 29.4196 11.3936 29.4414 11.3704C29.4933 11.3052 29.528 11.228 29.5422 11.146C29.5606 11.0669 29.5734 10.9868 29.5806 10.906C29.5902 10.7493 29.5902 10.5922 29.5806 10.4356C29.5806 10.2856 29.5698 10.1416 29.5806 10.0072C29.585 9.88211 29.6023 9.75785 29.6322 9.63636C29.6704 9.45693 29.7562 9.29111 29.8806 9.15636C29.9259 9.10751 29.9791 9.06655 30.0378 9.03516Z" fill="#455A64"/>
<path d="M34.4677 10.5592L34.4557 10.5688L34.4197 10.594C34.4029 10.6048 34.3825 10.618 34.3573 10.6312C34.3287 10.6479 34.2991 10.6627 34.2685 10.6756C34.0724 10.758 33.8588 10.7906 33.6469 10.7704C33.3321 10.7405 33.0326 10.6205 32.7841 10.4248C32.4847 10.1827 32.2377 9.88219 32.0581 9.54157C31.9573 9.36397 31.8769 9.18157 31.7869 9.01357C31.7052 8.85035 31.6005 8.69963 31.4761 8.56597C31.3634 8.4453 31.2223 8.35458 31.0657 8.30197C30.9951 8.28004 30.9213 8.26951 30.8473 8.27077C30.779 8.27307 30.7112 8.28436 30.6457 8.30437C30.4436 8.36624 30.2722 8.50208 30.1657 8.68477C30.132 8.75317 30.1051 8.82471 30.0853 8.89837C30.0848 8.89358 30.0848 8.88876 30.0853 8.88397L30.0925 8.83957C30.1061 8.7834 30.1263 8.72903 30.1525 8.67757C30.1959 8.59722 30.2522 8.52463 30.3193 8.46277C30.4092 8.38082 30.5156 8.31904 30.6313 8.28157C30.6989 8.25968 30.7692 8.24716 30.8401 8.24437C30.9215 8.24232 31.0027 8.25408 31.0801 8.27917C31.2419 8.3314 31.3876 8.4239 31.5037 8.54797C31.6291 8.68243 31.7342 8.83442 31.8157 8.99917C31.9069 9.16837 31.9873 9.34957 32.0869 9.52597C32.2658 9.86296 32.5106 10.1605 32.8069 10.4008C33.0504 10.595 33.3444 10.7154 33.6541 10.7476C33.8622 10.7693 34.0725 10.7409 34.2673 10.6648C34.3993 10.6072 34.4653 10.5592 34.4677 10.5592Z" fill="#455A64"/>
<path d="M34.6171 9.92926C34.5996 9.94144 34.5807 9.95151 34.5607 9.95926C34.5107 9.98771 34.4586 10.0122 34.4047 10.0325C34.327 10.0637 34.2467 10.0882 34.1647 10.1057C33.9593 10.1481 33.7474 10.1481 33.5419 10.1057C33.4581 10.0891 33.3758 10.0654 33.2959 10.0349C33.2419 10.0146 33.1894 9.99055 33.1387 9.96286C33.1201 9.95342 33.1024 9.94216 33.0859 9.92926C33.0859 9.92926 33.1675 9.96646 33.3031 10.0121C33.3814 10.0389 33.4617 10.0598 33.5431 10.0745C33.6442 10.0923 33.7466 10.1011 33.8491 10.1009C33.9518 10.0998 34.0541 10.0902 34.1551 10.0721C34.2365 10.0557 34.3166 10.0341 34.3951 10.0073C34.5355 9.96766 34.6135 9.92326 34.6171 9.92926Z" fill="#455A64"/>
<path d="M30.6484 17.2324L32.1328 17.8324C32.4928 17.9368 33.1912 18.5284 33.6076 18.928L35.3356 21.232L32.6956 24.4492L30.6484 17.2324Z" fill="#455A64"/>
<path d="M28.5776 16.1455L28.3376 16.5223C28.3376 16.5223 24.848 17.4319 24.5576 18.1315C24.152 19.1131 24.6848 22.1623 24.6848 22.1623L25.4216 28.7311L24.4136 32.3659L33.6536 32.5243C33.6536 32.5243 33.0932 22.9939 32.9624 21.9859C32.8316 20.9779 31.952 17.5567 31.952 17.5567L28.5776 16.1455Z" fill="#455A64"/>
<path d="M32.8097 20.126C32.8097 20.126 32.8097 20.1368 32.8097 20.1572C32.8097 20.1776 32.8169 20.21 32.8217 20.2472C32.8297 20.3312 32.8417 20.4464 32.8577 20.5928C32.8889 20.8928 32.9285 21.3284 32.9777 21.866C33.0689 22.946 33.1733 24.4292 33.2765 26.0732C33.3797 27.7172 33.4757 29.2052 33.5561 30.2816C33.5969 30.8168 33.6293 31.25 33.6521 31.556C33.6629 31.7036 33.6713 31.8188 33.6773 31.9028C33.6773 31.94 33.6773 31.97 33.6773 31.994C33.6781 32.004 33.6781 32.014 33.6773 32.024C33.6735 32.0144 33.6715 32.0043 33.6713 31.994C33.6713 31.97 33.6641 31.9412 33.6593 31.904C33.6513 31.824 33.6393 31.7088 33.6233 31.5584C33.5921 31.2584 33.5525 30.8228 33.5033 30.2852C33.4121 29.2052 33.3077 27.722 33.2057 26.0768C33.1037 24.4316 33.0053 22.946 32.9249 21.8696C32.8841 21.3344 32.8517 20.9012 32.8289 20.5952C32.8181 20.4476 32.8097 20.3324 32.8037 20.2484C32.8037 20.2112 32.8037 20.1812 32.8037 20.1572C32.8045 20.1466 32.8065 20.1361 32.8097 20.126Z" fill="#263238"/>
<path opacity="0.3" d="M24.8594 30.7536L25.7906 31.1064L26.3078 29.4792C26.3078 29.4792 27.1958 30.1596 27.8174 30.0708C28.439 29.982 29.3258 29.4792 29.3258 29.4792L31.3382 29.8536L33.5414 30.6L33.3794 27.8772L27.551 27.582L25.7906 27.7884L24.8594 30.7536Z" fill="black"/>
<path d="M19.2555 33.0633L20.7579 32.3433C20.8971 31.8789 21.0375 31.4133 21.1911 30.9033L22.9911 31.7037L23.5971 29.8221L25.3971 30.6033L25.9827 28.7109C26.5023 28.9509 26.9427 29.1813 27.4035 29.3373C27.6548 29.4226 27.9273 29.4226 28.1787 29.3373C28.8279 29.0757 29.4495 28.7433 30.0987 28.4289C30.1923 28.6077 30.2511 28.7121 30.3027 28.8201C30.6111 29.4669 30.6327 29.4765 31.2927 29.1729C31.9959 28.8501 32.7003 28.5297 33.3951 28.1925C33.6903 28.0485 33.9159 28.0725 34.2159 28.2429C36.5079 29.5305 38.8131 29.6013 41.0283 28.1013C43.1259 26.6793 44.0439 24.6297 43.7343 22.1313C43.4247 19.6329 42.0087 17.9145 39.6675 17.0409C35.9763 15.6645 31.9683 18.0525 31.3539 21.9489C31.3023 22.2705 31.1847 22.4421 30.8907 22.5645C30.2907 22.8153 29.7015 23.0985 29.1099 23.3709C28.1163 23.8269 28.1175 23.8269 28.4331 24.8817C28.2339 24.9885 28.0731 25.0893 27.8955 25.1685C25.5951 26.2209 19.4667 28.9557 17.4555 29.8485L16.7559 32.2329L19.2555 33.0633ZM42.2007 22.3833C42.0165 22.861 41.6948 23.2732 41.2762 23.5678C40.8576 23.8624 40.361 24.0262 39.8493 24.0384C39.3376 24.0506 38.8337 23.9106 38.4016 23.6362C37.9695 23.3618 37.6285 22.9654 37.4218 22.4971C37.2152 22.0288 37.1522 21.5097 37.2408 21.0055C37.3294 20.5014 37.5656 20.0348 37.9196 19.6651C38.2735 19.2953 38.7292 19.0388 39.229 18.9282C39.7288 18.8176 40.2501 18.8578 40.7271 19.0437C41.0444 19.1651 41.3346 19.3481 41.5807 19.5823C41.8269 19.8164 42.0242 20.0971 42.1612 20.408C42.2983 20.7188 42.3723 21.0538 42.3791 21.3935C42.3859 21.7332 42.3252 22.0708 42.2007 22.3869V22.3833Z" fill="#00AAD3"/>
<path opacity="0.3" d="M28.7005 26.6038L18.3241 31.1026C18.2406 31.1388 18.1461 31.1402 18.0615 31.1067C17.9769 31.0731 17.909 31.0074 17.8729 30.9238C17.8368 30.8403 17.8353 30.7458 17.8689 30.6612C17.9024 30.5766 17.9682 30.5088 18.0517 30.4726L28.4269 25.975C28.4682 25.957 28.5126 25.9472 28.5577 25.9464C28.6027 25.9455 28.6475 25.9536 28.6894 25.9701C28.7313 25.9866 28.7696 26.0112 28.802 26.0425C28.8344 26.0739 28.8602 26.1113 28.8781 26.1526C28.8962 26.1939 28.9059 26.2383 28.9068 26.2834C28.9076 26.3284 28.8996 26.3732 28.8831 26.4152C28.8666 26.4571 28.842 26.4953 28.8106 26.5277C28.7793 26.5601 28.7419 26.586 28.7005 26.6038Z" fill="black"/>
<path d="M29.2697 26.6396C29.2697 26.6396 29.2601 26.6468 29.2397 26.6576L29.1473 26.702L28.7873 26.8688L27.4673 27.4688C26.3549 27.9764 24.8189 28.6688 23.1161 29.4356C21.4133 30.2024 19.8653 30.8756 18.7385 31.3436C18.1757 31.5836 17.7173 31.7696 17.4005 31.8968L17.0405 32.0408L16.9445 32.078L16.9121 32.0876C16.9121 32.0876 16.9217 32.0816 16.9421 32.072L17.0357 32.03L17.3957 31.874L18.7265 31.304C19.8485 30.824 21.3929 30.1388 23.0957 29.384L27.4541 27.4328L28.7741 26.8472L29.1341 26.6924L29.2289 26.6528L29.2697 26.6396Z" fill="#263238"/>
<path d="M30.4109 28.9198C30.3953 28.927 29.9225 27.9742 29.3537 26.791C28.7849 25.6078 28.3385 24.643 28.3529 24.631C28.3673 24.619 28.8425 25.5754 29.4101 26.7598C29.9777 27.9442 30.4265 28.9198 30.4109 28.9198Z" fill="#263238"/>
<path d="M43.4409 22.941C43.4409 22.941 43.4409 22.9086 43.4337 22.8462C43.4265 22.7838 43.4241 22.689 43.4157 22.569C43.4157 22.5074 43.4121 22.439 43.4049 22.3638C43.3965 22.2894 43.3809 22.2078 43.3677 22.1238C43.3545 22.0398 43.3389 21.9402 43.3233 21.8394C43.3034 21.7317 43.2778 21.6251 43.2465 21.5202C43.1109 20.9731 42.8928 20.4499 42.5997 19.9686C42.2173 19.3274 41.7145 18.7662 41.1189 18.3162L40.8681 18.129C40.7793 18.0702 40.6857 18.0174 40.5945 17.961C40.5033 17.9046 40.4109 17.841 40.3101 17.7966L40.0077 17.6514L39.8541 17.5782L39.6933 17.5194L39.3609 17.3994C39.2493 17.3622 39.1329 17.3382 39.0177 17.307C38.9022 17.2733 38.7848 17.2468 38.6661 17.2278C38.4231 17.1822 38.1773 17.1538 37.9305 17.1426C37.8045 17.1426 37.6785 17.1258 37.5513 17.127L37.1661 17.1474C37.1013 17.1474 37.0365 17.1474 36.9717 17.1594L36.7773 17.1894C36.6477 17.211 36.5169 17.2266 36.3861 17.253C36.1229 17.3119 35.864 17.388 35.6109 17.481L35.4177 17.5518C35.3853 17.5638 35.3529 17.5746 35.3217 17.5878L35.2281 17.6322L34.8525 17.8146C34.7325 17.8806 34.6125 17.9586 34.4925 18.0306C34.4325 18.0678 34.3725 18.1014 34.3125 18.1434L34.1421 18.2718C33.9097 18.4436 33.6892 18.6308 33.4821 18.8322L33.1869 19.1586L33.1125 19.2402L33.0453 19.3278L32.9121 19.5066L32.7753 19.6794L32.6553 19.8702L32.5353 20.0634L32.4765 20.1594C32.4585 20.193 32.4429 20.2278 32.4261 20.2614L32.2293 20.6718C32.1765 20.8146 32.1237 20.9574 32.0709 21.1026C31.6711 22.2927 31.6711 23.5809 32.0709 24.771C32.1237 24.915 32.1765 25.059 32.2281 25.2018C32.2797 25.3446 32.3601 25.4754 32.4261 25.6122L32.4753 25.7142L32.5341 25.8102L32.6541 26.0034L32.7741 26.1942L32.9085 26.373L33.0417 26.5518L33.1077 26.6394L33.1821 26.7222C33.2817 26.8302 33.3801 26.9394 33.4785 27.0474C33.6852 27.2488 33.9053 27.436 34.1373 27.6078L34.3089 27.7362C34.3653 27.7794 34.4289 27.8118 34.4889 27.8562C34.6089 27.9282 34.7289 28.005 34.8489 28.0722L35.2245 28.2534L35.3181 28.2978L35.4141 28.335L35.6073 28.4058C35.8604 28.4984 36.1193 28.5741 36.3825 28.6326C36.5133 28.6602 36.6453 28.6746 36.7737 28.6962L36.9681 28.7262C37.0329 28.7346 37.0977 28.7346 37.1625 28.7382L37.5477 28.7586C37.6749 28.7586 37.8009 28.7478 37.9269 28.7442C38.1737 28.7325 38.4195 28.704 38.6625 28.659C38.7811 28.639 38.8985 28.6122 39.0141 28.5786C39.1341 28.5474 39.2457 28.5234 39.3573 28.4874L39.6849 28.3674L39.8469 28.3086L40.0005 28.2354L40.3017 28.0902C40.4025 28.0446 40.4925 27.9798 40.5861 27.927C40.6797 27.8742 40.7709 27.8166 40.8597 27.759L41.1117 27.5706C41.7098 27.1213 42.2155 26.5606 42.6009 25.9194C42.8923 25.435 43.108 24.9089 43.2405 24.3594C43.2716 24.2548 43.2972 24.1487 43.3173 24.0414C43.3329 23.9394 43.3473 23.8446 43.3617 23.7558C43.3761 23.667 43.3905 23.5866 43.3989 23.5158C43.4073 23.445 43.4061 23.373 43.4097 23.3118C43.4181 23.1918 43.4229 23.0982 43.4277 23.0346C43.4325 22.971 43.4349 22.9398 43.4349 22.9398C43.4349 22.9398 43.4349 22.971 43.4349 23.0346C43.4349 23.0982 43.4289 23.1918 43.4241 23.3118C43.4241 23.3742 43.4181 23.4426 43.4157 23.517C43.4133 23.5914 43.3929 23.6742 43.3809 23.757C43.3689 23.8398 43.3545 23.9406 43.3389 24.0426C43.3203 24.1506 43.2958 24.2576 43.2657 24.363C43.1328 24.9124 42.9171 25.4384 42.6261 25.923C42.2438 26.5726 41.7393 27.1419 41.1405 27.5994L40.8873 27.789C40.7985 27.8478 40.7049 27.9018 40.6125 27.9594C40.5201 28.017 40.4277 28.0794 40.3269 28.125L40.0221 28.2726L39.8673 28.3458L39.7053 28.4058L39.3753 28.5258C39.2625 28.5642 39.1461 28.5882 39.0297 28.6194C38.9115 28.6541 38.7912 28.6814 38.6697 28.701C38.4243 28.7468 38.1761 28.7761 37.9269 28.7886C37.8069 28.7886 37.6737 28.8066 37.5453 28.8042L37.1565 28.785C37.0905 28.785 37.0257 28.785 36.9597 28.773L36.7641 28.743C36.6333 28.7214 36.5001 28.707 36.3693 28.6794C36.1033 28.6207 35.8416 28.5445 35.5857 28.4514L35.3901 28.3794C35.3577 28.3674 35.3241 28.3566 35.2929 28.3434L35.1981 28.2978L34.8189 28.1154C34.6989 28.0482 34.5789 27.9702 34.4529 27.897C34.3917 27.8586 34.3329 27.8262 34.2705 27.783L34.0977 27.6534C33.8627 27.48 33.6397 27.2907 33.4305 27.087L33.1317 26.7594L33.0561 26.6766L32.9889 26.5866L32.8545 26.4066L32.7189 26.2266L32.5989 26.0334L32.4789 25.8378L32.4189 25.7406L32.3685 25.6374L32.1693 25.2234C32.1165 25.0794 32.0625 24.9342 32.0097 24.7878C31.6049 23.5849 31.6049 22.2826 32.0097 21.0798C32.0637 20.9346 32.1165 20.7894 32.1693 20.6454C32.2221 20.5014 32.3025 20.3682 32.3697 20.2302C32.3865 20.1966 32.4021 20.1618 32.4201 20.1282L32.4789 20.0298L32.5989 19.8354L32.7189 19.6422L32.8545 19.4622L32.9889 19.2822L33.0573 19.1922L33.1317 19.1094C33.2325 19.0002 33.3321 18.8898 33.4305 18.7818C33.6403 18.5787 33.8632 18.3895 34.0977 18.2154L34.2705 18.0858C34.3281 18.0426 34.3905 18.0102 34.4529 17.9658C34.5729 17.8926 34.6929 17.8146 34.8189 17.7474L35.1981 17.565L35.2929 17.5194C35.3241 17.5062 35.3577 17.4954 35.3901 17.4834L35.5857 17.4126C35.8411 17.3191 36.1025 17.2425 36.3681 17.1834C36.5001 17.157 36.6333 17.1414 36.7641 17.1198L36.9597 17.091C37.0245 17.0826 37.0905 17.0826 37.1565 17.0778L37.5441 17.0586C37.6725 17.0586 37.8009 17.0694 37.9269 17.0742C38.1761 17.0868 38.4243 17.116 38.6697 17.1618C38.7911 17.182 38.9113 17.2092 39.0297 17.2434C39.1497 17.2758 39.2625 17.2998 39.3753 17.337L39.7053 17.457L39.8673 17.517L40.0221 17.5902L40.3269 17.7378C40.4277 17.7846 40.5177 17.8494 40.6125 17.9046C40.7073 17.9598 40.7985 18.015 40.8873 18.0738L41.1405 18.2646C41.7382 18.7198 42.2419 19.2867 42.6237 19.9338C42.9155 20.4181 43.1316 20.9442 43.2645 21.4938C43.2944 21.5993 43.3188 21.7062 43.3377 21.8142C43.3533 21.9162 43.3665 22.0122 43.3797 22.101C43.3929 22.1898 43.4073 22.2702 43.4145 22.341C43.4217 22.4118 43.4205 22.485 43.4229 22.5462C43.4229 22.6662 43.4313 22.7598 43.4337 22.8246C43.4361 22.8894 43.4409 22.941 43.4409 22.941Z" fill="#263238"/>
<path d="M42.6356 21.4559C42.6317 21.4406 42.6297 21.4249 42.6296 21.4091L42.62 21.2711C42.62 21.2415 42.6176 21.2079 42.6128 21.1703C42.6128 21.1331 42.6008 21.0935 42.5936 21.0503C42.5808 20.9497 42.5603 20.8502 42.5324 20.7527C42.4645 20.4823 42.3561 20.2238 42.2108 19.9859C41.8277 19.3556 41.2187 18.8951 40.5079 18.6983C39.7971 18.5014 39.0379 18.5829 38.3852 18.9263C38.2625 18.9931 38.145 19.0689 38.0336 19.1531C37.9191 19.2378 37.8105 19.33 37.7084 19.4291C37.6071 19.5333 37.5133 19.6443 37.4276 19.7615C37.2487 20.0011 37.1101 20.2682 37.0172 20.5523C36.8204 21.1395 36.8204 21.7748 37.0172 22.3619C37.1102 22.6454 37.2484 22.912 37.4264 23.1515C37.5129 23.2689 37.6071 23.3803 37.7084 23.4851C37.8105 23.5843 37.9191 23.6765 38.0336 23.7611C38.1453 23.8449 38.2628 23.9207 38.3852 23.9879C38.5058 24.0518 38.6309 24.1067 38.7596 24.1523C39.2418 24.3278 39.7621 24.3713 40.2668 24.2783C40.6677 24.2033 41.0483 24.0442 41.3833 23.8115C41.7184 23.5788 42.0004 23.2778 42.2108 22.9283C42.3561 22.6904 42.4645 22.4319 42.5324 22.1615C42.5603 22.064 42.5808 21.9645 42.5936 21.8639C42.6008 21.8195 42.6092 21.7799 42.6128 21.7439L42.62 21.6431L42.6296 21.5051C42.6297 21.4893 42.6317 21.4736 42.6356 21.4583C42.6372 21.4739 42.6372 21.4896 42.6356 21.5051C42.6356 21.5399 42.6356 21.5855 42.6356 21.6431C42.6356 21.6743 42.6356 21.7079 42.6356 21.7451C42.6356 21.7823 42.626 21.8231 42.62 21.8651C42.6089 21.9668 42.5901 22.0675 42.5636 22.1663C42.4993 22.4407 42.3928 22.7034 42.248 22.9451C42.0371 23.3017 41.753 23.6094 41.4144 23.8479C41.0757 24.0864 40.6903 24.2503 40.2836 24.3287C39.7696 24.4263 39.2389 24.3849 38.7464 24.2087C38.6155 24.1619 38.488 24.1062 38.3648 24.0419C38.2393 23.9739 38.119 23.8969 38.0048 23.8115C37.8879 23.7249 37.7769 23.6307 37.6724 23.5295C37.5688 23.4234 37.4726 23.3103 37.3844 23.1911C37.2004 22.9453 37.0574 22.6713 36.9608 22.3799C36.7592 21.78 36.7592 21.1306 36.9608 20.5307C37.0565 20.2413 37.1979 19.9691 37.3796 19.7243C37.4681 19.605 37.5643 19.4915 37.6676 19.3847C37.7721 19.284 37.8831 19.1902 38 19.1039C38.1142 19.0185 38.2345 18.9415 38.36 18.8735C38.4832 18.8093 38.6107 18.7535 38.7416 18.7067C39.2341 18.5306 39.7648 18.4891 40.2788 18.5867C40.6849 18.6645 41.07 18.8277 41.4082 19.0656C41.7465 19.3036 42.0303 19.6107 42.2408 19.9667C42.3856 20.2084 42.4921 20.4712 42.5564 20.7455C42.5829 20.8443 42.6017 20.945 42.6128 21.0467C42.6128 21.0911 42.626 21.1319 42.6284 21.1667C42.6308 21.2015 42.6284 21.2375 42.6284 21.2687C42.6284 21.3263 42.6284 21.3719 42.6284 21.4067C42.6325 21.4228 42.635 21.4393 42.6356 21.4559Z" fill="#263238"/>
<path opacity="0.3" d="M34.8623 17.2602V28.5738C35.377 28.8194 35.9205 28.9996 36.4799 29.1102L36.3599 16.7646C35.8405 16.8612 35.3367 17.0279 34.8623 17.2602Z" fill="white"/>
<path d="M34.0419 28.1589C34.0239 28.1589 34.0107 25.8357 34.0107 22.9701C34.0107 20.1045 34.0239 17.7812 34.0419 17.7812C34.0599 17.7812 34.0731 20.1045 34.0731 22.9701C34.0731 25.8357 34.0587 28.1589 34.0419 28.1589Z" fill="white"/>
<path d="M32.8044 18.999C32.7789 19.0493 32.7488 19.0971 32.7144 19.1418C32.652 19.2306 32.5656 19.3626 32.466 19.5294C32.3483 19.7236 32.241 19.9239 32.1444 20.1294C32.0265 20.3809 31.9232 20.6389 31.8348 20.9022C31.7499 21.1669 31.6798 21.4361 31.6248 21.7086C31.578 21.9606 31.5456 22.1886 31.5288 22.3818C31.512 22.575 31.5012 22.7322 31.4988 22.8414C31.5005 22.8977 31.4965 22.954 31.4868 23.0094C31.4778 22.9535 31.4738 22.8969 31.4748 22.8402C31.4748 22.7322 31.4748 22.5738 31.4844 22.3782C31.5 22.1501 31.528 21.9229 31.5684 21.6978C31.6698 21.1454 31.8459 20.6093 32.0916 20.1042C32.1927 19.8983 32.3049 19.698 32.4276 19.5042C32.5344 19.3398 32.6256 19.2114 32.694 19.1262C32.7268 19.0805 32.7638 19.038 32.8044 18.999Z" fill="white"/>
<path d="M31.0416 22.9375C30.696 23.137 30.3404 23.3184 29.976 23.4811C29.6204 23.6629 29.2555 23.8259 28.8828 23.9695C29.2282 23.7693 29.5839 23.5874 29.9484 23.4247C30.3042 23.2436 30.6691 23.081 31.0416 22.9375Z" fill="white"/>
<path d="M27.9375 25.4766C27.9375 25.4766 27.9303 25.4826 27.9135 25.4922L27.8415 25.5294L27.5583 25.6698C27.3123 25.7898 26.9583 25.9626 26.5107 26.1714C25.6251 26.5902 24.3939 27.1566 23.0307 27.7614C21.6675 28.3662 20.4147 28.893 19.5075 29.2662C19.0539 29.4534 18.6867 29.6022 18.4275 29.703L18.1335 29.817L18.0567 29.8458L18.0303 29.853C18.0303 29.853 18.0375 29.847 18.0543 29.8398L18.1287 29.805L18.4191 29.685L19.4871 29.2302C20.3895 28.8474 21.6339 28.3134 23.0019 27.7098C24.3699 27.1062 25.6023 26.5446 26.4939 26.1366L27.5487 25.6566L27.8367 25.527L27.9123 25.4946L27.9375 25.4766Z" fill="white"/>
<path d="M39.8275 18.2957C39.8275 18.3077 39.6199 18.2657 39.2863 18.2777C38.8515 18.2921 38.4258 18.4067 38.0425 18.6128C37.6593 18.8189 37.3289 19.1108 37.0771 19.4657C36.8827 19.7369 36.8047 19.9325 36.7939 19.9265C36.8052 19.8789 36.8226 19.8329 36.8455 19.7897C36.9005 19.6679 36.9659 19.551 37.0411 19.4405C37.2887 19.0723 37.6226 18.7703 38.0138 18.5609C38.405 18.3515 38.8415 18.2411 39.2851 18.2393C39.4189 18.2382 39.5525 18.2479 39.6847 18.2681C39.7333 18.2714 39.7813 18.2807 39.8275 18.2957Z" fill="white"/>
<path d="M40.7473 17.6748C40.6956 17.6574 40.6457 17.6349 40.5985 17.6076C40.5061 17.5596 40.3693 17.496 40.1977 17.4216C40.0261 17.3472 39.8185 17.2716 39.5845 17.1972C39.3287 17.1208 39.0686 17.0595 38.8057 17.0136C38.5424 16.9703 38.2767 16.943 38.0101 16.932C37.7924 16.9245 37.5745 16.9286 37.3573 16.944C37.1713 16.9572 37.0201 16.9728 36.9169 16.9872C36.8636 16.9983 36.8093 17.0036 36.7549 17.0028C36.8062 16.9843 36.8593 16.9711 36.9133 16.9632C37.0165 16.9416 37.1665 16.9188 37.3525 16.8996C37.5718 16.878 37.7922 16.8695 38.0125 16.8744C38.2818 16.8831 38.5504 16.9088 38.8165 16.9512C39.0819 16.998 39.344 17.0617 39.6013 17.142C39.8108 17.2094 40.016 17.2895 40.2157 17.382C40.3861 17.4612 40.5205 17.532 40.6105 17.586C40.6588 17.6111 40.7046 17.6408 40.7473 17.6748Z" fill="white"/>
<path opacity="0.3" d="M26.2825 26.4252L26.6917 24.354L27.1741 24.3348L27.4153 21.6396L26.8969 23.7852L26.3701 23.6676L25.8721 26.3412L26.2825 26.4252Z" fill="black"/>
<path d="M30.508 27.2533C30.508 27.2533 31.228 26.7301 31.468 26.6425C31.708 26.5549 32.548 26.4025 32.842 26.1973C32.8762 26.2129 32.9058 26.2371 32.9278 26.2676C32.9498 26.298 32.9636 26.3337 32.9677 26.3711C32.9718 26.4085 32.9661 26.4463 32.9513 26.4808C32.9364 26.5153 32.9128 26.5454 32.8828 26.5681C32.6417 26.7989 32.3558 26.9778 32.0428 27.0937C31.8316 27.1561 31.8988 27.3085 32.05 27.3613C32.2012 27.4141 33.28 27.6013 33.28 27.6013C33.28 27.6013 34.534 27.6289 34.6372 27.7561C34.6573 27.7824 34.6711 27.813 34.6777 27.8454C34.6843 27.8779 34.6835 27.9114 34.6753 27.9435C34.6671 27.9756 34.6518 28.0054 34.6304 28.0307C34.6091 28.056 34.5823 28.0762 34.552 28.0897C34.4776 28.1161 33.4012 28.1881 33.4012 28.1881L32.848 28.1221C32.848 28.1221 34.5676 28.4401 34.666 28.5841C34.685 28.6071 34.6982 28.6342 34.7047 28.6633C34.7112 28.6924 34.7107 28.7226 34.7034 28.7514C34.696 28.7803 34.6819 28.807 34.6623 28.8294C34.6427 28.8519 34.6181 28.8693 34.5904 28.8805C34.5028 28.9333 33.7444 28.7857 33.7444 28.7857L32.7112 28.6573L34.5916 29.1961C34.5916 29.1961 34.762 29.2693 34.726 29.4109C34.69 29.5525 34.4572 29.5825 34.4572 29.5825L32.4688 29.1961C32.4688 29.1961 33.4444 29.8801 33.4804 29.9641C33.526 30.0841 33.3256 30.1921 33.2488 30.1429C33.172 30.0937 31.9288 29.5585 31.9288 29.5585L30.502 28.9093L29.5576 28.9201L29.968 27.1705L30.508 27.2533Z" fill="#FFCAAE"/>
<path d="M26.2336 28.9689L30.2884 28.9089L30.2104 27.2205L25.8724 26.3409L26.4976 23.1525L23.5396 22.4697C23.1931 23.9793 22.964 25.5135 22.8544 27.0585C22.8544 27.0585 22.6516 28.3365 24.0988 28.6917C24.8017 28.8423 25.5157 28.9351 26.2336 28.9689Z" fill="#FFCAAE"/>
<path d="M22.8174 22.8732L26.8974 23.7852C26.8974 23.7852 27.6102 21.1284 27.6342 20.3916C27.6582 19.6548 26.649 17.3232 25.2258 17.7948C25.2258 17.7948 24.7962 17.7084 24.4038 18.2832C24.2466 18.5148 22.8174 22.8732 22.8174 22.8732Z" fill="#455A64"/>
<path d="M27.4566 20.008C27.468 19.8093 27.4531 19.6099 27.4122 19.4152C27.3632 19.207 27.2891 19.0055 27.1914 18.8152C27.0871 18.5734 26.9217 18.3629 26.7114 18.2044C26.4967 18.0551 26.2502 17.9578 25.9914 17.92C25.7781 17.889 25.5623 17.879 25.347 17.89C25.2017 17.8947 25.0571 17.9128 24.915 17.944C24.8142 17.9668 24.7614 17.9884 24.759 17.9836C24.7566 17.9788 24.771 17.974 24.7962 17.9632C24.8327 17.9459 24.8704 17.9314 24.909 17.92C25.0507 17.8795 25.1964 17.8546 25.3434 17.8456C25.5623 17.8283 25.7823 17.8343 25.9998 17.8636C26.2694 17.8992 26.5266 17.9988 26.7498 18.154C26.9662 18.3195 27.1354 18.5387 27.2406 18.79C27.3378 18.9867 27.4088 19.1952 27.4518 19.4104C27.4813 19.5556 27.491 19.7041 27.4806 19.852C27.4778 19.8922 27.4726 19.9323 27.465 19.972C27.4626 19.9936 27.459 20.008 27.4566 20.008Z" fill="#263238"/>
<path d="M27.4566 21.3291C27.4566 21.3291 27.4566 21.3459 27.4506 21.3783C27.4446 21.4107 27.435 21.4611 27.4242 21.5163C27.3978 21.6447 27.3618 21.8175 27.3162 22.0311C27.2178 22.4775 27.0822 23.0883 26.9262 23.7915V23.8203H26.8962L26.079 23.6391L23.7702 23.1135L23.0718 22.9479L22.8834 22.8999C22.8606 22.8954 22.8384 22.8881 22.8174 22.8783C22.8404 22.8783 22.8634 22.8812 22.8858 22.8867L23.0778 22.9239L23.7798 23.0703L26.0934 23.5791L26.9034 23.7603L26.8674 23.7831L27.279 22.0287C27.3306 21.8175 27.3738 21.6447 27.405 21.5175L27.441 21.3819C27.4438 21.3637 27.449 21.3459 27.4566 21.3291Z" fill="#263238"/>
<path d="M43.4886 20.9994C43.5327 21.0115 43.5791 21.0114 43.6231 20.9991C43.667 20.9869 43.7068 20.9629 43.7382 20.9298C43.8702 20.8098 44.0898 20.5098 43.995 20.3958C43.8993 20.3127 43.7827 20.2571 43.6578 20.235C43.6578 20.235 43.833 20.0142 43.7574 19.8522C43.7452 19.8218 43.727 19.7941 43.704 19.7707C43.681 19.7473 43.6536 19.7288 43.6234 19.716C43.5931 19.7033 43.5607 19.6967 43.5279 19.6966C43.4951 19.6965 43.4626 19.7029 43.4322 19.7154C43.4635 19.6487 43.4802 19.5761 43.4812 19.5024C43.4822 19.4288 43.4676 19.3558 43.4382 19.2882C43.4252 19.2526 43.4051 19.22 43.3791 19.1923C43.3531 19.1647 43.3218 19.1426 43.287 19.1274L43.0782 19.0362C43.0782 19.0362 43.2642 18.7578 43.0518 18.5262C43.0056 18.4762 42.9502 18.4354 42.8886 18.4062C42.7583 18.3361 42.6089 18.31 42.4626 18.3316C42.3162 18.3532 42.1807 18.4215 42.0762 18.5262C42.2442 18.693 42.4362 18.879 42.3918 19.017C42.3918 19.017 41.5098 19.6014 41.7378 19.911C41.8842 20.1114 42.0378 20.0214 42.0378 20.0214C42.0378 20.0214 41.8194 20.2206 41.9346 20.3526C41.9714 20.3916 42.0198 20.4177 42.0726 20.427C42.128 20.4438 42.1864 20.4483 42.2436 20.44C42.3008 20.4317 42.3556 20.4108 42.4038 20.379L42.549 20.2974C42.5319 20.3465 42.5284 20.3994 42.539 20.4503C42.5495 20.5013 42.5738 20.5484 42.609 20.5866C42.6193 20.595 42.6301 20.6026 42.6414 20.6094C42.6948 20.6418 42.7564 20.658 42.8188 20.6561C42.8813 20.6542 42.9418 20.6342 42.993 20.5986L43.3206 20.3994L43.3494 20.5602C43.3494 20.5602 43.1562 20.7774 43.4886 20.9994Z" fill="#FFCAAE"/>
<path d="M43.4885 21C43.4472 20.9774 43.4095 20.9487 43.3769 20.9148C43.3359 20.8743 43.3061 20.8239 43.2905 20.7684C43.2807 20.7293 43.2799 20.6884 43.2882 20.6489C43.2965 20.6094 43.3137 20.5723 43.3385 20.5404V20.5524C43.3289 20.502 43.3193 20.448 43.3085 20.3916L43.3337 20.4024L43.1381 20.5344L43.0313 20.6064C42.9928 20.6351 42.9498 20.657 42.9041 20.6712C42.8536 20.6869 42.8001 20.6902 42.7481 20.6808C42.696 20.6714 42.6471 20.6496 42.6053 20.6172C42.5596 20.5806 42.5288 20.5285 42.5189 20.4708C42.5089 20.4129 42.5122 20.3534 42.5285 20.2968L42.5645 20.3256C42.4937 20.364 42.4289 20.4072 42.3473 20.4456C42.2625 20.481 42.1684 20.4873 42.0797 20.4636C42.0314 20.4549 41.9859 20.4352 41.9465 20.406C41.9248 20.3899 41.9072 20.3689 41.8951 20.3447C41.883 20.3205 41.8768 20.2939 41.8769 20.2668C41.8806 20.2152 41.898 20.1655 41.9273 20.1228C41.9541 20.0793 41.9859 20.0391 42.0221 20.0028L42.0557 20.0484C42.0247 20.0639 41.9906 20.0719 41.9561 20.0719C41.9215 20.0719 41.8874 20.0639 41.8565 20.0484C41.7955 20.0191 41.7443 19.9729 41.7089 19.9152C41.6904 19.8849 41.6789 19.8509 41.6752 19.8157C41.6714 19.7804 41.6756 19.7447 41.6873 19.7112C41.7078 19.6469 41.739 19.5864 41.7797 19.5324C41.9491 19.3208 42.1518 19.1381 42.3797 18.9912L42.3677 19.008C42.3753 18.9514 42.3602 18.894 42.3257 18.8484C42.2905 18.7936 42.2504 18.7422 42.2057 18.6948C42.1589 18.6444 42.1109 18.5964 42.0629 18.5484L42.0413 18.528L42.0617 18.5052C42.1637 18.3939 42.3018 18.322 42.4517 18.3024C42.5952 18.2841 42.741 18.3044 42.8741 18.3612C42.9418 18.3844 43.0035 18.4223 43.055 18.472C43.1064 18.5218 43.1463 18.5823 43.1717 18.6492C43.1906 18.7158 43.1949 18.7856 43.1844 18.8539C43.1738 18.9223 43.1486 18.9875 43.1105 19.0452L43.0985 19.0032L43.3133 19.098C43.351 19.1159 43.3848 19.1411 43.4126 19.1722C43.4405 19.2033 43.4618 19.2397 43.4753 19.2792C43.5029 19.3501 43.516 19.4259 43.5137 19.502C43.5115 19.5781 43.4939 19.6529 43.4621 19.722L43.4309 19.6848C43.468 19.6702 43.5079 19.6636 43.5478 19.6655C43.5877 19.6673 43.6268 19.6776 43.6625 19.6956C43.7279 19.7349 43.7766 19.7968 43.7993 19.8696C43.8144 19.939 43.8068 20.0113 43.7777 20.076C43.7538 20.1353 43.7219 20.191 43.6829 20.2416L43.6709 20.208C43.7662 20.2271 43.8575 20.2624 43.9409 20.3124C43.9831 20.3351 44.0168 20.3709 44.0369 20.4144C44.047 20.4579 44.0441 20.5034 44.0285 20.5452C43.9775 20.6721 43.9011 20.7873 43.8041 20.8836C43.7487 20.95 43.6702 20.9929 43.5845 21.0036C43.5626 21.0073 43.5403 21.0073 43.5185 21.0036C43.5041 21.0036 43.4969 20.9964 43.4969 20.9952C43.5255 20.9996 43.5546 20.9996 43.5833 20.9952C43.6651 20.9797 43.7382 20.9344 43.7885 20.868C43.8788 20.7721 43.9497 20.6597 43.9973 20.5368C44.008 20.5012 44.008 20.4632 43.9973 20.4276C43.9796 20.392 43.951 20.363 43.9157 20.3448C43.8357 20.2991 43.7484 20.2674 43.6577 20.2512L43.6265 20.244L43.6457 20.2176C43.6848 20.172 43.7141 20.1189 43.7318 20.0615C43.7496 20.0042 43.7554 19.9437 43.7489 19.884C43.728 19.8232 43.6852 19.7723 43.6289 19.7412C43.5996 19.7267 43.5675 19.7186 43.5348 19.7173C43.5021 19.7161 43.4696 19.7218 43.4393 19.734L43.3769 19.7568L43.4081 19.6968C43.4343 19.6337 43.4478 19.566 43.4478 19.4976C43.4478 19.4293 43.4343 19.3616 43.4081 19.2984C43.3972 19.266 43.3798 19.2361 43.3569 19.2107C43.3339 19.1853 43.306 19.1649 43.2749 19.1508L43.0601 19.0572L43.0301 19.044L43.0481 19.014C43.0807 18.9636 43.1023 18.9069 43.1114 18.8475C43.1205 18.7881 43.1169 18.7275 43.1009 18.6696C43.0778 18.6111 43.0423 18.5583 42.9967 18.515C42.951 18.4716 42.8965 18.4388 42.8369 18.4188C42.7135 18.3668 42.5785 18.3481 42.4457 18.3648C42.3101 18.3827 42.1852 18.4477 42.0929 18.5484V18.5052C42.1421 18.5532 42.1901 18.6024 42.2381 18.6528C42.2862 18.7036 42.3295 18.7586 42.3677 18.8172C42.3898 18.847 42.4056 18.881 42.4138 18.9172C42.4221 18.9533 42.4227 18.9908 42.4157 19.0272V19.038L42.4061 19.0452C42.1854 19.188 41.9886 19.3645 41.8229 19.5684C41.7509 19.6668 41.6921 19.794 41.7533 19.8852C41.7821 19.9329 41.8237 19.9715 41.8733 19.9968C41.8961 20.0078 41.9211 20.0135 41.9465 20.0135C41.9718 20.0135 41.9968 20.0078 42.0197 19.9968L42.1877 19.9116L42.0533 20.0424C41.9865 20.098 41.9415 20.1754 41.9261 20.2608C41.9201 20.3376 42.0053 20.3892 42.0833 20.4036C42.1623 20.4272 42.247 20.423 42.3233 20.3916C42.3941 20.3592 42.4661 20.3136 42.5357 20.2716L42.5873 20.244L42.5705 20.3004C42.5515 20.3459 42.547 20.396 42.5575 20.4441C42.568 20.4922 42.5931 20.5359 42.6293 20.5692C42.6651 20.5981 42.7075 20.6177 42.7526 20.6265C42.7978 20.6353 42.8444 20.6329 42.8885 20.6196C42.9683 20.5864 43.0437 20.5432 43.1129 20.4912L43.3109 20.364L43.3313 20.3496V20.3736C43.3397 20.4312 43.3493 20.4852 43.3577 20.5356C43.3349 20.5641 43.3187 20.5973 43.3102 20.6328C43.3017 20.6682 43.3011 20.7051 43.3085 20.7408C43.3226 20.7936 43.3494 20.8422 43.3865 20.8824C43.4489 20.976 43.4909 21 43.4885 21Z" fill="#FF9A6C"/>
<path d="M43.1221 18.9523C43.1207 19.0286 43.1001 19.1033 43.0621 19.1695C42.9817 19.3355 42.8681 19.4833 42.7285 19.6039C42.5909 19.7232 42.4408 19.8274 42.2809 19.9147C42.2183 19.9562 42.15 19.9885 42.0781 20.0107C42.1318 19.9579 42.1923 19.9127 42.2581 19.8763C42.4082 19.78 42.5513 19.6733 42.6865 19.5571C42.82 19.4408 42.9335 19.3033 43.0225 19.1503C43.0885 19.0315 43.1125 18.9487 43.1221 18.9523Z" fill="#FF9A6C"/>
<path d="M43.4403 19.6611C43.4487 19.6611 43.4319 19.7367 43.3455 19.8063C43.2591 19.8759 43.1427 19.9527 43.0107 20.0463C42.8559 20.1625 42.6889 20.2614 42.5127 20.3415C42.654 20.2094 42.8093 20.0931 42.9759 19.9947C43.1079 19.9059 43.2327 19.8291 43.3191 19.7739C43.3631 19.7405 43.4037 19.7027 43.4403 19.6611Z" fill="#FF9A6C"/>
<path d="M43.6808 20.2255C43.6904 20.2387 43.616 20.3083 43.5044 20.3575C43.3928 20.4067 43.2908 20.4151 43.2872 20.3983C43.2836 20.3815 43.3724 20.3467 43.4792 20.2999C43.586 20.2531 43.6736 20.2111 43.6808 20.2255Z" fill="#FF9A6C"/>
<path d="M43.6284 20.4C43.6284 20.418 43.5456 20.4348 43.464 20.4936C43.3824 20.5524 43.338 20.6232 43.3212 20.6136C43.3044 20.604 43.3296 20.5092 43.428 20.4396C43.5264 20.37 43.6308 20.388 43.6284 20.4Z" fill="#FF9A6C"/>
</svg>
