<svg width="280" height="232" viewBox="0 0 280 232" fill="none" xmlns="http://www.w3.org/2000/svg">
<path d="M235.992 64.9597C235.992 64.9597 197.62 16.1098 147.754 12.3375C97.888 8.56517 68.8091 48.6037 55.0294 72.4812C41.2496 96.3586 6.86935 136.142 10.9238 172.571C14.9782 208.999 54.7269 236.64 111.668 224.497C168.609 212.354 185.117 207.746 211.06 216.962C237.003 226.177 270.697 212.354 271.369 160.01C272.041 107.666 235.992 64.9597 235.992 64.9597Z" fill="#00AAD3"/>
<path opacity="0.7" d="M235.992 64.9597C235.992 64.9597 197.62 16.1098 147.754 12.3375C97.888 8.56517 68.8091 48.6037 55.0294 72.4812C41.2496 96.3586 6.86935 136.142 10.9238 172.571C14.9782 208.999 54.7269 236.64 111.668 224.497C168.609 212.354 185.117 207.746 211.06 216.962C237.003 226.177 270.697 212.354 271.369 160.01C272.041 107.666 235.992 64.9597 235.992 64.9597Z" fill="white"/>
<path d="M18.2617 211.886H261.645" stroke="#263238" stroke-miterlimit="10"/>
<path d="M28.8672 134.342L33.7915 192.945" stroke="#263238" stroke-width="2" stroke-miterlimit="10"/>
<path d="M32.9944 181.731L30.7656 178.803" stroke="#263238" stroke-width="2" stroke-miterlimit="10"/>
<path d="M31.4418 179.679C31.4373 179.231 31.3557 178.789 31.2025 178.383C31.0492 177.978 30.8279 177.617 30.5533 177.327C29.9821 176.691 26.9693 175.118 26.6818 176.436C26.372 177.87 29.4557 180.691 31.4418 179.679Z" fill="#00AAD3" stroke="#263238" stroke-miterlimit="10"/>
<path d="M31.4414 179.68L28.5742 177.457" stroke="#263238" stroke-width="0.5" stroke-miterlimit="10"/>
<path d="M33.5569 188.398L31.3281 185.47" stroke="#263238" stroke-width="2" stroke-miterlimit="10"/>
<path d="M32.0043 186.347C32.0001 185.899 31.9186 185.457 31.7653 185.051C31.612 184.645 31.3906 184.285 31.1158 183.995C30.5446 183.359 27.5318 181.781 27.2443 183.099C26.9345 184.537 30.0182 187.354 32.0043 186.347Z" fill="#00AAD3" stroke="#263238" stroke-miterlimit="10"/>
<path d="M32.0039 186.347L29.1367 184.124" stroke="#263238" stroke-width="0.5" stroke-miterlimit="10"/>
<path d="M31.6311 165.467L29.4023 162.539" stroke="#263238" stroke-width="2" stroke-miterlimit="10"/>
<path d="M30.0776 163.417C30.0731 162.969 29.9918 162.527 29.8393 162.122C29.6867 161.716 29.4663 161.356 29.1928 161.064C28.6179 160.428 25.6051 158.851 25.3176 160.173C25.0152 161.607 28.0915 164.423 30.0776 163.417Z" fill="#00AAD3" stroke="#263238" stroke-miterlimit="10"/>
<path d="M30.0781 163.416L27.2109 161.193" stroke="#263238" stroke-width="0.5" stroke-miterlimit="10"/>
<path d="M32.1897 172.13L29.9609 169.202" stroke="#263238" stroke-width="2" stroke-miterlimit="10"/>
<path d="M30.6371 170.08C30.6327 169.631 30.551 169.19 30.3978 168.784C30.2445 168.378 30.0232 168.018 29.7486 167.727C29.1774 167.091 26.1646 165.518 25.8771 166.836C25.5673 168.27 28.651 171.091 30.6371 170.08Z" fill="#00AAD3" stroke="#263238" stroke-miterlimit="10"/>
<path d="M30.6367 170.079L27.7695 167.856" stroke="#263238" stroke-width="0.5" stroke-miterlimit="10"/>
<path d="M30.7208 154.637L28.4883 151.709" stroke="#263238" stroke-width="2" stroke-miterlimit="10"/>
<path d="M29.1689 152.587C29.1644 152.138 29.0828 151.697 28.9295 151.291C28.7763 150.885 28.5549 150.525 28.2803 150.234C27.7091 149.603 24.6926 148.026 24.4089 149.343C24.0953 150.8 27.1827 153.584 29.1689 152.587Z" fill="#00AAD3" stroke="#263238" stroke-miterlimit="10"/>
<path d="M29.1678 152.587L26.2969 150.364" stroke="#263238" stroke-width="0.5" stroke-miterlimit="10"/>
<path d="M29.8069 143.766L27.5781 140.838" stroke="#263238" stroke-width="2" stroke-miterlimit="10"/>
<path d="M28.2543 141.714C28.2498 141.266 28.1682 140.824 28.015 140.419C27.8617 140.013 27.6404 139.653 27.3658 139.362C26.7946 138.726 23.7818 137.149 23.4943 138.471C23.1845 139.905 26.2682 142.721 28.2543 141.714Z" fill="#00AAD3" stroke="#263238" stroke-miterlimit="10"/>
<path d="M28.2539 141.715L25.3867 139.492" stroke="#263238" stroke-width="0.5" stroke-miterlimit="10"/>
<path d="M32.6211 177.786L34.316 174.348" stroke="#263238" stroke-width="2" stroke-miterlimit="10"/>
<path d="M33.8029 175.392C33.7321 174.953 33.7381 174.5 33.8206 174.063C33.903 173.627 34.0599 173.218 34.2807 172.863C34.7325 172.093 37.4205 169.778 37.9207 171.007C38.4546 172.311 35.9122 175.856 33.8029 175.392Z" fill="#00AAD3" stroke="#263238" stroke-miterlimit="10"/>
<path d="M33.8008 175.382L36.3842 172.311" stroke="#263238" stroke-width="0.5" stroke-miterlimit="10"/>
<path d="M31.1484 160.247L32.8471 156.809" stroke="#263238" stroke-width="2" stroke-miterlimit="10"/>
<path d="M32.3292 157.843C32.2594 157.404 32.2659 156.951 32.3483 156.515C32.4307 156.079 32.5871 155.67 32.807 155.315C33.2625 154.544 35.9505 152.229 36.447 153.459C36.9921 154.772 34.4422 158.317 32.3292 157.843Z" fill="#00AAD3" stroke="#263238" stroke-miterlimit="10"/>
<path d="M32.3281 157.843L34.9116 154.771" stroke="#263238" stroke-width="0.5" stroke-miterlimit="10"/>
<path d="M30.5 152.54L32.1949 149.102" stroke="#263238" stroke-width="2" stroke-miterlimit="10"/>
<path d="M31.6818 150.132C31.611 149.693 31.617 149.24 31.6995 148.803C31.7819 148.367 31.9388 147.958 32.1596 147.603C32.6151 146.838 35.2994 144.522 35.7996 145.747C36.341 147.061 33.7911 150.61 31.6818 150.132Z" fill="#00AAD3" stroke="#263238" stroke-miterlimit="10"/>
<path d="M31.6797 150.131L34.2632 147.064" stroke="#263238" stroke-width="0.5" stroke-miterlimit="10"/>
<path d="M29.5547 141.242L31.2496 137.804" stroke="#263238" stroke-width="2" stroke-miterlimit="10"/>
<path d="M30.7326 138.834C30.6618 138.394 30.6678 137.941 30.7502 137.505C30.8327 137.068 30.9896 136.659 31.2104 136.305C31.6622 135.535 34.3502 133.219 34.8504 134.449C35.3918 135.762 32.8531 139.312 30.7326 138.834Z" fill="#00AAD3" stroke="#263238" stroke-miterlimit="10"/>
<path d="M30.7344 138.834L33.3178 135.767" stroke="#263238" stroke-width="0.5" stroke-miterlimit="10"/>
<path d="M28.8253 134.012C28.7555 133.573 28.762 133.12 28.8444 132.684C28.9268 132.247 29.0832 131.838 29.3031 131.483C29.7586 130.718 32.4466 128.402 32.9469 129.627C33.4882 130.94 30.9383 134.49 28.8253 134.012Z" fill="#00AAD3" stroke="#263238" stroke-miterlimit="10"/>
<path d="M28.8242 134.012L31.4077 130.945" stroke="#263238" stroke-width="0.5" stroke-miterlimit="10"/>
<path d="M28.9777 134.147C28.6183 134.188 28.2559 134.133 27.9152 133.985C27.5745 133.837 27.2633 133.6 27.0028 133.289C26.4353 132.649 24.8636 129.085 25.8828 128.593C27.0065 128.064 29.5788 131.586 28.9777 134.147Z" fill="#00AAD3" stroke="#263238" stroke-miterlimit="10"/>
<path d="M28.9768 134.147L26.7891 130.63" stroke="#263238" stroke-width="0.5" stroke-miterlimit="10"/>
<path d="M41.8475 142.411L36.9531 201.024" stroke="#263238" stroke-width="2" stroke-miterlimit="10"/>
<path d="M38.0346 189.845L36.3359 186.407" stroke="#263238" stroke-width="2" stroke-miterlimit="10"/>
<path d="M36.8553 187.456C36.9251 187.017 36.9186 186.564 36.8362 186.128C36.7538 185.692 36.5974 185.283 36.3775 184.928C35.922 184.162 33.234 181.847 32.7337 183.072C32.1924 184.371 34.746 187.92 36.8553 187.456Z" fill="#00AAD3" stroke="#263238" stroke-miterlimit="10"/>
<path d="M36.8558 187.438L34.418 184.528" stroke="#263238" stroke-width="0.5" stroke-miterlimit="10"/>
<path d="M39.394 173.578L37.6953 170.14" stroke="#263238" stroke-width="2" stroke-miterlimit="10"/>
<path d="M38.2148 171.175C38.2846 170.735 38.2781 170.282 38.1957 169.846C38.1133 169.41 37.9569 169.001 37.7369 168.646C37.2815 167.876 34.5935 165.565 34.0932 166.79C33.5519 168.103 36.1017 171.653 38.2148 171.175Z" fill="#00AAD3" stroke="#263238" stroke-miterlimit="10"/>
<path d="M38.215 171.174L35.7734 168.265" stroke="#263238" stroke-width="0.5" stroke-miterlimit="10"/>
<path d="M38.8393 180.246L37.1406 176.808" stroke="#263238" stroke-width="2" stroke-miterlimit="10"/>
<path d="M37.6601 177.837C37.7299 177.398 37.7234 176.945 37.641 176.509C37.5586 176.073 37.4022 175.663 37.1822 175.308C36.7268 174.543 34.0388 172.228 33.5385 173.452C32.9972 174.77 35.547 178.315 37.6601 177.837Z" fill="#00AAD3" stroke="#263238" stroke-miterlimit="10"/>
<path d="M37.6604 177.837L35.2188 174.928" stroke="#263238" stroke-width="0.5" stroke-miterlimit="10"/>
<path d="M40.2963 162.748L38.5977 159.314" stroke="#263238" stroke-width="2" stroke-miterlimit="10"/>
<path d="M39.1171 160.345C39.1869 159.905 39.1803 159.452 39.0979 159.016C39.0155 158.58 38.8591 158.171 38.6392 157.816C38.1837 157.046 35.4957 154.735 34.9955 155.96C34.4541 157.296 37.0077 160.822 39.1171 160.345Z" fill="#00AAD3" stroke="#263238" stroke-miterlimit="10"/>
<path d="M39.1176 160.345L36.6797 157.436" stroke="#263238" stroke-width="0.5" stroke-miterlimit="10"/>
<path d="M41.2067 151.877L39.5117 148.438" stroke="#263238" stroke-width="2" stroke-miterlimit="10"/>
<path d="M40.0272 149.468C40.098 149.029 40.092 148.575 40.0095 148.139C39.9271 147.703 39.7701 147.294 39.5493 146.939C39.0939 146.174 36.4059 143.858 35.9056 145.083C35.3643 146.401 37.9179 149.946 40.0272 149.468Z" fill="#00AAD3" stroke="#263238" stroke-miterlimit="10"/>
<path d="M40.0238 149.468L37.5859 146.559" stroke="#263238" stroke-width="0.5" stroke-miterlimit="10"/>
<path d="M38.3242 185.888L40.553 182.96" stroke="#263238" stroke-width="2" stroke-miterlimit="10"/>
<path d="M39.875 183.836C39.8783 183.388 39.959 182.946 40.1117 182.541C40.2643 182.135 40.4853 181.774 40.7598 181.484C41.3347 180.848 44.3475 179.271 44.6313 180.588C44.9449 182.022 41.8611 184.843 39.875 183.836Z" fill="#00AAD3" stroke="#263238" stroke-miterlimit="10"/>
<path d="M39.875 183.836L42.9102 181.493" stroke="#263238" stroke-width="0.5" stroke-miterlimit="10"/>
<path d="M39.7852 168.348L42.014 165.416" stroke="#263238" stroke-width="2" stroke-miterlimit="10"/>
<path d="M41.3398 166.293C41.3443 165.844 41.4259 165.403 41.5792 164.997C41.7324 164.591 41.9538 164.231 42.2284 163.94C42.7996 163.304 45.8124 161.727 46.0998 163.049C46.4097 164.483 43.326 167.299 41.3398 166.293Z" fill="#00AAD3" stroke="#263238" stroke-miterlimit="10"/>
<path d="M41.3398 166.293L44.375 163.954" stroke="#263238" stroke-width="0.5" stroke-miterlimit="10"/>
<path d="M40.4336 160.637L42.6624 157.709" stroke="#263238" stroke-width="2" stroke-miterlimit="10"/>
<path d="M41.9805 158.586C41.985 158.138 42.0666 157.696 42.2198 157.29C42.3731 156.885 42.5944 156.524 42.869 156.234C43.4402 155.598 46.453 154.021 46.7405 155.338C47.0391 156.772 43.9703 159.616 41.9805 158.586Z" fill="#00AAD3" stroke="#263238" stroke-miterlimit="10"/>
<path d="M41.9805 158.585L45.0194 156.242" stroke="#263238" stroke-width="0.5" stroke-miterlimit="10"/>
<path d="M41.375 149.339L43.6075 146.406" stroke="#263238" stroke-width="2" stroke-miterlimit="10"/>
<path d="M42.9336 147.287C42.9378 146.839 43.0193 146.397 43.1726 145.991C43.3259 145.586 43.5474 145.225 43.8221 144.935C44.3933 144.295 47.4061 142.717 47.6936 144.039C47.996 145.473 44.9123 148.294 42.9336 147.287Z" fill="#00AAD3" stroke="#263238" stroke-miterlimit="10"/>
<path d="M42.9258 147.288L45.9647 144.944" stroke="#263238" stroke-width="0.5" stroke-miterlimit="10"/>
<path d="M41.8633 142.081C41.8678 141.634 41.949 141.192 42.1016 140.787C42.2542 140.381 42.4746 140.02 42.7481 139.729C43.323 139.093 46.3358 137.516 46.6195 138.833C46.9331 140.267 43.8494 143.088 41.8633 142.081Z" fill="#00AAD3" stroke="#263238" stroke-miterlimit="10"/>
<path d="M41.8633 142.081L44.8985 139.738" stroke="#263238" stroke-width="0.5" stroke-miterlimit="10"/>
<path d="M41.987 142.248C41.6292 142.196 41.2845 142.05 40.976 141.818C40.6676 141.587 40.4025 141.276 40.1987 140.907C39.7507 140.132 38.8025 136.244 39.8889 136.026C41.0686 135.794 43.0025 139.9 41.987 142.248Z" fill="#00AAD3" stroke="#263238" stroke-miterlimit="10"/>
<path d="M41.9865 142.248L40.4297 138.253" stroke="#263238" stroke-width="0.5" stroke-miterlimit="10"/>
<path d="M36.2383 118.543V192.662" stroke="#263238" stroke-width="2" stroke-miterlimit="10"/>
<path d="M36.2874 181.517L34.3125 178.315" stroke="#263238" stroke-width="2" stroke-miterlimit="10"/>
<path d="M34.9149 179.276C34.9479 178.829 34.9037 178.379 34.7853 177.956C34.6668 177.533 34.4768 177.146 34.228 176.821C33.7128 176.116 30.8456 174.163 30.4498 175.429C30.0205 176.821 32.8541 180.032 34.9149 179.276Z" fill="#00AAD3" stroke="#263238" stroke-miterlimit="10"/>
<path d="M34.9154 179.275L32.2461 176.695" stroke="#263238" stroke-width="0.5" stroke-miterlimit="10"/>
<path d="M36.2874 167.588L34.3125 164.391" stroke="#263238" stroke-width="2" stroke-miterlimit="10"/>
<path d="M34.9149 165.346C34.9479 164.9 34.9036 164.451 34.7851 164.028C34.6667 163.606 34.4767 163.22 34.228 162.896C33.7128 162.186 30.8456 160.233 30.4498 161.504C30.0205 162.896 32.8541 166.112 34.9149 165.346Z" fill="#00AAD3" stroke="#263238" stroke-miterlimit="10"/>
<path d="M34.9154 165.346L32.2461 162.767" stroke="#263238" stroke-width="0.5" stroke-miterlimit="10"/>
<path d="M36.2874 151.236L34.3125 148.034" stroke="#263238" stroke-width="2" stroke-miterlimit="10"/>
<path d="M34.9149 148.995C34.9479 148.548 34.9037 148.098 34.7853 147.675C34.6668 147.251 34.4768 146.865 34.228 146.54C33.7128 145.835 30.8456 143.881 30.4498 145.148C30.0205 146.54 32.8541 149.742 34.9149 148.995Z" fill="#00AAD3" stroke="#263238" stroke-miterlimit="10"/>
<path d="M34.9154 148.995L32.2461 146.415" stroke="#263238" stroke-width="0.5" stroke-miterlimit="10"/>
<path d="M36.2874 140.351L34.3125 137.149" stroke="#263238" stroke-width="2" stroke-miterlimit="10"/>
<path d="M34.9149 138.11C34.9479 137.663 34.9037 137.213 34.7853 136.79C34.6668 136.367 34.4768 135.98 34.228 135.655C33.7128 134.95 30.8456 132.992 30.4498 134.263C30.0205 135.655 32.8541 138.857 34.9149 138.11Z" fill="#00AAD3" stroke="#263238" stroke-miterlimit="10"/>
<path d="M34.9154 138.109L32.2461 135.529" stroke="#263238" stroke-width="0.5" stroke-miterlimit="10"/>
<path d="M36.2874 129.414L34.3125 126.217" stroke="#263238" stroke-width="2" stroke-miterlimit="10"/>
<path d="M34.9149 127.178C34.9479 126.732 34.9037 126.282 34.7853 125.858C34.6668 125.435 34.4768 125.048 34.228 124.724C33.7128 124.018 30.8456 122.06 30.4498 123.332C30.0205 124.724 32.8541 127.925 34.9149 127.178Z" fill="#00AAD3" stroke="#263238" stroke-miterlimit="10"/>
<path d="M34.9154 127.177L32.2461 124.598" stroke="#263238" stroke-width="0.5" stroke-miterlimit="10"/>
<path d="M36.2422 185.772L38.2171 182.57" stroke="#263238" stroke-width="2" stroke-miterlimit="10"/>
<path d="M37.6161 183.531C37.5831 183.084 37.6273 182.634 37.7458 182.211C37.8642 181.788 38.0542 181.401 38.303 181.076C38.8182 180.371 41.6854 178.413 42.0812 179.684C42.5105 181.076 39.6769 184.278 37.6161 183.531Z" fill="#00AAD3" stroke="#263238" stroke-miterlimit="10"/>
<path d="M37.6172 183.531L40.4433 180.812" stroke="#263238" stroke-width="0.5" stroke-miterlimit="10"/>
<path d="M36.2422 163.621L38.2171 160.419" stroke="#263238" stroke-width="2" stroke-miterlimit="10"/>
<path d="M37.6161 161.379C37.5831 160.933 37.6273 160.483 37.7458 160.06C37.8642 159.636 38.0542 159.249 38.303 158.925C38.8182 158.219 41.6854 156.261 42.0812 157.533C42.5105 158.925 39.6769 162.126 37.6161 161.379Z" fill="#00AAD3" stroke="#263238" stroke-miterlimit="10"/>
<path d="M37.6172 161.379L40.4433 158.66" stroke="#263238" stroke-width="0.5" stroke-miterlimit="10"/>
<path d="M36.2422 152.684L38.2171 149.482" stroke="#263238" stroke-width="2" stroke-miterlimit="10"/>
<path d="M37.6161 150.443C37.5831 149.996 37.6273 149.546 37.7458 149.123C37.8642 148.7 38.0542 148.313 38.303 147.988C38.8182 147.283 41.6854 145.33 42.0812 146.596C42.5105 147.988 39.6769 151.19 37.6161 150.443Z" fill="#00AAD3" stroke="#263238" stroke-miterlimit="10"/>
<path d="M37.6172 150.443L40.4433 147.724" stroke="#263238" stroke-width="0.5" stroke-miterlimit="10"/>
<path d="M36.2422 138.235L38.2171 135.033" stroke="#263238" stroke-width="2" stroke-miterlimit="10"/>
<path d="M37.6161 135.994C37.5831 135.547 37.6273 135.097 37.7458 134.674C37.8642 134.25 38.0542 133.864 38.303 133.539C38.8182 132.834 41.6854 130.876 42.0812 132.147C42.5105 133.539 39.6769 136.741 37.6161 135.994Z" fill="#00AAD3" stroke="#263238" stroke-miterlimit="10"/>
<path d="M37.6172 135.993L40.4433 133.274" stroke="#263238" stroke-width="0.5" stroke-miterlimit="10"/>
<path d="M36.2422 126.872L38.2171 123.67" stroke="#263238" stroke-width="2" stroke-miterlimit="10"/>
<path d="M37.6161 124.63C37.5831 124.184 37.6273 123.734 37.7458 123.311C37.8642 122.887 38.0542 122.5 38.303 122.176C38.8182 121.47 41.6854 119.517 42.0812 120.784C42.5105 122.176 39.6769 125.377 37.6161 124.63Z" fill="#00AAD3" stroke="#263238" stroke-miterlimit="10"/>
<path d="M37.6172 124.63L40.4433 121.911" stroke="#263238" stroke-width="0.5" stroke-miterlimit="10"/>
<path d="M36.128 119.591C36.0947 119.145 36.1385 118.696 36.2563 118.272C36.3741 117.849 36.5633 117.462 36.8112 117.137C37.3301 116.431 40.1936 114.478 40.5893 115.745C41.0187 117.137 38.1851 120.338 36.128 119.591Z" fill="#00AAD3" stroke="#263238" stroke-miterlimit="10"/>
<path d="M36.1289 119.591L38.9513 116.872" stroke="#263238" stroke-width="0.5" stroke-miterlimit="10"/>
<path d="M36.2618 119.744C35.9013 119.739 35.5462 119.636 35.2202 119.445C34.8943 119.254 34.6053 118.978 34.3727 118.635C33.8612 117.926 32.5956 114.176 33.6596 113.824C34.8132 113.439 37.0756 117.276 36.2618 119.744Z" fill="#00AAD3" stroke="#263238" stroke-miterlimit="10"/>
<path d="M36.2607 119.745L34.3828 115.968" stroke="#263238" stroke-width="0.5" stroke-miterlimit="10"/>
<path d="M38.6944 211.885H32.3813L31.5898 192.059H39.4858L38.6944 211.885Z" fill="#263238" stroke="#263238" stroke-miterlimit="10"/>
<path d="M240.469 134.342L245.389 192.945" stroke="#263238" stroke-width="2" stroke-miterlimit="10"/>
<path d="M244.596 181.731L242.363 178.803" stroke="#263238" stroke-width="2" stroke-miterlimit="10"/>
<path d="M243.039 179.679C243.035 179.231 242.953 178.789 242.8 178.383C242.647 177.978 242.425 177.617 242.151 177.327C241.58 176.691 238.563 175.118 238.279 176.436C237.97 177.87 241.057 180.691 243.039 179.679Z" fill="#00AAD3" stroke="#263238" stroke-miterlimit="10"/>
<path d="M243.043 179.68L240.172 177.457" stroke="#263238" stroke-width="0.5" stroke-miterlimit="10"/>
<path d="M245.158 188.398L242.926 185.47" stroke="#263238" stroke-width="2" stroke-miterlimit="10"/>
<path d="M243.602 186.347C243.598 185.899 243.517 185.457 243.363 185.051C243.21 184.645 242.989 184.285 242.714 183.995C242.139 183.359 239.126 181.781 238.842 183.099C238.529 184.537 241.616 187.354 243.602 186.347Z" fill="#00AAD3" stroke="#263238" stroke-miterlimit="10"/>
<path d="M243.605 186.347L240.734 184.124" stroke="#263238" stroke-width="0.5" stroke-miterlimit="10"/>
<path d="M243.233 165.467L241 162.539" stroke="#263238" stroke-width="2" stroke-miterlimit="10"/>
<path d="M241.676 163.417C241.672 162.968 241.59 162.527 241.437 162.121C241.284 161.715 241.062 161.355 240.788 161.064C240.217 160.428 237.2 158.851 236.916 160.173C236.606 161.607 239.679 164.423 241.676 163.417Z" fill="#00AAD3" stroke="#263238" stroke-miterlimit="10"/>
<path d="M241.68 163.416L238.809 161.193" stroke="#263238" stroke-width="0.5" stroke-miterlimit="10"/>
<path d="M243.791 172.13L241.559 169.202" stroke="#263238" stroke-width="2" stroke-miterlimit="10"/>
<path d="M242.239 170.08C242.235 169.631 242.153 169.19 242 168.784C241.847 168.378 241.625 168.018 241.351 167.727C240.779 167.091 237.763 165.518 237.479 166.836C237.166 168.27 240.253 171.091 242.239 170.08Z" fill="#00AAD3" stroke="#263238" stroke-miterlimit="10"/>
<path d="M242.238 170.079L239.367 167.856" stroke="#263238" stroke-width="0.5" stroke-miterlimit="10"/>
<path d="M242.319 154.637L240.09 151.709" stroke="#263238" stroke-width="2" stroke-miterlimit="10"/>
<path d="M240.766 152.587C240.762 152.139 240.68 151.697 240.528 151.292C240.375 150.886 240.155 150.526 239.881 150.234C239.306 149.603 236.294 148.026 236.006 149.343C235.696 150.8 238.78 153.584 240.766 152.587Z" fill="#00AAD3" stroke="#263238" stroke-miterlimit="10"/>
<path d="M240.766 152.587L237.898 150.364" stroke="#263238" stroke-width="0.5" stroke-miterlimit="10"/>
<path d="M241.408 143.766L239.176 140.838" stroke="#263238" stroke-width="2" stroke-miterlimit="10"/>
<path d="M239.856 141.714C239.852 141.266 239.77 140.824 239.617 140.419C239.464 140.013 239.242 139.653 238.968 139.362C238.397 138.726 235.38 137.149 235.096 138.471C234.783 139.905 237.87 142.721 239.856 141.714Z" fill="#00AAD3" stroke="#263238" stroke-miterlimit="10"/>
<path d="M239.855 141.715L236.984 139.492" stroke="#263238" stroke-width="0.5" stroke-miterlimit="10"/>
<path d="M244.219 177.786L245.917 174.348" stroke="#263238" stroke-width="2" stroke-miterlimit="10"/>
<path d="M245.399 175.392C245.33 174.953 245.336 174.5 245.419 174.064C245.501 173.628 245.657 173.218 245.877 172.863C246.333 172.093 249.021 169.778 249.517 171.007C250.062 172.311 247.52 175.856 245.399 175.392Z" fill="#00AAD3" stroke="#263238" stroke-miterlimit="10"/>
<path d="M245.398 175.382L247.982 172.311" stroke="#263238" stroke-width="0.5" stroke-miterlimit="10"/>
<path d="M242.75 160.247L244.445 156.809" stroke="#263238" stroke-width="2" stroke-miterlimit="10"/>
<path d="M243.928 157.843C243.857 157.404 243.863 156.951 243.946 156.514C244.028 156.078 244.185 155.669 244.406 155.315C244.857 154.544 247.545 152.229 248.046 153.459C248.587 154.772 246.026 158.317 243.928 157.843Z" fill="#00AAD3" stroke="#263238" stroke-miterlimit="10"/>
<path d="M243.93 157.843L246.513 154.771" stroke="#263238" stroke-width="0.5" stroke-miterlimit="10"/>
<path d="M242.102 152.54L243.8 149.102" stroke="#263238" stroke-width="2" stroke-miterlimit="10"/>
<path d="M243.278 150.132C243.209 149.693 243.215 149.24 243.298 148.804C243.38 148.368 243.536 147.958 243.756 147.603C244.212 146.838 246.9 144.522 247.396 145.747C247.941 147.061 245.391 150.61 243.278 150.132Z" fill="#00AAD3" stroke="#263238" stroke-miterlimit="10"/>
<path d="M243.281 150.131L245.865 147.064" stroke="#263238" stroke-width="0.5" stroke-miterlimit="10"/>
<path d="M241.152 141.242L242.851 137.804" stroke="#263238" stroke-width="2" stroke-miterlimit="10"/>
<path d="M242.329 138.834C242.259 138.394 242.266 137.941 242.348 137.505C242.431 137.069 242.587 136.66 242.807 136.305C243.263 135.535 245.951 133.219 246.447 134.449C246.992 135.762 244.442 139.312 242.329 138.834Z" fill="#00AAD3" stroke="#263238" stroke-miterlimit="10"/>
<path d="M242.332 138.834L244.916 135.767" stroke="#263238" stroke-width="0.5" stroke-miterlimit="10"/>
<path d="M240.427 134.012C240.357 133.573 240.364 133.12 240.446 132.684C240.528 132.247 240.685 131.838 240.905 131.483C241.36 130.718 244.048 128.402 244.545 129.627C245.09 130.94 242.54 134.49 240.427 134.012Z" fill="#00AAD3" stroke="#263238" stroke-miterlimit="10"/>
<path d="M240.426 134.012L243.009 130.945" stroke="#263238" stroke-width="0.5" stroke-miterlimit="10"/>
<path d="M240.578 134.147C240.218 134.188 239.856 134.133 239.515 133.985C239.175 133.837 238.863 133.6 238.603 133.289C238.035 132.649 236.467 129.085 237.483 128.593C238.61 128.064 241.175 131.586 240.578 134.147Z" fill="#00AAD3" stroke="#263238" stroke-miterlimit="10"/>
<path d="M240.575 134.147L238.391 130.63" stroke="#263238" stroke-width="0.5" stroke-miterlimit="10"/>
<path d="M253.449 142.411L248.555 201.024" stroke="#263238" stroke-width="2" stroke-miterlimit="10"/>
<path d="M249.636 189.845L247.938 186.407" stroke="#263238" stroke-width="2" stroke-miterlimit="10"/>
<path d="M248.459 187.456C248.528 187.017 248.521 186.563 248.438 186.127C248.355 185.691 248.198 185.282 247.977 184.928C247.522 184.162 244.834 181.847 244.337 183.072C243.788 184.371 246.346 187.92 248.459 187.456Z" fill="#00AAD3" stroke="#263238" stroke-miterlimit="10"/>
<path d="M248.457 187.438L246.016 184.528" stroke="#263238" stroke-width="0.5" stroke-miterlimit="10"/>
<path d="M250.996 173.578L249.297 170.14" stroke="#263238" stroke-width="2" stroke-miterlimit="10"/>
<path d="M249.813 171.175C249.884 170.735 249.878 170.282 249.796 169.846C249.713 169.409 249.556 169 249.336 168.646C248.88 167.876 246.192 165.565 245.696 166.79C245.151 168.103 247.704 171.653 249.813 171.175Z" fill="#00AAD3" stroke="#263238" stroke-miterlimit="10"/>
<path d="M249.813 171.174L247.375 168.265" stroke="#263238" stroke-width="0.5" stroke-miterlimit="10"/>
<path d="M250.441 180.246L248.742 176.808" stroke="#263238" stroke-width="2" stroke-miterlimit="10"/>
<path d="M249.255 177.837C249.326 177.398 249.32 176.945 249.237 176.508C249.155 176.072 248.998 175.663 248.777 175.308C248.322 174.543 245.634 172.228 245.137 173.452C244.592 174.77 247.146 178.315 249.255 177.837Z" fill="#00AAD3" stroke="#263238" stroke-miterlimit="10"/>
<path d="M249.258 177.837L246.82 174.928" stroke="#263238" stroke-width="0.5" stroke-miterlimit="10"/>
<path d="M251.898 162.748L250.199 159.314" stroke="#263238" stroke-width="2" stroke-miterlimit="10"/>
<path d="M250.719 160.345C250.788 159.905 250.781 159.452 250.698 159.015C250.615 158.579 250.458 158.17 250.237 157.816C249.782 157.046 247.094 154.735 246.597 155.96C246.056 157.296 248.606 160.822 250.719 160.345Z" fill="#00AAD3" stroke="#263238" stroke-miterlimit="10"/>
<path d="M250.719 160.345L248.277 157.436" stroke="#263238" stroke-width="0.5" stroke-miterlimit="10"/>
<path d="M252.808 151.877L251.109 148.438" stroke="#263238" stroke-width="2" stroke-miterlimit="10"/>
<path d="M251.629 149.468C251.698 149.028 251.691 148.575 251.608 148.139C251.525 147.703 251.368 147.294 251.147 146.939C250.696 146.174 248.008 143.858 247.507 145.083C246.966 146.401 249.516 149.946 251.629 149.468Z" fill="#00AAD3" stroke="#263238" stroke-miterlimit="10"/>
<path d="M251.625 149.468L249.184 146.559" stroke="#263238" stroke-width="0.5" stroke-miterlimit="10"/>
<path d="M249.926 185.888L252.155 182.96" stroke="#263238" stroke-width="2" stroke-miterlimit="10"/>
<path d="M251.473 183.836C251.477 183.388 251.559 182.946 251.712 182.54C251.865 182.135 252.087 181.774 252.361 181.484C252.932 180.848 255.945 179.271 256.233 180.588C256.543 182.022 253.463 184.843 251.473 183.836Z" fill="#00AAD3" stroke="#263238" stroke-miterlimit="10"/>
<path d="M251.473 183.836L254.512 181.493" stroke="#263238" stroke-width="0.5" stroke-miterlimit="10"/>
<path d="M251.387 168.348L253.616 165.416" stroke="#263238" stroke-width="2" stroke-miterlimit="10"/>
<path d="M252.941 166.293C252.945 165.845 253.025 165.403 253.178 164.997C253.331 164.591 253.552 164.231 253.826 163.94C254.397 163.304 257.41 161.727 257.698 163.049C258.011 164.483 254.928 167.299 252.941 166.293Z" fill="#00AAD3" stroke="#263238" stroke-miterlimit="10"/>
<path d="M252.941 166.293L255.977 163.954" stroke="#263238" stroke-width="0.5" stroke-miterlimit="10"/>
<path d="M252.031 160.637L254.26 157.709" stroke="#263238" stroke-width="2" stroke-miterlimit="10"/>
<path d="M253.582 158.586C253.587 158.138 253.668 157.696 253.821 157.29C253.975 156.885 254.196 156.524 254.471 156.234C255.042 155.598 258.055 154.021 258.342 155.338C258.652 156.772 255.568 159.616 253.582 158.586Z" fill="#00AAD3" stroke="#263238" stroke-miterlimit="10"/>
<path d="M253.582 158.585L256.617 156.242" stroke="#263238" stroke-width="0.5" stroke-miterlimit="10"/>
<path d="M252.977 149.339L255.205 146.406" stroke="#263238" stroke-width="2" stroke-miterlimit="10"/>
<path d="M254.527 147.287C254.53 146.839 254.611 146.397 254.764 145.991C254.916 145.585 255.137 145.225 255.412 144.935C255.987 144.295 259 142.717 259.284 144.039C259.597 145.473 256.513 148.294 254.527 147.287Z" fill="#00AAD3" stroke="#263238" stroke-miterlimit="10"/>
<path d="M254.527 147.288L257.563 144.944" stroke="#263238" stroke-width="0.5" stroke-miterlimit="10"/>
<path d="M253.461 142.081C253.465 141.633 253.547 141.191 253.7 140.786C253.854 140.38 254.075 140.02 254.349 139.729C254.921 139.093 257.933 137.516 258.221 138.833C258.535 140.267 255.451 143.088 253.461 142.081Z" fill="#00AAD3" stroke="#263238" stroke-miterlimit="10"/>
<path d="M253.461 142.081L256.5 139.738" stroke="#263238" stroke-width="0.5" stroke-miterlimit="10"/>
<path d="M253.587 142.248C253.228 142.196 252.883 142.05 252.574 141.819C252.265 141.587 251.999 141.277 251.795 140.907C251.347 140.132 250.402 136.244 251.485 136.026C252.668 135.794 254.613 139.9 253.587 142.248Z" fill="#00AAD3" stroke="#263238" stroke-miterlimit="10"/>
<path d="M253.588 142.248L252.031 138.253" stroke="#263238" stroke-width="0.5" stroke-miterlimit="10"/>
<path d="M247.84 118.543V192.662" stroke="#263238" stroke-width="2" stroke-miterlimit="10"/>
<path d="M247.885 181.517L245.914 178.315" stroke="#263238" stroke-width="2" stroke-miterlimit="10"/>
<path d="M246.516 179.276C246.55 178.829 246.505 178.379 246.387 177.956C246.268 177.533 246.078 177.146 245.83 176.821C245.311 176.116 242.447 174.163 242.051 175.429C241.622 176.821 244.456 180.032 246.516 179.276Z" fill="#00AAD3" stroke="#263238" stroke-miterlimit="10"/>
<path d="M246.517 179.275L243.848 176.695" stroke="#263238" stroke-width="0.5" stroke-miterlimit="10"/>
<path d="M247.885 167.588L245.914 164.391" stroke="#263238" stroke-width="2" stroke-miterlimit="10"/>
<path d="M246.516 165.346C246.549 164.9 246.505 164.451 246.387 164.028C246.268 163.606 246.078 163.22 245.83 162.896C245.311 162.186 242.447 160.233 242.051 161.504C241.622 162.896 244.456 166.112 246.516 165.346Z" fill="#00AAD3" stroke="#263238" stroke-miterlimit="10"/>
<path d="M246.517 165.346L243.848 162.767" stroke="#263238" stroke-width="0.5" stroke-miterlimit="10"/>
<path d="M247.885 151.236L245.914 148.034" stroke="#263238" stroke-width="2" stroke-miterlimit="10"/>
<path d="M246.516 148.995C246.55 148.548 246.505 148.098 246.387 147.675C246.268 147.251 246.078 146.865 245.83 146.54C245.311 145.835 242.447 143.881 242.051 145.148C241.622 146.54 244.456 149.742 246.516 148.995Z" fill="#00AAD3" stroke="#263238" stroke-miterlimit="10"/>
<path d="M246.517 148.995L243.848 146.415" stroke="#263238" stroke-width="0.5" stroke-miterlimit="10"/>
<path d="M247.885 140.351L245.914 137.149" stroke="#263238" stroke-width="2" stroke-miterlimit="10"/>
<path d="M246.516 138.11C246.55 137.663 246.505 137.213 246.387 136.79C246.268 136.367 246.078 135.98 245.83 135.655C245.311 134.95 242.447 132.992 242.051 134.263C241.622 135.655 244.456 138.857 246.516 138.11Z" fill="#00AAD3" stroke="#263238" stroke-miterlimit="10"/>
<path d="M246.517 138.109L243.848 135.529" stroke="#263238" stroke-width="0.5" stroke-miterlimit="10"/>
<path d="M247.885 129.414L245.914 126.217" stroke="#263238" stroke-width="2" stroke-miterlimit="10"/>
<path d="M246.516 127.178C246.55 126.732 246.505 126.282 246.387 125.858C246.268 125.435 246.078 125.048 245.83 124.724C245.311 124.018 242.447 122.06 242.051 123.332C241.622 124.724 244.456 127.925 246.516 127.178Z" fill="#00AAD3" stroke="#263238" stroke-miterlimit="10"/>
<path d="M246.517 127.177L243.848 124.598" stroke="#263238" stroke-width="0.5" stroke-miterlimit="10"/>
<path d="M247.844 185.772L249.819 182.57" stroke="#263238" stroke-width="2" stroke-miterlimit="10"/>
<path d="M249.218 183.531C249.185 183.084 249.229 182.634 249.347 182.211C249.466 181.788 249.656 181.401 249.905 181.076C250.42 180.371 253.287 178.413 253.679 179.684C254.108 181.076 251.275 184.278 249.218 183.531Z" fill="#00AAD3" stroke="#263238" stroke-miterlimit="10"/>
<path d="M249.219 183.531L252.045 180.812" stroke="#263238" stroke-width="0.5" stroke-miterlimit="10"/>
<path d="M247.844 163.621L249.819 160.419" stroke="#263238" stroke-width="2" stroke-miterlimit="10"/>
<path d="M249.218 161.379C249.185 160.933 249.229 160.483 249.347 160.06C249.466 159.636 249.656 159.249 249.905 158.925C250.42 158.219 253.287 156.261 253.679 157.533C254.108 158.925 251.275 162.126 249.218 161.379Z" fill="#00AAD3" stroke="#263238" stroke-miterlimit="10"/>
<path d="M249.219 161.379L252.045 158.66" stroke="#263238" stroke-width="0.5" stroke-miterlimit="10"/>
<path d="M247.844 152.684L249.819 149.482" stroke="#263238" stroke-width="2" stroke-miterlimit="10"/>
<path d="M249.218 150.443C249.185 149.996 249.229 149.546 249.347 149.123C249.466 148.7 249.656 148.313 249.905 147.988C250.42 147.283 253.287 145.33 253.679 146.596C254.108 147.988 251.275 151.19 249.218 150.443Z" fill="#00AAD3" stroke="#263238" stroke-miterlimit="10"/>
<path d="M249.219 150.443L252.045 147.724" stroke="#263238" stroke-width="0.5" stroke-miterlimit="10"/>
<path d="M247.844 138.235L249.819 135.033" stroke="#263238" stroke-width="2" stroke-miterlimit="10"/>
<path d="M249.218 135.994C249.185 135.547 249.229 135.097 249.347 134.674C249.466 134.25 249.656 133.864 249.905 133.539C250.42 132.834 253.287 130.876 253.679 132.147C254.108 133.539 251.275 136.741 249.218 135.994Z" fill="#00AAD3" stroke="#263238" stroke-miterlimit="10"/>
<path d="M249.219 135.993L252.045 133.274" stroke="#263238" stroke-width="0.5" stroke-miterlimit="10"/>
<path d="M247.844 126.872L249.819 123.67" stroke="#263238" stroke-width="2" stroke-miterlimit="10"/>
<path d="M249.218 124.63C249.185 124.184 249.229 123.734 249.347 123.311C249.466 122.887 249.656 122.5 249.905 122.176C250.42 121.47 253.287 119.517 253.679 120.784C254.108 122.176 251.275 125.377 249.218 124.63Z" fill="#00AAD3" stroke="#263238" stroke-miterlimit="10"/>
<path d="M249.219 124.63L252.045 121.911" stroke="#263238" stroke-width="0.5" stroke-miterlimit="10"/>
<path d="M247.725 119.591C247.692 119.145 247.737 118.695 247.855 118.272C247.974 117.848 248.164 117.461 248.412 117.137C248.928 116.431 251.795 114.478 252.191 115.745C252.62 117.137 249.786 120.338 247.725 119.591Z" fill="#00AAD3" stroke="#263238" stroke-miterlimit="10"/>
<path d="M247.727 119.591L250.553 116.872" stroke="#263238" stroke-width="0.5" stroke-miterlimit="10"/>
<path d="M247.865 119.744C247.504 119.739 247.148 119.637 246.822 119.445C246.495 119.254 246.205 118.978 245.972 118.635C245.464 117.926 244.199 114.176 245.259 113.824C246.401 113.439 248.679 117.276 247.865 119.744Z" fill="#00AAD3" stroke="#263238" stroke-miterlimit="10"/>
<path d="M247.862 119.745L245.984 115.968" stroke="#263238" stroke-width="0.5" stroke-miterlimit="10"/>
<path d="M250.296 211.885H243.979L243.191 192.059H251.084L250.296 211.885Z" fill="#263238" stroke="#263238" stroke-miterlimit="10"/>
<path d="M252.746 55.2158C252.746 52.5795 252.236 49.9816 251.258 47.6422C250.28 45.3027 248.863 43.2905 247.127 41.7758C245.391 40.2612 243.387 39.2886 241.284 38.9406C239.182 38.5925 237.042 38.8791 235.048 39.7761C233.053 40.6732 231.262 42.1542 229.825 44.094C228.389 46.0338 227.349 48.3751 226.795 50.9199C226.24 53.4646 226.188 56.1379 226.641 58.7134C227.094 61.289 228.039 63.691 229.397 65.7162C231.342 68.6134 232.407 72.2671 232.406 76.0402V78.2859H246.66V76.0402C246.652 72.2731 247.709 68.6223 249.647 65.7254C251.642 62.7844 252.74 59.063 252.746 55.2158Z" fill="white" stroke="#263238" stroke-linecap="round" stroke-linejoin="round"/>
<path d="M246.659 78.291H232.387V82.6805H246.659V78.291Z" fill="#00AAD3" stroke="#263238" stroke-linecap="round" stroke-linejoin="round"/>
<path d="M232.387 82.6895H246.659V84.8842C246.659 85.4662 246.473 86.0245 246.142 86.4361C245.811 86.8477 245.362 87.0789 244.893 87.0789H234.149C233.68 87.0789 233.231 86.8477 232.9 86.4361C232.569 86.0245 232.383 85.4662 232.383 84.8842V82.6895H232.387Z" fill="#00AAD3" stroke="#263238" stroke-linecap="round" stroke-linejoin="round"/>
<path d="M234.188 87.0742H244.857V88.4662C244.857 89.255 244.605 90.0115 244.156 90.5693C243.708 91.1271 243.099 91.4405 242.464 91.4405H236.581C235.946 91.4405 235.337 91.1271 234.888 90.5693C234.44 90.0115 234.188 89.255 234.188 88.4662V87.0742Z" fill="#263238" stroke="#263238" stroke-linecap="round" stroke-linejoin="round"/>
<path d="M254.602 55.3037H260.65" stroke="#263238" stroke-linecap="round" stroke-linejoin="round"/>
<path d="M217.832 55.3037H223.958" stroke="#263238" stroke-linecap="round" stroke-linejoin="round"/>
<path d="M239.242 36.2336V28.6982" stroke="#263238" stroke-linecap="round" stroke-linejoin="round"/>
<path d="M250.203 41.6768L254.377 36.4893" stroke="#263238" stroke-linecap="round" stroke-linejoin="round"/>
<path d="M224.105 74.1143L228.339 68.8525" stroke="#263238" stroke-linecap="round" stroke-linejoin="round"/>
<path d="M228.16 41.5283L224.105 36.4893" stroke="#263238" stroke-linecap="round" stroke-linejoin="round"/>
<path d="M254.379 74.1145L250.344 69.0986" stroke="#263238" stroke-linecap="round" stroke-linejoin="round"/>
<path d="M161.486 49.7037L144.011 19.6689L126.531 49.7037H133.722V83.0699H154.3V49.7037H161.486Z" fill="#00AAD3" stroke="#263238" stroke-linecap="round" stroke-linejoin="round"/>
<path d="M146.762 101.034C156.585 99.0608 163.261 87.5642 161.674 75.3555C160.086 63.1468 150.836 54.8491 141.013 56.8221C131.19 58.7951 124.513 70.2916 126.101 82.5004C127.688 94.7091 136.939 103.007 146.762 101.034Z" fill="white" stroke="#263238" stroke-linecap="round" stroke-linejoin="round"/>
<path d="M157.609 87.5261C161.428 78.1126 158.385 66.6335 150.81 61.8867C143.236 57.1398 134 60.9229 130.181 70.3363C126.362 79.7498 129.406 91.2289 136.98 95.9757C144.554 100.723 153.79 96.9395 157.609 87.5261Z" fill="white" stroke="#263238" stroke-linecap="round" stroke-linejoin="round"/>
<path d="M149.017 81.7892C149.017 76.792 143.319 76.6852 143.319 74.5972C143.319 73.5022 143.782 73.1727 144.734 73.1727C145.552 73.1727 146.228 73.6089 147.03 74.4905L148.897 71.7993C148.029 70.5791 146.854 69.7612 145.563 69.4793V66.6953H143.099V69.6C140.971 70.1707 139.698 72.0545 139.698 74.8292C139.698 79.6363 145.395 79.9332 145.395 82.1326C145.395 83.2044 144.955 83.6684 143.85 83.6684C142.924 83.6684 141.983 83.2323 140.803 82.1326L139.168 85.3156C140.289 86.4668 141.655 87.1875 143.099 87.3897V90.1459H145.574V87.1948C147.878 86.4988 149.017 84.448 149.017 81.7892Z" fill="#00AAD3" stroke="#263238" stroke-linecap="round" stroke-linejoin="round"/>
<path d="M54.7285 62.797C61.1029 61.3601 65.3331 53.7728 64.177 45.8504C63.0209 37.9279 56.9162 32.6704 50.5418 34.1073C44.1675 35.5442 39.9372 43.1314 41.0933 51.0538C42.2495 58.9763 48.3541 64.2339 54.7285 62.797Z" fill="white" stroke="#263238" stroke-linecap="round" stroke-linejoin="round"/>
<path d="M55.9482 34.4805L52.6367 48.4561H64.3669C64.3657 45.3093 63.545 42.2474 62.0276 39.7283C60.5101 37.2091 58.3773 35.3681 55.9482 34.4805Z" fill="#00AAD3" stroke="#263238" stroke-linecap="round" stroke-linejoin="round"/>
<path d="M59.9219 39.2593L64.5773 32.4385H68.572" stroke="#263238" stroke-width="0.5" stroke-linecap="round" stroke-linejoin="round"/>
<path d="M71.4023 32.6426H77.3906" stroke="#263238" stroke-width="0.5" stroke-linecap="round" stroke-linejoin="round"/>
<path d="M71.4023 34.5029H77.3906" stroke="#263238" stroke-width="0.5" stroke-linecap="round" stroke-linejoin="round"/>
<path d="M71.4023 36.3643H77.3906" stroke="#263238" stroke-width="0.5" stroke-linecap="round" stroke-linejoin="round"/>
<path d="M71.4023 38.2246H77.3906" stroke="#263238" stroke-width="0.5" stroke-linecap="round" stroke-linejoin="round"/>
<path d="M41.4162 78.4492H38.0039V91.1025H41.4162V78.4492Z" fill="#263238" stroke="#263238" stroke-width="0.5" stroke-linecap="round" stroke-linejoin="round"/>
<path d="M46.7755 83.001H43.3633V91.1024H46.7755V83.001Z" fill="#00AAD3" stroke="#263238" stroke-linecap="round" stroke-linejoin="round"/>
<path d="M52.1427 75.6787H48.7305V91.1021H52.1427V75.6787Z" fill="#263238" stroke="#263238" stroke-width="0.5" stroke-linecap="round" stroke-linejoin="round"/>
<path d="M57.506 78.8711H54.0938V91.1068H57.506V78.8711Z" fill="#00AAD3" stroke="#263238" stroke-linecap="round" stroke-linejoin="round"/>
<path d="M62.8693 76.0732H59.457V91.1022H62.8693V76.0732Z" fill="#263238" stroke="#263238" stroke-width="0.5" stroke-linecap="round" stroke-linejoin="round"/>
<path d="M68.2326 67.1689H64.8203V91.1067H68.2326V67.1689Z" fill="#00AAD3" stroke="#263238" stroke-linecap="round" stroke-linejoin="round"/>
<path d="M72.0664 66.918H74.0637" stroke="#263238" stroke-width="0.5" stroke-linecap="round" stroke-linejoin="round"/>
<path d="M72.0664 71.7529H74.0637" stroke="#263238" stroke-width="0.5" stroke-linecap="round" stroke-linejoin="round"/>
<path d="M72.0664 76.5928H74.0637" stroke="#263238" stroke-width="0.5" stroke-linecap="round" stroke-linejoin="round"/>
<path d="M72.0664 81.4326H74.0637" stroke="#263238" stroke-width="0.5" stroke-linecap="round" stroke-linejoin="round"/>
<path d="M72.0664 86.2715H74.0637" stroke="#263238" stroke-width="0.5" stroke-linecap="round" stroke-linejoin="round"/>
<path d="M72.0664 91.1064H74.0637" stroke="#263238" stroke-width="0.5" stroke-linecap="round" stroke-linejoin="round"/>
<path d="M39.957 73.7853L45.1837 77.7154L50.6232 70.477L55.9954 71.0384L61.1997 68.4725L67.0909 58.8398" stroke="#263238" stroke-linecap="round" stroke-linejoin="round"/>
<path d="M40.6146 73.7763C40.6146 73.6137 40.5757 73.4547 40.5029 73.3196C40.4302 73.1844 40.3267 73.0792 40.2058 73.0172C40.0848 72.9551 39.9518 72.9391 39.8235 72.9712C39.6952 73.0033 39.5775 73.082 39.4852 73.1973C39.3929 73.3126 39.3303 73.4594 39.3052 73.619C39.2801 73.7786 39.2938 73.9439 39.3443 74.0939C39.3949 74.2439 39.4802 74.3718 39.5894 74.4615C39.6985 74.5512 39.8267 74.5985 39.9575 74.5976C40.0441 74.5976 40.1299 74.5763 40.2098 74.535C40.2898 74.4937 40.3624 74.4331 40.4234 74.3568C40.4845 74.2805 40.5328 74.1899 40.5656 74.0903C40.5984 73.9907 40.6151 73.884 40.6146 73.7763Z" fill="#263238"/>
<path d="M45.845 77.7158C45.845 77.5534 45.8063 77.3946 45.7337 77.2595C45.6611 77.1245 45.5579 77.0192 45.4371 76.957C45.3164 76.8949 45.1835 76.8786 45.0553 76.9103C44.9271 76.942 44.8094 77.0202 44.717 77.1351C44.6246 77.2499 44.5616 77.3963 44.5361 77.5556C44.5106 77.7149 44.5237 77.88 44.5737 78.0301C44.6238 78.1802 44.7084 78.3084 44.8171 78.3987C44.9258 78.4889 45.0535 78.5371 45.1842 78.5371C45.2712 78.5377 45.3573 78.5169 45.4377 78.4758C45.5181 78.4348 45.5911 78.3743 45.6526 78.2979C45.7141 78.2215 45.7627 78.1307 45.7957 78.0308C45.8288 77.9309 45.8455 77.8238 45.845 77.7158Z" fill="#263238"/>
<path d="M51.2786 70.4775C51.2786 70.3149 51.2398 70.1559 51.167 70.0208C51.0942 69.8856 50.9908 69.7803 50.8698 69.7183C50.7489 69.6563 50.6158 69.6403 50.4875 69.6724C50.3593 69.7044 50.2415 69.7831 50.1493 69.8984C50.057 70.0138 49.9944 70.1605 49.9693 70.3202C49.9442 70.4798 49.9578 70.6451 50.0084 70.795C50.059 70.945 50.1443 71.073 50.2534 71.1627C50.3626 71.2523 50.4907 71.2997 50.6216 71.2988C50.7082 71.2988 50.7939 71.2775 50.8739 71.2362C50.9538 71.1949 51.0264 71.1343 51.0875 71.058C51.1486 70.9816 51.1969 70.8911 51.2297 70.7915C51.2625 70.6918 51.2791 70.5852 51.2786 70.4775Z" fill="#263238"/>
<path d="M56.6536 71.039C56.6536 70.8764 56.6148 70.7174 56.542 70.5823C56.4692 70.4471 56.3658 70.3419 56.2448 70.2798C56.1239 70.2178 55.9908 70.2018 55.8625 70.2339C55.7343 70.266 55.6165 70.3446 55.5243 70.46C55.432 70.5753 55.3694 70.7221 55.3443 70.8817C55.3192 71.0413 55.3328 71.2066 55.3834 71.3566C55.434 71.5065 55.5193 71.6345 55.6284 71.7242C55.7376 71.8139 55.8657 71.8612 55.9966 71.8603C56.0832 71.8603 56.1689 71.839 56.2489 71.7977C56.3288 71.7564 56.4014 71.6958 56.4625 71.6195C56.5236 71.5432 56.5719 71.4526 56.6047 71.353C56.6375 71.2534 56.6541 71.1467 56.6536 71.039Z" fill="#263238"/>
<path d="M61.8607 68.3428C61.8607 68.1803 61.8219 68.0215 61.7493 67.8865C61.6767 67.7514 61.5735 67.6462 61.4527 67.584C61.332 67.5218 61.1991 67.5056 61.0709 67.5373C60.9428 67.569 60.825 67.6472 60.7326 67.762C60.6402 67.8769 60.5773 68.0232 60.5518 68.1825C60.5263 68.3418 60.5393 68.507 60.5894 68.6571C60.6394 68.8071 60.7241 68.9354 60.8327 69.0256C60.9414 69.1159 61.0692 69.164 61.1999 69.164C61.3751 69.164 61.5432 69.0775 61.6671 68.9235C61.791 68.7695 61.8607 68.5606 61.8607 68.3428Z" fill="#263238"/>
<path d="M67.7474 58.8398C67.7474 58.6772 67.7085 58.5182 67.6358 58.3831C67.563 58.2479 67.4596 58.1426 67.3386 58.0806C67.2176 58.0186 67.0846 58.0026 66.9563 58.0347C66.828 58.0667 66.7103 58.1454 66.618 58.2607C66.5257 58.3761 66.4631 58.5228 66.438 58.6825C66.413 58.8421 66.4266 59.0074 66.4772 59.1573C66.5277 59.3073 66.613 59.4353 66.7222 59.525C66.8313 59.6146 66.9595 59.662 67.0903 59.6611C67.2649 59.6599 67.432 59.5728 67.5552 59.4189C67.6783 59.265 67.7474 59.0568 67.7474 58.8398Z" fill="#263238"/>
<path d="M197.864 191.827H199.992V166.344H197.864V191.827Z" fill="#263238" stroke="#263238" stroke-linecap="round" stroke-linejoin="round"/>
<path d="M208.462 167.239L212.215 167.784L214.596 142.474L210.844 141.928L208.462 167.239Z" fill="#263238" stroke="#263238" stroke-linecap="round" stroke-linejoin="round"/>
<path d="M196.225 192.871V188.574H201.627V192.908L223.236 203.687V208.772H221.761V204.907L198.85 198.425L176.543 204.907V208.772H175.109V203.687L196.225 192.871Z" fill="#8C8C8C" stroke="#263238" stroke-linecap="round" stroke-linejoin="round"/>
<path d="M193.606 174.482H204.246V166.344H193.606V174.482Z" fill="#263238" stroke="#263238" stroke-linecap="round" stroke-linejoin="round"/>
<path d="M223.254 208.976C223.254 208.412 223.388 207.861 223.64 207.393C223.893 206.924 224.251 206.559 224.67 206.343C225.089 206.128 225.55 206.072 225.995 206.182C226.44 206.292 226.848 206.564 227.168 206.963C227.489 207.362 227.707 207.87 227.795 208.423C227.883 208.976 227.837 209.549 227.663 210.069C227.489 210.59 227.194 211.034 226.817 211.347C226.44 211.659 225.996 211.826 225.542 211.825C225.242 211.825 224.944 211.751 224.666 211.608C224.388 211.465 224.135 211.255 223.923 210.99C223.71 210.726 223.542 210.411 223.427 210.066C223.312 209.72 223.253 209.35 223.254 208.976Z" fill="#263238" stroke="#263238" stroke-linecap="round" stroke-linejoin="round"/>
<path d="M224.543 208.976C224.543 208.735 224.601 208.499 224.708 208.298C224.816 208.098 224.97 207.941 225.149 207.849C225.329 207.756 225.526 207.732 225.716 207.779C225.907 207.826 226.082 207.943 226.219 208.113C226.356 208.284 226.45 208.501 226.488 208.738C226.526 208.975 226.506 209.22 226.432 209.443C226.358 209.666 226.232 209.857 226.07 209.991C225.909 210.125 225.719 210.197 225.525 210.197C225.264 210.197 225.015 210.068 224.831 209.839C224.646 209.61 224.543 209.3 224.543 208.976Z" fill="white" stroke="#263238" stroke-linecap="round" stroke-linejoin="round"/>
<path d="M170.359 208.976C170.359 208.412 170.494 207.862 170.746 207.393C170.998 206.925 171.356 206.559 171.774 206.344C172.193 206.128 172.654 206.072 173.099 206.182C173.543 206.292 173.952 206.563 174.273 206.961C174.593 207.36 174.811 207.867 174.9 208.42C174.988 208.973 174.943 209.546 174.769 210.066C174.596 210.587 174.302 211.032 173.925 211.345C173.548 211.658 173.105 211.825 172.652 211.825C172.044 211.825 171.461 211.525 171.031 210.99C170.601 210.456 170.359 209.732 170.359 208.976Z" fill="#263238" stroke="#263238" stroke-linecap="round" stroke-linejoin="round"/>
<path d="M172.65 210.197C173.192 210.197 173.632 209.65 173.632 208.976C173.632 208.302 173.192 207.756 172.65 207.756C172.108 207.756 171.668 208.302 171.668 208.976C171.668 209.65 172.108 210.197 172.65 210.197Z" fill="white" stroke="#263238" stroke-linecap="round" stroke-linejoin="round"/>
<path d="M197.943 208.92H199.742L200.646 193.659H197.043L197.943 208.92Z" fill="#8C8C8C" stroke="#263238" stroke-linecap="round" stroke-linejoin="round"/>
<path d="M198.029 211.969H199.828V205.663H198.029V211.969Z" fill="#263238" stroke="#263238" stroke-linecap="round" stroke-linejoin="round"/>
<path d="M213.097 154.632C214.147 154.758 215.207 154.626 216.216 154.243C217.225 153.86 218.163 153.234 218.977 152.4C219.791 151.566 220.465 150.541 220.96 149.384C221.455 148.226 221.762 146.959 221.863 145.654L224.372 113.216C224.576 110.58 223.93 107.952 222.575 105.909C221.22 103.866 219.268 102.576 217.148 102.321C215.027 102.069 212.913 102.873 211.269 104.558C209.626 106.242 208.587 108.668 208.382 111.304L205.87 143.784C205.675 146.412 206.327 149.03 207.681 151.063C209.036 153.096 210.983 154.379 213.097 154.632Z" fill="#8C8C8C" stroke="#263238" stroke-linecap="round" stroke-linejoin="round"/>
<path d="M211.195 154.405C213.315 154.659 215.429 153.855 217.073 152.172C218.717 150.488 219.755 148.062 219.96 145.427L222.473 112.947C222.67 110.315 222.021 107.694 220.666 105.657C219.311 103.62 217.362 102.334 215.245 102.08C214.195 101.955 213.136 102.087 212.127 102.471C211.118 102.855 210.181 103.481 209.367 104.316C208.553 105.15 207.88 106.175 207.385 107.333C206.89 108.49 206.584 109.758 206.483 111.063L203.97 143.515C203.767 146.15 204.413 148.777 205.768 150.82C207.123 152.862 209.075 154.152 211.195 154.405Z" fill="#8C8C8C" stroke="#263238" stroke-linecap="round" stroke-linejoin="round"/>
<path d="M176.246 168.895L213.714 170.12C213.922 170.128 214.129 170.086 214.324 169.994C214.518 169.903 214.696 169.764 214.848 169.587C214.999 169.41 215.121 169.198 215.207 168.962C215.292 168.726 215.339 168.472 215.346 168.213L215.536 160.762C215.543 160.503 215.508 160.246 215.434 160.004C215.361 159.762 215.249 159.541 215.107 159.352C214.964 159.164 214.794 159.013 214.604 158.906C214.414 158.8 214.21 158.742 214.002 158.734L176.538 157.509C176.33 157.5 176.123 157.543 175.928 157.634C175.734 157.725 175.556 157.862 175.404 158.039C175.253 158.216 175.131 158.428 175.045 158.664C174.96 158.899 174.912 159.153 174.906 159.411L174.72 166.868C174.706 167.388 174.86 167.894 175.146 168.274C175.432 168.654 175.828 168.877 176.246 168.895Z" fill="#8C8C8C" stroke="#263238" stroke-linecap="round" stroke-linejoin="round"/>
<path d="M191.912 169.256L213.719 170.113C214.592 170.147 215.323 169.294 215.351 168.208L215.54 160.756C215.568 159.67 214.882 158.761 214.008 158.727L192.201 157.871C191.328 157.836 190.597 158.689 190.569 159.775L190.38 167.228C190.352 168.314 191.038 169.222 191.912 169.256Z" fill="#8C8C8C" stroke="#263238" stroke-linecap="round" stroke-linejoin="round"/>
<path d="M173.75 200.782L173.568 202.498C173.568 202.498 171.91 206.619 171.264 207.305C170.618 207.992 166.568 210.164 165.832 210.507C165.097 210.85 166.385 211.899 168.136 211.996C169.886 212.094 173.108 212.112 174.213 211.769C175.319 211.426 177.435 209.477 177.898 209.366L178.272 210.85C178.272 210.85 180.299 209.922 181.034 209.709C181.77 209.496 182.968 208.317 182.968 208.317C182.55 206.718 182.059 205.151 181.497 203.621C181.157 202.854 180.721 202.159 180.205 201.561L178.828 199.52L173.75 200.782Z" fill="#263238" stroke="#263238" stroke-linecap="round" stroke-linejoin="round"/>
<path d="M184.893 135.396L181.854 137.683L175.224 140.087C175.224 140.087 154.228 144.894 153.029 146.624C151.831 148.355 152.283 149.831 153.305 152.007C154.328 154.183 172.107 202.383 172.107 202.383L179.476 200.55L167.134 154.396C167.134 154.396 190.344 160.233 194.387 159.315C198.43 158.396 203.597 153.023 204.516 148.903C205.434 144.782 201.2 138.231 201.2 138.231L184.893 135.396Z" fill="#00AAD3" stroke="#263238" stroke-linecap="round" stroke-linejoin="round"/>
<path d="M161.91 149.918C161.91 149.918 166.551 152.702 167.383 155.834" stroke="#263238" stroke-linecap="round" stroke-linejoin="round"/>
<path d="M208.928 97.1666L198.982 96.0205L184.434 136.996L194.01 139.057L208.928 97.1666Z" fill="white" stroke="#263238" stroke-linecap="round" stroke-linejoin="round"/>
<path d="M199.164 99.8477C199.164 99.8477 184.615 136.416 184.425 136.996C184.235 137.576 180.098 139.056 179.176 139.283C178.254 139.51 175.215 140.086 175.215 140.086L180.374 135.738L184.052 123.948L179.572 121.104C179.572 121.104 187.86 105.652 189.7 100.386C191.541 95.1196 192.265 93.7276 194.102 93.6162C195.939 93.5048 201.195 93.9596 201.195 93.9596L199.164 99.8477Z" fill="#00AAD3" stroke="#263238" stroke-linecap="round" stroke-linejoin="round"/>
<path d="M197.141 107.578L197.324 110.214C197.324 110.214 187.655 131.729 187.565 132.189C187.476 132.648 188.312 135.85 188.312 135.85L191.721 132.76L198.164 110.673L199.915 109.411V105.323L197.141 107.578Z" fill="#263238" stroke="#263238" stroke-linecap="round" stroke-linejoin="round"/>
<path d="M200.986 68.0269C200.986 68.0269 197.566 78.3184 196.809 81.4365C196.051 84.5546 195.517 89.6493 195.689 90.2154C195.86 90.7814 196.809 92.7627 198.574 92.8602C200.34 92.9576 201.841 92.953 201.841 92.953L199.183 99.848C199.183 99.848 199.485 105.23 199.93 105.323C200.374 105.416 207.071 98.9989 207.225 98.7112C207.378 98.4235 211.63 87.1112 211.63 87.1112C211.63 87.1112 215.43 84.7494 215.658 82.6707C215.732 82.0892 215.68 81.4936 215.506 80.9459C215.332 80.3983 215.043 79.9187 214.669 79.5573V77.0053L216.341 70.7738C216.341 70.7738 212.164 67.3773 207.527 65.9574C202.89 64.5376 201.905 65.4934 201.905 65.4934L200.986 68.0269Z" fill="white" stroke="#263238" stroke-linecap="round" stroke-linejoin="round"/>
<path d="M208.658 62.2687C208.658 62.2687 201.822 59.9998 198.783 63.3081C195.744 66.6164 203.644 71.9199 206.228 72.3839C208.811 72.8479 212.003 72.1937 211.241 73.0474C210.48 73.9012 208.811 75.219 209.647 76.0681C210.172 76.592 210.762 77.0057 211.394 77.293C211.394 77.293 207.825 87.037 207.217 88.1506C206.608 89.2642 205.47 89.19 204.786 88.907C204.103 88.6239 200.837 86.0766 199.773 85.6033C198.709 85.13 196.734 83.7148 196.278 85.2274C195.823 86.7401 194.68 93.1572 196.353 94.5724C198.025 95.9876 206.153 92.4009 207.37 91.3615C208.587 90.3222 208.964 88.4337 209.192 88.0578C209.42 87.682 212.686 80.9772 212.989 80.5039C213.291 80.0306 214.661 79.5759 214.661 79.5759C214.661 79.5759 217.398 72.7737 217.625 70.1335C217.853 67.4934 210.711 62.1759 208.658 62.2687Z" fill="#263238" stroke="#263238" stroke-linecap="round" stroke-linejoin="round"/>
<path d="M201.523 75.3906L201.37 79.5666C201.37 79.5666 197.801 84.5685 197.801 85.1346C197.801 85.7007 202.053 85.0418 202.053 85.0418" stroke="#263238" stroke-linecap="round" stroke-linejoin="round"/>
<path d="M200.988 74.4491C200.858 74.1327 200.642 73.8834 200.378 73.7451C200.115 73.6068 199.82 73.5883 199.547 73.6928" stroke="#263238" stroke-linecap="round" stroke-linejoin="round"/>
<path d="M204.18 76.8059C204.18 76.8059 206.382 76.5229 207.066 78.6016" stroke="#263238" stroke-linecap="round" stroke-linejoin="round"/>
<path d="M198.238 87.2881C198.238 87.2881 200.213 88.8007 201.505 88.8007" stroke="white" stroke-linecap="round" stroke-linejoin="round"/>
<path d="M204.932 80.8987C204.723 81.4138 204.342 81.6922 204.08 81.5298C203.819 81.3674 203.774 80.8152 203.983 80.3048C204.192 79.7944 204.573 79.5114 204.835 79.6738C205.096 79.8362 205.141 80.3883 204.932 80.8987Z" fill="#263238"/>
<path d="M200.174 78.6015C199.969 79.1119 199.584 79.395 199.323 79.2279C199.061 79.0609 199.017 78.518 199.226 78.003C199.435 77.4879 199.815 77.2095 200.077 77.3766C200.338 77.5436 200.383 78.0865 200.174 78.6015Z" fill="#263238"/>
<path d="M167.213 196.954L166.567 201.761L165.185 202.225C165.185 202.225 163.894 204.16 163.621 204.624C163.348 205.088 159.936 208.169 159.018 208.744C158.099 209.32 155.792 209.542 155.886 210.345C155.979 211.148 160.858 211.835 163.991 211.946C167.123 212.057 168.87 210.805 168.87 210.805L169.146 211.603L172.368 211.259C172.368 211.259 172.185 207.482 172.279 205.881C172.308 204.58 172.246 203.277 172.092 201.989L171.909 198.671L167.213 196.954Z" fill="#263238" stroke="#263238" stroke-linecap="round" stroke-linejoin="round"/>
<path d="M193.091 140.772C193.091 140.772 166.935 144.777 166.382 145.579C165.83 146.382 166.289 170.074 166.289 170.074L163.25 197.803L172.643 201.375C172.643 201.375 175.592 177.995 176.604 171.679C177.296 166.984 177.788 162.246 178.079 157.486C178.079 157.486 192.538 161.606 197.492 158.172C202.446 154.739 201.449 150.503 201.449 150.503" fill="#00AAD3"/>
<path d="M193.091 140.772C193.091 140.772 166.935 144.777 166.382 145.579C165.83 146.382 166.289 170.074 166.289 170.074L163.25 197.803L172.643 201.375C172.643 201.375 175.592 177.995 176.604 171.679C177.296 166.984 177.788 162.246 178.079 157.486C178.079 157.486 192.538 161.606 197.492 158.172C202.446 154.739 201.449 150.503 201.449 150.503" stroke="#263238" stroke-linecap="round" stroke-linejoin="round"/>
<path d="M166.789 169.146C166.789 169.146 167.98 162.493 168.215 158.938" stroke="#263238" stroke-linecap="round" stroke-linejoin="round"/>
<path d="M176.133 153.659C175.849 153.187 175.508 152.773 175.121 152.434" stroke="#263238" stroke-linecap="round" stroke-linejoin="round"/>
<path d="M178.08 157.486C178.08 157.486 177.55 156.196 176.855 154.893" stroke="#263238" stroke-linecap="round" stroke-linejoin="round"/>
<path d="M208.561 94.9902C208.561 94.9902 198.152 118.784 195.942 124.863C193.732 130.941 190.772 139.4 190.772 140.314C190.772 141.228 188.838 164.697 189.484 165.152C190.129 165.606 199.795 161.718 204.309 159.547C208.822 157.375 209.005 155.77 209.375 154.508C209.744 153.245 209.651 136.996 209.651 136.996C209.651 136.996 219.044 103.802 218.951 102.317C218.857 100.832 208.561 94.9902 208.561 94.9902Z" fill="#00AAD3" stroke="#263238" stroke-linecap="round" stroke-linejoin="round"/>
<path d="M200.651 119.062C198.945 121.141 197.512 122.691 197.512 122.691" stroke="#263238" stroke-linecap="round" stroke-linejoin="round"/>
<path d="M211.878 97.6211C211.878 97.6211 207.551 108.154 205.337 112.39C204.245 114.332 203.013 116.146 201.656 117.81" stroke="#263238" stroke-linecap="round" stroke-linejoin="round"/>
<path d="M198.035 95.4121C198.035 95.4121 193.555 104.72 192.263 110.214C190.972 115.707 190.695 118.566 190.695 118.566" stroke="#263238" stroke-linecap="round" stroke-linejoin="round"/>
<path d="M195.668 108.724L199.924 105.323L200.088 113.304" stroke="#263238" stroke-linecap="round" stroke-linejoin="round"/>
<path d="M204.746 144.484L206.168 144.206" stroke="#263238" stroke-linecap="round" stroke-linejoin="round"/>
<path d="M205.707 142.146L195.668 143.636V146.267L202.836 144.861" stroke="#263238" stroke-linecap="round" stroke-linejoin="round"/>
<path d="M191.711 98.994C191.711 98.994 193.369 94.6463 194.197 94.5303C195.026 94.4143 196.867 94.5303 196.867 95.4583C196.867 96.3863 195.855 96.4884 195.855 96.4884H194.474L193.828 98.5485L191.711 98.994Z" fill="white" stroke="#263238" stroke-linecap="round" stroke-linejoin="round"/>
<path d="M189.407 107.235L190.053 102.771C190.053 102.771 190.33 98.8825 190.8 98.6505C191.27 98.4185 195.497 98.5392 195.497 98.5392C195.497 98.5392 195.59 103.114 195.22 104.26C194.851 105.406 193.193 105.861 193.193 105.861C193.04 106.575 192.825 107.266 192.551 107.921C192.275 108.385 191.259 108.951 191.259 108.951L190.983 109.879L188.59 107.931L189.407 107.235Z" fill="white" stroke="#263238" stroke-linecap="round" stroke-linejoin="round"/>
<path d="M193.182 105.866L192.723 103.69L194.474 103.574" fill="white"/>
<path d="M193.182 105.866L192.723 103.69L194.474 103.574" stroke="#263238" stroke-linecap="round" stroke-linejoin="round"/>
<path d="M188.485 106.896L192.263 110.214L190.788 112.158L187.566 108.497L188.485 106.896Z" fill="white" stroke="#263238" stroke-linecap="round" stroke-linejoin="round"/>
<path d="M187.567 108.497L191.894 112.501L183.606 128.185C182.625 128.443 181.606 128.363 180.66 127.953C179.092 127.266 177.621 123.378 177.621 122.918C177.621 122.459 187.567 108.497 187.567 108.497Z" fill="#00AAD3" stroke="#263238" stroke-linecap="round" stroke-linejoin="round"/>
<path d="M184.252 126.695C184.252 126.695 182.871 123.488 182.777 122.574C182.684 121.66 182.594 119.827 182.132 119.141C181.669 118.454 181.12 117.995 180.937 116.965C180.754 115.935 179.921 116.394 179.817 117.429C179.712 118.463 180.459 119.489 180.459 119.489C180.459 119.489 178.159 118.561 177.79 118.802C177.42 119.043 176.67 119.373 176.868 120.194C176.991 120.698 177.147 121.188 177.334 121.66C177.334 121.66 175.863 124.064 175.863 125.205C175.863 126.347 176.875 128.184 177.614 128.871C178.353 129.558 180.929 130.263 180.929 130.263L184.252 126.695Z" fill="white" stroke="#263238" stroke-linecap="round" stroke-linejoin="round"/>
<path d="M210.82 103.143L202.483 124.635L182.129 126.027C181.616 126.182 181.147 126.509 180.774 126.973C180.4 127.437 180.137 128.02 180.012 128.658C179.799 129.705 179.706 130.785 179.736 131.864C179.736 131.864 193.273 133.924 197.511 134.268C201.748 134.611 206.904 135.298 207.55 134.495C208.195 133.692 215.838 114.009 215.838 114.009" fill="#00AAD3"/>
<path d="M210.82 103.143L202.483 124.635L182.129 126.027C181.616 126.182 181.147 126.509 180.774 126.973C180.4 127.437 180.137 128.02 180.012 128.658C179.799 129.705 179.706 130.785 179.736 131.864C179.736 131.864 193.273 133.924 197.511 134.268C201.748 134.611 206.904 135.298 207.55 134.495C208.195 133.692 215.838 114.009 215.838 114.009" stroke="#263238" stroke-linecap="round" stroke-linejoin="round"/>
<path d="M88.9913 166.349H86.8633V191.832H88.9913V166.349Z" fill="#263238" stroke="#263238" stroke-linecap="round" stroke-linejoin="round"/>
<path d="M76.026 141.933L72.2734 142.479L74.6549 167.789L78.4075 167.244L76.026 141.933Z" fill="#263238" stroke="#263238" stroke-linecap="round" stroke-linejoin="round"/>
<path d="M90.6318 192.871V188.574H85.2296V192.908L63.6211 203.687V208.772H65.0958V204.907L88.0072 198.425L110.314 204.907V208.772H111.747V203.687L90.6318 192.871Z" fill="#8C8C8C" stroke="#263238" stroke-linecap="round" stroke-linejoin="round"/>
<path d="M93.2494 166.349H82.6094V174.487H93.2494V166.349Z" fill="#263238" stroke="#263238" stroke-linecap="round" stroke-linejoin="round"/>
<path d="M63.6197 208.976C63.6197 208.412 63.4853 207.862 63.2334 207.393C62.9815 206.925 62.6235 206.559 62.2046 206.344C61.7858 206.128 61.3249 206.072 60.8802 206.182C60.4356 206.292 60.0271 206.563 59.7065 206.961C59.386 207.36 59.1677 207.867 59.0792 208.42C58.9908 208.973 59.0361 209.546 59.2096 210.066C59.3831 210.587 59.6769 211.032 60.0539 211.345C60.4309 211.658 60.8741 211.825 61.3274 211.825C61.9354 211.825 62.5184 211.525 62.9483 210.99C63.3782 210.456 63.6197 209.732 63.6197 208.976Z" fill="#263238" stroke="#263238" stroke-linecap="round" stroke-linejoin="round"/>
<path d="M62.3075 208.976C62.3075 208.735 62.2499 208.499 62.142 208.298C62.0341 208.098 61.8808 207.941 61.7014 207.849C61.5219 207.756 61.3245 207.732 61.1341 207.779C60.9436 207.826 60.7686 207.943 60.6313 208.113C60.494 208.284 60.4005 208.501 60.3626 208.738C60.3247 208.975 60.3442 209.22 60.4185 209.443C60.4928 209.666 60.6187 209.857 60.7801 209.991C60.9416 210.125 61.1314 210.197 61.3256 210.197C61.586 210.197 61.8358 210.068 62.0199 209.839C62.204 209.61 62.3075 209.3 62.3075 208.976Z" fill="white" stroke="#263238" stroke-linecap="round" stroke-linejoin="round"/>
<path d="M116.479 208.976C116.479 208.412 116.345 207.862 116.093 207.393C115.841 206.925 115.483 206.559 115.064 206.344C114.645 206.128 114.184 206.072 113.74 206.182C113.295 206.292 112.887 206.563 112.566 206.961C112.245 207.36 112.027 207.867 111.939 208.42C111.85 208.973 111.896 209.546 112.069 210.066C112.243 210.587 112.536 211.032 112.913 211.345C113.29 211.658 113.733 211.825 114.187 211.825C114.795 211.825 115.378 211.525 115.808 210.99C116.238 210.456 116.479 209.732 116.479 208.976Z" fill="#263238" stroke="#263238" stroke-linecap="round" stroke-linejoin="round"/>
<path d="M114.205 210.197C114.747 210.197 115.186 209.65 115.186 208.976C115.186 208.302 114.747 207.756 114.205 207.756C113.662 207.756 113.223 208.302 113.223 208.976C113.223 209.65 113.662 210.197 114.205 210.197Z" fill="white" stroke="#263238" stroke-linecap="round" stroke-linejoin="round"/>
<path d="M88.9101 208.92H87.1107L86.2109 193.659H89.8136L88.9101 208.92Z" fill="#8C8C8C" stroke="#263238" stroke-linecap="round" stroke-linejoin="round"/>
<path d="M88.8268 205.663H87.0273V211.969H88.8268V205.663Z" fill="#263238" stroke="#263238" stroke-linecap="round" stroke-linejoin="round"/>
<path d="M73.757 154.632C72.7071 154.758 71.6474 154.626 70.6386 154.243C69.6298 153.86 68.6916 153.234 67.8775 152.4C67.0635 151.566 66.3896 150.541 65.8944 149.384C65.3991 148.226 65.0922 146.959 64.9912 145.654L62.4786 113.174C62.3772 111.869 62.4836 110.552 62.7917 109.298C63.0999 108.044 63.6038 106.878 64.2747 105.866C64.9455 104.854 65.7701 104.017 66.7015 103.401C67.6328 102.786 68.6526 102.404 69.7026 102.279C71.8233 102.027 73.9377 102.831 75.5814 104.516C77.225 106.2 78.2635 108.626 78.4685 111.262L80.981 143.742C81.1849 146.377 80.5383 149.004 79.1836 151.046C77.8289 153.089 75.8769 154.378 73.757 154.632Z" fill="#8C8C8C" stroke="#263238" stroke-linecap="round" stroke-linejoin="round"/>
<path d="M75.6609 154.405C73.5406 154.659 71.4261 153.855 69.7823 152.172C68.1386 150.488 67.1 148.062 66.895 145.427L64.3825 112.947C64.1849 110.316 64.8342 107.695 66.1882 105.659C67.5422 103.622 69.4906 102.335 71.6065 102.08C73.7273 101.827 75.8423 102.631 77.4862 104.315C79.1301 106 80.1683 108.427 80.3723 111.063L82.8811 143.511C83.0851 146.145 82.4391 148.772 81.0853 150.815C79.7314 152.858 77.7804 154.149 75.6609 154.405Z" fill="#8C8C8C" stroke="#263238" stroke-linecap="round" stroke-linejoin="round"/>
<path d="M111.902 168.895L73.1385 170.12C72.9306 170.128 72.7235 170.086 72.529 169.994C72.3344 169.903 72.1563 169.764 72.0048 169.587C71.8533 169.41 71.7313 169.198 71.6459 168.962C71.5605 168.726 71.5133 168.472 71.5071 168.213L71.3055 160.762C71.2924 160.24 71.4462 159.734 71.7332 159.354C72.0202 158.974 72.4169 158.751 72.8361 158.734L111.625 157.509C111.833 157.5 112.04 157.543 112.235 157.634C112.429 157.725 112.607 157.862 112.759 158.039C112.911 158.216 113.033 158.428 113.118 158.664C113.203 158.899 113.251 159.153 113.257 159.411L113.447 166.868C113.454 167.127 113.419 167.386 113.345 167.629C113.27 167.871 113.158 168.093 113.014 168.282C112.871 168.47 112.698 168.621 112.507 168.727C112.316 168.832 112.111 168.889 111.902 168.895Z" fill="#8C8C8C" stroke="#263238" stroke-linecap="round" stroke-linejoin="round"/>
<path d="M94.6623 157.875L72.8556 158.732C71.9818 158.766 71.2958 159.674 71.3234 160.76L71.5129 168.213C71.5405 169.299 72.2713 170.152 73.1451 170.117L94.9518 169.261C95.8256 169.227 96.5115 168.318 96.4839 167.232L96.2944 159.78C96.2668 158.694 95.5361 157.841 94.6623 157.875Z" fill="#8C8C8C" stroke="#263238" stroke-linecap="round" stroke-linejoin="round"/>
<path d="M116.855 153.719C116.855 153.719 117.187 161.681 118.068 168.813C118.95 175.944 120.409 197.581 120.409 197.581C120.868 199.753 121.493 201.866 122.276 203.891C122.798 205.235 123.467 206.484 124.262 207.603C124.262 207.603 127.133 211.171 127.021 211.719C126.909 212.266 125.11 212.211 123.344 211.798C121.578 211.385 121.216 210.87 120.223 210.039C119.23 209.209 116.971 208.146 115.978 207.719C114.985 207.292 114.656 206.216 114.988 204.981C115.321 203.747 116.426 200.866 116.426 199.084C116.426 197.302 115.541 188.848 113.122 183.22C110.703 177.592 109.258 167.852 109.258 167.852L116.855 153.719Z" fill="white" stroke="#263238" stroke-linecap="round" stroke-linejoin="round"/>
<path d="M117.438 205.394C116.736 204.716 116.079 204.002 115.519 203.329C115.31 203.993 115.116 204.577 115.008 204.981C114.675 206.215 115.008 207.301 115.997 207.719C116.986 208.136 119.249 209.203 120.242 210.039C121.235 210.874 121.597 211.384 123.363 211.797C125.129 212.21 126.932 212.261 127.04 211.718C127.148 211.175 124.281 207.603 124.281 207.603L122.848 208.428C122.848 208.428 119.424 207.315 117.438 205.394Z" fill="#00AAD3" stroke="#263238" stroke-linecap="round" stroke-linejoin="round"/>
<path d="M74.5039 137.367C74.5039 137.367 73.5108 142.202 74.0521 145.255C74.5935 148.308 78.3044 155.37 84.7257 157.059C91.1471 158.748 107.286 158.196 107.286 158.196C107.286 158.196 103.396 165.541 101.948 174.385C100.992 180.24 98.0612 188.435 97.6095 189.674C97.1577 190.912 91.8191 193.158 92.0095 194.17C92.1999 195.181 92.8233 201.473 94.1785 204.062C95.5337 206.651 97.7961 207.774 98.6996 208.108C99.6031 208.442 99.786 208.442 99.786 207.319C99.786 206.197 99.1513 204.624 99.1513 203.607C99.1513 202.591 99.0617 195.719 99.4239 194.838C99.786 193.956 111.628 170.752 113.435 166.947C115.242 163.142 118.049 155.704 118.863 154.47C119.677 153.236 120.67 151.547 119.856 149.412C119.043 147.278 100.357 140.132 100.357 140.132L99.3753 135.812L90.042 135.14L74.5039 137.367Z" fill="white" stroke="#263238" stroke-linecap="round" stroke-linejoin="round"/>
<path d="M100.357 140.127L99.3756 135.808L90.0422 135.135L74.4854 137.381C74.4854 137.381 73.47 142.22 74.0337 145.269C74.9297 150.089 78.286 155.384 84.7073 157.073C91.1286 158.762 107.268 158.209 107.268 158.209C107.268 158.209 108.798 148.702 111.789 144.995C108.197 143.473 100.357 140.127 100.357 140.127Z" fill="#263238" stroke="#263238" stroke-linecap="round" stroke-linejoin="round"/>
<path d="M107.285 158.177C109.439 157.468 111.529 156.489 113.524 155.254L107.285 158.177Z" fill="white"/>
<path d="M107.285 158.177C109.439 157.468 111.529 156.489 113.524 155.254" stroke="#263238" stroke-linecap="round" stroke-linejoin="round"/>
<path d="M95.0734 199.548C94.4313 197.692 94.4724 193.98 94.5545 191.994C93.1881 192.834 91.9076 193.646 92.0009 194.152C92.1801 195.163 92.8148 201.455 94.17 204.044C95.5252 206.633 97.7876 207.756 98.691 208.09C99.5945 208.424 99.7774 208.424 99.7774 207.301C99.7774 206.179 99.1465 204.61 99.1428 203.589C98.197 203.44 97.2604 203.212 96.339 202.907C96.339 202.907 95.9769 202.133 95.0734 199.548Z" fill="#00AAD3" stroke="#263238" stroke-linecap="round" stroke-linejoin="round"/>
<path d="M93.7647 92.8555L90.9609 94.3171C90.9609 94.3171 93.2233 120.64 93.1337 124.352C93.0441 128.064 92.8612 135.488 92.8612 135.488C92.8612 135.488 96.7513 136.949 99.3721 135.827L99.1929 123.127C99.1929 123.127 101.093 110.984 100.369 107.049C99.6447 103.115 97.3823 96.1452 97.3823 96.1452C97.3823 96.1452 96.3183 92.9668 93.7647 92.8555Z" fill="white" stroke="#263238" stroke-linecap="round" stroke-linejoin="round"/>
<path d="M92.9586 104.21L95.6765 99.0639L99.0178 105.096C99.0178 105.096 97.573 96.665 97.3901 96.1036C96.9568 95.0455 96.3015 94.1525 95.4935 93.5191C94.4071 92.6189 93.1378 92.5911 92.4173 92.5076C91.6968 92.4241 90.9688 94.3079 90.9688 94.3079L92.9586 104.21Z" fill="white" stroke="#263238" stroke-linecap="round" stroke-linejoin="round"/>
<path d="M91.6914 92.4424C91.6914 92.4424 82.6007 94.9155 81.8204 95.6208C81.0402 96.3261 80.7004 98.6229 80.8946 99.5045C81.0887 100.386 83.1682 119.456 83.1682 119.456L72.7148 138.434C72.7148 138.434 76.1271 141.965 79.3228 142.67C82.5186 143.376 89.3356 142.318 91.7511 141.084L94.1666 139.849C94.1666 139.849 95.2866 116.807 94.0956 107.713C92.9047 98.6182 91.6914 92.4424 91.6914 92.4424Z" fill="#00AAD3" stroke="#263238" stroke-linecap="round" stroke-linejoin="round"/>
<path d="M119.605 121.749L123.156 119.81C123.156 119.81 124.224 116.896 124.365 116.631C124.507 116.367 125.713 115.926 126.281 115.304C126.848 114.682 127.632 113.629 127.845 113.541C128.058 113.453 128.412 114.246 127.845 115.304C127.415 116.054 126.913 116.736 126.352 117.336L129.835 115.75C129.835 115.75 131.183 112.924 131.537 114.158C131.892 115.392 130.044 119.192 129.622 120.427C129.2 121.661 128.767 122.283 127.987 122.459C127.207 122.635 124.791 123.164 124.295 123.252C123.798 123.341 120.74 125.545 120.74 125.545L119.605 121.749Z" fill="white" stroke="#263238" stroke-linecap="round" stroke-linejoin="round"/>
<path d="M124.531 120.867C125.162 120.204 125.89 119.545 126.278 119.545C127.062 119.545 128.765 119.721 128.765 119.721C128.765 119.721 129.762 116.896 130.258 116.473C130.755 116.051 131.18 116.65 130.755 117.531" fill="white"/>
<path d="M124.531 120.867C125.162 120.204 125.89 119.545 126.278 119.545C127.062 119.545 128.765 119.721 128.765 119.721C128.765 119.721 129.762 116.896 130.258 116.473C130.755 116.051 131.18 116.65 130.755 117.531" stroke="#263238" stroke-linecap="round" stroke-linejoin="round"/>
<path d="M96.4492 94.5625C96.4492 94.5625 98.7228 106.831 98.6519 111.42C98.5809 116.009 97.4385 118.319 97.6551 119.897C97.8716 121.474 98.3644 140.025 98.3644 140.025L100.354 140.113C100.354 140.113 99.8578 133.051 99.9287 131.724C99.9996 130.397 100.709 125.103 100.709 125.103C100.709 125.103 104.263 133.845 104.76 134.286C105.256 134.726 121.735 125.989 121.735 125.989L120.525 120.955L107.955 124.133C107.955 124.133 105.469 113.893 105.114 111.684C104.76 109.475 104.476 101.713 103.479 99.7686C102.482 97.8244 96.4492 94.5625 96.4492 94.5625Z" fill="#00AAD3" stroke="#263238" stroke-linecap="round" stroke-linejoin="round"/>
<path d="M100.711 125.103C100.711 125.103 101.137 122.899 101.85 117.071C102.278 113.592 102.302 110.054 101.921 106.566" stroke="#263238" stroke-linecap="round" stroke-linejoin="round"/>
<path d="M99.9338 101.435C100.273 104.613 100.527 108.538 100.072 110.715C99.5521 113.185 98.887 115.604 98.082 117.953" stroke="#263238" stroke-linecap="round" stroke-linejoin="round"/>
<path d="M99.3047 96.5117C99.3047 96.5117 99.5175 97.8434 99.7527 99.7597" stroke="#263238" stroke-linecap="round" stroke-linejoin="round"/>
<path d="M92.5117 113.68C93.4339 116.519 94.2477 119.289 94.2477 119.289" stroke="#263238" stroke-linecap="round" stroke-linejoin="round"/>
<path d="M88.2109 93.8535C88.2109 93.8535 89.8424 106.303 91.1229 109.657C91.3843 110.339 91.668 111.147 91.9555 111.977" stroke="#263238" stroke-linecap="round" stroke-linejoin="round"/>
<path d="M108.383 119.104L111.153 118.129C111.153 118.129 112.93 115.304 113.356 114.598C113.781 113.893 114.774 113.893 115.487 113.364C116.2 112.835 117.119 110.891 117.473 111.244C117.828 111.596 117.473 113.188 117.1 113.629C116.625 114.107 116.126 114.548 115.607 114.951C115.323 115.215 118.944 114.158 118.944 114.158C118.944 114.158 121.289 111.596 121.431 112.302C121.573 113.007 120.363 115.48 120.363 115.48C120.363 115.48 118.661 117.508 117.806 118.389C116.951 119.271 114.894 119.628 114.326 119.781C113.759 119.934 112.766 120.134 112.766 120.134L108.502 122.073L108.383 119.104Z" fill="white" stroke="#263238" stroke-linecap="round" stroke-linejoin="round"/>
<path d="M119.817 116C119.817 116 118.323 116.882 117.543 117.322L119.817 116Z" fill="white"/>
<path d="M119.817 116C119.817 116 118.323 116.882 117.543 117.322" stroke="#263238" stroke-linecap="round" stroke-linejoin="round"/>
<path d="M115.628 114.951L114.348 115.304" stroke="#263238" stroke-linecap="round" stroke-linejoin="round"/>
<path d="M83.3795 94.916C83.3795 94.916 79.1907 96.6792 78.5486 98.0063C77.9065 99.3333 80.1838 110.186 81.8899 116.19C83.5961 122.195 88.1395 132.254 88.707 132.607C89.2745 132.959 104.122 126.431 107.519 125.104C110.917 123.777 111.495 123.076 111.495 123.076L110.002 118.306L92.9593 122.102L87.7326 101.714" fill="#00AAD3"/>
<path d="M83.3795 94.916C83.3795 94.916 79.1907 96.6792 78.5486 98.0063C77.9065 99.3333 80.1838 110.186 81.8899 116.19C83.5961 122.195 88.1395 132.254 88.707 132.607C89.2745 132.959 104.122 126.431 107.519 125.104C110.917 123.777 111.495 123.076 111.495 123.076L110.002 118.306L92.9593 122.102L87.7326 101.714" stroke="#263238" stroke-linecap="round" stroke-linejoin="round"/>
<path d="M103.962 68.0315C103.962 68.0315 105.62 69.4235 104.78 70.9222C103.94 72.4209 102.167 72.523 102.167 72.523L100.617 69.4884C100.617 69.4884 102.461 66.7694 103.962 68.0315Z" fill="#263238" stroke="#263238" stroke-linecap="round" stroke-linejoin="round"/>
<path d="M102.224 69.8414C102.224 69.8414 104.767 77.3397 104.625 77.9846C104.483 78.6296 103.299 79.6365 103.837 80.6155C104.375 81.5945 105.95 83.5526 105.909 83.8264C105.868 84.1001 103.941 85.4968 103.941 85.4968C103.941 85.4968 102.594 91.5288 102.045 92.4104C101.496 93.292 96.8631 92.2201 96.8631 92.2201L95.8849 98.976L90.382 92.6006L88.3249 90.1878C88.3249 90.1878 86.4806 79.8963 90.3932 73.7112C94.3057 67.5261 102.224 69.8414 102.224 69.8414Z" fill="white" stroke="#263238" stroke-linecap="round" stroke-linejoin="round"/>
<path d="M101.871 80.4061C101.871 81.0372 101.662 81.5476 101.427 81.5429C101.192 81.5383 101.009 81.0186 101.02 80.3829C101.031 79.7473 101.225 79.2415 101.461 79.2461C101.696 79.2508 101.879 79.7704 101.871 80.4061Z" fill="#263238"/>
<path d="M101.881 87.0043C101.442 86.9784 101.011 86.8417 100.615 86.6024C100.219 86.3631 99.8659 86.0263 99.5779 85.6123C99.5779 85.6123 99.4398 88.3267 100.119 88.4845C100.799 88.6422 101.881 87.0043 101.881 87.0043Z" fill="#263238" stroke="#263238" stroke-linecap="round" stroke-linejoin="round"/>
<path d="M100.453 77.8912C100.453 77.8912 101.868 76.4018 103.134 78.1464" stroke="#263238" stroke-linecap="round" stroke-linejoin="round"/>
<path d="M96.8624 92.2202L94.5664 91.5381L96.2949 95.5238L96.8624 92.2202Z" fill="#263238" stroke="#263238" stroke-linecap="round" stroke-linejoin="round"/>
<path d="M102.222 69.841C102.222 69.841 101.722 71.7945 99.2768 74.3465C96.8315 76.8985 94.6438 78.5225 94.6512 79.2278C94.6587 79.933 95.0246 80.5919 94.5318 80.7636C94.13 80.8274 93.7221 80.7418 93.3595 80.5177C93.3595 80.5177 92.1723 84.7262 91.9931 87.6958C91.9203 89.6558 92.1601 91.6143 92.6987 93.4586C92.6987 93.4586 87.431 93.8113 84.392 90.9438C81.3531 88.0762 80.4982 84.8282 80.8342 82.0118C81.1702 79.1953 82.1334 70.3004 86.8075 65.9434C91.4816 61.5865 98.1792 61.7674 100.453 63.5446C102.726 65.3217 104.373 66.6255 103.955 68.0314C103.537 69.4374 102.222 69.841 102.222 69.841Z" fill="#263238" stroke="#263238" stroke-linecap="round" stroke-linejoin="round"/>
<path d="M91.1814 158.46C91.042 158.461 90.9042 158.423 90.7782 158.349C90.5118 158.168 90.3075 157.873 90.2037 157.518C90.1 157.164 90.1038 156.775 90.2145 156.423C91.9019 150.698 93.8358 140.485 91.8534 137.436C91.3905 136.972 88.6017 136.044 73.5787 137.975L72.4849 138.114C71.4358 138.225 70.5398 140.109 70.3083 140.759C70.259 140.925 70.1816 141.075 70.0815 141.201C69.9814 141.327 69.8608 141.424 69.7278 141.487C69.5948 141.55 69.4525 141.577 69.3106 141.565C69.1686 141.554 69.0302 141.505 68.9046 141.422C68.6476 141.217 68.4586 140.904 68.3722 140.541C68.2858 140.177 68.3078 139.786 68.4342 139.441C68.5798 139.033 69.9275 135.432 72.3243 135.172L73.3883 135.038C89.3969 132.968 92.4657 134.012 93.399 135.441C96.9233 140.861 92.6523 155.857 92.1483 157.551C92.0828 157.808 91.9545 158.034 91.7813 158.197C91.6081 158.36 91.3985 158.452 91.1814 158.46Z" fill="white" stroke="#263238" stroke-linecap="round" stroke-linejoin="round"/>
<path d="M157.183 114.858H132.651L126.977 138.75H151.508L157.183 114.858Z" fill="#D9D9D9" stroke="#263238" stroke-linecap="round" stroke-linejoin="round"/>
<path d="M109.029 137.441L108.719 138.75H151.506L151.82 137.441H109.029Z" fill="#D9D9D9" stroke="#263238" stroke-linecap="round" stroke-linejoin="round"/>
<path d="M127.329 137.441L127.02 138.75H151.506L151.82 137.441H127.329Z" fill="#263238" stroke="#263238" stroke-linecap="round" stroke-linejoin="round"/>
<path d="M151.155 142.337H147.004V211.324H151.155V142.337Z" fill="white" stroke="#263238" stroke-linecap="round" stroke-linejoin="round"/>
<path d="M151.155 142.337H147.004V153.733H151.155V142.337Z" fill="#263238" stroke="#263238" stroke-linecap="round" stroke-linejoin="round"/>
<path d="M201.587 138.764H96.1953V142.596H201.587V138.764Z" fill="white" stroke="#263238" stroke-linecap="round" stroke-linejoin="round"/>
<path d="M170.739 211.885H127.059C131.38 209.359 136.097 208.051 140.872 208.053H156.974C161.749 208.05 166.466 209.358 170.787 211.885H170.739Z" fill="white" stroke="#263238" stroke-linecap="round" stroke-linejoin="round"/>
</svg>
