<svg width="159" height="159" viewBox="0 0 159 159" fill="none" xmlns="http://www.w3.org/2000/svg">
<path d="M159 121.604H0V121.683H159V121.604Z" fill="#E6E6E6"/>
<path d="M148.951 124.408H142.982V124.488H148.951V124.408Z" fill="#E6E6E6"/>
<path d="M121.4 126.59H118.637V126.669H121.4V126.59Z" fill="#E6E6E6"/>
<path d="M95.1838 125.492H89.0273V125.572H95.1838V125.492Z" fill="#E6E6E6"/>
<path d="M39.4698 125.451H25.7354V125.531H39.4698V125.451Z" fill="#E6E6E6"/>
<path d="M22.9055 125.451H20.8926V125.531H22.9055V125.451Z" fill="#E6E6E6"/>
<path d="M89.9875 123.568H60.1973V123.648H89.9875V123.568Z" fill="#E6E6E6"/>
<path d="M75.3656 107.421H13.963C13.482 107.42 13.0209 107.228 12.6811 106.888C12.3413 106.547 12.1504 106.086 12.1504 105.605V19.2901C12.1546 18.8119 12.3473 18.3546 12.6867 18.0175C13.0261 17.6805 13.4847 17.4911 13.963 17.4902H75.3656C75.8472 17.4902 76.309 17.6815 76.6496 18.0221C76.9901 18.3626 77.1814 18.8244 77.1814 19.306V105.605C77.1814 106.086 76.9901 106.548 76.6496 106.889C76.309 107.229 75.8472 107.421 75.3656 107.421ZM13.963 17.5538C13.5031 17.5547 13.0622 17.738 12.7373 18.0635C12.4124 18.389 12.2299 18.8302 12.2299 19.2901V105.605C12.2299 106.065 12.4124 106.506 12.7373 106.831C13.0622 107.157 13.5031 107.34 13.963 107.341H75.3656C75.8258 107.34 76.267 107.157 76.5924 106.832C76.9179 106.506 77.1011 106.065 77.1019 105.605V19.2901C77.1011 18.8299 76.9179 18.3887 76.5924 18.0633C76.267 17.7379 75.8258 17.5547 75.3656 17.5538H13.963Z" fill="#E6E6E6"/>
<path d="M144.152 107.421H82.7464C82.2651 107.42 81.8038 107.228 81.4634 106.888C81.1231 106.548 80.9315 106.086 80.9307 105.605V19.2901C80.9357 18.8116 81.1291 18.3543 81.469 18.0173C81.8089 17.6804 82.2679 17.491 82.7464 17.4902H144.152C144.63 17.4919 145.088 17.6817 145.426 18.0187C145.765 18.3556 145.957 18.8124 145.962 19.2901V105.605C145.962 106.085 145.771 106.546 145.432 106.887C145.093 107.227 144.633 107.419 144.152 107.421ZM82.7464 17.5538C82.2862 17.5547 81.8451 17.7379 81.5196 18.0633C81.1942 18.3887 81.011 18.8299 81.0102 19.2901V105.605C81.011 106.065 81.1942 106.506 81.5196 106.832C81.8451 107.157 82.2862 107.34 82.7464 107.341H144.152C144.612 107.34 145.054 107.157 145.379 106.832C145.704 106.506 145.888 106.065 145.889 105.605V19.2901C145.888 18.8299 145.704 18.3887 145.379 18.0633C145.054 17.7379 144.612 17.5547 144.152 17.5538H82.7464Z" fill="#E6E6E6"/>
<path d="M82.9854 23.4307H18.6699V69.264H82.9854V23.4307Z" fill="#FAFAFA"/>
<path d="M84.1749 23.4307H19.2266V69.264H84.1749V23.4307Z" fill="#F5F5F5"/>
<path d="M82.5078 67.3913V25.3008L20.8921 25.3008V67.3913H82.5078Z" fill="#FAFAFA"/>
<path d="M32.1113 67.3913L41.8866 25.3008H54.702L44.9267 67.3913H32.1113Z" fill="white"/>
<path d="M47 67.3913L56.7785 25.3008H62.5661L52.7876 67.3913H47Z" fill="white"/>
<path d="M82.5078 67.3913V25.3008H82.2948V67.3913H82.5078Z" fill="#FAFAFA"/>
<path d="M17.4199 23.3539V41.518H22.2249C22.2249 41.518 30.8459 35.8863 32.8207 24.3015C32.8685 24.0241 32.855 23.7395 32.7811 23.4678C32.7071 23.1962 32.5745 22.944 32.3927 22.7291C32.2108 22.5142 31.984 22.3417 31.7283 22.2238C31.4726 22.106 31.1942 22.0456 30.9127 22.0469H18.7269C18.3803 22.0469 18.0478 22.1846 17.8027 22.4297C17.5576 22.6748 17.4199 23.0072 17.4199 23.3539Z" fill="#E0E0E0"/>
<path d="M17.4199 74.8702V42.9844H22.2249C22.2249 42.9844 31.978 61.7623 33.1069 74.8702H17.4199Z" fill="#E0E0E0"/>
<path d="M22.0856 41.5186H17.5954C17.3302 41.5186 17.1152 41.7335 17.1152 41.9987V42.5044C17.1152 42.7696 17.3302 42.9845 17.5954 42.9845H22.0856C22.3508 42.9845 22.5658 42.7696 22.5658 42.5044V41.9987C22.5658 41.7335 22.3508 41.5186 22.0856 41.5186Z" fill="#F5F5F5"/>
<path d="M85.5422 23.3539V41.518H80.7277C80.7277 41.518 72.094 35.8862 70.1319 24.3015C70.0847 24.0241 70.0986 23.7398 70.1728 23.4683C70.2469 23.1969 70.3795 22.945 70.5613 22.7302C70.7431 22.5154 70.9696 22.343 71.225 22.2249C71.4804 22.1069 71.7586 22.0461 72.0399 22.0469H84.2384C84.5842 22.0486 84.9154 22.1869 85.1596 22.4317C85.4039 22.6766 85.5414 23.008 85.5422 23.3539Z" fill="#E0E0E0"/>
<path d="M85.5422 74.8702V42.9844H80.7277C80.7277 42.9844 70.9778 61.7623 69.8457 74.8702H85.5422Z" fill="#E0E0E0"/>
<path d="M80.8676 42.9814H85.3577C85.6229 42.9814 85.8379 42.7665 85.8379 42.5013V41.9956C85.8379 41.7304 85.6229 41.5155 85.3577 41.5155H80.8676C80.6024 41.5155 80.3874 41.7304 80.3874 41.9956V42.5013C80.3874 42.7665 80.6024 42.9814 80.8676 42.9814Z" fill="#F5F5F5"/>
<path d="M84.0886 80.6641H73.5215V121.603H84.0886V80.6641Z" fill="#FAFAFA"/>
<path d="M81.2679 121.604H84.0886V116.875H78.3105L81.2679 121.604Z" fill="#F4F8FF"/>
<path d="M33.533 80.6641H22.9658V121.603H33.533V80.6641Z" fill="#E0E0E0"/>
<path d="M84.0892 80.6641H31.0723V119.975H84.0892V80.6641Z" fill="#FAFAFA"/>
<path d="M47 73.7129C47 77.5289 50.6761 80.6644 55.1726 80.6644H59.2303C63.7236 80.6644 67.3997 77.5353 67.3997 73.7129H47Z" fill="#EBEBEB"/>
<path d="M44.6476 64.9775H52.2796C52.2796 64.9775 50.9535 68.4755 50.9535 70.5362C50.9535 72.5968 56.7602 80.6645 48.4636 80.6645C40.167 80.6645 45.9737 72.5936 45.9737 70.5362C45.9737 68.4787 44.6476 64.9775 44.6476 64.9775Z" fill="#E0E0E0"/>
<path d="M81.901 83.0586H33.2598V92.9706H81.901V83.0586Z" fill="#EBEBEB"/>
<path d="M33.8929 121.604H31.0723V116.875H36.8535L33.8929 121.604Z" fill="#FAFAFA"/>
<path d="M56.0859 88.0131C56.0859 88.3088 56.1736 88.5977 56.3378 88.8435C56.5021 89.0893 56.7355 89.2809 57.0086 89.394C57.2817 89.5071 57.5822 89.5367 57.8721 89.479C58.162 89.4214 58.4284 89.279 58.6374 89.07C58.8464 88.861 58.9888 88.5947 59.0464 88.3047C59.1041 88.0148 59.0745 87.7143 58.9614 87.4412C58.8482 87.1681 58.6567 86.9347 58.4109 86.7704C58.1651 86.6062 57.8761 86.5186 57.5805 86.5186C57.1841 86.5186 56.804 86.676 56.5237 86.9563C56.2434 87.2366 56.0859 87.6168 56.0859 88.0131Z" fill="#FAFAFA"/>
<path d="M81.901 95.3652H33.2598V105.277H81.901V95.3652Z" fill="#EBEBEB"/>
<path d="M56.0859 100.32C56.0859 100.615 56.1736 100.904 56.3378 101.15C56.5021 101.396 56.7355 101.588 57.0086 101.701C57.2817 101.814 57.5822 101.843 57.8721 101.786C58.162 101.728 58.4284 101.586 58.6374 101.377C58.8464 101.168 58.9888 100.901 59.0464 100.611C59.1041 100.321 59.0745 100.021 58.9614 99.7478C58.8482 99.4747 58.6567 99.2413 58.4109 99.0771C58.1651 98.9129 57.8761 98.8252 57.5805 98.8252C57.1841 98.8252 56.804 98.9827 56.5237 99.263C56.2434 99.5433 56.0859 99.9234 56.0859 100.32Z" fill="#FAFAFA"/>
<path d="M81.901 107.669H33.2598V117.581H81.901V107.669Z" fill="#EBEBEB"/>
<path d="M57.5805 114.121C58.406 114.121 59.0751 113.452 59.0751 112.626C59.0751 111.801 58.406 111.132 57.5805 111.132C56.7551 111.132 56.0859 111.801 56.0859 112.626C56.0859 113.452 56.7551 114.121 57.5805 114.121Z" fill="#FAFAFA"/>
<path d="M117.622 22.877H94.0166V39.6801H117.622V22.877Z" fill="#E0E0E0"/>
<path d="M119.549 22.877H95.3584V39.6801H119.549V22.877Z" fill="#F5F5F5"/>
<path d="M118.007 38.1384V24.4199H96.9012V38.1384H118.007Z" fill="white"/>
<path d="M114.292 34.1403V28.4131H100.615V34.1403H114.292Z" fill="#F5F5F5"/>
<path d="M136.772 31.2783H122.404V46.3452H136.772V31.2783Z" fill="#E0E0E0"/>
<path d="M138.706 31.2783H123.75V46.3452H138.706V31.2783Z" fill="#F5F5F5"/>
<path d="M137.163 44.8035V32.8213H125.292V44.8035H137.163Z" fill="white"/>
<path d="M129.006 38.8125C129.006 38.2834 129.216 37.7759 129.59 37.4015C129.963 37.027 130.471 36.8163 131 36.8154H131.451C131.98 36.8163 132.488 37.027 132.861 37.4015C133.235 37.7759 133.445 38.2834 133.445 38.8125C133.445 39.3413 133.235 39.8484 132.861 40.2223C132.487 40.5963 131.98 40.8063 131.451 40.8063H131.016C130.752 40.8084 130.491 40.7584 130.248 40.6591C130.004 40.5599 129.782 40.4133 129.595 40.228C129.409 40.0426 129.26 39.8221 129.159 39.5792C129.058 39.3362 129.006 39.0757 129.006 38.8125Z" fill="#F5F5F5"/>
<path d="M159 51.4688H121.062H114.165V60.236H107.267V69.0033H100.37V77.7705H93.4725V86.5378H86.5751V95.3019H79.6777V104.069H72.7802V112.836H65.8828V121.604H72.7802H159V51.4688Z" fill="#FAFAFA"/>
<path d="M104.488 112.836H65.1738V115.466H104.488V112.836Z" fill="#EBEBEB"/>
<path d="M111.386 104.069H72.0713V106.699H111.386V104.069Z" fill="#EBEBEB"/>
<path d="M118.283 95.3018H78.9688V97.9316H118.283V95.3018Z" fill="#EBEBEB"/>
<path d="M125.181 86.5342H85.8662V89.164H125.181V86.5342Z" fill="#EBEBEB"/>
<path d="M132.078 77.7705H92.7637V80.4004H132.078V77.7705Z" fill="#EBEBEB"/>
<path d="M138.975 69.0029H99.6611V71.6328H138.975V69.0029Z" fill="#EBEBEB"/>
<path d="M145.873 60.2354H106.559V62.8652H145.873V60.2354Z" fill="#EBEBEB"/>
<path d="M152.77 51.4688H113.456V54.0986H152.77V51.4688Z" fill="#EBEBEB"/>
<path d="M152.102 51.4688V60.236H145.205V69.0033H138.307V77.7705H131.41V86.5378H124.513V95.3019H117.615V104.069H110.718V112.836H103.82V121.604H110.718H159V60.236V51.4688H152.102Z" fill="white"/>
<path d="M79.4998 135.964C113.552 135.964 141.157 134.352 141.157 132.364C141.157 130.376 113.552 128.765 79.4998 128.765C45.4476 128.765 17.8428 130.376 17.8428 132.364C17.8428 134.352 45.4476 135.964 79.4998 135.964Z" fill="#F5F5F5"/>
<path d="M116.117 51.5157C116.562 53.0071 118.858 55.7991 119.04 57.8311C119.221 59.8632 115.306 63.1131 115.306 63.1131C115.306 63.1131 112.381 53.3314 114.212 52.1898C116.044 51.0482 116.117 51.5157 116.117 51.5157Z" fill="#263238"/>
<path d="M108.078 62.0829C107.385 62.6616 106.705 63.1482 105.995 63.6474C105.286 64.1467 104.555 64.6014 103.811 65.0276C103.064 65.4694 102.294 65.8717 101.505 66.2328C101.105 66.414 100.707 66.5921 100.294 66.7479C100.09 66.8306 99.8835 66.9101 99.6736 66.9801L99.0376 67.2027C98.4938 67.3547 97.9249 67.3958 97.3649 67.3235C96.8968 67.2688 96.4334 67.1795 95.9784 67.0564C95.1304 66.8217 94.3004 66.5263 93.4948 66.1724C91.9311 65.4896 90.4224 64.6869 88.9824 63.7715L89.5771 62.6648C90.3276 62.9828 91.0971 63.3008 91.8603 63.5775C92.6235 63.8541 93.3931 64.1467 94.1626 64.3852C94.9129 64.6311 95.6775 64.8307 96.4522 64.983C96.8079 65.0526 97.1682 65.0962 97.5303 65.1134C97.8002 65.1343 98.0717 65.1063 98.3316 65.0307C99.0572 64.7531 99.7664 64.4346 100.456 64.0767C100.809 63.8923 101.159 63.7047 101.502 63.5012C101.846 63.2976 102.195 63.1005 102.536 62.8906C103.219 62.4677 103.887 62.0193 104.549 61.5582C105.21 61.0971 105.868 60.6042 106.457 60.1367L108.078 62.0829Z" fill="#E58A7B"/>
<path d="M109.757 58.6964C108.968 58.0795 105.706 60.0988 104.717 60.9415L105.439 65.3076C105.439 65.3076 110.129 63.3424 110.409 62.0004C110.705 60.598 110.345 59.167 109.757 58.6964Z" fill="#00AAD3"/>
<path opacity="0.2" d="M109.757 58.6964C108.968 58.0795 105.706 60.0988 104.717 60.9415L105.439 65.3076C105.439 65.3076 110.129 63.3424 110.409 62.0004C110.705 60.598 110.345 59.167 109.757 58.6964Z" fill="black"/>
<path d="M120.731 71.9092L110.829 73.8395C105.712 59.9842 106.825 59.5295 106.825 59.5295C107.545 59.1341 108.288 58.7836 109.051 58.4801L109.185 58.4292C109.821 58.1971 109.948 58.1621 110.794 57.9141C112.25 57.5674 113.608 57.2781 115.29 57.0396L115.608 56.995C115.926 56.9569 116.215 56.9251 116.508 56.8965C116.705 56.8742 116.902 56.8615 117.09 56.8488L117.726 56.8138C118.814 56.7597 119.593 56.7756 119.593 56.7756C119.291 65.4284 119.78 67.912 120.731 71.9092Z" fill="#00AAD3"/>
<path opacity="0.2" d="M120.731 71.9092L110.829 73.8395C105.712 59.9842 106.825 59.5295 106.825 59.5295C107.545 59.1341 108.288 58.7836 109.051 58.4801L109.185 58.4292C109.821 58.1971 109.948 58.1621 110.794 57.9141C112.25 57.5674 113.608 57.2781 115.29 57.0396L115.608 56.995C115.926 56.9569 116.215 56.9251 116.508 56.8965C116.705 56.8742 116.902 56.8615 117.09 56.8488L117.726 56.8138C118.814 56.7597 119.593 56.7756 119.593 56.7756C119.291 65.4284 119.78 67.912 120.731 71.9092Z" fill="black"/>
<path d="M112.976 52.5112C112.34 53.5637 114.645 54.0503 116.01 52.9723C117.1 52.1073 116.843 50.1102 115.908 49.646C114.973 49.1817 112.976 52.5112 112.976 52.5112Z" fill="#00AAD3"/>
<path opacity="0.4" d="M112.976 52.5112C112.34 53.5637 114.645 54.0503 116.01 52.9723C117.1 52.1073 116.843 50.1102 115.908 49.646C114.973 49.1817 112.976 52.5112 112.976 52.5112Z" fill="black"/>
<path d="M122.614 129.257L120.137 129.442L119.23 123.74L121.708 123.556L122.614 129.257Z" fill="#E58A7B"/>
<path d="M140.136 121.288L138.034 122.611L134.291 118.172L136.393 116.846L140.136 121.288Z" fill="#E58A7B"/>
<path d="M119.23 123.74L119.733 126.907L122.175 126.497L121.711 123.559L119.23 123.74Z" fill="#CF6F64"/>
<path d="M136.396 116.849L134.291 118.172L135.843 120.01L137.993 118.741L136.396 116.849Z" fill="#CF6F64"/>
<path d="M110.982 73.8397C110.982 73.8397 110.947 93.4984 112.552 100.901C114.225 108.603 119.145 126.125 119.145 126.125L122.713 125.664C122.713 125.664 119.924 107.964 118.734 100.31C117.44 91.9688 118.235 72.4277 118.235 72.4277L110.982 73.8397Z" fill="#00AAD3"/>
<path opacity="0.7" d="M110.982 73.8397C110.982 73.8397 110.947 93.4984 112.552 100.901C114.225 108.603 119.145 126.125 119.145 126.125L122.713 125.664C122.713 125.664 119.924 107.964 118.734 100.31C117.44 91.9688 118.235 72.4277 118.235 72.4277L110.982 73.8397Z" fill="black"/>
<path opacity="0.5" d="M118.013 81.1411L116.264 79.3984C116.33 86.9509 116.753 90.6811 118.207 94.7451C117.978 90.4489 117.959 85.3673 118.013 81.1411Z" fill="black"/>
<path d="M113.443 73.3306C113.443 73.3306 118.776 89.5773 121.422 98.936C124.214 108.81 134.918 119.73 134.918 119.73L137.99 117.956C137.99 117.956 130.676 107.589 127.986 98.3763C122.516 79.6747 124.764 75.7125 120.729 71.9092L113.443 73.3306Z" fill="#00AAD3"/>
<path opacity="0.7" d="M113.443 73.3306C113.443 73.3306 118.776 89.5773 121.422 98.936C124.214 108.81 134.918 119.73 134.918 119.73L137.99 117.956C137.99 117.956 130.676 107.589 127.986 98.3763C122.516 79.6747 124.764 75.7125 120.729 71.9092L113.443 73.3306Z" fill="black"/>
<path d="M109.252 46.7744C110.67 47.2482 111.958 50.7685 112.012 52.155C112.066 53.5415 107.903 55.4526 107.903 55.4526C107.903 55.4526 106.068 51.0006 106.58 48.1386C106.803 46.8953 109.252 46.7744 109.252 46.7744Z" fill="#263238"/>
<path d="M89.7871 62.7829L88.1048 60.9512L87.5547 63.2471C87.5547 63.2471 88.7504 64.3029 89.7171 63.9404L89.7871 62.7829Z" fill="#E58A7B"/>
<path d="M86.4002 60.4268L85.2236 61.3617L87.5546 63.2474L88.1047 60.9515L86.4002 60.4268Z" fill="#E58A7B"/>
<path d="M137.376 122.137L139.341 120.156C139.375 120.122 139.42 120.102 139.468 120.098C139.516 120.095 139.564 120.108 139.602 120.137L141.392 121.466C141.437 121.501 141.473 121.545 141.499 121.595C141.525 121.645 141.541 121.7 141.544 121.756C141.547 121.812 141.539 121.868 141.518 121.921C141.498 121.973 141.467 122.021 141.427 122.061C140.728 122.738 140.359 123.031 139.494 123.902C138.963 124.44 138.241 125.276 137.506 126.017C136.772 126.758 135.999 126.068 136.234 125.699C137.306 124.023 137.115 123.397 137.188 122.544C137.2 122.39 137.266 122.246 137.376 122.137Z" fill="#263238"/>
<path d="M119.971 129.086H122.763C122.812 129.086 122.86 129.103 122.897 129.134C122.935 129.166 122.961 129.209 122.97 129.258L123.409 131.465C123.418 131.519 123.416 131.575 123.402 131.628C123.388 131.681 123.362 131.731 123.326 131.773C123.291 131.815 123.246 131.849 123.196 131.872C123.146 131.895 123.092 131.907 123.037 131.907C122.06 131.891 121.59 131.833 120.362 131.833C119.608 131.833 118.05 131.91 117.007 131.91C115.964 131.91 115.853 130.879 116.282 130.787C118.19 130.367 118.938 129.792 119.564 129.239C119.678 129.141 119.822 129.087 119.971 129.086Z" fill="#263238"/>
<g style="mix-blend-mode:multiply" opacity="0.27">
<path d="M119.914 61.791L118.388 62.7005L120.149 69.3244C119.765 67.3179 119.936 65.1141 119.914 61.791Z" fill="#00AAD3"/>
</g>
<path d="M111.239 51.4495C112.324 52.3558 113.898 53.6755 115.752 52.1332C117.342 50.8039 118.455 47.3155 115.602 47.1883C114.111 47.1215 111.239 51.4495 111.239 51.4495Z" fill="#263238"/>
<path d="M113.859 52.0693C113.859 53.5703 114.091 56.2765 115.29 57.046C115.29 57.046 115.182 58.5915 112.492 59.113C109.538 59.6886 110.794 57.9205 110.794 57.9205C112.333 57.2209 112.066 56.0316 111.557 54.9631L113.859 52.0693Z" fill="#E58A7B"/>
<path d="M112.922 53.249L111.561 54.963C111.68 55.2108 111.778 55.4682 111.853 55.7326C112.451 55.5227 113.166 54.6832 113.106 54.0249C113.093 53.7571 113.03 53.4941 112.922 53.249Z" fill="#CF6F64"/>
<path d="M114.003 48.6217C114.321 51.0672 114.515 52.0943 113.536 53.573C112.063 55.799 108.991 55.6559 107.945 53.3568C106.991 51.2866 106.635 47.6328 108.81 46.2177C109.288 45.9011 109.84 45.7121 110.412 45.6688C110.984 45.6255 111.557 45.7292 112.078 45.9702C112.598 46.2112 113.048 46.5813 113.385 47.0454C113.722 47.5096 113.935 48.0522 114.003 48.6217Z" fill="#E58A7B"/>
<path d="M109.754 44.3387C108.1 45.5121 111.417 45.8587 111.42 47.56C111.42 48.2628 112.575 50.492 114.216 50.3648L115.806 47.541C117.478 44.838 113.525 41.658 109.754 44.3387Z" fill="#263238"/>
<path d="M109.754 44.3392C106.844 44.1866 105.576 46.5016 105.91 48.5813C107.939 48.0752 110.039 47.9087 112.123 48.0884C116.111 48.4955 109.754 44.3392 109.754 44.3392Z" fill="#263238"/>
<path d="M114.798 50.7301C114.838 51.2048 114.688 51.6761 114.381 52.0403C113.971 52.5205 113.427 52.2374 113.236 51.6682C113.074 51.1531 113.093 50.2849 113.646 50.0115C113.769 49.9549 113.903 49.9297 114.037 49.9381C114.172 49.9465 114.302 49.9882 114.416 50.0596C114.53 50.1309 114.625 50.2295 114.692 50.3466C114.758 50.4637 114.795 50.5955 114.798 50.7301Z" fill="#E58A7B"/>
<path d="M110.47 50.0115C110.508 50.2087 110.435 50.3867 110.307 50.4122C110.18 50.4376 110.043 50.2977 110.005 50.0942C109.967 49.8907 110.04 49.7158 110.167 49.6903C110.295 49.6649 110.431 49.8143 110.47 50.0115Z" fill="#263238"/>
<path d="M108.247 50.4441C108.285 50.6413 108.212 50.8226 108.085 50.848C107.957 50.8734 107.821 50.7335 107.783 50.53C107.744 50.3265 107.818 50.1516 107.945 50.1293C108.072 50.1071 108.209 50.2438 108.247 50.4441Z" fill="#263238"/>
<path d="M108.005 50.1331L107.506 50.0918C107.506 50.0918 107.821 50.413 108.005 50.1331Z" fill="#263238"/>
<path d="M108.902 50.6699C108.813 51.1517 108.659 51.6191 108.444 52.0596C108.558 52.1127 108.683 52.1403 108.808 52.1403C108.934 52.1403 109.059 52.1127 109.173 52.0596L108.902 50.6699Z" fill="#DF5753"/>
<path d="M110.002 52.6958C109.989 52.696 109.976 52.6913 109.965 52.6825C109.955 52.6738 109.948 52.6616 109.945 52.6481C109.944 52.6406 109.944 52.6329 109.946 52.6254C109.947 52.6179 109.951 52.6109 109.955 52.6046C109.959 52.5984 109.965 52.5931 109.972 52.5891C109.978 52.5851 109.985 52.5825 109.993 52.5813C110.239 52.5386 110.471 52.4386 110.671 52.2894C110.871 52.1402 111.033 51.9461 111.144 51.7227C111.147 51.7156 111.151 51.7092 111.157 51.7037C111.162 51.6983 111.169 51.694 111.176 51.691C111.183 51.6881 111.19 51.6865 111.198 51.6865C111.206 51.6865 111.213 51.688 111.22 51.6909C111.228 51.6939 111.234 51.6981 111.239 51.7036C111.245 51.709 111.249 51.7154 111.252 51.7225C111.255 51.7296 111.257 51.7372 111.257 51.7449C111.257 51.7525 111.255 51.7601 111.252 51.7672C111.136 52.01 110.963 52.2211 110.747 52.3828C110.532 52.5444 110.281 52.6518 110.015 52.6958H110.002Z" fill="#263238"/>
<path d="M110.982 49.166C110.953 49.1664 110.925 49.1562 110.902 49.1374C110.795 49.0357 110.666 48.9608 110.524 48.9188C110.383 48.8768 110.234 48.8689 110.088 48.8957C110.056 48.9037 110.022 48.8987 109.994 48.8817C109.966 48.8647 109.945 48.8371 109.937 48.8051C109.929 48.773 109.934 48.7391 109.951 48.7108C109.968 48.6825 109.996 48.6621 110.028 48.654C110.211 48.618 110.401 48.6259 110.58 48.6774C110.76 48.7288 110.925 48.8221 111.061 48.9498C111.083 48.9718 111.095 49.0015 111.095 49.0325C111.095 49.0634 111.083 49.0931 111.061 49.1151C111.053 49.1288 111.041 49.1404 111.027 49.1492C111.013 49.1579 110.998 49.1637 110.982 49.166Z" fill="#263238"/>
<path d="M107.016 49.6076C107.002 49.6109 106.986 49.6109 106.972 49.6076C106.957 49.6017 106.944 49.593 106.933 49.5819C106.922 49.5708 106.913 49.5576 106.907 49.5431C106.901 49.5286 106.898 49.513 106.898 49.4974C106.899 49.4817 106.902 49.4662 106.908 49.4518C106.976 49.2779 107.084 49.1227 107.224 48.9993C107.364 48.876 107.532 48.7879 107.713 48.7427C107.728 48.7395 107.744 48.7394 107.759 48.7425C107.774 48.7457 107.789 48.7519 107.802 48.7608C107.814 48.7698 107.825 48.7812 107.834 48.7945C107.842 48.8078 107.847 48.8226 107.849 48.8381C107.853 48.8531 107.853 48.8687 107.85 48.8838C107.847 48.8989 107.841 48.9133 107.832 48.9261C107.824 48.9388 107.813 48.9497 107.8 48.9581C107.787 48.9665 107.772 48.9722 107.757 48.9748C107.614 49.0138 107.482 49.0855 107.372 49.1843C107.262 49.2831 107.176 49.4063 107.121 49.544C107.111 49.563 107.096 49.579 107.077 49.5901C107.059 49.6013 107.038 49.6074 107.016 49.6076Z" fill="#263238"/>
<path d="M136.638 123.291C136.583 123.29 136.53 123.275 136.482 123.249C136.435 123.222 136.394 123.184 136.364 123.139C136.342 123.112 136.327 123.079 136.32 123.045C136.314 123.01 136.317 122.975 136.329 122.942C136.441 122.643 137.318 122.452 137.417 122.43C137.428 122.428 137.44 122.429 137.451 122.433C137.462 122.438 137.471 122.445 137.477 122.455C137.484 122.464 137.488 122.475 137.488 122.487C137.488 122.498 137.484 122.509 137.477 122.519C137.306 122.802 136.969 123.276 136.654 123.291H136.638ZM137.302 122.576C136.956 122.665 136.498 122.824 136.441 122.983C136.435 122.998 136.434 123.013 136.437 123.029C136.441 123.044 136.448 123.058 136.46 123.069C136.479 123.102 136.507 123.129 136.541 123.147C136.575 123.165 136.612 123.175 136.651 123.174C136.819 123.164 137.058 122.945 137.302 122.576Z" fill="#00AAD3"/>
<path d="M137.159 122.576C136.841 122.576 136.444 122.496 136.326 122.325C136.3 122.286 136.288 122.239 136.292 122.192C136.296 122.145 136.316 122.101 136.348 122.067C136.376 122.032 136.411 122.003 136.451 121.982C136.491 121.961 136.535 121.949 136.58 121.946H136.606C136.962 121.946 137.452 122.426 137.471 122.446C137.478 122.453 137.484 122.462 137.487 122.472C137.489 122.482 137.489 122.493 137.487 122.503C137.484 122.513 137.478 122.522 137.471 122.529C137.464 122.536 137.455 122.541 137.445 122.544C137.352 122.567 137.255 122.577 137.159 122.576ZM136.606 122.064H136.587C136.558 122.065 136.53 122.072 136.505 122.085C136.48 122.099 136.457 122.117 136.44 122.14C136.396 122.201 136.409 122.236 136.424 122.258C136.52 122.404 137.006 122.487 137.305 122.452C137.115 122.258 136.872 122.123 136.606 122.064Z" fill="#00AAD3"/>
<path d="M119.059 129.521C118.845 129.54 118.631 129.487 118.452 129.369C118.409 129.336 118.376 129.292 118.355 129.243C118.334 129.193 118.325 129.139 118.331 129.086C118.331 129.054 118.339 129.022 118.354 128.995C118.37 128.967 118.392 128.943 118.42 128.927C118.712 128.755 119.736 129.264 119.851 129.321C119.862 129.327 119.87 129.336 119.876 129.346C119.882 129.357 119.884 129.369 119.883 129.382C119.881 129.394 119.876 129.405 119.868 129.414C119.86 129.423 119.85 129.429 119.838 129.432C119.582 129.486 119.321 129.516 119.059 129.521ZM118.588 129.006C118.551 129.004 118.514 129.012 118.48 129.029C118.469 129.034 118.461 129.043 118.455 129.054C118.449 129.065 118.447 129.077 118.448 129.089C118.445 129.125 118.451 129.161 118.465 129.194C118.479 129.227 118.5 129.257 118.528 129.28C118.687 129.417 119.097 129.439 119.638 129.35C119.31 129.178 118.955 129.062 118.588 129.006Z" fill="#00AAD3"/>
<path d="M119.825 129.426H119.803C119.485 129.289 118.871 128.748 118.915 128.472C118.915 128.408 118.973 128.325 119.132 128.31H119.179C119.733 128.31 119.876 129.321 119.882 129.365C119.884 129.376 119.882 129.387 119.878 129.397C119.874 129.407 119.868 129.416 119.86 129.423C119.849 129.427 119.837 129.428 119.825 129.426ZM119.189 128.421H119.154C119.052 128.421 119.046 128.469 119.046 128.481C119.02 128.65 119.44 129.073 119.758 129.26C119.694 129.012 119.532 128.427 119.176 128.427L119.189 128.421Z" fill="#00AAD3"/>
<path d="M110.228 49.6998L109.729 49.6553C109.729 49.6553 110.043 49.9796 110.228 49.6998Z" fill="#263238"/>
<path d="M112.413 61.228C107.093 62.4142 108.737 59.196 109.055 58.4869L109.189 58.436C109.825 58.2039 109.952 58.1689 110.798 57.9208C112.274 57.5224 113.776 57.2301 115.294 57.0463L115.612 57.0018C115.93 56.9605 116.219 56.9287 116.512 56.9032C116.709 56.881 116.906 56.8683 117.094 56.8555L117.73 56.8174C117.838 57.3135 118.102 59.9656 112.413 61.228Z" fill="#E58A7B"/>
<path d="M120.763 71.2987L121.383 72.1001C121.431 72.1605 121.364 72.2464 121.25 72.2686L110.864 74.2911C110.775 74.3102 110.692 74.2911 110.676 74.2243L110.412 73.3562C110.412 73.2958 110.463 73.229 110.558 73.2099L120.588 71.2574C120.618 71.2485 120.65 71.2476 120.681 71.2549C120.712 71.2621 120.74 71.2772 120.763 71.2987Z" fill="#26395A"/>
<path d="M119.635 72.682L119.905 72.6311C119.959 72.6311 119.994 72.5866 119.985 72.5516L119.635 71.4259C119.635 71.3909 119.571 71.375 119.517 71.3846L119.25 71.4354C119.196 71.4354 119.161 71.4831 119.171 71.5149L119.52 72.6438C119.53 72.6756 119.584 72.6947 119.635 72.682Z" fill="#00AAD3"/>
<path d="M113.551 76.4346L111.48 75.665L111.798 77.6335C111.798 77.6335 113.299 78.1741 114.066 77.4808L113.551 76.4346Z" fill="#E58A7B"/>
<path d="M109.509 76.1866L109.017 77.4776L111.799 77.6335L111.481 75.665L109.509 76.1866Z" fill="#E58A7B"/>
<path d="M111.637 74.2406L111.907 74.1897C111.958 74.1897 111.996 74.1452 111.983 74.1102L111.634 72.9845C111.634 72.9495 111.573 72.9336 111.519 72.9432L111.249 72.994C111.195 72.994 111.16 73.0417 111.173 73.0735L111.522 74.2024C111.532 74.2342 111.583 74.2533 111.637 74.2406Z" fill="#00AAD3"/>
<path d="M115.637 73.4584L115.904 73.4075C115.958 73.4075 115.993 73.363 115.984 73.328L115.634 72.2023C115.634 72.1673 115.57 72.1514 115.516 72.1609L115.249 72.2118C115.195 72.2118 115.16 72.2595 115.17 72.2913L115.519 73.4202C115.532 73.4386 115.55 73.4523 115.572 73.4592C115.593 73.4661 115.616 73.4658 115.637 73.4584Z" fill="#00AAD3"/>
<path d="M114.505 55.7838C114.731 55.698 115.014 56.493 114.944 56.5947C114.782 56.8269 111.811 57.6378 111.678 57.183C111.67 56.9365 111.707 56.6906 111.789 56.458C111.875 56.3053 112.533 56.5852 114.505 55.7838Z" fill="#00AAD3"/>
<path d="M114.002 55.8023C114.117 55.5384 114.444 55.1154 114.73 55.3571C115.017 55.5988 115.137 56.1203 114.95 56.2062C114.762 56.292 113.805 56.2443 114.002 55.8023Z" fill="#00AAD3"/>
<path d="M114.61 55.9396C114.807 55.7297 115.246 55.4404 115.447 55.7647C115.647 56.0891 115.574 56.6201 115.37 56.636C115.167 56.6519 114.276 56.2862 114.61 55.9396Z" fill="#00AAD3"/>
<path d="M114.718 55.8913C114.702 55.7222 114.735 55.5521 114.813 55.4015C114.892 55.2509 115.012 55.1261 115.16 55.0422C115.522 54.8069 115.875 54.6543 116.015 54.4062C116.076 54.6388 116.087 54.8812 116.05 55.1186C115.977 55.4588 114.848 55.7196 114.924 56.0153L114.718 55.8913Z" fill="#00AAD3"/>
<path d="M114.671 55.8759C114.566 55.7424 114.501 55.5813 114.485 55.412C114.469 55.2427 114.503 55.0725 114.582 54.9219C114.754 54.5275 114.97 54.2095 114.957 53.9297C115.134 54.0924 115.275 54.2893 115.374 54.5084C115.494 54.8264 114.69 55.6628 114.916 55.8727L114.671 55.8759Z" fill="#00AAD3"/>
<path d="M136.787 117.997C136.78 117.996 136.774 117.995 136.769 117.991C136.763 117.988 136.758 117.983 136.755 117.978C136.682 117.876 129.413 107.503 126.748 98.3887C125.009 92.5425 123.672 86.5841 122.747 80.5553C122.197 77.159 121.863 75.1079 120.769 73.4257C120.762 73.418 120.758 73.4077 120.758 73.3971C120.758 73.3864 120.762 73.3762 120.769 73.3685C120.777 73.362 120.786 73.3584 120.796 73.3584C120.806 73.3584 120.816 73.362 120.823 73.3685C121.93 75.0666 122.264 77.124 122.814 80.5298C123.743 86.55 125.082 92.4998 126.821 98.3378C129.483 107.439 136.746 117.799 136.819 117.904C136.825 117.912 136.828 117.922 136.828 117.931C136.828 117.941 136.825 117.951 136.819 117.958C136.818 117.967 136.815 117.976 136.809 117.983C136.804 117.99 136.796 117.995 136.787 117.997Z" fill="#00AAD3"/>
<path opacity="0.4" d="M136.787 117.997C136.78 117.996 136.774 117.995 136.769 117.991C136.763 117.988 136.758 117.983 136.755 117.978C136.682 117.876 129.413 107.503 126.748 98.3887C125.009 92.5425 123.672 86.5841 122.747 80.5553C122.197 77.159 121.863 75.1079 120.769 73.4257C120.762 73.418 120.758 73.4077 120.758 73.3971C120.758 73.3864 120.762 73.3762 120.769 73.3685C120.777 73.362 120.786 73.3584 120.796 73.3584C120.806 73.3584 120.816 73.362 120.823 73.3685C121.93 75.0666 122.264 77.124 122.814 80.5298C123.743 86.55 125.082 92.4998 126.821 98.3378C129.483 107.439 136.746 117.799 136.819 117.904C136.825 117.912 136.828 117.922 136.828 117.931C136.828 117.941 136.825 117.951 136.819 117.958C136.818 117.967 136.815 117.976 136.809 117.983C136.804 117.99 136.796 117.995 136.787 117.997Z" fill="black"/>
<path d="M123.352 125.651L118.493 126.281L118.175 124.926L123.234 123.854L123.352 125.651Z" fill="#00AAD3"/>
<path d="M138.247 117.848L134.663 119.918L133.455 118.885L137.376 116.232L138.247 117.848Z" fill="#00AAD3"/>
<path d="M121.427 60.1436C121.599 61.0276 121.698 61.8608 121.793 62.7225C121.889 63.5843 121.924 64.4366 121.949 65.2983C121.974 66.1669 121.955 67.0362 121.892 67.9028C121.857 68.3384 121.819 68.7741 121.758 69.2129C121.733 69.4292 121.704 69.6486 121.663 69.868L121.545 70.5422C121.415 71.0917 121.176 71.6096 120.842 72.0654C120.569 72.4489 120.267 72.8113 119.939 73.1498C119.326 73.7801 118.667 74.3647 117.968 74.8988C116.615 75.9399 115.184 76.8745 113.687 77.694L113.007 76.6382C113.643 76.1326 114.279 75.6111 114.915 75.08C115.551 74.549 116.155 74.0115 116.737 73.4519C117.312 72.9132 117.855 72.3408 118.362 71.7378C118.595 71.4588 118.807 71.1634 118.998 70.8538C119.148 70.6282 119.256 70.3771 119.316 70.1129C119.419 69.3409 119.48 68.5638 119.497 67.7851C119.497 67.3876 119.497 66.9901 119.497 66.5926C119.497 66.1951 119.481 65.7912 119.462 65.3906C119.424 64.5892 119.351 63.8006 119.265 62.9865C119.179 62.1724 119.068 61.3679 118.947 60.6142L121.427 60.1436Z" fill="#E58A7B"/>
<path d="M121.043 57.4403C122.401 58.5406 122.076 61.8096 122.076 61.8096L117.497 63.3169C117.497 63.3169 117.707 59.5486 117.936 58.1939C118.203 56.5817 119.704 56.3559 121.043 57.4403Z" fill="#00AAD3"/>
<path opacity="0.2" d="M121.043 57.4403C122.401 58.5406 122.076 61.8096 122.076 61.8096L117.497 63.3169C117.497 63.3169 117.707 59.5486 117.936 58.1939C118.203 56.5817 119.704 56.3559 121.043 57.4403Z" fill="black"/>
<path d="M60.5501 71.0827C60.3724 70.3116 59.9386 69.6236 59.3194 69.1309C58.7003 68.6383 57.9324 68.3701 57.1411 68.3701H31.7011C30.7734 68.3701 29.8837 68.7387 29.2277 69.3947C28.5717 70.0507 28.2031 70.9404 28.2031 71.8681V128.415C28.2031 129.343 28.5717 130.232 29.2277 130.888C29.8837 131.544 30.7734 131.913 31.7011 131.913H112.473C113.401 131.913 114.291 131.544 114.947 130.888C115.603 130.232 115.971 129.343 115.971 128.415V80.9152C115.971 79.9875 115.603 79.0978 114.947 78.4418C114.291 77.7858 113.401 77.4172 112.473 77.4172H68.5096C66.6619 77.4175 64.8688 76.7912 63.423 75.6407C61.9773 74.4901 60.9645 72.8833 60.5501 71.0827Z" fill="#00AAD3"/>
<path opacity="0.6" d="M60.5501 71.0827C60.3724 70.3116 59.9386 69.6236 59.3194 69.1309C58.7003 68.6383 57.9324 68.3701 57.1411 68.3701H31.7011C30.7734 68.3701 29.8837 68.7387 29.2277 69.3947C28.5717 70.0507 28.2031 70.9404 28.2031 71.8681V128.415C28.2031 129.343 28.5717 130.232 29.2277 130.888C29.8837 131.544 30.7734 131.913 31.7011 131.913H112.473C113.401 131.913 114.291 131.544 114.947 130.888C115.603 130.232 115.971 129.343 115.971 128.415V80.9152C115.971 79.9875 115.603 79.0978 114.947 78.4418C114.291 77.7858 113.401 77.4172 112.473 77.4172H68.5096C66.6619 77.4175 64.8688 76.7912 63.423 75.6407C61.9773 74.4901 60.9645 72.8833 60.5501 71.0827Z" fill="black"/>
<path opacity="0.22" d="M51.5693 53.4717L53.8367 60.8143C54.1261 61.7488 54.7746 62.5302 55.6398 62.9869C56.5049 63.4437 57.516 63.5383 58.4509 63.2502L65.7903 60.9828L51.5693 53.4717Z" fill="#00AAD3"/>
<path d="M51.5697 53.4717L25.3347 61.5775C24.8716 61.7198 24.4411 61.952 24.0678 62.2608C23.6944 62.5696 23.3857 62.949 23.1592 63.3773C22.9326 63.8056 22.7927 64.2743 22.7475 64.7567C22.7023 65.239 22.7527 65.7256 22.8957 66.1885L37.8735 114.677C38.0164 115.14 38.2492 115.57 38.5584 115.943C38.8677 116.316 39.2474 116.625 39.6759 116.851C40.1044 117.077 40.5733 117.217 41.0557 117.262C41.5382 117.307 42.0247 117.256 42.4876 117.113L76.0653 106.74C76.5281 106.597 76.9583 106.365 77.3313 106.056C77.7042 105.747 78.0126 105.367 78.2388 104.939C78.4651 104.511 78.6047 104.042 78.6497 103.56C78.6947 103.078 78.6442 102.592 78.5011 102.129L65.7811 60.9828L51.5697 53.4717Z" fill="#00AAD3"/>
<path opacity="0.8" d="M51.5697 53.4717L25.3347 61.5775C24.8716 61.7198 24.4411 61.952 24.0678 62.2608C23.6944 62.5696 23.3857 62.949 23.1592 63.3773C22.9326 63.8056 22.7927 64.2743 22.7475 64.7567C22.7023 65.239 22.7527 65.7256 22.8957 66.1885L37.8735 114.677C38.0164 115.14 38.2492 115.57 38.5584 115.943C38.8677 116.316 39.2474 116.625 39.6759 116.851C40.1044 117.077 40.5733 117.217 41.0557 117.262C41.5382 117.307 42.0247 117.256 42.4876 117.113L76.0653 106.74C76.5281 106.597 76.9583 106.365 77.3313 106.056C77.7042 105.747 78.0126 105.367 78.2388 104.939C78.4651 104.511 78.6047 104.042 78.6497 103.56C78.6947 103.078 78.6442 102.592 78.5011 102.129L65.7811 60.9828L51.5697 53.4717Z" fill="white"/>
<g opacity="0.28">
<path d="M65.6861 104.622L43.8586 111.363C43.4504 111.489 43.0092 111.447 42.6314 111.248C42.2536 111.049 41.9699 110.709 41.8425 110.301C41.7182 109.893 41.7605 109.452 41.9601 109.075C42.1597 108.698 42.5004 108.415 42.9078 108.288L64.7353 101.544C65.1439 101.418 65.5855 101.46 65.9634 101.66C66.3413 101.859 66.6247 102.201 66.7514 102.609C66.8757 103.017 66.8334 103.458 66.6338 103.835C66.4343 104.212 66.0936 104.495 65.6861 104.622Z" fill="#00AAD3"/>
</g>
<g opacity="0.28">
<path d="M42.1951 65.0565L30.6517 68.6213C30.2435 68.7458 29.8026 68.704 29.425 68.5051C29.0475 68.3062 28.7637 67.9662 28.6356 67.5591C28.5112 67.1505 28.5534 66.7093 28.7529 66.3317C28.9525 65.954 29.2932 65.6705 29.7009 65.543L41.2443 61.9782C41.6525 61.852 42.0941 61.8929 42.4721 62.0921C42.8502 62.2912 43.1337 62.6323 43.2604 63.0404C43.3848 63.449 43.3426 63.8902 43.143 64.2679C42.9435 64.6455 42.6027 64.929 42.1951 65.0565Z" fill="#00AAD3"/>
</g>
<g opacity="0.28">
<path d="M51.6147 68.8369L32.5347 74.7295C32.1274 74.8518 31.6882 74.8086 31.3125 74.6091C30.9369 74.4097 30.655 74.0701 30.5281 73.6642C30.4028 73.2564 30.4443 72.8156 30.6434 72.4383C30.8424 72.061 31.1829 71.778 31.5902 71.6512L50.6702 65.7587C51.0785 65.6333 51.5197 65.6747 51.8975 65.8737C52.2753 66.0727 52.5589 66.4133 52.6864 66.8208C52.8096 67.2303 52.7661 67.6718 52.5654 68.0494C52.3647 68.427 52.023 68.71 51.6147 68.8369Z" fill="#00AAD3"/>
</g>
<g opacity="0.28">
<path d="M62.2673 72.2364L34.4232 80.8224C34.0154 80.9477 33.5746 80.9063 33.1973 80.7072C32.82 80.5081 32.537 80.1677 32.4103 79.7603C32.2858 79.3521 32.3275 78.9113 32.5264 78.5337C32.7253 78.1561 33.0653 77.8724 33.4724 77.7442L61.3165 69.1582C61.7242 69.0338 62.1647 69.0756 62.5417 69.2746C62.9188 69.4735 63.2019 69.8135 63.3294 70.2203C63.4548 70.6285 63.4134 71.0698 63.2144 71.4476C63.0154 71.8254 62.6748 72.109 62.2673 72.2364Z" fill="#00AAD3"/>
</g>
<g opacity="0.28">
<path d="M64.1532 78.3419L47.967 83.3441C47.5588 83.4684 47.1181 83.4261 46.7409 83.2265C46.3638 83.0269 46.0809 82.6862 45.9541 82.2788C45.8297 81.871 45.8715 81.4306 46.0705 81.0535C46.2694 80.6764 46.6094 80.3933 47.0162 80.2658L63.2024 75.2637C63.611 75.1402 64.0519 75.1828 64.4293 75.3822C64.8067 75.5816 65.0903 75.9218 65.2185 76.329C65.3428 76.7372 65.3005 77.178 65.101 77.5551C64.9014 77.9323 64.5607 78.2151 64.1532 78.3419Z" fill="#00AAD3"/>
</g>
<g opacity="0.28">
<path d="M40.5442 85.6369L36.3117 86.9439C35.9035 87.0693 35.4622 87.0279 35.0844 86.8289C34.7066 86.6299 34.423 86.2894 34.2955 85.8818C34.1703 85.4732 34.2121 85.0316 34.4117 84.6537C34.6114 84.2758 34.9527 83.9925 35.3608 83.8657L39.5934 82.5587C40.0016 82.4342 40.4425 82.4759 40.8201 82.6749C41.1976 82.8738 41.4814 83.2137 41.6095 83.6208C41.733 84.0294 41.6905 84.4703 41.491 84.8477C41.2916 85.2251 40.9514 85.5087 40.5442 85.6369Z" fill="#00AAD3"/>
</g>
<g opacity="0.28">
<path d="M66.0424 84.4513L38.1983 93.0532C37.7901 93.1775 37.3493 93.1352 36.9722 92.9356C36.595 92.736 36.3122 92.3953 36.1854 91.9879C36.0601 91.5801 36.1015 91.1393 36.3006 90.762C36.4997 90.3847 36.8401 90.1017 37.2475 89.9749L65.0916 81.373C65.4993 81.2486 65.9398 81.2905 66.3168 81.4894C66.6939 81.6884 66.977 82.0283 67.1045 82.4352C67.2299 82.8434 67.1885 83.2846 66.9895 83.6624C66.7905 84.0402 66.4499 84.3238 66.0424 84.4513Z" fill="#00AAD3"/>
</g>
<g opacity="0.28">
<path d="M57.1822 93.8769L40.0834 99.1589C39.6756 99.2833 39.2351 99.2414 38.8581 99.0425C38.481 98.8435 38.1979 98.5036 38.0704 98.0968C37.9459 97.6886 37.9877 97.2477 38.1866 96.8701C38.3855 96.4925 38.7255 96.2088 39.1325 96.0806L56.2314 90.7987C56.64 90.6743 57.0812 90.7165 57.4589 90.916C57.8365 91.1156 58.12 91.4563 58.2475 91.864C58.3727 92.2722 58.3308 92.7133 58.1311 93.0907C57.9314 93.4681 57.5901 93.7508 57.1822 93.8769Z" fill="#00AAD3"/>
</g>
<g opacity="0.28">
<path d="M67.9278 90.5595L63.3645 91.9682C62.9559 92.0926 62.5146 92.0504 62.137 91.8509C61.7593 91.6513 61.4759 91.3106 61.3484 90.9029C61.2241 90.4947 61.2664 90.0539 61.4659 89.6768C61.6655 89.2997 62.0062 89.0168 62.4137 88.89L66.977 87.4813C67.3847 87.356 67.8255 87.3974 68.2028 87.5965C68.5801 87.7956 68.8631 88.136 68.9899 88.5434C69.1153 88.9516 69.0739 89.3928 68.8749 89.7706C68.6759 90.1484 68.3353 90.4321 67.9278 90.5595Z" fill="#00AAD3"/>
</g>
<g opacity="0.28">
<path d="M69.8133 96.6713L41.9756 105.257C41.567 105.383 41.1254 105.341 40.7475 105.141C40.3696 104.941 40.0863 104.6 39.9595 104.192C39.8343 103.784 39.8762 103.343 40.0759 102.965C40.2756 102.588 40.6169 102.305 41.0248 102.179L68.8657 93.5772C69.2743 93.4537 69.7152 93.4963 70.0926 93.6957C70.47 93.8951 70.7536 94.2353 70.8818 94.6425C70.9457 94.8458 70.9687 95.0598 70.9495 95.2721C70.9303 95.4844 70.8693 95.6908 70.77 95.8793C70.6706 96.0679 70.535 96.235 70.3708 96.3709C70.2066 96.5069 70.0171 96.6089 69.8133 96.6713Z" fill="#00AAD3"/>
</g>
<path d="M70.411 35.2376L78.7362 53.7897C78.9523 54.274 78.968 54.8241 78.7797 55.3199C78.5914 55.8157 78.2145 56.2167 77.7313 56.4354L42.4143 72.2877C41.9301 72.5047 41.3796 72.5208 40.8836 72.3324C40.3876 72.144 39.9865 71.7666 39.7685 71.2829L31.4401 52.7307C31.2221 52.2462 31.2055 51.6949 31.3939 51.1982C31.5824 50.7014 31.9604 50.2998 32.4449 50.0818L67.762 34.2295C68.2472 34.0134 68.7981 33.9982 69.2945 34.1871C69.7908 34.376 70.1922 34.7536 70.411 35.2376Z" fill="#00AAD3"/>
<path opacity="0.3" d="M70.411 35.2376L78.7362 53.7897C78.9523 54.274 78.968 54.8241 78.7797 55.3199C78.5914 55.8157 78.2145 56.2167 77.7313 56.4354L42.4143 72.2877C41.9301 72.5047 41.3796 72.5208 40.8836 72.3324C40.3876 72.144 39.9865 71.7666 39.7685 71.2829L31.4401 52.7307C31.2221 52.2462 31.2055 51.6949 31.3939 51.1982C31.5824 50.7014 31.9604 50.2998 32.4449 50.0818L67.762 34.2295C68.2472 34.0134 68.7981 33.9982 69.2945 34.1871C69.7908 34.376 70.1922 34.7536 70.411 35.2376Z" fill="black"/>
<path d="M64.8455 34.3209L63.7168 34.8271L63.8469 35.1173L64.9756 34.611L64.8455 34.3209Z" fill="#00AAD3"/>
<path d="M62.1357 35.5345L58.6162 37.1133L58.7464 37.4034L62.2658 35.8247L62.1357 35.5345Z" fill="#00AAD3"/>
<path d="M31.4092 54.6002L31.1191 54.7305L32.083 56.8772L32.3731 56.747L31.4092 54.6002Z" fill="#00AAD3"/>
<path opacity="0.6" d="M69.2279 34.1624L60.1204 52.0022C59.2753 53.6558 57.8913 54.9714 56.1971 55.7318C54.503 56.4921 52.6001 56.6516 50.803 56.1839L31.4209 51.1309C31.6197 50.6659 31.9848 50.2917 32.4449 50.0815L67.7619 34.2292C68.2246 34.0223 68.7484 33.9985 69.2279 34.1624Z" fill="#00AAD3"/>
<path d="M81.7482 56.9951L54.343 58.6869C53.8588 58.7157 53.3851 58.8396 52.9489 59.0517C52.5127 59.2638 52.1226 59.5598 51.801 59.9228C51.4793 60.2858 51.2324 60.7087 51.0744 61.1672C50.9163 61.6258 50.8503 62.111 50.88 62.5951L54.0059 113.246C54.0351 113.731 54.1595 114.205 54.3722 114.641C54.5849 115.077 54.8815 115.467 55.2452 115.788C55.6088 116.11 56.0323 116.356 56.4914 116.514C56.9505 116.671 57.4361 116.737 57.9205 116.706L92.9959 114.54C93.4795 114.511 93.9526 114.387 94.3881 114.175C94.8236 113.962 95.2129 113.666 95.5337 113.303C95.8546 112.94 96.1006 112.517 96.2577 112.059C96.4148 111.601 96.48 111.116 96.4494 110.632L93.81 67.6481L81.7482 56.9951Z" fill="#00AAD3"/>
<path opacity="0.8" d="M81.7482 56.9951L54.343 58.6869C53.8588 58.7157 53.3851 58.8396 52.9489 59.0517C52.5127 59.2638 52.1226 59.5598 51.801 59.9228C51.4793 60.2858 51.2324 60.7087 51.0744 61.1672C50.9163 61.6258 50.8503 62.111 50.88 62.5951L54.0059 113.246C54.0351 113.731 54.1595 114.205 54.3722 114.641C54.5849 115.077 54.8815 115.467 55.2452 115.788C55.6088 116.11 56.0323 116.356 56.4914 116.514C56.9505 116.671 57.4361 116.737 57.9205 116.706L92.9959 114.54C93.4795 114.511 93.9526 114.387 94.3881 114.175C94.8236 113.962 95.2129 113.666 95.5337 113.303C95.8546 112.94 96.1006 112.517 96.2577 112.059C96.4148 111.601 96.48 111.116 96.4494 110.632L93.81 67.6481L81.7482 56.9951Z" fill="white"/>
<g opacity="0.22">
<path d="M83.4045 110.027L60.6007 111.436C60.1747 111.46 59.7563 111.315 59.437 111.032C59.1176 110.749 58.9232 110.351 58.8962 109.926C58.8718 109.5 59.0164 109.082 59.2987 108.762C59.5809 108.442 59.978 108.247 60.4035 108.218L83.2073 106.812C83.6333 106.787 84.052 106.931 84.372 107.214C84.692 107.496 84.8872 107.894 84.915 108.32C84.9402 108.746 84.7955 109.165 84.5124 109.485C84.2293 109.806 83.8309 110 83.4045 110.027Z" fill="#00AAD3"/>
</g>
<g opacity="0.22">
<path d="M69.9088 66.0416L57.847 66.7793C57.4212 66.8037 57.003 66.6591 56.6832 66.3769C56.3634 66.0946 56.168 65.6975 56.1394 65.272C56.115 64.8457 56.26 64.427 56.543 64.1071C56.8259 63.7873 57.2237 63.5922 57.6499 63.5643L69.7116 62.8202C70.1373 62.795 70.5557 62.9394 70.8751 63.2219C71.1946 63.5044 71.3891 63.9019 71.4161 64.3275C71.4431 64.7546 71.2996 65.175 71.017 65.4963C70.7344 65.8177 70.3358 66.0138 69.9088 66.0416Z" fill="#00AAD3"/>
</g>
<g opacity="0.22">
<path d="M78.1708 71.9377L58.2417 73.1652C57.8155 73.1913 57.3963 73.0473 57.0762 72.7647C56.756 72.4821 56.5611 72.0841 56.5341 71.6579C56.5088 71.2313 56.6536 70.8122 56.9367 70.4921C57.2198 70.1721 57.6181 69.9772 58.0446 69.9502L77.9705 68.7227C78.3967 68.6966 78.8159 68.8407 79.136 69.1233C79.4562 69.4058 79.6511 69.8039 79.6781 70.2301C79.7034 70.6561 79.559 71.0748 79.2766 71.3948C78.9942 71.7147 78.5967 71.9099 78.1708 71.9377Z" fill="#00AAD3"/>
</g>
<g opacity="0.22">
<path d="M87.7201 77.754L58.6358 79.5475C58.2084 79.5737 57.7881 79.4294 57.4668 79.1463C57.1456 78.8632 56.9496 78.4643 56.9218 78.037C56.8965 77.6113 57.041 77.193 57.3235 76.8735C57.606 76.5541 58.0035 76.3596 58.4291 76.3325L87.5166 74.5358C87.9426 74.5115 88.3609 74.6566 88.6803 74.9396C88.9996 75.2226 89.194 75.6205 89.221 76.0463C89.2464 76.4713 89.1029 76.8891 88.8218 77.2089C88.5408 77.5287 88.1448 77.7246 87.7201 77.754Z" fill="#00AAD3"/>
</g>
<g opacity="0.22">
<path d="M88.1139 84.133L71.2058 85.1761C70.7798 85.2014 70.3611 85.057 70.0411 84.7746C69.7212 84.4922 69.526 84.0946 69.4981 83.6688C69.472 83.2425 69.6161 82.8234 69.8986 82.5032C70.1812 82.1831 70.5793 81.9881 71.0055 81.9611L87.9135 80.9181C88.3397 80.8919 88.7589 81.036 89.0791 81.3186C89.3992 81.6012 89.5942 81.9992 89.6212 82.4254C89.6464 82.8514 89.5021 83.2701 89.2197 83.5901C88.9373 83.91 88.5397 84.1052 88.1139 84.133Z" fill="#00AAD3"/>
</g>
<g opacity="0.22">
<path d="M63.45 85.6532L59.0267 85.9267C58.601 85.9519 58.1826 85.8075 57.8632 85.525C57.5437 85.2425 57.3492 84.8449 57.3222 84.4193C57.2969 83.9933 57.4412 83.5746 57.7237 83.2547C58.0061 82.9347 58.4036 82.7395 58.8295 82.7117L63.2529 82.4382C63.6792 82.4138 64.0979 82.5589 64.4178 82.8418C64.7376 83.1247 64.9327 83.5226 64.9605 83.9487C64.9849 84.3747 64.8398 84.7931 64.5567 85.1124C64.2737 85.4317 63.8759 85.6262 63.45 85.6532Z" fill="#00AAD3"/>
</g>
<g opacity="0.22">
<path d="M88.5087 90.5118L59.4212 92.3053C58.9952 92.3305 58.5765 92.1862 58.2566 91.9038C57.9366 91.6214 57.7414 91.2238 57.7136 90.798C57.6892 90.3716 57.8342 89.9529 58.1172 89.6331C58.4001 89.3132 58.798 89.1181 59.2241 89.0903L88.3084 87.2968C88.7349 87.2715 89.1541 87.4163 89.4741 87.6994C89.7942 87.9825 89.989 88.3808 90.016 88.8073C90.0413 89.233 89.8968 89.6513 89.6143 89.9708C89.3318 90.2902 88.9343 90.4847 88.5087 90.5118Z" fill="#00AAD3"/>
</g>
<g opacity="0.22">
<path d="M77.6778 97.5848L59.8158 98.6883C59.3894 98.7127 58.9707 98.5676 58.6509 98.2847C58.331 98.0017 58.1359 97.6039 58.1081 97.1778C58.0837 96.7518 58.2289 96.3334 58.5119 96.0141C58.7949 95.6947 59.1928 95.5003 59.6186 95.4733L77.4807 94.3698C77.9067 94.3455 78.325 94.4906 78.6444 94.7736C78.9637 95.0566 79.1581 95.4545 79.1852 95.8803C79.2113 96.3062 79.0671 96.7251 78.7845 97.0447C78.5018 97.3643 78.1037 97.5586 77.6778 97.5848Z" fill="#00AAD3"/>
</g>
<g opacity="0.22">
<path d="M88.8994 96.8948L84.1294 97.1873C83.7037 97.2126 83.2853 97.0681 82.9659 96.7856C82.6464 96.5031 82.4519 96.1056 82.4249 95.68C82.3988 95.2538 82.5428 94.8346 82.8254 94.5144C83.108 94.1943 83.506 93.9993 83.9322 93.9723L88.7022 93.6798C89.1284 93.6537 89.5476 93.7977 89.8678 94.0803C90.1879 94.3629 90.3829 94.7609 90.4099 95.1871C90.4343 95.6134 90.2892 96.0321 90.0063 96.352C89.7234 96.6718 89.3255 96.8669 88.8994 96.8948Z" fill="#00AAD3"/>
</g>
<g opacity="0.22">
<path d="M89.2938 103.273L60.2095 105.067C59.7835 105.092 59.3648 104.948 59.0448 104.666C58.7249 104.383 58.5297 103.986 58.5019 103.56C58.4766 103.134 58.6209 102.715 58.9033 102.395C59.1858 102.075 59.5833 101.88 60.0092 101.852L89.0966 100.058C89.5223 100.033 89.9407 100.178 90.2601 100.46C90.5796 100.743 90.7741 101.14 90.8011 101.566C90.8272 101.992 90.6832 102.411 90.4006 102.731C90.118 103.052 89.72 103.246 89.2938 103.273Z" fill="#00AAD3"/>
</g>
<path opacity="0.22" d="M81.748 56.9951L82.2219 64.6653C82.2514 65.1489 82.376 65.6219 82.5884 66.0574C82.8009 66.4929 83.097 66.8822 83.4599 67.2032C83.8229 67.5242 84.2455 67.7705 84.7036 67.9282C85.1618 68.0858 85.6465 68.1517 86.1301 68.1219L93.8098 67.6481L81.748 56.9951Z" fill="#00AAD3"/>
<path opacity="0.5" d="M72.774 76.1289C72.7692 75.7613 72.6908 75.3984 72.5434 75.0617C72.396 74.7249 72.1825 74.4212 71.9157 74.1683C71.6489 73.9154 71.3342 73.7186 70.99 73.5894C70.6459 73.4603 70.2793 73.4014 69.912 73.4163H44.4402C42.5099 73.4163 40.6242 74.9841 40.2617 76.9143L30.2097 128.414C29.8345 130.345 31.0937 131.912 33.024 131.912H113.796C115.726 131.912 117.596 130.348 117.975 128.414L126.265 85.9614C126.64 84.028 125.381 82.4634 123.45 82.4634H79.4997C75.6837 82.4634 72.9044 79.8367 72.774 76.1289Z" fill="#00AAD3"/>
</svg>
