<svg width="182" height="182" viewBox="0 0 182 182" fill="none" xmlns="http://www.w3.org/2000/svg">
<path d="M33.7137 31.5377L51.8227 68.3927C51.9131 68.5781 51.966 68.7795 51.9783 68.9854C51.9907 69.1913 51.9622 69.3975 51.8945 69.5924C51.8269 69.7872 51.7214 69.9668 51.5841 70.1207C51.4469 70.2746 51.2805 70.3999 51.0947 70.4894C50.9095 70.5792 50.7084 70.6317 50.5029 70.6437C50.2974 70.6558 50.0916 70.6271 49.8972 70.5595C49.7027 70.4919 49.5236 70.3866 49.3699 70.2496C49.2163 70.1127 49.0911 69.9467 49.0017 69.7614L30.9036 32.9209C30.8132 32.7355 30.7603 32.5341 30.7479 32.3283C30.7356 32.1224 30.7641 31.9161 30.8317 31.7213C30.8994 31.5264 31.0049 31.3469 31.1421 31.1929C31.2794 31.039 31.4457 30.9137 31.6316 30.8243C32.0028 30.6462 32.4292 30.6212 32.8187 30.7546C33.2082 30.8881 33.5297 31.1694 33.7137 31.5377Z" fill="#E0E0E0"/>
<path d="M46.5133 58.3473L50.2441 65.9395L52.1422 65.0067L48.4113 57.4145L46.5133 58.3473Z" fill="#E0E0E0"/>
<path d="M46.1766 54.1748C46.2628 54.3473 46.3138 54.5353 46.3268 54.7278C46.3397 54.9202 46.3143 55.1133 46.252 55.2958C46.1897 55.4784 46.0917 55.6467 45.9638 55.7911C45.8359 55.9354 45.6805 56.0529 45.5068 56.1368L42.7004 57.5127C42.5278 57.5989 42.3399 57.6499 42.1474 57.6629C41.955 57.6758 41.7619 57.6504 41.5794 57.5881C41.3968 57.5258 41.2285 57.4278 41.0841 57.2999C40.9398 57.172 40.8223 57.0166 40.7384 56.8429C40.6522 56.6704 40.6012 56.4824 40.5882 56.29C40.5753 56.0975 40.6007 55.9044 40.663 55.7219C40.7254 55.5393 40.8233 55.371 40.9512 55.2266C41.0792 55.0823 41.2345 54.9648 41.4082 54.881L44.2146 53.5014C44.3874 53.4153 44.5756 53.3645 44.7682 53.3518C44.9608 53.3391 45.154 53.3648 45.3365 53.4275C45.5191 53.4902 45.6874 53.5885 45.8316 53.7168C45.9758 53.8451 46.0931 54.0008 46.1766 54.1748Z" fill="#E0E0E0"/>
<path d="M52.2089 66.6089L56.1256 64.6834L55.1064 62.6086L53.1444 63.5695L52.5074 62.2664L54.4657 61.3055L52.7877 57.8875L51.4118 58.5645L50.7711 57.2614L52.147 56.5844L51.1315 54.5205L47.2148 56.4461L52.2089 66.6089Z" fill="#E0E0E0"/>
<path d="M29.0622 32.082L30.6387 35.29L36.1989 32.5577L34.6224 29.3496L29.0622 32.082Z" fill="#E0E0E0"/>
<path d="M23.1289 21.0106C23.1901 21.1363 23.2594 21.2578 23.3363 21.3746C21.9507 22.2243 20.932 23.5605 20.4796 25.1217C20.0272 26.683 20.1736 28.3568 20.8903 29.8157C21.6584 31.3648 23.0077 32.5475 24.6442 33.1059C26.2806 33.6643 28.0714 33.5532 29.6263 32.7969L34.5293 30.3836C35.2987 30.0058 35.9862 29.4801 36.5524 28.8366C37.1187 28.1931 37.5526 27.4443 37.8294 26.6331C38.1062 25.8218 38.2206 24.964 38.1658 24.1086C38.1111 23.2532 37.8884 22.4169 37.5105 21.6476C36.7815 20.1659 35.5179 19.0157 33.9745 18.4287C32.431 17.8418 30.7224 17.8617 29.1931 18.4844C29.1458 18.357 29.0948 18.2296 29.0366 18.1204C28.6504 17.337 27.9689 16.7391 27.1419 16.4582C26.3149 16.1773 25.4101 16.2364 24.6267 16.6226C23.8433 17.0087 23.2454 17.6903 22.9645 18.5173C22.6836 19.3443 22.7427 20.249 23.1289 21.0324V21.0106ZM30.1322 20.774C30.736 20.477 31.4043 20.3356 32.0766 20.3624C32.7488 20.3893 33.4038 20.5836 33.9819 20.9277C34.5601 21.2718 35.0431 21.7549 35.3873 22.333C35.7314 22.9111 35.9257 23.5661 35.9526 24.2384C35.9794 24.9106 35.838 25.579 35.541 26.1827C35.2441 26.7865 34.8011 27.3065 34.2522 27.6956C33.7034 28.0848 33.066 28.3307 32.398 28.4111C31.73 28.4914 31.0526 28.4037 30.4271 28.1559C30.2042 28.9413 29.7485 29.6408 29.1202 30.1622C28.4919 30.6835 27.7204 31.0023 26.9074 31.0765C26.0943 31.1507 25.2778 30.9769 24.5655 30.5779C23.8532 30.1789 23.2785 29.5734 22.9171 28.8413C22.5557 28.1092 22.4246 27.2848 22.541 26.4767C22.6575 25.6686 23.016 24.9147 23.5693 24.3144C24.1227 23.7141 24.845 23.2955 25.6409 23.1138C26.4369 22.9321 27.2692 22.9958 28.0283 23.2965C28.1822 22.7519 28.449 22.2457 28.8116 21.8111C29.1741 21.3765 29.624 21.0231 30.1322 20.774ZM27.3949 18.6773C27.529 18.956 27.5776 19.2681 27.5345 19.5743C27.4914 19.8804 27.3585 20.167 27.1527 20.3978C26.9469 20.6286 26.6774 20.7932 26.3781 20.871C26.0789 20.9487 25.7633 20.9361 25.4711 20.8347C25.179 20.7332 24.9235 20.5476 24.7368 20.3011C24.5501 20.0546 24.4406 19.7583 24.4222 19.4497C24.4037 19.141 24.477 18.8338 24.6329 18.5668C24.7889 18.2998 25.0204 18.0849 25.2983 17.9493C25.673 17.7687 26.104 17.7439 26.497 17.8803C26.8899 18.0168 27.2128 18.3033 27.3949 18.6773Z" fill="#E0E0E0"/>
<path d="M149.822 141.353L159.279 94.9579C159.439 94.17 158.931 93.4011 158.143 93.2405L157.508 93.1111C156.72 92.9505 155.951 93.459 155.79 94.247L146.334 140.642C146.174 141.43 146.682 142.199 147.47 142.36L148.105 142.489C148.893 142.65 149.662 142.141 149.822 141.353Z" fill="#E0E0E0"/>
<path d="M153.518 107.294L155.439 97.8672L153.082 97.3867L151.161 106.813L153.518 107.294Z" fill="#E0E0E0"/>
<path d="M157.597 112.942L157.717 112.35C157.868 111.611 157.391 110.891 156.653 110.74L152.576 109.908C151.838 109.758 151.117 110.234 150.966 110.973L150.845 111.565C150.694 112.304 151.171 113.025 151.91 113.175L155.986 114.007C156.725 114.157 157.446 113.681 157.597 112.942Z" fill="#E0E0E0"/>
<path d="M154.132 95.8961L149.269 94.9023L148.741 97.4795L151.173 97.9781L150.845 99.5943L148.413 99.0993L147.547 103.34L149.254 103.689L148.923 105.305L147.216 104.96L146.695 107.522L151.558 108.512L154.132 95.8961Z" fill="#E0E0E0"/>
<path d="M150.96 143.078L151.772 139.094L144.871 137.687L144.059 141.671L150.96 143.078Z" fill="#E0E0E0"/>
<path d="M148.592 157.154C148.625 156.998 148.647 156.84 148.658 156.681C150.496 156.879 152.342 156.384 153.835 155.294C155.328 154.203 156.361 152.595 156.731 150.784C157.125 148.855 156.735 146.849 155.649 145.206C154.563 143.564 152.869 142.42 150.94 142.026L144.847 140.785C143.892 140.591 142.908 140.586 141.951 140.772C140.994 140.957 140.083 141.33 139.27 141.868C138.457 142.405 137.758 143.098 137.213 143.906C136.668 144.714 136.287 145.621 136.093 146.576C135.716 148.417 136.053 150.332 137.034 151.935C138.015 153.538 139.567 154.708 141.378 155.21C141.33 155.358 141.29 155.507 141.258 155.658C141.16 156.14 141.157 156.636 141.251 157.119C141.344 157.601 141.532 158.06 141.803 158.47C142.074 158.88 142.423 159.233 142.831 159.508C143.238 159.783 143.696 159.975 144.177 160.073C145.15 160.272 146.161 160.076 146.989 159.528C147.817 158.981 148.394 158.127 148.592 157.154ZM142.128 152.495C141.378 152.342 140.679 152.005 140.093 151.513C139.507 151.022 139.053 150.392 138.772 149.68C138.491 148.969 138.392 148.199 138.485 147.439C138.577 146.68 138.857 145.956 139.301 145.332C139.744 144.709 140.336 144.206 141.022 143.869C141.709 143.533 142.469 143.373 143.233 143.404C143.997 143.435 144.742 143.657 145.399 144.049C146.055 144.441 146.604 144.991 146.994 145.648C147.743 145.1 148.639 144.791 149.566 144.763C150.493 144.734 151.407 144.986 152.187 145.486C152.968 145.986 153.579 146.711 153.94 147.565C154.301 148.419 154.395 149.363 154.21 150.272C154.025 151.18 153.569 152.011 152.903 152.656C152.236 153.301 151.39 153.728 150.476 153.883C149.561 154.038 148.622 153.912 147.78 153.523C146.938 153.134 146.234 152.499 145.761 151.701C145.244 152.08 144.654 152.346 144.028 152.483C143.402 152.619 142.755 152.623 142.128 152.495ZM143.132 156.288C143.203 155.943 143.374 155.627 143.624 155.379C143.875 155.131 144.193 154.964 144.538 154.897C144.884 154.83 145.242 154.867 145.566 155.004C145.891 155.14 146.168 155.37 146.362 155.664C146.556 155.957 146.658 156.302 146.656 156.654C146.654 157.006 146.548 157.35 146.351 157.641C146.154 157.933 145.874 158.16 145.548 158.293C145.222 158.426 144.864 158.459 144.519 158.388C144.057 158.293 143.651 158.019 143.391 157.625C143.131 157.231 143.038 156.75 143.132 156.288Z" fill="#E0E0E0"/>
<path d="M146.097 19.5612L142.792 19.5791L142.881 36.0244L146.186 36.0065L146.097 19.5612Z" fill="#E0E0E0"/>
<path d="M122.718 19.6041L114.16 19.6504L114.209 28.7284L122.767 28.6821L122.718 19.6041Z" fill="#EBEBEB"/>
<path d="M131.235 19.5572L122.678 19.6035L122.727 28.6815L131.284 28.6352L131.235 19.5572Z" fill="#F5F5F5"/>
<path d="M114.172 22.1642C119.86 22.2128 125.553 22.1873 131.251 22.0878C131.275 22.0878 131.298 22.0782 131.315 22.0611C131.332 22.0441 131.342 22.0209 131.342 21.9968C131.342 21.9726 131.332 21.9495 131.315 21.9324C131.298 21.9154 131.275 21.9058 131.251 21.9058C125.565 21.873 119.861 21.9058 114.175 22.0077C114.158 22.0116 114.142 22.0215 114.13 22.0357C114.119 22.0499 114.112 22.0677 114.112 22.086C114.112 22.1043 114.119 22.122 114.13 22.1362C114.142 22.1505 114.158 22.1603 114.175 22.1642H114.172Z" fill="#E0E0E0"/>
<path d="M124.375 28.534L108.825 28.6182L108.865 36.0182L124.415 35.934L124.375 28.534Z" fill="#EBEBEB"/>
<path d="M139.852 28.451L124.302 28.5352L124.342 35.9352L139.892 35.851L139.852 28.451Z" fill="#F5F5F5"/>
<path d="M108.836 30.6821C119.166 30.7986 129.533 30.6821 139.863 30.5256C139.887 30.5256 139.91 30.516 139.927 30.4989C139.944 30.4819 139.954 30.4587 139.954 30.4346C139.954 30.4105 139.944 30.3873 139.927 30.3703C139.91 30.3532 139.887 30.3436 139.863 30.3436C129.533 30.289 119.166 30.2963 108.836 30.5256C108.818 30.5295 108.802 30.5394 108.79 30.5536C108.779 30.5678 108.772 30.5856 108.772 30.6039C108.772 30.6221 108.779 30.6399 108.79 30.6541C108.802 30.6684 108.818 30.6782 108.836 30.6821Z" fill="#E0E0E0"/>
<path d="M163.265 36.0215H103.02V38.6714H163.265V36.0215Z" fill="#E0E0E0"/>
<path d="M115.33 37.2959H112.884V46.3413H115.33V37.2959Z" fill="#E0E0E0"/>
<path d="M151.836 37.2959H149.39V46.3413H151.836V37.2959Z" fill="#E0E0E0"/>
<path d="M149.385 12.7462L146.08 12.7793L146.306 35.3983L149.611 35.3652L149.385 12.7462Z" fill="#EBEBEB"/>
<path d="M154.488 17.6412L149.352 17.6689L149.451 35.9997L154.587 35.9719L154.488 17.6412Z" fill="#F5F5F5"/>
<path d="M154.452 21.1782C153.599 21.267 152.74 21.2962 151.883 21.2655C151.026 21.2963 150.169 21.2671 149.316 21.1782C151.026 21.0617 152.742 21.0617 154.452 21.1782Z" fill="#E0E0E0"/>
<path d="M154.452 20.4103C153.599 20.497 152.74 20.5262 151.883 20.4977C151.026 20.5262 150.169 20.4971 149.316 20.4103C151.026 20.289 152.743 20.289 154.452 20.4103Z" fill="#E0E0E0"/>
<path d="M154.452 33.2189C152.742 33.3354 151.026 33.3354 149.316 33.2189C151.026 33.0976 152.743 33.0976 154.452 33.2189Z" fill="#E0E0E0"/>
<path d="M154.452 32.4477C152.743 32.569 151.026 32.569 149.316 32.4477C151.026 32.3312 152.742 32.3312 154.452 32.4477Z" fill="#E0E0E0"/>
<path d="M151.966 30.7696C151.915 30.7696 151.875 28.9205 151.875 26.6382C151.875 24.356 151.915 22.5068 151.966 22.5068C152.017 22.5068 152.053 24.356 152.053 26.6382C152.053 28.9205 152.013 30.7696 151.966 30.7696Z" fill="#E0E0E0"/>
<path d="M160.098 22.1465H154.507V35.9821H160.098V22.1465Z" fill="#EBEBEB"/>
<path d="M148.57 17.2977C148.57 17.4856 148.514 17.6693 148.41 17.8255C148.305 17.9817 148.157 18.1035 147.984 18.1754C147.81 18.2473 147.619 18.2661 147.435 18.2295C147.25 18.1928 147.081 18.1023 146.948 17.9695C146.815 17.8366 146.725 17.6673 146.688 17.483C146.652 17.2988 146.67 17.1077 146.742 16.9341C146.814 16.7605 146.936 16.6122 147.092 16.5078C147.248 16.4034 147.432 16.3477 147.62 16.3477C147.872 16.3477 148.114 16.4477 148.292 16.6259C148.47 16.8041 148.57 17.0457 148.57 17.2977Z" fill="#E0E0E0"/>
<path d="M147.911 19.9111H147.325V33.3646H147.911V19.9111Z" fill="#E0E0E0"/>
<path d="M40.604 101.32L36.418 118.188H38.1106L42.4567 101.32H40.604Z" fill="#EBEBEB"/>
<path d="M52.7402 101.32L56.9262 118.188H55.2299L50.8838 101.32H52.7402Z" fill="#EBEBEB"/>
<path d="M47.4543 96.7334H45.4814V118.184H47.4543V96.7334Z" fill="#EBEBEB"/>
<path d="M60.3472 79.5312H32.4902V97.3782H60.3472V79.5312Z" fill="#E0E0E0"/>
<path d="M53.4207 101.047H39.4395V102.769H53.4207V101.047Z" fill="#EBEBEB"/>
<path d="M34.3436 95.0477C34.3606 95.156 34.3667 95.2657 34.3618 95.3753H34.3254C34.2963 94.5017 34.2744 91.6115 34.2744 88.1826C34.2744 86.1151 34.2744 84.2441 34.2963 82.8682C34.2963 82.2021 34.2963 81.6561 34.3181 81.2557C34.3181 81.0785 34.3181 80.9329 34.3181 80.8189C34.3117 80.7681 34.3117 80.7168 34.3181 80.666C34.3244 80.7168 34.3244 80.7681 34.3181 80.8189C34.3181 80.9329 34.3181 81.0785 34.3181 81.2557C34.3181 81.6561 34.3181 82.2021 34.3399 82.8682C34.3399 84.2441 34.3399 86.1151 34.3618 88.1826C34.3618 91.6115 34.3399 94.5017 34.3108 95.3753H34.2744C34.2862 95.264 34.3094 95.1542 34.3436 95.0477Z" fill="#F5F5F5"/>
<path d="M36.4178 95.0477C36.4238 95.1568 36.4238 95.2661 36.4178 95.3753H36.3996C36.3741 94.5017 36.3523 91.6115 36.3523 88.1826C36.3523 86.1151 36.3523 84.2441 36.3523 82.8682C36.3523 82.2021 36.3523 81.6561 36.3741 81.2557C36.3741 81.0773 36.3741 80.9317 36.3741 80.8189C36.3654 80.7683 36.3654 80.7166 36.3741 80.666C36.3789 80.7169 36.3789 80.768 36.3741 80.8189C36.3741 80.9317 36.3741 81.0773 36.3741 81.2557C36.3741 81.6561 36.3741 82.2021 36.396 82.8682C36.396 84.2441 36.396 86.1151 36.396 88.1826C36.396 91.6115 36.396 94.5017 36.3486 95.3753H36.3996C36.3955 95.2657 36.4016 95.1561 36.4178 95.0477Z" fill="#F5F5F5"/>
<path d="M38.4898 95.0477C38.5068 95.156 38.5129 95.2657 38.508 95.3753H38.4716C38.4425 94.5017 38.4206 91.6115 38.4206 88.1826C38.4206 86.1151 38.4206 84.2441 38.4425 82.8682C38.4425 82.2021 38.4425 81.6561 38.4643 81.2557C38.4643 81.0785 38.4643 80.9329 38.4643 80.8189C38.4603 80.768 38.4603 80.7169 38.4643 80.666C38.473 80.7166 38.473 80.7683 38.4643 80.8189C38.4643 80.9317 38.4643 81.0773 38.4643 81.2557C38.4643 81.6561 38.4643 82.2021 38.4862 82.8682C38.4862 84.2441 38.4862 86.1151 38.5044 88.1826C38.5044 91.6115 38.4825 94.5017 38.4534 95.3753H38.417C38.4325 95.2643 38.4569 95.1547 38.4898 95.0477Z" fill="#F5F5F5"/>
<path d="M40.5643 95.0477C40.5728 95.1567 40.5728 95.2662 40.5643 95.3753H40.5279C40.4988 94.5017 40.4769 91.6115 40.4769 88.1826C40.4769 86.1151 40.4769 84.2441 40.4769 82.8682C40.4769 82.2021 40.4769 81.6561 40.4988 81.2557C40.4988 81.0773 40.4988 80.9317 40.4988 80.8189C40.4924 80.7681 40.4924 80.7168 40.4988 80.666C40.5027 80.7169 40.5027 80.768 40.4988 80.8189C40.4988 80.9329 40.4988 81.0785 40.4988 81.2557C40.4988 81.6561 40.4988 82.2021 40.5206 82.8682C40.5206 84.2441 40.5206 86.1151 40.5424 88.1826C40.5424 91.6115 40.5206 94.5017 40.4915 95.3753H40.4551C40.4798 95.2625 40.5164 95.1527 40.5643 95.0477Z" fill="#F5F5F5"/>
<path d="M42.6356 95.0477C42.653 95.1559 42.6603 95.2656 42.6574 95.3753H42.6174C42.5882 94.5017 42.57 91.6115 42.57 88.1826C42.57 86.1151 42.57 84.2441 42.57 82.8682C42.57 82.2021 42.57 81.6561 42.5919 81.2557C42.5919 81.0773 42.5919 80.9317 42.5919 80.8189C42.5871 80.768 42.5871 80.7169 42.5919 80.666C42.6006 80.7166 42.6006 80.7683 42.5919 80.8189C42.5919 80.9317 42.5919 81.0773 42.5919 81.2557C42.5919 81.6561 42.5919 82.2021 42.6137 82.8682C42.6137 84.2441 42.6137 86.1151 42.6137 88.1826C42.6137 91.6115 42.5919 94.5017 42.5664 95.3753H42.5264C42.5564 95.264 42.5928 95.1546 42.6356 95.0477Z" fill="#F5F5F5"/>
<path d="M44.7104 95.0477C44.7214 95.1566 44.7214 95.2663 44.7104 95.3753H44.674C44.6449 94.5017 44.623 91.6115 44.623 88.1826C44.623 86.1151 44.623 84.2441 44.6449 82.8682C44.6449 82.2021 44.6449 81.6561 44.6667 81.2557C44.6667 81.0785 44.6667 80.9329 44.6667 80.8189C44.6604 80.7681 44.6604 80.7168 44.6667 80.666C44.6731 80.7168 44.6731 80.7681 44.6667 80.8189C44.6667 80.9329 44.6667 81.0785 44.6667 81.2557C44.6667 81.6561 44.6667 82.2021 44.6886 82.8682C44.6886 84.2441 44.6886 86.1151 44.7104 88.1826C44.7104 91.6115 44.6886 94.5017 44.6594 95.3753H44.623C44.6408 95.2633 44.67 95.1535 44.7104 95.0477Z" fill="#F5F5F5"/>
<path d="M46.7851 95.0477C46.7972 95.1564 46.8032 95.2658 46.8033 95.3753H46.7632C46.7341 94.5017 46.7159 91.6115 46.7159 88.1826C46.7159 86.1151 46.7159 84.2441 46.7159 82.8682C46.7159 82.2021 46.7341 81.6561 46.7377 81.2557C46.7377 81.0773 46.7377 80.9317 46.7377 80.8189C46.7291 80.7683 46.7291 80.7166 46.7377 80.666C46.7425 80.7169 46.7425 80.768 46.7377 80.8189C46.7377 80.9317 46.7377 81.0773 46.7377 81.2557C46.7377 81.6561 46.7378 82.2021 46.7596 82.8682C46.7596 84.2441 46.7596 86.1151 46.7778 88.1826C46.7778 91.6115 46.7596 94.5017 46.7305 95.3753H46.6904C46.7113 95.2633 46.743 95.1535 46.7851 95.0477Z" fill="#F5F5F5"/>
<path d="M48.8556 95.0477C48.8727 95.156 48.8788 95.2657 48.8738 95.3753H48.8374C48.8083 94.5017 48.7865 91.6115 48.7865 88.1826C48.7865 86.1151 48.7865 84.2441 48.8083 82.8682C48.8083 82.2021 48.8083 81.6561 48.8302 81.2557C48.8302 81.0785 48.8302 80.9329 48.8302 80.8189C48.8262 80.768 48.8262 80.7169 48.8302 80.666C48.8365 80.7168 48.8365 80.7681 48.8302 80.8189C48.8302 80.9317 48.8302 81.0773 48.8302 81.2557C48.8302 81.6561 48.8302 82.2021 48.8302 82.8682C48.8302 84.2441 48.8302 86.1151 48.852 88.1826C48.852 91.6115 48.8302 94.5017 48.8011 95.3753H48.7646C48.7861 95.2638 48.8166 95.1542 48.8556 95.0477Z" fill="#F5F5F5"/>
<path d="M50.9312 95.0477C50.9458 95.1562 50.9518 95.2657 50.9494 95.3753H50.913C50.8839 94.5017 50.862 91.6115 50.862 88.1826C50.862 86.1151 50.862 84.2441 50.8802 82.8682C50.8802 82.2021 50.8984 81.6561 50.9021 81.2557C50.9021 81.0773 50.9021 80.9317 50.9021 80.8189C50.8934 80.7683 50.8934 80.7166 50.9021 80.666C50.906 80.7169 50.906 80.768 50.9021 80.8189C50.9021 80.9317 50.9021 81.0773 50.9021 81.2557C50.9021 81.6561 50.9021 82.2021 50.9239 82.8682C50.9239 84.2441 50.9239 86.1151 50.9458 88.1826C50.9458 91.6115 50.9239 94.5017 50.8948 95.3753H50.8584C50.8714 95.2638 50.8958 95.1541 50.9312 95.0477Z" fill="#F5F5F5"/>
<path d="M53.0025 95.0477C53.0199 95.1559 53.0272 95.2656 53.0243 95.3753H52.9843C52.9552 94.5017 52.9333 91.6115 52.9333 88.1826C52.9333 86.1151 52.9515 84.2441 52.9552 82.8682C52.9552 82.2021 52.9734 81.6561 52.977 81.2557C52.977 81.0773 52.977 80.9317 52.977 80.8189C52.9722 80.768 52.9722 80.7169 52.977 80.666C52.9857 80.7166 52.9857 80.7683 52.977 80.8189C52.977 80.9317 52.977 81.0773 52.977 81.2557C52.977 81.6561 52.977 82.2021 52.9988 82.8682C52.9988 84.2441 52.9988 86.1151 53.017 88.1826C53.017 91.6115 52.9952 94.5017 52.9697 95.3753H52.9297C52.9478 95.2648 52.9721 95.1554 53.0025 95.0477Z" fill="#F5F5F5"/>
<path d="M55.077 95.0477C55.0915 95.1562 55.0976 95.2657 55.0952 95.3753H55.0588C55.0297 94.5017 55.0078 91.6115 55.0078 88.1826C55.0078 86.1151 55.0078 84.2441 55.0297 82.8682C55.0297 82.2021 55.0297 81.6561 55.0515 81.2557C55.0515 81.0785 55.0515 80.9329 55.0515 80.8189C55.0451 80.7681 55.0451 80.7168 55.0515 80.666C55.0555 80.7169 55.0555 80.768 55.0515 80.8189C55.0515 80.9329 55.0515 81.0785 55.0515 81.2557C55.0515 81.6561 55.0515 82.2021 55.0733 82.8682C55.0733 84.2441 55.0733 86.1151 55.0952 88.1826C55.0952 91.6115 55.0733 94.5017 55.0442 95.3753H55.0078C55.0196 95.264 55.0428 95.1542 55.077 95.0477Z" fill="#F5F5F5"/>
<path d="M57.1479 95.0477C57.16 95.1564 57.1661 95.2658 57.1661 95.3753H57.1479C57.1188 94.5017 57.1006 91.6115 57.1006 88.1826C57.1006 86.1151 57.1006 84.2441 57.1188 82.8682C57.1188 82.2021 57.1188 81.6561 57.1406 81.2557C57.1406 81.0773 57.1406 80.9317 57.1406 80.8189C57.1319 80.7683 57.1319 80.7166 57.1406 80.666C57.1454 80.7169 57.1454 80.768 57.1406 80.8189C57.1406 80.9317 57.1406 81.0773 57.1406 81.2557C57.1406 81.6561 57.1406 82.2021 57.1625 82.8682C57.1625 84.2441 57.1625 86.1151 57.1807 88.1826C57.1807 91.6115 57.1625 94.5017 57.1334 95.3753H57.1479C57.1378 95.2663 57.1378 95.1566 57.1479 95.0477Z" fill="#F5F5F5"/>
<path d="M59.2225 95.0477C59.2395 95.156 59.2456 95.2657 59.2407 95.3753H59.2043C59.1752 94.5017 59.1533 91.6115 59.1533 88.1826C59.1533 86.1151 59.1533 84.2441 59.1752 82.8682C59.1752 82.2021 59.1752 81.6561 59.197 81.2557C59.197 81.0785 59.197 80.9329 59.197 80.8189C59.193 80.768 59.193 80.7169 59.197 80.666C59.2034 80.7168 59.2034 80.7681 59.197 80.8189C59.197 80.9329 59.197 81.0785 59.197 81.2557C59.197 81.6561 59.197 82.2021 59.2188 82.8682C59.2188 84.2441 59.2188 86.1151 59.2407 88.1826C59.2407 91.6115 59.2188 94.5017 59.1897 95.3753H59.1533C59.1677 95.2644 59.1908 95.1549 59.2225 95.0477Z" fill="#F5F5F5"/>
<path d="M93.7449 116.102H21.127V149.593H93.7449V116.102Z" fill="#F5F5F5"/>
<path d="M92.0156 148.014H22.79V117.867H92.0156V148.014ZM23.2414 147.562H91.5642V118.319H23.2414V147.562Z" fill="#E0E0E0"/>
<path d="M111.485 116.102H93.7441V149.593H111.485V116.102Z" fill="#E0E0E0"/>
<path d="M23.0158 127.197H91.79C91.8141 127.197 91.8372 127.187 91.8543 127.17C91.8714 127.153 91.881 127.13 91.881 127.106C91.881 127.082 91.8714 127.058 91.8543 127.041C91.8372 127.024 91.8141 127.015 91.79 127.015H23.0158C22.9917 127.015 22.9685 127.024 22.9515 127.041C22.9344 127.058 22.9248 127.082 22.9248 127.106C22.9248 127.13 22.9344 127.153 22.9515 127.17C22.9685 127.187 22.9917 127.197 23.0158 127.197Z" fill="#E0E0E0"/>
<path d="M57.6282 127.106C57.8176 124.076 57.8249 121.037 57.65 118.006C57.6458 117.984 57.6342 117.965 57.6173 117.951C57.6003 117.937 57.5791 117.93 57.5572 117.93C57.5353 117.93 57.5141 117.937 57.4972 117.951C57.4803 117.965 57.4687 117.984 57.4644 118.006C57.2889 121.037 57.2974 124.076 57.4899 127.106C57.4899 127.124 57.4972 127.142 57.5101 127.155C57.5231 127.168 57.5407 127.175 57.559 127.175C57.5774 127.175 57.595 127.168 57.6079 127.155C57.6209 127.142 57.6282 127.124 57.6282 127.106Z" fill="#E0E0E0"/>
<path d="M76.1376 122.556C76.1376 122.741 76.0827 122.921 75.9799 123.075C75.8771 123.229 75.731 123.349 75.5601 123.42C75.3891 123.491 75.201 123.509 75.0196 123.473C74.8381 123.437 74.6714 123.348 74.5406 123.217C74.4098 123.086 74.3207 122.92 74.2846 122.738C74.2485 122.557 74.267 122.369 74.3378 122.198C74.4086 122.027 74.5285 121.881 74.6824 121.778C74.8362 121.675 75.0171 121.62 75.2021 121.62C75.4499 121.621 75.6873 121.72 75.8625 121.895C76.0377 122.07 76.1366 122.308 76.1376 122.556Z" fill="#E0E0E0"/>
<path d="M40.0403 122.556C40.0411 122.741 39.9866 122.923 39.8838 123.078C39.7811 123.233 39.6347 123.354 39.4631 123.426C39.2916 123.497 39.1027 123.517 38.9203 123.481C38.7378 123.445 38.5702 123.356 38.4385 123.225C38.3068 123.093 38.217 122.926 38.1804 122.744C38.1439 122.562 38.1623 122.373 38.2332 122.201C38.3042 122.029 38.4246 121.882 38.5791 121.779C38.7336 121.675 38.9153 121.62 39.1012 121.62C39.3497 121.62 39.588 121.719 39.764 121.894C39.94 122.069 40.0394 122.307 40.0403 122.556Z" fill="#E0E0E0"/>
<path d="M58.3421 132.94C58.3428 133.126 58.2884 133.308 58.1856 133.463C58.0829 133.618 57.9364 133.739 57.7649 133.811C57.5934 133.882 57.4044 133.901 57.222 133.866C57.0396 133.83 56.8719 133.741 56.7402 133.609C56.6085 133.478 56.5187 133.311 56.4822 133.129C56.4456 132.946 56.464 132.757 56.535 132.585C56.606 132.414 56.7263 132.267 56.8809 132.163C57.0354 132.06 57.2171 132.005 57.403 132.005C57.6514 132.005 57.8897 132.103 58.0658 132.279C58.2418 132.454 58.3411 132.692 58.3421 132.94Z" fill="#E0E0E0"/>
<path d="M29.812 149.594L26.3066 169.818H28.4106L35.0681 149.594H29.812Z" fill="#E0E0E0"/>
<path d="M88.6084 149.594L91.7316 169.818H89.6313L83.3486 149.594H88.6084Z" fill="#E0E0E0"/>
<path d="M102.645 149.594L106.365 169.818H104.261L97.3887 149.594H102.645Z" fill="#E0E0E0"/>
<path d="M58.2767 142.42C58.2767 142.605 58.2215 142.787 58.1182 142.942C58.0148 143.096 57.8679 143.217 57.6961 143.288C57.5243 143.359 57.3353 143.377 57.153 143.34C56.9707 143.304 56.8034 143.214 56.6722 143.082C56.541 142.951 56.4519 142.783 56.416 142.601C56.3802 142.418 56.3993 142.229 56.471 142.058C56.5426 141.886 56.6635 141.74 56.8185 141.637C56.9734 141.534 57.1553 141.48 57.3412 141.48C57.4644 141.48 57.5863 141.505 57.7 141.552C57.8138 141.599 57.9171 141.669 58.004 141.756C58.0909 141.843 58.1597 141.947 58.2065 142.06C58.2533 142.174 58.2772 142.296 58.2767 142.42Z" fill="#E0E0E0"/>
<path d="M23.0158 137.567H91.79C91.8141 137.567 91.8372 137.557 91.8543 137.54C91.8714 137.523 91.881 137.5 91.881 137.476C91.881 137.452 91.8714 137.428 91.8543 137.411C91.8372 137.394 91.8141 137.385 91.79 137.385H23.0158C22.9917 137.385 22.9685 137.394 22.9515 137.411C22.9344 137.428 22.9248 137.452 22.9248 137.476C22.9248 137.5 22.9344 137.523 22.9515 137.54C22.9685 137.557 22.9917 137.567 23.0158 137.567Z" fill="#E0E0E0"/>
<path d="M169.944 63.9404H152.235V68.6251H169.944V63.9404Z" fill="#F5F5F5"/>
<path d="M162.457 73.5615C162.456 73.5337 162.456 73.5057 162.457 73.4778V73.2376C162.457 73.0155 162.457 72.7098 162.457 72.313C162.457 71.5049 162.457 70.3438 162.428 68.8769L162.483 68.9315L144.774 68.9679L144.865 68.8769V70.0671C144.865 70.4639 144.865 70.8607 144.865 71.2501V73.5543L144.778 73.4669L157.398 73.5069L161.121 73.5324H162.13H162.392H162.486C162.486 73.5324 162.461 73.5324 162.406 73.5324H162.152H161.165L157.46 73.5579L144.778 73.5979H144.69V73.5106C144.69 72.7583 144.69 71.9903 144.69 71.2065V68.8332L144.781 68.7422L162.49 68.7786H162.545V68.8332C162.545 70.3147 162.523 71.4867 162.516 72.3021C162.516 72.6916 162.516 72.9973 162.516 73.2121C162.516 73.3067 162.516 73.3832 162.516 73.4451C162.516 73.5069 162.461 73.5652 162.457 73.5615Z" fill="#E0E0E0"/>
<path d="M134.757 114.635C134.753 114.608 134.753 114.58 134.757 114.552V114.312C134.757 114.089 134.757 113.784 134.757 113.387C134.757 112.579 134.738 111.418 134.724 109.951L134.782 110.005L117.073 110.042C117.113 110.002 116.982 110.133 117.161 109.951V114.628L117.07 114.541L129.69 114.581L133.417 114.606H134.425H134.687H134.782H134.698H134.447H133.457L129.752 114.632L117.07 114.672H116.982V109.958C117.164 109.776 117.033 109.907 117.077 109.867L134.786 109.903H134.84V109.958C134.84 111.44 134.815 112.612 134.808 113.427C134.808 113.816 134.808 114.122 134.808 114.337C134.808 114.432 134.808 114.508 134.808 114.57C134.793 114.593 134.776 114.615 134.757 114.635Z" fill="#E0E0E0"/>
<path d="M37.2623 65.8154H19.5537V70.5001H37.2623V65.8154Z" fill="#F5F5F5"/>
<path d="M29.7752 75.4357C29.7726 75.4066 29.7726 75.3774 29.7752 75.3483C29.7752 75.2864 29.7752 75.2063 29.7752 75.108C29.7752 74.8896 29.7752 74.5802 29.7752 74.1871C29.7752 73.379 29.7752 72.2142 29.7461 70.7473L29.8007 70.8019L12.0921 70.8383C12.1321 70.7983 12.0011 70.9293 12.1794 70.7473V75.432L12.0921 75.341L24.7119 75.381L28.4357 75.4065H29.4439H29.706C29.7374 75.4014 29.7693 75.4014 29.8007 75.4065H29.7169H29.4658H28.4757L24.752 75.483L12.0702 75.523H11.9756V70.751C12.1539 70.5726 12.0265 70.7036 12.0666 70.6636L29.7752 70.6964H29.848V70.751C29.848 72.2324 29.8261 73.4045 29.8189 74.2235C29.8189 74.613 29.8189 74.9151 29.8189 75.1335C29.8189 75.2282 29.8189 75.3046 29.8189 75.3628C29.806 75.3881 29.7914 75.4124 29.7752 75.4357Z" fill="#E0E0E0"/>
<path d="M96.6052 18.3641C96.6019 18.3363 96.6019 18.3082 96.6052 18.2804V18.0401C96.6052 17.8181 96.6052 17.5123 96.6052 17.1192C96.6052 16.3075 96.587 15.1463 96.5761 13.6794L96.6307 13.734L78.9221 13.7704C78.9621 13.7304 78.8311 13.8614 79.0094 13.6794V18.3641L78.9221 18.2767L91.5419 18.3168L95.2657 18.3423H96.2739H96.536H96.6307H96.5469H96.2958H95.3057L91.6038 18.3641L78.9221 18.4078H78.8311V13.6867L78.9221 13.5957L96.6307 13.6321H96.6852V13.6867C96.6852 15.1682 96.6634 16.3403 96.6561 17.1593C96.6561 17.5451 96.6561 17.8509 96.6561 18.0656V18.2986C96.6412 18.322 96.6241 18.3439 96.6052 18.3641Z" fill="#E0E0E0"/>
<path d="M99.0075 13.6796C99.0023 13.6507 99.0023 13.6211 99.0075 13.5922C99.0075 13.5231 99.0075 13.443 99.0075 13.3411C99.0075 13.1117 99.0075 12.7987 99.0075 12.4019C99.0075 11.5829 98.9893 10.4218 98.9747 8.99491L99.0402 9.06043L88.3678 9.10047C88.2841 9.18055 88.4733 8.99127 88.4551 9.00947V11.4191C88.4551 12.2017 88.4551 12.9625 88.4551 13.6905L88.3678 13.6068L95.979 13.6468L98.1994 13.6687H98.7964H99.0111C98.9469 13.6736 98.8824 13.6736 98.8182 13.6687H98.2358L96.0518 13.6941L88.3823 13.7342H88.2986V13.6468C88.2986 12.9188 88.2986 12.1581 88.2986 11.3755V8.99855C88.2768 9.01675 88.4697 8.82747 88.3896 8.90755L99.0293 8.93303H99.0948V8.99855C99.0948 10.4545 99.0694 11.6157 99.0621 12.4456C99.0621 12.8351 99.0621 13.1445 99.0439 13.3702C99.0257 13.5959 99.0075 13.6832 99.0075 13.6796Z" fill="#E0E0E0"/>
<path d="M164.135 169.817C164.135 169.872 131.375 169.912 91.0038 169.912C50.6325 169.912 17.8652 169.872 17.8652 169.817C17.8652 169.763 50.6034 169.723 91.0038 169.723C131.404 169.723 164.135 169.766 164.135 169.817Z" fill="#263238"/>
<path d="M73.164 40.6591L71.708 37.7252C72.6128 35.2608 72.563 32.547 71.5686 30.1174C70.5741 27.6878 68.7068 25.718 66.3337 24.5952C63.9606 23.4724 61.2534 23.2779 58.7441 24.0499C56.2349 24.8218 54.1052 26.5044 52.7735 28.7669C51.4419 31.0294 51.0047 33.7082 51.5479 36.2767C52.091 38.8451 53.5753 41.1176 55.7089 42.6473C57.8424 44.177 60.471 44.8533 63.078 44.5433C65.6849 44.2333 68.0816 42.9595 69.797 40.9721L73.164 40.6591Z" fill="white"/>
<path d="M73.164 40.6593L72.9528 40.6847L72.3195 40.7539L69.8115 41.016C69.8022 41.0155 69.7933 41.0121 69.7861 41.0062C69.7789 41.0003 69.7738 40.9922 69.7715 40.9832C69.7715 40.9832 69.7715 40.9832 69.7715 40.9614L69.8334 41.0014C68.6957 42.3317 67.2446 43.3575 65.611 43.9862C65.1083 44.1801 64.591 44.3335 64.064 44.4449C63.4903 44.5607 62.9086 44.6325 62.324 44.6596C61.0421 44.7201 59.76 44.5437 58.5421 44.1391C57.1443 43.6732 55.8588 42.9217 54.7672 41.9322C53.6755 40.9427 52.8017 39.737 52.2012 38.3915C51.5289 36.865 51.2266 35.2013 51.319 33.5358C51.4113 31.8704 51.8957 30.2503 52.7326 28.8074L53.0675 28.2505L53.4534 27.7263L53.6463 27.4643L53.8574 27.224L54.2869 26.7435C54.4325 26.5907 54.5963 26.4523 54.7528 26.3067C54.9022 26.1567 55.0615 26.0169 55.2297 25.8881C55.5567 25.6232 55.9009 25.38 56.2598 25.1601C57.603 24.3099 59.1224 23.7771 60.7024 23.6024C62.2824 23.4277 63.8815 23.6156 65.378 24.1519C67.9569 25.0605 70.0826 26.9344 71.3076 29.3789C71.5691 29.9033 71.7894 30.4473 71.9664 31.006C72.1197 31.5321 72.2412 32.0669 72.3304 32.6076C72.5779 34.3365 72.3877 36.1 71.7771 37.7363V37.7109C72.2358 38.6682 72.5925 39.4071 72.8327 39.9131C72.9492 40.1533 73.0366 40.3426 73.0984 40.4736C73.1603 40.6047 73.1858 40.6593 73.1858 40.6593C73.1858 40.6593 73.1458 40.5901 73.0839 40.4663L72.7963 39.9021L71.7043 37.74C71.7026 37.736 71.7017 37.7316 71.7017 37.7272C71.7017 37.7229 71.7026 37.7185 71.7043 37.7145C72.2906 36.0835 72.4644 34.3329 72.2103 32.6185C72.1209 32.0851 71.9994 31.5575 71.8463 31.0387C71.6691 30.4872 71.4488 29.9505 71.1874 29.4335C70.2368 27.5577 68.7431 26.0116 66.9012 24.9968C65.0592 23.9821 62.9544 23.5455 60.8608 23.7442C59.2575 23.912 57.7138 24.4436 56.3472 25.2985C55.9939 25.5181 55.6558 25.7613 55.3352 26.0265C55.1692 26.1537 55.0112 26.2911 54.862 26.4378C54.7128 26.5834 54.5526 26.7181 54.407 26.8709L53.9848 27.3441L53.7737 27.5807L53.5844 27.8355L53.2204 28.3524L52.8892 28.9021C52.0389 30.3514 51.5589 31.9879 51.4914 33.6668C51.395 35.9283 52.0367 38.1598 53.3197 40.0245C54.6027 41.8893 56.4574 43.2862 58.604 44.0044C59.8056 44.4042 61.0696 44.583 62.335 44.5322C62.9117 44.5048 63.4859 44.4367 64.053 44.3284C64.5822 44.2188 65.1018 44.0679 65.6073 43.877C67.2269 43.2668 68.6709 42.2666 69.8115 40.965C69.8189 40.9581 69.8287 40.9543 69.8388 40.9543C69.849 40.9543 69.8587 40.9581 69.8661 40.965C69.8707 40.9721 69.8731 40.9803 69.8731 40.9887C69.8731 40.9971 69.8707 41.0053 69.8661 41.0123L69.8297 40.9614L72.3158 40.7466L72.9638 40.692L73.164 40.6593Z" fill="#263238"/>
<path d="M57.0205 34.8064L58.3782 33.445L60.999 35.7746L66.146 30.8242L67.4054 32.1856L60.8061 38.3954L57.0205 34.8064Z" fill="#00AAD3"/>
<path d="M66.7435 156.277L60.4244 162.275C60.4244 162.275 66.6707 169.406 65.8844 170.88L50.6328 162.093L60.0604 151.501L66.7435 156.277Z" fill="#455A64"/>
<g opacity="0.6">
<path d="M56.2164 158.737C56.046 158.693 55.8654 158.712 55.7082 158.791C55.5509 158.87 55.4276 159.003 55.361 159.166C55.3088 159.335 55.3231 159.518 55.4008 159.677C55.4786 159.836 55.6141 159.959 55.7796 160.022C55.9611 160.069 56.1537 160.049 56.3209 159.963C56.488 159.878 56.6179 159.734 56.686 159.56C56.7194 159.378 56.6828 159.191 56.5834 159.035C56.4841 158.88 56.3295 158.768 56.1509 158.722" fill="white"/>
</g>
<g opacity="0.6">
<path d="M50.6328 162.093L51.5901 161.001L65.7861 169.872C65.8949 170.042 65.9592 170.237 65.9732 170.438C65.9872 170.64 65.9504 170.842 65.8662 171.026L50.6328 162.093Z" fill="white"/>
</g>
<path d="M60.7051 162.344C60.6578 162.413 60.272 162.22 59.7696 162.227C59.2673 162.234 58.8815 162.424 58.8342 162.351C58.7868 162.278 59.1545 161.929 59.766 161.929C60.3775 161.929 60.7634 162.293 60.7051 162.344Z" fill="#263238"/>
<path d="M61.8581 163.979C61.8326 164.059 61.4395 163.979 60.9991 164.135C60.5586 164.292 60.2711 164.569 60.2128 164.521C60.1546 164.474 60.3548 164.034 60.9044 163.852C61.4541 163.67 61.9018 163.906 61.8581 163.979Z" fill="#263238"/>
<path d="M61.571 166.403C61.4982 166.377 61.6256 165.951 62.0588 165.675C62.4919 165.398 62.936 165.449 62.9287 165.529C62.9215 165.609 62.5647 165.693 62.2226 165.926C61.8804 166.159 61.6511 166.439 61.571 166.403Z" fill="#263238"/>
<path d="M61.6768 160.524C61.604 160.572 61.3346 160.262 60.9051 160.033C60.4756 159.804 60.0752 159.731 60.0752 159.644C60.0752 159.556 60.5484 159.491 61.0471 159.771C61.5458 160.051 61.746 160.481 61.6768 160.524Z" fill="#263238"/>
<path d="M62.6739 158.984C62.6557 159.013 62.3427 158.879 61.9459 158.511C61.7063 158.296 61.4948 158.051 61.3162 157.783C61.2099 157.625 61.115 157.46 61.0323 157.288C60.9779 157.189 60.9386 157.082 60.9158 156.971C60.8988 156.89 60.9105 156.804 60.949 156.73C60.9874 156.656 61.0502 156.597 61.1269 156.564C61.1953 156.537 61.269 156.526 61.3423 156.532C61.4156 156.538 61.4864 156.562 61.5491 156.6C61.6443 156.657 61.7302 156.728 61.8039 156.811C62.1679 157.185 62.432 157.645 62.572 158.147C62.6821 158.428 62.7024 158.735 62.6302 159.028C62.5829 159.028 62.5574 158.697 62.3718 158.213C62.2611 157.932 62.1169 157.665 61.9423 157.419C61.8373 157.277 61.7217 157.143 61.5965 157.019C61.4654 156.877 61.3307 156.793 61.2325 156.837C61.1342 156.88 61.1924 156.866 61.1961 156.931C61.2127 157.013 61.2409 157.091 61.2798 157.164C61.3566 157.326 61.4417 157.484 61.5346 157.638C61.6937 157.897 61.8765 158.14 62.0806 158.366C62.4337 158.748 62.6994 158.944 62.6739 158.984Z" fill="#263238"/>
<path d="M62.514 159.028C62.5078 158.727 62.597 158.432 62.7688 158.184C62.9297 157.901 63.1377 157.647 63.3839 157.434C63.5304 157.306 63.6903 157.193 63.8608 157.099C63.9626 157.027 64.0813 156.981 64.2057 156.968C64.33 156.955 64.4557 156.974 64.5706 157.023C64.636 157.065 64.6879 157.125 64.7202 157.196C64.7524 157.267 64.7637 157.346 64.7526 157.423C64.7362 157.535 64.7043 157.644 64.6579 157.747C64.4415 158.238 64.0398 158.622 63.5404 158.817C63.0054 159.021 62.6486 158.919 62.6596 158.89C62.9291 158.818 63.1941 158.729 63.4531 158.624C63.7162 158.493 63.9472 158.305 64.1301 158.075C64.2353 157.941 64.321 157.792 64.3849 157.634C64.4614 157.463 64.4832 157.296 64.414 157.27C64.343 157.253 64.269 157.252 64.1972 157.266C64.1255 157.28 64.0579 157.311 63.9991 157.354C63.8444 157.435 63.6981 157.532 63.5623 157.642C63.3275 157.828 63.1215 158.047 62.9508 158.293C62.6559 158.723 62.5613 159.043 62.514 159.028Z" fill="#263238"/>
<path d="M114.362 156.793L115.869 164.932C115.869 164.932 124.882 167.877 124.94 169.558L107.792 169.762L106.525 156.793H114.362Z" fill="#455A64"/>
<g opacity="0.6">
<path d="M109.2 164.681C109.032 164.73 108.886 164.838 108.791 164.986C108.696 165.134 108.658 165.311 108.683 165.485C108.724 165.657 108.828 165.807 108.976 165.904C109.124 166.001 109.303 166.037 109.477 166.006C109.657 165.955 109.812 165.84 109.912 165.682C110.012 165.524 110.051 165.335 110.019 165.15C109.956 164.977 109.83 164.834 109.666 164.75C109.502 164.667 109.312 164.648 109.135 164.699" fill="white"/>
</g>
<g opacity="0.6">
<path d="M107.792 169.762L107.522 168.518L124.372 168.732C124.552 168.824 124.707 168.959 124.822 169.126C124.937 169.292 125.009 169.485 125.031 169.686L107.792 169.762Z" fill="white"/>
</g>
<path d="M116.156 164.848C116.156 164.935 115.723 164.961 115.294 165.212C114.864 165.463 114.631 165.831 114.566 165.798C114.5 165.765 114.627 165.267 115.155 164.957C115.683 164.648 116.178 164.772 116.156 164.848Z" fill="#263238"/>
<path d="M117.98 165.66C117.998 165.744 117.616 165.879 117.321 166.235C117.026 166.592 116.928 166.963 116.841 166.963C116.753 166.963 116.713 166.468 117.096 166.035C117.478 165.602 117.98 165.576 117.98 165.66Z" fill="#263238"/>
<path d="M118.97 167.891C118.894 167.909 118.785 167.476 119.018 167.014C119.251 166.551 119.655 166.369 119.691 166.442C119.728 166.515 119.469 166.763 119.283 167.145C119.098 167.527 119.058 167.884 118.97 167.891Z" fill="#263238"/>
<path d="M115.443 162.952C115.407 163.028 115.017 162.901 114.53 162.923C114.042 162.945 113.663 163.087 113.62 163.01C113.576 162.934 113.947 162.646 114.522 162.624C115.098 162.602 115.487 162.886 115.443 162.952Z" fill="#263238"/>
<path d="M74.7801 97.6318C74.4962 97.8248 73.8483 107.591 74.7801 109.731L72.4105 127.331C72.4105 127.331 66.0477 137.432 64.7665 138.902C63.4852 140.373 55.1787 154.7 55.1787 154.7L64.559 162.788C64.559 162.788 80.8589 141.494 83.487 137.712C87.5893 131.797 92.456 109.564 92.456 109.564L93.0893 98.5273L74.7801 97.6318Z" fill="#263238"/>
<path d="M87.5898 111.711C87.8738 112.232 100.566 131.731 100.566 131.731C100.566 131.731 102.492 142.065 102.918 146.623C103.344 151.18 106.467 162.901 106.467 162.901L116.677 162.1C116.677 162.1 113.918 131.924 112.207 126.046C110.496 120.167 105.75 108.799 105.75 108.799L101.746 98.167L90.2034 98.3818L87.5898 111.711Z" fill="#263238"/>
<path d="M94.8147 101.367C94.8012 101.474 94.7792 101.58 94.7492 101.684L94.5308 102.579C94.3306 103.373 94.0431 104.49 93.6936 105.855C92.9656 108.625 91.9901 112.451 90.8399 116.659C89.6896 120.867 88.5649 124.667 87.7095 127.393C87.2799 128.758 86.9269 129.861 86.6721 130.618L86.3772 131.492C86.3477 131.595 86.3087 131.695 86.2607 131.79C86.2789 131.685 86.3057 131.582 86.3408 131.481L86.6029 130.596C86.8395 129.814 87.1707 128.711 87.5821 127.353C88.4047 124.616 89.504 120.819 90.6579 116.611C91.8117 112.404 92.8164 108.604 93.5699 105.819C93.9339 104.454 94.2469 103.34 94.4653 102.543L94.7165 101.655C94.7429 101.557 94.7757 101.461 94.8147 101.367Z" fill="#455A64"/>
<path d="M126.178 55.3281C126.178 55.3281 127.252 54.48 127.597 54.5054C127.943 54.5309 130.105 54.844 130.105 54.844C130.105 54.844 130.24 55.754 129.621 56.0524C129.131 56.2492 128.61 56.3588 128.081 56.3764L127.568 56.7404L126.178 55.3281Z" fill="#FFCAAE"/>
<path d="M98.0039 58.3164L114.915 71.5915L123.287 63.7145L123.517 62.1821C123.585 61.7464 123.707 61.3209 123.881 60.9153L126.039 55.7793L131.095 63.9766C131.095 63.9766 118.665 80.2073 116.481 80.7752C113.609 81.525 99.3143 71.8463 99.3143 71.8463L98.0039 58.3164Z" fill="#FFCAAE"/>
<path d="M125.944 60.3037C126.465 60.8532 126.84 61.5236 127.036 62.2544C127.233 62.9852 127.244 63.7534 127.069 64.4897C127.085 63.7558 127.013 63.0226 126.854 62.3057C126.632 61.6046 126.326 60.9325 125.944 60.3037Z" fill="#FF9A6C"/>
<path d="M87.0617 34.4604L86.7304 51.7868C86.6139 54.7461 86.4574 59.125 91.1421 59.0959C95.2043 58.761 96.3837 54.9572 96.4893 52.1799C96.5402 50.8732 96.5839 49.7812 96.5985 49.6319C96.5985 49.6319 101.043 49.388 101.534 45.02C101.771 42.9052 101.898 38.5154 101.982 34.5441C102.012 32.4914 101.271 30.5022 99.9045 28.97C98.5382 27.4379 96.6465 26.4745 94.6037 26.2704L94.1815 26.2304C89.6024 26.0411 87.1235 29.8776 87.0617 34.4604Z" fill="#FFCAAE"/>
<path d="M96.6092 49.6604C94.5886 49.4536 92.6697 48.6717 91.0801 47.4072C91.0801 47.4072 92.1502 50.7415 96.5401 50.7851L96.6092 49.6604Z" fill="#FF935C"/>
<path d="M94.6401 36.7965C94.5419 36.8184 94.1196 36.4726 93.4135 36.2724C92.7073 36.0722 92.1249 36.1122 92.063 36.0394C92.0011 35.9666 92.1467 35.9484 92.4015 35.9266C92.77 35.9024 93.1398 35.9443 93.4935 36.0503C93.8401 36.1468 94.1651 36.3086 94.4509 36.5272C94.6401 36.68 94.6838 36.7856 94.6401 36.7965Z" fill="#263238"/>
<path d="M93.7741 37.6598C93.7593 37.8137 93.6854 37.9558 93.568 38.0562C93.4505 38.1567 93.2987 38.2077 93.1444 38.1985C93.0686 38.1971 92.9938 38.1806 92.9244 38.1498C92.8551 38.1191 92.7926 38.0747 92.7407 38.0194C92.6888 37.9641 92.6485 37.899 92.6222 37.8278C92.5959 37.7567 92.5841 37.681 92.5875 37.6052C92.6023 37.4514 92.6762 37.3092 92.7936 37.2088C92.9111 37.1083 93.0629 37.0573 93.2172 37.0665C93.293 37.0679 93.3678 37.0844 93.4372 37.1152C93.5065 37.146 93.569 37.1903 93.6209 37.2456C93.6728 37.3009 93.7131 37.3661 93.7394 37.4372C93.7657 37.5083 93.7775 37.584 93.7741 37.6598Z" fill="#263238"/>
<path d="M96.2637 41.3254C96.6285 41.249 97.0016 41.2196 97.3739 41.238C97.5486 41.238 97.716 41.2198 97.7561 41.1033C97.7876 40.9272 97.7648 40.7456 97.6906 40.5828C97.5704 40.1533 97.4467 39.7019 97.3266 39.2251C96.806 37.2923 96.4493 35.7125 96.5258 35.6907C96.6022 35.6688 97.09 37.2231 97.6178 39.1523L97.9818 40.5173C98.068 40.736 98.0757 40.9779 98.0036 41.2016C97.9719 41.2594 97.9277 41.3094 97.8741 41.3478C97.8206 41.3862 97.7591 41.4122 97.6942 41.4237C97.5963 41.4359 97.4972 41.4359 97.3994 41.4237C97.0181 41.4404 96.6364 41.4074 96.2637 41.3254Z" fill="#263238"/>
<path d="M94.3234 33.4042C94.247 33.5644 93.6646 33.426 92.9584 33.4442C92.2523 33.4624 91.6735 33.6008 91.5934 33.4442C91.5607 33.3678 91.6735 33.2222 91.9174 33.0802C92.2369 32.9102 92.5929 32.8202 92.9548 32.8182C93.3157 32.8086 93.6734 32.8886 93.9958 33.0511C94.2397 33.1822 94.3562 33.3278 94.3234 33.4042Z" fill="#263238"/>
<path d="M101.258 34.9442C101.174 35.0716 100.607 34.9115 99.9149 34.8714C99.2233 34.8314 98.6409 34.9042 98.5718 34.7622C98.5426 34.6967 98.6591 34.5802 98.903 34.4819C99.2332 34.3599 99.586 34.3115 99.9368 34.34C100.29 34.3615 100.634 34.4557 100.949 34.6166C101.193 34.7549 101.291 34.886 101.258 34.9442Z" fill="#263238"/>
<path d="M87.0942 37.798C87.0178 37.758 84.0002 36.6296 83.8692 39.7818C83.7381 42.934 86.9304 42.4172 86.9413 42.3298C86.9522 42.2424 87.0942 37.798 87.0942 37.798Z" fill="#FFCAAE"/>
<path d="M86.0283 41.0916C86.0283 41.0916 85.9701 41.128 85.8755 41.168C85.7435 41.2209 85.5962 41.2209 85.4641 41.168C85.1365 41.0334 84.8781 40.491 84.8854 39.9232C84.8887 39.6529 84.9521 39.3868 85.071 39.1442C85.1046 39.0465 85.1616 38.9585 85.2371 38.8881C85.3127 38.8176 85.4044 38.7668 85.5042 38.7402C85.5678 38.7257 85.6345 38.7343 85.6924 38.7642C85.7504 38.7942 85.7959 38.8437 85.8209 38.904C85.8609 38.9913 85.8209 39.0532 85.8536 39.0605C85.8864 39.0678 85.9228 39.0095 85.9046 38.8785C85.8902 38.8002 85.849 38.7294 85.7881 38.6783C85.7039 38.608 85.5952 38.574 85.486 38.5836C85.3556 38.6044 85.2327 38.658 85.1288 38.7396C85.025 38.8211 84.9437 38.9278 84.8927 39.0496C84.7477 39.3168 84.6703 39.6155 84.667 39.9195C84.667 40.5565 84.9618 41.1644 85.395 41.3173C85.4788 41.3455 85.5679 41.3542 85.6555 41.3429C85.7432 41.3315 85.8271 41.3004 85.901 41.2518C86.0174 41.168 86.0393 41.0989 86.0283 41.0916Z" fill="#FF935C"/>
<path d="M96.3217 43.4176C96.3217 43.3339 95.7175 43.3084 95.1824 42.8753C94.9546 42.6849 94.7538 42.4645 94.5854 42.2201C94.4435 42.0308 94.3452 41.9143 94.3161 41.9325C94.2869 41.9507 94.3343 42.089 94.4398 42.2965C94.5795 42.5895 94.7821 42.848 95.0331 43.0536C95.2903 43.254 95.5975 43.3799 95.9213 43.4176C96.1652 43.4759 96.3181 43.4431 96.3217 43.4176Z" fill="#263238"/>
<path d="M101.119 36.4471C101.046 36.5162 100.508 36.4471 99.7979 36.6436C99.0881 36.8402 98.6113 37.1678 98.5239 37.1423C98.4366 37.1168 98.5494 37.0258 98.7569 36.8766C99.0637 36.667 99.405 36.513 99.7652 36.4216C100.11 36.3212 100.471 36.2878 100.828 36.3233C101.065 36.3524 101.156 36.3997 101.119 36.4471Z" fill="#263238"/>
<path d="M100.174 37.9909C100.159 38.1447 100.085 38.2868 99.9674 38.3873C99.85 38.4878 99.6981 38.5388 99.5438 38.5296C99.468 38.5282 99.3932 38.5116 99.3239 38.4809C99.2545 38.4501 99.1921 38.4058 99.1401 38.3505C99.0882 38.2952 99.0479 38.23 99.0216 38.1589C98.9953 38.0877 98.9835 38.012 98.9869 37.9363C99.0017 37.7824 99.0756 37.6403 99.1931 37.5398C99.3105 37.4394 99.4623 37.3883 99.6166 37.3975C99.6925 37.3989 99.7673 37.4155 99.8366 37.4463C99.9059 37.477 99.9684 37.5214 100.02 37.5767C100.072 37.632 100.113 37.6971 100.139 37.7683C100.165 37.8394 100.177 37.9151 100.174 37.9909Z" fill="#263238"/>
<path d="M108.021 30.8018C107.971 30.6239 107.855 30.4716 107.697 30.3759C107.35 30.2097 106.966 30.1369 106.583 30.1648C105.629 30.1198 104.699 29.8597 103.86 29.404C104.161 29.2678 104.439 29.0847 104.683 28.8617C104.941 28.6352 105.132 28.3427 105.236 28.0155C105.34 27.6884 105.352 27.3391 105.272 27.0053C105.26 26.9426 105.233 26.8838 105.194 26.8333C105.154 26.7827 105.104 26.742 105.047 26.7141C104.854 26.6486 104.683 26.8342 104.537 26.9834C104.36 27.2111 104.125 27.3872 103.857 27.4934C103.589 27.5997 103.297 27.6322 103.012 27.5877C102.613 27.552 102.228 27.4276 101.884 27.2237L101.847 27.18L101.403 26.7068C100.311 25.5602 99.361 24.7594 98.3746 24.3299C96.9186 23.7038 94.4907 23.398 92.9546 23.7584C91.4186 24.1187 90.0208 25.3163 89.766 26.8742C88.9288 26.1462 87.6475 26.0989 86.5956 26.4884H86.5701C85.398 26.8524 84.7064 28.0791 84.3351 29.2512C84.3133 29.313 84.2951 29.3786 84.2769 29.4441C83.8687 30.0585 83.3196 30.5665 82.6753 30.9256C82.5624 30.9874 82.4314 31.0639 82.4132 31.1949C82.395 31.326 82.5005 31.4315 82.6025 31.508C82.8771 31.7137 83.1942 31.8554 83.5307 31.9229C83.4188 32.2019 83.2836 32.471 83.1266 32.7274C82.9883 32.9458 82.8245 33.2078 82.9337 33.4554C82.9844 33.5411 83.0599 33.6096 83.1501 33.6518C83.2404 33.694 83.3413 33.708 83.4397 33.692C83.6355 33.6537 83.8213 33.5757 83.9857 33.4626L83.5744 34.3799C83.9936 34.4613 84.4261 34.4439 84.8374 34.329C85.0183 35.4338 85.2614 36.5275 85.5654 37.605C86.0496 37.605 86.5118 37.5176 86.803 37.7942C87.1998 38.1582 87.3636 38.8608 88.0443 38.6169C88.4083 38.4931 88.725 37.7833 88.8487 37.4339C89.668 35.1201 89.9784 32.6568 89.7587 30.2121C90.2536 29.7112 90.8407 29.3107 91.4877 29.0328L91.4331 29.0764C92.6707 28.687 94.0648 28.3048 95.2114 28.909C96.0996 29.3786 96.6056 30.3286 97.2571 31.093C97.8276 31.7897 98.5367 32.3601 99.3394 32.768C100.142 33.176 101.021 33.4125 101.92 33.4626C102.058 34.7912 101.869 36.462 101.92 37.6996L103.114 35.7413C103.197 35.601 103.272 35.4564 103.34 35.3081L103.361 35.2644C103.478 35.0315 103.587 34.7985 103.725 34.5692C103.866 34.6885 104.044 34.7536 104.228 34.7528C104.413 34.7521 104.59 34.6854 104.73 34.565C104.869 34.4445 104.961 34.2782 104.988 34.0961C105.016 33.9139 104.977 33.728 104.879 33.5718C104.778 33.4254 104.656 33.2953 104.515 33.186C104.663 33.336 104.846 33.4454 105.049 33.5034C105.251 33.5615 105.465 33.5662 105.669 33.5172C105.872 33.4607 106.05 33.3393 106.177 33.1716C106.304 33.004 106.372 32.7993 106.372 32.589C106.357 32.4523 106.308 32.3214 106.23 32.2083C106.152 32.0952 106.047 32.0033 105.924 31.9411C106.465 32.0007 107.012 31.8954 107.493 31.639C107.802 31.4716 108.108 31.1913 108.021 30.8018Z" fill="#263238"/>
<path d="M91.1129 27.4092C90.9518 27.5262 90.8009 27.6565 90.6615 27.7987C90.3046 28.2085 90.06 28.7039 89.9517 29.2365C89.8659 29.6006 89.8183 29.9727 89.8098 30.3467C89.8098 30.7507 89.8098 31.1839 89.8353 31.6389C89.8651 32.1237 89.8651 32.61 89.8353 33.0949C89.8145 33.3487 89.7744 33.6006 89.7151 33.8483C89.6704 34.1151 89.5576 34.3659 89.3875 34.5763C89.3089 34.66 89.2098 34.7218 89.1 34.7556C88.9903 34.7894 88.8736 34.7941 88.7615 34.7693C88.5479 34.7222 88.3559 34.6057 88.2155 34.438C87.9854 34.1054 87.8496 33.7168 87.8223 33.3133H87.9133C87.7739 33.6395 87.5875 33.9436 87.3601 34.216C87.1384 34.4684 86.8283 34.6261 86.4937 34.6564C86.3389 34.6694 86.1835 34.6378 86.046 34.5654C85.9165 34.4962 85.8121 34.388 85.7475 34.256C85.685 34.1361 85.6561 34.0015 85.6638 33.8665C85.673 33.7398 85.7257 33.6202 85.8131 33.528L85.8604 33.5717C85.5902 33.8621 85.2631 34.0938 84.8994 34.2524C84.8032 34.2929 84.7047 34.3282 84.6046 34.3579C84.5706 34.37 84.535 34.3773 84.499 34.3798L84.5973 34.3397C84.6665 34.3143 84.7611 34.2779 84.8849 34.2196C85.2385 34.0554 85.5545 33.8199 85.8131 33.528L85.8567 33.5717C85.7828 33.6624 85.7389 33.7738 85.7311 33.8905C85.7232 34.0073 85.7519 34.1235 85.8131 34.2233C85.8723 34.3401 85.9664 34.4355 86.0824 34.4963C86.209 34.5582 86.3495 34.5858 86.4901 34.5763C86.8013 34.5436 87.088 34.3924 87.2909 34.1541C87.512 33.8867 87.6935 33.5888 87.8296 33.2696L87.8951 33.1313L87.9206 33.2841C87.9453 33.6679 88.0709 34.0383 88.2846 34.3579C88.4104 34.5089 88.5836 34.6128 88.776 34.6528C88.8703 34.6746 88.9687 34.6713 89.0613 34.6432C89.1539 34.6151 89.2375 34.5631 89.3038 34.4926C89.4612 34.2949 89.5663 34.0609 89.6096 33.8119C89.6653 33.5723 89.7043 33.329 89.7261 33.0839C89.7551 32.6088 89.7551 32.1322 89.7261 31.6571C89.7261 31.2021 89.6933 30.7653 89.7261 30.3576C89.7394 29.9783 89.7918 29.6014 89.8826 29.2328C89.9983 28.6886 90.2586 28.1856 90.6361 27.7768C90.7735 27.6286 90.9346 27.5044 91.1129 27.4092Z" fill="#455A64"/>
<path d="M104.552 32.032L104.516 32.0611L104.407 32.1376C104.356 32.1703 104.294 32.2104 104.217 32.2504C104.131 32.3011 104.041 32.3461 103.948 32.3851C103.353 32.6352 102.705 32.7339 102.063 32.6727C101.107 32.582 100.199 32.2181 99.4453 31.6243C98.5371 30.89 97.7878 29.9785 97.2431 28.9453C96.9374 28.4066 96.6935 27.8533 96.4205 27.3437C96.1724 26.8486 95.8549 26.3914 95.4777 25.986C95.1356 25.62 94.7078 25.3448 94.2329 25.1852C94.0185 25.1187 93.7948 25.0867 93.5704 25.0905C93.363 25.0975 93.1573 25.1318 92.9589 25.1925C92.3456 25.3801 91.8257 25.7922 91.5029 26.3463C91.4006 26.5538 91.3189 26.7708 91.259 26.9943C91.2574 26.9797 91.2574 26.9651 91.259 26.9506L91.2808 26.8159C91.322 26.6455 91.3831 26.4806 91.4628 26.3245C91.5942 26.0808 91.7652 25.8606 91.9688 25.6729C92.2415 25.4244 92.5641 25.237 92.9152 25.1233C93.1201 25.0569 93.3333 25.0189 93.5485 25.0105C93.7954 25.0042 94.0416 25.0399 94.2765 25.116C94.7671 25.2745 95.2092 25.555 95.5615 25.9314C95.9417 26.3392 96.2605 26.8003 96.5079 27.3C96.7845 27.8133 97.0284 28.3629 97.3305 28.898C97.8729 29.9202 98.6157 30.8227 99.5145 31.5515C100.253 32.1407 101.145 32.5058 102.084 32.6035C102.716 32.6695 103.353 32.5833 103.944 32.3523C104.345 32.1776 104.545 32.032 104.552 32.032Z" fill="#455A64"/>
<path d="M105.003 30.1208C104.95 30.1577 104.892 30.1883 104.832 30.2118C104.68 30.2981 104.522 30.3723 104.359 30.4338C104.123 30.5285 103.879 30.6028 103.631 30.6559C103.008 30.7845 102.365 30.7845 101.742 30.6559C101.487 30.6057 101.238 30.5339 100.995 30.4411C100.831 30.3797 100.672 30.3067 100.519 30.2227C100.462 30.1941 100.408 30.1599 100.358 30.1208C100.358 30.1208 100.606 30.2336 101.017 30.372C101.255 30.4535 101.498 30.5168 101.745 30.5612C102.052 30.6152 102.362 30.642 102.673 30.6413C102.985 30.6381 103.295 30.6089 103.602 30.554C103.848 30.5044 104.092 30.4388 104.33 30.3574C104.756 30.2373 104.992 30.1026 105.003 30.1208Z" fill="#455A64"/>
<path d="M92.9658 52.2744L97.4685 54.0944C98.5605 54.4111 100.679 56.2056 101.942 57.4177L107.184 64.4065L99.1757 74.1654L92.9658 52.2744Z" fill="#455A64"/>
<path d="M86.6834 48.9766L85.9554 50.1195C85.9554 50.1195 75.3703 52.8786 74.4894 55.0008C73.2591 57.9783 74.8752 67.2275 74.8752 67.2275L77.1102 87.1529L74.0526 98.1784L102.081 98.6589C102.081 98.6589 100.381 69.75 99.9839 66.6924C99.5872 63.6348 96.9191 53.2572 96.9191 53.2572L86.6834 48.9766Z" fill="#455A64"/>
<path d="M99.5221 61.0498C99.5221 61.0498 99.5221 61.0826 99.5221 61.1444C99.5221 61.2063 99.544 61.3046 99.5585 61.4174C99.5828 61.6722 99.6192 62.0217 99.6677 62.4658C99.7624 63.3758 99.8825 64.6971 100.032 66.3278C100.308 69.6038 100.625 74.1028 100.938 79.0896C101.251 84.0764 101.542 88.59 101.786 91.8551C101.91 93.4786 102.008 94.7926 102.077 95.7208C102.11 96.1685 102.136 96.518 102.154 96.7728C102.154 96.8856 102.154 96.9766 102.154 97.0494C102.156 97.0797 102.156 97.1101 102.154 97.1404C102.142 97.1114 102.136 97.0806 102.136 97.0494C102.136 96.9766 102.114 96.8892 102.099 96.7764C102.075 96.5337 102.039 96.1843 101.99 95.7281C101.895 94.8181 101.775 93.4968 101.626 91.866C101.349 88.59 101.033 84.091 100.723 79.1006C100.414 74.1101 100.115 69.6038 99.8715 66.3387C99.7478 64.7153 99.6495 63.4012 99.5804 62.473C99.5476 62.0253 99.5221 61.6759 99.5039 61.4211C99.5039 61.3082 99.5039 61.2172 99.5039 61.1444C99.5062 61.1123 99.5123 61.0805 99.5221 61.0498Z" fill="#263238"/>
<path opacity="0.3" d="M75.4062 93.2856L78.2309 94.3557L79.7997 89.4199C79.7997 89.4199 82.4933 91.4838 84.3788 91.2144C86.2644 90.945 88.9543 89.4199 88.9543 89.4199L95.0586 90.5556L101.742 92.8196L101.25 84.5605L83.5708 83.665L78.2309 84.2911L75.4062 93.2856Z" fill="black"/>
<path d="M58.4083 100.293L62.9656 98.1089C63.3878 96.7002 63.8137 95.2879 64.2796 93.7409L69.7396 96.1687L71.5778 90.4612L77.0378 92.8309L78.8141 87.0906C80.3903 87.8186 81.7261 88.5175 83.1239 88.9907C83.8864 89.2492 84.7128 89.2492 85.4753 88.9907C87.4446 88.1971 89.3301 87.1889 91.2993 86.2352C91.5833 86.7775 91.7616 87.0942 91.9181 87.4218C92.8536 89.3838 92.9191 89.4129 94.9211 88.492C97.0542 87.5128 99.1909 86.5409 101.298 85.5181C102.194 85.0813 102.878 85.1541 103.788 85.671C110.741 89.5767 117.733 89.7915 124.452 85.2415C130.815 80.9281 133.6 74.7109 132.661 67.1325C131.722 59.554 127.426 54.3415 120.325 51.6916C109.128 47.5165 96.9705 54.7601 95.1068 66.5792C94.9503 67.5547 94.5935 68.0752 93.7017 68.4465C91.8817 69.2073 90.0945 70.0663 88.3 70.8926C85.2861 72.2758 85.2897 72.2758 86.247 75.4753C85.6428 75.7993 85.155 76.1051 84.6163 76.3453C77.6384 79.5376 59.0489 87.8331 52.9483 90.5413L50.8262 97.774L58.4083 100.293ZM128.009 67.8969C127.45 69.3456 126.474 70.596 125.205 71.4897C123.935 72.3834 122.429 72.8802 120.876 72.9172C119.324 72.9541 117.796 72.5296 116.485 71.6973C115.174 70.865 114.14 69.6624 113.513 68.2419C112.886 66.8213 112.695 65.2467 112.964 63.7174C113.233 62.1882 113.949 60.7731 115.023 59.6514C116.096 58.5297 117.479 57.7518 118.995 57.4163C120.511 57.0808 122.092 57.2028 123.539 57.7667C124.501 58.1347 125.382 58.6899 126.128 59.4002C126.875 60.1105 127.474 60.9618 127.889 61.9048C128.305 62.8479 128.529 63.864 128.55 64.8943C128.57 65.9247 128.387 66.9489 128.009 67.9078V67.8969Z" fill="#00AAD3"/>
<path opacity="0.3" d="M87.0581 80.6987L55.583 94.345C55.3296 94.4546 55.043 94.459 54.7864 94.3573C54.5297 94.2556 54.324 94.0561 54.2144 93.8027C54.1048 93.5493 54.1004 93.2627 54.2021 93.006C54.3038 92.7494 54.5033 92.5436 54.7567 92.434L86.2282 78.7913C86.3534 78.7365 86.4882 78.7069 86.6248 78.7043C86.7615 78.7017 86.8973 78.7261 87.0245 78.7762C87.1517 78.8262 87.2677 78.9009 87.3659 78.996C87.4641 79.091 87.5426 79.2046 87.5968 79.33C87.6517 79.4552 87.6813 79.59 87.6838 79.7267C87.6864 79.8633 87.662 79.9991 87.6119 80.1263C87.5619 80.2535 87.4872 80.3695 87.3921 80.4678C87.2971 80.566 87.1836 80.6445 87.0581 80.6987Z" fill="black"/>
<path d="M88.7836 80.8086C88.7836 80.8086 88.7544 80.8304 88.6926 80.8632L88.4123 80.9979L87.3203 81.5038L83.3163 83.3238C79.942 84.8636 75.2828 86.9638 70.1176 89.2898C64.9525 91.6158 60.2569 93.6578 56.8389 95.0774C55.1317 95.8054 53.7413 96.3696 52.7803 96.7554L51.6883 97.1922L51.3971 97.3051L51.2988 97.3342C51.2988 97.3342 51.3279 97.316 51.3898 97.2869L51.6738 97.1595L52.7658 96.6863L56.8025 94.9573C60.2059 93.5013 64.8906 91.4228 70.0558 89.1333L83.2762 83.2146L87.2802 81.4383L88.3722 80.9688L88.6598 80.8486L88.7836 80.8086Z" fill="#263238"/>
<path d="M92.2456 87.7245C92.1983 87.7464 90.7641 84.8562 89.0387 81.2672C87.3134 77.6781 85.9593 74.7516 86.003 74.7152C86.0467 74.6788 87.4881 77.5799 89.2098 81.1725C90.9315 84.7652 92.2929 87.7245 92.2456 87.7245Z" fill="#263238"/>
<path d="M131.768 69.5894C131.768 69.5894 131.768 69.4911 131.747 69.3018C131.725 69.1125 131.717 68.825 131.692 68.461C131.692 68.2741 131.681 68.0666 131.659 67.8385C131.634 67.6128 131.586 67.3653 131.546 67.1105C131.506 66.8557 131.459 66.5536 131.412 66.2479C131.351 65.9212 131.274 65.5979 131.179 65.2796C130.768 63.6202 130.106 62.0332 129.217 60.5731C128.057 58.6281 126.532 56.926 124.725 55.5608L123.964 54.993C123.695 54.8146 123.411 54.6544 123.134 54.4834C122.858 54.3123 122.577 54.1194 122.272 53.9847L121.354 53.5443L120.888 53.3222L120.401 53.1439L119.392 52.7799C119.054 52.667 118.701 52.5942 118.351 52.4996C118.001 52.3972 117.645 52.317 117.285 52.2593C116.548 52.1211 115.802 52.0348 115.054 52.0009C114.671 52.0009 114.289 51.9499 113.903 51.9536L112.735 52.0155C112.538 52.0155 112.342 52.0155 112.145 52.0519L111.555 52.1429C111.162 52.2084 110.766 52.2557 110.369 52.3358C109.571 52.5143 108.785 52.7454 108.017 53.0274L107.431 53.2421C107.333 53.2785 107.235 53.3113 107.14 53.3513L106.856 53.486L105.717 54.0393C105.353 54.2395 104.989 54.4761 104.625 54.6945C104.443 54.8073 104.261 54.9093 104.079 55.0367L103.562 55.4261C102.857 55.9472 102.189 56.5152 101.56 57.126L100.665 58.1161L100.439 58.3636L100.235 58.6293L99.831 59.1717L99.4161 59.6959L99.0521 60.2746L98.6881 60.8607L98.5097 61.1519C98.4551 61.2538 98.4078 61.3593 98.3568 61.4613L97.7599 62.7061C97.5997 63.1393 97.4396 63.5725 97.2794 64.0129C96.0667 67.6229 96.0667 71.5303 97.2794 75.1404C97.4396 75.5772 97.5997 76.014 97.7562 76.4471C97.9128 76.8803 98.1566 77.2771 98.3568 77.692L98.5061 78.0014L98.6844 78.2926L99.0484 78.8786L99.4124 79.4574L99.8201 79.9998L100.224 80.5421L100.424 80.8078L100.65 81.059C100.952 81.3866 101.251 81.7178 101.549 82.0454C102.176 82.6563 102.844 83.2242 103.547 83.7453L104.068 84.1348C104.239 84.2659 104.432 84.3641 104.614 84.4988C104.978 84.7172 105.342 84.9502 105.706 85.154L106.845 85.7036L107.129 85.8383L107.42 85.9512L108.006 86.1659C108.774 86.4468 109.56 86.6766 110.358 86.8539C110.755 86.9376 111.155 86.9813 111.545 87.0468L112.134 87.1378C112.331 87.1633 112.527 87.1633 112.724 87.1742L113.892 87.2361C114.278 87.2361 114.66 87.2033 115.043 87.1924C115.791 87.1569 116.537 87.0706 117.274 86.934C117.634 86.8733 117.99 86.7919 118.34 86.6901C118.704 86.5955 119.043 86.5226 119.381 86.4134L120.375 86.0494L120.867 85.8711L121.333 85.6491L122.246 85.2086C122.552 85.0703 122.825 84.8737 123.109 84.7136C123.393 84.5534 123.669 84.3787 123.939 84.204L124.703 83.6325C126.518 82.2697 128.052 80.569 129.22 78.6238C130.104 77.1546 130.759 75.5588 131.161 73.8918C131.255 73.5746 131.333 73.2526 131.393 72.9273C131.441 72.6179 131.484 72.3303 131.528 72.0609C131.572 71.7916 131.616 71.5477 131.641 71.3329C131.666 71.1182 131.663 70.8998 131.674 70.7141C131.699 70.3501 131.714 70.0662 131.728 69.8733C131.743 69.6804 131.75 69.5857 131.75 69.5857C131.75 69.5857 131.75 69.6804 131.75 69.8733C131.75 70.0662 131.732 70.3501 131.717 70.7141C131.717 70.9034 131.699 71.1109 131.692 71.3366C131.685 71.5622 131.623 71.8134 131.586 72.0646C131.55 72.3157 131.506 72.6215 131.459 72.9309C131.403 73.2586 131.329 73.5831 131.237 73.9028C130.834 75.5693 130.18 77.1649 129.297 78.6348C128.137 80.6051 126.607 82.332 124.791 83.7198L124.022 84.295C123.753 84.4733 123.469 84.6371 123.189 84.8118C122.909 84.9866 122.628 85.1758 122.323 85.3142L121.398 85.7619L120.928 85.9839L120.437 86.1659L119.436 86.5299C119.094 86.6464 118.741 86.7192 118.388 86.8139C118.029 86.9192 117.665 87.0019 117.296 87.0614C116.552 87.2004 115.799 87.2892 115.043 87.3271C114.679 87.3271 114.275 87.3817 113.885 87.3744L112.706 87.3162C112.506 87.3162 112.309 87.3162 112.109 87.2798L111.515 87.1888C111.119 87.1232 110.715 87.0796 110.318 86.9958C109.511 86.8179 108.717 86.5868 107.941 86.3043L107.348 86.0858C107.249 86.0494 107.147 86.0167 107.053 85.9766L106.765 85.8383L105.615 85.285C105.251 85.0812 104.887 84.8446 104.505 84.6226C104.319 84.5061 104.141 84.4078 103.952 84.2768L103.427 83.8836C102.715 83.3576 102.038 82.7835 101.404 82.1656L100.497 81.1719L100.268 80.9207L100.064 80.6477L99.6563 80.1017L99.245 79.5557L98.881 78.9696L98.517 78.3763L98.335 78.0815L98.1821 77.7684L97.5779 76.5126C97.4177 76.0758 97.2539 75.6354 97.0938 75.1913C95.8659 71.5427 95.8659 67.5924 97.0938 63.9437C97.2576 63.5033 97.4177 63.0629 97.5779 62.6261C97.738 62.1893 97.9819 61.7852 98.1858 61.3666C98.2367 61.2647 98.284 61.1591 98.3386 61.0572L98.517 60.7587L98.881 60.1691L99.245 59.583L99.6563 59.037L100.064 58.491L100.271 58.218L100.497 57.9669C100.803 57.6356 101.105 57.3007 101.404 56.9731C102.04 56.3571 102.716 55.7832 103.427 55.2551L103.952 54.8619C104.126 54.7309 104.316 54.6326 104.505 54.4979C104.869 54.2759 105.233 54.0393 105.615 53.8354L106.765 53.2822L107.053 53.1439C107.147 53.1038 107.249 53.0711 107.348 53.0347L107.941 52.8199C108.716 52.5362 109.509 52.3039 110.314 52.1247C110.715 52.0446 111.119 51.9973 111.515 51.9317L112.109 51.8444C112.305 51.8189 112.506 51.8189 112.706 51.8043L113.881 51.7461C114.271 51.7461 114.66 51.7788 115.043 51.7934C115.799 51.8315 116.551 51.9203 117.296 52.0591C117.664 52.1204 118.029 52.2031 118.388 52.3067C118.752 52.4049 119.094 52.4777 119.436 52.5906L120.437 52.9546L120.928 53.1366L121.398 53.3586L122.323 53.8063C122.628 53.9483 122.901 54.1449 123.189 54.3123C123.476 54.4797 123.753 54.6472 124.022 54.8255L124.791 55.4043C126.604 56.785 128.132 58.5046 129.29 60.4675C130.175 61.9366 130.83 63.5324 131.233 65.1995C131.324 65.5194 131.398 65.8438 131.455 66.1714C131.503 66.4808 131.543 66.772 131.583 67.0414C131.623 67.3107 131.666 67.5546 131.688 67.7694C131.71 67.9841 131.707 68.2062 131.714 68.3918C131.714 68.7558 131.739 69.0397 131.747 69.2363C131.754 69.4329 131.768 69.5894 131.768 69.5894Z" fill="#263238"/>
<path d="M129.325 65.0833C129.314 65.0368 129.308 64.9892 129.307 64.9413L129.278 64.5227C129.278 64.4329 129.271 64.331 129.256 64.217C129.256 64.1041 129.22 63.984 129.198 63.853C129.159 63.5478 129.097 63.246 129.012 62.9502C128.807 62.1301 128.478 61.3459 128.037 60.6243C126.875 58.7124 125.028 57.3156 122.871 56.7184C120.715 56.1212 118.413 56.3686 116.433 57.4102C116.061 57.6128 115.704 57.8428 115.366 58.0981C115.019 58.3549 114.689 58.6346 114.38 58.9353C114.073 59.2512 113.788 59.5881 113.528 59.9436C112.985 60.6703 112.565 61.4805 112.283 62.3424C111.686 64.1234 111.686 66.0505 112.283 67.8315C112.565 68.6914 112.984 69.5002 113.524 70.2266C113.787 70.5825 114.072 70.9206 114.38 71.2385C114.689 71.5393 115.019 71.819 115.366 72.0757C115.705 72.3298 116.061 72.5597 116.433 72.7637C116.798 72.9575 117.178 73.1241 117.568 73.2624C119.031 73.7948 120.609 73.9267 122.14 73.6446C123.356 73.4169 124.511 72.9343 125.527 72.2285C126.543 71.5227 127.399 70.6097 128.037 69.5496C128.478 68.828 128.807 68.0437 129.012 67.2236C129.097 66.9279 129.159 66.6261 129.198 66.3209C129.22 66.1862 129.245 66.0661 129.256 65.9569L129.278 65.6511L129.307 65.2325C129.308 65.1847 129.314 65.137 129.325 65.0906C129.33 65.1378 129.33 65.1853 129.325 65.2325C129.325 65.3381 129.325 65.4764 129.325 65.6511C129.325 65.7458 129.325 65.8477 129.325 65.9605C129.325 66.0734 129.296 66.1971 129.278 66.3245C129.245 66.633 129.187 66.9385 129.107 67.2382C128.912 68.0704 128.589 68.8673 128.15 69.6005C127.51 70.682 126.648 71.6154 125.621 72.3389C124.594 73.0624 123.425 73.5596 122.191 73.7974C120.632 74.0935 119.022 73.9678 117.528 73.4334C117.131 73.2914 116.745 73.1224 116.371 72.9275C115.99 72.7213 115.625 72.4877 115.279 72.2286C114.924 71.9658 114.588 71.68 114.27 71.3732C113.956 71.0513 113.664 70.7083 113.397 70.3467C112.839 69.601 112.405 68.7701 112.112 67.8861C111.5 66.0663 111.5 64.0966 112.112 62.2768C112.402 61.3991 112.831 60.5733 113.382 59.8308C113.651 59.4687 113.943 59.1246 114.256 58.8006C114.573 58.495 114.91 58.2105 115.264 57.9489C115.611 57.6898 115.976 57.4562 116.356 57.25C116.73 57.0551 117.117 56.886 117.514 56.744C119.008 56.2097 120.618 56.084 122.177 56.38C123.409 56.6159 124.577 57.111 125.603 57.8328C126.629 58.5545 127.489 59.4862 128.128 60.566C128.567 61.2993 128.89 62.0962 129.085 62.9284C129.166 63.2281 129.223 63.5336 129.256 63.842C129.256 63.9767 129.296 64.1005 129.304 64.206C129.311 64.3116 129.304 64.4208 129.304 64.5154C129.304 64.6902 129.304 64.8285 129.304 64.934C129.316 64.9829 129.324 65.0329 129.325 65.0833Z" fill="#263238"/>
<path opacity="0.3" d="M105.75 52.3578V86.6757C107.311 87.4205 108.96 87.9671 110.657 88.3028L110.293 50.8545C108.717 51.1473 107.189 51.653 105.75 52.3578Z" fill="white"/>
<path d="M103.26 85.4162C103.205 85.4162 103.165 78.3692 103.165 69.6769C103.165 60.9845 103.205 53.9375 103.26 53.9375C103.314 53.9375 103.354 60.9845 103.354 69.6769C103.354 78.3692 103.311 85.4162 103.26 85.4162Z" fill="white"/>
<path d="M99.5072 57.6318C99.43 57.7845 99.3386 57.9295 99.2342 58.065C99.0449 58.3344 98.7828 58.7348 98.4807 59.2407C98.1238 59.8298 97.7982 60.4374 97.5052 61.0607C97.1478 61.8236 96.8342 62.6062 96.5661 63.4049C96.3087 64.2078 96.096 65.0245 95.9291 65.851C95.7871 66.6154 95.6888 67.307 95.6379 67.893C95.5869 68.479 95.5542 68.9559 95.5469 69.2871C95.5522 69.4578 95.54 69.6285 95.5105 69.7967C95.4832 69.627 95.4711 69.4553 95.4741 69.2835C95.4741 68.9559 95.4741 68.4754 95.5032 67.8821C95.5506 67.19 95.6356 66.501 95.758 65.8182C96.0659 64.1425 96.5997 62.5163 97.345 60.9843C97.6518 60.3597 97.9921 59.7522 98.3642 59.1643C98.6882 58.6656 98.9648 58.2761 99.1723 58.0177C99.272 57.8791 99.384 57.75 99.5072 57.6318Z" fill="white"/>
<path d="M94.1597 69.5791C93.1115 70.1842 92.0326 70.7346 90.9274 71.228C89.8487 71.7794 88.7418 72.2739 87.6113 72.7095C88.6589 72.1021 89.7379 71.5505 90.8436 71.0569C91.9228 70.5075 93.0296 70.0143 94.1597 69.5791Z" fill="white"/>
<path d="M84.7432 77.2812C84.7432 77.2812 84.7214 77.2995 84.6704 77.3286L84.452 77.4414L83.593 77.8673C82.8468 78.2313 81.773 78.7555 80.4153 79.3888C77.729 80.6592 73.9943 82.3773 69.8593 84.2118C65.7242 86.0464 61.9241 87.6443 59.1722 88.7764C57.7963 89.3442 56.6825 89.7956 55.8962 90.1013L55.0044 90.4471L54.7715 90.5345L54.6914 90.5563C54.6914 90.5563 54.7132 90.5381 54.7642 90.5163L54.9899 90.4107L55.8708 90.0467L59.1104 88.6672C61.8476 87.506 65.6223 85.8862 69.7719 84.0553C73.9215 82.2244 77.6598 80.5208 80.3643 79.2832L83.5639 77.8273L84.4375 77.4341L84.6668 77.3359L84.7432 77.2812Z" fill="white"/>
<path d="M120.808 55.4995C120.808 55.5359 120.179 55.4085 119.167 55.4449C117.848 55.4883 116.556 55.8362 115.394 56.4613C114.231 57.0864 113.229 57.9719 112.465 59.0485C111.876 59.8711 111.639 60.4644 111.606 60.4462C111.641 60.3018 111.693 60.1623 111.763 60.0313C111.93 59.6616 112.128 59.3072 112.356 58.972C113.107 57.855 114.12 56.9389 115.307 56.3038C116.493 55.6686 117.817 55.3337 119.163 55.3284C119.569 55.3251 119.974 55.3543 120.375 55.4157C120.523 55.4257 120.668 55.4538 120.808 55.4995Z" fill="white"/>
<path d="M123.601 53.6135C123.444 53.5608 123.292 53.4925 123.149 53.4097C122.869 53.2641 122.454 53.0712 121.933 52.8455C121.413 52.6198 120.783 52.3905 120.073 52.1648C119.297 51.9332 118.509 51.7473 117.711 51.6079C116.912 51.4765 116.106 51.3939 115.298 51.3604C114.637 51.3379 113.976 51.35 113.318 51.3968C112.753 51.4368 112.295 51.4841 111.982 51.5278C111.82 51.5617 111.655 51.5776 111.49 51.5751C111.646 51.5192 111.807 51.4789 111.971 51.455C112.284 51.3895 112.739 51.3203 113.303 51.2621C113.968 51.1965 114.637 51.171 115.305 51.1856C116.122 51.2122 116.936 51.29 117.744 51.4186C118.549 51.5606 119.344 51.7539 120.124 51.9974C120.76 52.2019 121.382 52.445 121.988 52.7254C122.505 52.9656 122.913 53.1804 123.186 53.3442C123.332 53.4204 123.471 53.5106 123.601 53.6135Z" fill="white"/>
<path opacity="0.3" d="M79.7234 80.1569L80.9646 73.8743L82.4279 73.8161L83.1596 65.6406L81.5871 72.1489L79.9891 71.7922L78.4785 79.9021L79.7234 80.1569Z" fill="black"/>
<path d="M92.5401 82.668C92.5401 82.668 94.7241 81.081 95.4521 80.8153C96.1801 80.5496 98.7281 80.0873 99.6199 79.4648C99.7236 79.5122 99.8133 79.5857 99.8801 79.6781C99.9469 79.7705 99.9886 79.8787 100.001 79.9921C100.014 80.1054 99.9964 80.2201 99.9513 80.3248C99.9062 80.4296 99.8346 80.5208 99.7437 80.5896C99.0123 81.2897 98.1451 81.8324 97.1957 82.1839C96.555 82.3732 96.7589 82.8355 97.2175 82.9956C97.6761 83.1558 100.949 83.7236 100.949 83.7236C100.949 83.7236 104.752 83.8074 105.065 84.1932C105.126 84.2731 105.168 84.3658 105.188 84.4642C105.208 84.5626 105.206 84.6643 105.181 84.7617C105.156 84.859 105.109 84.9494 105.045 85.0262C104.98 85.103 104.899 85.1642 104.807 85.2051C104.581 85.2852 101.316 85.5036 101.316 85.5036L99.6381 85.3034C99.6381 85.3034 104.854 86.268 105.153 86.7048C105.21 86.7746 105.25 86.8569 105.27 86.9451C105.29 87.0333 105.288 87.1249 105.266 87.2125C105.244 87.3 105.201 87.3811 105.141 87.4491C105.082 87.5171 105.007 87.5701 104.923 87.6039C104.658 87.764 102.357 87.3163 102.357 87.3163L99.2231 86.9268L104.927 88.5612C104.927 88.5612 105.444 88.7832 105.335 89.2128C105.226 89.6423 104.519 89.7333 104.519 89.7333L98.4879 88.5612C98.4879 88.5612 101.447 90.636 101.556 90.8908C101.695 91.2548 101.087 91.5824 100.854 91.4332C100.621 91.2839 96.8499 89.6605 96.8499 89.6605L92.5219 87.6912L89.6572 87.724L90.9021 82.4169L92.5401 82.668Z" fill="#FFCAAE"/>
<path d="M79.5746 87.8734L91.8742 87.6914L91.6376 82.5699L78.479 79.9018L80.3754 70.2303L71.4028 68.1592C70.3516 72.7383 69.6567 77.392 69.3244 82.0785C69.3244 82.0785 68.7092 85.9551 73.0991 87.0326C75.231 87.4895 77.3968 87.7707 79.5746 87.8734Z" fill="#FFCAAE"/>
<path d="M69.2109 69.3819L81.5869 72.1483C81.5869 72.1483 83.7491 64.0894 83.8219 61.8544C83.8947 59.6194 80.8335 52.5469 76.5164 53.9774C76.5164 53.9774 75.2133 53.7154 74.023 55.4589C73.5462 56.1614 69.2109 69.3819 69.2109 69.3819Z" fill="#455A64"/>
<path d="M83.2841 60.6939C83.3185 60.0912 83.2732 59.4866 83.1494 58.8958C83.0007 58.2642 82.7758 57.6531 82.4796 57.0758C82.1632 56.3424 81.6615 55.7039 81.0236 55.223C80.3722 54.7703 79.6246 54.475 78.8396 54.3603C78.1926 54.2666 77.5379 54.2361 76.885 54.2693C76.4441 54.2838 76.0055 54.3386 75.5746 54.4331C75.2688 54.5023 75.1087 54.5678 75.1014 54.5533C75.0941 54.5387 75.1378 54.5241 75.2142 54.4914C75.3247 54.4389 75.4391 54.3951 75.5564 54.3603C75.9862 54.2377 76.428 54.1621 76.8741 54.1347C77.5378 54.0822 78.2053 54.1005 78.8651 54.1893C79.6828 54.2974 80.4628 54.5994 81.1401 55.0701C81.7963 55.5722 82.3096 56.2373 82.6289 56.9993C82.9234 57.5961 83.1388 58.2287 83.2695 58.8812C83.3589 59.3217 83.3883 59.7723 83.3569 60.2207C83.3482 60.3429 83.3324 60.4644 83.3096 60.5847C83.3023 60.6503 83.2914 60.6939 83.2841 60.6939Z" fill="#263238"/>
<path d="M83.2832 64.7012C83.2832 64.7012 83.2832 64.7521 83.265 64.8504C83.2468 64.9487 83.2177 65.1016 83.1849 65.269C83.1048 65.6585 82.9956 66.1827 82.8573 66.8306C82.5588 68.1847 82.1475 70.0374 81.6743 72.1705V72.2578H81.5833L79.1045 71.7082L72.1011 70.1139L69.9826 69.6115L69.4111 69.4659C69.342 69.4522 69.2748 69.4302 69.2109 69.4004C69.2809 69.4005 69.3505 69.4091 69.4184 69.4259L70.0008 69.5387L72.1302 69.9828L79.1481 71.5262L81.6051 72.0758L81.4959 72.145L82.7445 66.8233C82.901 66.1827 83.032 65.6585 83.1267 65.2727L83.2359 64.8613C83.2444 64.8061 83.2603 64.7522 83.2832 64.7012Z" fill="#263238"/>
<path d="M131.914 63.6997C132.048 63.7363 132.189 63.7361 132.322 63.6989C132.455 63.6617 132.576 63.589 132.671 63.4886C133.072 63.1246 133.738 62.2146 133.45 61.8688C133.16 61.6166 132.806 61.448 132.427 61.381C132.427 61.381 132.959 60.7112 132.73 60.2198C132.692 60.1276 132.637 60.0435 132.568 59.9726C132.498 59.9018 132.415 59.8454 132.323 59.8068C132.231 59.7682 132.133 59.7482 132.033 59.7479C131.934 59.7475 131.835 59.7669 131.743 59.8049C131.838 59.6025 131.888 59.3823 131.892 59.1589C131.895 58.9355 131.85 58.714 131.761 58.509C131.722 58.401 131.661 58.302 131.582 58.2182C131.503 58.1344 131.408 58.0674 131.303 58.0213L130.669 57.7446C130.669 57.7446 131.234 56.9002 130.589 56.1976C130.449 56.0459 130.281 55.9224 130.094 55.8336C129.699 55.6211 129.246 55.5418 128.802 55.6074C128.358 55.6729 127.947 55.8799 127.63 56.1976C128.14 56.7036 128.722 57.2678 128.587 57.6864C128.587 57.6864 125.912 59.4591 126.603 60.3982C127.048 61.0061 127.513 60.7331 127.513 60.7331C127.513 60.7331 126.851 61.3373 127.2 61.7377C127.312 61.8562 127.459 61.9353 127.619 61.9634C127.787 62.0144 127.964 62.0279 128.138 62.0027C128.311 61.9775 128.477 61.9144 128.624 61.8178L129.064 61.5703C129.012 61.7193 129.001 61.8796 129.033 62.0341C129.066 62.1887 129.139 62.3316 129.246 62.4475C129.277 62.473 129.31 62.4961 129.344 62.5167C129.506 62.6149 129.693 62.6642 129.882 62.6583C130.072 62.6525 130.255 62.5919 130.411 62.4839L131.405 61.8797L131.492 62.3674C131.492 62.3674 130.906 63.0263 131.914 63.6997Z" fill="#FFCAAE"/>
<path d="M131.914 63.6996C131.788 63.6311 131.674 63.5439 131.575 63.4412C131.451 63.3183 131.36 63.1653 131.313 62.9971C131.283 62.8783 131.281 62.7544 131.306 62.6345C131.331 62.5147 131.383 62.4022 131.459 62.3055V62.3419C131.429 62.189 131.4 62.0252 131.368 61.8541L131.444 61.8869L130.851 62.2873L130.527 62.5057C130.41 62.5926 130.28 62.659 130.141 62.7023C129.988 62.7498 129.825 62.7598 129.668 62.7313C129.51 62.7027 129.361 62.6366 129.235 62.5385C129.096 62.4274 129.003 62.2694 128.972 62.0944C128.942 61.9185 128.952 61.7381 129.002 61.5666L129.111 61.6539C128.896 61.7704 128.699 61.9015 128.452 62.0179C128.195 62.1252 127.909 62.1444 127.64 62.0725C127.494 62.046 127.356 61.9862 127.236 61.8978C127.17 61.8489 127.117 61.7852 127.08 61.7118C127.044 61.6385 127.025 61.5576 127.025 61.4756C127.036 61.319 127.089 61.1682 127.178 61.0388C127.259 60.9068 127.356 60.7846 127.465 60.6748L127.567 60.8131C127.474 60.8599 127.37 60.8843 127.265 60.8843C127.16 60.8843 127.057 60.8599 126.963 60.8131C126.778 60.7241 126.623 60.5839 126.515 60.4091C126.459 60.3172 126.425 60.214 126.413 60.107C126.402 60 126.414 59.8918 126.45 59.7903C126.512 59.595 126.607 59.4116 126.73 59.2479C127.244 58.6061 127.859 58.0517 128.55 57.6063L128.514 57.6572C128.537 57.4853 128.491 57.3113 128.386 57.1731C128.28 57.0068 128.158 56.8508 128.022 56.7072C127.88 56.5543 127.735 56.4087 127.589 56.2631L127.524 56.2012L127.586 56.1321C127.895 55.7942 128.314 55.5764 128.769 55.5169C129.204 55.4614 129.646 55.5229 130.05 55.6953C130.255 55.7656 130.443 55.8804 130.599 56.0314C130.755 56.1824 130.876 56.3659 130.953 56.5689C131.01 56.7706 131.023 56.9824 130.991 57.1898C130.959 57.3971 130.883 57.595 130.767 57.7701L130.731 57.6427L131.382 57.9302C131.497 57.9843 131.599 58.0608 131.684 58.1552C131.768 58.2496 131.833 58.36 131.874 58.4799C131.957 58.695 131.997 58.9247 131.99 59.1555C131.983 59.3863 131.93 59.6133 131.833 59.823L131.739 59.7102C131.852 59.6658 131.973 59.6457 132.094 59.6514C132.215 59.657 132.333 59.6882 132.441 59.7429C132.64 59.862 132.787 60.0499 132.856 60.2707C132.902 60.4811 132.879 60.7005 132.791 60.8968C132.718 61.0766 132.622 61.2456 132.503 61.3991L132.467 61.2972C132.756 61.3552 133.033 61.4623 133.286 61.6139C133.414 61.6827 133.516 61.7913 133.577 61.9233C133.608 62.0552 133.599 62.1932 133.552 62.3201C133.397 62.705 133.165 63.0543 132.871 63.3465C132.703 63.548 132.465 63.6781 132.205 63.7105C132.138 63.7216 132.071 63.7216 132.005 63.7105C131.961 63.7105 131.939 63.6887 131.939 63.6851C132.026 63.6984 132.114 63.6984 132.201 63.6851C132.449 63.638 132.671 63.5005 132.824 63.2992C133.097 63.0083 133.313 62.6672 133.457 62.2946C133.489 62.1866 133.489 62.0714 133.457 61.9633C133.403 61.8553 133.317 61.7673 133.209 61.7122C132.967 61.5733 132.702 61.4773 132.427 61.4283L132.332 61.4064L132.39 61.3263C132.509 61.188 132.598 61.0269 132.652 60.8528C132.706 60.6788 132.723 60.4955 132.703 60.3144C132.64 60.1299 132.51 59.9755 132.339 59.8813C132.251 59.8372 132.153 59.8125 132.054 59.8087C131.955 59.805 131.856 59.8223 131.764 59.8594L131.575 59.9286L131.67 59.7466C131.749 59.5551 131.79 59.3497 131.79 59.1423C131.79 58.935 131.749 58.7296 131.67 58.5381C131.637 58.4397 131.584 58.3491 131.514 58.2721C131.445 58.195 131.36 58.1332 131.266 58.0904L130.614 57.8065L130.523 57.7664L130.578 57.6754C130.677 57.5225 130.742 57.3503 130.77 57.1703C130.797 56.9902 130.787 56.8063 130.738 56.6307C130.668 56.4532 130.56 56.293 130.422 56.1616C130.283 56.0302 130.118 55.9306 129.937 55.87C129.563 55.7121 129.153 55.6556 128.75 55.7062C128.339 55.7604 127.96 55.9576 127.68 56.2631V56.1321C127.829 56.2777 127.975 56.4269 128.121 56.5798C128.267 56.7337 128.398 56.9006 128.514 57.0785C128.581 57.1687 128.629 57.2719 128.654 57.3816C128.679 57.4913 128.681 57.605 128.659 57.7155V57.7482L128.63 57.7701C127.961 58.2031 127.364 58.7386 126.861 59.3571C126.643 59.6556 126.464 60.0414 126.65 60.3181C126.738 60.4625 126.864 60.5797 127.014 60.6566C127.083 60.6898 127.159 60.7071 127.236 60.7071C127.313 60.7071 127.389 60.6898 127.458 60.6566L127.968 60.3981L127.56 60.7949C127.358 60.9635 127.221 61.1981 127.174 61.4574C127.156 61.6903 127.415 61.8469 127.651 61.8905C127.891 61.9622 128.148 61.9493 128.379 61.8541C128.594 61.7559 128.812 61.6175 129.023 61.4901L129.18 61.4064L129.129 61.5775C129.071 61.7153 129.058 61.8674 129.09 62.0133C129.122 62.1591 129.198 62.2916 129.307 62.3929C129.416 62.4803 129.545 62.5399 129.682 62.5665C129.819 62.5932 129.96 62.586 130.094 62.5457C130.336 62.4448 130.564 62.314 130.774 62.1563L131.375 61.7704L131.437 61.7267V61.7995C131.462 61.9743 131.491 62.1381 131.517 62.2909C131.448 62.3774 131.399 62.478 131.373 62.5855C131.347 62.6931 131.345 62.805 131.368 62.9134C131.411 63.0736 131.492 63.221 131.604 63.3429C131.793 63.6268 131.921 63.6996 131.914 63.6996Z" fill="#FF9A6C"/>
<path d="M130.804 57.4906C130.799 57.722 130.737 57.9486 130.622 58.1494C130.377 58.653 130.033 59.1013 129.61 59.4671C129.192 59.829 128.737 60.145 128.252 60.4099C128.062 60.5359 127.855 60.634 127.637 60.7011C127.799 60.5411 127.983 60.4039 128.183 60.2934C128.638 60.0013 129.072 59.6778 129.482 59.3251C129.887 58.9724 130.231 58.5555 130.501 58.0912C130.702 57.7308 130.774 57.4797 130.804 57.4906Z" fill="#FF9A6C"/>
<path d="M131.769 59.6416C131.794 59.6416 131.743 59.8709 131.481 60.082C131.219 60.2932 130.866 60.5261 130.466 60.81C129.996 61.1623 129.49 61.4626 128.955 61.7055C129.384 61.3047 129.855 60.952 130.36 60.6535C130.761 60.3842 131.139 60.1512 131.401 59.9838C131.535 59.8822 131.658 59.7676 131.769 59.6416Z" fill="#FF9A6C"/>
<path d="M132.496 61.3525C132.525 61.3925 132.299 61.6036 131.961 61.7529C131.622 61.9021 131.313 61.9276 131.302 61.8766C131.291 61.8257 131.561 61.7201 131.884 61.5782C132.208 61.4362 132.474 61.3088 132.496 61.3525Z" fill="#FF9A6C"/>
<path d="M132.34 61.8802C132.34 61.9348 132.089 61.9857 131.841 62.1641C131.594 62.3425 131.459 62.5572 131.408 62.5281C131.357 62.499 131.434 62.2114 131.732 62.0003C132.031 61.7892 132.347 61.8438 132.34 61.8802Z" fill="#FF9A6C"/>
</svg>
