<svg width="163" height="163" viewBox="0 0 163 163" fill="none" xmlns="http://www.w3.org/2000/svg">
<path d="M14.5424 72.5908L25.082 76.3235L22.4251 77.8655L15.0575 82.0742L12.6875 83.4336L14.5424 72.5908Z" fill="#EBEBEB"/>
<path d="M60.4371 130.449L67.0028 127.472L52.7109 103.12L46.2724 108.848L34.9407 88.9816L28.7076 93.2033L18.5657 74.918L14.8428 76.4925L27.2243 101.145L34.2561 95.0582L44.9293 117.23L51.3091 110.312L60.4371 130.449Z" fill="#EBEBEB"/>
<path d="M155.075 102.567C154.812 104.354 154.024 106.024 152.812 107.363C151.6 108.703 150.017 109.653 148.264 110.092C146.512 110.532 144.668 110.441 142.967 109.832C141.266 109.223 139.784 108.123 138.708 106.671C137.633 105.219 137.013 103.48 136.926 101.675C136.84 99.8706 137.291 98.0807 138.223 96.5325C139.154 94.9842 140.524 93.7473 142.159 92.9783C143.794 92.2093 145.621 91.9429 147.407 92.2127C149.795 92.5734 151.942 93.8655 153.38 95.806C154.817 97.7466 155.426 100.177 155.075 102.567Z" fill="#F5F5F5"/>
<path d="M152.927 102.244C152.725 103.604 152.125 104.875 151.202 105.894C150.278 106.913 149.073 107.636 147.739 107.97C146.405 108.304 145.001 108.235 143.707 107.771C142.412 107.307 141.284 106.469 140.465 105.364C139.647 104.258 139.175 102.935 139.109 101.561C139.043 100.188 139.386 98.825 140.094 97.6462C140.803 96.4675 141.846 95.5255 143.09 94.9396C144.334 94.3537 145.725 94.1501 147.085 94.3547C147.986 94.489 148.853 94.7996 149.634 95.2688C150.416 95.738 151.097 96.3565 151.64 97.0891C152.182 97.8217 152.575 98.654 152.796 99.5385C153.017 100.423 153.061 101.342 152.927 102.244Z" fill="#EBEBEB"/>
<path d="M152.959 102.038C152.91 101.756 152.89 101.47 152.9 101.184C152.856 100.422 152.696 99.671 152.424 98.9575C152.235 98.4704 151.992 98.0057 151.701 97.572C151.367 97.0773 150.97 96.628 150.521 96.2354C150.279 96.0207 150.021 95.8255 149.748 95.6519C149.468 95.467 149.173 95.3045 148.868 95.1662C148.551 95.0214 148.224 94.9015 147.89 94.8076C147.545 94.7127 147.194 94.643 146.84 94.5989C146.484 94.5573 146.126 94.5432 145.767 94.5565C145.419 94.5714 145.073 94.6118 144.731 94.6772C144.398 94.7395 144.071 94.8289 143.753 94.9445C143.448 95.0501 143.151 95.1787 142.866 95.3292C142.337 95.6076 141.846 95.9527 141.406 96.3561C141.022 96.7103 140.678 97.1049 140.379 97.5329C139.95 98.1638 139.62 98.8564 139.401 99.5867C139.345 99.8676 139.259 100.142 139.146 100.405C139.103 100.115 139.12 99.82 139.199 99.5378C139.35 98.7536 139.645 98.0042 140.069 97.3275C140.362 96.8538 140.71 96.4161 141.106 96.0235C141.562 95.5758 142.077 95.1929 142.638 94.8858C142.94 94.7172 143.255 94.5722 143.58 94.4522C143.92 94.3259 144.268 94.2256 144.623 94.1523C144.991 94.0766 145.363 94.0309 145.738 94.0154C146.508 93.9823 147.279 94.0737 148.02 94.286C148.38 94.3905 148.73 94.5223 149.07 94.6804C149.398 94.8339 149.714 95.0127 150.015 95.2151C150.303 95.4116 150.575 95.6296 150.83 95.8671C151.718 96.6719 152.383 97.6911 152.763 98.8271C153.015 99.5851 153.126 100.383 153.089 101.181C153.106 101.473 153.062 101.765 152.959 102.038Z" fill="#E0E0E0"/>
<path d="M146.214 105.429L146.054 106.628L144.982 106.482L145.141 105.315C144.193 105.155 143.309 104.733 142.589 104.095L143.355 102.87C143.912 103.382 144.593 103.74 145.331 103.909L145.572 102.123C144.421 101.673 143.15 101.096 143.355 99.5639C143.508 98.4294 144.467 97.5655 146.185 97.6079L146.344 96.418L147.417 96.5647L147.26 97.7317C148.02 97.8779 148.734 98.2031 149.344 98.6804L148.63 99.9257C148.166 99.5647 147.635 99.2998 147.068 99.1466L146.82 100.966C147.971 101.406 149.226 101.98 149.021 103.489C148.871 104.597 147.925 105.451 146.214 105.429ZM145.787 100.539L145.992 99.0162C145.405 99.0683 145.138 99.3422 145.093 99.7008C145.047 100.059 145.334 100.333 145.787 100.548V100.539ZM147.28 103.368C147.329 102.993 147.045 102.749 146.608 102.524L146.406 104.004C146.957 103.968 147.231 103.72 147.28 103.378V103.368Z" fill="#E0E0E0"/>
<path d="M148.457 30.9248C148.227 32.4798 147.54 33.9316 146.485 35.0963C145.429 36.2611 144.051 37.0865 142.526 37.468C141.001 37.8496 139.398 37.7702 137.918 37.2399C136.438 36.7096 135.149 35.7522 134.213 34.4889C133.278 33.2257 132.738 31.7132 132.663 30.1431C132.587 28.5729 132.979 27.0157 133.789 25.6683C134.598 24.321 135.79 23.2442 137.212 22.5742C138.634 21.9042 140.223 21.6711 141.777 21.9044C142.808 22.0579 143.799 22.4129 144.693 22.9493C145.586 23.4858 146.366 24.193 146.986 25.0307C147.606 25.8684 148.055 26.8201 148.308 27.8314C148.56 28.8428 148.611 29.8939 148.457 30.9248Z" fill="#F5F5F5"/>
<path d="M146.589 30.6445C146.415 31.8301 145.893 32.9373 145.089 33.8262C144.286 34.7151 143.236 35.3456 142.074 35.6381C140.912 35.9305 139.69 35.8717 138.561 35.4691C137.432 35.0664 136.449 34.3381 135.734 33.3762C135.019 32.4143 134.606 31.262 134.547 30.0652C134.487 28.8684 134.784 27.6808 135.399 26.6527C136.015 25.6246 136.921 24.8022 138.005 24.2895C139.088 23.7768 140.298 23.5968 141.484 23.7724C142.271 23.8877 143.027 24.157 143.709 24.5649C144.392 24.9728 144.987 25.5113 145.462 26.1496C145.936 26.7879 146.279 27.5135 146.473 28.2848C146.666 29.0561 146.706 29.858 146.589 30.6445Z" fill="#EBEBEB"/>
<path d="M146.616 30.4554C146.573 30.2101 146.556 29.961 146.563 29.7122C146.529 29.0425 146.389 28.3824 146.149 27.7562C145.985 27.332 145.774 26.9274 145.52 26.55C145.227 26.1192 144.881 25.727 144.49 25.3829C144.28 25.197 144.055 25.028 143.819 24.8776C143.575 24.7159 143.319 24.5742 143.052 24.4538C142.778 24.3237 142.493 24.2147 142.202 24.1278C141.901 24.0451 141.595 23.9841 141.286 23.9452C140.975 23.9123 140.662 23.9003 140.35 23.9093C140.048 23.9217 139.747 23.9577 139.45 24.0169C139.162 24.0698 138.878 24.1472 138.603 24.2484C138.338 24.3371 138.081 24.4461 137.833 24.5744C137.372 24.8155 136.945 25.1158 136.562 25.4676C136.227 25.7761 135.928 26.1205 135.669 26.4945C135.291 27.0425 135.001 27.6464 134.811 28.2843C134.762 28.5281 134.687 28.7662 134.59 28.995C134.552 28.7424 134.567 28.4848 134.635 28.2386C134.768 27.5567 135.024 26.9047 135.391 26.3152C135.647 25.9062 135.95 25.5287 136.294 25.1905C136.693 24.8046 137.143 24.4755 137.631 24.2125C137.894 24.0643 138.169 23.9378 138.453 23.8344C138.747 23.723 139.05 23.6358 139.359 23.5736C139.681 23.508 140.008 23.4677 140.337 23.453C140.673 23.4406 141.01 23.4526 141.344 23.4888C141.675 23.5312 142.002 23.5988 142.322 23.6909C142.637 23.7753 142.944 23.8843 143.242 24.0169C143.527 24.1496 143.8 24.3055 144.06 24.4831C144.312 24.65 144.551 24.8364 144.774 25.0406C145.185 25.4156 145.543 25.8444 145.84 26.3152C146.096 26.7241 146.303 27.1618 146.456 27.6192C146.676 28.2783 146.773 28.9723 146.743 29.6665C146.759 29.9357 146.716 30.2051 146.616 30.4554Z" fill="#E0E0E0"/>
<path d="M140.741 33.4148L140.601 34.4613L139.668 34.3342L139.805 33.317C138.978 33.1856 138.204 32.8241 137.572 32.2738L138.241 31.2046C138.726 31.6505 139.319 31.9627 139.962 32.1108L140.17 30.5526C139.17 30.1614 138.061 29.6593 138.241 28.326C138.374 27.348 139.219 26.5851 140.705 26.6177L140.845 25.5811L141.778 25.7082L141.641 26.7253C142.303 26.851 142.926 27.1339 143.457 27.5501L142.837 28.6357C142.437 28.316 141.977 28.0789 141.484 27.938L141.269 29.5257C142.273 29.9071 143.362 30.4091 143.186 31.7229C143.052 32.6944 142.231 33.4377 140.741 33.4148ZM140.366 29.1768L140.545 27.85C140.037 27.8957 139.805 28.1402 139.763 28.4466C139.721 28.753 139.975 28.9812 140.366 29.1671V29.1768ZM141.67 31.6414C141.716 31.3154 141.468 31.1002 141.087 30.9079L140.911 32.2119C141.39 32.1467 141.628 31.9478 141.667 31.6218L141.67 31.6414Z" fill="#E0E0E0"/>
<path d="M55.2175 20.8642C55.912 23.3949 55.8401 26.0748 55.0108 28.5646C54.1815 31.0544 52.6321 33.2422 50.5589 34.851C48.4856 36.4599 45.9816 37.4174 43.3638 37.6025C40.7461 37.7875 38.1323 37.1917 35.8533 35.8906C33.5743 34.5894 31.7326 32.6413 30.5613 30.2929C29.3899 27.9445 28.9417 25.3014 29.2733 22.6982C29.6049 20.0949 30.7013 17.6486 32.4239 15.6688C34.1465 13.689 36.4177 12.2648 38.9501 11.5764C40.6281 11.1181 42.3799 10.9948 44.1056 11.2135C45.8312 11.4322 47.4969 11.9887 49.0074 12.8512C50.518 13.7136 51.8439 14.8651 52.9094 16.24C53.975 17.6149 54.7593 19.1862 55.2175 20.8642Z" fill="#F5F5F5"/>
<path d="M52.1596 21.6821C52.6895 23.611 52.635 25.6536 52.0031 27.5515C51.3712 29.4493 50.1903 31.117 48.61 32.3432C47.0297 33.5695 45.121 34.2992 43.1257 34.4399C41.1304 34.5807 39.1382 34.1261 37.4014 33.1338C35.6646 32.1416 34.2613 30.6562 33.3692 28.8659C32.4772 27.0755 32.1365 25.0607 32.3903 23.0766C32.6441 21.0925 33.481 19.2284 34.795 17.7202C36.109 16.2121 37.841 15.1278 39.7716 14.6047C42.3528 13.9053 45.1059 14.2575 47.4278 15.5841C49.7498 16.9106 51.4513 19.1035 52.1596 21.6821Z" fill="#EBEBEB"/>
<path d="M52.0884 21.3756C52.0297 21.3951 51.8732 20.9779 51.5113 20.2737C51.0073 19.2892 50.3541 18.3886 49.5749 17.6038C48.4229 16.4434 47.005 15.5817 45.4445 15.0936C44.9982 14.9501 44.5415 14.8412 44.0785 14.7676C43.597 14.686 43.1097 14.6424 42.6213 14.6372C42.1154 14.6301 41.6097 14.6617 41.1087 14.7317C40.5939 14.8027 40.085 14.9116 39.5863 15.0577C39.0913 15.2194 38.6086 15.4166 38.1421 15.6478C37.6886 15.8697 37.2527 16.1258 36.8381 16.4139C36.437 16.692 36.0577 17.0005 35.7036 17.3364C35.3618 17.6575 35.0436 18.0029 34.7517 18.3699C34.2102 19.0501 33.7588 19.7974 33.4086 20.5932C33.1038 21.2885 32.8775 22.0156 32.7337 22.7611C32.5278 23.852 32.4926 24.9683 32.6294 26.07C32.724 26.8556 32.8283 27.2892 32.7696 27.3055C32.7109 27.3218 32.5251 26.9143 32.3328 26.1221C32.0715 24.9912 32.0239 23.8214 32.1926 22.6731C32.3071 21.8752 32.5161 21.0939 32.8152 20.3454C33.1627 19.4828 33.6255 18.6713 34.191 17.933C34.4942 17.5311 34.8288 17.1539 35.1918 16.8051C35.5667 16.4368 35.9713 16.0999 36.4012 15.7977C36.8461 15.4808 37.316 15.2006 37.8063 14.9599C38.8149 14.4606 39.8986 14.1302 41.0141 13.9819C41.5542 13.9081 42.0992 13.8776 42.6441 13.8906C43.1703 13.9005 43.6948 13.954 44.2122 14.0504C44.7077 14.1372 45.1959 14.2615 45.6727 14.422C46.5513 14.7165 47.3859 15.1288 48.1535 15.6478C48.8208 16.1003 49.4315 16.6312 49.9726 17.2289C50.7539 18.0863 51.3696 19.0811 51.7884 20.1629C52.0721 20.9159 52.1307 21.3625 52.0884 21.3756Z" fill="#E0E0E0"/>
<path d="M45.1055 29.8524L45.5912 31.5443L44.0818 31.9779L43.6091 30.3479C42.0867 30.6739 40.5186 30.6315 39.4983 30.2207L39.8014 28.1376C40.8409 28.4902 41.9539 28.5677 43.0321 28.3625L42.3084 25.8393C40.5154 25.9143 38.4811 25.8915 37.8585 23.7333C37.3988 22.1294 38.1682 20.4212 40.4665 19.4627L39.984 17.7871L41.4934 17.3535L41.9661 18.9835C43.0641 18.7325 44.206 18.7459 45.2978 19.0226L45.0794 21.0993C44.2494 20.8902 43.3862 20.8481 42.5398 20.9754L43.2799 23.5443C45.0696 23.4562 47.0712 23.4856 47.6841 25.6144C48.1536 27.1922 47.394 28.8841 45.1055 29.8524ZM41.6759 23.6095L41.0761 21.4644C40.3263 21.8751 40.1372 22.4033 40.2807 22.902C40.4241 23.4008 40.9522 23.5866 41.6759 23.6095ZM45.3141 26.5011C45.1641 25.973 44.6425 25.8132 43.9286 25.7708L44.5252 27.8572C45.2424 27.4726 45.4608 26.9868 45.3141 26.5011Z" fill="#E0E0E0"/>
<path d="M25.7117 43.2151C25.4095 44.8281 24.6356 46.3151 23.488 47.4881C22.3403 48.661 20.8705 49.4671 19.2645 49.8044C17.6586 50.1416 15.9886 49.9949 14.4661 49.3827C12.9436 48.7705 11.6369 47.7204 10.7114 46.3653C9.78591 45.0101 9.28324 43.4109 9.26701 41.77C9.25078 40.1291 9.72171 38.5202 10.6202 37.1471C11.5187 35.7739 12.8044 34.6982 14.3145 34.056C15.8246 33.4138 17.4913 33.234 19.1036 33.5395C20.1729 33.7407 21.1921 34.1506 22.1029 34.7459C23.0138 35.3411 23.7984 36.1099 24.412 37.0084C25.0257 37.9069 25.4563 38.9175 25.6793 39.9825C25.9023 41.0474 25.9133 42.1459 25.7117 43.2151Z" fill="#F5F5F5"/>
<path d="M23.7755 42.8459C23.5453 44.0753 22.9555 45.2088 22.0809 46.1028C21.2062 46.9969 20.086 47.6114 18.8619 47.8686C17.6379 48.1257 16.365 48.014 15.2045 47.5474C14.044 47.0809 13.048 46.2805 12.3426 45.2477C11.6371 44.2149 11.2539 42.996 11.2415 41.7452C11.2291 40.4945 11.588 39.2683 12.2728 38.2216C12.9576 37.175 13.9375 36.355 15.0885 35.8655C16.2395 35.376 17.5099 35.239 18.7388 35.4718C20.3846 35.7818 21.8398 36.7328 22.7843 38.1157C23.7289 39.4986 24.0854 41.2001 23.7755 42.8459Z" fill="#EBEBEB"/>
<path d="M23.7984 42.6504C23.7629 42.3933 23.7553 42.1332 23.7756 41.8745C23.763 41.1797 23.642 40.4912 23.417 39.8337C23.0898 38.8665 22.5301 37.9944 21.787 37.2942C21.5753 37.0903 21.3474 36.9039 21.1056 36.7367C20.8575 36.5601 20.5959 36.4032 20.3232 36.2673C20.0407 36.1242 19.7475 36.0032 19.4463 35.9054C19.1358 35.8072 18.8188 35.731 18.4976 35.6772C18.1738 35.6296 17.847 35.6045 17.5196 35.6023C17.2042 35.604 16.8893 35.6291 16.5775 35.6772C16.2749 35.7241 15.9763 35.7938 15.6843 35.8859C15.4049 35.9744 15.1325 36.0833 14.8693 36.2119C13.9461 36.6517 13.1439 37.3096 12.5318 38.1288C12.1173 38.6853 11.7928 39.3036 11.5701 39.9609C11.5075 40.2134 11.4201 40.459 11.3093 40.6944C11.283 40.4261 11.3176 40.1553 11.4104 39.9022C11.5739 39.196 11.8668 38.5262 12.2743 37.9266C12.5541 37.509 12.8824 37.126 13.2523 36.7856C13.6833 36.3969 14.1647 36.068 14.6834 35.8076C14.9646 35.6639 15.2567 35.5429 15.5571 35.4458C15.8687 35.342 16.1881 35.2635 16.5123 35.2111C16.8494 35.1536 17.1907 35.1242 17.5327 35.123C17.8842 35.1255 18.235 35.1539 18.5824 35.2078C18.9293 35.2646 19.2715 35.3474 19.606 35.4556C19.9269 35.5659 20.2386 35.701 20.5384 35.8598C20.8307 36.0106 21.1108 36.1839 21.3762 36.3781C21.6307 36.5638 21.8714 36.7676 22.0967 36.9878C22.8764 37.7504 23.4457 38.7015 23.7495 39.749C23.9544 40.4454 24.0274 41.1741 23.9647 41.8973C23.9609 42.157 23.9043 42.4133 23.7984 42.6504Z" fill="#E0E0E0"/>
<path d="M17.5653 45.5065L17.3763 46.5921L16.3983 46.4226L16.5808 45.3663C15.7223 45.1914 14.931 44.7765 14.2988 44.1699L15.0388 43.0843C15.5273 43.5681 16.1327 43.9174 16.796 44.0982L17.0796 42.4682C16.0494 42.0183 14.9117 41.4511 15.1529 40.0656C15.3322 39.0387 16.232 38.2889 17.7935 38.3802L17.9794 37.3076L18.9574 37.4739L18.7748 38.5301C19.4607 38.6901 20.0987 39.0108 20.6363 39.4657L19.9451 40.5709C19.5347 40.2274 19.0605 39.9682 18.5499 39.808L18.263 41.438C19.2931 41.8781 20.4146 42.4421 20.1733 43.8081C20.0071 44.8447 19.1171 45.588 17.5653 45.5065ZM17.3437 41.0566L17.5849 39.6809C17.0503 39.7102 16.7992 39.9547 16.7406 40.2742C16.6819 40.5937 16.9525 40.848 17.3437 41.0566ZM18.602 43.6842C18.6607 43.3582 18.4129 43.1137 18.0217 42.8953L17.787 44.2319C18.2923 44.2058 18.5466 43.9906 18.602 43.6842Z" fill="#E0E0E0"/>
<path d="M155.245 116.307L147.326 116.021L148.679 117.729L152.435 122.42L153.641 123.936L155.245 116.307Z" fill="#F5F5F5"/>
<path d="M109.92 142.472L106.37 138.801L122.135 126.478L124.887 131.929L137.529 121.794L140.538 126.198L151.987 116.793L154.031 118.801L139.446 131.822L136.398 125.976L123.583 137.804L121.184 131.584L109.92 142.472Z" fill="#F5F5F5"/>
<path d="M140.193 45.8096L129.614 51.4429L132.679 52.6556L141.155 55.9417L143.883 57.0044L140.193 45.8096Z" fill="#E0E0E0"/>
<path d="M100.757 114.433L93.3242 112.327L104.597 84.242L112.333 89.2852L121.181 66.4294L128.457 69.9111L136.298 48.9199L140.496 49.9925L131.293 78.0937L122.873 72.7603L115.088 97.9568L107.225 91.639L100.757 114.433Z" fill="#E0E0E0"/>
<path d="M155.639 154.354C155.639 154.403 122.129 154.442 80.7988 154.442C39.4685 154.442 5.94922 154.403 5.94922 154.354C5.94922 154.305 39.4522 154.27 80.7988 154.27C122.145 154.27 155.639 154.309 155.639 154.354Z" fill="#263238"/>
<path d="M93.0406 154.279H101.083V141.119H93.0406V154.279Z" fill="#00AAD3"/>
<path d="M125.467 154.279H133.51V131.952H125.467V154.279Z" fill="#00AAD3"/>
<path d="M141.683 154.276H149.726V146.165H141.683V154.276Z" fill="#00AAD3"/>
<path d="M109.253 154.276H117.295V134.863H109.253V154.276Z" fill="#00AAD3"/>
<path d="M76.8248 154.279H84.8672V130.09H76.8248V154.279Z" fill="#00AAD3"/>
<path d="M60.6128 154.276H68.6553V123.16H60.6128V154.276Z" fill="#00AAD3"/>
<path d="M44.4009 154.279H52.4434L52.4434 115.449H44.4009L44.4009 154.279Z" fill="#00AAD3"/>
<path d="M28.1832 154.276H36.2256L36.2256 104.985H28.1832L28.1832 154.276Z" fill="#00AAD3"/>
<path d="M11.9703 154.276H20.0127L20.0127 89.4806H11.9703L11.9703 154.276Z" fill="#00AAD3"/>
<path d="M135.665 145.556C134.35 143.062 132.4 140.959 130.013 139.46C127.625 137.96 124.885 137.117 122.067 137.014C125.474 133.243 126.146 127.407 124.18 122.719C122.214 118.031 117.888 114.533 113.031 113.027C108.173 111.521 102.863 111.873 98.0346 113.431C98.5986 109.767 94.9311 106.106 91.2668 106.677C91.9961 106.178 92.5115 105.423 92.7108 104.562C92.9101 103.701 92.779 102.796 92.3433 102.027C91.9076 101.258 91.1991 100.681 90.358 100.409C89.5169 100.138 88.6045 100.192 87.8014 100.561L88.0199 73.6758H72.0459L72.261 100.548C71.4526 100.142 70.5193 100.063 69.654 100.326C68.7886 100.589 68.0574 101.174 67.6113 101.961C67.1652 102.748 67.0383 103.676 67.2569 104.553C67.4755 105.431 68.0229 106.191 68.7859 106.677C65.1216 106.106 61.4541 109.767 62.0148 113.431C57.177 111.873 51.8632 111.518 47.0188 113.027C42.1745 114.537 37.8159 118.028 35.8599 122.719C33.9039 127.41 34.5559 133.243 37.9756 137.014C35.1578 137.117 32.4168 137.96 30.0289 139.46C27.6411 140.959 25.6909 143.062 24.3749 145.556C22.8883 148.463 22.7449 152.757 25.6398 154.276H134.4C137.292 152.757 137.155 148.463 135.665 145.556Z" fill="#EBEBEB"/>
<path d="M25.6303 154.276L25.2424 154.045C24.8683 153.794 24.5379 153.483 24.2644 153.125C23.8379 152.528 23.5495 151.843 23.42 151.12C23.2419 150.129 23.2541 149.112 23.4559 148.124C23.6937 146.876 24.1649 145.684 24.8446 144.61C25.635 143.31 26.6138 142.135 27.7493 141.122C29.0564 139.94 30.5472 138.979 32.1633 138.276L32.8153 137.999L33.4934 137.761C33.7222 137.679 33.9551 137.608 34.1911 137.549C34.429 137.484 34.6638 137.409 34.9083 137.357C35.9079 137.132 36.926 137 37.9498 136.962L37.9107 137.047C36.8821 135.885 36.0784 134.542 35.5407 133.086C34.7963 131.027 34.5327 128.824 34.77 126.647C35.0073 124.47 35.7392 122.376 36.9099 120.525C37.4076 119.712 37.9818 118.948 38.6247 118.243C41.3755 115.237 45.0224 113.197 49.0241 112.427C51.1408 112.009 53.3048 111.882 55.456 112.049C57.6854 112.229 59.8864 112.667 62.0152 113.353L61.9174 113.438C61.7909 112.553 61.8872 111.649 62.1977 110.811C62.5233 109.941 63.0254 109.148 63.6722 108.481C64.3191 107.815 65.0968 107.289 65.9565 106.938C66.853 106.576 67.8299 106.46 68.7862 106.602L68.7275 106.745C67.9844 106.233 67.4599 105.462 67.2576 104.582C67.0553 103.703 67.1898 102.78 67.6345 101.995C68.0792 101.209 68.802 100.619 69.6602 100.341C70.5185 100.062 71.45 100.115 72.2711 100.489L72.157 100.564C72.0853 92.0069 72.0136 82.9832 71.9386 73.6922V73.6074H88.0821V73.6759C88.0071 82.9441 87.9322 91.9319 87.8637 100.548L87.7496 100.473C88.5707 100.099 89.5022 100.046 90.3605 100.324C91.2187 100.603 91.9415 101.193 92.3862 101.978C92.8309 102.763 92.9654 103.687 92.7631 104.566C92.5608 105.445 92.0364 106.217 91.2932 106.729L91.2345 106.586C92.1751 106.447 93.1355 106.559 94.0186 106.912C94.8813 107.258 95.6628 107.78 96.3138 108.443C96.9647 109.107 97.4708 109.899 97.8002 110.768C98.124 111.621 98.225 112.542 98.0936 113.445L97.9958 113.36C100.124 112.674 102.326 112.236 104.555 112.056C106.703 111.889 108.863 112.015 110.977 112.431C114.975 113.2 118.619 115.233 121.373 118.23C122.015 118.936 122.59 119.7 123.091 120.512C123.587 121.294 124.006 122.121 124.343 122.983C124.672 123.822 124.92 124.69 125.083 125.575C125.24 126.436 125.322 127.308 125.328 128.183C125.331 129.85 125.045 131.505 124.48 133.073C123.941 134.536 123.134 135.884 122.1 137.05L122.064 136.966C123.089 137.003 124.108 137.135 125.109 137.36C125.35 137.415 125.588 137.49 125.826 137.552C126.063 137.612 126.295 137.684 126.524 137.767L127.205 138.005L127.857 138.283C129.476 138.986 130.969 139.948 132.278 141.132C133.411 142.147 134.388 143.324 135.179 144.623C135.856 145.698 136.326 146.89 136.565 148.138C136.763 149.124 136.773 150.14 136.594 151.13C136.463 151.851 136.175 152.535 135.75 153.132C135.477 153.49 135.147 153.799 134.772 154.048C134.518 154.204 134.384 154.279 134.384 154.279L134.765 154.035C135.129 153.781 135.449 153.471 135.714 153.116C136.132 152.519 136.413 151.838 136.539 151.12C136.711 150.136 136.697 149.127 136.496 148.147C136.256 146.907 135.785 145.723 135.108 144.656C134.317 143.366 133.34 142.199 132.209 141.194C130.906 140.019 129.419 139.064 127.808 138.367L127.156 138.093L126.478 137.859C126.251 137.775 126.019 137.703 125.784 137.644C125.546 137.582 125.311 137.51 125.07 137.455C124.075 137.234 123.063 137.104 122.045 137.067H121.937L122.009 136.985C123.031 135.828 123.828 134.49 124.359 133.04C124.918 131.481 125.201 129.836 125.194 128.18C125.185 127.314 125.103 126.45 124.949 125.598C124.786 124.72 124.538 123.859 124.209 123.029C123.874 122.174 123.458 121.353 122.967 120.577C122.471 119.781 121.904 119.032 121.272 118.338C118.536 115.365 114.916 113.35 110.948 112.59C108.845 112.179 106.697 112.055 104.561 112.222C102.345 112.404 100.157 112.841 98.0414 113.526L97.9241 113.562L97.9404 113.441C98.0685 112.562 97.9697 111.664 97.6535 110.833C97.3293 109.989 96.8342 109.221 96.1991 108.577C95.5641 107.933 94.8029 107.427 93.9632 107.091C93.1058 106.745 92.1722 106.633 91.2574 106.765L90.9151 106.82L91.2019 106.621C91.9076 106.13 92.4044 105.393 92.595 104.555C92.7856 103.717 92.6563 102.838 92.2323 102.09C91.8084 101.342 91.1204 100.779 90.3032 100.512C89.4861 100.245 88.5986 100.293 87.8148 100.646L87.7007 100.698V100.571C87.7691 91.9612 87.8376 82.9669 87.9126 73.6987L87.9974 73.7835H72.0462L72.1309 73.6987C72.2027 82.9897 72.2744 92.0101 72.3428 100.571V100.698L72.2255 100.646C71.4457 100.306 70.5679 100.266 69.7606 100.534C68.9533 100.802 68.2735 101.359 67.8518 102.098C67.4301 102.836 67.2963 103.705 67.4759 104.536C67.6556 105.368 68.1362 106.103 68.8253 106.602L69.1122 106.801L68.7666 106.745C67.8421 106.609 66.8979 106.721 66.0315 107.071C65.1802 107.416 64.4114 107.937 63.7756 108.6C62.5139 109.904 61.8196 111.71 62.0836 113.402L62.1032 113.523L61.9858 113.487C59.8704 112.801 57.6823 112.363 55.4658 112.183C53.3291 112.018 51.1798 112.141 49.0762 112.551C45.0978 113.318 41.4727 115.348 38.7388 118.338C38.1025 119.036 37.5317 119.791 37.0338 120.594C36.5412 121.368 36.1263 122.189 35.795 123.045C34.5443 126.254 34.4957 129.806 35.6581 133.047C36.1913 134.491 36.9871 135.824 38.0053 136.979L38.077 137.06H37.9661C36.9502 137.098 35.9398 137.227 34.9474 137.448C34.7061 137.5 34.4714 137.575 34.2334 137.637C33.9955 137.699 33.7673 137.764 33.5391 137.849L32.8642 138.084L32.2122 138.358C30.6018 139.052 29.1153 140.005 27.8112 141.177C26.6811 142.184 25.7037 143.351 24.9098 144.64C24.2332 145.707 23.7612 146.891 23.5178 148.131C23.3165 149.112 23.301 150.121 23.4722 151.107C23.5964 151.826 23.878 152.509 24.297 153.106C24.561 153.464 24.8827 153.776 25.2489 154.028L25.6303 154.276Z" fill="#263238"/>
<path d="M59.293 36.8512L79.4104 13.4346L98.7422 36.8512H91.1986V75.0453H67.7787V36.8935L59.293 36.8512Z" fill="#00AAD3"/>
<path d="M154.844 74.9053L140.601 79.2835L144.059 81.4644L153.641 87.4269L156.721 89.3536L154.844 74.9053Z" fill="#00AAD3"/>
<path d="M90.5699 149.028L81.9863 144.738L102.345 113.273L110.612 121.198L126.782 95.5088L134.854 101.432L149.357 77.7744L154.234 80.0532L136.399 112.021L127.366 103.587L111.939 132.363L103.822 122.867L90.5699 149.028Z" fill="#00AAD3"/>
<g opacity="0.3">
<path d="M98.9709 140.916C97.0149 139.612 94.4916 139.482 92.1933 139.938C91.4338 140.088 90.5927 140.284 89.9276 139.89C89.2626 139.495 89.0409 138.667 88.7801 137.934C87.437 134.243 83.7532 131.713 79.8771 131.068C76.0009 130.422 72.8909 130.742 69.3799 132.493C66.9079 133.662 64.7989 135.479 63.2771 137.751C62.7523 138.537 61.7971 140.137 61.7971 140.137C61.0962 140.652 60.1671 140.688 59.3065 140.828C57.5282 141.148 55.8811 141.978 54.5656 143.216C53.2501 144.455 52.3228 146.049 51.8965 147.805L101.142 147.026C102.068 144.861 100.924 142.211 98.9709 140.916Z" fill="black"/>
</g>
<path d="M49.2002 151.03C50.7389 145.576 56.8058 141.833 62.3706 142.909C63.5409 136.976 69.2166 132.265 75.2769 132.216C81.3373 132.167 87.0879 136.78 88.3528 142.704C91.6943 141.934 95.2868 141.364 98.4784 142.619C101.67 143.874 104.112 147.616 102.791 150.769" fill="#EBEBEB"/>
<path d="M102.792 150.782C102.792 150.782 102.792 150.749 102.818 150.687C102.844 150.625 102.867 150.534 102.902 150.416C102.957 150.269 102.995 150.116 103.017 149.96C103.066 149.754 103.096 149.543 103.105 149.331C103.176 147.929 102.757 146.545 101.918 145.419C101.347 144.613 100.63 143.919 99.8054 143.375C98.8292 142.748 97.7355 142.326 96.5911 142.136C95.2929 141.92 93.9715 141.881 92.6628 142.019C91.216 142.179 89.7816 142.436 88.3694 142.788H88.2944V142.713C87.7109 140.198 86.4017 137.909 84.5291 136.131C82.4875 134.156 79.8839 132.862 77.0767 132.428C75.3023 132.171 73.4928 132.317 71.7825 132.855C68.5948 133.862 65.8698 135.971 64.0954 138.804C63.3148 140.068 62.7631 141.46 62.4654 142.915V142.984H62.3937C61.2041 142.765 59.9861 142.75 58.7914 142.938C58.24 143.022 57.6953 143.145 57.1614 143.306L56.4018 143.57C56.1475 143.652 55.9193 143.779 55.6813 143.877C55.2348 144.083 54.7995 144.313 54.3773 144.565L53.7938 144.956L53.5069 145.148L53.2461 145.357L52.7376 145.764C52.5746 145.898 52.4311 146.051 52.2812 146.188C52.1312 146.325 51.9878 146.462 51.8574 146.606L51.4857 147.029C50.7427 147.892 50.1339 148.861 49.6797 149.905C49.5232 150.266 49.4417 150.557 49.3537 150.746C49.2657 150.935 49.2461 151.036 49.2461 151.036C49.2461 151.036 49.3504 150.628 49.6275 149.888C50.0685 148.833 50.6688 147.851 51.4075 146.977L51.7824 146.544C51.9128 146.4 52.0627 146.266 52.2062 146.123C52.3496 145.98 52.4963 145.83 52.6626 145.693L53.1711 145.279C53.2592 145.207 53.3439 145.135 53.4352 145.067L53.7188 144.871L54.3089 144.473C54.7369 144.216 55.1788 143.982 55.6324 143.773C55.8704 143.671 56.1019 143.541 56.3562 143.447L57.1255 143.176C57.6666 143.01 58.219 142.884 58.7783 142.798C59.9884 142.601 61.2232 142.612 62.4295 142.83L62.3448 142.889C62.6436 141.414 63.2022 140.003 63.9943 138.723C64.8518 137.341 65.9428 136.119 67.2185 135.111C68.5612 134.041 70.0865 133.224 71.7205 132.698C73.4551 132.153 75.2904 132.006 77.0898 132.268C79.9312 132.706 82.5663 134.016 84.6301 136.017C86.5236 137.821 87.8454 140.141 88.4313 142.69L88.3368 142.632C89.7584 142.288 91.2015 142.041 92.6563 141.892C93.9776 141.756 95.3113 141.801 96.6204 142.025C97.7828 142.221 98.8925 142.654 99.8804 143.297C100.712 143.853 101.433 144.559 102.006 145.38C102.847 146.522 103.258 147.925 103.166 149.341C103.152 149.555 103.118 149.768 103.065 149.976C103.038 150.129 102.995 150.279 102.938 150.423C102.896 150.537 102.863 150.625 102.84 150.694C102.828 150.725 102.812 150.754 102.792 150.782Z" fill="#263238"/>
<path d="M72.1305 67.1099C72.3391 80.2053 61.9039 91.0285 48.8704 91.2339C35.8369 91.4393 25.0724 80.9616 24.854 67.8662C24.6355 54.7708 35.0773 43.9476 48.1108 43.7422C61.1443 43.5368 71.9218 54.0177 72.1305 67.1099ZM37.1898 67.6739C37.2364 69.9064 37.9434 72.0751 39.2214 73.9063C40.4994 75.7374 42.2911 77.149 44.3706 77.9628C46.45 78.7766 48.7239 78.9563 50.9053 78.479C53.0868 78.0018 55.0779 76.889 56.6276 75.2812C58.1772 73.6734 59.2159 71.6426 59.6125 69.4451C60.0091 67.2476 59.7458 64.9818 58.856 62.9338C57.9662 60.8857 56.4896 59.1471 54.6126 57.9375C52.7356 56.7278 50.5424 56.1012 48.3097 56.1367C45.3058 56.1942 42.4476 57.4414 40.3626 59.6046C38.2777 61.7677 37.1366 64.67 37.1898 67.6739Z" fill="#E0E0E0"/>
<path d="M72.131 67.1105C72.3396 80.2059 61.9044 91.0291 48.8709 91.2345L48.672 78.8465C51.6835 78.7985 54.5525 77.5562 56.648 75.3929C58.7434 73.2296 59.8937 70.3224 59.8457 67.311C59.7977 64.2996 58.5554 61.4306 56.3921 59.3351C54.2288 57.2396 51.3216 56.0894 48.3102 56.1373L48.1113 43.7493C61.1448 43.5342 71.9191 54.0183 72.131 67.1105Z" fill="#455A64"/>
<path d="M48.7104 91.4036L48.5083 78.6896H48.6713C50.8806 78.6443 53.0271 77.9462 54.8405 76.6835C56.6539 75.4207 58.0532 73.6497 58.8621 71.5933C59.6711 69.5369 59.8536 67.2872 59.3866 65.1274C58.9196 62.9675 57.824 60.9941 56.2378 59.4556C55.1916 58.4309 53.9524 57.6243 52.5919 57.0826C51.2314 56.5409 49.7769 56.2748 48.3127 56.2999H48.1497L47.9443 43.5859H48.1073C54.4321 43.5049 60.5307 45.9363 65.065 50.3465C69.5993 54.7567 72.1988 60.7855 72.2933 67.1101C72.5019 80.2968 61.9982 91.195 48.8734 91.4069L48.7104 91.4036ZM48.8376 79.0156L49.0299 91.0776C61.9004 90.781 72.1759 80.0653 71.9673 67.1166C71.8746 60.9067 69.3336 54.9845 64.8971 50.6384C60.4605 46.2922 54.4874 43.8736 48.2769 43.9087L48.4692 55.9707C51.476 55.9958 54.3539 57.1955 56.4882 59.3136C58.6225 61.4317 59.8441 64.3003 59.8922 67.3069C59.9403 70.3134 58.811 73.2196 56.7455 75.4049C54.6801 77.5902 51.8421 78.8813 48.8376 79.0026V79.0156Z" fill="#455A64"/>
<path d="M50.9928 93.1444C35.7458 93.3921 23.5795 81.5583 23.335 66.2363L37.767 66.0049C37.8843 73.3301 43.4589 77.9397 50.7483 77.8224L50.9928 93.1444Z" fill="#00AAD3"/>
<path d="M31.6222 66.5041C31.7134 66.566 30.3508 68.7079 28.5773 71.28C26.8039 73.8521 25.288 75.8929 25.1967 75.844C25.1054 75.7951 26.4714 73.6402 28.2448 71.0648C30.0182 68.4894 31.5341 66.4259 31.6222 66.5041Z" fill="#263238"/>
<path d="M37.9002 67.6933C37.9915 67.7585 35.9735 70.8458 33.3949 74.5915C30.8162 78.3372 28.645 81.3201 28.5538 81.2582C28.4625 81.1962 30.4804 78.109 33.0623 74.3633C35.6443 70.6176 37.8154 67.6314 37.9002 67.6933Z" fill="#263238"/>
<path d="M40.9516 74.1125C41.0461 74.1744 39.227 76.9715 36.8961 80.3554C34.5652 83.7393 32.5995 86.432 32.5082 86.3701C32.4169 86.3081 34.2327 83.5111 36.5636 80.1272C38.8945 76.7433 40.8603 74.0473 40.9516 74.1125Z" fill="#263238"/>
<path d="M46.2662 77.6627C46.3575 77.7246 44.5416 80.5184 42.2107 83.9056C39.8798 87.2927 37.9141 89.9757 37.8163 89.9203C37.7185 89.8648 39.5408 87.0612 41.875 83.6741C44.2091 80.287 46.1749 77.5877 46.2662 77.6627Z" fill="#263238"/>
<path d="M50.8166 82.1522C50.9112 82.2174 49.4246 84.5287 47.5045 87.3193C45.5843 90.1098 43.9478 92.3331 43.8565 92.2582C43.7653 92.1832 45.2486 89.8816 47.172 87.0911C49.0954 84.3005 50.7254 82.1033 50.8166 82.1522Z" fill="#263238"/>
<path d="M126.084 21.8941C126.084 21.8941 127.509 18.6145 127.577 18.0994C127.646 17.5844 127.505 16.4466 127.137 16.1434C126.984 15.9954 126.787 15.9 126.576 15.8713C126.365 15.8426 126.151 15.882 125.963 15.9837C125.94 15.7771 125.852 15.5833 125.711 15.4303C125.571 15.2773 125.385 15.1731 125.181 15.1328C125.1 15.1043 125.013 15.0959 124.928 15.1084C124.843 15.1209 124.762 15.1539 124.692 15.2046C124.622 15.2552 124.566 15.3221 124.528 15.3993C124.49 15.4765 124.471 15.5618 124.474 15.6479C124.478 15.5011 124.431 15.3573 124.341 15.2417C124.25 15.1261 124.122 15.046 123.978 15.0155C123.789 14.9856 123.596 15.014 123.424 15.097C123.424 15.097 122.73 14.4776 122.263 14.8623C121.797 15.2469 122.335 21.2225 122.335 21.2225L126.084 21.8941Z" fill="#FFBF9D"/>
<path d="M122.25 20.5383C122.25 20.5383 120.979 18.3508 120.985 17.7542C120.992 17.1576 121.706 15.7982 122.104 15.6352C122.501 15.4722 124.06 15.1104 124.06 15.1104C124.06 15.1104 124.712 15.7135 123.75 16.31L122.661 16.9523C122.661 16.9523 124.408 17.5358 124.353 19.3223" fill="#FFBF9D"/>
<path d="M124.353 19.3054C124.325 19.0249 124.271 18.7476 124.19 18.4774C124.075 18.1784 123.901 17.9057 123.678 17.6754C123.384 17.379 123.03 17.1499 122.639 17.0039L122.492 16.9485L122.625 16.8735L123.734 16.2215C123.923 16.1151 124.073 15.9504 124.161 15.752C124.192 15.6499 124.194 15.541 124.166 15.4379C124.139 15.3347 124.083 15.2414 124.004 15.1685L124.079 15.1881L123.242 15.3869L122.59 15.5597C122.482 15.5923 122.374 15.6216 122.264 15.6575C122.214 15.6729 122.165 15.6914 122.117 15.7129C122.076 15.7365 122.038 15.7638 122.003 15.7944C121.73 16.0958 121.51 16.4407 121.351 16.8148C121.266 16.986 121.195 17.1637 121.139 17.3462C121.079 17.5098 121.056 17.6844 121.07 17.858C121.148 18.1736 121.257 18.4805 121.396 18.7741C121.644 19.325 121.872 19.7521 122.026 20.0618C122.111 20.2152 122.186 20.3743 122.251 20.5377C122.141 20.4004 122.045 20.253 121.964 20.0976C121.794 19.8042 121.55 19.3772 121.286 18.8262C121.133 18.5262 121.014 18.2102 120.93 17.8841C120.907 17.6895 120.928 17.4922 120.992 17.3071C121.051 17.1171 121.122 16.9309 121.204 16.7496C121.373 16.3534 121.609 15.9894 121.902 15.6738C121.948 15.6317 122 15.5956 122.055 15.5662C122.108 15.5414 122.162 15.5196 122.218 15.501C122.326 15.4652 122.436 15.4326 122.544 15.4032C122.761 15.3424 122.979 15.2837 123.196 15.2272L124.04 15.0283H124.086L124.115 15.0577C124.217 15.1529 124.29 15.2752 124.325 15.4102C124.361 15.5453 124.357 15.6876 124.314 15.8205C124.212 16.0532 124.037 16.2465 123.815 16.3714L122.691 16.9974V16.867C123.099 17.0259 123.467 17.2743 123.766 17.5939C123.996 17.8394 124.17 18.132 124.275 18.4513C124.312 18.5682 124.338 18.6882 124.353 18.8099C124.37 18.8991 124.377 18.9899 124.373 19.0805C124.376 19.156 124.37 19.2316 124.353 19.3054Z" fill="#FF9A6C"/>
<path d="M124.344 15.6904C124.168 16.3266 124.105 16.9886 124.158 17.6464C124.157 17.8678 124.232 18.0827 124.37 18.256C124.446 18.3301 124.54 18.3842 124.642 18.4138C124.744 18.4433 124.852 18.4474 124.956 18.4256C125.167 18.3751 125.357 18.2613 125.501 18.0996" fill="#FFBF9D"/>
<path d="M125.51 18.1253C125.51 18.1253 125.406 18.3503 125.044 18.4807C124.935 18.5159 124.82 18.5254 124.707 18.5084C124.593 18.4914 124.486 18.4485 124.392 18.3829C124.291 18.2878 124.212 18.1723 124.159 18.0442C124.106 17.916 124.081 17.7781 124.086 17.6396C124.007 16.9749 124.101 16.3011 124.359 15.6836C124.269 16.3249 124.234 16.9728 124.255 17.62C124.25 17.7358 124.268 17.8514 124.308 17.96C124.349 18.0686 124.41 18.1681 124.49 18.2525C124.565 18.307 124.651 18.3448 124.742 18.3634C124.833 18.3819 124.927 18.3808 125.018 18.3601C125.191 18.3011 125.356 18.2224 125.51 18.1253Z" fill="#FF9A6C"/>
<path d="M122.945 16.8701C122.862 17.0988 122.844 17.3458 122.893 17.5841C122.893 17.7374 122.941 17.8869 123.031 18.0114C123.12 18.136 123.246 18.2294 123.392 18.2784C123.639 18.3371 123.959 18.0079 124.106 17.6623" fill="#FFBF9D"/>
<path d="M124.105 17.6622C124.121 17.6622 124.105 17.8252 123.952 18.0306C123.869 18.1557 123.757 18.2587 123.626 18.3305C123.53 18.3681 123.424 18.3681 123.329 18.3305C123.231 18.298 123.143 18.242 123.071 18.1675C122.941 18.0298 122.859 17.8537 122.837 17.6654C122.829 17.5221 122.829 17.3785 122.837 17.2351C122.837 16.9776 122.957 16.8472 122.97 16.857C122.983 16.8667 122.941 17.0102 122.97 17.2351L123.016 17.6426C123.043 17.7951 123.113 17.9365 123.218 18.0501C123.272 18.1042 123.336 18.1464 123.407 18.174C123.467 18.1985 123.534 18.1985 123.593 18.174C123.71 18.1211 123.813 18.0432 123.896 17.9458C124.014 17.7861 124.079 17.6524 124.105 17.6622Z" fill="#FF9A6C"/>
<path d="M126.081 16.0127C125.722 16.4021 125.462 16.8715 125.321 17.3819C125.267 17.5089 125.249 17.6481 125.268 17.7847C125.287 17.9213 125.343 18.0503 125.429 18.1578C125.549 18.2382 125.692 18.2786 125.836 18.2733C125.981 18.2681 126.12 18.2174 126.234 18.1284C126.421 18.0114 126.581 17.8572 126.706 17.6755C126.83 17.4938 126.916 17.2884 126.958 17.0722" fill="#FFBF9D"/>
<path d="M126.958 17.0728C126.966 17.3078 126.892 17.5382 126.749 17.7248C126.612 17.9416 126.422 18.1208 126.198 18.2464C126.06 18.3223 125.906 18.3636 125.748 18.367C125.657 18.3688 125.567 18.3477 125.486 18.3055C125.405 18.2634 125.336 18.2016 125.286 18.1258C125.197 17.9756 125.164 17.7992 125.191 17.627C125.209 17.4787 125.246 17.3332 125.299 17.1934C125.381 16.9638 125.49 16.7449 125.625 16.5414C125.734 16.34 125.889 16.1669 126.078 16.0361C126.097 16.0557 125.924 16.248 125.726 16.6034C125.61 16.8105 125.516 17.029 125.445 17.2554C125.398 17.3848 125.368 17.5194 125.354 17.6564C125.334 17.7907 125.358 17.9279 125.422 18.0476C125.569 18.279 125.905 18.2334 126.123 18.1193C126.329 18.0109 126.508 17.8571 126.645 17.6694C126.766 17.48 126.871 17.2804 126.958 17.0728Z" fill="#FF9A6C"/>
<path d="M108.386 42.898C108.386 42.898 110.153 40.9909 110.85 40.5638C111.548 40.1368 116.145 34.6567 116.63 33.2158C117.116 31.7749 121.625 20.1986 121.52 20.3551C121.416 20.5116 127.245 21.5776 127.245 21.5776C127.245 21.5776 122.925 34.9436 122.397 36.4562C121.445 39.224 116.728 44.8279 114.042 48.1922C112.894 49.6234 111.31 54.2069 111.31 54.2069L108.386 42.898Z" fill="#263238"/>
<path d="M112.598 50.0864C112.51 49.7435 112.454 49.3932 112.431 49.04C112.356 48.388 112.288 47.4882 112.272 46.4907C112.255 45.4931 112.291 44.5868 112.343 43.9348C112.357 43.5807 112.4 43.2285 112.474 42.8818C112.499 43.2346 112.499 43.5886 112.474 43.9413C112.451 44.5933 112.435 45.4931 112.451 46.4874C112.467 47.4817 112.516 48.3782 112.562 49.0302C112.599 49.3809 112.611 49.734 112.598 50.0864Z" fill="#455A64"/>
<path d="M83.4561 118.129L80.972 123.192L80.646 124.431C80.646 124.431 82.3054 131.952 81.2687 132.695L73.875 120.76L75.7788 119.56L78.1489 114.501L83.4561 118.129Z" fill="#455A64"/>
<path d="M73.8945 120.761L74.8301 120.223L81.5686 131.867C81.5686 131.867 81.6794 132.536 81.2882 132.695L73.8945 120.761Z" fill="#263238"/>
<path d="M80.8478 124.588C80.7891 124.62 80.5838 124.347 80.2284 124.167C79.8731 123.988 79.5471 123.985 79.5373 123.916C79.5275 123.848 79.8992 123.737 80.323 123.959C80.7468 124.18 80.9 124.568 80.8478 124.588Z" fill="#263238"/>
<path d="M81.1282 126.162C81.0826 126.208 80.8316 126.015 80.4762 125.96C80.1209 125.905 79.8242 126.006 79.8047 125.96C79.7851 125.914 80.0622 125.667 80.5023 125.742C80.9424 125.817 81.1739 126.11 81.1282 126.162Z" fill="#263238"/>
<path d="M80.1503 127.74C80.1047 127.694 80.3329 127.44 80.7273 127.414C81.1218 127.388 81.4087 127.573 81.3793 127.626C81.35 127.678 81.0827 127.626 80.7599 127.648C80.4372 127.671 80.1959 127.792 80.1503 127.74Z" fill="#263238"/>
<path d="M108.793 80.8838C108.552 81.4576 96.079 100.551 93.5199 102.674C90.9608 104.796 82.2272 122.211 82.2272 122.211C82.2272 122.211 75.0911 118.752 74.9314 119.127C74.7716 119.502 79.9355 106.833 83.0162 101.63C86.0969 96.4275 87.5345 94.4161 87.5345 94.4161L93.6633 78.0737C93.6633 78.0737 93.7904 72.6914 94.5761 70.5985C95.3618 68.5056 97.6699 66.6865 97.6699 66.6865L108.793 80.8838Z" fill="#263238"/>
<path d="M97.5589 103.958L90.9248 104.434C90.9248 104.434 89.223 111.701 87.9908 111.916L86.5303 98.3868L96.8319 97.2002L97.5589 103.958Z" fill="#455A64"/>
<path d="M91.0324 100.19C90.9872 100.062 90.8939 99.9561 90.7723 99.8953C90.6507 99.8344 90.5102 99.8232 90.3804 99.8639C90.259 99.9166 90.1612 100.012 90.1059 100.133C90.0505 100.253 90.0415 100.389 90.0805 100.516C90.1318 100.646 90.2301 100.751 90.3558 100.812C90.4815 100.872 90.6253 100.883 90.7586 100.842C90.8816 100.773 90.9742 100.66 91.0183 100.526C91.0623 100.392 91.0546 100.247 90.9966 100.118" fill="#E0E0E0"/>
<path d="M86.5469 98.3865L87.5901 98.3115L88.5974 111.309C88.5974 111.309 88.4148 111.938 88.0073 111.915L86.5469 98.3865Z" fill="#263238"/>
<path d="M91.0162 104.646C90.951 104.646 90.8891 104.32 90.6511 104.02C90.4131 103.72 90.1328 103.574 90.1523 103.509C90.1719 103.443 90.5435 103.509 90.8239 103.877C91.1043 104.245 91.0749 104.646 91.0162 104.646Z" fill="#263238"/>
<path d="M90.6285 106.126C90.5699 106.145 90.4329 105.871 90.1428 105.676C89.8527 105.48 89.5658 105.448 89.5625 105.382C89.5593 105.317 89.9081 105.236 90.2634 105.483C90.6188 105.731 90.6709 106.116 90.6285 106.126Z" fill="#263238"/>
<path d="M89.0898 107.107C89.0702 107.049 89.3734 106.921 89.7418 107.055C90.1101 107.189 90.2699 107.479 90.221 107.515C90.1721 107.551 89.97 107.378 89.67 107.273C89.3701 107.169 89.1028 107.172 89.0898 107.107Z" fill="#263238"/>
<path d="M92.5128 104.359C92.4541 104.34 92.5128 104.033 92.4443 103.655C92.3758 103.277 92.2357 103.003 92.2846 102.964C92.3335 102.925 92.591 103.179 92.6595 103.616C92.7279 104.053 92.5845 104.385 92.5128 104.359Z" fill="#263238"/>
<path d="M91.7493 75.8764C91.7493 75.8764 91.733 82.2399 94.6214 84.3882C97.5098 86.5365 107.524 94.6214 107.524 94.6214L91.5342 97.3532L92.7306 104.766C92.7306 104.766 114.315 102.589 116.956 101.705C119.596 100.822 121.497 96.3524 119.43 93.2293C118.39 91.6711 107.645 76.3947 107.645 76.3947L107.319 72.2969L93.7738 73.151L91.7493 75.8764Z" fill="#263238"/>
<path d="M92.731 104.767C92.7172 104.725 92.7073 104.683 92.7017 104.64C92.6821 104.542 92.6593 104.415 92.63 104.255C92.568 103.906 92.4833 103.414 92.3757 102.781C92.1605 101.477 91.8508 99.6389 91.4727 97.3634V97.3014H91.5346L106.133 94.7847L107.518 94.5467L107.479 94.6967C105.227 92.8352 103.085 91.0814 101.132 89.5068L98.3545 87.29C97.4841 86.6021 96.6463 85.986 95.9552 85.334C94.8565 84.329 93.8991 83.1797 93.1092 81.9175C92.8958 81.5751 92.7032 81.2202 92.5322 80.8547C92.4702 80.7309 92.4311 80.6331 92.405 80.5679C92.3892 80.536 92.3782 80.5019 92.3724 80.4668C92.3917 80.4967 92.4081 80.5283 92.4213 80.5613C92.4507 80.6265 92.4963 80.7211 92.5615 80.8417C92.7433 81.1985 92.9435 81.5456 93.1613 81.8816C93.9688 83.1238 94.9342 84.2558 96.0334 85.2492C96.7245 85.8849 97.5623 86.4913 98.436 87.1791C99.3097 87.867 100.249 88.6005 101.227 89.3829C103.183 90.9542 105.334 92.7016 107.587 94.563L107.73 94.6804L107.548 94.7097L106.162 94.9477L91.5574 97.4221L91.6096 97.3503C91.9649 99.6323 92.2616 101.484 92.4539 102.775C92.5485 103.411 92.6234 103.906 92.6756 104.255C92.6984 104.418 92.7147 104.545 92.7278 104.643C92.7334 104.684 92.7345 104.726 92.731 104.767Z" fill="#455A64"/>
<path d="M111.838 95.0813C111.838 95.1302 110.889 94.8531 109.703 94.7292C108.516 94.6053 107.541 94.6738 107.538 94.6216C107.744 94.5581 107.958 94.5262 108.174 94.5271C108.689 94.4953 109.206 94.5073 109.719 94.5629C110.233 94.6147 110.741 94.7117 111.238 94.8531C111.449 94.8956 111.652 94.9727 111.838 95.0813Z" fill="#455A64"/>
<path d="M101.966 22.4938C102.063 22.2034 102.247 21.95 102.494 21.768C102.74 21.586 103.036 21.4843 103.342 21.4766C103.65 21.1429 104.06 20.922 104.508 20.8493C104.956 20.7766 105.416 20.8563 105.813 21.0757C106.05 20.8747 106.335 20.7382 106.64 20.6793C106.945 20.6204 107.26 20.6411 107.555 20.7393C107.85 20.8376 108.115 21.0102 108.323 21.2404C108.532 21.4706 108.678 21.7507 108.747 22.0537C109.047 21.9547 109.371 21.9501 109.674 22.0404C109.977 22.1308 110.245 22.3117 110.442 22.5589C110.631 22.814 110.738 23.1204 110.749 23.4377C110.76 23.7549 110.675 24.068 110.504 24.3357C110.863 24.3837 111.191 24.5632 111.425 24.8395C111.659 25.1157 111.782 25.469 111.77 25.8307C111.758 26.1925 111.613 26.537 111.361 26.7974C111.11 27.0579 110.771 27.2157 110.41 27.2403L102.537 24.1238C102.285 23.944 102.095 23.6909 101.993 23.3991C101.891 23.1073 101.882 22.7911 101.966 22.4938Z" fill="#263238"/>
<path d="M110.678 27.4034C110.279 25.9042 109.332 24.6091 108.025 23.7742C106.717 22.9394 105.144 22.6256 103.616 22.8948L103.29 22.9502C99.9423 23.7652 99.4436 27.0937 100.356 30.4482L102.955 43.0318L109.181 46.7319L109.931 43.9838V39.5045C109.931 39.5045 113.093 38.4059 112.539 35.1263C112.262 33.5257 111.447 30.3178 110.678 27.4034Z" fill="#FFBF9D"/>
<path d="M109.947 39.4782C108.436 39.753 106.877 39.5866 105.458 38.999C105.458 38.999 106.733 41.3527 109.924 40.466L109.947 39.4782Z" fill="#FF9A6C"/>
<path d="M110.273 30.4873C110.297 30.6082 110.273 30.7338 110.205 30.8369C110.137 30.94 110.032 31.0123 109.911 31.0382C109.853 31.0538 109.793 31.0578 109.734 31.0498C109.674 31.0418 109.617 31.0221 109.565 30.9917C109.514 30.9614 109.469 30.921 109.433 30.873C109.397 30.825 109.371 30.7703 109.357 30.7122C109.333 30.5908 109.357 30.4648 109.425 30.3612C109.492 30.2576 109.598 30.1846 109.719 30.158C109.777 30.1424 109.837 30.1386 109.897 30.1468C109.956 30.155 110.014 30.175 110.065 30.2057C110.117 30.2364 110.162 30.2771 110.198 30.3255C110.233 30.3738 110.259 30.4288 110.273 30.4873Z" fill="#263238"/>
<path d="M110.335 29.2912C110.286 29.3629 109.888 29.1641 109.389 29.2586C108.89 29.3532 108.558 29.6661 108.503 29.6172C108.447 29.5683 108.503 29.4738 108.649 29.3271C108.837 29.1361 109.08 29.0094 109.344 28.9652C109.604 28.9167 109.872 28.9533 110.11 29.0695C110.286 29.1576 110.357 29.2586 110.335 29.2912Z" fill="#263238"/>
<path d="M105.908 31.4724C105.932 31.5937 105.907 31.7197 105.84 31.8234C105.772 31.927 105.667 31.9999 105.546 32.0266C105.488 32.0418 105.428 32.0454 105.368 32.0372C105.309 32.029 105.252 32.0092 105.201 31.9789C105.149 31.9486 105.104 31.9084 105.068 31.8606C105.032 31.8129 105.006 31.7585 104.992 31.7006C104.967 31.5796 104.992 31.454 105.059 31.3509C105.127 31.2478 105.233 31.1755 105.353 31.1496C105.411 31.1339 105.471 31.1298 105.53 31.1376C105.589 31.1454 105.647 31.1649 105.698 31.1949C105.75 31.2249 105.795 31.2649 105.831 31.3126C105.867 31.3602 105.893 31.4145 105.908 31.4724Z" fill="#263238"/>
<path d="M105.539 30.0899C105.49 30.1616 105.092 29.966 104.594 30.0573C104.095 30.1486 103.772 30.4681 103.707 30.4159C103.642 30.3638 103.707 30.2725 103.85 30.1258C104.04 29.9363 104.284 29.8099 104.548 29.7639C104.808 29.7156 105.077 29.7522 105.314 29.8682C105.49 29.9595 105.562 30.0573 105.539 30.0899Z" fill="#263238"/>
<path d="M107.86 33.5189C108.108 33.3866 108.372 33.2868 108.646 33.2222C108.773 33.1864 108.887 33.1407 108.894 33.0495C108.882 32.9148 108.828 32.7872 108.741 32.6843L108.183 31.7748C107.407 30.4708 106.82 29.4015 106.879 29.3689C106.938 29.3363 107.603 30.3665 108.379 31.6509C108.568 31.9769 108.75 32.2768 108.92 32.5702C109.029 32.7107 109.085 32.8848 109.08 33.0625C109.069 33.1109 109.048 33.1563 109.017 33.1953C108.987 33.2342 108.948 33.2658 108.904 33.2874C108.836 33.3205 108.765 33.3446 108.692 33.3592C108.422 33.4457 108.143 33.4994 107.86 33.5189Z" fill="#263238"/>
<path d="M106.453 34.1353C106.534 34.1157 106.635 34.6601 107.17 34.9633C107.704 35.2665 108.272 35.1002 108.288 35.1752C108.304 35.2502 108.18 35.3056 107.936 35.3578C107.619 35.419 107.29 35.3671 107.007 35.2111C106.735 35.0576 106.533 34.8054 106.443 34.5069C106.381 34.282 106.417 34.1385 106.453 34.1353Z" fill="#263238"/>
<path d="M105.298 28.6516C105.262 28.795 104.809 28.7559 104.287 28.8602C103.765 28.9645 103.348 29.1504 103.273 29.0297C103.237 28.9743 103.303 28.8374 103.466 28.7037C103.675 28.5296 103.925 28.4117 104.193 28.3614C104.46 28.3076 104.738 28.3279 104.995 28.4201C105.193 28.4821 105.298 28.5864 105.298 28.6516Z" fill="#263238"/>
<path d="M109.97 27.9346C109.915 28.0682 109.546 28.0422 109.136 28.1465C108.725 28.2508 108.405 28.4236 108.294 28.3258C108.246 28.2801 108.268 28.153 108.392 27.9998C108.559 27.8165 108.776 27.6874 109.017 27.6293C109.258 27.5711 109.51 27.5866 109.742 27.6738C109.915 27.7651 109.993 27.8694 109.97 27.9346Z" fill="#263238"/>
<path d="M110.09 25.9596C110.09 25.9596 108.861 24.0655 107.792 23.7689C106.488 23.4037 106.224 24.8121 105.031 24.698C103.837 24.5839 102.605 24.235 101.604 25.3271C100.512 26.5236 101.229 27.0908 101.415 28.5578C102.165 34.5008 101.415 36.3622 100.594 33.6434C100.506 33.3467 99.6157 33.2555 99.2636 31.9938C98.8007 30.3638 98.3704 28.3524 98.5269 27.1038C98.6573 26.0509 99.0941 25.2619 99.9711 24.3198C101.35 22.83 103.541 22.4062 105.057 22.2856C106.573 22.1649 109.761 23.3711 110.09 25.9596Z" fill="#263238"/>
<path d="M101.197 33.4414C101.172 33.3225 101.122 33.21 101.052 33.1107C100.982 33.0114 100.892 32.9274 100.789 32.8637C100.685 32.8 100.569 32.758 100.449 32.7402C100.329 32.7224 100.206 32.7291 100.089 32.76C99.492 32.9263 98.8792 33.412 99.1465 34.6508C99.6257 36.8741 101.754 35.9385 101.738 35.8733C101.722 35.8081 101.406 34.3705 101.197 33.4414Z" fill="#FFBF9D"/>
<path d="M101.077 35.1397C101.077 35.1397 101.044 35.1756 100.985 35.2212C100.902 35.2792 100.799 35.3025 100.699 35.2864C100.538 35.2248 100.396 35.1218 100.288 34.9878C100.18 34.8539 100.109 34.6937 100.082 34.5236C100.039 34.3326 100.039 34.1343 100.082 33.9433C100.088 33.8698 100.111 33.7986 100.15 33.7361C100.19 33.6737 100.244 33.6217 100.307 33.5847C100.349 33.5638 100.398 33.5581 100.443 33.5689C100.489 33.5796 100.53 33.6059 100.558 33.6434C100.601 33.6988 100.597 33.7445 100.607 33.7477C100.617 33.751 100.646 33.6988 100.607 33.6108C100.583 33.5586 100.541 33.5161 100.49 33.4902C100.454 33.4754 100.416 33.4678 100.377 33.4678C100.339 33.4678 100.301 33.4754 100.265 33.4902C100.179 33.5287 100.104 33.5883 100.047 33.6635C99.9898 33.7388 99.9527 33.8271 99.939 33.9205C99.8862 34.1346 99.8862 34.3584 99.939 34.5725C99.9706 34.7727 100.06 34.9592 100.197 35.1087C100.334 35.2583 100.512 35.3643 100.708 35.4136C100.769 35.416 100.83 35.405 100.887 35.3814C100.943 35.3577 100.993 35.322 101.034 35.2767C101.083 35.2082 101.087 35.143 101.077 35.1397Z" fill="#FF9A6C"/>
<path d="M100.04 29.1733C100.353 29.347 100.705 29.4389 101.063 29.4406C101.24 29.4348 101.409 29.3659 101.539 29.2463C101.67 29.1266 101.753 28.9643 101.774 28.7886C101.774 28.6288 101.702 28.4626 101.774 28.3159C101.846 28.1692 102.1 28.1561 102.292 28.1431C102.625 28.1083 102.935 27.9593 103.17 27.7215C103.404 27.4837 103.549 27.1719 103.58 26.8391C103.699 26.932 103.849 26.9765 103.999 26.9638C104.15 26.9511 104.29 26.8821 104.392 26.7706C104.589 26.54 104.753 26.2833 104.881 26.0078C104.945 25.8704 105.041 25.7508 105.162 25.6598C105.284 25.5688 105.425 25.5092 105.575 25.4862C105.741 25.5122 105.91 25.5187 106.077 25.5058C106.364 25.4275 106.446 25.0559 106.436 24.756C106.426 24.456 106.4 24.104 106.618 23.9084C106.854 23.7597 107.135 23.7007 107.411 23.7421C107.684 23.7421 108.02 23.6052 108.043 23.3281C108.041 23.2552 108.025 23.1833 107.996 23.1167C107.966 23.0501 107.923 22.99 107.87 22.9401C107.641 22.702 107.338 22.5487 107.01 22.5055C106.683 22.4622 106.35 22.5316 106.067 22.7022C105.894 22.3487 105.618 22.0553 105.276 21.8596C104.934 21.664 104.542 21.5749 104.149 21.604C103.756 21.6331 103.381 21.779 103.072 22.0229C102.762 22.2667 102.533 22.5975 102.413 22.9727C102.138 22.7994 101.825 22.6956 101.501 22.6702C101.177 22.6448 100.851 22.6985 100.553 22.8269C100.254 22.9552 99.9909 23.1542 99.7863 23.4068C99.5816 23.6594 99.4415 23.9579 99.3779 24.2767C99.0924 24.2583 98.8077 24.3227 98.5579 24.462C98.3081 24.6014 98.1038 24.8098 97.9696 25.0624C97.8423 25.3193 97.7907 25.6071 97.8207 25.8922C97.8507 26.1773 97.9611 26.4481 98.1391 26.6728C97.9503 26.8139 97.8006 27.0008 97.7042 27.2159C97.6078 27.431 97.5679 27.6671 97.5881 27.9019C97.6631 28.3648 98.1945 28.7462 98.6183 28.5539C98.5721 28.7499 98.5973 28.9561 98.6893 29.1353C98.7813 29.3145 98.9341 29.4551 99.1203 29.5319C99.3152 29.5945 99.5262 29.5836 99.7136 29.5014C99.9009 29.4191 100.052 29.2711 100.137 29.0852" fill="#263238"/>
<path d="M98.4521 28.5642C98.4577 28.6437 98.48 28.7211 98.5177 28.7913C98.5553 28.8616 98.6074 28.923 98.6706 28.9717C98.8057 29.0929 98.9813 29.1592 99.1628 29.1575C99.2792 29.1549 99.3936 29.1267 99.4978 29.0748C99.6021 29.023 99.6936 28.9488 99.7659 28.8576H99.6681C99.824 29.0476 100.01 29.2106 100.219 29.3401C100.358 29.4278 100.511 29.4886 100.672 29.5194C100.824 29.5466 100.98 29.5331 101.125 29.4802C101.253 29.447 101.372 29.3859 101.473 29.3014C101.575 29.2168 101.656 29.1109 101.712 28.9912C101.775 28.8326 101.807 28.6632 101.807 28.4925C101.807 28.3718 101.807 28.3066 101.79 28.3066C101.77 28.3645 101.758 28.4248 101.755 28.4859C101.738 28.6462 101.695 28.8026 101.627 28.9489C101.563 29.0593 101.476 29.155 101.372 29.2297C101.268 29.3044 101.149 29.3565 101.024 29.3826C100.899 29.4087 100.769 29.4082 100.644 29.3813C100.519 29.3543 100.401 29.3014 100.297 29.226C100.095 29.1052 99.913 28.9547 99.7561 28.7793L99.704 28.7207L99.6584 28.7826C99.5982 28.8608 99.522 28.9251 99.4348 28.9712C99.3476 29.0174 99.2515 29.0442 99.153 29.0499C98.9942 29.0585 98.8376 29.0086 98.7129 28.9097C98.604 28.813 98.5153 28.6955 98.4521 28.5642Z" fill="#455A64"/>
<path d="M101.735 22.6926C101.735 22.6926 101.797 22.6926 101.902 22.722C102.056 22.7563 102.196 22.8371 102.303 22.9534L102.335 22.9926L102.358 22.9437C102.57 22.5157 102.886 22.1479 103.277 21.8744C103.527 21.6958 103.813 21.5734 104.115 21.5158C104.444 21.4568 104.783 21.4907 105.093 21.6136C105.339 21.7105 105.561 21.8583 105.745 22.0472C105.916 22.2247 106.042 22.4404 106.114 22.6763L106.133 22.7481L106.198 22.7155C106.462 22.5875 106.762 22.5573 107.046 22.6301C107.329 22.7029 107.578 22.8741 107.747 23.1132C107.879 23.3093 107.967 23.5317 108.004 23.7652C108.018 23.7029 108.018 23.6384 108.004 23.5761C107.975 23.401 107.908 23.2343 107.809 23.0871C107.66 22.8533 107.439 22.6746 107.18 22.5785C107.014 22.5172 106.837 22.4894 106.66 22.4967C106.483 22.5039 106.31 22.5462 106.149 22.6209L106.231 22.66C106.16 22.4017 106.025 22.1653 105.84 21.9722C105.615 21.7399 105.337 21.5663 105.029 21.4668C104.722 21.3673 104.394 21.345 104.076 21.4017C103.759 21.4665 103.459 21.5976 103.196 21.7864C102.794 22.075 102.477 22.467 102.28 22.9208H102.338C102.217 22.8006 102.061 22.7228 101.892 22.6992C101.794 22.6698 101.735 22.6861 101.735 22.6926Z" fill="#455A64"/>
<path d="M105.451 77.037C105.761 77.0631 106.82 77.438 108.196 74.8919C109.572 72.3459 110.892 62.918 110.892 62.918L105.451 77.037Z" fill="#E0E0E0"/>
<path d="M111.388 59.2833L111.544 50.1716L109.712 43.1985C109.712 43.1985 108.431 41.1903 107.032 40.1699C106.129 39.4783 105.097 38.973 103.997 38.6834L101.898 38.1748L101.673 39.9156L107.766 46.9051L111.388 59.2833Z" fill="#E0E0E0"/>
<path d="M101.712 38.7939C101.712 38.7939 106.726 39.2243 109.151 45.2846C110.455 48.5446 111.247 57.2651 111.401 58.6278C111.554 59.9905 111.042 63.1168 110.113 67.3287C109.93 68.147 109.275 70.2986 107.489 75.5178C105.575 81.099 104.049 85.2196 104.049 85.2196L88.0166 79.0256L95.9906 65.0402C95.9906 65.0402 95.57 60.7305 95.5896 60.3197C95.7428 57.1151 95.1201 55.3124 96.1796 49.1542C96.491 47.3136 97.1374 45.5456 98.0867 43.9382C99.0973 42.2398 99.8439 41.7312 101.559 40.4533L101.712 38.7939Z" fill="#263238"/>
<path d="M103.427 76.9945L103.851 73.6139L96.2058 70.5137L94.8105 73.7443L103.427 76.9945Z" fill="#263238"/>
<path d="M103.427 76.9947L103.254 76.9197L102.765 76.7241L100.963 76.02L94.8404 73.676L94.8893 73.7869L96.0759 71.0517L96.2878 70.5562L96.1737 70.6051L103.828 73.676L103.792 73.6141C103.678 74.641 103.584 75.4788 103.518 76.0754C103.489 76.359 103.466 76.5839 103.447 76.7567C103.427 76.9295 103.424 76.998 103.427 77.0012C103.446 76.9295 103.459 76.8565 103.466 76.7828C103.492 76.6165 103.525 76.3981 103.564 76.1308C103.649 75.5244 103.766 74.6768 103.91 73.6336V73.588L103.867 73.5717L96.2324 70.4454L96.1704 70.416L96.1378 70.4943C96.0694 70.6573 95.9977 70.8203 95.9259 70.9865C95.5152 71.9384 95.1175 72.861 94.7458 73.7282L94.71 73.8097L94.7915 73.839L101.005 76.1406L102.801 76.7926L103.277 76.9621C103.326 76.9776 103.376 76.9885 103.427 76.9947Z" fill="#455A64"/>
<path d="M109.764 68.46C109.76 68.4899 109.752 68.5194 109.742 68.548L109.663 68.799L109.337 69.777C109.054 70.6279 108.653 71.8373 108.154 73.3239L104.193 85.0077L104.108 85.2555L104.079 85.3402L103.997 85.3076L92.6592 80.8969L89.2395 79.544L88.3136 79.1691L88.0756 79.068L87.9941 79.0256L88.0822 79.0517L88.3267 79.1365L89.2623 79.482L92.7016 80.786L104.056 85.1544L103.945 85.2066C103.975 85.1283 104.001 85.0436 104.03 84.9588C105.595 80.3948 107.013 76.2872 108.043 73.288C108.558 71.808 108.979 70.605 109.275 69.7574L109.634 68.786C109.67 68.6849 109.702 68.6034 109.725 68.5382C109.748 68.473 109.761 68.46 109.764 68.46Z" fill="#455A64"/>
<path d="M86.1982 86.3118C86.1982 86.3118 88.0923 80.1406 89.706 79.7201C91.3197 79.2995 93.4517 79.2343 93.8266 80.2873C94.288 81.6148 94.4981 83.0166 94.446 84.421C94.337 85.7138 94.1244 86.9959 93.8103 88.2547L92.164 87.7429C92.164 87.7429 93.468 81.4772 93.1192 80.4503C92.7704 79.4234 90.0516 79.6712 89.5528 80.7372C89.054 81.8032 87.4696 86.703 87.4696 86.703L86.1982 86.3118Z" fill="#455A64"/>
<path d="M78.6313 94.0767C79.2083 91.4915 80.5579 85.8061 81.1545 83.3187C81.2324 82.9911 81.4341 82.7063 81.7173 82.524C82.0004 82.3417 82.3432 82.276 82.6737 82.3407L98.1261 85.3855C98.4579 85.4513 98.7512 85.6435 98.9441 85.9215C99.1369 86.1994 99.2141 86.5415 99.1595 86.8754L97.4154 97.6138C97.3875 97.7856 97.3255 97.9501 97.2331 98.0976C97.1406 98.2451 97.0196 98.3725 96.8771 98.4725C96.7346 98.5724 96.5735 98.6429 96.4034 98.6796C96.2332 98.7163 96.0575 98.7186 95.8864 98.6863L79.6679 95.6448C79.4953 95.613 79.3308 95.5468 79.1844 95.45C79.038 95.3532 78.9126 95.2278 78.8158 95.0814C78.719 94.935 78.6528 94.7705 78.6211 94.5979C78.5894 94.4252 78.5928 94.248 78.6313 94.0767Z" fill="#455A64"/>
<path d="M97.5691 89.343L97.5495 89.4571C97.5332 89.5386 97.5136 89.656 97.4843 89.8027C97.4256 90.1124 97.3376 90.559 97.2235 91.136L96.2455 96.0619L96.1673 96.4596C96.1491 96.6035 96.0903 96.7392 95.9977 96.8508C95.8997 96.9649 95.7687 97.0458 95.6228 97.0823C95.4757 97.1119 95.3235 97.1052 95.1795 97.0627L93.4126 96.7204L89.5006 95.9674L85.1941 95.1295L82.9121 94.6862L81.7483 94.458L81.4549 94.4026C81.3512 94.388 81.2495 94.3618 81.1517 94.3243C81.0508 94.28 80.9613 94.2132 80.8901 94.129C80.8189 94.0448 80.7679 93.9455 80.7409 93.8386C80.7231 93.746 80.7231 93.6508 80.7409 93.5582C80.7409 93.4637 80.7768 93.3854 80.7931 93.3007L80.9007 92.7954L81.1158 91.7946C81.256 91.1426 81.3962 90.4906 81.5331 89.8386C81.8113 88.5498 82.0775 87.3099 82.3318 86.1189V86.0635H82.3872C86.7785 87.1882 90.5764 87.9901 93.2691 88.5215C94.6188 88.7856 95.6913 88.9844 96.4248 89.1181L97.2724 89.2746L97.4843 89.317L97.556 89.3333H97.4778L97.2594 89.3007L96.4183 89.1637C95.6815 89.0399 94.609 88.854 93.2593 88.5965C90.5568 88.0879 86.7556 87.2925 82.3579 86.1808L82.4264 86.1385C82.1753 87.3284 81.908 88.5737 81.6342 89.8614C81.4973 90.5134 81.3571 91.1654 81.2169 91.8174C81.1452 92.1434 81.0735 92.4694 81.0017 92.8182L80.8942 93.3202C80.8416 93.4765 80.8281 93.6433 80.855 93.806C80.8784 93.895 80.9213 93.9777 80.9805 94.0481C81.0396 94.1186 81.1137 94.1751 81.1973 94.2135C81.2876 94.2477 81.3818 94.2707 81.4777 94.2819L81.7711 94.3406L82.9349 94.5688L85.2169 95.0122L89.5266 95.8565L93.4386 96.6226L95.2056 96.9714C95.3368 97.0101 95.4754 97.0168 95.6098 96.991C95.7364 96.9601 95.8504 96.8906 95.9358 96.7921C96.0182 96.6914 96.0703 96.5693 96.0858 96.4401C96.1151 96.3064 96.1412 96.176 96.1673 96.0489C96.5943 93.982 96.9431 92.3129 97.1811 91.1589C97.305 90.5818 97.3995 90.132 97.4647 89.8223C97.4973 89.6723 97.5234 89.5549 97.5397 89.4702C97.556 89.3854 97.5691 89.343 97.5691 89.343Z" fill="#263238"/>
<path d="M91.8082 95.3516C91.8082 95.3516 91.9028 95.3679 92.0853 95.3679C92.3499 95.3593 92.6065 95.2756 92.8253 95.1266C92.9949 95.0049 93.1358 94.8476 93.2383 94.6657C93.3408 94.4838 93.4023 94.2818 93.4187 94.0737C93.5132 93.5879 93.624 93.037 93.7447 92.4274C93.8066 92.1209 93.8685 91.8014 93.9337 91.4689C94.0281 91.1363 93.9944 90.7804 93.8392 90.4714C93.7545 90.3114 93.6374 90.1708 93.4954 90.0586C93.3534 89.9463 93.1896 89.8648 93.0144 89.8194C92.6428 89.7379 92.2418 89.6629 91.8408 89.5814L86.5955 88.5317C86.3749 88.4877 86.1468 88.5015 85.9331 88.5718C85.7195 88.642 85.5276 88.7663 85.3762 88.9326C85.226 89.0948 85.1214 89.2939 85.0731 89.5097L84.9361 90.1617L84.6753 91.4657C84.634 91.683 84.5917 91.8916 84.5482 92.0916C84.5019 92.2915 84.467 92.494 84.4439 92.6979C84.4336 92.8908 84.4662 93.0836 84.5395 93.2623C84.6128 93.441 84.7249 93.6012 84.8677 93.7314C85.0058 93.8544 85.1678 93.9477 85.3436 94.0052C85.5132 94.0574 85.7055 94.0867 85.8815 94.1258L87.8734 94.5333L90.7585 95.1332L91.5409 95.3027L91.743 95.3483L91.8115 95.3679H91.7398L91.5344 95.332L90.7487 95.1853L87.8571 94.6213L85.8587 94.2138C85.6794 94.1747 85.5001 94.1519 85.3078 94.0965C85.1177 94.0358 84.9431 93.9346 84.796 93.7998C84.6402 93.6604 84.5175 93.4879 84.4369 93.295C84.3562 93.1022 84.3196 92.8937 84.3298 92.6849C84.354 92.4755 84.3899 92.2676 84.4374 92.0622C84.4797 91.8569 84.5189 91.6482 84.5612 91.4363C84.646 91.0158 84.734 90.5855 84.822 90.1323C84.8644 89.9139 84.9101 89.6922 84.9557 89.4803C85.0091 89.2463 85.1213 89.0297 85.2817 88.8511C85.4471 88.6699 85.6563 88.5343 85.8892 88.4572C86.1221 88.3801 86.3709 88.3642 86.6118 88.411L91.8571 89.4705C92.2581 89.5553 92.6493 89.627 93.034 89.715C93.2241 89.7661 93.4013 89.8567 93.5541 89.9808C93.7068 90.105 93.8318 90.2599 93.9207 90.4355C94.0836 90.7656 94.1173 91.1446 94.0152 91.4983C93.9468 91.8243 93.8816 92.1503 93.8196 92.4534C93.6958 93.0598 93.5817 93.6107 93.4936 94.0834C93.4676 94.2041 93.4447 94.3214 93.4121 94.4355C93.3769 94.5421 93.3288 94.6439 93.2687 94.7387C93.1659 94.9075 93.0267 95.0512 92.8612 95.1592C92.6341 95.3096 92.3675 95.3891 92.0951 95.3874C91.9983 95.3888 91.9017 95.3767 91.8082 95.3516Z" fill="#263238"/>
<g opacity="0.3">
<path d="M81.1055 94.2598C85.4536 96.5367 90.3728 97.492 95.2571 97.0079L81.1055 94.2598Z" fill="black"/>
</g>
<path d="M90.8103 91.0391L88.9978 90.6739C88.9297 90.6603 88.8649 90.6334 88.8072 90.5947C88.7495 90.556 88.7 90.5063 88.6616 90.4485C88.6231 90.3907 88.5965 90.3258 88.5831 90.2576C88.5697 90.1895 88.57 90.1194 88.5837 90.0513C88.6121 89.9148 88.6929 89.795 88.8087 89.7175C88.9246 89.6401 89.0662 89.6113 89.2031 89.6373L91.0255 90.0056C91.0935 90.0189 91.1581 90.0455 91.2158 90.0838C91.2735 90.1222 91.323 90.1716 91.3615 90.2291C91.3999 90.2867 91.4267 90.3513 91.44 90.4193C91.4534 90.4872 91.4533 90.5572 91.4395 90.625C91.4263 90.694 91.3995 90.7597 91.3605 90.8181C91.3215 90.8765 91.2711 90.9265 91.2125 90.9651C91.1538 91.0037 91.088 91.0301 91.0189 91.0428C90.9498 91.0555 90.8789 91.0543 90.8103 91.0391Z" fill="#E0E0E0"/>
<path d="M93.7057 78.334C93.945 78.6973 94.1398 79.0881 94.286 79.4978C94.3517 80.2316 94.3648 80.9692 94.3251 81.7048C94.3251 81.7048 93.9437 81.8972 93.634 80.8735C93.4708 80.3813 93.354 79.8749 93.2852 79.3609L93.7057 78.334Z" fill="#FFBF9D"/>
<path d="M93.6565 81.6112L93.7282 78.3806L92.4829 75.991L88.5318 75.916L88.3916 79.828C88.3916 79.828 88.9719 81.5069 89.249 81.8231C89.5261 82.1394 90.0803 81.9046 90.0803 81.9046C90.3769 82.3741 91.1985 82.2013 91.1985 82.2013C91.5994 82.6805 92.2254 82.2306 92.2254 82.2306C92.2254 82.2306 92.773 82.7327 93.0241 82.7001C93.1295 82.6748 93.2235 82.6151 93.2914 82.5306C93.5202 82.2783 93.65 81.9517 93.6565 81.6112Z" fill="#FFBF9D"/>
<path d="M89.7777 81.0693C89.8136 81.0693 89.9081 81.2291 89.9831 81.454C90.0581 81.679 90.0939 81.8746 90.0548 81.8876C90.0157 81.9006 89.9244 81.7246 89.8494 81.4997C89.7745 81.2747 89.7386 81.0824 89.7777 81.0693Z" fill="#FF9A6C"/>
<path d="M90.8006 81.0205C90.8995 81.2087 90.9688 81.411 91.006 81.6203C91.0876 81.8169 91.1392 82.0246 91.1592 82.2365C91.0105 82.0763 90.91 81.8774 90.869 81.6627C90.7852 81.4596 90.7614 81.2367 90.8006 81.0205Z" fill="#FF9A6C"/>
<path d="M91.968 81.125C92.0104 81.125 92.0397 81.3728 92.0984 81.6694C92.1571 81.9661 92.2125 82.2073 92.1734 82.2236C92.1343 82.2399 92.0136 82.0085 91.955 81.6955C91.8963 81.3825 91.9321 81.125 91.968 81.125Z" fill="#FF9A6C"/>
<path d="M93.6827 79.3936C93.7469 79.7999 93.7655 80.2121 93.7382 80.6226C93.7557 81.0321 93.7262 81.4423 93.6501 81.8451C93.5653 81.0294 93.5762 80.2067 93.6827 79.3936Z" fill="#FF9A6C"/>
<path d="M89.7182 80.4204C89.7182 80.4204 89.7182 80.4791 89.6334 80.5214C89.5398 80.5755 89.4294 80.5929 89.3237 80.5703C89.2168 80.5486 89.1216 80.4883 89.0564 80.4008C89.0075 80.3356 89.0042 80.2802 89.0205 80.2737C89.0368 80.2672 89.164 80.3943 89.3465 80.4302C89.5291 80.466 89.6954 80.3878 89.7182 80.4204Z" fill="#FF9A6C"/>
<path d="M90.912 80.6161C90.912 80.6161 90.8892 80.6748 90.811 80.7139C90.7077 80.756 90.5945 80.7673 90.485 80.7465C90.3717 80.7257 90.2679 80.6698 90.1883 80.5867C90.1296 80.5183 90.1166 80.4661 90.1296 80.4531C90.1427 80.44 90.2959 80.5672 90.511 80.6063C90.7262 80.6454 90.8925 80.5802 90.912 80.6161Z" fill="#FF9A6C"/>
<path d="M93.1966 80.3783C93.1966 80.3588 93.2878 80.4631 93.1966 80.6033C93.0717 80.7417 92.897 80.8249 92.7108 80.8347C92.531 80.8513 92.3506 80.8102 92.1957 80.7174C92.0816 80.6424 92.036 80.5674 92.049 80.5544C92.2552 80.6426 92.4768 80.6892 92.701 80.6913C92.8532 80.6826 92.9995 80.6294 93.1216 80.5381C93.1966 80.4631 93.177 80.3849 93.1966 80.3783Z" fill="#FF9A6C"/>
<path d="M105.497 49.9917C103.945 51.6217 94.3086 61.0757 94.3086 61.0757C94.3086 61.0757 93.7511 76.3651 93.4707 76.4303C93.1904 76.4955 87.6516 76.0424 87.6516 76.0424C87.6516 76.0424 86.8757 59.8336 87.5212 57.9852C88.1667 56.1368 96.408 45.3299 96.5873 45.105C96.7666 44.88 97.712 43.2272 100.864 42.4155C104.558 41.4701 106.11 43.2403 106.732 45.0561C107.267 46.6209 106.247 49.0528 105.754 49.7048C105.675 49.8057 105.589 49.9015 105.497 49.9917Z" fill="#263238"/>
<path d="M105.497 49.992C105.497 49.992 105.543 49.9268 105.64 49.8127C105.783 49.6413 105.903 49.453 105.999 49.252C106.387 48.4865 106.652 47.6647 106.785 46.8168C106.895 46.2099 106.854 45.5854 106.667 44.9977C106.434 44.3007 106.034 43.6709 105.504 43.1623C105.201 42.8901 104.855 42.6698 104.48 42.5103C104.078 42.3502 103.656 42.2503 103.225 42.2137C102.28 42.1717 101.335 42.2987 100.434 42.5886C99.4321 42.8758 98.4954 43.3553 97.6763 44.0002C97.2513 44.3539 96.8791 44.7667 96.5712 45.2259L95.5182 46.6179C94.1066 48.499 92.607 50.5299 91.065 52.6652C90.2989 53.741 89.5133 54.8494 88.7569 56.0035C88.3649 56.5774 88.0089 57.1752 87.6909 57.7932C87.6583 57.8747 87.6159 57.9497 87.5866 58.0312L87.5377 58.2822C87.4977 58.4525 87.4726 58.6259 87.4627 58.8006L87.4171 59.3319L87.391 59.8666C87.2899 62.7386 87.3714 65.7346 87.4529 68.7729C87.5279 71.2505 87.6224 73.6792 87.73 76.0329L87.6518 75.9547L90.6282 76.1894L92.0887 76.2905L92.8091 76.3328L93.1677 76.3491H93.4187C93.4936 75.8881 93.5447 75.4234 93.572 74.9571C93.6013 74.4877 93.6339 74.0248 93.6632 73.5618C93.7154 72.6403 93.7654 71.7341 93.8132 70.843C93.9925 67.2831 94.1392 63.997 94.2402 61.063V61.0369V61.0174L102.436 52.9456L104.682 50.7484L105.269 50.1779C105.402 50.0507 105.474 49.9888 105.474 49.9888C105.474 49.9888 105.412 50.0605 105.282 50.1909L104.708 50.7744L102.488 52.9978L94.3381 61.1119L94.3576 61.0663C94.2533 64.0003 94.1262 67.2831 93.9534 70.8463C93.9077 71.7351 93.8599 72.6414 93.8099 73.5651C93.7773 74.028 93.748 74.4942 93.7187 74.9636C93.693 75.4423 93.6397 75.919 93.5589 76.3915C93.5512 76.4173 93.5391 76.4416 93.5231 76.4632C93.5087 76.4821 93.4877 76.4949 93.4644 76.4991H93.4383H93.334H93.1514L92.7896 76.4828L92.0658 76.4404L90.6054 76.3394L87.629 76.1079H87.554V76.0329C87.4464 73.6759 87.3519 71.2472 87.2769 68.7664C87.1954 65.715 87.1139 62.7354 87.2182 59.8503L87.2443 59.3124L87.2932 58.7745C87.3038 58.5935 87.3288 58.4136 87.3682 58.2366L87.4269 57.9693C87.458 57.8836 87.4939 57.7998 87.5344 57.7182C87.8554 57.0918 88.2158 56.4864 88.6135 55.9057C89.3763 54.7451 90.162 53.64 90.9314 52.5642C92.4766 50.4158 93.9827 48.4012 95.4008 46.5234L96.4505 45.1412C96.62 44.9227 96.7765 44.6815 96.9754 44.4892C97.162 44.2812 97.3648 44.0883 97.5817 43.9121C99.2001 42.6848 101.192 42.0517 103.222 42.1191C103.664 42.1622 104.097 42.2721 104.506 42.4451C104.891 42.6074 105.245 42.8346 105.552 43.1167C106.092 43.6362 106.496 44.2797 106.729 44.9912C106.918 45.5923 106.955 46.2306 106.837 46.8494C106.697 47.7023 106.419 48.5269 106.015 49.2911C105.915 49.4912 105.789 49.6775 105.64 49.8453C105.552 49.9366 105.497 49.992 105.497 49.992Z" fill="#455A64"/>
<path d="M110.964 56.9875C110.933 56.9304 110.911 56.8689 110.898 56.805C110.856 56.6681 110.804 56.479 110.739 56.2736C110.599 55.7911 110.413 55.1196 110.175 54.298C109.705 52.5996 109.063 50.2687 108.343 47.6542V47.6183L108.362 47.5857C108.542 47.3053 108.734 47.0054 108.929 46.7055L109.076 46.474L109.141 46.6044L108.062 46.5034H108.007L107.987 46.448C107.795 45.8394 107.572 45.241 107.319 44.655C107.096 44.1109 106.814 43.5927 106.478 43.1097C106.14 42.7103 105.726 42.3832 105.259 42.148C104.828 41.9035 104.414 41.6981 104.036 41.5188C103.273 41.1602 102.651 40.8994 102.22 40.7201L101.728 40.5148C101.669 40.4952 101.612 40.469 101.559 40.4365C101.62 40.4442 101.681 40.4606 101.738 40.4854C101.855 40.5245 102.025 40.5832 102.243 40.6647C102.68 40.8245 103.312 41.069 104.082 41.4145C104.467 41.5906 104.884 41.7894 105.324 42.0307C105.81 42.2672 106.244 42.5999 106.599 43.0087C106.946 43.4966 107.237 44.0227 107.466 44.5767C107.725 45.1678 107.953 45.7717 108.15 46.386L108.075 46.3273L109.158 46.4251H109.295L109.22 46.5425L109.073 46.774L108.502 47.6542V47.5857C109.203 50.21 109.826 52.5409 110.279 54.2459C110.494 55.0739 110.667 55.7487 110.794 56.2345C110.846 56.4562 110.892 56.6355 110.925 56.7756C110.948 56.8441 110.961 56.9154 110.964 56.9875Z" fill="#455A64"/>
<path d="M109.839 47.2469C107.949 48.3618 106.413 48.3553 103.257 48.088C101.07 47.9022 99.1532 47.2763 96.9592 47.2078C93.797 47.1133 91.4172 48.0782 88.5484 49.3822L86.4229 51.8924L90.4098 53.0986C93.1046 51.7139 96.1131 51.0533 99.1401 51.1817C104.03 51.4491 108.62 50.1157 110.244 48.8737L110.801 47.3284L110.589 46.5199L109.918 46.458L109.839 47.2469Z" fill="#00AAD3"/>
<path d="M109.84 47.2473C109.84 47.2473 109.84 47.1788 109.84 47.0452C109.84 46.9115 109.866 46.7191 109.889 46.4681V46.4453H109.908L110.58 46.5007H110.599V46.5203C110.661 46.755 110.736 47.0256 110.818 47.3255C110.661 47.7787 110.475 48.3035 110.273 48.8773C109.796 49.2247 109.277 49.5106 108.728 49.7281C108.1 49.9942 107.455 50.2186 106.798 50.3997C104.357 51.063 101.827 51.3435 99.3001 51.231C98.3332 51.1824 97.3639 51.2129 96.4019 51.3223C95.387 51.4416 94.3845 51.65 93.406 51.9449C92.3825 52.2417 91.391 52.6392 90.4459 53.1316H90.4133H90.3807L88.0531 52.4861L86.3905 51.9743L86.2666 51.9384L86.3481 51.8406L88.4736 49.3272H88.4899C89.8593 48.6772 91.276 48.1323 92.7279 47.6972C94.0705 47.3094 95.4646 47.1302 96.8616 47.1658C98.1073 47.228 99.3458 47.3916 100.565 47.6548C101.614 47.8695 102.676 48.0208 103.743 48.1079C104.616 48.1927 105.492 48.2297 106.368 48.2188C107.023 48.2094 107.674 48.1129 108.304 47.9319C108.698 47.813 109.081 47.6603 109.448 47.4755L109.729 47.3288L109.83 47.2799C109.83 47.2799 109.804 47.3027 109.742 47.3386C109.68 47.3744 109.585 47.4331 109.461 47.5016C109.098 47.7011 108.716 47.8648 108.32 47.9906C107.686 48.1869 107.028 48.2966 106.364 48.3166C105.486 48.3361 104.606 48.3067 103.73 48.2285C102.659 48.1502 101.593 48.0054 100.539 47.795C99.3253 47.5412 98.0935 47.3842 96.8551 47.3255C95.4729 47.294 94.0941 47.4754 92.767 47.8634C91.3288 48.3016 89.9253 48.8464 88.5682 49.4934L88.5975 49.4706L86.4752 51.9841L86.4361 51.8471L88.0889 52.3492L90.4231 53.0533H90.3579C91.3173 52.5466 92.3254 52.1381 93.3669 51.8341C94.3542 51.5391 95.3654 51.3307 96.3889 51.2114C97.363 51.1037 98.3442 51.0753 99.3229 51.1267C101.833 51.2452 104.347 50.9769 106.775 50.3312C107.428 50.1544 108.07 49.9366 108.695 49.6792C109.237 49.4664 109.752 49.1895 110.228 48.8545V48.874L110.795 47.3288V47.3483L110.593 46.5399L110.616 46.5627L109.944 46.491H109.967L109.898 47.0745C109.862 47.1853 109.84 47.2473 109.84 47.2473Z" fill="#263238"/>
<path d="M102.364 67.5926C102.364 67.6349 100.907 67.159 99.1462 66.5298C98.0729 66.1772 97.0185 65.7691 95.9873 65.3073C96.0036 65.2649 97.4445 65.7409 99.2049 66.3701C100.278 66.7227 101.333 67.1308 102.364 67.5926Z" fill="#455A64"/>
</svg>
