<svg width="179" height="148" viewBox="0 0 179 148" fill="none" xmlns="http://www.w3.org/2000/svg">
<path d="M150.866 41.4399C150.866 41.4399 126.336 10.277 94.4571 7.87052C62.5784 5.46404 43.9887 31.0059 35.1795 46.238C26.3703 61.4702 4.39151 86.8492 6.98343 110.088C9.57535 133.327 34.9862 150.96 71.3876 143.214C107.789 135.467 118.343 132.528 134.928 138.407C151.513 144.285 173.052 135.467 173.482 102.075C173.912 68.6837 150.866 41.4399 150.866 41.4399Z" fill="#00AAD3"/>
<path opacity="0.7" d="M150.866 41.4399C150.866 41.4399 126.336 10.277 94.4571 7.87052C62.5784 5.46404 43.9887 31.0059 35.1795 46.238C26.3703 61.4702 4.39151 86.8492 6.98343 110.088C9.57535 133.327 34.9862 150.96 71.3876 143.214C107.789 135.467 118.343 132.528 134.928 138.407C151.513 144.285 173.052 135.467 173.482 102.075C173.912 68.6837 150.866 41.4399 150.866 41.4399Z" fill="white"/>
<path d="M11.6758 135.168H167.267" stroke="#263238" stroke-miterlimit="10"/>
<path d="M18.4541 85.7012L21.6021 123.086" stroke="#263238" stroke-width="2" stroke-miterlimit="10"/>
<path d="M21.0938 115.931L19.6689 114.063" stroke="#263238" stroke-width="2" stroke-miterlimit="10"/>
<path d="M20.1008 114.624C20.0979 114.338 20.0458 114.056 19.9478 113.797C19.8498 113.538 19.7083 113.308 19.5328 113.123C19.1676 112.717 17.2416 111.714 17.0578 112.555C16.8597 113.469 18.8311 115.269 20.1008 114.624Z" fill="#00AAD3" stroke="#263238" stroke-miterlimit="10"/>
<path d="M20.1005 114.623L18.2676 113.205" stroke="#263238" stroke-width="0.5" stroke-miterlimit="10"/>
<path d="M21.4522 120.185L20.0273 118.317" stroke="#263238" stroke-width="2" stroke-miterlimit="10"/>
<path d="M20.4592 118.877C20.4565 118.591 20.4044 118.309 20.3064 118.05C20.2084 117.791 20.0668 117.562 19.8912 117.376C19.526 116.971 17.6 115.964 17.4162 116.805C17.2181 117.723 19.1895 119.519 20.4592 118.877Z" fill="#00AAD3" stroke="#263238" stroke-miterlimit="10"/>
<path d="M20.4589 118.877L18.626 117.459" stroke="#263238" stroke-width="0.5" stroke-miterlimit="10"/>
<path d="M20.2207 105.556L18.7959 103.688" stroke="#263238" stroke-width="2" stroke-miterlimit="10"/>
<path d="M19.2271 104.248C19.2243 103.962 19.1723 103.681 19.0748 103.422C18.9773 103.163 18.8364 102.933 18.6615 102.747C18.294 102.342 16.3679 101.335 16.1841 102.179C15.9908 103.094 17.9574 104.89 19.2271 104.248Z" fill="#00AAD3" stroke="#263238" stroke-miterlimit="10"/>
<path d="M19.2275 104.248L17.3945 102.83" stroke="#263238" stroke-width="0.5" stroke-miterlimit="10"/>
<path d="M20.5782 109.807L19.1533 107.939" stroke="#263238" stroke-width="2" stroke-miterlimit="10"/>
<path d="M19.5852 108.499C19.5823 108.213 19.5301 107.931 19.4322 107.672C19.3342 107.413 19.1927 107.183 19.0171 106.998C18.652 106.592 16.7259 105.589 16.5422 106.43C16.3441 107.344 18.3155 109.144 19.5852 108.499Z" fill="#00AAD3" stroke="#263238" stroke-miterlimit="10"/>
<path d="M19.5859 108.499L17.7529 107.081" stroke="#263238" stroke-width="0.5" stroke-miterlimit="10"/>
<path d="M19.6401 98.648L18.2129 96.7803" stroke="#263238" stroke-width="2" stroke-miterlimit="10"/>
<path d="M18.647 97.3399C18.6441 97.0539 18.592 96.7721 18.494 96.5132C18.396 96.2544 18.2545 96.0246 18.079 95.8392C17.7138 95.4366 15.7854 94.4302 15.604 95.2708C15.4035 96.2003 17.3773 97.9763 18.647 97.3399Z" fill="#00AAD3" stroke="#263238" stroke-miterlimit="10"/>
<path d="M18.6478 97.3397L16.8125 95.9219" stroke="#263238" stroke-width="0.5" stroke-miterlimit="10"/>
<path d="M19.0557 91.7125L17.6309 89.8447" stroke="#263238" stroke-width="2" stroke-miterlimit="10"/>
<path d="M18.0627 90.4042C18.0598 90.1182 18.0077 89.8364 17.9097 89.5775C17.8117 89.3187 17.6702 89.0888 17.4947 88.9034C17.1295 88.4979 15.2035 87.4915 15.0197 88.3351C14.8216 89.2498 16.793 91.0465 18.0627 90.4042Z" fill="#00AAD3" stroke="#263238" stroke-miterlimit="10"/>
<path d="M18.0625 90.4042L16.2295 88.9863" stroke="#263238" stroke-width="0.5" stroke-miterlimit="10"/>
<path d="M20.8555 113.415L21.939 111.222" stroke="#263238" stroke-width="2" stroke-miterlimit="10"/>
<path d="M21.6094 111.888C21.5642 111.607 21.568 111.318 21.6207 111.04C21.6734 110.762 21.7738 110.501 21.9149 110.275C22.2037 109.783 23.9221 108.306 24.2419 109.091C24.5832 109.922 22.9579 112.184 21.6094 111.888Z" fill="#00AAD3" stroke="#263238" stroke-miterlimit="10"/>
<path d="M21.6094 111.882L23.2609 109.923" stroke="#263238" stroke-width="0.5" stroke-miterlimit="10"/>
<path d="M19.9121 102.227L20.998 100.033" stroke="#263238" stroke-width="2" stroke-miterlimit="10"/>
<path d="M20.6664 100.693C20.6218 100.413 20.6259 100.124 20.6786 99.8458C20.7313 99.5676 20.8313 99.3066 20.9719 99.0802C21.263 98.5888 22.9814 97.1118 23.2989 97.8962C23.6473 98.7339 22.0172 100.995 20.6664 100.693Z" fill="#00AAD3" stroke="#263238" stroke-miterlimit="10"/>
<path d="M20.667 100.694L22.3186 98.7344" stroke="#263238" stroke-width="0.5" stroke-miterlimit="10"/>
<path d="M19.499 97.3105L20.5826 95.1172" stroke="#263238" stroke-width="2" stroke-miterlimit="10"/>
<path d="M20.254 95.774C20.2087 95.4936 20.2126 95.2045 20.2653 94.9262C20.318 94.6479 20.4183 94.3868 20.5595 94.1608C20.8506 93.6724 22.5666 92.1953 22.8865 92.9768C23.2325 93.8145 21.6024 96.0789 20.254 95.774Z" fill="#00AAD3" stroke="#263238" stroke-miterlimit="10"/>
<path d="M20.2539 95.7739L21.9055 93.8174" stroke="#263238" stroke-width="0.5" stroke-miterlimit="10"/>
<path d="M18.8936 90.1025L19.9771 87.9092" stroke="#263238" stroke-width="2" stroke-miterlimit="10"/>
<path d="M19.6475 88.5664C19.6023 88.2861 19.6061 87.997 19.6588 87.7186C19.7115 87.4403 19.8119 87.1793 19.953 86.9532C20.2418 86.4619 21.9602 84.9848 22.28 85.7692C22.6261 86.6069 21.0031 88.8713 19.6475 88.5664Z" fill="#00AAD3" stroke="#263238" stroke-miterlimit="10"/>
<path d="M19.6475 88.5659L21.299 86.6094" stroke="#263238" stroke-width="0.5" stroke-miterlimit="10"/>
<path d="M18.4281 85.4908C18.3835 85.2104 18.3876 84.9215 18.4403 84.6433C18.493 84.365 18.593 84.104 18.7336 83.8776C19.0248 83.3892 20.7432 81.9121 21.063 82.6936C21.409 83.5313 19.779 85.7957 18.4281 85.4908Z" fill="#00AAD3" stroke="#263238" stroke-miterlimit="10"/>
<path d="M18.4277 85.4907L20.0793 83.5342" stroke="#263238" stroke-width="0.5" stroke-miterlimit="10"/>
<path d="M18.5253 85.5771C18.2955 85.6033 18.0639 85.568 17.8461 85.4735C17.6283 85.379 17.4293 85.2276 17.2628 85.0295C16.9 84.621 15.8952 82.3478 16.5468 82.034C17.2652 81.6966 18.9096 83.9432 18.5253 85.5771Z" fill="#00AAD3" stroke="#263238" stroke-miterlimit="10"/>
<path d="M18.5255 85.5767L17.127 83.333" stroke="#263238" stroke-width="0.5" stroke-miterlimit="10"/>
<path d="M26.7529 90.8486L23.624 128.239" stroke="#263238" stroke-width="2" stroke-miterlimit="10"/>
<path d="M24.3154 121.108L23.2295 118.915" stroke="#263238" stroke-width="2" stroke-miterlimit="10"/>
<path d="M23.5618 119.585C23.6064 119.304 23.6023 119.015 23.5496 118.737C23.4969 118.459 23.3969 118.198 23.2563 117.971C22.9651 117.483 21.2467 116.006 20.9269 116.787C20.5809 117.616 22.2133 119.881 23.5618 119.585Z" fill="#00AAD3" stroke="#263238" stroke-miterlimit="10"/>
<path d="M23.5614 119.573L22.0029 117.717" stroke="#263238" stroke-width="0.5" stroke-miterlimit="10"/>
<path d="M25.1846 110.73L24.0986 108.537" stroke="#263238" stroke-width="2" stroke-miterlimit="10"/>
<path d="M24.43 109.197C24.4746 108.917 24.4705 108.628 24.4178 108.35C24.3651 108.071 24.2651 107.81 24.1245 107.584C23.8334 107.093 22.115 105.618 21.7951 106.4C21.4491 107.238 23.0792 109.502 24.43 109.197Z" fill="#00AAD3" stroke="#263238" stroke-miterlimit="10"/>
<path d="M24.43 109.198L22.8691 107.342" stroke="#263238" stroke-width="0.5" stroke-miterlimit="10"/>
<path d="M24.8291 114.984L23.7432 112.791" stroke="#263238" stroke-width="2" stroke-miterlimit="10"/>
<path d="M24.0746 113.448C24.1192 113.167 24.115 112.878 24.0623 112.6C24.0096 112.322 23.9097 112.061 23.7691 111.835C23.4779 111.346 21.7595 109.869 21.4397 110.651C21.0936 111.491 22.7237 113.753 24.0746 113.448Z" fill="#00AAD3" stroke="#263238" stroke-miterlimit="10"/>
<path d="M24.0746 113.448L22.5137 111.592" stroke="#263238" stroke-width="0.5" stroke-miterlimit="10"/>
<path d="M25.7617 103.822L24.6758 101.632" stroke="#263238" stroke-width="2" stroke-miterlimit="10"/>
<path d="M25.0081 102.289C25.0527 102.009 25.0485 101.72 24.9959 101.441C24.9432 101.163 24.8432 100.902 24.7026 100.676C24.4114 100.184 22.693 98.7103 22.3732 99.4917C22.0271 100.344 23.6596 102.594 25.0081 102.289Z" fill="#00AAD3" stroke="#263238" stroke-miterlimit="10"/>
<path d="M25.0077 102.289L23.4492 100.433" stroke="#263238" stroke-width="0.5" stroke-miterlimit="10"/>
<path d="M26.3423 96.8867L25.2588 94.6934" stroke="#263238" stroke-width="2" stroke-miterlimit="10"/>
<path d="M25.5882 95.3502C25.6334 95.0698 25.6296 94.7807 25.5769 94.5024C25.5242 94.224 25.4238 93.963 25.2827 93.737C24.9915 93.2486 23.2731 91.7715 22.9533 92.553C22.6072 93.3936 24.2397 95.655 25.5882 95.3502Z" fill="#00AAD3" stroke="#263238" stroke-miterlimit="10"/>
<path d="M25.5878 95.351L24.0293 93.4951" stroke="#263238" stroke-width="0.5" stroke-miterlimit="10"/>
<path d="M24.5 118.584L25.9248 116.716" stroke="#263238" stroke-width="2" stroke-miterlimit="10"/>
<path d="M25.4922 117.275C25.4943 116.99 25.5459 116.708 25.6435 116.449C25.7411 116.19 25.8824 115.96 26.0578 115.775C26.4254 115.369 28.3514 114.363 28.5328 115.203C28.7333 116.118 26.7619 117.918 25.4922 117.275Z" fill="#00AAD3" stroke="#263238" stroke-miterlimit="10"/>
<path d="M25.4922 117.275L27.4325 115.78" stroke="#263238" stroke-width="0.5" stroke-miterlimit="10"/>
<path d="M25.4355 107.395L26.8604 105.524" stroke="#263238" stroke-width="2" stroke-miterlimit="10"/>
<path d="M26.4277 106.084C26.4306 105.798 26.4828 105.516 26.5807 105.257C26.6787 104.998 26.8202 104.769 26.9958 104.583C27.3609 104.178 29.287 103.171 29.4707 104.015C29.6688 104.929 27.6974 106.726 26.4277 106.084Z" fill="#00AAD3" stroke="#263238" stroke-miterlimit="10"/>
<path d="M26.4277 106.084L28.3681 104.592" stroke="#263238" stroke-width="0.5" stroke-miterlimit="10"/>
<path d="M25.8477 102.475L27.2725 100.607" stroke="#263238" stroke-width="2" stroke-miterlimit="10"/>
<path d="M26.8389 101.167C26.8417 100.881 26.8939 100.599 26.9919 100.34C27.0899 100.082 27.2314 99.8517 27.4069 99.6663C27.7721 99.2607 29.6981 98.2543 29.8819 99.095C30.0728 100.01 28.111 101.824 26.8389 101.167Z" fill="#00AAD3" stroke="#263238" stroke-miterlimit="10"/>
<path d="M26.8389 101.167L28.7816 99.6719" stroke="#263238" stroke-width="0.5" stroke-miterlimit="10"/>
<path d="M26.4492 95.2682L27.8764 93.3975" stroke="#263238" stroke-width="2" stroke-miterlimit="10"/>
<path d="M27.4473 93.9598C27.45 93.6738 27.5021 93.3919 27.6001 93.133C27.6981 92.8742 27.8396 92.6443 28.0153 92.4591C28.3805 92.0506 30.3065 91.0442 30.4903 91.8878C30.6836 92.8024 28.7122 94.6021 27.4473 93.9598Z" fill="#00AAD3" stroke="#263238" stroke-miterlimit="10"/>
<path d="M27.4424 93.9596L29.3851 92.4648" stroke="#263238" stroke-width="0.5" stroke-miterlimit="10"/>
<path d="M26.7617 90.6387C26.7646 90.353 26.8165 90.0714 26.9141 89.8127C27.0116 89.5539 27.1525 89.3239 27.3274 89.1379C27.6949 88.7324 29.6209 87.726 29.8023 88.5667C30.0028 89.4813 28.0314 91.281 26.7617 90.6387Z" fill="#00AAD3" stroke="#263238" stroke-miterlimit="10"/>
<path d="M26.7617 90.6384L28.7021 89.1436" stroke="#263238" stroke-width="0.5" stroke-miterlimit="10"/>
<path d="M26.841 90.7449C26.6123 90.7118 26.3919 90.6183 26.1947 90.4707C25.9975 90.3232 25.8281 90.125 25.6978 89.8895C25.4114 89.3951 24.8052 86.9147 25.4997 86.7755C26.2539 86.6275 27.4902 89.2471 26.841 90.7449Z" fill="#00AAD3" stroke="#263238" stroke-miterlimit="10"/>
<path d="M26.8409 90.7449L25.8457 88.1963" stroke="#263238" stroke-width="0.5" stroke-miterlimit="10"/>
<path d="M23.168 75.6221V122.905" stroke="#263238" stroke-width="2" stroke-miterlimit="10"/>
<path d="M23.1991 115.795L21.9365 113.753" stroke="#263238" stroke-width="2" stroke-miterlimit="10"/>
<path d="M22.3208 114.366C22.3419 114.081 22.3137 113.794 22.2379 113.524C22.1622 113.254 22.0407 113.007 21.8817 112.8C21.5523 112.35 19.7193 111.104 19.4663 111.912C19.1919 112.8 21.0034 114.848 22.3208 114.366Z" fill="#00AAD3" stroke="#263238" stroke-miterlimit="10"/>
<path d="M22.3207 114.365L20.6143 112.72" stroke="#263238" stroke-width="0.5" stroke-miterlimit="10"/>
<path d="M23.1991 106.91L21.9365 104.87" stroke="#263238" stroke-width="2" stroke-miterlimit="10"/>
<path d="M22.3208 105.48C22.3419 105.195 22.3136 104.909 22.2378 104.639C22.1621 104.369 22.0406 104.123 21.8817 103.917C21.5523 103.464 19.7193 102.218 19.4663 103.029C19.1919 103.917 21.0034 105.968 22.3208 105.48Z" fill="#00AAD3" stroke="#263238" stroke-miterlimit="10"/>
<path d="M22.3207 105.48L20.6143 103.834" stroke="#263238" stroke-width="0.5" stroke-miterlimit="10"/>
<path d="M23.1991 96.4779L21.9365 94.4355" stroke="#263238" stroke-width="2" stroke-miterlimit="10"/>
<path d="M22.3208 95.0483C22.3419 94.7636 22.3137 94.4765 22.2379 94.2064C22.1622 93.9364 22.0407 93.6895 21.8817 93.4825C21.5523 93.0326 19.7193 91.7864 19.4663 92.5945C19.1919 93.4825 21.0034 95.5249 22.3208 95.0483Z" fill="#00AAD3" stroke="#263238" stroke-miterlimit="10"/>
<path d="M22.3207 95.0491L20.6143 93.4033" stroke="#263238" stroke-width="0.5" stroke-miterlimit="10"/>
<path d="M23.1991 89.5346L21.9365 87.4922" stroke="#263238" stroke-width="2" stroke-miterlimit="10"/>
<path d="M22.3208 88.1042C22.3419 87.8195 22.3137 87.5324 22.2379 87.2623C22.1622 86.9923 22.0407 86.7454 21.8817 86.5384C21.5523 86.0885 19.7193 84.8393 19.4663 85.6504C19.1919 86.5384 21.0034 88.5808 22.3208 88.1042Z" fill="#00AAD3" stroke="#263238" stroke-miterlimit="10"/>
<path d="M22.3207 88.1047L20.6143 86.459" stroke="#263238" stroke-width="0.5" stroke-miterlimit="10"/>
<path d="M23.1991 82.557L21.9365 80.5176" stroke="#263238" stroke-width="2" stroke-miterlimit="10"/>
<path d="M22.3208 81.1306C22.3419 80.8458 22.3137 80.5588 22.2379 80.2887C22.1622 80.0186 22.0407 79.7718 21.8817 79.5648C21.5523 79.1148 19.7193 77.8657 19.4663 78.6768C19.1919 79.5648 21.0034 81.6072 22.3208 81.1306Z" fill="#00AAD3" stroke="#263238" stroke-miterlimit="10"/>
<path d="M22.3207 81.1311L20.6143 79.4854" stroke="#263238" stroke-width="0.5" stroke-miterlimit="10"/>
<path d="M23.1699 118.509L24.4325 116.467" stroke="#263238" stroke-width="2" stroke-miterlimit="10"/>
<path d="M24.0488 117.08C24.0277 116.795 24.0559 116.508 24.1317 116.238C24.2074 115.968 24.3289 115.721 24.4879 115.514C24.8173 115.064 26.6503 113.815 26.9032 114.626C27.1777 115.514 25.3662 117.556 24.0488 117.08Z" fill="#00AAD3" stroke="#263238" stroke-miterlimit="10"/>
<path d="M24.0488 117.08L25.8555 115.346" stroke="#263238" stroke-width="0.5" stroke-miterlimit="10"/>
<path d="M23.1699 104.378L24.4325 102.336" stroke="#263238" stroke-width="2" stroke-miterlimit="10"/>
<path d="M24.0488 102.949C24.0277 102.664 24.0559 102.377 24.1317 102.107C24.2074 101.837 24.3289 101.59 24.4879 101.383C24.8173 100.933 26.6503 99.6841 26.9032 100.495C27.1777 101.383 25.3662 103.426 24.0488 102.949Z" fill="#00AAD3" stroke="#263238" stroke-miterlimit="10"/>
<path d="M24.0488 102.949L25.8555 101.215" stroke="#263238" stroke-width="0.5" stroke-miterlimit="10"/>
<path d="M23.1699 97.4018L24.4325 95.3594" stroke="#263238" stroke-width="2" stroke-miterlimit="10"/>
<path d="M24.0488 95.9721C24.0277 95.6874 24.0559 95.4003 24.1317 95.1303C24.2074 94.8602 24.3289 94.6133 24.4879 94.4063C24.8173 93.9564 26.6503 92.7102 26.9032 93.5183C27.1777 94.4063 25.3662 96.4487 24.0488 95.9721Z" fill="#00AAD3" stroke="#263238" stroke-miterlimit="10"/>
<path d="M24.0488 95.9719L25.8555 94.2373" stroke="#263238" stroke-width="0.5" stroke-miterlimit="10"/>
<path d="M23.1699 88.184L24.4325 86.1416" stroke="#263238" stroke-width="2" stroke-miterlimit="10"/>
<path d="M24.0488 86.7546C24.0277 86.4699 24.0559 86.1828 24.1317 85.9127C24.2074 85.6427 24.3289 85.3958 24.4879 85.1888C24.8173 84.7389 26.6503 83.4897 26.9032 84.3008C27.1777 85.1888 25.3662 87.2312 24.0488 86.7546Z" fill="#00AAD3" stroke="#263238" stroke-miterlimit="10"/>
<path d="M24.0488 86.7551L25.8555 85.0205" stroke="#263238" stroke-width="0.5" stroke-miterlimit="10"/>
<path d="M23.1699 80.935L24.4325 78.8926" stroke="#263238" stroke-width="2" stroke-miterlimit="10"/>
<path d="M24.0488 79.5054C24.0277 79.2206 24.0559 78.9335 24.1317 78.6635C24.2074 78.3934 24.3289 78.1465 24.4879 77.9395C24.8173 77.4896 26.6503 76.2434 26.9032 77.0515C27.1777 77.9395 25.3662 79.9819 24.0488 79.5054Z" fill="#00AAD3" stroke="#263238" stroke-miterlimit="10"/>
<path d="M24.0488 79.506L25.8555 77.7715" stroke="#263238" stroke-width="0.5" stroke-miterlimit="10"/>
<path d="M23.0958 76.2915C23.0745 76.007 23.1025 75.7201 23.1778 75.4501C23.2531 75.18 23.3741 74.933 23.5325 74.7256C23.8643 74.2757 25.6949 73.0296 25.9478 73.8376C26.2223 74.7256 24.4108 76.768 23.0958 76.2915Z" fill="#00AAD3" stroke="#263238" stroke-miterlimit="10"/>
<path d="M23.0957 76.2912L24.9 74.5566" stroke="#263238" stroke-width="0.5" stroke-miterlimit="10"/>
<path d="M23.1818 76.3889C22.9514 76.3851 22.7243 76.32 22.516 76.1979C22.3076 76.0759 22.1228 75.8997 21.9741 75.6814C21.6472 75.2285 20.8381 72.8368 21.5183 72.6119C22.2558 72.3662 23.7021 74.8141 23.1818 76.3889Z" fill="#00AAD3" stroke="#263238" stroke-miterlimit="10"/>
<path d="M23.1819 76.3889L21.9814 73.9795" stroke="#263238" stroke-width="0.5" stroke-miterlimit="10"/>
<path d="M24.7362 135.169H20.7003L20.1943 122.521H25.2421L24.7362 135.169Z" fill="#263238" stroke="#263238" stroke-miterlimit="10"/>
<path d="M153.728 85.7012L156.873 123.086" stroke="#263238" stroke-width="2" stroke-miterlimit="10"/>
<path d="M156.368 115.931L154.94 114.063" stroke="#263238" stroke-width="2" stroke-miterlimit="10"/>
<path d="M155.372 114.624C155.369 114.338 155.317 114.056 155.219 113.797C155.121 113.538 154.98 113.308 154.804 113.123C154.439 112.717 152.511 111.714 152.329 112.555C152.131 113.469 154.105 115.269 155.372 114.624Z" fill="#00AAD3" stroke="#263238" stroke-miterlimit="10"/>
<path d="M155.374 114.623L153.539 113.205" stroke="#263238" stroke-width="0.5" stroke-miterlimit="10"/>
<path d="M156.726 120.185L155.299 118.317" stroke="#263238" stroke-width="2" stroke-miterlimit="10"/>
<path d="M155.733 118.877C155.73 118.591 155.678 118.309 155.58 118.05C155.482 117.791 155.341 117.562 155.165 117.376C154.797 116.971 152.871 115.964 152.69 116.805C152.489 117.723 154.463 119.519 155.733 118.877Z" fill="#00AAD3" stroke="#263238" stroke-miterlimit="10"/>
<path d="M155.733 118.877L153.897 117.459" stroke="#263238" stroke-width="0.5" stroke-miterlimit="10"/>
<path d="M155.495 105.556L154.067 103.688" stroke="#263238" stroke-width="2" stroke-miterlimit="10"/>
<path d="M154.501 104.248C154.498 103.962 154.446 103.68 154.348 103.421C154.25 103.162 154.109 102.933 153.933 102.747C153.568 102.342 151.64 101.335 151.458 102.179C151.26 103.094 153.224 104.89 154.501 104.248Z" fill="#00AAD3" stroke="#263238" stroke-miterlimit="10"/>
<path d="M154.501 104.248L152.666 102.83" stroke="#263238" stroke-width="0.5" stroke-miterlimit="10"/>
<path d="M155.852 109.807L154.425 107.939" stroke="#263238" stroke-width="2" stroke-miterlimit="10"/>
<path d="M154.859 108.499C154.856 108.213 154.804 107.931 154.706 107.672C154.608 107.413 154.466 107.183 154.291 106.998C153.926 106.592 151.997 105.589 151.816 106.43C151.615 107.344 153.589 109.144 154.859 108.499Z" fill="#00AAD3" stroke="#263238" stroke-miterlimit="10"/>
<path d="M154.86 108.499L153.024 107.081" stroke="#263238" stroke-width="0.5" stroke-miterlimit="10"/>
<path d="M154.912 98.648L153.487 96.7803" stroke="#263238" stroke-width="2" stroke-miterlimit="10"/>
<path d="M153.919 97.3399C153.916 97.0542 153.864 96.7727 153.767 96.5139C153.669 96.2551 153.528 96.0251 153.354 95.8392C152.986 95.4366 151.06 94.4302 150.876 95.2708C150.678 96.2003 152.649 97.9763 153.919 97.3399Z" fill="#00AAD3" stroke="#263238" stroke-miterlimit="10"/>
<path d="M153.919 97.3397L152.086 95.9219" stroke="#263238" stroke-width="0.5" stroke-miterlimit="10"/>
<path d="M154.33 91.7125L152.902 89.8447" stroke="#263238" stroke-width="2" stroke-miterlimit="10"/>
<path d="M153.336 90.4042C153.334 90.1182 153.281 89.8364 153.183 89.5775C153.085 89.3187 152.944 89.0888 152.768 88.9034C152.403 88.4979 150.475 87.4915 150.293 88.3351C150.093 89.2498 152.067 91.0465 153.336 90.4042Z" fill="#00AAD3" stroke="#263238" stroke-miterlimit="10"/>
<path d="M153.336 90.4042L151.501 88.9863" stroke="#263238" stroke-width="0.5" stroke-miterlimit="10"/>
<path d="M156.127 113.415L157.213 111.222" stroke="#263238" stroke-width="2" stroke-miterlimit="10"/>
<path d="M156.881 111.888C156.837 111.607 156.841 111.318 156.893 111.04C156.946 110.762 157.046 110.501 157.187 110.275C157.478 109.783 159.196 108.306 159.514 109.091C159.862 109.922 158.237 112.184 156.881 111.888Z" fill="#00AAD3" stroke="#263238" stroke-miterlimit="10"/>
<path d="M156.881 111.882L158.532 109.923" stroke="#263238" stroke-width="0.5" stroke-miterlimit="10"/>
<path d="M155.187 102.227L156.27 100.033" stroke="#263238" stroke-width="2" stroke-miterlimit="10"/>
<path d="M155.94 100.693C155.895 100.413 155.899 100.124 155.952 99.8456C156.004 99.5673 156.105 99.3062 156.246 99.0802C156.535 98.5888 158.253 97.1118 158.573 97.8962C158.919 98.7339 157.282 100.995 155.94 100.693Z" fill="#00AAD3" stroke="#263238" stroke-miterlimit="10"/>
<path d="M155.94 100.694L157.592 98.7344" stroke="#263238" stroke-width="0.5" stroke-miterlimit="10"/>
<path d="M154.771 97.3105L155.856 95.1172" stroke="#263238" stroke-width="2" stroke-miterlimit="10"/>
<path d="M155.525 95.774C155.48 95.4936 155.484 95.2047 155.537 94.9265C155.59 94.6482 155.69 94.3872 155.83 94.1608C156.121 93.6724 157.84 92.1953 158.157 92.9768C158.506 93.8145 156.876 96.0789 155.525 95.774Z" fill="#00AAD3" stroke="#263238" stroke-miterlimit="10"/>
<path d="M155.525 95.7739L157.177 93.8174" stroke="#263238" stroke-width="0.5" stroke-miterlimit="10"/>
<path d="M154.165 90.1025L155.251 87.9092" stroke="#263238" stroke-width="2" stroke-miterlimit="10"/>
<path d="M154.919 88.5664C154.875 88.2861 154.879 87.9971 154.932 87.7189C154.984 87.4407 155.084 87.1796 155.225 86.9532C155.516 86.4619 157.234 84.9848 157.552 85.7692C157.9 86.6069 156.27 88.8713 154.919 88.5664Z" fill="#00AAD3" stroke="#263238" stroke-miterlimit="10"/>
<path d="M154.919 88.5659L156.571 86.6094" stroke="#263238" stroke-width="0.5" stroke-miterlimit="10"/>
<path d="M153.702 85.4908C153.657 85.2104 153.661 84.9215 153.714 84.6433C153.766 84.365 153.866 84.104 154.007 83.8776C154.298 83.3892 156.017 81.9121 156.334 82.6936C156.682 83.5313 155.052 85.7957 153.702 85.4908Z" fill="#00AAD3" stroke="#263238" stroke-miterlimit="10"/>
<path d="M153.702 85.4907L155.354 83.5342" stroke="#263238" stroke-width="0.5" stroke-miterlimit="10"/>
<path d="M153.797 85.5771C153.567 85.6033 153.335 85.568 153.118 85.4735C152.9 85.379 152.701 85.2276 152.534 85.0295C152.171 84.621 151.169 82.3478 151.818 82.034C152.539 81.6966 154.179 83.9432 153.797 85.5771Z" fill="#00AAD3" stroke="#263238" stroke-miterlimit="10"/>
<path d="M153.798 85.5767L152.401 83.333" stroke="#263238" stroke-width="0.5" stroke-miterlimit="10"/>
<path d="M162.026 90.8486L158.897 128.239" stroke="#263238" stroke-width="2" stroke-miterlimit="10"/>
<path d="M159.59 121.108L158.504 118.915" stroke="#263238" stroke-width="2" stroke-miterlimit="10"/>
<path d="M158.835 119.585C158.88 119.304 158.875 119.015 158.822 118.737C158.769 118.458 158.669 118.197 158.528 117.971C158.236 117.483 156.518 116.006 156.201 116.787C155.85 117.616 157.485 119.881 158.835 119.585Z" fill="#00AAD3" stroke="#263238" stroke-miterlimit="10"/>
<path d="M158.835 119.573L157.274 117.717" stroke="#263238" stroke-width="0.5" stroke-miterlimit="10"/>
<path d="M160.458 110.73L159.372 108.537" stroke="#263238" stroke-width="2" stroke-miterlimit="10"/>
<path d="M159.702 109.197C159.747 108.917 159.743 108.628 159.69 108.349C159.638 108.071 159.537 107.81 159.396 107.584C159.105 107.093 157.387 105.618 157.069 106.4C156.721 107.238 158.353 109.502 159.702 109.197Z" fill="#00AAD3" stroke="#263238" stroke-miterlimit="10"/>
<path d="M159.702 109.198L158.144 107.342" stroke="#263238" stroke-width="0.5" stroke-miterlimit="10"/>
<path d="M160.103 114.984L159.017 112.791" stroke="#263238" stroke-width="2" stroke-miterlimit="10"/>
<path d="M159.346 113.448C159.391 113.167 159.388 112.878 159.335 112.6C159.282 112.322 159.182 112.061 159.041 111.835C158.749 111.346 157.031 109.869 156.714 110.651C156.365 111.491 157.998 113.753 159.346 113.448Z" fill="#00AAD3" stroke="#263238" stroke-miterlimit="10"/>
<path d="M159.347 113.448L157.788 111.592" stroke="#263238" stroke-width="0.5" stroke-miterlimit="10"/>
<path d="M161.036 103.822L159.95 101.632" stroke="#263238" stroke-width="2" stroke-miterlimit="10"/>
<path d="M160.282 102.289C160.326 102.008 160.322 101.719 160.268 101.441C160.215 101.163 160.115 100.902 159.974 100.676C159.683 100.184 157.964 98.7103 157.647 99.4917C157.301 100.344 158.931 102.594 160.282 102.289Z" fill="#00AAD3" stroke="#263238" stroke-miterlimit="10"/>
<path d="M160.282 102.289L158.721 100.433" stroke="#263238" stroke-width="0.5" stroke-miterlimit="10"/>
<path d="M161.616 96.8867L160.53 94.6934" stroke="#263238" stroke-width="2" stroke-miterlimit="10"/>
<path d="M160.862 95.3502C160.906 95.0696 160.902 94.7805 160.849 94.5022C160.795 94.224 160.695 93.963 160.554 93.737C160.265 93.2486 158.547 91.7715 158.227 92.553C157.881 93.3936 159.511 95.655 160.862 95.3502Z" fill="#00AAD3" stroke="#263238" stroke-miterlimit="10"/>
<path d="M160.862 95.351L159.301 93.4951" stroke="#263238" stroke-width="0.5" stroke-miterlimit="10"/>
<path d="M159.773 118.584L161.198 116.716" stroke="#263238" stroke-width="2" stroke-miterlimit="10"/>
<path d="M160.764 117.275C160.767 116.989 160.819 116.708 160.917 116.449C161.015 116.19 161.156 115.96 161.332 115.775C161.697 115.369 163.623 114.363 163.807 115.203C164.005 116.118 162.036 117.918 160.764 117.275Z" fill="#00AAD3" stroke="#263238" stroke-miterlimit="10"/>
<path d="M160.764 117.275L162.706 115.78" stroke="#263238" stroke-width="0.5" stroke-miterlimit="10"/>
<path d="M160.709 107.395L162.134 105.524" stroke="#263238" stroke-width="2" stroke-miterlimit="10"/>
<path d="M161.702 106.084C161.704 105.798 161.756 105.516 161.853 105.257C161.951 104.998 162.092 104.768 162.268 104.583C162.633 104.178 164.559 103.171 164.743 104.015C164.943 104.929 162.972 106.726 161.702 106.084Z" fill="#00AAD3" stroke="#263238" stroke-miterlimit="10"/>
<path d="M161.702 106.084L163.643 104.592" stroke="#263238" stroke-width="0.5" stroke-miterlimit="10"/>
<path d="M161.119 102.475L162.544 100.607" stroke="#263238" stroke-width="2" stroke-miterlimit="10"/>
<path d="M162.112 101.167C162.115 100.881 162.167 100.599 162.265 100.34C162.363 100.082 162.505 99.8517 162.68 99.6663C163.045 99.2607 164.972 98.2543 165.155 99.095C165.353 100.01 163.382 101.824 162.112 101.167Z" fill="#00AAD3" stroke="#263238" stroke-miterlimit="10"/>
<path d="M162.112 101.167L164.053 99.6719" stroke="#263238" stroke-width="0.5" stroke-miterlimit="10"/>
<path d="M161.724 95.2682L163.148 93.3975" stroke="#263238" stroke-width="2" stroke-miterlimit="10"/>
<path d="M162.716 93.9598C162.718 93.674 162.769 93.392 162.867 93.1331C162.964 92.8741 163.106 92.6442 163.281 92.4591C163.649 92.0506 165.575 91.0442 165.756 91.8878C165.957 92.8024 163.986 94.6021 162.716 93.9598Z" fill="#00AAD3" stroke="#263238" stroke-miterlimit="10"/>
<path d="M162.716 93.9596L164.656 92.4648" stroke="#263238" stroke-width="0.5" stroke-miterlimit="10"/>
<path d="M162.033 90.6387C162.036 90.3527 162.088 90.0709 162.186 89.812C162.284 89.5532 162.426 89.3233 162.601 89.1379C162.966 88.7324 164.892 87.726 165.076 88.5667C165.277 89.4813 163.305 91.281 162.033 90.6387Z" fill="#00AAD3" stroke="#263238" stroke-miterlimit="10"/>
<path d="M162.033 90.6384L163.976 89.1436" stroke="#263238" stroke-width="0.5" stroke-miterlimit="10"/>
<path d="M162.115 90.7449C161.886 90.7118 161.665 90.6183 161.467 90.4708C161.27 90.3233 161.1 90.1251 160.969 89.8895C160.683 89.3951 160.079 86.9147 160.771 86.7755C161.528 86.6275 162.771 89.2471 162.115 90.7449Z" fill="#00AAD3" stroke="#263238" stroke-miterlimit="10"/>
<path d="M162.114 90.7449L161.119 88.1963" stroke="#263238" stroke-width="0.5" stroke-miterlimit="10"/>
<path d="M158.441 75.6221V122.905" stroke="#263238" stroke-width="2" stroke-miterlimit="10"/>
<path d="M158.47 115.795L157.21 113.753" stroke="#263238" stroke-width="2" stroke-miterlimit="10"/>
<path d="M157.594 114.366C157.615 114.081 157.587 113.794 157.511 113.524C157.436 113.254 157.314 113.007 157.155 112.8C156.823 112.35 154.993 111.104 154.74 111.912C154.465 112.8 156.277 114.848 157.594 114.366Z" fill="#00AAD3" stroke="#263238" stroke-miterlimit="10"/>
<path d="M157.594 114.365L155.888 112.72" stroke="#263238" stroke-width="0.5" stroke-miterlimit="10"/>
<path d="M158.47 106.91L157.21 104.87" stroke="#263238" stroke-width="2" stroke-miterlimit="10"/>
<path d="M157.594 105.48C157.615 105.195 157.587 104.909 157.511 104.639C157.436 104.369 157.314 104.123 157.155 103.917C156.823 103.464 154.993 102.218 154.74 103.029C154.465 103.917 156.277 105.968 157.594 105.48Z" fill="#00AAD3" stroke="#263238" stroke-miterlimit="10"/>
<path d="M157.594 105.48L155.888 103.834" stroke="#263238" stroke-width="0.5" stroke-miterlimit="10"/>
<path d="M158.47 96.4779L157.21 94.4355" stroke="#263238" stroke-width="2" stroke-miterlimit="10"/>
<path d="M157.594 95.0483C157.615 94.7636 157.587 94.4765 157.511 94.2064C157.436 93.9364 157.314 93.6895 157.155 93.4825C156.823 93.0326 154.993 91.7864 154.74 92.5945C154.465 93.4825 156.277 95.5249 157.594 95.0483Z" fill="#00AAD3" stroke="#263238" stroke-miterlimit="10"/>
<path d="M157.594 95.0491L155.888 93.4033" stroke="#263238" stroke-width="0.5" stroke-miterlimit="10"/>
<path d="M158.47 89.5346L157.21 87.4922" stroke="#263238" stroke-width="2" stroke-miterlimit="10"/>
<path d="M157.594 88.1042C157.615 87.8195 157.587 87.5324 157.511 87.2623C157.436 86.9923 157.314 86.7454 157.155 86.5384C156.823 86.0885 154.993 84.8393 154.74 85.6504C154.465 86.5384 156.277 88.5808 157.594 88.1042Z" fill="#00AAD3" stroke="#263238" stroke-miterlimit="10"/>
<path d="M157.594 88.1047L155.888 86.459" stroke="#263238" stroke-width="0.5" stroke-miterlimit="10"/>
<path d="M158.47 82.557L157.21 80.5176" stroke="#263238" stroke-width="2" stroke-miterlimit="10"/>
<path d="M157.594 81.1306C157.615 80.8458 157.587 80.5588 157.511 80.2887C157.436 80.0186 157.314 79.7718 157.155 79.5648C156.823 79.1148 154.993 77.8657 154.74 78.6768C154.465 79.5648 156.277 81.6072 157.594 81.1306Z" fill="#00AAD3" stroke="#263238" stroke-miterlimit="10"/>
<path d="M157.594 81.1311L155.888 79.4854" stroke="#263238" stroke-width="0.5" stroke-miterlimit="10"/>
<path d="M158.444 118.509L159.707 116.467" stroke="#263238" stroke-width="2" stroke-miterlimit="10"/>
<path d="M159.322 117.08C159.301 116.795 159.329 116.508 159.405 116.238C159.481 115.968 159.602 115.721 159.761 115.514C160.091 115.064 161.924 113.815 162.174 114.626C162.449 115.514 160.637 117.556 159.322 117.08Z" fill="#00AAD3" stroke="#263238" stroke-miterlimit="10"/>
<path d="M159.322 117.08L161.129 115.346" stroke="#263238" stroke-width="0.5" stroke-miterlimit="10"/>
<path d="M158.444 104.378L159.707 102.336" stroke="#263238" stroke-width="2" stroke-miterlimit="10"/>
<path d="M159.322 102.949C159.301 102.664 159.329 102.377 159.405 102.107C159.481 101.837 159.602 101.59 159.761 101.383C160.091 100.933 161.924 99.6841 162.174 100.495C162.449 101.383 160.637 103.426 159.322 102.949Z" fill="#00AAD3" stroke="#263238" stroke-miterlimit="10"/>
<path d="M159.322 102.949L161.129 101.215" stroke="#263238" stroke-width="0.5" stroke-miterlimit="10"/>
<path d="M158.444 97.4018L159.707 95.3594" stroke="#263238" stroke-width="2" stroke-miterlimit="10"/>
<path d="M159.322 95.9721C159.301 95.6874 159.329 95.4003 159.405 95.1303C159.481 94.8602 159.602 94.6133 159.761 94.4063C160.091 93.9564 161.924 92.7102 162.174 93.5183C162.449 94.4063 160.637 96.4487 159.322 95.9721Z" fill="#00AAD3" stroke="#263238" stroke-miterlimit="10"/>
<path d="M159.322 95.9719L161.129 94.2373" stroke="#263238" stroke-width="0.5" stroke-miterlimit="10"/>
<path d="M158.444 88.184L159.707 86.1416" stroke="#263238" stroke-width="2" stroke-miterlimit="10"/>
<path d="M159.322 86.7546C159.301 86.4699 159.329 86.1828 159.405 85.9127C159.481 85.6427 159.602 85.3958 159.761 85.1888C160.091 84.7389 161.924 83.4897 162.174 84.3008C162.449 85.1888 160.637 87.2312 159.322 86.7546Z" fill="#00AAD3" stroke="#263238" stroke-miterlimit="10"/>
<path d="M159.322 86.7551L161.129 85.0205" stroke="#263238" stroke-width="0.5" stroke-miterlimit="10"/>
<path d="M158.444 80.935L159.707 78.8926" stroke="#263238" stroke-width="2" stroke-miterlimit="10"/>
<path d="M159.322 79.5054C159.301 79.2206 159.329 78.9335 159.405 78.6635C159.481 78.3934 159.602 78.1465 159.761 77.9395C160.091 77.4896 161.924 76.2434 162.174 77.0515C162.449 77.9395 160.637 79.9819 159.322 79.5054Z" fill="#00AAD3" stroke="#263238" stroke-miterlimit="10"/>
<path d="M159.322 79.506L161.129 77.7715" stroke="#263238" stroke-width="0.5" stroke-miterlimit="10"/>
<path d="M158.368 76.2915C158.347 76.0067 158.375 75.7197 158.451 75.4496C158.527 75.1795 158.648 74.9327 158.807 74.7256C159.137 74.2757 160.97 73.0296 161.223 73.8376C161.497 74.7256 159.686 76.768 158.368 76.2915Z" fill="#00AAD3" stroke="#263238" stroke-miterlimit="10"/>
<path d="M158.367 76.2912L160.174 74.5566" stroke="#263238" stroke-width="0.5" stroke-miterlimit="10"/>
<path d="M158.456 76.3889C158.225 76.3851 157.998 76.32 157.789 76.198C157.58 76.076 157.395 75.8998 157.246 75.6814C156.922 75.2285 156.112 72.8368 156.79 72.6119C157.521 72.3662 158.976 74.8141 158.456 76.3889Z" fill="#00AAD3" stroke="#263238" stroke-miterlimit="10"/>
<path d="M158.456 76.3889L157.256 73.9795" stroke="#263238" stroke-width="0.5" stroke-miterlimit="10"/>
<path d="M160.01 135.169H155.971L155.468 122.521H160.513L160.01 135.169Z" fill="#263238" stroke="#263238" stroke-miterlimit="10"/>
<path d="M161.577 35.2242C161.577 33.5423 161.251 31.8851 160.626 30.3927C160.001 28.9003 159.095 27.6166 157.985 26.6504C156.875 25.6841 155.594 25.0637 154.25 24.8417C152.905 24.6196 151.538 24.8024 150.263 25.3747C148.988 25.9469 147.842 26.8918 146.924 28.1292C146.006 29.3666 145.341 30.8602 144.987 32.4836C144.632 34.107 144.599 35.8124 144.888 37.4554C145.178 39.0984 145.782 40.6307 146.65 41.9227C147.894 43.7709 148.575 46.1017 148.574 48.5086V49.9413H157.686V48.5086C157.681 46.1055 158.357 43.7765 159.596 41.9286C160.871 40.0524 161.573 37.6784 161.577 35.2242Z" fill="white" stroke="#263238" stroke-linecap="round" stroke-linejoin="round"/>
<path d="M157.687 49.9443H148.562V52.7445H157.687V49.9443Z" fill="#00AAD3" stroke="#263238" stroke-linecap="round" stroke-linejoin="round"/>
<path d="M148.563 52.75H157.687V54.1501C157.687 54.5214 157.568 54.8775 157.357 55.1401C157.145 55.4027 156.858 55.5502 156.558 55.5502H149.689C149.39 55.5502 149.103 55.4027 148.891 55.1401C148.679 54.8775 148.561 54.5214 148.561 54.1501V52.75H148.563Z" fill="#00AAD3" stroke="#263238" stroke-linecap="round" stroke-linejoin="round"/>
<path d="M149.713 55.5479H156.534V56.4359C156.534 56.9391 156.373 57.4217 156.086 57.7775C155.799 58.1333 155.41 58.3332 155.004 58.3332H151.243C150.837 58.3332 150.448 58.1333 150.161 57.7775C149.874 57.4217 149.713 56.9391 149.713 56.4359V55.5479Z" fill="#263238" stroke="#263238" stroke-linecap="round" stroke-linejoin="round"/>
<path d="M162.763 35.2803H166.629" stroke="#263238" stroke-linecap="round" stroke-linejoin="round"/>
<path d="M139.257 35.2803H143.173" stroke="#263238" stroke-linecap="round" stroke-linejoin="round"/>
<path d="M152.944 23.1147V18.3076" stroke="#263238" stroke-linecap="round" stroke-linejoin="round"/>
<path d="M159.951 26.5866L162.619 23.2773" stroke="#263238" stroke-linecap="round" stroke-linejoin="round"/>
<path d="M143.267 47.2805L145.973 43.9238" stroke="#263238" stroke-linecap="round" stroke-linejoin="round"/>
<path d="M145.859 26.4919L143.267 23.2773" stroke="#263238" stroke-linecap="round" stroke-linejoin="round"/>
<path d="M162.62 47.2798L160.04 44.0801" stroke="#263238" stroke-linecap="round" stroke-linejoin="round"/>
<path d="M103.235 31.7079L92.063 12.5479L80.8887 31.7079H85.4854V52.9933H98.6407V31.7079H103.235Z" fill="#00AAD3" stroke="#263238" stroke-linecap="round" stroke-linejoin="round"/>
<path d="M93.822 64.4524C100.102 63.1937 104.37 55.8597 103.355 48.0714C102.34 40.2831 96.4267 34.9897 90.1469 36.2484C83.8671 37.507 79.5991 44.841 80.6139 52.6293C81.6288 60.4177 87.5422 65.711 93.822 64.4524Z" fill="white" stroke="#263238" stroke-linecap="round" stroke-linejoin="round"/>
<path d="M100.756 55.8358C103.198 49.8307 101.252 42.5078 96.4098 39.4796C91.5678 36.4515 85.6633 38.8648 83.2217 44.8699C80.7801 50.875 82.726 58.198 87.5679 61.2261C92.4099 64.2543 98.3144 61.8409 100.756 55.8358Z" fill="white" stroke="#263238" stroke-linecap="round" stroke-linejoin="round"/>
<path d="M95.2638 52.1758C95.2638 48.9878 91.6218 48.9198 91.6218 47.5878C91.6218 46.8892 91.9177 46.679 92.5263 46.679C93.049 46.679 93.481 46.9573 93.9941 47.5197L95.1874 45.8029C94.6326 45.0245 93.8812 44.5027 93.0561 44.3229V42.5469H91.4809V44.3998C90.1205 44.7639 89.3067 45.9657 89.3067 47.7358C89.3067 50.8023 92.9487 50.9918 92.9487 52.3948C92.9487 53.0786 92.6671 53.3746 91.9607 53.3746C91.3688 53.3746 90.7673 53.0963 90.0131 52.3948L88.9678 54.4254C89.6841 55.1597 90.5574 55.6195 91.4809 55.7485V57.5067H93.0633V55.6242C94.5359 55.1802 95.2638 53.8718 95.2638 52.1758Z" fill="#00AAD3" stroke="#263238" stroke-linecap="round" stroke-linejoin="round"/>
<path d="M34.9886 40.0603C39.0637 39.1437 41.768 34.3035 41.0289 29.2495C40.2898 24.1956 36.3872 20.8416 32.3121 21.7582C28.2371 22.6749 25.5327 27.515 26.2718 32.569C27.0109 37.623 30.9136 40.9769 34.9886 40.0603Z" fill="white" stroke="#263238" stroke-linecap="round" stroke-linejoin="round"/>
<path d="M35.7683 21.9961L33.6514 30.9116H41.1503C41.1495 28.9041 40.6249 26.9508 39.6548 25.3438C38.6847 23.7368 37.3213 22.5624 35.7683 21.9961Z" fill="#00AAD3" stroke="#263238" stroke-linecap="round" stroke-linejoin="round"/>
<path d="M38.3076 25.0446L41.2838 20.6934H43.8375" stroke="#263238" stroke-width="0.5" stroke-linecap="round" stroke-linejoin="round"/>
<path d="M45.6475 20.8242H49.4757" stroke="#263238" stroke-width="0.5" stroke-linecap="round" stroke-linejoin="round"/>
<path d="M45.6475 22.0107H49.4757" stroke="#263238" stroke-width="0.5" stroke-linecap="round" stroke-linejoin="round"/>
<path d="M45.6475 23.1982H49.4757" stroke="#263238" stroke-width="0.5" stroke-linecap="round" stroke-linejoin="round"/>
<path d="M45.6475 24.3848H49.4757" stroke="#263238" stroke-width="0.5" stroke-linecap="round" stroke-linejoin="round"/>
<path d="M26.4773 50.0449H24.2959V58.1168H26.4773V50.0449Z" fill="#263238" stroke="#263238" stroke-width="0.5" stroke-linecap="round" stroke-linejoin="round"/>
<path d="M29.905 52.9492H27.7236V58.1174H29.905V52.9492Z" fill="#00AAD3" stroke="#263238" stroke-linecap="round" stroke-linejoin="round"/>
<path d="M33.3338 48.2783H31.1523V58.1174H33.3338V48.2783Z" fill="#263238" stroke="#263238" stroke-width="0.5" stroke-linecap="round" stroke-linejoin="round"/>
<path d="M36.7634 50.3145H34.582V58.12H36.7634V50.3145Z" fill="#00AAD3" stroke="#263238" stroke-linecap="round" stroke-linejoin="round"/>
<path d="M40.1912 48.5293H38.0098V58.1167H40.1912V48.5293Z" fill="#263238" stroke="#263238" stroke-width="0.5" stroke-linecap="round" stroke-linejoin="round"/>
<path d="M43.6209 42.8496H41.4395V58.1203H43.6209V42.8496Z" fill="#00AAD3" stroke="#263238" stroke-linecap="round" stroke-linejoin="round"/>
<path d="M46.0723 42.6895H47.3491" stroke="#263238" stroke-width="0.5" stroke-linecap="round" stroke-linejoin="round"/>
<path d="M46.0723 45.7734H47.3491" stroke="#263238" stroke-width="0.5" stroke-linecap="round" stroke-linejoin="round"/>
<path d="M46.0723 48.8613H47.3491" stroke="#263238" stroke-width="0.5" stroke-linecap="round" stroke-linejoin="round"/>
<path d="M46.0723 51.9482H47.3491" stroke="#263238" stroke-width="0.5" stroke-linecap="round" stroke-linejoin="round"/>
<path d="M46.0723 55.0352H47.3491" stroke="#263238" stroke-width="0.5" stroke-linecap="round" stroke-linejoin="round"/>
<path d="M46.0723 58.1201H47.3491" stroke="#263238" stroke-width="0.5" stroke-linecap="round" stroke-linejoin="round"/>
<path d="M25.5439 47.0703L28.8853 49.5774L32.3627 44.9598L35.7971 45.318L39.1241 43.6811L42.8902 37.5361" stroke="#263238" stroke-linecap="round" stroke-linejoin="round"/>
<path d="M25.964 47.064C25.964 46.9602 25.9392 46.8588 25.8927 46.7726C25.8461 46.6864 25.78 46.6192 25.7027 46.5796C25.6254 46.5401 25.5403 46.5299 25.4583 46.5503C25.3763 46.5708 25.301 46.621 25.242 46.6945C25.183 46.7681 25.143 46.8617 25.127 46.9636C25.1109 47.0654 25.1196 47.1708 25.152 47.2665C25.1843 47.3622 25.2388 47.4438 25.3086 47.501C25.3784 47.5582 25.4603 47.5885 25.544 47.5879C25.5993 47.5879 25.6541 47.5743 25.7053 47.5479C25.7564 47.5216 25.8028 47.4829 25.8418 47.4342C25.8809 47.3856 25.9118 47.3278 25.9327 47.2642C25.9537 47.2007 25.9643 47.1326 25.964 47.064Z" fill="#263238"/>
<path d="M29.3078 49.5776C29.3078 49.474 29.283 49.3727 29.2366 49.2866C29.1902 49.2004 29.1242 49.1332 29.047 49.0936C28.9698 49.0539 28.8849 49.0436 28.8029 49.0638C28.721 49.084 28.6457 49.1339 28.5866 49.2072C28.5275 49.2804 28.4873 49.3738 28.471 49.4754C28.4547 49.577 28.4631 49.6824 28.495 49.7781C28.527 49.8739 28.5812 49.9557 28.6506 50.0133C28.7201 50.0708 28.8018 50.1015 28.8853 50.1015C28.9409 50.1019 28.996 50.0887 29.0474 50.0625C29.0988 50.0363 29.1455 49.9977 29.1847 49.949C29.224 49.9002 29.2551 49.8423 29.2763 49.7786C29.2974 49.7148 29.3081 49.6465 29.3078 49.5776Z" fill="#263238"/>
<path d="M32.7834 44.9595C32.7834 44.8557 32.7585 44.7543 32.712 44.6681C32.6655 44.5819 32.5994 44.5147 32.522 44.4751C32.4447 44.4356 32.3596 44.4254 32.2776 44.4458C32.1956 44.4663 32.1203 44.5165 32.0614 44.5901C32.0024 44.6636 31.9623 44.7572 31.9463 44.8591C31.9303 44.9609 31.939 45.0663 31.9713 45.162C32.0037 45.2577 32.0582 45.3393 32.128 45.3965C32.1977 45.4537 32.2797 45.484 32.3633 45.4834C32.4187 45.4834 32.4735 45.4698 32.5246 45.4434C32.5757 45.4171 32.6221 45.3784 32.6612 45.3297C32.7002 45.2811 32.7311 45.2233 32.7521 45.1597C32.773 45.0962 32.7837 45.0281 32.7834 44.9595Z" fill="#263238"/>
<path d="M36.217 45.3179C36.2169 45.2141 36.1921 45.1127 36.1456 45.0265C36.0991 44.9403 36.0329 44.8731 35.9556 44.8335C35.8783 44.794 35.7932 44.7838 35.7112 44.8042C35.6292 44.8247 35.5539 44.8749 35.495 44.9485C35.436 45.022 35.3959 45.1156 35.3799 45.2175C35.3639 45.3193 35.3726 45.4247 35.4049 45.5204C35.4373 45.6161 35.4918 45.6977 35.5616 45.7549C35.6313 45.8121 35.7132 45.8424 35.7969 45.8418C35.8523 45.8418 35.9071 45.8282 35.9582 45.8018C36.0093 45.7755 36.0557 45.7368 36.0948 45.6881C36.1338 45.6395 36.1647 45.5817 36.1857 45.5181C36.2066 45.4546 36.2173 45.3865 36.217 45.3179Z" fill="#263238"/>
<path d="M39.547 43.5981C39.547 43.4945 39.5223 43.3932 39.4758 43.3071C39.4294 43.2209 39.3634 43.1538 39.2862 43.1141C39.2091 43.0744 39.1241 43.0641 39.0422 43.0843C38.9602 43.1045 38.885 43.1544 38.8259 43.2277C38.7668 43.3009 38.7266 43.3943 38.7103 43.4959C38.694 43.5976 38.7023 43.7029 38.7343 43.7986C38.7663 43.8944 38.8204 43.9762 38.8899 44.0338C38.9594 44.0913 39.041 44.1221 39.1246 44.1221C39.2366 44.1221 39.3441 44.0669 39.4233 43.9686C39.5025 43.8704 39.547 43.7371 39.547 43.5981Z" fill="#263238"/>
<path d="M43.3107 37.5356C43.3107 37.4319 43.2859 37.3305 43.2393 37.2443C43.1928 37.158 43.1267 37.0909 43.0494 37.0513C42.972 37.0117 42.887 37.0015 42.805 37.022C42.723 37.0425 42.6477 37.0927 42.5887 37.1662C42.5297 37.2398 42.4897 37.3334 42.4736 37.4352C42.4576 37.5371 42.4663 37.6425 42.4987 37.7382C42.531 37.8339 42.5855 37.9155 42.6553 37.9727C42.7251 38.0299 42.807 38.0601 42.8906 38.0596C43.0023 38.0588 43.1091 38.0032 43.1878 37.9051C43.2665 37.8069 43.3107 37.6741 43.3107 37.5356Z" fill="#263238"/>
<path d="M126.491 122.372H127.852V106.116H126.491V122.372Z" fill="#263238" stroke="#263238" stroke-linecap="round" stroke-linejoin="round"/>
<path d="M133.266 106.687L135.665 107.035L137.187 90.8889L134.789 90.5409L133.266 106.687Z" fill="#263238" stroke="#263238" stroke-linecap="round" stroke-linejoin="round"/>
<path d="M125.443 123.039V120.298H128.897V123.062L142.711 129.939V133.183H141.768V130.717L127.121 126.582L112.861 130.717V133.183H111.944V129.939L125.443 123.039Z" fill="#8C8C8C" stroke="#263238" stroke-linecap="round" stroke-linejoin="round"/>
<path d="M123.77 111.308H130.572V106.116H123.77V111.308Z" fill="#263238" stroke="#263238" stroke-linecap="round" stroke-linejoin="round"/>
<path d="M142.723 133.313C142.723 132.953 142.809 132.601 142.97 132.303C143.131 132.004 143.36 131.771 143.628 131.633C143.896 131.496 144.191 131.46 144.475 131.53C144.759 131.601 145.02 131.774 145.225 132.028C145.43 132.283 145.569 132.607 145.626 132.96C145.682 133.313 145.653 133.678 145.541 134.01C145.43 134.342 145.242 134.626 145 134.825C144.759 135.024 144.476 135.131 144.186 135.13C143.993 135.13 143.803 135.083 143.625 134.992C143.448 134.9 143.286 134.766 143.15 134.598C143.014 134.429 142.907 134.228 142.833 134.008C142.76 133.787 142.722 133.551 142.723 133.313Z" fill="#263238" stroke="#263238" stroke-linecap="round" stroke-linejoin="round"/>
<path d="M143.546 133.313C143.546 133.159 143.583 133.008 143.652 132.88C143.721 132.752 143.819 132.652 143.933 132.593C144.048 132.535 144.174 132.519 144.296 132.549C144.418 132.579 144.53 132.653 144.617 132.762C144.705 132.871 144.765 133.01 144.789 133.161C144.813 133.312 144.801 133.468 144.754 133.611C144.706 133.753 144.626 133.874 144.522 133.96C144.419 134.045 144.298 134.091 144.174 134.091C144.007 134.091 143.847 134.009 143.73 133.863C143.612 133.717 143.546 133.519 143.546 133.313Z" fill="white" stroke="#263238" stroke-linecap="round" stroke-linejoin="round"/>
<path d="M108.908 133.313C108.908 132.953 108.994 132.602 109.155 132.303C109.316 132.004 109.545 131.771 109.813 131.633C110.081 131.496 110.375 131.46 110.66 131.53C110.944 131.6 111.205 131.773 111.41 132.027C111.615 132.282 111.754 132.605 111.811 132.958C111.867 133.311 111.838 133.676 111.727 134.008C111.617 134.34 111.429 134.624 111.188 134.824C110.947 135.023 110.663 135.13 110.374 135.13C109.985 135.13 109.612 134.939 109.337 134.598C109.063 134.257 108.908 133.795 108.908 133.313Z" fill="#263238" stroke="#263238" stroke-linecap="round" stroke-linejoin="round"/>
<path d="M110.374 134.091C110.72 134.091 111.001 133.743 111.001 133.313C111.001 132.883 110.72 132.534 110.374 132.534C110.027 132.534 109.746 132.883 109.746 133.313C109.746 133.743 110.027 134.091 110.374 134.091Z" fill="white" stroke="#263238" stroke-linecap="round" stroke-linejoin="round"/>
<path d="M126.541 133.277H127.691L128.269 123.542H125.966L126.541 133.277Z" fill="#8C8C8C" stroke="#263238" stroke-linecap="round" stroke-linejoin="round"/>
<path d="M126.596 135.222H127.746V131.199H126.596V135.222Z" fill="#263238" stroke="#263238" stroke-linecap="round" stroke-linejoin="round"/>
<path d="M136.231 98.6451C136.902 98.7256 137.58 98.6412 138.225 98.3969C138.87 98.1525 139.469 97.753 139.99 97.2211C140.51 96.6893 140.941 96.0354 141.258 95.297C141.574 94.5586 141.77 93.75 141.835 92.9175L143.439 72.2242C143.569 70.5431 143.156 68.8666 142.29 67.5633C141.424 66.2601 140.176 65.4366 138.821 65.2741C137.465 65.1133 136.113 65.6265 135.062 66.701C134.012 67.7755 133.348 69.3234 133.217 71.0046L131.61 91.7246C131.486 93.4015 131.903 95.0712 132.769 96.3682C133.634 97.6652 134.879 98.4839 136.231 98.6451Z" fill="#8C8C8C" stroke="#263238" stroke-linecap="round" stroke-linejoin="round"/>
<path d="M135.014 98.4999C136.369 98.6616 137.721 98.1491 138.772 97.075C139.823 96.001 140.487 94.4533 140.618 92.7724L142.224 72.0524C142.35 70.3737 141.935 68.7014 141.069 67.402C140.203 66.1026 138.956 65.282 137.603 65.12C136.932 65.04 136.255 65.1248 135.61 65.3695C134.965 65.6142 134.366 66.014 133.845 66.5462C133.325 67.0784 132.895 67.7324 132.578 68.4709C132.262 69.2095 132.066 70.0181 132.002 70.8506L130.396 91.5528C130.265 93.2336 130.679 94.9097 131.545 96.2125C132.411 97.5153 133.659 98.3381 135.014 98.4999Z" fill="#8C8C8C" stroke="#263238" stroke-linecap="round" stroke-linejoin="round"/>
<path d="M112.672 107.744L136.625 108.525C136.757 108.531 136.89 108.503 137.014 108.445C137.139 108.386 137.252 108.298 137.349 108.185C137.446 108.072 137.524 107.937 137.579 107.786C137.633 107.636 137.664 107.474 137.668 107.309L137.789 102.555C137.793 102.39 137.771 102.226 137.724 102.072C137.677 101.918 137.606 101.776 137.515 101.656C137.424 101.536 137.315 101.439 137.193 101.372C137.072 101.304 136.941 101.267 136.808 101.262L112.858 100.48C112.725 100.475 112.593 100.502 112.469 100.56C112.344 100.618 112.23 100.706 112.133 100.818C112.037 100.931 111.959 101.067 111.904 101.217C111.849 101.367 111.819 101.529 111.815 101.694L111.696 106.451C111.687 106.782 111.785 107.105 111.968 107.347C112.151 107.59 112.404 107.732 112.672 107.744Z" fill="#8C8C8C" stroke="#263238" stroke-linecap="round" stroke-linejoin="round"/>
<path d="M122.687 107.975L136.627 108.521C137.186 108.543 137.653 107.999 137.671 107.306L137.792 102.552C137.809 101.859 137.371 101.28 136.812 101.258L122.872 100.711C122.313 100.689 121.846 101.233 121.828 101.926L121.707 106.68C121.689 107.373 122.128 107.953 122.687 107.975Z" fill="#8C8C8C" stroke="#263238" stroke-linecap="round" stroke-linejoin="round"/>
<path d="M111.075 128.085L110.958 129.181C110.958 129.181 109.898 131.809 109.485 132.247C109.073 132.685 106.483 134.071 106.013 134.29C105.543 134.509 106.366 135.178 107.485 135.24C108.605 135.302 110.664 135.314 111.371 135.095C112.077 134.876 113.431 133.632 113.727 133.561L113.965 134.509C113.965 134.509 115.261 133.917 115.731 133.78C116.202 133.644 116.968 132.892 116.968 132.892C116.7 131.873 116.386 130.873 116.027 129.897C115.81 129.407 115.531 128.964 115.201 128.583L114.321 127.28L111.075 128.085Z" fill="#263238" stroke="#263238" stroke-linecap="round" stroke-linejoin="round"/>
<path d="M118.199 86.373L116.257 87.8323L112.018 89.3656C112.018 89.3656 98.5954 92.4322 97.8293 93.5363C97.0631 94.6403 97.3519 95.5816 98.0059 96.9699C98.6598 98.3581 110.025 129.107 110.025 129.107L114.736 127.937L106.846 98.4943C106.846 98.4943 121.684 102.218 124.269 101.632C126.854 101.046 130.157 97.6181 130.744 94.9896C131.331 92.3611 128.624 88.1816 128.624 88.1816L118.199 86.373Z" fill="#00AAD3" stroke="#263238" stroke-linecap="round" stroke-linejoin="round"/>
<path d="M103.507 95.6377C103.507 95.6377 106.473 97.4137 107.006 99.4117" stroke="#263238" stroke-linecap="round" stroke-linejoin="round"/>
<path d="M133.565 61.986L127.207 61.2549L117.906 87.3946L124.028 88.7089L133.565 61.986Z" fill="white" stroke="#263238" stroke-linecap="round" stroke-linejoin="round"/>
<path d="M127.324 63.6964C127.324 63.6964 118.023 87.0242 117.902 87.3942C117.78 87.7642 115.135 88.7084 114.546 88.8535C113.956 88.9985 112.014 89.3656 112.014 89.3656L115.312 86.592L117.663 79.0707L114.799 77.2562C114.799 77.2562 120.097 67.3994 121.274 64.0398C122.451 60.6802 122.914 59.7922 124.088 59.7212C125.262 59.6501 128.622 59.9402 128.622 59.9402L127.324 63.6964Z" fill="#00AAD3" stroke="#263238" stroke-linecap="round" stroke-linejoin="round"/>
<path d="M126.03 68.628L126.147 70.3093C126.147 70.3093 119.966 84.0348 119.909 84.3279C119.851 84.6209 120.386 86.6633 120.386 86.6633L122.565 84.6919L126.684 70.6023L127.804 69.7972V67.1895L126.03 68.628Z" fill="#263238" stroke="#263238" stroke-linecap="round" stroke-linejoin="round"/>
<path d="M128.488 43.397C128.488 43.397 126.302 49.9623 125.818 51.9514C125.333 53.9405 124.992 57.1906 125.102 57.5517C125.211 57.9129 125.818 59.1768 126.947 59.2389C128.075 59.3011 129.035 59.2981 129.035 59.2981L127.336 63.6967C127.336 63.6967 127.529 67.1303 127.813 67.1895C128.097 67.2487 132.379 63.155 132.476 62.9715C132.574 62.788 135.293 55.5715 135.293 55.5715C135.293 55.5715 137.722 54.0649 137.868 52.7388C137.916 52.3678 137.882 51.9878 137.771 51.6385C137.659 51.2891 137.475 50.9832 137.236 50.7526V49.1246L138.305 45.1493C138.305 45.1493 135.634 42.9826 132.67 42.0769C129.706 41.1711 129.075 41.7809 129.075 41.7809L128.488 43.397Z" fill="white" stroke="#263238" stroke-linecap="round" stroke-linejoin="round"/>
<path d="M133.393 39.7234C133.393 39.7234 129.023 38.276 127.08 40.3865C125.138 42.4969 130.188 45.8802 131.839 46.1762C133.491 46.4722 135.531 46.0549 135.045 46.5995C134.558 47.1441 133.491 47.9848 134.025 48.5265C134.361 48.8607 134.738 49.1246 135.142 49.3079C135.142 49.3079 132.861 55.5239 132.472 56.2343C132.083 56.9447 131.355 56.8973 130.918 56.7168C130.481 56.5362 128.393 54.9112 127.713 54.6093C127.033 54.3073 125.77 53.4045 125.479 54.3695C125.188 55.3345 124.457 59.4281 125.527 60.3309C126.596 61.2337 131.792 58.9457 132.57 58.2826C133.348 57.6196 133.589 56.4149 133.734 56.1751C133.88 55.9353 135.968 51.6581 136.162 51.3562C136.355 51.0543 137.231 50.7642 137.231 50.7642C137.231 50.7642 138.98 46.4249 139.126 44.7406C139.271 43.0564 134.706 39.6642 133.393 39.7234Z" fill="#263238" stroke="#263238" stroke-linecap="round" stroke-linejoin="round"/>
<path d="M128.83 48.0947L128.732 50.7587C128.732 50.7587 126.45 53.9496 126.45 54.3107C126.45 54.6718 129.169 54.2515 129.169 54.2515" stroke="#263238" stroke-linecap="round" stroke-linejoin="round"/>
<path d="M128.489 47.4939C128.405 47.292 128.267 47.133 128.099 47.0448C127.93 46.9565 127.742 46.9447 127.567 47.0114" stroke="#263238" stroke-linecap="round" stroke-linejoin="round"/>
<path d="M130.529 48.9975C130.529 48.9975 131.937 48.817 132.374 50.143" stroke="#263238" stroke-linecap="round" stroke-linejoin="round"/>
<path d="M126.731 55.6836C126.731 55.6836 127.994 56.6486 128.82 56.6486" stroke="white" stroke-linecap="round" stroke-linejoin="round"/>
<path d="M131.009 51.6075C130.875 51.9361 130.632 52.1137 130.465 52.0101C130.298 51.9065 130.269 51.5543 130.403 51.2287C130.536 50.9031 130.78 50.7225 130.947 50.8261C131.114 50.9297 131.143 51.2819 131.009 51.6075Z" fill="#263238"/>
<path d="M127.968 50.1424C127.837 50.468 127.591 50.6486 127.424 50.542C127.257 50.4355 127.228 50.0892 127.362 49.7606C127.495 49.432 127.739 49.2544 127.906 49.361C128.073 49.4675 128.102 49.8139 127.968 50.1424Z" fill="#263238"/>
<path d="M106.896 125.644L106.483 128.71L105.6 129.006C105.6 129.006 104.774 130.24 104.6 130.536C104.426 130.832 102.245 132.798 101.657 133.165C101.07 133.532 99.5954 133.674 99.6551 134.186C99.7147 134.698 102.834 135.136 104.837 135.207C106.839 135.278 107.956 134.479 107.956 134.479L108.133 134.988L110.192 134.769C110.192 134.769 110.075 132.36 110.135 131.339C110.154 130.508 110.114 129.677 110.016 128.855L109.899 126.739L106.896 125.644Z" fill="#263238" stroke="#263238" stroke-linecap="round" stroke-linejoin="round"/>
<path d="M123.441 89.8037C123.441 89.8037 106.72 92.3582 106.367 92.8703C106.013 93.3823 106.307 108.496 106.307 108.496L104.364 126.185L110.369 128.464C110.369 128.464 112.255 113.549 112.901 109.52C113.344 106.525 113.658 103.502 113.844 100.466C113.844 100.466 123.088 103.094 126.255 100.904C129.422 98.7133 128.785 96.0108 128.785 96.0108" fill="#00AAD3"/>
<path d="M123.441 89.8037C123.441 89.8037 106.72 92.3582 106.367 92.8703C106.013 93.3823 106.307 108.496 106.307 108.496L104.364 126.185L110.369 128.464C110.369 128.464 112.255 113.549 112.901 109.52C113.344 106.525 113.658 103.502 113.844 100.466C113.844 100.466 123.088 103.094 126.255 100.904C129.422 98.7133 128.785 96.0108 128.785 96.0108" stroke="#263238" stroke-linecap="round" stroke-linejoin="round"/>
<path d="M106.627 107.904C106.627 107.904 107.388 103.659 107.539 101.392" stroke="#263238" stroke-linecap="round" stroke-linejoin="round"/>
<path d="M112.6 98.0236C112.419 97.7226 112.2 97.4589 111.953 97.2422" stroke="#263238" stroke-linecap="round" stroke-linejoin="round"/>
<path d="M113.843 100.465C113.843 100.465 113.504 99.6423 113.061 98.8105" stroke="#263238" stroke-linecap="round" stroke-linejoin="round"/>
<path d="M133.331 60.5977C133.331 60.5977 126.677 75.7765 125.264 79.6541C123.851 83.5317 121.959 88.9278 121.959 89.5109C121.959 90.0941 120.722 105.066 121.135 105.356C121.548 105.646 127.727 103.165 130.613 101.78C133.498 100.395 133.615 99.3707 133.851 98.5656C134.088 97.7605 134.028 87.3945 134.028 87.3945C134.028 87.3945 140.033 66.2187 139.973 65.2715C139.913 64.3243 133.331 60.5977 133.331 60.5977Z" fill="#00AAD3" stroke="#263238" stroke-linecap="round" stroke-linejoin="round"/>
<path d="M128.274 75.9541C127.183 77.2802 126.267 78.2688 126.267 78.2688" stroke="#263238" stroke-linecap="round" stroke-linejoin="round"/>
<path d="M135.451 62.2754C135.451 62.2754 132.685 68.9946 131.269 71.6971C130.571 72.9356 129.783 74.0928 128.916 75.1543" stroke="#263238" stroke-linecap="round" stroke-linejoin="round"/>
<path d="M126.6 60.8672C126.6 60.8672 123.736 66.8049 122.911 70.3096C122.085 73.8142 121.908 75.6376 121.908 75.6376" stroke="#263238" stroke-linecap="round" stroke-linejoin="round"/>
<path d="M125.087 69.3591L127.808 67.1895L127.913 72.2807" stroke="#263238" stroke-linecap="round" stroke-linejoin="round"/>
<path d="M130.892 92.1717L131.801 91.9941" stroke="#263238" stroke-linecap="round" stroke-linejoin="round"/>
<path d="M131.505 90.6797L125.087 91.6298V93.3082L129.669 92.4113" stroke="#263238" stroke-linecap="round" stroke-linejoin="round"/>
<path d="M122.558 63.1515C122.558 63.1515 123.617 60.378 124.147 60.304C124.677 60.23 125.854 60.304 125.854 60.896C125.854 61.488 125.207 61.5531 125.207 61.5531H124.324L123.911 62.8673L122.558 63.1515Z" fill="white" stroke="#263238" stroke-linecap="round" stroke-linejoin="round"/>
<path d="M121.085 68.4088L121.498 65.5613C121.498 65.5613 121.675 63.0808 121.975 62.9328C122.276 62.7848 124.978 62.8618 124.978 62.8618C124.978 62.8618 125.037 65.7804 124.801 66.5115C124.565 67.2426 123.505 67.5327 123.505 67.5327C123.408 67.988 123.27 68.4288 123.095 68.8469C122.918 69.1429 122.269 69.504 122.269 69.504L122.092 70.096L120.562 68.8528L121.085 68.4088Z" fill="white" stroke="#263238" stroke-linecap="round" stroke-linejoin="round"/>
<path d="M123.498 67.5355L123.204 66.1472L124.323 66.0732" fill="white"/>
<path d="M123.498 67.5355L123.204 66.1472L124.323 66.0732" stroke="#263238" stroke-linecap="round" stroke-linejoin="round"/>
<path d="M120.495 68.1924L122.911 70.3088L121.968 71.549L119.908 69.2136L120.495 68.1924Z" fill="white" stroke="#263238" stroke-linecap="round" stroke-linejoin="round"/>
<path d="M119.908 69.2139L122.674 71.7683L117.376 81.7731C116.749 81.9383 116.098 81.8871 115.493 81.6251C114.49 81.1871 113.55 78.7066 113.55 78.4135C113.55 78.1205 119.908 69.2139 119.908 69.2139Z" fill="#00AAD3" stroke="#263238" stroke-linecap="round" stroke-linejoin="round"/>
<path d="M117.789 80.8231C117.789 80.8231 116.906 78.7777 116.846 78.1946C116.786 77.6115 116.729 76.4423 116.433 76.0042C116.137 75.5661 115.786 75.2731 115.669 74.616C115.552 73.9589 115.02 74.2519 114.953 74.912C114.886 75.5721 115.364 76.2262 115.364 76.2262C115.364 76.2262 113.894 75.6342 113.657 75.7881C113.421 75.9421 112.941 76.1522 113.068 76.6761C113.146 76.9975 113.246 77.3104 113.366 77.6115C113.366 77.6115 112.426 79.1448 112.426 79.8729C112.426 80.6011 113.073 81.7733 113.545 82.2113C114.018 82.6494 115.664 83.0993 115.664 83.0993L117.789 80.8231Z" fill="white" stroke="#263238" stroke-linecap="round" stroke-linejoin="round"/>
<path d="M134.774 65.7979L129.445 79.5086L116.433 80.3966C116.105 80.4952 115.805 80.704 115.566 81C115.328 81.2961 115.159 81.668 115.08 82.0749C114.943 82.7429 114.883 83.4315 114.903 84.1203C114.903 84.1203 123.557 85.4345 126.266 85.6535C128.975 85.8726 132.271 86.3106 132.684 85.7986C133.097 85.2865 137.982 72.7302 137.982 72.7302" fill="#00AAD3"/>
<path d="M134.774 65.7979L129.445 79.5086L116.433 80.3966C116.105 80.4952 115.805 80.704 115.566 81C115.328 81.2961 115.159 81.668 115.08 82.0749C114.943 82.7429 114.883 83.4315 114.903 84.1203C114.903 84.1203 123.557 85.4345 126.266 85.6535C128.975 85.8726 132.271 86.3106 132.684 85.7986C133.097 85.2865 137.982 72.7302 137.982 72.7302" stroke="#263238" stroke-linecap="round" stroke-linejoin="round"/>
<path d="M56.8907 106.118H55.5303V122.374H56.8907V106.118Z" fill="#263238" stroke="#263238" stroke-linecap="round" stroke-linejoin="round"/>
<path d="M48.6011 90.5437L46.2021 90.8916L47.7246 107.038L50.1236 106.69L48.6011 90.5437Z" fill="#263238" stroke="#263238" stroke-linecap="round" stroke-linejoin="round"/>
<path d="M57.9384 123.038V120.297H54.4849V123.062L40.6709 129.938V133.182H41.6136V130.716L56.2606 126.581L70.5209 130.716V133.182H71.4374V129.938L57.9384 123.038Z" fill="#8C8C8C" stroke="#263238" stroke-linecap="round" stroke-linejoin="round"/>
<path d="M59.6116 106.118H52.8096V111.31H59.6116V106.118Z" fill="#263238" stroke="#263238" stroke-linecap="round" stroke-linejoin="round"/>
<path d="M40.6711 133.313C40.6711 132.953 40.5851 132.602 40.4241 132.303C40.2631 132.004 40.0342 131.771 39.7664 131.633C39.4987 131.496 39.204 131.46 38.9198 131.53C38.6355 131.6 38.3744 131.773 38.1694 132.027C37.9645 132.282 37.8249 132.605 37.7684 132.958C37.7118 133.311 37.7409 133.676 37.8518 134.008C37.9627 134.34 38.1505 134.624 38.3915 134.824C38.6325 135.023 38.9158 135.13 39.2056 135.13C39.5943 135.13 39.967 134.939 40.2418 134.598C40.5167 134.257 40.6711 133.795 40.6711 133.313Z" fill="#263238" stroke="#263238" stroke-linecap="round" stroke-linejoin="round"/>
<path d="M39.8335 133.312C39.8335 133.158 39.7967 133.007 39.7277 132.879C39.6588 132.751 39.5607 132.651 39.446 132.592C39.3313 132.534 39.2051 132.518 39.0834 132.548C38.9616 132.578 38.8498 132.652 38.762 132.761C38.6742 132.87 38.6144 133.009 38.5902 133.16C38.566 133.311 38.5784 133.467 38.6259 133.61C38.6734 133.752 38.7539 133.873 38.8571 133.959C38.9603 134.045 39.0817 134.09 39.2058 134.09C39.3723 134.09 39.5319 134.008 39.6497 133.862C39.7674 133.716 39.8335 133.518 39.8335 133.312Z" fill="white" stroke="#263238" stroke-linecap="round" stroke-linejoin="round"/>
<path d="M74.464 133.313C74.464 132.953 74.3781 132.602 74.2171 132.303C74.056 132.004 73.8272 131.771 73.5594 131.633C73.2916 131.496 72.997 131.46 72.7127 131.53C72.4285 131.6 72.1674 131.773 71.9624 132.027C71.7575 132.282 71.6179 132.605 71.5614 132.958C71.5048 133.311 71.5338 133.676 71.6448 134.008C71.7557 134.34 71.9435 134.624 72.1845 134.824C72.4255 135.023 72.7088 135.13 72.9986 135.13C73.3873 135.13 73.76 134.939 74.0348 134.598C74.3096 134.257 74.464 133.795 74.464 133.313Z" fill="#263238" stroke="#263238" stroke-linecap="round" stroke-linejoin="round"/>
<path d="M73.0076 134.09C73.3542 134.09 73.6353 133.742 73.6353 133.312C73.6353 132.882 73.3542 132.533 73.0076 132.533C72.6609 132.533 72.3799 132.882 72.3799 133.312C72.3799 133.742 72.6609 134.09 73.0076 134.09Z" fill="white" stroke="#263238" stroke-linecap="round" stroke-linejoin="round"/>
<path d="M56.8379 133.276H55.6875L55.1123 123.541H57.4154L56.8379 133.276Z" fill="#8C8C8C" stroke="#263238" stroke-linecap="round" stroke-linejoin="round"/>
<path d="M56.7861 131.198H55.6357V135.221H56.7861V131.198Z" fill="#263238" stroke="#263238" stroke-linecap="round" stroke-linejoin="round"/>
<path d="M47.1509 98.6444C46.4797 98.7249 45.8023 98.6405 45.1574 98.3962C44.5124 98.1518 43.9126 97.7523 43.3922 97.2204C42.8718 96.6886 42.441 96.0347 42.1244 95.2963C41.8078 94.5579 41.6116 93.7493 41.547 92.9168L39.9408 72.1968C39.8759 71.3644 39.9439 70.5242 40.141 69.7244C40.338 68.9245 40.6601 68.1806 41.089 67.5352C41.5178 66.8898 42.045 66.3555 42.6404 65.9629C43.2358 65.5702 43.8877 65.3269 44.559 65.2467C45.9147 65.0859 47.2664 65.5992 48.3172 66.6737C49.368 67.7482 50.0318 69.2961 50.1629 70.9773L51.7691 91.6973C51.8994 93.3781 51.4861 95.0542 50.62 96.357C49.754 97.6598 48.5061 98.4826 47.1509 98.6444Z" fill="#8C8C8C" stroke="#263238" stroke-linecap="round" stroke-linejoin="round"/>
<path d="M48.3681 98.5C47.0127 98.6616 45.6609 98.1491 44.6101 97.0751C43.5592 96.001 42.8953 94.4534 42.7642 92.7724L41.158 72.0524C41.0317 70.3742 41.4468 68.7023 42.3124 67.403C43.178 66.1036 44.4235 65.2827 45.7762 65.1201C47.132 64.9584 48.4841 65.4714 49.535 66.546C50.5859 67.6207 51.2496 69.1691 51.3801 70.8506L52.9839 91.5499C53.1143 93.2305 52.7014 94.9066 51.8359 96.2098C50.9703 97.513 49.7231 98.3367 48.3681 98.5Z" fill="#8C8C8C" stroke="#263238" stroke-linecap="round" stroke-linejoin="round"/>
<path d="M71.5381 107.744L46.7573 108.525C46.6244 108.531 46.492 108.503 46.3676 108.445C46.2433 108.386 46.1294 108.298 46.0325 108.185C45.9357 108.072 45.8577 107.937 45.8031 107.786C45.7485 107.636 45.7183 107.474 45.7143 107.309L45.5855 102.555C45.5771 102.223 45.6754 101.9 45.8589 101.657C46.0424 101.415 46.296 101.272 46.564 101.262L71.3615 100.48C71.4942 100.475 71.6266 100.502 71.751 100.56C71.8753 100.618 71.9892 100.706 72.0861 100.818C72.183 100.931 72.261 101.067 72.3156 101.217C72.3702 101.367 72.4004 101.529 72.4044 101.694L72.5261 106.451C72.5303 106.616 72.5079 106.781 72.4604 106.936C72.4129 107.091 72.3412 107.232 72.2493 107.352C72.1575 107.473 72.0473 107.569 71.9252 107.636C71.8032 107.704 71.6716 107.74 71.5381 107.744Z" fill="#8C8C8C" stroke="#263238" stroke-linecap="round" stroke-linejoin="round"/>
<path d="M60.5156 100.713L46.5749 101.259C46.0163 101.281 45.5778 101.86 45.5954 102.553L45.7166 107.308C45.7342 108 46.2014 108.544 46.76 108.522L60.7007 107.976C61.2593 107.954 61.6978 107.375 61.6802 106.682L61.559 101.928C61.5414 101.235 61.0742 100.691 60.5156 100.713Z" fill="#8C8C8C" stroke="#263238" stroke-linecap="round" stroke-linejoin="round"/>
<path d="M74.7026 98.0615C74.7026 98.0615 74.915 103.141 75.4782 107.69C76.0415 112.24 76.9747 126.042 76.9747 126.042C77.2682 127.428 77.6678 128.776 78.168 130.068C78.502 130.926 78.9292 131.722 79.4377 132.436C79.4377 132.436 81.2731 134.712 81.2015 135.062C81.1299 135.411 79.9795 135.375 78.8506 135.112C77.7217 134.848 77.4902 134.52 76.8553 133.99C76.2205 133.46 74.7766 132.782 74.1417 132.51C73.5068 132.238 73.2968 131.551 73.5092 130.764C73.7217 129.976 74.4281 128.138 74.4281 127.001C74.4281 125.865 73.8625 120.472 72.3159 116.881C70.7693 113.291 69.8457 107.078 69.8457 107.078L74.7026 98.0615Z" fill="white" stroke="#263238" stroke-linecap="round" stroke-linejoin="round"/>
<path d="M75.0768 131.027C74.6281 130.595 74.2081 130.139 73.8501 129.71C73.7164 130.133 73.5923 130.506 73.5231 130.764C73.3107 131.551 73.5231 132.244 74.1556 132.51C74.788 132.777 76.2343 133.457 76.8692 133.99C77.504 134.523 77.7356 134.849 78.8645 135.112C79.9933 135.375 81.1461 135.408 81.2153 135.062C81.2845 134.715 79.4516 132.436 79.4516 132.436L78.5351 132.963C78.5351 132.963 76.3465 132.253 75.0768 131.027Z" fill="#00AAD3" stroke="#263238" stroke-linecap="round" stroke-linejoin="round"/>
<path d="M47.6284 87.6308C47.6284 87.6308 46.9935 90.7151 47.3396 92.6628C47.6856 94.6104 50.058 99.1156 54.1631 100.193C58.2681 101.27 68.5857 100.918 68.5857 100.918C68.5857 100.918 66.0988 105.604 65.1727 111.246C64.5618 114.981 62.6882 120.209 62.3994 120.999C62.1107 121.789 58.6977 123.222 58.8194 123.867C58.9412 124.512 59.3397 128.526 60.2061 130.178C61.0724 131.829 62.5188 132.546 63.0963 132.759C63.6739 132.972 63.7909 132.972 63.7909 132.256C63.7909 131.539 63.3851 130.536 63.3851 129.888C63.3851 129.239 63.3278 124.856 63.5594 124.293C63.7909 123.731 71.3614 108.928 72.5165 106.501C73.6717 104.074 75.4664 99.3287 75.9867 98.5413C76.507 97.754 77.1419 96.6765 76.6216 95.3149C76.1013 93.9533 64.156 89.3949 64.156 89.3949L63.5283 86.6392L57.5617 86.21L47.6284 87.6308Z" fill="white" stroke="#263238" stroke-linecap="round" stroke-linejoin="round"/>
<path d="M64.1561 89.392L63.5284 86.6362L57.5617 86.207L47.6165 87.6397C47.6165 87.6397 46.9673 90.727 47.3277 92.6717C47.9005 95.7471 50.0461 99.1245 54.1512 100.202C58.2562 101.279 68.5738 100.927 68.5738 100.927C68.5738 100.927 69.5523 94.8621 71.4641 92.497C69.1681 91.5262 64.1561 89.392 64.1561 89.392Z" fill="#263238" stroke="#263238" stroke-linecap="round" stroke-linejoin="round"/>
<path d="M68.5859 100.906C69.9629 100.454 71.2991 99.8287 72.5741 99.041L68.5859 100.906Z" fill="white"/>
<path d="M68.5859 100.906C69.9629 100.454 71.2991 99.8287 72.5741 99.041" stroke="#263238" stroke-linecap="round" stroke-linejoin="round"/>
<path d="M60.7788 127.297C60.3683 126.113 60.3946 123.745 60.4471 122.479C59.5736 123.014 58.7549 123.532 58.8146 123.855C58.9292 124.5 59.3349 128.514 60.2013 130.166C61.0676 131.817 62.5139 132.534 63.0915 132.747C63.6691 132.96 63.786 132.96 63.786 132.244C63.786 131.527 63.3827 130.527 63.3803 129.876C62.7757 129.78 62.1769 129.635 61.5879 129.44C61.5879 129.44 61.3564 128.946 60.7788 127.297Z" fill="#00AAD3" stroke="#263238" stroke-linecap="round" stroke-linejoin="round"/>
<path d="M59.9438 59.2354L58.1514 60.1678C58.1514 60.1678 59.5977 76.9598 59.5404 79.3278C59.4831 81.6958 59.3662 86.4318 59.3662 86.4318C59.3662 86.4318 61.8531 87.3642 63.5285 86.6479L63.414 78.5464C63.414 78.5464 64.6288 70.8001 64.1658 68.29C63.7028 65.7799 62.2564 61.334 62.2564 61.334C62.2564 61.334 61.5762 59.3064 59.9438 59.2354Z" fill="white" stroke="#263238" stroke-linecap="round" stroke-linejoin="round"/>
<path d="M59.4283 66.4786L61.1658 63.1959L63.3019 67.0439C63.3019 67.0439 62.3783 61.6656 62.2613 61.3074C61.9843 60.6324 61.5654 60.0628 61.0489 59.6587C60.3544 59.0845 59.5429 59.0667 59.0823 59.0134C58.6217 58.9602 58.1562 60.1619 58.1562 60.1619L59.4283 66.4786Z" fill="white" stroke="#263238" stroke-linecap="round" stroke-linejoin="round"/>
<path d="M58.6168 58.9717C58.6168 58.9717 52.8052 60.5494 52.3064 60.9993C51.8076 61.4492 51.5904 62.9144 51.7145 63.4768C51.8386 64.0392 53.168 76.2048 53.168 76.2048L46.4854 88.3112C46.4854 88.3112 48.6668 90.5638 50.7098 91.0137C52.7527 91.4636 57.1108 90.7887 58.655 90.0014L60.1991 89.214C60.1991 89.214 60.9151 74.5146 60.1538 68.713C59.3924 62.9114 58.6168 58.9717 58.6168 58.9717Z" fill="#00AAD3" stroke="#263238" stroke-linecap="round" stroke-linejoin="round"/>
<path d="M76.4619 77.6673L78.7316 76.43C78.7316 76.43 79.4142 74.5711 79.5049 74.4024C79.5956 74.2337 80.3665 73.9525 80.7293 73.5558C81.092 73.1592 81.5932 72.4873 81.7293 72.431C81.8653 72.3748 82.0921 72.8809 81.7293 73.5558C81.4544 74.0341 81.1338 74.4694 80.7746 74.8523L83.0014 73.84C83.0014 73.84 83.863 72.0373 84.0897 72.8247C84.3164 73.6121 83.135 76.0363 82.8653 76.8237C82.5957 77.611 82.3188 78.0077 81.82 78.1202C81.3212 78.2326 79.777 78.5701 79.4596 78.6263C79.1421 78.6825 77.1875 80.0885 77.1875 80.0885L76.4619 77.6673Z" fill="white" stroke="#263238" stroke-linecap="round" stroke-linejoin="round"/>
<path d="M79.6123 77.1043C80.0157 76.681 80.481 76.2607 80.7293 76.2607C81.2305 76.2607 82.3188 76.3732 82.3188 76.3732C82.3188 76.3732 82.956 74.5705 83.2735 74.3012C83.5909 74.0318 83.863 74.4136 83.5909 74.976" fill="white"/>
<path d="M79.6123 77.1043C80.0157 76.681 80.481 76.2607 80.7293 76.2607C81.2305 76.2607 82.3188 76.3732 82.3188 76.3732C82.3188 76.3732 82.956 74.5705 83.2735 74.3012C83.5909 74.0318 83.863 74.4136 83.5909 74.976" stroke="#263238" stroke-linecap="round" stroke-linejoin="round"/>
<path d="M61.6592 60.3242C61.6592 60.3242 63.1127 68.1505 63.0673 71.0779C63.022 74.0053 62.2916 75.4794 62.4301 76.4858C62.5685 77.4922 62.8835 89.3263 62.8835 89.3263L64.1556 89.3825C64.1556 89.3825 63.8382 84.8774 63.8836 84.0309C63.9289 83.1843 64.3824 79.8069 64.3824 79.8069C64.3824 79.8069 66.6545 85.3836 66.9719 85.6648C67.2893 85.946 77.8241 80.3723 77.8241 80.3723L77.0508 77.1607L69.0149 79.1883C69.0149 79.1883 67.4254 72.6556 67.1986 71.2466C66.9719 69.8377 66.7905 64.8856 66.1533 63.6453C65.516 62.4051 61.6592 60.3242 61.6592 60.3242Z" fill="#00AAD3" stroke="#263238" stroke-linecap="round" stroke-linejoin="round"/>
<path d="M64.3828 79.8076C64.3828 79.8076 64.6549 78.4016 65.1107 74.6839C65.3847 72.4643 65.3999 70.2074 65.1561 67.9824" stroke="#263238" stroke-linecap="round" stroke-linejoin="round"/>
<path d="M63.8859 64.708C64.1031 66.7356 64.2654 69.2398 63.9742 70.628C63.6419 72.2038 63.2168 73.7471 62.7021 75.2456" stroke="#263238" stroke-linecap="round" stroke-linejoin="round"/>
<path d="M63.4854 61.5674C63.4854 61.5674 63.6214 62.4169 63.7718 63.6394" stroke="#263238" stroke-linecap="round" stroke-linejoin="round"/>
<path d="M59.1416 72.5195C59.7311 74.3311 60.2514 76.0982 60.2514 76.0982" stroke="#263238" stroke-linecap="round" stroke-linejoin="round"/>
<path d="M56.3916 59.8721C56.3916 59.8721 57.4346 67.8137 58.2532 69.9538C58.4203 70.3889 58.6017 70.904 58.7854 71.4338" stroke="#263238" stroke-linecap="round" stroke-linejoin="round"/>
<path d="M69.2871 75.9798L71.058 75.3582C71.058 75.3582 72.1941 73.5556 72.4662 73.1056C72.7382 72.6557 73.3731 72.6557 73.8289 72.3183C74.2848 71.9808 74.8719 70.7406 75.0986 70.9656C75.3254 71.1905 75.0986 72.2058 74.86 72.487C74.5559 72.7921 74.2371 73.0738 73.9053 73.3306C73.7239 73.4993 76.039 72.8244 76.039 72.8244C76.039 72.8244 77.5378 71.1905 77.6285 71.6404C77.7192 72.0904 76.9459 73.668 76.9459 73.668C76.9459 73.668 75.8576 74.9616 75.3111 75.524C74.7645 76.0864 73.4495 76.3143 73.0867 76.412C72.7239 76.5096 72.0891 76.6369 72.0891 76.6369L69.3635 77.8742L69.2871 75.9798Z" fill="white" stroke="#263238" stroke-linecap="round" stroke-linejoin="round"/>
<path d="M76.598 74C76.598 74 75.6433 74.5624 75.1445 74.8436L76.598 74Z" fill="white"/>
<path d="M76.598 74C76.598 74 75.6433 74.5624 75.1445 74.8436" stroke="#263238" stroke-linecap="round" stroke-linejoin="round"/>
<path d="M73.9202 73.3311L73.1016 73.556" stroke="#263238" stroke-linecap="round" stroke-linejoin="round"/>
<path d="M53.3039 60.5498C53.3039 60.5498 50.6261 61.6746 50.2156 62.5212C49.805 63.3677 51.2609 70.2912 52.3516 74.1214C53.4423 77.9516 56.3469 84.3689 56.7097 84.5939C57.0724 84.8188 66.5642 80.6541 68.7361 79.8076C70.908 78.961 71.2779 78.514 71.2779 78.514L70.3232 75.4712L59.4281 77.8924L56.0868 64.8862" fill="#00AAD3"/>
<path d="M53.3039 60.5498C53.3039 60.5498 50.6261 61.6746 50.2156 62.5212C49.805 63.3677 51.2609 70.2912 52.3516 74.1214C53.4423 77.9516 56.3469 84.3689 56.7097 84.5939C57.0724 84.8188 66.5642 80.6541 68.7361 79.8076C70.908 78.961 71.2779 78.514 71.2779 78.514L70.3232 75.4712L59.4281 77.8924L56.0868 64.8862" stroke="#263238" stroke-linecap="round" stroke-linejoin="round"/>
<path d="M66.4617 43.3987C66.4617 43.3987 67.5214 44.2868 66.9844 45.2428C66.4474 46.1989 65.3137 46.264 65.3137 46.264L64.3232 44.3282C64.3232 44.3282 65.5023 42.5936 66.4617 43.3987Z" fill="#263238" stroke="#263238" stroke-linecap="round" stroke-linejoin="round"/>
<path d="M65.3487 44.554C65.3487 44.554 66.9741 49.3373 66.8834 49.7488C66.7927 50.1602 66.0361 50.8025 66.3798 51.4271C66.7235 52.0516 67.7306 53.3008 67.7044 53.4754C67.6781 53.65 66.4466 54.541 66.4466 54.541C66.4466 54.541 65.585 58.389 65.2342 58.9514C64.8833 59.5138 61.9215 58.83 61.9215 58.83L61.2962 63.1398L57.7782 59.0728L56.4632 57.5336C56.4632 57.5336 55.2842 50.9683 57.7854 47.0226C60.2866 43.0769 65.3487 44.554 65.3487 44.554Z" fill="white" stroke="#263238" stroke-linecap="round" stroke-linejoin="round"/>
<path d="M65.1245 51.2937C65.1245 51.6963 64.9909 52.0219 64.8405 52.0189C64.6902 52.016 64.5732 51.6845 64.5804 51.2789C64.5876 50.8734 64.7117 50.5508 64.862 50.5537C65.0124 50.5567 65.1293 50.8882 65.1245 51.2937Z" fill="#263238"/>
<path d="M65.1323 55.5023C64.8511 55.4858 64.5756 55.3985 64.3225 55.2459C64.0693 55.0932 63.8438 54.8783 63.6597 54.6143C63.6597 54.6143 63.5714 56.3459 64.0058 56.4465C64.4402 56.5471 65.1323 55.5023 65.1323 55.5023Z" fill="#263238" stroke="#263238" stroke-linecap="round" stroke-linejoin="round"/>
<path d="M64.2178 49.6894C64.2178 49.6894 65.1223 48.7393 65.9314 49.8522" stroke="#263238" stroke-linecap="round" stroke-linejoin="round"/>
<path d="M61.9219 58.8297L60.4541 58.3945L61.5591 60.9372L61.9219 58.8297Z" fill="#263238" stroke="#263238" stroke-linecap="round" stroke-linejoin="round"/>
<path d="M65.3489 44.5536C65.3489 44.5536 65.029 45.7997 63.4658 47.4277C61.9025 49.0557 60.5039 50.0917 60.5087 50.5417C60.5135 50.9916 60.7474 51.4119 60.4323 51.5214C60.1755 51.5621 59.9147 51.5075 59.6829 51.3645C59.6829 51.3645 58.924 54.0493 58.8094 55.9437C58.7629 57.194 58.9162 58.4434 59.2605 59.62C59.2605 59.62 55.8929 59.8449 53.9501 58.0157C52.0074 56.1864 51.4608 54.1144 51.6756 52.3177C51.8904 50.5209 52.5062 44.8466 55.4943 42.0672C58.4824 39.2877 62.7641 39.4032 64.2176 40.5369C65.6711 41.6705 66.7236 42.5023 66.4563 43.3992C66.189 44.2961 65.3489 44.5536 65.3489 44.5536Z" fill="#263238" stroke="#263238" stroke-linecap="round" stroke-linejoin="round"/>
<path d="M58.2915 101.087C58.2024 101.087 58.1143 101.063 58.0338 101.016C57.8634 100.9 57.7329 100.712 57.6665 100.486C57.6002 100.26 57.6026 100.011 57.6734 99.7873C58.7522 96.1346 59.9884 89.6197 58.7211 87.6749C58.4252 87.3789 56.6423 86.7869 47.0384 88.0183L46.3391 88.1071C45.6685 88.1781 45.0957 89.3799 44.9477 89.7943C44.9161 89.9001 44.8667 89.9963 44.8027 90.0764C44.7386 90.1565 44.6615 90.2187 44.5765 90.2588C44.4915 90.2989 44.4006 90.316 44.3098 90.3089C44.219 90.3018 44.1306 90.2706 44.0503 90.2176C43.886 90.087 43.7652 89.8873 43.7099 89.6552C43.6547 89.423 43.6688 89.174 43.7496 88.9537C43.8426 88.6932 44.7042 86.3962 46.2365 86.2305L46.9167 86.1446C57.1507 84.8245 59.1125 85.4905 59.7092 86.4021C61.9622 89.8594 59.2319 99.4261 58.9097 100.507C58.8677 100.671 58.7858 100.815 58.675 100.919C58.5643 101.023 58.4303 101.081 58.2915 101.087Z" fill="white" stroke="#263238" stroke-linecap="round" stroke-linejoin="round"/>
<path d="M100.483 73.2715H84.8006L81.1729 88.5125H96.8556L100.483 73.2715Z" fill="#D9D9D9" stroke="#263238" stroke-linecap="round" stroke-linejoin="round"/>
<path d="M69.7001 87.6777L69.502 88.5125H96.8555L97.056 87.6777H69.7001Z" fill="#D9D9D9" stroke="#263238" stroke-linecap="round" stroke-linejoin="round"/>
<path d="M81.3993 87.6777L81.2012 88.5125H96.8553L97.0558 87.6777H81.3993Z" fill="#263238" stroke="#263238" stroke-linecap="round" stroke-linejoin="round"/>
<path d="M96.6315 90.8008H93.9775V134.81H96.6315V90.8008Z" fill="white" stroke="#263238" stroke-linecap="round" stroke-linejoin="round"/>
<path d="M96.6315 90.8008H93.9775V98.0705H96.6315V90.8008Z" fill="#263238" stroke="#263238" stroke-linecap="round" stroke-linejoin="round"/>
<path d="M128.873 88.5215H61.4971V90.9664H128.873V88.5215Z" fill="white" stroke="#263238" stroke-linecap="round" stroke-linejoin="round"/>
<path d="M109.152 135.169H81.2275C83.9901 133.557 87.0054 132.722 90.0582 132.724H100.352C103.405 132.722 106.42 133.557 109.183 135.169H109.152Z" fill="white" stroke="#263238" stroke-linecap="round" stroke-linejoin="round"/>
</svg>
